<svg viewBox="0 0 288 23" fill="none" xmlns="http://www.w3.org/2000/svg">
<path d="M7.13797 13.54C8.48797 11.38 9.17797 9.28 9.17797 7.3C9.17797 5.71 8.78797 4.51 8.06797 3.7C7.31797 2.92 6.41797 2.5 5.39797 2.5C4.46797 2.5 3.65797 2.83 2.96797 3.49C2.24797 4.15 1.79797 4.93 1.58797 5.89L1.13797 5.83C1.28797 4.93 1.64797 4.06 2.21797 3.28C2.75797 2.5 3.47797 1.87 4.31797 1.39C5.15797 0.91 6.05797 0.669999 7.07797 0.669999C8.06797 0.669999 8.99797 0.939999 9.83797 1.42C10.678 1.9 11.368 2.59 11.878 3.49C12.388 4.39 12.658 5.38 12.658 6.49C12.658 7.87 12.298 9.22 11.578 10.48C10.858 11.77 9.86797 13.03 8.63797 14.29C7.40797 15.55 5.60797 17.23 3.26797 19.33H8.24797C9.41797 19.33 10.318 19.24 10.918 19.06C11.518 18.88 11.968 18.55 12.298 18.07C12.598 17.62 12.898 16.9 13.198 15.88L13.558 15.97L12.388 22H0.567969V21.46C3.59797 18.34 5.78797 15.7 7.13797 13.54ZM14.39 21.61C15.32 21.61 16.04 21.43 16.55 21.04C17.06 20.65 17.33 19.96 17.33 18.97V6.4C17.33 5.77 17.18 5.32 16.94 5.02C16.67 4.72 16.22 4.57 15.62 4.57H13.7V4.15C15.26 4.12 16.67 3.79 17.9 3.19C19.1 2.59 19.88 1.66 20.24 0.399999H20.72V18.97C20.72 19.96 20.96 20.65 21.47 21.04C21.98 21.43 22.7 21.61 23.66 21.61V22H14.39V21.61ZM25.3548 21.64C24.9648 21.22 24.7848 20.71 24.7848 20.05C24.7848 19.45 24.9648 18.97 25.3548 18.55C25.7448 18.16 26.2548 17.95 26.8848 17.95C27.4848 17.95 27.9948 18.16 28.3848 18.55C28.7748 18.97 28.9848 19.45 28.9848 20.05C28.9848 20.71 28.7748 21.22 28.3848 21.64C27.9948 22.06 27.4848 22.24 26.8848 22.24C26.2548 22.24 25.7448 22.06 25.3548 21.64ZM33.5209 20.98C32.3209 20.11 31.3909 18.85 30.7009 17.2C30.0109 15.55 29.6809 13.63 29.6809 11.41C29.6809 9.19 30.0109 7.24 30.7309 5.62C31.4209 4 32.3509 2.8 33.4909 1.96C34.6309 1.12 35.8909 0.699999 37.2409 0.699999C38.5609 0.699999 39.8209 1.15 40.9609 1.99C42.1009 2.83 43.0309 4.09 43.7209 5.71C44.3809 7.33 44.7409 9.25 44.7409 11.47C44.7409 13.72 44.3809 15.67 43.7209 17.29C43.0609 18.91 42.1609 20.17 41.0509 21.01C39.9409 21.88 38.7409 22.3 37.4509 22.3C36.0109 22.3 34.6909 21.88 33.5209 20.98ZM34.9909 19.3C35.7709 20.92 36.7309 21.7 37.9009 21.7C38.0209 21.7 38.1709 21.7 38.3809 21.64C39.3109 21.46 40.0309 20.59 40.5109 19C40.9909 17.41 41.2609 15.46 41.2609 13.18C41.2609 12.04 41.2009 10.9 41.0809 9.76C40.7809 7.21 40.2709 5.17 39.5509 3.64C38.8009 2.11 37.8409 1.33 36.7009 1.33C36.5509 1.33 36.3709 1.36 36.1309 1.39C35.1709 1.6 34.4209 2.5 33.9409 4.06C33.4609 5.62 33.2209 7.54 33.2209 9.79C33.2209 10.93 33.2809 12.04 33.4009 13.15C33.6709 15.67 34.2109 17.71 34.9909 19.3ZM51.552 13.54C52.902 11.38 53.592 9.28 53.592 7.3C53.592 5.71 53.202 4.51 52.482 3.7C51.732 2.92 50.832 2.5 49.812 2.5C48.882 2.5 48.072 2.83 47.382 3.49C46.662 4.15 46.212 4.93 46.002 5.89L45.552 5.83C45.702 4.93 46.062 4.06 46.632 3.28C47.172 2.5 47.892 1.87 48.732 1.39C49.572 0.91 50.472 0.669999 51.492 0.669999C52.482 0.669999 53.412 0.939999 54.252 1.42C55.092 1.9 55.782 2.59 56.292 3.49C56.802 4.39 57.072 5.38 57.072 6.49C57.072 7.87 56.712 9.22 55.992 10.48C55.272 11.77 54.282 13.03 53.052 14.29C51.822 15.55 50.022 17.23 47.682 19.33H52.662C53.832 19.33 54.732 19.24 55.332 19.06C55.932 18.88 56.382 18.55 56.712 18.07C57.012 17.62 57.312 16.9 57.612 15.88L57.972 15.97L56.802 22H44.982V21.46C48.012 18.34 50.202 15.7 51.552 13.54ZM59.9544 21.64C59.5644 21.22 59.3844 20.71 59.3844 20.05C59.3844 19.45 59.5644 18.97 59.9544 18.55C60.3444 18.16 60.8544 17.95 61.4844 17.95C62.0844 17.95 62.5944 18.16 62.9844 18.55C63.3744 18.97 63.5844 19.45 63.5844 20.05C63.5844 20.71 63.3744 21.22 62.9844 21.64C62.5944 22.06 62.0844 22.24 61.4844 22.24C60.8544 22.24 60.3444 22.06 59.9544 21.64ZM71.2102 13.54C72.5602 11.38 73.2502 9.28 73.2502 7.3C73.2502 5.71 72.8602 4.51 72.1402 3.7C71.3902 2.92 70.4902 2.5 69.4702 2.5C68.5402 2.5 67.7302 2.83 67.0402 3.49C66.3202 4.15 65.8702 4.93 65.6602 5.89L65.2102 5.83C65.3602 4.93 65.7202 4.06 66.2902 3.28C66.8302 2.5 67.5502 1.87 68.3902 1.39C69.2302 0.91 70.1302 0.669999 71.1502 0.669999C72.1402 0.669999 73.0702 0.939999 73.9102 1.42C74.7502 1.9 75.4402 2.59 75.9502 3.49C76.4602 4.39 76.7302 5.38 76.7302 6.49C76.7302 7.87 76.3702 9.22 75.6502 10.48C74.9302 11.77 73.9402 13.03 72.7102 14.29C71.4802 15.55 69.6802 17.23 67.3402 19.33H72.3202C73.4902 19.33 74.3902 19.24 74.9902 19.06C75.5902 18.88 76.0402 18.55 76.3702 18.07C76.6702 17.62 76.9702 16.9 77.2702 15.88L77.6302 15.97L76.4602 22H64.6402V21.46C67.6702 18.34 69.8602 15.7 71.2102 13.54ZM82.7396 20.98C81.5396 20.11 80.6096 18.85 79.9196 17.2C79.2296 15.55 78.8996 13.63 78.8996 11.41C78.8996 9.19 79.2296 7.24 79.9496 5.62C80.6396 4 81.5696 2.8 82.7096 1.96C83.8496 1.12 85.1096 0.699999 86.4596 0.699999C87.7796 0.699999 89.0396 1.15 90.1796 1.99C91.3196 2.83 92.2496 4.09 92.9396 5.71C93.5996 7.33 93.9596 9.25 93.9596 11.47C93.9596 13.72 93.5996 15.67 92.9396 17.29C92.2796 18.91 91.3796 20.17 90.2696 21.01C89.1596 21.88 87.9596 22.3 86.6696 22.3C85.2296 22.3 83.9096 21.88 82.7396 20.98ZM84.2096 19.3C84.9896 20.92 85.9496 21.7 87.1196 21.7C87.2396 21.7 87.3896 21.7 87.5996 21.64C88.5296 21.46 89.2496 20.59 89.7296 19C90.2096 17.41 90.4796 15.46 90.4796 13.18C90.4796 12.04 90.4196 10.9 90.2996 9.76C89.9996 7.21 89.4896 5.17 88.7696 3.64C88.0196 2.11 87.0596 1.33 85.9196 1.33C85.7696 1.33 85.5896 1.36 85.3496 1.39C84.3896 1.6 83.6396 2.5 83.1596 4.06C82.6796 5.62 82.4396 7.54 82.4396 9.79C82.4396 10.93 82.4996 12.04 82.6196 13.15C82.8896 15.67 83.4296 17.71 84.2096 19.3ZM100.771 13.54C102.121 11.38 102.811 9.28 102.811 7.3C102.811 5.71 102.421 4.51 101.701 3.7C100.951 2.92 100.051 2.5 99.0308 2.5C98.1008 2.5 97.2908 2.83 96.6008 3.49C95.8808 4.15 95.4308 4.93 95.2208 5.89L94.7708 5.83C94.9208 4.93 95.2808 4.06 95.8508 3.28C96.3908 2.5 97.1108 1.87 97.9508 1.39C98.7908 0.91 99.6908 0.669999 100.711 0.669999C101.701 0.669999 102.631 0.939999 103.471 1.42C104.311 1.9 105.001 2.59 105.511 3.49C106.021 4.39 106.291 5.38 106.291 6.49C106.291 7.87 105.931 9.22 105.211 10.48C104.491 11.77 103.501 13.03 102.271 14.29C101.041 15.55 99.2408 17.23 96.9008 19.33H101.881C103.051 19.33 103.951 19.24 104.551 19.06C105.151 18.88 105.601 18.55 105.931 18.07C106.231 17.62 106.531 16.9 106.831 15.88L107.191 15.97L106.021 22H94.2008V21.46C97.2308 18.34 99.4208 15.7 100.771 13.54ZM112.937 21.61C113.717 21.61 114.347 21.43 114.797 21.01C115.217 20.62 115.457 19.93 115.457 18.97V17.08H107.417V16.51L118.337 0.519999H118.847V15.07H121.607V17.08H118.847V18.97C118.847 19.96 119.057 20.65 119.507 21.04C119.927 21.43 120.557 21.61 121.367 21.61V22H112.937V21.61ZM115.457 15.07V5.44L109.187 15.07H115.457ZM129.323 13.72H153.353V14.23H129.323V13.72ZM165.298 20.98C164.098 20.11 163.168 18.85 162.478 17.2C161.788 15.55 161.458 13.63 161.458 11.41C161.458 9.19 161.788 7.24 162.508 5.62C163.198 4 164.128 2.8 165.268 1.96C166.408 1.12 167.668 0.699999 169.018 0.699999C170.338 0.699999 171.598 1.15 172.738 1.99C173.878 2.83 174.808 4.09 175.498 5.71C176.158 7.33 176.518 9.25 176.518 11.47C176.518 13.72 176.158 15.67 175.498 17.29C174.838 18.91 173.938 20.17 172.828 21.01C171.718 21.88 170.518 22.3 169.228 22.3C167.788 22.3 166.468 21.88 165.298 20.98ZM166.768 19.3C167.548 20.92 168.508 21.7 169.678 21.7C169.798 21.7 169.948 21.7 170.158 21.64C171.088 21.46 171.808 20.59 172.288 19C172.768 17.41 173.038 15.46 173.038 13.18C173.038 12.04 172.978 10.9 172.858 9.76C172.558 7.21 172.048 5.17 171.328 3.64C170.578 2.11 169.618 1.33 168.478 1.33C168.328 1.33 168.148 1.36 167.908 1.39C166.948 1.6 166.198 2.5 165.718 4.06C165.238 5.62 164.998 7.54 164.998 9.79C164.998 10.93 165.058 12.04 165.178 13.15C165.448 15.67 165.988 17.71 166.768 19.3ZM180.199 21.67C179.329 21.31 178.639 20.77 178.129 20.08C177.589 19.42 177.349 18.64 177.349 17.8C177.349 17.26 177.499 16.81 177.859 16.45C178.189 16.09 178.609 15.91 179.089 15.91C179.509 15.91 179.869 16.09 180.169 16.39C180.439 16.72 180.589 17.08 180.589 17.5C180.589 17.83 180.469 18.22 180.289 18.64C180.049 19.06 179.959 19.42 179.959 19.78C179.959 20.35 180.199 20.8 180.679 21.16C181.159 21.52 181.759 21.67 182.479 21.67C183.199 21.67 183.859 21.43 184.459 20.89C185.059 20.38 185.509 19.72 185.869 18.88C186.199 18.04 186.379 17.17 186.379 16.24C186.379 14.62 185.899 13.3 184.969 12.28C184.039 11.26 182.809 10.72 181.279 10.72V10.3C182.539 10.18 183.529 9.76 184.309 9.04C185.059 8.32 185.449 7.36 185.449 6.13C185.449 4.93 185.119 4 184.459 3.34C183.799 2.68 183.019 2.35 182.089 2.35C181.369 2.35 180.679 2.59 180.049 3.07C179.389 3.55 178.909 4.27 178.609 5.2L178.159 5.08C178.459 3.79 179.119 2.71 180.109 1.87C181.099 1.03 182.299 0.579999 183.709 0.579999C184.519 0.579999 185.299 0.789999 186.019 1.15C186.739 1.51 187.339 2.05 187.789 2.74C188.239 3.43 188.479 4.24 188.479 5.14C188.479 5.86 188.299 6.52 187.969 7.18C187.609 7.84 187.159 8.38 186.559 8.8C185.959 9.22 185.299 9.49 184.609 9.55C185.599 9.67 186.499 10 187.339 10.54C188.149 11.08 188.779 11.8 189.259 12.67C189.739 13.57 189.979 14.56 189.979 15.64C189.979 16.96 189.649 18.1 188.989 19.09C188.329 20.11 187.429 20.86 186.349 21.4C185.269 21.94 184.129 22.21 182.929 22.21C181.969 22.21 181.039 22.03 180.199 21.67ZM191.702 21.64C191.312 21.22 191.132 20.71 191.132 20.05C191.132 19.45 191.312 18.97 191.702 18.55C192.092 18.16 192.602 17.95 193.232 17.95C193.832 17.95 194.342 18.16 194.732 18.55C195.122 18.97 195.332 19.45 195.332 20.05C195.332 20.71 195.122 21.22 194.732 21.64C194.342 22.06 193.832 22.24 193.232 22.24C192.602 22.24 192.092 22.06 191.702 21.64ZM199.869 20.98C198.669 20.11 197.739 18.85 197.049 17.2C196.359 15.55 196.029 13.63 196.029 11.41C196.029 9.19 196.359 7.24 197.079 5.62C197.769 4 198.699 2.8 199.839 1.96C200.979 1.12 202.239 0.699999 203.589 0.699999C204.909 0.699999 206.169 1.15 207.309 1.99C208.449 2.83 209.379 4.09 210.069 5.71C210.729 7.33 211.089 9.25 211.089 11.47C211.089 13.72 210.729 15.67 210.069 17.29C209.409 18.91 208.509 20.17 207.399 21.01C206.289 21.88 205.089 22.3 203.799 22.3C202.359 22.3 201.039 21.88 199.869 20.98ZM201.339 19.3C202.119 20.92 203.079 21.7 204.249 21.7C204.369 21.7 204.519 21.7 204.729 21.64C205.659 21.46 206.379 20.59 206.859 19C207.339 17.41 207.609 15.46 207.609 13.18C207.609 12.04 207.549 10.9 207.429 9.76C207.129 7.21 206.619 5.17 205.899 3.64C205.149 2.11 204.189 1.33 203.049 1.33C202.899 1.33 202.719 1.36 202.479 1.39C201.519 1.6 200.769 2.5 200.289 4.06C199.809 5.62 199.569 7.54 199.569 9.79C199.569 10.93 199.629 12.04 199.749 13.15C200.019 15.67 200.559 17.71 201.339 19.3ZM214.769 21.67C213.899 21.31 213.209 20.77 212.699 20.08C212.159 19.42 211.919 18.64 211.919 17.8C211.919 17.26 212.069 16.81 212.429 16.45C212.759 16.09 213.179 15.91 213.659 15.91C214.079 15.91 214.439 16.09 214.739 16.39C215.009 16.72 215.159 17.08 215.159 17.5C215.159 17.83 215.039 18.22 214.859 18.64C214.619 19.06 214.529 19.42 214.529 19.78C214.529 20.35 214.769 20.8 215.249 21.16C215.729 21.52 216.329 21.67 217.049 21.67C217.769 21.67 218.429 21.43 219.029 20.89C219.629 20.38 220.079 19.72 220.439 18.88C220.769 18.04 220.949 17.17 220.949 16.24C220.949 14.62 220.469 13.3 219.539 12.28C218.609 11.26 217.379 10.72 215.849 10.72V10.3C217.109 10.18 218.099 9.76 218.879 9.04C219.629 8.32 220.019 7.36 220.019 6.13C220.019 4.93 219.689 4 219.029 3.34C218.369 2.68 217.589 2.35 216.659 2.35C215.939 2.35 215.249 2.59 214.619 3.07C213.959 3.55 213.479 4.27 213.179 5.2L212.729 5.08C213.029 3.79 213.689 2.71 214.679 1.87C215.669 1.03 216.869 0.579999 218.279 0.579999C219.089 0.579999 219.869 0.789999 220.589 1.15C221.309 1.51 221.909 2.05 222.359 2.74C222.809 3.43 223.049 4.24 223.049 5.14C223.049 5.86 222.869 6.52 222.539 7.18C222.179 7.84 221.729 8.38 221.129 8.8C220.529 9.22 219.869 9.49 219.179 9.55C220.169 9.67 221.069 10 221.909 10.54C222.719 11.08 223.349 11.8 223.829 12.67C224.309 13.57 224.549 14.56 224.549 15.64C224.549 16.96 224.219 18.1 223.559 19.09C222.899 20.11 221.999 20.86 220.919 21.4C219.839 21.94 218.699 22.21 217.499 22.21C216.539 22.21 215.609 22.03 214.769 21.67ZM226.273 21.64C225.883 21.22 225.703 20.71 225.703 20.05C225.703 19.45 225.883 18.97 226.273 18.55C226.663 18.16 227.173 17.95 227.803 17.95C228.403 17.95 228.913 18.16 229.303 18.55C229.693 18.97 229.903 19.45 229.903 20.05C229.903 20.71 229.693 21.22 229.303 21.64C228.913 22.06 228.403 22.24 227.803 22.24C227.173 22.24 226.663 22.06 226.273 21.64ZM237.529 13.54C238.879 11.38 239.569 9.28 239.569 7.3C239.569 5.71 239.179 4.51 238.459 3.7C237.709 2.92 236.809 2.5 235.789 2.5C234.859 2.5 234.049 2.83 233.359 3.49C232.639 4.15 232.189 4.93 231.979 5.89L231.529 5.83C231.679 4.93 232.039 4.06 232.609 3.28C233.149 2.5 233.869 1.87 234.709 1.39C235.549 0.91 236.449 0.669999 237.469 0.669999C238.459 0.669999 239.389 0.939999 240.229 1.42C241.069 1.9 241.759 2.59 242.269 3.49C242.779 4.39 243.049 5.38 243.049 6.49C243.049 7.87 242.689 9.22 241.969 10.48C241.249 11.77 240.259 13.03 239.029 14.29C237.799 15.55 235.999 17.23 233.659 19.33H238.639C239.809 19.33 240.709 19.24 241.309 19.06C241.909 18.88 242.359 18.55 242.689 18.07C242.989 17.62 243.289 16.9 243.589 15.88L243.949 15.97L242.779 22H230.959V21.46C233.989 18.34 236.179 15.7 237.529 13.54ZM249.058 20.98C247.858 20.11 246.928 18.85 246.238 17.2C245.548 15.55 245.218 13.63 245.218 11.41C245.218 9.19 245.548 7.24 246.268 5.62C246.958 4 247.888 2.8 249.028 1.96C250.168 1.12 251.428 0.699999 252.778 0.699999C254.098 0.699999 255.358 1.15 256.498 1.99C257.638 2.83 258.568 4.09 259.258 5.71C259.918 7.33 260.278 9.25 260.278 11.47C260.278 13.72 259.918 15.67 259.258 17.29C258.598 18.91 257.698 20.17 256.588 21.01C255.478 21.88 254.278 22.3 252.988 22.3C251.548 22.3 250.228 21.88 249.058 20.98ZM250.528 19.3C251.308 20.92 252.268 21.7 253.438 21.7C253.558 21.7 253.708 21.7 253.918 21.64C254.848 21.46 255.568 20.59 256.048 19C256.528 17.41 256.798 15.46 256.798 13.18C256.798 12.04 256.738 10.9 256.618 9.76C256.318 7.21 255.808 5.17 255.088 3.64C254.338 2.11 253.378 1.33 252.238 1.33C252.088 1.33 251.908 1.36 251.668 1.39C250.708 1.6 249.958 2.5 249.478 4.06C248.998 5.62 248.758 7.54 248.758 9.79C248.758 10.93 248.818 12.04 248.938 13.15C249.208 15.67 249.748 17.71 250.528 19.3ZM267.089 13.54C268.439 11.38 269.129 9.28 269.129 7.3C269.129 5.71 268.739 4.51 268.019 3.7C267.269 2.92 266.369 2.5 265.349 2.5C264.419 2.5 263.609 2.83 262.919 3.49C262.199 4.15 261.749 4.93 261.539 5.89L261.089 5.83C261.239 4.93 261.599 4.06 262.169 3.28C262.709 2.5 263.429 1.87 264.269 1.39C265.109 0.91 266.009 0.669999 267.029 0.669999C268.019 0.669999 268.949 0.939999 269.789 1.42C270.629 1.9 271.319 2.59 271.829 3.49C272.339 4.39 272.609 5.38 272.609 6.49C272.609 7.87 272.249 9.22 271.529 10.48C270.809 11.77 269.819 13.03 268.589 14.29C267.359 15.55 265.559 17.23 263.219 19.33H268.199C269.369 19.33 270.269 19.24 270.869 19.06C271.469 18.88 271.919 18.55 272.249 18.07C272.549 17.62 272.849 16.9 273.149 15.88L273.509 15.97L272.339 22H260.519V21.46C263.549 18.34 265.739 15.7 267.089 13.54ZM279.256 21.61C280.036 21.61 280.666 21.43 281.116 21.01C281.536 20.62 281.776 19.93 281.776 18.97V17.08H273.736V16.51L284.656 0.519999H285.166V15.07H287.926V17.08H285.166V18.97C285.166 19.96 285.376 20.65 285.826 21.04C286.246 21.43 286.876 21.61 287.686 21.61V22H279.256V21.61ZM281.776 15.07V5.44L275.506 15.07H281.776Z" fill="black"/>
</svg>
