<svg viewBox="0 0 362 70" fill="none" xmlns="http://www.w3.org/2000/svg">
<path d="M112.169 22.61C112.829 22.61 113.339 22.43 113.699 22.01C114.059 21.62 114.269 20.93 114.269 19.97V5.03C114.269 4.07 114.059 3.41 113.699 2.99C113.339 2.6 112.829 2.39 112.169 2.39V2H126.929L127.799 8.21L127.409 8.3C126.749 4.46 124.889 2.51 121.829 2.51H117.689V12.14H121.019C122.009 12.14 122.729 11.9 123.179 11.36C123.629 10.85 123.869 9.95 123.869 8.66H124.289V16.19H123.869C123.869 14.93 123.629 14 123.179 13.46C122.699 12.92 121.979 12.65 120.989 12.65H117.689V20.87C117.689 21.47 117.779 21.89 118.019 22.13C118.229 22.37 118.649 22.49 119.279 22.49H122.309C123.989 22.49 125.309 22.04 126.269 21.08C127.229 20.15 127.979 18.77 128.519 16.94L128.849 17.03L127.679 23H112.169V22.61ZM137.198 22.61C137.618 22.61 137.948 22.55 138.218 22.37C138.488 22.22 138.638 21.98 138.638 21.62C138.638 21.26 138.458 20.81 138.128 20.27L135.638 16.34L134.168 18.65C133.568 19.64 133.268 20.45 133.268 21.11C133.268 21.59 133.418 21.98 133.718 22.22C134.018 22.49 134.438 22.61 135.008 22.61V23H128.528V22.61C129.278 22.61 130.088 22.28 130.988 21.56C131.888 20.87 132.698 19.91 133.478 18.71L135.308 15.83L131.948 10.52C131.378 9.65 130.868 9.05 130.418 8.69C129.938 8.36 129.398 8.18 128.798 8.18V7.79H136.628V8.18C136.208 8.18 135.848 8.27 135.578 8.42C135.278 8.6 135.158 8.84 135.158 9.17C135.158 9.53 135.308 9.98 135.668 10.52L137.798 13.91L138.938 11.9C139.508 10.94 139.808 10.13 139.808 9.47C139.808 8.63 139.268 8.18 138.188 8.18V7.79H144.518V8.18C143.738 8.18 142.898 8.51 141.998 9.17C141.068 9.83 140.258 10.76 139.598 11.9L138.128 14.42L141.848 20.27C142.388 21.17 142.898 21.77 143.378 22.1C143.858 22.46 144.458 22.61 145.118 22.61V23H137.198V22.61ZM155.114 22.61C155.834 22.61 156.374 22.46 156.794 22.16C157.184 21.86 157.394 21.35 157.394 20.6C157.394 20.36 157.364 20.15 157.364 20L156.434 13.13C156.074 10.58 155.024 9.29 153.314 9.29C152.534 9.29 151.874 9.62 151.334 10.25C150.794 10.91 150.464 11.66 150.374 12.56V19.97C150.374 20.96 150.554 21.65 150.914 22.04C151.274 22.43 151.784 22.61 152.474 22.61V23H145.034V22.61C145.694 22.61 146.204 22.43 146.564 22.01C146.924 21.62 147.134 20.93 147.134 19.97V4.37C147.134 3.65 146.954 3.14 146.654 2.84C146.354 2.54 145.844 2.39 145.154 2.39V2C147.074 1.88 148.724 1.49 150.104 0.829999L150.374 0.979999V11.27C150.644 10.19 151.184 9.29 151.994 8.57C152.804 7.85 153.764 7.49 154.904 7.49C156.194 7.49 157.244 7.97 158.084 8.87C158.894 9.77 159.434 11.18 159.704 13.04L160.724 20C160.844 20.96 161.084 21.65 161.504 22.04C161.894 22.43 162.434 22.61 163.094 22.61V23H155.114V22.61ZM165.059 4.61C164.669 4.19 164.489 3.68 164.489 3.02C164.489 2.42 164.669 1.94 165.059 1.55C165.449 1.16 165.959 0.95 166.589 0.95C167.219 0.95 167.729 1.16 168.119 1.55C168.509 1.94 168.719 2.42 168.719 3.02C168.719 3.68 168.509 4.19 168.119 4.61C167.729 5.03 167.219 5.21 166.589 5.21C165.959 5.21 165.449 5.03 165.059 4.61ZM163.139 22.61C163.799 22.61 164.309 22.43 164.669 22.01C165.029 21.62 165.239 20.93 165.239 19.97V11.06C165.239 10.34 165.059 9.86 164.759 9.56C164.459 9.26 163.949 9.11 163.259 9.08V8.69C165.179 8.57 166.829 8.18 168.209 7.52L168.479 7.67V19.97C168.479 20.96 168.659 21.65 169.019 22.04C169.379 22.43 169.889 22.61 170.579 22.61V23H163.139V22.61ZM175.118 22.76C174.008 22.4 173.018 21.92 172.118 21.32V4.37C172.118 3.65 171.938 3.14 171.638 2.84C171.338 2.54 170.828 2.39 170.138 2.39V2C172.058 1.88 173.708 1.49 175.088 0.829999L175.358 0.979999V11.15C175.628 10.22 176.198 9.38 177.068 8.66C177.908 7.94 178.928 7.55 180.098 7.55C181.268 7.55 182.318 7.91 183.248 8.63C184.148 9.35 184.868 10.28 185.378 11.45C185.858 12.65 186.128 13.91 186.128 15.26C186.128 16.82 185.798 18.23 185.138 19.43C184.478 20.66 183.548 21.62 182.408 22.28C181.268 22.97 179.978 23.3 178.598 23.3C177.398 23.3 176.228 23.12 175.118 22.76ZM176.198 21.35C176.768 22.37 177.638 22.85 178.778 22.85C179.978 22.85 180.968 22.25 181.688 21.02C182.408 19.82 182.768 18.23 182.768 16.28C182.768 14.84 182.558 13.58 182.198 12.5C181.838 11.45 181.328 10.64 180.698 10.1C180.038 9.56 179.318 9.26 178.508 9.26C177.728 9.26 177.068 9.56 176.498 10.1C175.898 10.64 175.538 11.33 175.358 12.17V16.61C175.358 18.77 175.628 20.33 176.198 21.35ZM188.204 4.61C187.814 4.19 187.634 3.68 187.634 3.02C187.634 2.42 187.814 1.94 188.204 1.55C188.594 1.16 189.104 0.95 189.734 0.95C190.364 0.95 190.874 1.16 191.264 1.55C191.654 1.94 191.864 2.42 191.864 3.02C191.864 3.68 191.654 4.19 191.264 4.61C190.874 5.03 190.364 5.21 189.734 5.21C189.104 5.21 188.594 5.03 188.204 4.61ZM186.284 22.61C186.944 22.61 187.454 22.43 187.814 22.01C188.174 21.62 188.384 20.93 188.384 19.97V11.06C188.384 10.34 188.204 9.86 187.904 9.56C187.604 9.26 187.094 9.11 186.404 9.08V8.69C188.324 8.57 189.974 8.18 191.354 7.52L191.624 7.67V19.97C191.624 20.96 191.804 21.65 192.164 22.04C192.524 22.43 193.034 22.61 193.724 22.61V23H186.284V22.61ZM196.434 21.92C195.714 20.99 195.354 19.79 195.354 18.29V8.99H193.464V8.57C194.694 8.45 195.744 8.03 196.584 7.25C197.424 6.47 197.964 5.42 198.204 4.07H198.624V7.79H203.094L202.584 8.99H198.624V17.96C198.624 18.98 198.834 19.82 199.254 20.45C199.674 21.11 200.274 21.41 201.024 21.41C201.624 21.41 202.104 21.23 202.494 20.81C202.884 20.39 203.154 19.88 203.304 19.25L203.664 19.31C203.514 20.45 203.064 21.38 202.344 22.16C201.594 22.94 200.694 23.3 199.674 23.3C198.234 23.3 197.154 22.85 196.434 21.92ZM205.547 4.61C205.157 4.19 204.977 3.68 204.977 3.02C204.977 2.42 205.157 1.94 205.547 1.55C205.937 1.16 206.447 0.95 207.077 0.95C207.707 0.95 208.217 1.16 208.607 1.55C208.997 1.94 209.207 2.42 209.207 3.02C209.207 3.68 208.997 4.19 208.607 4.61C208.217 5.03 207.707 5.21 207.077 5.21C206.447 5.21 205.937 5.03 205.547 4.61ZM203.627 22.61C204.287 22.61 204.797 22.43 205.157 22.01C205.517 21.62 205.727 20.93 205.727 19.97V11.06C205.727 10.34 205.547 9.86 205.247 9.56C204.947 9.26 204.437 9.11 203.747 9.08V8.69C205.667 8.57 207.317 8.18 208.697 7.52L208.967 7.67V19.97C208.967 20.96 209.147 21.65 209.507 22.04C209.867 22.43 210.377 22.61 211.067 22.61V23H203.627V22.61ZM214.98 22.25C213.81 21.56 212.88 20.6 212.22 19.37C211.53 18.17 211.2 16.82 211.2 15.32C211.2 13.79 211.53 12.44 212.22 11.24C212.88 10.04 213.81 9.14 214.98 8.48C216.12 7.82 217.38 7.49 218.76 7.49C220.14 7.49 221.4 7.85 222.54 8.51C223.68 9.2 224.61 10.13 225.3 11.33C225.96 12.53 226.32 13.88 226.32 15.38C226.32 16.91 225.99 18.29 225.33 19.49C224.67 20.69 223.74 21.65 222.6 22.31C221.46 22.97 220.2 23.3 218.82 23.3C217.41 23.3 216.12 22.97 214.98 22.25ZM216.36 20.87C217.2 22.13 218.22 22.73 219.36 22.73C220.5 22.73 221.37 22.19 222 21.08C222.6 20 222.93 18.56 222.93 16.79C222.93 16.22 222.87 15.5 222.78 14.66C222.51 12.68 221.97 11.09 221.13 9.89C220.29 8.69 219.33 8.06 218.22 8.06C217.05 8.06 216.15 8.63 215.52 9.74C214.89 10.88 214.59 12.32 214.59 14.06C214.59 14.78 214.62 15.41 214.71 15.98C214.95 17.99 215.52 19.61 216.36 20.87ZM236.532 22.61C237.192 22.61 237.732 22.46 238.122 22.16C238.512 21.86 238.722 21.35 238.722 20.6C238.722 20.36 238.692 20.15 238.692 20L237.762 13.13C237.402 10.58 236.352 9.29 234.642 9.29C233.862 9.29 233.172 9.62 232.632 10.25C232.092 10.91 231.762 11.66 231.702 12.56V19.97C231.702 20.96 231.882 21.65 232.242 22.04C232.602 22.43 233.112 22.61 233.802 22.61V23H226.362V22.61C227.022 22.61 227.532 22.43 227.892 22.01C228.252 21.62 228.462 20.93 228.462 19.97V11.06C228.462 10.34 228.282 9.86 227.982 9.56C227.682 9.26 227.172 9.11 226.482 9.08V8.69C228.402 8.57 230.052 8.18 231.432 7.52L231.702 7.67V11.27C231.972 10.19 232.512 9.29 233.322 8.57C234.132 7.85 235.092 7.49 236.232 7.49C237.522 7.49 238.572 7.97 239.412 8.87C240.222 9.77 240.762 11.18 241.032 13.04L242.052 20C242.172 20.96 242.412 21.65 242.802 22.04C243.162 22.43 243.672 22.61 244.332 22.61V23H236.532V22.61ZM254.795 22.25C253.625 21.56 252.695 20.6 252.035 19.37C251.345 18.17 251.015 16.82 251.015 15.32C251.015 13.79 251.345 12.44 252.035 11.24C252.695 10.04 253.625 9.14 254.795 8.48C255.935 7.82 257.195 7.49 258.575 7.49C259.955 7.49 261.215 7.85 262.355 8.51C263.495 9.2 264.425 10.13 265.115 11.33C265.775 12.53 266.135 13.88 266.135 15.38C266.135 16.91 265.805 18.29 265.145 19.49C264.485 20.69 263.555 21.65 262.415 22.31C261.275 22.97 260.015 23.3 258.635 23.3C257.225 23.3 255.935 22.97 254.795 22.25ZM256.175 20.87C257.015 22.13 258.035 22.73 259.175 22.73C260.315 22.73 261.185 22.19 261.815 21.08C262.415 20 262.745 18.56 262.745 16.79C262.745 16.22 262.685 15.5 262.595 14.66C262.325 12.68 261.785 11.09 260.945 9.89C260.105 8.69 259.145 8.06 258.035 8.06C256.865 8.06 255.965 8.63 255.335 9.74C254.705 10.88 254.405 12.32 254.405 14.06C254.405 14.78 254.435 15.41 254.525 15.98C254.765 17.99 255.335 19.61 256.175 20.87ZM266.085 28.61C266.745 28.61 267.255 28.43 267.615 28.01C267.975 27.62 268.185 26.93 268.185 25.97V11.06C268.185 10.34 268.005 9.86 267.705 9.56C267.405 9.26 266.895 9.11 266.205 9.08V8.69C268.125 8.57 269.775 8.18 271.155 7.52L271.425 7.67V10.79C271.695 10.01 272.265 9.26 273.135 8.57C274.005 7.91 275.055 7.55 276.255 7.55C277.395 7.55 278.445 7.91 279.375 8.57C280.305 9.26 281.025 10.19 281.565 11.36C282.105 12.56 282.375 13.85 282.375 15.29C282.375 16.76 282.045 18.11 281.445 19.34C280.815 20.57 279.975 21.53 278.895 22.25C277.815 22.97 276.615 23.3 275.355 23.3C273.765 23.3 272.445 22.73 271.425 21.53V25.97C271.425 26.96 271.635 27.65 272.085 28.04C272.505 28.43 273.135 28.61 273.945 28.61V29H266.085V28.61ZM272.415 21.08C273.075 22.19 273.975 22.73 275.115 22.73C275.835 22.73 276.495 22.49 277.095 21.95C277.695 21.41 278.145 20.66 278.475 19.7C278.805 18.74 278.985 17.66 278.985 16.4C278.985 14.9 278.775 13.61 278.385 12.53C277.995 11.45 277.455 10.64 276.795 10.07C276.135 9.53 275.385 9.23 274.575 9.23C273.795 9.23 273.165 9.47 272.625 9.95C272.085 10.43 271.665 11.03 271.425 11.75V16.94C271.425 18.62 271.755 20 272.415 21.08ZM287.332 22.25C286.282 21.56 285.472 20.6 284.902 19.4C284.302 18.2 284.032 16.91 284.032 15.47C284.032 13.97 284.332 12.62 284.992 11.42C285.652 10.22 286.522 9.26 287.662 8.54C288.772 7.85 290.002 7.49 291.322 7.49C292.462 7.49 293.482 7.76 294.322 8.27C295.162 8.81 295.822 9.5 296.272 10.37C296.722 11.27 296.962 12.23 296.962 13.25H287.212C287.182 13.37 287.182 13.55 287.182 13.76C287.182 15.17 287.392 16.4 287.842 17.48C288.262 18.56 288.892 19.4 289.702 20C290.512 20.6 291.472 20.87 292.552 20.87C293.752 20.87 294.772 20.51 295.612 19.79C296.452 19.07 296.992 18.14 297.232 16.94L297.652 17C297.472 18.2 297.052 19.28 296.452 20.24C295.852 21.2 295.072 21.95 294.112 22.49C293.152 23.03 292.102 23.3 290.962 23.3C289.582 23.3 288.382 22.97 287.332 22.25ZM292.492 12.74C292.912 12.74 293.242 12.65 293.422 12.44C293.602 12.23 293.722 11.87 293.722 11.39C293.722 10.55 293.482 9.77 293.062 9.05C292.612 8.33 291.952 7.94 291.082 7.94C290.182 7.94 289.342 8.42 288.622 9.35C287.872 10.31 287.422 11.42 287.242 12.74H292.492ZM307.694 22.61C308.354 22.61 308.894 22.46 309.284 22.16C309.674 21.86 309.884 21.35 309.884 20.6C309.884 20.36 309.854 20.15 309.854 20L308.924 13.13C308.564 10.58 307.514 9.29 305.804 9.29C305.024 9.29 304.334 9.62 303.794 10.25C303.254 10.91 302.924 11.66 302.864 12.56V19.97C302.864 20.96 303.044 21.65 303.404 22.04C303.764 22.43 304.274 22.61 304.964 22.61V23H297.524V22.61C298.184 22.61 298.694 22.43 299.054 22.01C299.414 21.62 299.624 20.93 299.624 19.97V11.06C299.624 10.34 299.444 9.86 299.144 9.56C298.844 9.26 298.334 9.11 297.644 9.08V8.69C299.564 8.57 301.214 8.18 302.594 7.52L302.864 7.67V11.27C303.134 10.19 303.674 9.29 304.484 8.57C305.294 7.85 306.254 7.49 307.394 7.49C308.684 7.49 309.734 7.97 310.574 8.87C311.384 9.77 311.924 11.18 312.194 13.04L313.214 20C313.334 20.96 313.574 21.65 313.964 22.04C314.324 22.43 314.834 22.61 315.494 22.61V23H307.694V22.61ZM317.461 4.61C317.071 4.19 316.891 3.68 316.891 3.02C316.891 2.42 317.071 1.94 317.461 1.55C317.851 1.16 318.361 0.95 318.991 0.95C319.621 0.95 320.131 1.16 320.521 1.55C320.911 1.94 321.121 2.42 321.121 3.02C321.121 3.68 320.911 4.19 320.521 4.61C320.131 5.03 319.621 5.21 318.991 5.21C318.361 5.21 317.851 5.03 317.461 4.61ZM315.541 22.61C316.201 22.61 316.711 22.43 317.071 22.01C317.431 21.62 317.641 20.93 317.641 19.97V11.06C317.641 10.34 317.461 9.86 317.161 9.56C316.861 9.26 316.351 9.11 315.661 9.08V8.69C317.581 8.57 319.231 8.18 320.611 7.52L320.881 7.67V19.97C320.881 20.96 321.061 21.65 321.421 22.04C321.781 22.43 322.291 22.61 322.981 22.61V23H315.541V22.61ZM333.417 22.61C334.077 22.61 334.617 22.46 335.007 22.16C335.397 21.86 335.607 21.35 335.607 20.6C335.607 20.36 335.577 20.15 335.577 20L334.647 13.13C334.287 10.58 333.237 9.29 331.527 9.29C330.747 9.29 330.057 9.62 329.517 10.25C328.977 10.91 328.647 11.66 328.587 12.56V19.97C328.587 20.96 328.767 21.65 329.127 22.04C329.487 22.43 329.997 22.61 330.687 22.61V23H323.247V22.61C323.907 22.61 324.417 22.43 324.777 22.01C325.137 21.62 325.347 20.93 325.347 19.97V11.06C325.347 10.34 325.167 9.86 324.867 9.56C324.567 9.26 324.057 9.11 323.367 9.08V8.69C325.287 8.57 326.937 8.18 328.317 7.52L328.587 7.67V11.27C328.857 10.19 329.397 9.29 330.207 8.57C331.017 7.85 331.977 7.49 333.117 7.49C334.407 7.49 335.457 7.97 336.297 8.87C337.107 9.77 337.647 11.18 337.917 13.04L338.937 20C339.057 20.96 339.297 21.65 339.687 22.04C340.047 22.43 340.557 22.61 341.217 22.61V23H333.417V22.61ZM343.91 28.7C343.04 28.34 342.38 27.86 341.93 27.26C341.48 26.69 341.27 26.09 341.27 25.46C341.27 25.04 341.54 24.62 342.08 24.2C342.62 23.81 343.37 23.39 344.33 22.97C343.52 22.79 342.89 22.46 342.44 21.92C341.99 21.38 341.78 20.78 341.78 20.09C341.78 19.85 341.81 19.64 341.93 19.52C342.02 19.4 342.26 19.19 342.65 18.92L343.37 18.41L344.6 17.48C343.64 17.06 342.89 16.43 342.35 15.62C341.81 14.84 341.54 13.91 341.54 12.86C341.54 11.81 341.81 10.88 342.35 10.04C342.89 9.2 343.67 8.57 344.66 8.09C345.62 7.64 346.76 7.4 348.02 7.4C348.41 7.4 348.98 7.46 349.76 7.58C350.78 7.73 351.62 7.79 352.34 7.79H355.46L354.95 8.99L352.04 8.93C352.76 9.44 353.3 10.04 353.69 10.73C354.05 11.45 354.26 12.17 354.26 12.95C354.26 13.97 353.99 14.9 353.45 15.68C352.91 16.46 352.19 17.09 351.23 17.51C350.27 17.96 349.19 18.17 347.93 18.17C346.82 18.17 345.83 17.99 344.96 17.63C344.54 17.99 344.24 18.29 344.12 18.47C343.97 18.65 343.91 18.83 343.91 18.95C343.91 19.76 344.51 20.15 345.71 20.15H351.35C352.55 20.15 353.48 20.36 354.17 20.78C354.86 21.2 355.22 21.92 355.22 22.94C355.22 23.96 354.83 24.95 354.11 25.91C353.39 26.9 352.37 27.71 351.11 28.34C349.85 28.97 348.44 29.27 346.91 29.27C345.77 29.27 344.75 29.09 343.91 28.7ZM345.35 26.84C346.19 27.38 347.3 27.65 348.68 27.65C349.76 27.65 350.69 27.5 351.53 27.17C352.34 26.87 352.97 26.45 353.42 25.97C353.87 25.49 354.11 24.98 354.11 24.47C354.11 24.05 353.93 23.69 353.57 23.45C353.21 23.21 352.7 23.06 352.01 23.06H345.35H344.99C344.63 23.36 344.33 23.66 344.15 23.93C343.97 24.2 343.88 24.53 343.91 24.89C344 25.67 344.48 26.3 345.35 26.84ZM345.65 16.19C346.34 17.18 347.24 17.66 348.32 17.66C349.19 17.66 349.88 17.27 350.42 16.43C350.93 15.59 351.2 14.57 351.2 13.34C351.2 12.38 351.02 11.51 350.72 10.67C350.42 9.83 349.97 9.17 349.43 8.66C348.89 8.18 348.26 7.91 347.6 7.91C346.64 7.91 345.92 8.36 345.41 9.26C344.87 10.16 344.63 11.18 344.63 12.38C344.63 13.94 344.96 15.23 345.65 16.19ZM357.464 22.64C357.074 22.22 356.894 21.71 356.894 21.05C356.894 20.45 357.074 19.97 357.464 19.55C357.854 19.16 358.364 18.95 358.994 18.95C359.594 18.95 360.104 19.16 360.494 19.55C360.884 19.97 361.094 20.45 361.094 21.05C361.094 21.71 360.884 22.22 360.494 22.64C360.104 23.06 359.594 23.24 358.994 23.24C358.364 23.24 357.854 23.06 357.464 22.64ZM357.464 12.98C357.074 12.56 356.894 12.05 356.894 11.39C356.894 10.79 357.074 10.31 357.464 9.89C357.854 9.5 358.364 9.29 358.994 9.29C359.594 9.29 360.104 9.5 360.494 9.89C360.884 10.31 361.094 10.79 361.094 11.39C361.094 12.05 360.884 12.56 360.494 12.98C360.104 13.4 359.594 13.58 358.994 13.58C358.364 13.58 357.854 13.4 357.464 12.98ZM0.899375 62.61C1.55938 62.61 2.06938 62.43 2.42938 62.01C2.78938 61.62 2.99938 60.93 2.99938 59.97V45.03C2.99938 44.07 2.81938 43.38 2.45938 42.99C2.09938 42.6 1.55938 42.39 0.899375 42.39V42H15.5994L16.4694 48.21L16.1094 48.3C15.4194 44.46 13.5594 42.51 10.5294 42.51H6.41938V52.47H9.68938C10.7094 52.47 11.4294 52.23 11.8794 51.69C12.3294 51.18 12.5694 50.28 12.5694 48.99H12.9594V56.52H12.5694C12.5694 55.26 12.3294 54.33 11.8794 53.79C11.3994 53.25 10.6794 52.98 9.65938 52.98H6.41938V59.97C6.41938 60.96 6.62938 61.65 7.07938 62.04C7.49938 62.43 8.12938 62.61 8.93938 62.61V63H0.899375V62.61ZM19.1485 62.25C18.0985 61.56 17.2885 60.6 16.7185 59.4C16.1185 58.2 15.8485 56.91 15.8485 55.47C15.8485 53.97 16.1485 52.62 16.8085 51.42C17.4685 50.22 18.3385 49.26 19.4785 48.54C20.5885 47.85 21.8185 47.49 23.1385 47.49C24.2785 47.49 25.2985 47.76 26.1385 48.27C26.9785 48.81 27.6385 49.5 28.0885 50.37C28.5385 51.27 28.7785 52.23 28.7785 53.25H19.0285C18.9985 53.37 18.9985 53.55 18.9985 53.76C18.9985 55.17 19.2085 56.4 19.6585 57.48C20.0785 58.56 20.7085 59.4 21.5185 60C22.3285 60.6 23.2885 60.87 24.3685 60.87C25.5685 60.87 26.5885 60.51 27.4285 59.79C28.2685 59.07 28.8085 58.14 29.0485 56.94L29.4685 57C29.2885 58.2 28.8685 59.28 28.2685 60.24C27.6685 61.2 26.8885 61.95 25.9285 62.49C24.9685 63.03 23.9185 63.3 22.7785 63.3C21.3985 63.3 20.1985 62.97 19.1485 62.25ZM24.3085 52.74C24.7285 52.74 25.0585 52.65 25.2385 52.44C25.4185 52.23 25.5385 51.87 25.5385 51.39C25.5385 50.55 25.2985 49.77 24.8785 49.05C24.4285 48.33 23.7685 47.94 22.8985 47.94C21.9985 47.94 21.1585 48.42 20.4385 49.35C19.6885 50.31 19.2385 51.42 19.0585 52.74H24.3085ZM34.2296 62.76C33.1196 62.4 32.1296 61.92 31.2296 61.32V44.37C31.2296 43.65 31.0496 43.14 30.7496 42.84C30.4496 42.54 29.9396 42.39 29.2496 42.39V42C31.1696 41.88 32.8196 41.49 34.1996 40.83L34.4696 40.98V51.15C34.7396 50.22 35.3096 49.38 36.1796 48.66C37.0196 47.94 38.0396 47.55 39.2096 47.55C40.3796 47.55 41.4296 47.91 42.3596 48.63C43.2596 49.35 43.9796 50.28 44.4896 51.45C44.9696 52.65 45.2396 53.91 45.2396 55.26C45.2396 56.82 44.9096 58.23 44.2496 59.43C43.5896 60.66 42.6596 61.62 41.5196 62.28C40.3796 62.97 39.0896 63.3 37.7096 63.3C36.5096 63.3 35.3396 63.12 34.2296 62.76ZM35.3096 61.35C35.8796 62.37 36.7496 62.85 37.8896 62.85C39.0896 62.85 40.0796 62.25 40.7996 61.02C41.5196 59.82 41.8796 58.23 41.8796 56.28C41.8796 54.84 41.6696 53.58 41.3096 52.5C40.9496 51.45 40.4396 50.64 39.8096 50.1C39.1496 49.56 38.4296 49.26 37.6196 49.26C36.8396 49.26 36.1796 49.56 35.6096 50.1C35.0096 50.64 34.6496 51.33 34.4696 52.17V56.61C34.4696 58.77 34.7396 60.33 35.3096 61.35ZM45.395 62.61C46.055 62.61 46.565 62.43 46.925 62.01C47.285 61.62 47.495 60.93 47.495 59.97V51.06C47.495 50.34 47.345 49.86 47.045 49.56C46.745 49.26 46.235 49.11 45.515 49.08V48.69C47.435 48.57 49.085 48.18 50.465 47.52L50.735 47.67V50.94C50.975 50.01 51.425 49.2 52.085 48.51C52.745 47.85 53.495 47.49 54.395 47.49C55.085 47.49 55.655 47.73 56.105 48.15C56.525 48.6 56.765 49.11 56.765 49.68C56.765 50.19 56.585 50.61 56.285 50.97C55.985 51.33 55.565 51.48 55.055 51.48C54.695 51.48 54.425 51.42 54.215 51.24C54.005 51.09 53.825 50.88 53.705 50.64C53.585 50.4 53.465 50.16 53.405 49.92C53.285 49.68 53.195 49.53 53.105 49.41C52.985 49.32 52.865 49.26 52.685 49.26C52.205 49.26 51.785 49.56 51.425 50.1C51.065 50.67 50.825 51.33 50.735 52.08V59.97C50.735 60.93 50.975 61.62 51.455 62.01C51.935 62.43 52.595 62.61 53.465 62.61V63H45.395V62.61ZM61.258 62.61C60.508 62.13 59.938 61.44 59.518 60.54C59.098 59.64 58.888 58.56 58.888 57.33V51.06C58.888 50.34 58.708 49.86 58.408 49.56C58.108 49.26 57.598 49.11 56.908 49.08V48.69C58.828 48.57 60.478 48.18 61.858 47.52L62.128 47.67V57C62.128 58.38 62.368 59.49 62.908 60.27C63.418 61.08 64.198 61.47 65.248 61.47C66.148 61.47 66.838 61.17 67.348 60.54C67.858 59.91 68.158 59.16 68.248 58.32V51.06C68.248 50.34 68.068 49.86 67.768 49.56C67.468 49.26 66.958 49.11 66.268 49.08V48.69C68.188 48.57 69.838 48.18 71.218 47.52L71.488 47.67V60.18C71.488 60.84 71.638 61.29 71.938 61.53C72.238 61.77 72.778 61.86 73.498 61.83V62.22C71.548 62.46 69.898 62.85 68.548 63.36L68.248 63.18V59.76C67.918 60.72 67.378 61.56 66.628 62.28C65.848 63 64.918 63.33 63.778 63.33C62.818 63.33 61.978 63.09 61.258 62.61ZM84.2579 62.43C83.7779 61.89 83.4779 61.11 83.3579 60.12L83.2679 59.46C83.1479 60.12 82.8479 60.75 82.4279 61.32C81.9779 61.92 81.4079 62.4 80.7179 62.76C79.9979 63.12 79.2179 63.3 78.3479 63.3C77.0879 63.3 76.0379 62.94 75.2279 62.22C74.4179 61.5 74.0279 60.57 74.0279 59.43C74.0279 58.41 74.3579 57.57 75.0779 56.91C75.7979 56.25 76.8179 55.86 78.1379 55.74L82.6979 55.38L82.4879 53.85C82.3079 52.44 81.8879 51.33 81.2279 50.52C80.5679 49.74 79.6979 49.32 78.6179 49.32C77.7479 49.32 76.9979 49.59 76.3379 50.07C75.6779 50.55 75.1979 51.21 74.8679 52.02L74.4779 51.93C74.6579 51.21 75.0179 50.49 75.5579 49.8C76.0979 49.14 76.7579 48.57 77.5679 48.15C78.3779 47.73 79.2779 47.49 80.2679 47.49C81.7679 47.49 82.9979 47.97 83.9279 48.93C84.8579 49.89 85.4279 51.27 85.6679 53.04L86.5379 59.67C86.6879 60.81 87.0779 61.35 87.7379 61.35C87.9179 61.35 88.0979 61.29 88.2479 61.11C88.3979 60.96 88.4879 60.75 88.5479 60.48L88.9079 60.51C88.8479 61.23 88.6079 61.86 88.1279 62.4C87.6479 62.97 87.0179 63.24 86.2379 63.24C85.3979 63.24 84.7379 62.97 84.2579 62.43ZM77.8379 60.72C78.3479 61.26 79.0379 61.53 79.9379 61.53C80.8379 61.53 81.5879 61.26 82.1879 60.72C82.7579 60.18 83.0879 59.52 83.1779 58.77L82.7579 55.83L79.8179 56.07C78.9179 56.16 78.2279 56.46 77.7479 56.94C77.2679 57.42 77.0579 58.05 77.0579 58.77C77.0579 59.55 77.2979 60.18 77.8379 60.72ZM88.9009 62.61C89.5609 62.61 90.0709 62.43 90.4309 62.01C90.7909 61.62 91.0009 60.93 91.0009 59.97V51.06C91.0009 50.34 90.8509 49.86 90.5509 49.56C90.2509 49.26 89.7409 49.11 89.0209 49.08V48.69C90.9409 48.57 92.5909 48.18 93.9709 47.52L94.2409 47.67V50.94C94.4809 50.01 94.9309 49.2 95.5909 48.51C96.2509 47.85 97.0009 47.49 97.9009 47.49C98.5909 47.49 99.1609 47.73 99.6109 48.15C100.031 48.6 100.271 49.11 100.271 49.68C100.271 50.19 100.091 50.61 99.7909 50.97C99.4909 51.33 99.0709 51.48 98.5609 51.48C98.2009 51.48 97.9309 51.42 97.7209 51.24C97.5109 51.09 97.3309 50.88 97.2109 50.64C97.0909 50.4 96.9709 50.16 96.9109 49.92C96.7909 49.68 96.7009 49.53 96.6109 49.41C96.4909 49.32 96.3709 49.26 96.1909 49.26C95.7109 49.26 95.2909 49.56 94.9309 50.1C94.5709 50.67 94.3309 51.33 94.2409 52.08V59.97C94.2409 60.93 94.4809 61.62 94.9609 62.01C95.4409 62.43 96.1009 62.61 96.9709 62.61V63H88.9009V62.61ZM105.034 68.7C104.254 68.34 103.624 67.83 103.204 67.23C102.784 66.63 102.574 65.97 102.574 65.28C102.574 64.8 102.724 64.44 103.024 64.14C103.324 63.84 103.684 63.69 104.134 63.69C104.584 63.69 104.974 63.87 105.274 64.2C105.574 64.53 105.754 64.92 105.754 65.4C105.754 65.64 105.724 65.85 105.664 66.09C105.634 66.18 105.604 66.3 105.604 66.42C105.574 66.57 105.574 66.69 105.574 66.81C105.574 67.41 105.784 67.89 106.234 68.25C106.654 68.61 107.194 68.76 107.824 68.76C110.434 68.76 111.754 66.42 111.754 61.68V59.34C111.424 60.3 110.884 61.14 110.134 61.86C109.354 62.58 108.424 62.91 107.284 62.91C106.324 62.91 105.484 62.67 104.764 62.19C104.014 61.71 103.444 61.02 103.024 60.12C102.604 59.22 102.394 58.14 102.394 56.91V51.06C102.394 50.34 102.214 49.86 101.914 49.56C101.614 49.26 101.104 49.11 100.414 49.08V48.69C102.334 48.57 103.984 48.18 105.364 47.52L105.634 47.67V56.58C105.634 57.96 105.874 59.07 106.414 59.85C106.924 60.66 107.704 61.05 108.754 61.05C109.654 61.05 110.344 60.75 110.854 60.12C111.364 59.49 111.664 58.74 111.754 57.9V51.06C111.754 50.34 111.574 49.86 111.274 49.56C110.974 49.26 110.464 49.11 109.774 49.08V48.69C111.694 48.57 113.344 48.18 114.724 47.52L114.994 47.67V61.32C114.994 63.03 114.634 64.47 113.974 65.67C113.284 66.87 112.384 67.77 111.304 68.37C110.224 68.97 109.054 69.24 107.794 69.24C106.744 69.24 105.814 69.06 105.034 68.7ZM129.394 54.54C130.744 52.38 131.434 50.28 131.434 48.3C131.434 46.71 131.044 45.51 130.324 44.7C129.574 43.92 128.674 43.5 127.654 43.5C126.724 43.5 125.914 43.83 125.224 44.49C124.504 45.15 124.054 45.93 123.844 46.89L123.394 46.83C123.544 45.93 123.904 45.06 124.474 44.28C125.014 43.5 125.734 42.87 126.574 42.39C127.414 41.91 128.314 41.67 129.334 41.67C130.324 41.67 131.254 41.94 132.094 42.42C132.934 42.9 133.624 43.59 134.134 44.49C134.644 45.39 134.914 46.38 134.914 47.49C134.914 48.87 134.554 50.22 133.834 51.48C133.114 52.77 132.124 54.03 130.894 55.29C129.664 56.55 127.864 58.23 125.524 60.33H130.504C131.674 60.33 132.574 60.24 133.174 60.06C133.774 59.88 134.224 59.55 134.554 59.07C134.854 58.62 135.154 57.9 135.454 56.88L135.814 56.97L134.644 63H122.824V62.46C125.854 59.34 128.044 56.7 129.394 54.54ZM136.646 62.61C137.576 62.61 138.296 62.43 138.806 62.04C139.316 61.65 139.586 60.96 139.586 59.97V47.4C139.586 46.77 139.436 46.32 139.196 46.02C138.926 45.72 138.476 45.57 137.876 45.57H135.956V45.15C137.516 45.12 138.926 44.79 140.156 44.19C141.356 43.59 142.136 42.66 142.496 41.4H142.976V59.97C142.976 60.96 143.216 61.65 143.726 62.04C144.236 62.43 144.956 62.61 145.916 62.61V63H136.646V62.61ZM148.874 65.55C149.354 65.01 149.624 64.47 149.624 63.93C149.624 63.63 149.534 63.42 149.384 63.27C149.204 63.12 148.964 62.94 148.634 62.76C148.184 62.55 147.854 62.31 147.644 62.07C147.404 61.83 147.314 61.44 147.314 60.9C147.314 60.36 147.494 59.91 147.884 59.55C148.244 59.19 148.694 58.98 149.234 58.98C149.894 58.98 150.404 59.25 150.824 59.79C151.214 60.33 151.424 60.99 151.424 61.77C151.424 63.09 150.974 64.2 150.134 65.16C149.294 66.12 148.304 66.81 147.224 67.17L147.074 66.78C147.764 66.51 148.364 66.09 148.874 65.55ZM164.902 54.54C166.252 52.38 166.942 50.28 166.942 48.3C166.942 46.71 166.552 45.51 165.832 44.7C165.082 43.92 164.182 43.5 163.162 43.5C162.232 43.5 161.422 43.83 160.732 44.49C160.012 45.15 159.562 45.93 159.352 46.89L158.902 46.83C159.052 45.93 159.412 45.06 159.982 44.28C160.522 43.5 161.242 42.87 162.082 42.39C162.922 41.91 163.822 41.67 164.842 41.67C165.832 41.67 166.762 41.94 167.602 42.42C168.442 42.9 169.132 43.59 169.642 44.49C170.152 45.39 170.422 46.38 170.422 47.49C170.422 48.87 170.062 50.22 169.342 51.48C168.622 52.77 167.632 54.03 166.402 55.29C165.172 56.55 163.372 58.23 161.032 60.33H166.012C167.182 60.33 168.082 60.24 168.682 60.06C169.282 59.88 169.732 59.55 170.062 59.07C170.362 58.62 170.662 57.9 170.962 56.88L171.322 56.97L170.152 63H158.332V62.46C161.362 59.34 163.552 56.7 164.902 54.54ZM176.431 61.98C175.231 61.11 174.301 59.85 173.611 58.2C172.921 56.55 172.591 54.63 172.591 52.41C172.591 50.19 172.921 48.24 173.641 46.62C174.331 45 175.261 43.8 176.401 42.96C177.541 42.12 178.801 41.7 180.151 41.7C181.471 41.7 182.731 42.15 183.871 42.99C185.011 43.83 185.941 45.09 186.631 46.71C187.291 48.33 187.651 50.25 187.651 52.47C187.651 54.72 187.291 56.67 186.631 58.29C185.971 59.91 185.071 61.17 183.961 62.01C182.851 62.88 181.651 63.3 180.361 63.3C178.921 63.3 177.601 62.88 176.431 61.98ZM177.901 60.3C178.681 61.92 179.641 62.7 180.811 62.7C180.931 62.7 181.081 62.7 181.291 62.64C182.221 62.46 182.941 61.59 183.421 60C183.901 58.41 184.171 56.46 184.171 54.18C184.171 53.04 184.111 51.9 183.991 50.76C183.691 48.21 183.181 46.17 182.461 44.64C181.711 43.11 180.751 42.33 179.611 42.33C179.461 42.33 179.281 42.36 179.041 42.39C178.081 42.6 177.331 43.5 176.851 45.06C176.371 46.62 176.131 48.54 176.131 50.79C176.131 51.93 176.191 53.04 176.311 54.15C176.581 56.67 177.121 58.71 177.901 60.3ZM194.462 54.54C195.812 52.38 196.502 50.28 196.502 48.3C196.502 46.71 196.112 45.51 195.392 44.7C194.642 43.92 193.742 43.5 192.722 43.5C191.792 43.5 190.982 43.83 190.292 44.49C189.572 45.15 189.122 45.93 188.912 46.89L188.462 46.83C188.612 45.93 188.972 45.06 189.542 44.28C190.082 43.5 190.802 42.87 191.642 42.39C192.482 41.91 193.382 41.67 194.402 41.67C195.392 41.67 196.322 41.94 197.162 42.42C198.002 42.9 198.692 43.59 199.202 44.49C199.712 45.39 199.982 46.38 199.982 47.49C199.982 48.87 199.622 50.22 198.902 51.48C198.182 52.77 197.192 54.03 195.962 55.29C194.732 56.55 192.932 58.23 190.592 60.33H195.572C196.742 60.33 197.642 60.24 198.242 60.06C198.842 59.88 199.292 59.55 199.622 59.07C199.922 58.62 200.222 57.9 200.522 56.88L200.882 56.97L199.712 63H187.892V62.46C190.922 59.34 193.112 56.7 194.462 54.54ZM206.629 62.61C207.409 62.61 208.039 62.43 208.489 62.01C208.909 61.62 209.149 60.93 209.149 59.97V58.08H201.109V57.51L212.029 41.52H212.539V56.07H215.299V58.08H212.539V59.97C212.539 60.96 212.749 61.65 213.199 62.04C213.619 62.43 214.249 62.61 215.059 62.61V63H206.629V62.61ZM209.149 56.07V46.44L202.879 56.07H209.149ZM218.601 65.55C219.081 65.01 219.351 64.47 219.351 63.93C219.351 63.63 219.261 63.42 219.111 63.27C218.931 63.12 218.691 62.94 218.361 62.76C217.911 62.55 217.581 62.31 217.371 62.07C217.131 61.83 217.041 61.44 217.041 60.9C217.041 60.36 217.221 59.91 217.611 59.55C217.971 59.19 218.421 58.98 218.961 58.98C219.621 58.98 220.131 59.25 220.551 59.79C220.941 60.33 221.151 60.99 221.151 61.77C221.151 63.09 220.701 64.2 219.861 65.16C219.021 66.12 218.031 66.81 216.951 67.17L216.801 66.78C217.491 66.51 218.091 66.09 218.601 65.55ZM238.828 62.43C238.348 61.89 238.048 61.11 237.928 60.12L237.838 59.46C237.718 60.12 237.418 60.75 236.998 61.32C236.548 61.92 235.978 62.4 235.288 62.76C234.568 63.12 233.788 63.3 232.918 63.3C231.658 63.3 230.608 62.94 229.798 62.22C228.988 61.5 228.598 60.57 228.598 59.43C228.598 58.41 228.928 57.57 229.648 56.91C230.368 56.25 231.388 55.86 232.708 55.74L237.268 55.38L237.058 53.85C236.878 52.44 236.458 51.33 235.798 50.52C235.138 49.74 234.268 49.32 233.188 49.32C232.318 49.32 231.568 49.59 230.908 50.07C230.248 50.55 229.768 51.21 229.438 52.02L229.048 51.93C229.228 51.21 229.588 50.49 230.128 49.8C230.668 49.14 231.328 48.57 232.138 48.15C232.948 47.73 233.848 47.49 234.838 47.49C236.338 47.49 237.568 47.97 238.498 48.93C239.428 49.89 239.998 51.27 240.238 53.04L241.108 59.67C241.258 60.81 241.648 61.35 242.308 61.35C242.488 61.35 242.668 61.29 242.818 61.11C242.968 60.96 243.058 60.75 243.118 60.48L243.478 60.51C243.418 61.23 243.178 61.86 242.698 62.4C242.218 62.97 241.588 63.24 240.808 63.24C239.968 63.24 239.308 62.97 238.828 62.43ZM232.408 60.72C232.918 61.26 233.608 61.53 234.508 61.53C235.408 61.53 236.158 61.26 236.758 60.72C237.328 60.18 237.658 59.52 237.748 58.77L237.328 55.83L234.388 56.07C233.488 56.16 232.798 56.46 232.318 56.94C231.838 57.42 231.628 58.05 231.628 58.77C231.628 59.55 231.868 60.18 232.408 60.72ZM245.858 61.92C245.138 60.99 244.778 59.79 244.778 58.29V48.99H242.888V48.57C244.118 48.45 245.168 48.03 246.008 47.25C246.848 46.47 247.388 45.42 247.628 44.07H248.048V47.79H252.518L252.008 48.99H248.048V57.96C248.048 58.98 248.258 59.82 248.678 60.45C249.098 61.11 249.698 61.41 250.448 61.41C251.048 61.41 251.528 61.23 251.918 60.81C252.308 60.39 252.578 59.88 252.728 59.25L253.088 59.31C252.938 60.45 252.488 61.38 251.768 62.16C251.018 62.94 250.118 63.3 249.098 63.3C247.658 63.3 246.578 62.85 245.858 61.92ZM262.228 62.61C261.358 62.25 260.668 61.71 260.188 61.05C259.708 60.39 259.468 59.64 259.468 58.8C259.468 58.26 259.618 57.81 259.948 57.45C260.278 57.09 260.698 56.91 261.208 56.91C261.628 56.91 261.988 57.09 262.288 57.39C262.558 57.72 262.708 58.11 262.708 58.53C262.708 58.83 262.588 59.19 262.408 59.61C262.168 60.06 262.078 60.45 262.078 60.78C262.078 61.35 262.288 61.8 262.768 62.13C263.218 62.49 263.788 62.64 264.448 62.64C265.168 62.64 265.888 62.37 266.548 61.83C267.208 61.29 267.748 60.54 268.168 59.58C268.588 58.62 268.798 57.6 268.798 56.46C268.798 54.63 268.348 53.16 267.448 52.05C266.548 50.97 265.348 50.4 263.848 50.4C263.218 50.4 262.648 50.55 262.108 50.79C261.568 51.03 261.118 51.45 260.788 52.02L260.428 51.84C260.878 51 261.238 49.68 261.538 47.88C261.808 46.08 262.018 44.13 262.168 42H267.928H269.158C270.088 42 270.718 41.94 271.018 41.82C271.318 41.7 271.528 41.4 271.648 40.92L272.068 40.95L271.468 44.67H262.558C262.318 47.1 262.018 48.9 261.718 50.04C262.108 49.83 262.588 49.65 263.188 49.5C263.788 49.38 264.418 49.29 265.108 49.29C266.488 49.29 267.718 49.59 268.828 50.13C269.908 50.67 270.778 51.45 271.438 52.47C272.068 53.49 272.398 54.66 272.398 55.98C272.398 57.48 272.038 58.77 271.318 59.85C270.598 60.93 269.668 61.77 268.558 62.34C267.418 62.91 266.278 63.18 265.078 63.18C264.028 63.18 263.068 63 262.228 62.61ZM274.642 62.64C274.252 62.22 274.072 61.71 274.072 61.05C274.072 60.45 274.252 59.97 274.642 59.55C275.032 59.16 275.542 58.95 276.172 58.95C276.772 58.95 277.282 59.16 277.672 59.55C278.062 59.97 278.272 60.45 278.272 61.05C278.272 61.71 278.062 62.22 277.672 62.64C277.282 63.06 276.772 63.24 276.172 63.24C275.542 63.24 275.032 63.06 274.642 62.64ZM274.642 52.98C274.252 52.56 274.072 52.05 274.072 51.39C274.072 50.79 274.252 50.31 274.642 49.89C275.032 49.5 275.542 49.29 276.172 49.29C276.772 49.29 277.282 49.5 277.672 49.89C278.062 50.31 278.272 50.79 278.272 51.39C278.272 52.05 278.062 52.56 277.672 52.98C277.282 53.4 276.772 53.58 276.172 53.58C275.542 53.58 275.032 53.4 274.642 52.98ZM284.185 61.98C282.985 61.11 282.055 59.85 281.365 58.2C280.675 56.55 280.345 54.63 280.345 52.41C280.345 50.19 280.675 48.24 281.395 46.62C282.085 45 283.015 43.8 284.155 42.96C285.295 42.12 286.555 41.7 287.905 41.7C289.225 41.7 290.485 42.15 291.625 42.99C292.765 43.83 293.695 45.09 294.385 46.71C295.045 48.33 295.405 50.25 295.405 52.47C295.405 54.72 295.045 56.67 294.385 58.29C293.725 59.91 292.825 61.17 291.715 62.01C290.605 62.88 289.405 63.3 288.115 63.3C286.675 63.3 285.355 62.88 284.185 61.98ZM285.655 60.3C286.435 61.92 287.395 62.7 288.565 62.7C288.685 62.7 288.835 62.7 289.045 62.64C289.975 62.46 290.695 61.59 291.175 60C291.655 58.41 291.925 56.46 291.925 54.18C291.925 53.04 291.865 51.9 291.745 50.76C291.445 48.21 290.935 46.17 290.215 44.64C289.465 43.11 288.505 42.33 287.365 42.33C287.215 42.33 287.035 42.36 286.795 42.39C285.835 42.6 285.085 43.5 284.605 45.06C284.125 46.62 283.885 48.54 283.885 50.79C283.885 51.93 283.945 53.04 284.065 54.15C284.335 56.67 284.875 58.71 285.655 60.3ZM301.119 61.98C299.919 61.11 298.989 59.85 298.299 58.2C297.609 56.55 297.279 54.63 297.279 52.41C297.279 50.19 297.609 48.24 298.329 46.62C299.019 45 299.949 43.8 301.089 42.96C302.229 42.12 303.489 41.7 304.839 41.7C306.159 41.7 307.419 42.15 308.559 42.99C309.699 43.83 310.629 45.09 311.319 46.71C311.979 48.33 312.339 50.25 312.339 52.47C312.339 54.72 311.979 56.67 311.319 58.29C310.659 59.91 309.759 61.17 308.649 62.01C307.539 62.88 306.339 63.3 305.049 63.3C303.609 63.3 302.289 62.88 301.119 61.98ZM302.589 60.3C303.369 61.92 304.329 62.7 305.499 62.7C305.619 62.7 305.769 62.7 305.979 62.64C306.909 62.46 307.629 61.59 308.109 60C308.589 58.41 308.859 56.46 308.859 54.18C308.859 53.04 308.799 51.9 308.679 50.76C308.379 48.21 307.869 46.17 307.149 44.64C306.399 43.11 305.439 42.33 304.299 42.33C304.149 42.33 303.969 42.36 303.729 42.39C302.769 42.6 302.019 43.5 301.539 45.06C301.059 46.62 300.819 48.54 300.819 50.79C300.819 51.93 300.879 53.04 300.999 54.15C301.269 56.67 301.809 58.71 302.589 60.3ZM319.796 62.61C320.456 62.61 320.966 62.43 321.326 62.01C321.686 61.62 321.896 60.93 321.896 59.97V45.03C321.896 44.07 321.686 43.41 321.326 42.99C320.966 42.6 320.456 42.39 319.796 42.39V42H329.066C330.716 42 332.096 42.33 333.176 42.93C334.256 43.53 335.036 44.34 335.516 45.3C335.996 46.26 336.236 47.31 336.236 48.42C336.236 49.56 335.966 50.61 335.486 51.57C335.006 52.56 334.226 53.37 333.146 54C332.066 54.63 330.716 54.93 329.066 54.93H325.286V59.97C325.286 60.96 325.526 61.65 326.036 62.04C326.546 62.43 327.266 62.61 328.226 62.61V63H319.796V62.61ZM328.226 54.42C329.216 54.42 330.056 54.15 330.746 53.61C331.436 53.07 331.946 52.35 332.276 51.45C332.606 50.58 332.786 49.65 332.786 48.63C332.786 46.95 332.396 45.51 331.646 44.31C330.866 43.11 329.726 42.51 328.196 42.51H325.286V54.42H328.226ZM340.316 45.33L338.726 58.41C338.666 58.89 338.666 59.22 338.666 59.37C338.666 60.48 338.906 61.29 339.386 61.83C339.866 62.37 340.526 62.61 341.366 62.61V63H334.496V62.61C335.396 62.61 336.176 62.28 336.836 61.59C337.466 60.93 337.886 59.85 338.066 58.41L339.506 46.59C339.536 46.35 339.566 45.99 339.566 45.51C339.566 44.46 339.326 43.68 338.876 43.17C338.396 42.66 337.796 42.39 337.046 42.39V42H342.776L348.626 58.11L354.326 42H359.216V42.39C358.586 42.39 358.106 42.54 357.746 42.81C357.386 43.11 357.236 43.59 357.236 44.28C357.236 44.4 357.236 44.64 357.296 45L359.396 60C359.516 60.96 359.786 61.65 360.176 62.04C360.566 62.43 361.106 62.61 361.766 62.61V63H353.636V62.61C354.356 62.61 354.896 62.46 355.316 62.16C355.706 61.86 355.916 61.35 355.916 60.6C355.916 60.36 355.886 60.15 355.886 60L353.876 45.18L347.426 63.3H346.946L340.316 45.33Z" fill="black"/>
</svg>
