<svg viewBox="0 0 695 81" fill="none" xmlns="http://www.w3.org/2000/svg">
<path d="M0.591094 29.48C1.47109 29.48 2.15109 29.24 2.63109 28.68C3.11109 28.16 3.39109 27.24 3.39109 25.96V6.04C3.39109 4.76 3.11109 3.88 2.63109 3.32C2.15109 2.8 1.47109 2.52 0.591094 2.52V2H20.2711L21.4311 10.28L20.9111 10.4C20.0311 5.28 17.5511 2.68 13.4711 2.68H7.95109V15.52H12.3911C13.7111 15.52 14.6711 15.2 15.2711 14.48C15.8711 13.8 16.1911 12.6 16.1911 10.88H16.7511V20.92H16.1911C16.1911 19.24 15.8711 18 15.2711 17.28C14.6311 16.56 13.6711 16.2 12.3511 16.2H7.95109V27.16C7.95109 27.96 8.07109 28.52 8.39109 28.84C8.67109 29.16 9.23109 29.32 10.0711 29.32H14.1111C16.3511 29.32 18.1111 28.72 19.3911 27.44C20.6711 26.2 21.6711 24.36 22.3911 21.92L22.8311 22.04L21.2711 30H0.591094V29.48ZM25.9552 5.48C25.4352 4.92 25.1952 4.24 25.1952 3.36C25.1952 2.56 25.4352 1.92 25.9552 1.4C26.4752 0.879998 27.1552 0.599999 27.9952 0.599999C28.8352 0.599999 29.5152 0.879998 30.0352 1.4C30.5552 1.92 30.8352 2.56 30.8352 3.36C30.8352 4.24 30.5552 4.92 30.0352 5.48C29.5152 6.04 28.8352 6.28 27.9952 6.28C27.1552 6.28 26.4752 6.04 25.9552 5.48ZM23.3952 29.48C24.2752 29.48 24.9552 29.24 25.4352 28.68C25.9152 28.16 26.1952 27.24 26.1952 25.96V14.08C26.1952 13.12 25.9552 12.48 25.5552 12.08C25.1552 11.68 24.4752 11.48 23.5552 11.44V10.92C26.1152 10.76 28.3152 10.24 30.1552 9.36L30.5152 9.56V25.96C30.5152 27.28 30.7552 28.2 31.2352 28.72C31.7152 29.24 32.3952 29.48 33.3152 29.48V30H23.3952V29.48ZM37.7048 37.6C36.5448 37.12 35.6648 36.48 35.0648 35.68C34.4648 34.92 34.1848 34.12 34.1848 33.28C34.1848 32.72 34.5448 32.16 35.2648 31.6C35.9848 31.08 36.9848 30.52 38.2648 29.96C37.1848 29.72 36.3448 29.28 35.7448 28.56C35.1448 27.84 34.8648 27.04 34.8648 26.12C34.8648 25.8 34.9048 25.52 35.0648 25.36C35.1848 25.2 35.5048 24.92 36.0248 24.56L36.9848 23.88L38.6248 22.64C37.3448 22.08 36.3448 21.24 35.6248 20.16C34.9048 19.12 34.5448 17.88 34.5448 16.48C34.5448 15.08 34.9048 13.84 35.6248 12.72C36.3448 11.6 37.3848 10.76 38.7048 10.12C39.9848 9.52 41.5048 9.2 43.1848 9.2C43.7048 9.2 44.4648 9.28 45.5048 9.44C46.8648 9.64 47.9848 9.72 48.9448 9.72H53.1048L52.4248 11.32L48.5448 11.24C49.5048 11.92 50.2248 12.72 50.7448 13.64C51.2248 14.6 51.5048 15.56 51.5048 16.6C51.5048 17.96 51.1448 19.2 50.4248 20.24C49.7048 21.28 48.7448 22.12 47.4648 22.68C46.1848 23.28 44.7448 23.56 43.0648 23.56C41.5848 23.56 40.2648 23.32 39.1048 22.84C38.5448 23.32 38.1448 23.72 37.9848 23.96C37.7848 24.2 37.7048 24.44 37.7048 24.6C37.7048 25.68 38.5048 26.2 40.1048 26.2H47.6248C49.2248 26.2 50.4648 26.48 51.3848 27.04C52.3048 27.6 52.7848 28.56 52.7848 29.92C52.7848 31.28 52.2648 32.6 51.3048 33.88C50.3448 35.2 48.9848 36.28 47.3048 37.12C45.6248 37.96 43.7448 38.36 41.7048 38.36C40.1848 38.36 38.8248 38.12 37.7048 37.6ZM39.6248 35.12C40.7448 35.84 42.2248 36.2 44.0648 36.2C45.5048 36.2 46.7448 36 47.8648 35.56C48.9448 35.16 49.7848 34.6 50.3848 33.96C50.9848 33.32 51.3048 32.64 51.3048 31.96C51.3048 31.4 51.0648 30.92 50.5848 30.6C50.1048 30.28 49.4248 30.08 48.5048 30.08H39.6248H39.1448C38.6648 30.48 38.2648 30.88 38.0248 31.24C37.7848 31.6 37.6648 32.04 37.7048 32.52C37.8248 33.56 38.4648 34.4 39.6248 35.12ZM40.0248 20.92C40.9448 22.24 42.1448 22.88 43.5848 22.88C44.7448 22.88 45.6648 22.36 46.3848 21.24C47.0648 20.12 47.4248 18.76 47.4248 17.12C47.4248 15.84 47.1848 14.68 46.7848 13.56C46.3848 12.44 45.7848 11.56 45.0648 10.88C44.3448 10.24 43.5048 9.88 42.6248 9.88C41.3448 9.88 40.3848 10.48 39.7048 11.68C38.9848 12.88 38.6648 14.24 38.6648 15.84C38.6648 17.92 39.1048 19.64 40.0248 20.92ZM67.2258 29.48C68.1858 29.48 68.9058 29.28 69.4658 28.88C69.9858 28.48 70.2658 27.8 70.2658 26.8C70.2658 26.48 70.2258 26.2 70.2258 26L68.9858 16.84C68.5058 13.44 67.1058 11.72 64.8258 11.72C63.7858 11.72 62.9058 12.16 62.1858 13C61.4658 13.88 61.0258 14.88 60.9058 16.08V25.96C60.9058 27.28 61.1458 28.2 61.6258 28.72C62.1058 29.24 62.7858 29.48 63.7058 29.48V30H53.7858V29.48C54.6658 29.48 55.3458 29.24 55.8258 28.68C56.3058 28.16 56.5858 27.24 56.5858 25.96V5.16C56.5858 4.2 56.3458 3.52 55.9458 3.12C55.5458 2.72 54.8658 2.52 53.9458 2.52V2C56.5058 1.84 58.7058 1.32 60.5458 0.439999L60.9058 0.639999V14.36C61.2658 12.92 61.9858 11.72 63.0658 10.76C64.1458 9.8 65.4258 9.32 66.9458 9.32C68.6658 9.32 70.0658 9.96 71.1858 11.16C72.2658 12.36 72.9858 14.24 73.3458 16.72L74.7058 26C74.8658 27.28 75.1858 28.2 75.7458 28.72C76.2658 29.24 76.9858 29.48 77.8658 29.48V30H67.2258V29.48ZM80.2886 28.56C79.3286 27.32 78.8486 25.72 78.8486 23.72V11.32H76.3286V10.76C77.9686 10.6 79.3686 10.04 80.4886 9C81.6086 7.96 82.3286 6.56 82.6486 4.76H83.2086V9.72H89.1686L88.4886 11.32H83.2086V23.28C83.2086 24.64 83.4886 25.76 84.0486 26.6C84.6086 27.48 85.4086 27.88 86.4086 27.88C87.2086 27.88 87.8486 27.64 88.3686 27.08C88.8886 26.52 89.2486 25.84 89.4486 25L89.9286 25.08C89.7286 26.6 89.1286 27.84 88.1686 28.88C87.1686 29.92 85.9686 30.4 84.6086 30.4C82.6886 30.4 81.2486 29.8 80.2886 28.56ZM103.195 29.04C101.915 28.16 100.955 26.92 100.235 25.32C99.5152 23.76 99.1952 22 99.1952 20.08C99.1952 18.16 99.5952 16.36 100.435 14.72C101.235 13.12 102.395 11.8 103.835 10.84C105.275 9.88 106.835 9.4 108.595 9.4C110.675 9.4 112.435 10.2 113.795 11.8V5.16C113.795 4.2 113.595 3.52 113.195 3.12C112.795 2.72 112.115 2.52 111.195 2.52V2C113.755 1.84 115.955 1.32 117.755 0.439999L118.155 0.639999V26.24C118.155 27.12 118.355 27.72 118.755 28.04C119.155 28.36 119.835 28.48 120.795 28.44V28.96C118.155 29.28 115.995 29.8 114.235 30.48L113.795 30.24V26.08C113.395 27.16 112.635 28.16 111.515 29.04C110.355 29.96 108.995 30.4 107.395 30.4C105.835 30.4 104.435 29.96 103.195 29.04ZM104.555 23.68C105.075 25.12 105.795 26.16 106.715 26.88C107.595 27.6 108.595 27.96 109.675 27.96C110.635 27.96 111.515 27.68 112.235 27.12C112.955 26.56 113.475 25.8 113.795 24.84V18.44C113.795 16.2 113.355 14.24 112.475 12.6C111.595 11 110.395 10.16 108.915 10.16C107.875 10.16 106.995 10.56 106.195 11.28C105.395 12 104.795 13 104.395 14.28C103.955 15.56 103.755 17 103.755 18.6C103.755 20.6 103.995 22.28 104.555 23.68ZM125.587 29C124.187 28.08 123.107 26.8 122.347 25.2C121.547 23.6 121.187 21.88 121.187 19.96C121.187 17.96 121.587 16.16 122.467 14.56C123.347 12.96 124.507 11.68 126.027 10.72C127.507 9.8 129.147 9.32 130.907 9.32C132.427 9.32 133.787 9.68 134.907 10.36C136.027 11.08 136.907 12 137.507 13.16C138.107 14.36 138.427 15.64 138.427 17H125.427C125.387 17.16 125.387 17.4 125.387 17.68C125.387 19.56 125.667 21.2 126.267 22.64C126.827 24.08 127.667 25.2 128.747 26C129.827 26.8 131.107 27.16 132.547 27.16C134.147 27.16 135.507 26.68 136.627 25.72C137.747 24.76 138.467 23.52 138.787 21.92L139.347 22C139.107 23.6 138.547 25.04 137.747 26.32C136.947 27.6 135.907 28.6 134.627 29.32C133.347 30.04 131.947 30.4 130.427 30.4C128.587 30.4 126.987 29.96 125.587 29ZM132.467 16.32C133.027 16.32 133.467 16.2 133.707 15.92C133.947 15.64 134.107 15.16 134.107 14.52C134.107 13.4 133.787 12.36 133.227 11.4C132.627 10.44 131.747 9.92 130.587 9.92C129.387 9.92 128.267 10.56 127.307 11.8C126.307 13.08 125.707 14.56 125.467 16.32H132.467ZM145.695 29.68C144.215 29.2 142.895 28.56 141.695 27.76V5.16C141.695 4.2 141.455 3.52 141.055 3.12C140.655 2.72 139.975 2.52 139.055 2.52V2C141.615 1.84 143.815 1.32 145.655 0.439999L146.015 0.639999V14.2C146.375 12.96 147.135 11.84 148.295 10.88C149.415 9.92 150.775 9.4 152.335 9.4C153.895 9.4 155.295 9.88 156.535 10.84C157.735 11.8 158.695 13.04 159.375 14.6C160.015 16.2 160.375 17.88 160.375 19.68C160.375 21.76 159.935 23.64 159.055 25.24C158.175 26.88 156.935 28.16 155.415 29.04C153.895 29.96 152.175 30.4 150.335 30.4C148.735 30.4 147.175 30.16 145.695 29.68ZM147.135 27.8C147.895 29.16 149.055 29.8 150.575 29.8C152.175 29.8 153.495 29 154.455 27.36C155.415 25.76 155.895 23.64 155.895 21.04C155.895 19.12 155.615 17.44 155.135 16C154.655 14.6 153.975 13.52 153.135 12.8C152.255 12.08 151.295 11.68 150.215 11.68C149.175 11.68 148.295 12.08 147.535 12.8C146.735 13.52 146.255 14.44 146.015 15.56V21.48C146.015 24.36 146.375 26.44 147.135 27.8ZM175.564 29.24C174.924 28.52 174.524 27.48 174.364 26.16L174.244 25.28C174.084 26.16 173.684 27 173.124 27.76C172.524 28.56 171.764 29.2 170.844 29.68C169.884 30.16 168.844 30.4 167.684 30.4C166.004 30.4 164.604 29.92 163.524 28.96C162.444 28 161.924 26.76 161.924 25.24C161.924 23.88 162.364 22.76 163.324 21.88C164.284 21 165.644 20.48 167.404 20.32L173.484 19.84L173.204 17.8C172.964 15.92 172.404 14.44 171.524 13.36C170.644 12.32 169.484 11.76 168.044 11.76C166.884 11.76 165.884 12.12 165.004 12.76C164.124 13.4 163.484 14.28 163.044 15.36L162.524 15.24C162.764 14.28 163.244 13.32 163.964 12.4C164.684 11.52 165.564 10.76 166.644 10.2C167.724 9.64 168.924 9.32 170.244 9.32C172.244 9.32 173.884 9.96 175.124 11.24C176.364 12.52 177.124 14.36 177.444 16.72L178.604 25.56C178.804 27.08 179.324 27.8 180.204 27.8C180.444 27.8 180.684 27.72 180.884 27.48C181.084 27.28 181.204 27 181.284 26.64L181.764 26.68C181.684 27.64 181.364 28.48 180.724 29.2C180.084 29.96 179.244 30.32 178.204 30.32C177.084 30.32 176.204 29.96 175.564 29.24ZM167.004 26.96C167.684 27.68 168.604 28.04 169.804 28.04C171.004 28.04 172.004 27.68 172.804 26.96C173.564 26.24 174.004 25.36 174.124 24.36L173.564 20.44L169.644 20.76C168.444 20.88 167.524 21.28 166.884 21.92C166.244 22.56 165.964 23.4 165.964 24.36C165.964 25.4 166.284 26.24 167.004 26.96ZM184.937 28.56C183.977 27.32 183.497 25.72 183.497 23.72V11.32H180.977V10.76C182.617 10.6 184.017 10.04 185.137 9C186.257 7.96 186.977 6.56 187.297 4.76H187.857V9.72H193.817L193.137 11.32H187.857V23.28C187.857 24.64 188.137 25.76 188.697 26.6C189.257 27.48 190.057 27.88 191.057 27.88C191.857 27.88 192.497 27.64 193.017 27.08C193.537 26.52 193.897 25.84 194.097 25L194.577 25.08C194.377 26.6 193.777 27.84 192.817 28.88C191.817 29.92 190.617 30.4 189.257 30.4C187.337 30.4 185.897 29.8 184.937 28.56ZM199.259 29C197.859 28.08 196.779 26.8 196.019 25.2C195.219 23.6 194.859 21.88 194.859 19.96C194.859 17.96 195.259 16.16 196.139 14.56C197.019 12.96 198.179 11.68 199.699 10.72C201.179 9.8 202.819 9.32 204.579 9.32C206.099 9.32 207.459 9.68 208.579 10.36C209.699 11.08 210.579 12 211.179 13.16C211.779 14.36 212.099 15.64 212.099 17H199.099C199.059 17.16 199.059 17.4 199.059 17.68C199.059 19.56 199.339 21.2 199.939 22.64C200.499 24.08 201.339 25.2 202.419 26C203.499 26.8 204.779 27.16 206.219 27.16C207.819 27.16 209.179 26.68 210.299 25.72C211.419 24.76 212.139 23.52 212.459 21.92L213.019 22C212.779 23.6 212.219 25.04 211.419 26.32C210.619 27.6 209.579 28.6 208.299 29.32C207.019 30.04 205.619 30.4 204.099 30.4C202.259 30.4 200.659 29.96 199.259 29ZM206.139 16.32C206.699 16.32 207.139 16.2 207.379 15.92C207.619 15.64 207.779 15.16 207.779 14.52C207.779 13.4 207.459 12.36 206.899 11.4C206.299 10.44 205.419 9.92 204.259 9.92C203.059 9.92 201.939 10.56 200.979 11.8C199.979 13.08 199.379 14.56 199.139 16.32H206.139ZM214.701 22.04L215.221 21.92C215.861 23.96 216.781 25.76 217.981 27.32C219.181 28.92 220.741 29.72 222.741 29.72C223.981 29.72 224.981 29.4 225.701 28.76C226.421 28.12 226.821 27.28 226.861 26.28C226.861 25.32 226.501 24.48 225.821 23.84C225.101 23.2 223.981 22.6 222.381 22.04L219.981 21.08C218.301 20.44 217.061 19.68 216.181 18.72C215.301 17.76 214.901 16.56 214.901 15.12C214.901 14.08 215.181 13.08 215.821 12.2C216.421 11.32 217.261 10.64 218.341 10.12C219.421 9.64 220.621 9.36 221.901 9.36C222.941 9.36 224.141 9.6 225.461 10.04C226.181 10.28 226.661 10.36 226.901 10.36C227.461 10.36 227.901 9.96 228.141 9.12L228.701 9.08L229.221 16.92L228.661 17C228.341 15.96 227.861 14.92 227.221 13.84C226.581 12.76 225.781 11.84 224.861 11.08C223.901 10.36 222.901 9.96 221.821 9.96C220.741 9.96 219.861 10.28 219.221 10.92C218.581 11.56 218.261 12.36 218.261 13.24C218.261 14.12 218.581 14.92 219.261 15.56C219.941 16.2 221.021 16.8 222.461 17.28L224.821 18.24C226.621 18.92 227.941 19.72 228.821 20.64C229.701 21.56 230.141 22.68 230.141 24C230.141 25.32 229.781 26.44 229.141 27.4C228.461 28.36 227.581 29.12 226.501 29.6C225.421 30.12 224.261 30.36 223.021 30.36C222.301 30.36 221.621 30.32 221.061 30.2C220.461 30.08 219.781 29.92 219.021 29.68C218.181 29.44 217.621 29.32 217.341 29.32C217.021 29.32 216.741 29.44 216.541 29.6C216.341 29.76 216.141 30.04 215.981 30.44L215.381 30.48L214.701 22.04ZM245.29 29C243.73 28.08 242.49 26.8 241.61 25.16C240.69 23.56 240.25 21.76 240.25 19.76C240.25 17.72 240.69 15.92 241.61 14.32C242.49 12.72 243.73 11.52 245.29 10.64C246.81 9.76 248.49 9.32 250.33 9.32C252.17 9.32 253.85 9.8 255.37 10.68C256.89 11.6 258.13 12.84 259.05 14.44C259.93 16.04 260.41 17.84 260.41 19.84C260.41 21.88 259.97 23.72 259.09 25.32C258.21 26.92 256.97 28.2 255.45 29.08C253.93 29.96 252.25 30.4 250.41 30.4C248.53 30.4 246.81 29.96 245.29 29ZM247.13 27.16C248.25 28.84 249.61 29.64 251.13 29.64C252.65 29.64 253.81 28.92 254.65 27.44C255.45 26 255.89 24.08 255.89 21.72C255.89 20.96 255.81 20 255.69 18.88C255.33 16.24 254.61 14.12 253.49 12.52C252.37 10.92 251.09 10.08 249.61 10.08C248.05 10.08 246.85 10.84 246.01 12.32C245.17 13.84 244.77 15.76 244.77 18.08C244.77 19.04 244.81 19.88 244.93 20.64C245.25 23.32 246.01 25.48 247.13 27.16ZM274.025 29.48C274.905 29.48 275.625 29.28 276.145 28.88C276.665 28.48 276.945 27.8 276.945 26.8C276.945 26.48 276.905 26.2 276.905 26L275.665 16.84C275.185 13.44 273.785 11.72 271.505 11.72C270.465 11.72 269.545 12.16 268.825 13C268.105 13.88 267.665 14.88 267.585 16.08V25.96C267.585 27.28 267.825 28.2 268.305 28.72C268.785 29.24 269.465 29.48 270.385 29.48V30H260.465V29.48C261.345 29.48 262.025 29.24 262.505 28.68C262.985 28.16 263.265 27.24 263.265 25.96V14.08C263.265 13.12 263.025 12.48 262.625 12.08C262.225 11.68 261.545 11.48 260.625 11.44V10.92C263.185 10.76 265.385 10.24 267.225 9.36L267.585 9.56V14.36C267.945 12.92 268.665 11.72 269.745 10.76C270.825 9.8 272.105 9.32 273.625 9.32C275.345 9.32 276.745 9.96 277.865 11.16C278.945 12.36 279.665 14.24 280.025 16.72L281.385 26C281.545 27.28 281.865 28.2 282.385 28.72C282.865 29.24 283.545 29.48 284.425 29.48V30H274.025V29.48ZM298.296 29.48C297.296 28.84 296.536 27.92 295.976 26.72C295.416 25.52 295.136 24.08 295.136 22.44V14.08C295.136 13.12 294.896 12.48 294.496 12.08C294.096 11.68 293.416 11.48 292.496 11.44V10.92C295.056 10.76 297.256 10.24 299.096 9.36L299.456 9.56V22C299.456 23.84 299.776 25.32 300.496 26.36C301.176 27.44 302.216 27.96 303.616 27.96C304.816 27.96 305.736 27.56 306.416 26.72C307.096 25.88 307.496 24.88 307.616 23.76V14.08C307.616 13.12 307.376 12.48 306.976 12.08C306.576 11.68 305.896 11.48 304.976 11.44V10.92C307.536 10.76 309.736 10.24 311.576 9.36L311.936 9.56V26.24C311.936 27.12 312.136 27.72 312.536 28.04C312.936 28.36 313.656 28.48 314.616 28.44V28.96C312.016 29.28 309.816 29.8 308.016 30.48L307.616 30.24V25.68C307.176 26.96 306.456 28.08 305.456 29.04C304.416 30 303.176 30.44 301.656 30.44C300.376 30.44 299.256 30.12 298.296 29.48ZM314.997 29.48C315.877 29.48 316.557 29.24 317.037 28.68C317.517 28.16 317.797 27.24 317.797 25.96V14.08C317.797 13.12 317.597 12.48 317.197 12.08C316.797 11.68 316.117 11.48 315.157 11.44V10.92C317.717 10.76 319.917 10.24 321.757 9.36L322.117 9.56V13.92C322.437 12.68 323.037 11.6 323.917 10.68C324.797 9.8 325.797 9.32 326.997 9.32C327.917 9.32 328.677 9.64 329.277 10.2C329.837 10.8 330.157 11.48 330.157 12.24C330.157 12.92 329.917 13.48 329.517 13.96C329.117 14.44 328.557 14.64 327.877 14.64C327.397 14.64 327.037 14.56 326.757 14.32C326.477 14.12 326.237 13.84 326.077 13.52C325.917 13.2 325.757 12.88 325.677 12.56C325.517 12.24 325.397 12.04 325.277 11.88C325.117 11.76 324.957 11.68 324.717 11.68C324.077 11.68 323.517 12.08 323.037 12.8C322.557 13.56 322.237 14.44 322.117 15.44V25.96C322.117 27.24 322.437 28.16 323.077 28.68C323.717 29.24 324.597 29.48 325.757 29.48V30H314.997V29.48ZM336.086 29.68C334.606 29.2 333.286 28.56 332.086 27.76V5.16C332.086 4.2 331.846 3.52 331.446 3.12C331.046 2.72 330.366 2.52 329.446 2.52V2C332.006 1.84 334.206 1.32 336.046 0.439999L336.406 0.639999V14.2C336.766 12.96 337.526 11.84 338.686 10.88C339.806 9.92 341.166 9.4 342.726 9.4C344.286 9.4 345.686 9.88 346.926 10.84C348.126 11.8 349.086 13.04 349.766 14.6C350.406 16.2 350.766 17.88 350.766 19.68C350.766 21.76 350.326 23.64 349.446 25.24C348.566 26.88 347.326 28.16 345.806 29.04C344.286 29.96 342.566 30.4 340.726 30.4C339.126 30.4 337.566 30.16 336.086 29.68ZM337.526 27.8C338.286 29.16 339.446 29.8 340.966 29.8C342.566 29.8 343.886 29 344.846 27.36C345.806 25.76 346.286 23.64 346.286 21.04C346.286 19.12 346.006 17.44 345.526 16C345.046 14.6 344.366 13.52 343.526 12.8C342.646 12.08 341.686 11.68 340.606 11.68C339.566 11.68 338.686 12.08 337.926 12.8C337.126 13.52 336.646 14.44 336.406 15.56V21.48C336.406 24.36 336.766 26.44 337.526 27.8ZM365.955 29.24C365.315 28.52 364.915 27.48 364.755 26.16L364.635 25.28C364.475 26.16 364.075 27 363.515 27.76C362.915 28.56 362.155 29.2 361.235 29.68C360.275 30.16 359.235 30.4 358.075 30.4C356.395 30.4 354.995 29.92 353.915 28.96C352.835 28 352.315 26.76 352.315 25.24C352.315 23.88 352.755 22.76 353.715 21.88C354.675 21 356.035 20.48 357.795 20.32L363.875 19.84L363.595 17.8C363.355 15.92 362.795 14.44 361.915 13.36C361.035 12.32 359.875 11.76 358.435 11.76C357.275 11.76 356.275 12.12 355.395 12.76C354.515 13.4 353.875 14.28 353.435 15.36L352.915 15.24C353.155 14.28 353.635 13.32 354.355 12.4C355.075 11.52 355.955 10.76 357.035 10.2C358.115 9.64 359.315 9.32 360.635 9.32C362.635 9.32 364.275 9.96 365.515 11.24C366.755 12.52 367.515 14.36 367.835 16.72L368.995 25.56C369.195 27.08 369.715 27.8 370.595 27.8C370.835 27.8 371.075 27.72 371.275 27.48C371.475 27.28 371.595 27 371.675 26.64L372.155 26.68C372.075 27.64 371.755 28.48 371.115 29.2C370.475 29.96 369.635 30.32 368.595 30.32C367.475 30.32 366.595 29.96 365.955 29.24ZM357.395 26.96C358.075 27.68 358.995 28.04 360.195 28.04C361.395 28.04 362.395 27.68 363.195 26.96C363.955 26.24 364.395 25.36 364.515 24.36L363.955 20.44L360.035 20.76C358.835 20.88 357.915 21.28 357.275 21.92C356.635 22.56 356.355 23.4 356.355 24.36C356.355 25.4 356.675 26.24 357.395 26.96ZM385.705 29.48C386.585 29.48 387.305 29.28 387.825 28.88C388.345 28.48 388.625 27.8 388.625 26.8C388.625 26.48 388.585 26.2 388.585 26L387.345 16.84C386.865 13.44 385.465 11.72 383.185 11.72C382.145 11.72 381.225 12.16 380.505 13C379.785 13.88 379.345 14.88 379.265 16.08V25.96C379.265 27.28 379.505 28.2 379.985 28.72C380.465 29.24 381.145 29.48 382.065 29.48V30H372.145V29.48C373.025 29.48 373.705 29.24 374.185 28.68C374.665 28.16 374.945 27.24 374.945 25.96V14.08C374.945 13.12 374.705 12.48 374.305 12.08C373.905 11.68 373.225 11.48 372.305 11.44V10.92C374.865 10.76 377.065 10.24 378.905 9.36L379.265 9.56V14.36C379.625 12.92 380.345 11.72 381.425 10.76C382.505 9.8 383.785 9.32 385.305 9.32C387.025 9.32 388.425 9.96 389.545 11.16C390.625 12.36 391.345 14.24 391.705 16.72L393.065 26C393.225 27.28 393.545 28.2 394.065 28.72C394.545 29.24 395.225 29.48 396.105 29.48V30H385.705V29.48ZM410.695 29.68C409.215 29.2 407.895 28.56 406.695 27.76V5.16C406.695 4.2 406.455 3.52 406.055 3.12C405.655 2.72 404.975 2.52 404.055 2.52V2C406.615 1.84 408.815 1.32 410.655 0.439999L411.015 0.639999V14.2C411.375 12.96 412.135 11.84 413.295 10.88C414.415 9.92 415.775 9.4 417.335 9.4C418.895 9.4 420.295 9.88 421.535 10.84C422.735 11.8 423.695 13.04 424.375 14.6C425.015 16.2 425.375 17.88 425.375 19.68C425.375 21.76 424.935 23.64 424.055 25.24C423.175 26.88 421.935 28.16 420.415 29.04C418.895 29.96 417.175 30.4 415.335 30.4C413.735 30.4 412.175 30.16 410.695 29.68ZM412.135 27.8C412.895 29.16 414.055 29.8 415.575 29.8C417.175 29.8 418.495 29 419.455 27.36C420.415 25.76 420.895 23.64 420.895 21.04C420.895 19.12 420.615 17.44 420.135 16C419.655 14.6 418.975 13.52 418.135 12.8C417.255 12.08 416.295 11.68 415.215 11.68C414.175 11.68 413.295 12.08 412.535 12.8C411.735 13.52 411.255 14.44 411.015 15.56V21.48C411.015 24.36 411.375 26.44 412.135 27.8ZM428.143 5.48C427.623 4.92 427.383 4.24 427.383 3.36C427.383 2.56 427.623 1.92 428.143 1.4C428.663 0.879998 429.343 0.599999 430.183 0.599999C431.023 0.599999 431.703 0.879998 432.223 1.4C432.743 1.92 433.023 2.56 433.023 3.36C433.023 4.24 432.743 4.92 432.223 5.48C431.703 6.04 431.023 6.28 430.183 6.28C429.343 6.28 428.663 6.04 428.143 5.48ZM425.583 29.48C426.463 29.48 427.143 29.24 427.623 28.68C428.103 28.16 428.383 27.24 428.383 25.96V14.08C428.383 13.12 428.143 12.48 427.743 12.08C427.343 11.68 426.663 11.48 425.743 11.44V10.92C428.303 10.76 430.503 10.24 432.343 9.36L432.703 9.56V25.96C432.703 27.28 432.943 28.2 433.423 28.72C433.903 29.24 434.583 29.48 435.503 29.48V30H425.583V29.48ZM440.72 29C439.16 28.08 437.92 26.8 437.04 25.16C436.12 23.56 435.68 21.76 435.68 19.76C435.68 17.72 436.12 15.92 437.04 14.32C437.92 12.72 439.16 11.52 440.72 10.64C442.24 9.76 443.92 9.32 445.76 9.32C447.6 9.32 449.28 9.8 450.8 10.68C452.32 11.6 453.56 12.84 454.48 14.44C455.36 16.04 455.84 17.84 455.84 19.84C455.84 21.88 455.4 23.72 454.52 25.32C453.64 26.92 452.4 28.2 450.88 29.08C449.36 29.96 447.68 30.4 445.84 30.4C443.96 30.4 442.24 29.96 440.72 29ZM442.56 27.16C443.68 28.84 445.04 29.64 446.56 29.64C448.08 29.64 449.24 28.92 450.08 27.44C450.88 26 451.32 24.08 451.32 21.72C451.32 20.96 451.24 20 451.12 18.88C450.76 16.24 450.04 14.12 448.92 12.52C447.8 10.92 446.52 10.08 445.04 10.08C443.48 10.08 442.28 10.84 441.44 12.32C440.6 13.84 440.2 15.76 440.2 18.08C440.2 19.04 440.24 19.88 440.36 20.64C440.68 23.32 441.44 25.48 442.56 27.16ZM462.023 29.04C460.743 28.16 459.783 26.92 459.063 25.32C458.343 23.76 458.023 22 458.023 20.08C458.023 18.16 458.423 16.36 459.263 14.72C460.063 13.12 461.223 11.8 462.663 10.84C464.103 9.88 465.663 9.4 467.423 9.4C469.503 9.4 471.263 10.2 472.623 11.8V5.16C472.623 4.2 472.423 3.52 472.023 3.12C471.623 2.72 470.943 2.52 470.023 2.52V2C472.583 1.84 474.783 1.32 476.583 0.439999L476.983 0.639999V26.24C476.983 27.12 477.183 27.72 477.583 28.04C477.983 28.36 478.663 28.48 479.623 28.44V28.96C476.983 29.28 474.823 29.8 473.063 30.48L472.623 30.24V26.08C472.223 27.16 471.463 28.16 470.343 29.04C469.183 29.96 467.823 30.4 466.223 30.4C464.663 30.4 463.263 29.96 462.023 29.04ZM463.383 23.68C463.903 25.12 464.623 26.16 465.543 26.88C466.423 27.6 467.423 27.96 468.503 27.96C469.463 27.96 470.343 27.68 471.063 27.12C471.783 26.56 472.303 25.8 472.623 24.84V18.44C472.623 16.2 472.183 14.24 471.303 12.6C470.423 11 469.223 10.16 467.743 10.16C466.703 10.16 465.823 10.56 465.023 11.28C464.223 12 463.623 13 463.223 14.28C462.783 15.56 462.583 17 462.583 18.6C462.583 20.6 462.823 22.28 463.383 23.68ZM482.557 5.48C482.037 4.92 481.797 4.24 481.797 3.36C481.797 2.56 482.037 1.92 482.557 1.4C483.077 0.879998 483.757 0.599999 484.597 0.599999C485.437 0.599999 486.117 0.879998 486.637 1.4C487.157 1.92 487.437 2.56 487.437 3.36C487.437 4.24 487.157 4.92 486.637 5.48C486.117 6.04 485.437 6.28 484.597 6.28C483.757 6.28 483.077 6.04 482.557 5.48ZM479.997 29.48C480.877 29.48 481.557 29.24 482.037 28.68C482.517 28.16 482.797 27.24 482.797 25.96V14.08C482.797 13.12 482.557 12.48 482.157 12.08C481.757 11.68 481.077 11.48 480.157 11.44V10.92C482.717 10.76 484.917 10.24 486.757 9.36L487.117 9.56V25.96C487.117 27.28 487.357 28.2 487.837 28.72C488.317 29.24 488.997 29.48 489.917 29.48V30H479.997V29.48ZM495.648 28.4C494.528 27.08 493.728 25.04 493.288 22.28L491.888 13.72C491.648 12.44 491.288 11.56 490.768 11.04C490.208 10.52 489.528 10.24 488.648 10.24V9.72H498.408V10.24C496.848 10.24 496.088 11.04 496.088 12.64C496.088 13.12 496.088 13.48 496.168 13.72L497.368 21.08C497.688 23.24 498.248 24.88 499.008 25.96C499.728 27.08 500.808 27.6 502.248 27.6C503.288 27.6 504.288 27.24 505.288 26.44C506.288 25.64 507.088 24.6 507.728 23.24C508.328 21.92 508.648 20.48 508.648 18.88C508.648 17.12 508.288 15.68 507.608 14.64C506.928 13.6 506.008 13.04 504.848 13.04C504.288 13.04 503.728 13.16 503.248 13.36C503.008 13.48 502.728 13.52 502.408 13.52C501.848 13.52 501.368 13.36 500.968 12.96C500.568 12.56 500.408 12.08 500.408 11.44C500.408 10.88 500.608 10.36 501.008 9.96C501.408 9.56 501.968 9.36 502.768 9.36C503.888 9.36 504.928 9.72 505.928 10.36C506.928 11 507.728 12 508.368 13.32C509.008 14.68 509.328 16.32 509.328 18.24C509.328 20.44 508.888 22.48 508.048 24.32C507.168 26.2 506.048 27.68 504.648 28.76C503.248 29.88 501.768 30.4 500.208 30.4C498.288 30.4 496.768 29.76 495.648 28.4ZM515.9 29C514.5 28.08 513.42 26.8 512.66 25.2C511.86 23.6 511.5 21.88 511.5 19.96C511.5 17.96 511.9 16.16 512.78 14.56C513.66 12.96 514.82 11.68 516.34 10.72C517.82 9.8 519.46 9.32 521.22 9.32C522.74 9.32 524.1 9.68 525.22 10.36C526.34 11.08 527.22 12 527.82 13.16C528.42 14.36 528.74 15.64 528.74 17H515.74C515.7 17.16 515.7 17.4 515.7 17.68C515.7 19.56 515.98 21.2 516.58 22.64C517.14 24.08 517.98 25.2 519.06 26C520.14 26.8 521.42 27.16 522.86 27.16C524.46 27.16 525.82 26.68 526.94 25.72C528.06 24.76 528.78 23.52 529.1 21.92L529.66 22C529.42 23.6 528.86 25.04 528.06 26.32C527.26 27.6 526.22 28.6 524.94 29.32C523.66 30.04 522.26 30.4 520.74 30.4C518.9 30.4 517.3 29.96 515.9 29ZM522.78 16.32C523.34 16.32 523.78 16.2 524.02 15.92C524.26 15.64 524.42 15.16 524.42 14.52C524.42 13.4 524.1 12.36 523.54 11.4C522.94 10.44 522.06 9.92 520.9 9.92C519.7 9.92 518.58 10.56 517.62 11.8C516.62 13.08 516.02 14.56 515.78 16.32H522.78ZM529.489 29.48C530.369 29.48 531.049 29.24 531.529 28.68C532.009 28.16 532.289 27.24 532.289 25.96V14.08C532.289 13.12 532.089 12.48 531.689 12.08C531.289 11.68 530.609 11.48 529.649 11.44V10.92C532.209 10.76 534.409 10.24 536.249 9.36L536.609 9.56V13.92C536.929 12.68 537.529 11.6 538.409 10.68C539.289 9.8 540.289 9.32 541.489 9.32C542.409 9.32 543.169 9.64 543.769 10.2C544.329 10.8 544.649 11.48 544.649 12.24C544.649 12.92 544.409 13.48 544.009 13.96C543.609 14.44 543.049 14.64 542.369 14.64C541.889 14.64 541.529 14.56 541.249 14.32C540.969 14.12 540.729 13.84 540.569 13.52C540.409 13.2 540.249 12.88 540.169 12.56C540.009 12.24 539.889 12.04 539.769 11.88C539.609 11.76 539.449 11.68 539.209 11.68C538.569 11.68 538.009 12.08 537.529 12.8C537.049 13.56 536.729 14.44 536.609 15.44V25.96C536.609 27.24 536.929 28.16 537.569 28.68C538.209 29.24 539.089 29.48 540.249 29.48V30H529.489V29.48ZM545.404 22.04L545.924 21.92C546.564 23.96 547.484 25.76 548.684 27.32C549.884 28.92 551.444 29.72 553.444 29.72C554.684 29.72 555.684 29.4 556.404 28.76C557.124 28.12 557.524 27.28 557.564 26.28C557.564 25.32 557.204 24.48 556.524 23.84C555.804 23.2 554.684 22.6 553.084 22.04L550.684 21.08C549.004 20.44 547.764 19.68 546.884 18.72C546.004 17.76 545.604 16.56 545.604 15.12C545.604 14.08 545.884 13.08 546.524 12.2C547.124 11.32 547.964 10.64 549.044 10.12C550.124 9.64 551.324 9.36 552.604 9.36C553.644 9.36 554.844 9.6 556.164 10.04C556.884 10.28 557.364 10.36 557.604 10.36C558.164 10.36 558.604 9.96 558.844 9.12L559.404 9.08L559.924 16.92L559.364 17C559.044 15.96 558.564 14.92 557.924 13.84C557.284 12.76 556.484 11.84 555.564 11.08C554.604 10.36 553.604 9.96 552.524 9.96C551.444 9.96 550.564 10.28 549.924 10.92C549.284 11.56 548.964 12.36 548.964 13.24C548.964 14.12 549.284 14.92 549.964 15.56C550.644 16.2 551.724 16.8 553.164 17.28L555.524 18.24C557.324 18.92 558.644 19.72 559.524 20.64C560.404 21.56 560.844 22.68 560.844 24C560.844 25.32 560.484 26.44 559.844 27.4C559.164 28.36 558.284 29.12 557.204 29.6C556.124 30.12 554.964 30.36 553.724 30.36C553.004 30.36 552.324 30.32 551.764 30.2C551.164 30.08 550.484 29.92 549.724 29.68C548.884 29.44 548.324 29.32 548.044 29.32C547.724 29.32 547.444 29.44 547.244 29.6C547.044 29.76 546.844 30.04 546.684 30.44L546.084 30.48L545.404 22.04ZM564.119 5.48C563.599 4.92 563.359 4.24 563.359 3.36C563.359 2.56 563.599 1.92 564.119 1.4C564.639 0.879998 565.319 0.599999 566.159 0.599999C566.999 0.599999 567.679 0.879998 568.199 1.4C568.719 1.92 568.999 2.56 568.999 3.36C568.999 4.24 568.719 4.92 568.199 5.48C567.679 6.04 566.999 6.28 566.159 6.28C565.319 6.28 564.639 6.04 564.119 5.48ZM561.559 29.48C562.439 29.48 563.119 29.24 563.599 28.68C564.079 28.16 564.359 27.24 564.359 25.96V14.08C564.359 13.12 564.119 12.48 563.719 12.08C563.319 11.68 562.639 11.48 561.719 11.44V10.92C564.279 10.76 566.479 10.24 568.319 9.36L568.679 9.56V25.96C568.679 27.28 568.919 28.2 569.399 28.72C569.879 29.24 570.559 29.48 571.479 29.48V30H561.559V29.48ZM575.093 28.56C574.133 27.32 573.653 25.72 573.653 23.72V11.32H571.133V10.76C572.773 10.6 574.173 10.04 575.293 9C576.413 7.96 577.133 6.56 577.453 4.76H578.013V9.72H583.973L583.293 11.32H578.013V23.28C578.013 24.64 578.293 25.76 578.853 26.6C579.413 27.48 580.213 27.88 581.213 27.88C582.013 27.88 582.653 27.64 583.173 27.08C583.693 26.52 584.053 25.84 584.253 25L584.733 25.08C584.533 26.6 583.933 27.84 582.973 28.88C581.973 29.92 580.773 30.4 579.413 30.4C577.493 30.4 576.053 29.8 575.093 28.56ZM590.726 37.6C589.686 37.12 588.846 36.44 588.286 35.64C587.726 34.84 587.446 33.96 587.446 33.04C587.446 32.4 587.646 31.92 588.046 31.52C588.446 31.12 588.926 30.92 589.526 30.92C590.126 30.92 590.646 31.16 591.046 31.6C591.446 32.04 591.686 32.56 591.686 33.2C591.686 33.52 591.646 33.8 591.566 34.12C591.526 34.24 591.486 34.4 591.486 34.56C591.446 34.76 591.446 34.92 591.446 35.08C591.446 35.88 591.726 36.52 592.326 37C592.886 37.48 593.606 37.68 594.446 37.68C597.926 37.68 599.686 34.56 599.686 28.24V25.12C599.246 26.4 598.526 27.52 597.526 28.48C596.486 29.44 595.246 29.88 593.726 29.88C592.446 29.88 591.326 29.56 590.366 28.92C589.366 28.28 588.606 27.36 588.046 26.16C587.486 24.96 587.206 23.52 587.206 21.88V14.08C587.206 13.12 586.966 12.48 586.566 12.08C586.166 11.68 585.486 11.48 584.566 11.44V10.92C587.126 10.76 589.326 10.24 591.166 9.36L591.526 9.56V21.44C591.526 23.28 591.846 24.76 592.566 25.8C593.246 26.88 594.286 27.4 595.686 27.4C596.886 27.4 597.806 27 598.486 26.16C599.166 25.32 599.566 24.32 599.686 23.2V14.08C599.686 13.12 599.446 12.48 599.046 12.08C598.646 11.68 597.966 11.48 597.046 11.44V10.92C599.606 10.76 601.806 10.24 603.646 9.36L604.006 9.56V27.76C604.006 30.04 603.526 31.96 602.646 33.56C601.726 35.16 600.526 36.36 599.086 37.16C597.646 37.96 596.086 38.32 594.406 38.32C593.006 38.32 591.766 38.08 590.726 37.6ZM615.326 22.04L615.846 21.92C616.486 23.96 617.406 25.76 618.606 27.32C619.806 28.92 621.366 29.72 623.366 29.72C624.606 29.72 625.606 29.4 626.326 28.76C627.046 28.12 627.446 27.28 627.486 26.28C627.486 25.32 627.126 24.48 626.446 23.84C625.726 23.2 624.606 22.6 623.006 22.04L620.606 21.08C618.926 20.44 617.686 19.68 616.806 18.72C615.926 17.76 615.526 16.56 615.526 15.12C615.526 14.08 615.806 13.08 616.446 12.2C617.046 11.32 617.886 10.64 618.966 10.12C620.046 9.64 621.246 9.36 622.526 9.36C623.566 9.36 624.766 9.6 626.086 10.04C626.806 10.28 627.286 10.36 627.526 10.36C628.086 10.36 628.526 9.96 628.766 9.12L629.326 9.08L629.846 16.92L629.286 17C628.966 15.96 628.486 14.92 627.846 13.84C627.206 12.76 626.406 11.84 625.486 11.08C624.526 10.36 623.526 9.96 622.446 9.96C621.366 9.96 620.486 10.28 619.846 10.92C619.206 11.56 618.886 12.36 618.886 13.24C618.886 14.12 619.206 14.92 619.886 15.56C620.566 16.2 621.646 16.8 623.086 17.28L625.446 18.24C627.246 18.92 628.566 19.72 629.446 20.64C630.326 21.56 630.766 22.68 630.766 24C630.766 25.32 630.406 26.44 629.766 27.4C629.086 28.36 628.206 29.12 627.126 29.6C626.046 30.12 624.886 30.36 623.646 30.36C622.926 30.36 622.246 30.32 621.686 30.2C621.086 30.08 620.406 29.92 619.646 29.68C618.806 29.44 618.246 29.32 617.966 29.32C617.646 29.32 617.366 29.44 617.166 29.6C616.966 29.76 616.766 30.04 616.606 30.44L616.006 30.48L615.326 22.04ZM637.033 29C635.633 28.08 634.553 26.8 633.793 25.2C632.993 23.6 632.633 21.88 632.633 19.96C632.633 17.96 633.033 16.16 633.913 14.56C634.793 12.96 635.953 11.68 637.473 10.72C638.953 9.8 640.593 9.32 642.353 9.32C643.873 9.32 645.233 9.68 646.353 10.36C647.473 11.08 648.353 12 648.953 13.16C649.553 14.36 649.873 15.64 649.873 17H636.873C636.833 17.16 636.833 17.4 636.833 17.68C636.833 19.56 637.113 21.2 637.713 22.64C638.273 24.08 639.113 25.2 640.193 26C641.273 26.8 642.553 27.16 643.993 27.16C645.593 27.16 646.953 26.68 648.073 25.72C649.193 24.76 649.913 23.52 650.233 21.92L650.793 22C650.553 23.6 649.993 25.04 649.193 26.32C648.393 27.6 647.353 28.6 646.073 29.32C644.793 30.04 643.393 30.4 641.873 30.4C640.033 30.4 638.433 29.96 637.033 29ZM643.913 16.32C644.473 16.32 644.913 16.2 645.153 15.92C645.393 15.64 645.553 15.16 645.553 14.52C645.553 13.4 645.233 12.36 644.673 11.4C644.073 10.44 643.193 9.92 642.033 9.92C640.833 9.92 639.713 10.56 638.753 11.8C637.753 13.08 637.153 14.56 636.913 16.32H643.913ZM656.642 29C655.242 28.08 654.162 26.8 653.402 25.2C652.602 23.6 652.242 21.88 652.242 19.96C652.242 17.96 652.642 16.16 653.522 14.56C654.402 12.96 655.562 11.68 657.082 10.72C658.562 9.8 660.202 9.32 661.962 9.32C663.482 9.32 664.842 9.68 665.962 10.36C667.082 11.08 667.962 12 668.562 13.16C669.162 14.36 669.482 15.64 669.482 17H656.482C656.442 17.16 656.442 17.4 656.442 17.68C656.442 19.56 656.722 21.2 657.322 22.64C657.882 24.08 658.722 25.2 659.802 26C660.882 26.8 662.162 27.16 663.602 27.16C665.202 27.16 666.562 26.68 667.682 25.72C668.802 24.76 669.522 23.52 669.842 21.92L670.402 22C670.162 23.6 669.602 25.04 668.802 26.32C668.002 27.6 666.962 28.6 665.682 29.32C664.402 30.04 663.002 30.4 661.482 30.4C659.642 30.4 658.042 29.96 656.642 29ZM663.522 16.32C664.082 16.32 664.522 16.2 664.762 15.92C665.002 15.64 665.162 15.16 665.162 14.52C665.162 13.4 664.842 12.36 664.282 11.4C663.682 10.44 662.802 9.92 661.642 9.92C660.442 9.92 659.322 10.56 658.362 11.8C657.362 13.08 656.762 14.56 656.522 16.32H663.522ZM683.791 29.48C684.671 29.48 685.391 29.28 685.911 28.88C686.431 28.48 686.711 27.8 686.711 26.8C686.711 26.48 686.671 26.2 686.671 26L685.431 16.84C684.951 13.44 683.551 11.72 681.271 11.72C680.231 11.72 679.311 12.16 678.591 13C677.871 13.88 677.431 14.88 677.351 16.08V25.96C677.351 27.28 677.591 28.2 678.071 28.72C678.551 29.24 679.231 29.48 680.151 29.48V30H670.231V29.48C671.111 29.48 671.791 29.24 672.271 28.68C672.751 28.16 673.031 27.24 673.031 25.96V14.08C673.031 13.12 672.791 12.48 672.391 12.08C671.991 11.68 671.311 11.48 670.391 11.44V10.92C672.951 10.76 675.151 10.24 676.991 9.36L677.351 9.56V14.36C677.711 12.92 678.431 11.72 679.511 10.76C680.591 9.8 681.871 9.32 683.391 9.32C685.111 9.32 686.511 9.96 687.631 11.16C688.711 12.36 689.431 14.24 689.791 16.72L691.151 26C691.311 27.28 691.631 28.2 692.151 28.72C692.631 29.24 693.311 29.48 694.191 29.48V30H683.791V29.48ZM208.511 70.56C207.551 69.32 207.071 67.72 207.071 65.72V53.32H204.551V52.76C206.191 52.6 207.591 52.04 208.711 51C209.831 49.96 210.551 48.56 210.871 46.76H211.431V51.72H217.391L216.711 53.32H211.431V65.28C211.431 66.64 211.711 67.76 212.271 68.6C212.831 69.48 213.631 69.88 214.631 69.88C215.431 69.88 216.071 69.64 216.591 69.08C217.111 68.52 217.471 67.84 217.671 67L218.151 67.08C217.951 68.6 217.351 69.84 216.391 70.88C215.391 71.92 214.191 72.4 212.831 72.4C210.911 72.4 209.471 71.8 208.511 70.56ZM231.191 71.48C232.151 71.48 232.871 71.28 233.431 70.88C233.951 70.48 234.231 69.8 234.231 68.8C234.231 68.48 234.191 68.2 234.191 68L232.951 58.84C232.471 55.44 231.071 53.72 228.791 53.72C227.751 53.72 226.871 54.16 226.151 55C225.431 55.88 224.991 56.88 224.871 58.08V67.96C224.871 69.28 225.111 70.2 225.591 70.72C226.071 71.24 226.751 71.48 227.671 71.48V72H217.751V71.48C218.631 71.48 219.311 71.24 219.791 70.68C220.271 70.16 220.551 69.24 220.551 67.96V47.16C220.551 46.2 220.311 45.52 219.911 45.12C219.511 44.72 218.831 44.52 217.911 44.52V44C220.471 43.84 222.671 43.32 224.511 42.44L224.871 42.64V56.36C225.231 54.92 225.951 53.72 227.031 52.76C228.111 51.8 229.391 51.32 230.911 51.32C232.631 51.32 234.031 51.96 235.151 53.16C236.231 54.36 236.951 56.24 237.311 58.72L238.671 68C238.831 69.28 239.151 70.2 239.711 70.72C240.231 71.24 240.951 71.48 241.831 71.48V72H231.191V71.48ZM241.891 71.48C242.771 71.48 243.451 71.24 243.931 70.68C244.411 70.16 244.691 69.24 244.691 67.96V56.08C244.691 55.12 244.491 54.48 244.091 54.08C243.691 53.68 243.011 53.48 242.051 53.44V52.92C244.611 52.76 246.811 52.24 248.651 51.36L249.011 51.56V55.92C249.331 54.68 249.931 53.6 250.811 52.68C251.691 51.8 252.691 51.32 253.891 51.32C254.811 51.32 255.571 51.64 256.171 52.2C256.731 52.8 257.051 53.48 257.051 54.24C257.051 54.92 256.811 55.48 256.411 55.96C256.011 56.44 255.451 56.64 254.771 56.64C254.291 56.64 253.931 56.56 253.651 56.32C253.371 56.12 253.131 55.84 252.971 55.52C252.811 55.2 252.651 54.88 252.571 54.56C252.411 54.24 252.291 54.04 252.171 53.88C252.011 53.76 251.851 53.68 251.611 53.68C250.971 53.68 250.411 54.08 249.931 54.8C249.451 55.56 249.131 56.44 249.011 57.44V67.96C249.011 69.24 249.331 70.16 249.971 70.68C250.611 71.24 251.491 71.48 252.651 71.48V72H241.891V71.48ZM262.067 71C260.507 70.08 259.267 68.8 258.387 67.16C257.467 65.56 257.027 63.76 257.027 61.76C257.027 59.72 257.467 57.92 258.387 56.32C259.267 54.72 260.507 53.52 262.067 52.64C263.587 51.76 265.267 51.32 267.107 51.32C268.947 51.32 270.627 51.8 272.147 52.68C273.667 53.6 274.907 54.84 275.827 56.44C276.707 58.04 277.187 59.84 277.187 61.84C277.187 63.88 276.747 65.72 275.867 67.32C274.987 68.92 273.747 70.2 272.227 71.08C270.707 71.96 269.027 72.4 267.187 72.4C265.307 72.4 263.587 71.96 262.067 71ZM263.907 69.16C265.027 70.84 266.387 71.64 267.907 71.64C269.427 71.64 270.587 70.92 271.427 69.44C272.227 68 272.667 66.08 272.667 63.72C272.667 62.96 272.587 62 272.467 60.88C272.107 58.24 271.387 56.12 270.267 54.52C269.147 52.92 267.867 52.08 266.387 52.08C264.827 52.08 263.627 52.84 262.787 54.32C261.947 55.84 261.547 57.76 261.547 60.08C261.547 61.04 261.587 61.88 261.707 62.64C262.027 65.32 262.787 67.48 263.907 69.16ZM283.081 71.48C282.081 70.84 281.321 69.92 280.761 68.72C280.201 67.52 279.921 66.08 279.921 64.44V56.08C279.921 55.12 279.681 54.48 279.281 54.08C278.881 53.68 278.201 53.48 277.281 53.44V52.92C279.841 52.76 282.041 52.24 283.881 51.36L284.241 51.56V64C284.241 65.84 284.561 67.32 285.281 68.36C285.961 69.44 287.001 69.96 288.401 69.96C289.601 69.96 290.521 69.56 291.201 68.72C291.881 67.88 292.281 66.88 292.401 65.76V56.08C292.401 55.12 292.161 54.48 291.761 54.08C291.361 53.68 290.681 53.48 289.761 53.44V52.92C292.321 52.76 294.521 52.24 296.361 51.36L296.721 51.56V68.24C296.721 69.12 296.921 69.72 297.321 70.04C297.721 70.36 298.441 70.48 299.401 70.44V70.96C296.801 71.28 294.601 71.8 292.801 72.48L292.401 72.24V67.68C291.961 68.96 291.241 70.08 290.241 71.04C289.201 72 287.961 72.44 286.441 72.44C285.161 72.44 284.041 72.12 283.081 71.48ZM303.779 79.6C302.619 79.12 301.739 78.48 301.139 77.68C300.539 76.92 300.259 76.12 300.259 75.28C300.259 74.72 300.619 74.16 301.339 73.6C302.059 73.08 303.059 72.52 304.339 71.96C303.259 71.72 302.419 71.28 301.819 70.56C301.219 69.84 300.939 69.04 300.939 68.12C300.939 67.8 300.979 67.52 301.139 67.36C301.259 67.2 301.579 66.92 302.099 66.56L303.059 65.88L304.699 64.64C303.419 64.08 302.419 63.24 301.699 62.16C300.979 61.12 300.619 59.88 300.619 58.48C300.619 57.08 300.979 55.84 301.699 54.72C302.419 53.6 303.459 52.76 304.779 52.12C306.059 51.52 307.579 51.2 309.259 51.2C309.779 51.2 310.539 51.28 311.579 51.44C312.939 51.64 314.059 51.72 315.019 51.72H319.179L318.499 53.32L314.619 53.24C315.579 53.92 316.299 54.72 316.819 55.64C317.299 56.6 317.579 57.56 317.579 58.6C317.579 59.96 317.219 61.2 316.499 62.24C315.779 63.28 314.819 64.12 313.539 64.68C312.259 65.28 310.819 65.56 309.139 65.56C307.659 65.56 306.339 65.32 305.179 64.84C304.619 65.32 304.219 65.72 304.059 65.96C303.859 66.2 303.779 66.44 303.779 66.6C303.779 67.68 304.579 68.2 306.179 68.2H313.699C315.299 68.2 316.539 68.48 317.459 69.04C318.379 69.6 318.859 70.56 318.859 71.92C318.859 73.28 318.339 74.6 317.379 75.88C316.419 77.2 315.059 78.28 313.379 79.12C311.699 79.96 309.819 80.36 307.779 80.36C306.259 80.36 304.899 80.12 303.779 79.6ZM305.699 77.12C306.819 77.84 308.299 78.2 310.139 78.2C311.579 78.2 312.819 78 313.939 77.56C315.019 77.16 315.859 76.6 316.459 75.96C317.059 75.32 317.379 74.64 317.379 73.96C317.379 73.4 317.139 72.92 316.659 72.6C316.179 72.28 315.499 72.08 314.579 72.08H305.699H305.219C304.739 72.48 304.339 72.88 304.099 73.24C303.859 73.6 303.739 74.04 303.779 74.52C303.899 75.56 304.539 76.4 305.699 77.12ZM306.099 62.92C307.019 64.24 308.219 64.88 309.659 64.88C310.819 64.88 311.739 64.36 312.459 63.24C313.139 62.12 313.499 60.76 313.499 59.12C313.499 57.84 313.259 56.68 312.859 55.56C312.459 54.44 311.859 53.56 311.139 52.88C310.419 52.24 309.579 51.88 308.699 51.88C307.419 51.88 306.459 52.48 305.779 53.68C305.059 54.88 304.739 56.24 304.739 57.84C304.739 59.92 305.179 61.64 306.099 62.92ZM333.3 71.48C334.26 71.48 334.98 71.28 335.54 70.88C336.06 70.48 336.34 69.8 336.34 68.8C336.34 68.48 336.3 68.2 336.3 68L335.06 58.84C334.58 55.44 333.18 53.72 330.9 53.72C329.86 53.72 328.98 54.16 328.26 55C327.54 55.88 327.1 56.88 326.98 58.08V67.96C326.98 69.28 327.22 70.2 327.7 70.72C328.18 71.24 328.86 71.48 329.78 71.48V72H319.86V71.48C320.74 71.48 321.42 71.24 321.9 70.68C322.38 70.16 322.66 69.24 322.66 67.96V47.16C322.66 46.2 322.42 45.52 322.02 45.12C321.62 44.72 320.94 44.52 320.02 44.52V44C322.58 43.84 324.78 43.32 326.62 42.44L326.98 42.64V56.36C327.34 54.92 328.06 53.72 329.14 52.76C330.22 51.8 331.5 51.32 333.02 51.32C334.74 51.32 336.14 51.96 337.26 53.16C338.34 54.36 339.06 56.24 339.42 58.72L340.78 68C340.94 69.28 341.26 70.2 341.82 70.72C342.34 71.24 343.06 71.48 343.94 71.48V72H333.3V71.48ZM356.168 70.56C355.208 69.32 354.728 67.72 354.728 65.72V53.32H352.208V52.76C353.848 52.6 355.248 52.04 356.368 51C357.488 49.96 358.208 48.56 358.528 46.76H359.088V51.72H365.048L364.368 53.32H359.088V65.28C359.088 66.64 359.368 67.76 359.928 68.6C360.488 69.48 361.288 69.88 362.288 69.88C363.088 69.88 363.728 69.64 364.248 69.08C364.768 68.52 365.128 67.84 365.328 67L365.808 67.08C365.608 68.6 365.008 69.84 364.048 70.88C363.048 71.92 361.848 72.4 360.488 72.4C358.568 72.4 357.128 71.8 356.168 70.56ZM378.847 71.48C379.807 71.48 380.527 71.28 381.087 70.88C381.607 70.48 381.887 69.8 381.887 68.8C381.887 68.48 381.847 68.2 381.847 68L380.607 58.84C380.127 55.44 378.727 53.72 376.447 53.72C375.407 53.72 374.527 54.16 373.807 55C373.087 55.88 372.647 56.88 372.527 58.08V67.96C372.527 69.28 372.767 70.2 373.247 70.72C373.727 71.24 374.407 71.48 375.327 71.48V72H365.407V71.48C366.287 71.48 366.967 71.24 367.447 70.68C367.927 70.16 368.207 69.24 368.207 67.96V47.16C368.207 46.2 367.967 45.52 367.567 45.12C367.167 44.72 366.487 44.52 365.567 44.52V44C368.127 43.84 370.327 43.32 372.167 42.44L372.527 42.64V56.36C372.887 54.92 373.607 53.72 374.687 52.76C375.767 51.8 377.047 51.32 378.567 51.32C380.287 51.32 381.687 51.96 382.807 53.16C383.887 54.36 384.607 56.24 384.967 58.72L386.327 68C386.487 69.28 386.807 70.2 387.367 70.72C387.887 71.24 388.607 71.48 389.487 71.48V72H378.847V71.48ZM393.341 71C391.941 70.08 390.861 68.8 390.101 67.2C389.301 65.6 388.941 63.88 388.941 61.96C388.941 59.96 389.341 58.16 390.221 56.56C391.101 54.96 392.261 53.68 393.781 52.72C395.261 51.8 396.901 51.32 398.661 51.32C400.181 51.32 401.541 51.68 402.661 52.36C403.781 53.08 404.661 54 405.261 55.16C405.861 56.36 406.181 57.64 406.181 59H393.181C393.141 59.16 393.141 59.4 393.141 59.68C393.141 61.56 393.421 63.2 394.021 64.64C394.581 66.08 395.421 67.2 396.501 68C397.581 68.8 398.861 69.16 400.301 69.16C401.901 69.16 403.261 68.68 404.381 67.72C405.501 66.76 406.221 65.52 406.541 63.92L407.101 64C406.861 65.6 406.301 67.04 405.501 68.32C404.701 69.6 403.661 70.6 402.381 71.32C401.101 72.04 399.701 72.4 398.181 72.4C396.341 72.4 394.741 71.96 393.341 71ZM400.221 58.32C400.781 58.32 401.221 58.2 401.461 57.92C401.701 57.64 401.861 57.16 401.861 56.52C401.861 55.4 401.541 54.36 400.981 53.4C400.381 52.44 399.501 51.92 398.341 51.92C397.141 51.92 396.021 52.56 395.061 53.8C394.061 55.08 393.461 56.56 393.221 58.32H400.221ZM432.274 68.16C431.634 69.44 430.794 70.48 429.834 71.24C428.834 72.04 427.714 72.4 426.474 72.4C424.554 72.4 423.034 71.76 421.914 70.4C420.794 69.08 419.994 67.04 419.554 64.28L418.114 55.72C417.874 54.44 417.514 53.56 416.994 53.04C416.434 52.52 415.754 52.24 414.874 52.24V51.72H424.554V52.24C423.074 52.24 422.354 53.04 422.354 54.6C422.354 55.08 422.354 55.48 422.434 55.72L423.594 63.08C423.954 65.24 424.514 66.84 425.234 67.88C425.954 68.96 427.034 69.48 428.434 69.48C429.794 69.48 431.034 68.88 432.074 67.6C431.714 66.64 431.434 65.56 431.234 64.28L429.794 55.72C429.554 54.44 429.194 53.56 428.714 53.04C428.194 52.52 427.514 52.24 426.714 52.24V51.72H436.234V52.24C434.754 52.24 434.034 53.04 434.034 54.64C434.034 55.12 434.034 55.48 434.114 55.72L435.314 63.08C435.634 65.24 436.194 66.88 436.954 67.92C437.674 68.96 438.754 69.48 440.114 69.48C441.234 69.48 442.314 69.12 443.314 68.36C444.314 67.64 445.114 66.6 445.754 65.32C446.354 64.04 446.674 62.6 446.674 61.08C446.674 59.32 446.314 57.84 445.594 56.72C444.874 55.6 443.954 55.04 442.754 55.04C442.274 55.04 441.714 55.16 441.154 55.36C440.914 55.48 440.594 55.52 440.274 55.52C439.714 55.52 439.234 55.36 438.834 54.96C438.434 54.6 438.274 54.12 438.274 53.52C438.274 52.88 438.474 52.36 438.874 51.96C439.274 51.56 439.834 51.36 440.634 51.36C441.754 51.36 442.834 51.72 443.874 52.36C444.914 53 445.754 54 446.394 55.32C447.034 56.68 447.394 58.32 447.394 60.24C447.394 62.44 446.954 64.48 446.114 66.32C445.274 68.2 444.154 69.68 442.754 70.76C441.354 71.88 439.874 72.4 438.314 72.4C435.474 72.4 433.474 71 432.274 68.16ZM454.005 71C452.605 70.08 451.525 68.8 450.765 67.2C449.965 65.6 449.605 63.88 449.605 61.96C449.605 59.96 450.005 58.16 450.885 56.56C451.765 54.96 452.925 53.68 454.445 52.72C455.925 51.8 457.565 51.32 459.325 51.32C460.845 51.32 462.205 51.68 463.325 52.36C464.445 53.08 465.325 54 465.925 55.16C466.525 56.36 466.845 57.64 466.845 59H453.845C453.805 59.16 453.805 59.4 453.805 59.68C453.805 61.56 454.085 63.2 454.685 64.64C455.245 66.08 456.085 67.2 457.165 68C458.245 68.8 459.525 69.16 460.965 69.16C462.565 69.16 463.925 68.68 465.045 67.72C466.165 66.76 466.885 65.52 467.205 63.92L467.765 64C467.525 65.6 466.965 67.04 466.165 68.32C465.365 69.6 464.325 70.6 463.045 71.32C461.765 72.04 460.365 72.4 458.845 72.4C457.005 72.4 455.405 71.96 454.005 71ZM460.885 58.32C461.445 58.32 461.885 58.2 462.125 57.92C462.365 57.64 462.525 57.16 462.525 56.52C462.525 55.4 462.205 54.36 461.645 53.4C461.045 52.44 460.165 51.92 459.005 51.92C457.805 51.92 456.685 52.56 455.725 53.8C454.725 55.08 454.125 56.56 453.885 58.32H460.885ZM474.113 71.68C472.633 71.2 471.313 70.56 470.113 69.76V47.16C470.113 46.2 469.873 45.52 469.473 45.12C469.073 44.72 468.393 44.52 467.473 44.52V44C470.033 43.84 472.233 43.32 474.073 42.44L474.433 42.64V56.2C474.793 54.96 475.553 53.84 476.713 52.88C477.833 51.92 479.193 51.4 480.753 51.4C482.313 51.4 483.713 51.88 484.953 52.84C486.153 53.8 487.113 55.04 487.793 56.6C488.433 58.2 488.793 59.88 488.793 61.68C488.793 63.76 488.353 65.64 487.473 67.24C486.593 68.88 485.353 70.16 483.833 71.04C482.313 71.96 480.593 72.4 478.753 72.4C477.153 72.4 475.593 72.16 474.113 71.68ZM475.553 69.8C476.313 71.16 477.473 71.8 478.993 71.8C480.593 71.8 481.913 71 482.873 69.36C483.833 67.76 484.313 65.64 484.313 63.04C484.313 61.12 484.033 59.44 483.553 58C483.073 56.6 482.393 55.52 481.553 54.8C480.673 54.08 479.713 53.68 478.633 53.68C477.593 53.68 476.713 54.08 475.953 54.8C475.153 55.52 474.673 56.44 474.433 57.56V63.48C474.433 66.36 474.793 68.44 475.553 69.8Z" fill="black"/>
</svg>
