<svg viewBox="0 0 193 16" fill="none" xmlns="http://www.w3.org/2000/svg">
<path d="M4.92531 9.36C5.82531 7.92 6.28531 6.52 6.28531 5.2C6.28531 4.14 6.02531 3.34 5.54531 2.8C5.04531 2.28 4.44531 2 3.76531 2C3.14531 2 2.60531 2.22 2.14531 2.66C1.66531 3.1 1.36531 3.62 1.22531 4.26L0.925313 4.22C1.02531 3.62 1.26531 3.04 1.64531 2.52C2.00531 2 2.48531 1.58 3.04531 1.26C3.60531 0.94 4.20531 0.779999 4.88531 0.779999C5.54531 0.779999 6.16531 0.96 6.72531 1.28C7.28531 1.6 7.74531 2.06 8.08531 2.66C8.42531 3.26 8.60531 3.92 8.60531 4.66C8.60531 5.58 8.36531 6.48 7.88531 7.32C7.40531 8.18 6.74531 9.02 5.92531 9.86C5.10531 10.7 3.90531 11.82 2.34531 13.22H5.66531C6.44531 13.22 7.04531 13.16 7.44531 13.04C7.84531 12.92 8.14531 12.7 8.36531 12.38C8.56531 12.08 8.76531 11.6 8.96531 10.92L9.20531 10.98L8.42531 15H0.545313V14.64C2.56531 12.56 4.02531 10.8 4.92531 9.36ZM9.76 14.74C10.38 14.74 10.86 14.62 11.2 14.36C11.54 14.1 11.72 13.64 11.72 12.98V4.6C11.72 4.18 11.62 3.88 11.46 3.68C11.28 3.48 10.98 3.38 10.58 3.38H9.3V3.1C10.34 3.08 11.28 2.86 12.1 2.46C12.9 2.06 13.42 1.44 13.66 0.599999H13.98V12.98C13.98 13.64 14.14 14.1 14.48 14.36C14.82 14.62 15.3 14.74 15.94 14.74V15H9.76V14.74ZM17.0698 14.76C16.8098 14.48 16.6898 14.14 16.6898 13.7C16.6898 13.3 16.8098 12.98 17.0698 12.7C17.3298 12.44 17.6698 12.3 18.0898 12.3C18.4898 12.3 18.8298 12.44 19.0898 12.7C19.3498 12.98 19.4898 13.3 19.4898 13.7C19.4898 14.14 19.3498 14.48 19.0898 14.76C18.8298 15.04 18.4898 15.16 18.0898 15.16C17.6698 15.16 17.3298 15.04 17.0698 14.76ZM22.5139 14.32C21.7139 13.74 21.0939 12.9 20.6339 11.8C20.1739 10.7 19.9539 9.42 19.9539 7.94C19.9539 6.46 20.1739 5.16 20.6539 4.08C21.1139 3 21.7339 2.2 22.4939 1.64C23.2539 1.08 24.0939 0.799999 24.9939 0.799999C25.8739 0.799999 26.7139 1.1 27.4739 1.66C28.2339 2.22 28.8539 3.06 29.3139 4.14C29.7539 5.22 29.9939 6.5 29.9939 7.98C29.9939 9.48 29.7539 10.78 29.3139 11.86C28.8739 12.94 28.2739 13.78 27.5339 14.34C26.7939 14.92 25.9939 15.2 25.1339 15.2C24.1739 15.2 23.2939 14.92 22.5139 14.32ZM23.4939 13.2C24.0139 14.28 24.6539 14.8 25.4339 14.8C25.5139 14.8 25.6139 14.8 25.7539 14.76C26.3739 14.64 26.8539 14.06 27.1739 13C27.4939 11.94 27.6739 10.64 27.6739 9.12C27.6739 8.36 27.6339 7.6 27.5539 6.84C27.3539 5.14 27.0139 3.78 26.5339 2.76C26.0339 1.74 25.3939 1.22 24.6339 1.22C24.5339 1.22 24.4139 1.24 24.2539 1.26C23.6139 1.4 23.1139 2 22.7939 3.04C22.4739 4.08 22.3139 5.36 22.3139 6.86C22.3139 7.62 22.3539 8.36 22.4339 9.1C22.6139 10.78 22.9739 12.14 23.4939 13.2ZM34.5347 9.36C35.4347 7.92 35.8947 6.52 35.8947 5.2C35.8947 4.14 35.6347 3.34 35.1547 2.8C34.6547 2.28 34.0547 2 33.3747 2C32.7547 2 32.2147 2.22 31.7547 2.66C31.2747 3.1 30.9747 3.62 30.8347 4.26L30.5347 4.22C30.6347 3.62 30.8747 3.04 31.2547 2.52C31.6147 2 32.0947 1.58 32.6547 1.26C33.2147 0.94 33.8147 0.779999 34.4947 0.779999C35.1547 0.779999 35.7747 0.96 36.3347 1.28C36.8947 1.6 37.3547 2.06 37.6947 2.66C38.0347 3.26 38.2147 3.92 38.2147 4.66C38.2147 5.58 37.9747 6.48 37.4947 7.32C37.0147 8.18 36.3547 9.02 35.5347 9.86C34.7147 10.7 33.5147 11.82 31.9547 13.22H35.2747C36.0547 13.22 36.6547 13.16 37.0547 13.04C37.4547 12.92 37.7547 12.7 37.9747 12.38C38.1747 12.08 38.3747 11.6 38.5747 10.92L38.8147 10.98L38.0347 15H30.1547V14.64C32.1747 12.56 33.6347 10.8 34.5347 9.36ZM40.1363 14.76C39.8763 14.48 39.7563 14.14 39.7563 13.7C39.7563 13.3 39.8763 12.98 40.1363 12.7C40.3963 12.44 40.7363 12.3 41.1563 12.3C41.5563 12.3 41.8963 12.44 42.1563 12.7C42.4163 12.98 42.5563 13.3 42.5563 13.7C42.5563 14.14 42.4163 14.48 42.1563 14.76C41.8963 15.04 41.5563 15.16 41.1563 15.16C40.7363 15.16 40.3963 15.04 40.1363 14.76ZM47.6402 9.36C48.5402 7.92 49.0002 6.52 49.0002 5.2C49.0002 4.14 48.7402 3.34 48.2602 2.8C47.7602 2.28 47.1602 2 46.4802 2C45.8602 2 45.3202 2.22 44.8602 2.66C44.3802 3.1 44.0802 3.62 43.9402 4.26L43.6402 4.22C43.7402 3.62 43.9802 3.04 44.3602 2.52C44.7202 2 45.2002 1.58 45.7602 1.26C46.3202 0.94 46.9202 0.779999 47.6002 0.779999C48.2602 0.779999 48.8802 0.96 49.4402 1.28C50.0002 1.6 50.4602 2.06 50.8002 2.66C51.1402 3.26 51.3202 3.92 51.3202 4.66C51.3202 5.58 51.0802 6.48 50.6002 7.32C50.1202 8.18 49.4602 9.02 48.6402 9.86C47.8202 10.7 46.6202 11.82 45.0602 13.22H48.3802C49.1602 13.22 49.7602 13.16 50.1602 13.04C50.5602 12.92 50.8602 12.7 51.0802 12.38C51.2802 12.08 51.4802 11.6 51.6802 10.92L51.9202 10.98L51.1402 15H43.2602V14.64C45.2802 12.56 46.7402 10.8 47.6402 9.36ZM55.3264 14.32C54.5264 13.74 53.9064 12.9 53.4464 11.8C52.9864 10.7 52.7664 9.42 52.7664 7.94C52.7664 6.46 52.9864 5.16 53.4664 4.08C53.9264 3 54.5464 2.2 55.3064 1.64C56.0664 1.08 56.9064 0.799999 57.8064 0.799999C58.6864 0.799999 59.5264 1.1 60.2864 1.66C61.0464 2.22 61.6664 3.06 62.1264 4.14C62.5664 5.22 62.8064 6.5 62.8064 7.98C62.8064 9.48 62.5664 10.78 62.1264 11.86C61.6864 12.94 61.0864 13.78 60.3464 14.34C59.6064 14.92 58.8064 15.2 57.9464 15.2C56.9864 15.2 56.1064 14.92 55.3264 14.32ZM56.3064 13.2C56.8264 14.28 57.4664 14.8 58.2464 14.8C58.3264 14.8 58.4264 14.8 58.5664 14.76C59.1864 14.64 59.6664 14.06 59.9864 13C60.3064 11.94 60.4864 10.64 60.4864 9.12C60.4864 8.36 60.4464 7.6 60.3664 6.84C60.1664 5.14 59.8264 3.78 59.3464 2.76C58.8464 1.74 58.2064 1.22 57.4464 1.22C57.3464 1.22 57.2264 1.24 57.0664 1.26C56.4264 1.4 55.9264 2 55.6064 3.04C55.2864 4.08 55.1264 5.36 55.1264 6.86C55.1264 7.62 55.1664 8.36 55.2464 9.1C55.4264 10.78 55.7864 12.14 56.3064 13.2ZM67.3472 9.36C68.2472 7.92 68.7072 6.52 68.7072 5.2C68.7072 4.14 68.4472 3.34 67.9672 2.8C67.4672 2.28 66.8672 2 66.1872 2C65.5672 2 65.0272 2.22 64.5672 2.66C64.0872 3.1 63.7872 3.62 63.6472 4.26L63.3472 4.22C63.4472 3.62 63.6872 3.04 64.0672 2.52C64.4272 2 64.9072 1.58 65.4672 1.26C66.0272 0.94 66.6272 0.779999 67.3072 0.779999C67.9672 0.779999 68.5872 0.96 69.1472 1.28C69.7072 1.6 70.1672 2.06 70.5072 2.66C70.8472 3.26 71.0272 3.92 71.0272 4.66C71.0272 5.58 70.7872 6.48 70.3072 7.32C69.8272 8.18 69.1672 9.02 68.3472 9.86C67.5272 10.7 66.3272 11.82 64.7672 13.22H68.0872C68.8672 13.22 69.4672 13.16 69.8672 13.04C70.2672 12.92 70.5672 12.7 70.7872 12.38C70.9872 12.08 71.1872 11.6 71.3872 10.92L71.6272 10.98L70.8472 15H62.9672V14.64C64.9872 12.56 66.4472 10.8 67.3472 9.36ZM75.4581 14.74C75.9781 14.74 76.3981 14.62 76.6981 14.34C76.9781 14.08 77.1381 13.62 77.1381 12.98V11.72H71.7781V11.34L79.0581 0.68H79.3981V10.38H81.2381V11.72H79.3981V12.98C79.3981 13.64 79.5381 14.1 79.8381 14.36C80.1181 14.62 80.5381 14.74 81.0781 14.74V15H75.4581V14.74ZM77.1381 10.38V3.96L72.9581 10.38H77.1381ZM86.382 9.48H102.402V9.82H86.382V9.48ZM110.365 14.32C109.565 13.74 108.945 12.9 108.485 11.8C108.025 10.7 107.805 9.42 107.805 7.94C107.805 6.46 108.025 5.16 108.505 4.08C108.965 3 109.585 2.2 110.345 1.64C111.105 1.08 111.945 0.799999 112.845 0.799999C113.725 0.799999 114.565 1.1 115.325 1.66C116.085 2.22 116.705 3.06 117.165 4.14C117.605 5.22 117.845 6.5 117.845 7.98C117.845 9.48 117.605 10.78 117.165 11.86C116.725 12.94 116.125 13.78 115.385 14.34C114.645 14.92 113.845 15.2 112.985 15.2C112.025 15.2 111.145 14.92 110.365 14.32ZM111.345 13.2C111.865 14.28 112.505 14.8 113.285 14.8C113.365 14.8 113.465 14.8 113.605 14.76C114.225 14.64 114.705 14.06 115.025 13C115.345 11.94 115.525 10.64 115.525 9.12C115.525 8.36 115.485 7.6 115.405 6.84C115.205 5.14 114.865 3.78 114.385 2.76C113.885 1.74 113.245 1.22 112.485 1.22C112.385 1.22 112.265 1.24 112.105 1.26C111.465 1.4 110.965 2 110.645 3.04C110.325 4.08 110.165 5.36 110.165 6.86C110.165 7.62 110.205 8.36 110.285 9.1C110.465 10.78 110.825 12.14 111.345 13.2ZM120.299 14.78C119.719 14.54 119.259 14.18 118.919 13.72C118.559 13.28 118.399 12.76 118.399 12.2C118.399 11.84 118.499 11.54 118.739 11.3C118.959 11.06 119.239 10.94 119.559 10.94C119.839 10.94 120.079 11.06 120.279 11.26C120.459 11.48 120.559 11.72 120.559 12C120.559 12.22 120.479 12.48 120.359 12.76C120.199 13.04 120.139 13.28 120.139 13.52C120.139 13.9 120.299 14.2 120.619 14.44C120.939 14.68 121.339 14.78 121.819 14.78C122.299 14.78 122.739 14.62 123.139 14.26C123.539 13.92 123.839 13.48 124.079 12.92C124.299 12.36 124.419 11.78 124.419 11.16C124.419 10.08 124.099 9.2 123.479 8.52C122.859 7.84 122.039 7.48 121.019 7.48V7.2C121.859 7.12 122.519 6.84 123.039 6.36C123.539 5.88 123.799 5.24 123.799 4.42C123.799 3.62 123.579 3 123.139 2.56C122.699 2.12 122.179 1.9 121.559 1.9C121.079 1.9 120.619 2.06 120.199 2.38C119.759 2.7 119.439 3.18 119.239 3.8L118.939 3.72C119.139 2.86 119.579 2.14 120.239 1.58C120.899 1.02 121.699 0.719999 122.639 0.719999C123.179 0.719999 123.699 0.86 124.179 1.1C124.659 1.34 125.059 1.7 125.359 2.16C125.659 2.62 125.819 3.16 125.819 3.76C125.819 4.24 125.699 4.68 125.479 5.12C125.239 5.56 124.939 5.92 124.539 6.2C124.139 6.48 123.699 6.66 123.239 6.7C123.899 6.78 124.499 7 125.059 7.36C125.599 7.72 126.019 8.2 126.339 8.78C126.659 9.38 126.819 10.04 126.819 10.76C126.819 11.64 126.599 12.4 126.159 13.06C125.719 13.74 125.119 14.24 124.399 14.6C123.679 14.96 122.919 15.14 122.119 15.14C121.479 15.14 120.859 15.02 120.299 14.78ZM127.968 14.76C127.708 14.48 127.588 14.14 127.588 13.7C127.588 13.3 127.708 12.98 127.968 12.7C128.228 12.44 128.568 12.3 128.988 12.3C129.388 12.3 129.728 12.44 129.988 12.7C130.248 12.98 130.388 13.3 130.388 13.7C130.388 14.14 130.248 14.48 129.988 14.76C129.728 15.04 129.388 15.16 128.988 15.16C128.568 15.16 128.228 15.04 127.968 14.76ZM133.412 14.32C132.612 13.74 131.992 12.9 131.532 11.8C131.072 10.7 130.852 9.42 130.852 7.94C130.852 6.46 131.072 5.16 131.552 4.08C132.012 3 132.632 2.2 133.392 1.64C134.152 1.08 134.992 0.799999 135.892 0.799999C136.772 0.799999 137.612 1.1 138.372 1.66C139.132 2.22 139.752 3.06 140.212 4.14C140.652 5.22 140.892 6.5 140.892 7.98C140.892 9.48 140.652 10.78 140.212 11.86C139.772 12.94 139.172 13.78 138.432 14.34C137.692 14.92 136.892 15.2 136.032 15.2C135.072 15.2 134.192 14.92 133.412 14.32ZM134.392 13.2C134.912 14.28 135.552 14.8 136.332 14.8C136.412 14.8 136.512 14.8 136.652 14.76C137.272 14.64 137.752 14.06 138.072 13C138.392 11.94 138.572 10.64 138.572 9.12C138.572 8.36 138.532 7.6 138.452 6.84C138.252 5.14 137.912 3.78 137.432 2.76C136.932 1.74 136.292 1.22 135.532 1.22C135.432 1.22 135.312 1.24 135.152 1.26C134.512 1.4 134.012 2 133.692 3.04C133.372 4.08 133.212 5.36 133.212 6.86C133.212 7.62 133.252 8.36 133.332 9.1C133.512 10.78 133.872 12.14 134.392 13.2ZM143.346 14.78C142.766 14.54 142.306 14.18 141.966 13.72C141.606 13.28 141.446 12.76 141.446 12.2C141.446 11.84 141.546 11.54 141.786 11.3C142.006 11.06 142.286 10.94 142.606 10.94C142.886 10.94 143.126 11.06 143.326 11.26C143.506 11.48 143.606 11.72 143.606 12C143.606 12.22 143.526 12.48 143.406 12.76C143.246 13.04 143.186 13.28 143.186 13.52C143.186 13.9 143.346 14.2 143.666 14.44C143.986 14.68 144.386 14.78 144.866 14.78C145.346 14.78 145.786 14.62 146.186 14.26C146.586 13.92 146.886 13.48 147.126 12.92C147.346 12.36 147.466 11.78 147.466 11.16C147.466 10.08 147.146 9.2 146.526 8.52C145.906 7.84 145.086 7.48 144.066 7.48V7.2C144.906 7.12 145.566 6.84 146.086 6.36C146.586 5.88 146.846 5.24 146.846 4.42C146.846 3.62 146.626 3 146.186 2.56C145.746 2.12 145.226 1.9 144.606 1.9C144.126 1.9 143.666 2.06 143.246 2.38C142.806 2.7 142.486 3.18 142.286 3.8L141.986 3.72C142.186 2.86 142.626 2.14 143.286 1.58C143.946 1.02 144.746 0.719999 145.686 0.719999C146.226 0.719999 146.746 0.86 147.226 1.1C147.706 1.34 148.106 1.7 148.406 2.16C148.706 2.62 148.866 3.16 148.866 3.76C148.866 4.24 148.746 4.68 148.526 5.12C148.286 5.56 147.986 5.92 147.586 6.2C147.186 6.48 146.746 6.66 146.286 6.7C146.946 6.78 147.546 7 148.106 7.36C148.646 7.72 149.066 8.2 149.386 8.78C149.706 9.38 149.866 10.04 149.866 10.76C149.866 11.64 149.646 12.4 149.206 13.06C148.766 13.74 148.166 14.24 147.446 14.6C146.726 14.96 145.966 15.14 145.166 15.14C144.526 15.14 143.906 15.02 143.346 14.78ZM151.015 14.76C150.755 14.48 150.635 14.14 150.635 13.7C150.635 13.3 150.755 12.98 151.015 12.7C151.275 12.44 151.615 12.3 152.035 12.3C152.435 12.3 152.775 12.44 153.035 12.7C153.295 12.98 153.435 13.3 153.435 13.7C153.435 14.14 153.295 14.48 153.035 14.76C152.775 15.04 152.435 15.16 152.035 15.16C151.615 15.16 151.275 15.04 151.015 14.76ZM158.519 9.36C159.419 7.92 159.879 6.52 159.879 5.2C159.879 4.14 159.619 3.34 159.139 2.8C158.639 2.28 158.039 2 157.359 2C156.739 2 156.199 2.22 155.739 2.66C155.259 3.1 154.959 3.62 154.819 4.26L154.519 4.22C154.619 3.62 154.859 3.04 155.239 2.52C155.599 2 156.079 1.58 156.639 1.26C157.199 0.94 157.799 0.779999 158.479 0.779999C159.139 0.779999 159.759 0.96 160.319 1.28C160.879 1.6 161.339 2.06 161.679 2.66C162.019 3.26 162.199 3.92 162.199 4.66C162.199 5.58 161.959 6.48 161.479 7.32C160.999 8.18 160.339 9.02 159.519 9.86C158.699 10.7 157.499 11.82 155.939 13.22H159.259C160.039 13.22 160.639 13.16 161.039 13.04C161.439 12.92 161.739 12.7 161.959 12.38C162.159 12.08 162.359 11.6 162.559 10.92L162.799 10.98L162.019 15H154.139V14.64C156.159 12.56 157.619 10.8 158.519 9.36ZM166.205 14.32C165.405 13.74 164.785 12.9 164.325 11.8C163.865 10.7 163.645 9.42 163.645 7.94C163.645 6.46 163.865 5.16 164.345 4.08C164.805 3 165.425 2.2 166.185 1.64C166.945 1.08 167.785 0.799999 168.685 0.799999C169.565 0.799999 170.405 1.1 171.165 1.66C171.925 2.22 172.545 3.06 173.005 4.14C173.445 5.22 173.685 6.5 173.685 7.98C173.685 9.48 173.445 10.78 173.005 11.86C172.565 12.94 171.965 13.78 171.225 14.34C170.485 14.92 169.685 15.2 168.825 15.2C167.865 15.2 166.985 14.92 166.205 14.32ZM167.185 13.2C167.705 14.28 168.345 14.8 169.125 14.8C169.205 14.8 169.305 14.8 169.445 14.76C170.065 14.64 170.545 14.06 170.865 13C171.185 11.94 171.365 10.64 171.365 9.12C171.365 8.36 171.325 7.6 171.245 6.84C171.045 5.14 170.705 3.78 170.225 2.76C169.725 1.74 169.085 1.22 168.325 1.22C168.225 1.22 168.105 1.24 167.945 1.26C167.305 1.4 166.805 2 166.485 3.04C166.165 4.08 166.005 5.36 166.005 6.86C166.005 7.62 166.045 8.36 166.125 9.1C166.305 10.78 166.665 12.14 167.185 13.2ZM178.226 9.36C179.126 7.92 179.586 6.52 179.586 5.2C179.586 4.14 179.326 3.34 178.846 2.8C178.346 2.28 177.746 2 177.066 2C176.446 2 175.906 2.22 175.446 2.66C174.966 3.1 174.666 3.62 174.526 4.26L174.226 4.22C174.326 3.62 174.566 3.04 174.946 2.52C175.306 2 175.786 1.58 176.346 1.26C176.906 0.94 177.506 0.779999 178.186 0.779999C178.846 0.779999 179.466 0.96 180.026 1.28C180.586 1.6 181.046 2.06 181.386 2.66C181.726 3.26 181.906 3.92 181.906 4.66C181.906 5.58 181.666 6.48 181.186 7.32C180.706 8.18 180.046 9.02 179.226 9.86C178.406 10.7 177.206 11.82 175.646 13.22H178.966C179.746 13.22 180.346 13.16 180.746 13.04C181.146 12.92 181.446 12.7 181.666 12.38C181.866 12.08 182.066 11.6 182.266 10.92L182.506 10.98L181.726 15H173.846V14.64C175.866 12.56 177.326 10.8 178.226 9.36ZM186.337 14.74C186.857 14.74 187.277 14.62 187.577 14.34C187.857 14.08 188.017 13.62 188.017 12.98V11.72H182.657V11.34L189.937 0.68H190.277V10.38H192.117V11.72H190.277V12.98C190.277 13.64 190.417 14.1 190.717 14.36C190.997 14.62 191.417 14.74 191.957 14.74V15H186.337V14.74ZM188.017 10.38V3.96L183.837 10.38H188.017Z" fill="black"/>
</svg>
