<svg viewBox="0 0 136 57" fill="none" xmlns="http://www.w3.org/2000/svg">
<path d="M0.511841 1.76287C0.511841 1.12182 0.992628 0.641037 1.63368 0.587616H15.6833C27.4893 0.587616 37.1051 10.1499 37.1051 21.9559C37.1051 33.7619 27.5962 43.3777 15.7902 43.3777C15.7368 43.3777 15.6833 43.3777 15.6833 43.3777H1.63368C0.992628 43.3243 0.511841 42.8435 0.511841 42.2024V1.76287ZM14.8286 37.6082C23.8033 37.6082 30.3741 30.9841 30.3741 21.9559C30.3207 12.9812 23.8033 6.41048 14.8286 6.41048H6.76207V37.5548L14.8286 37.6082Z" fill="#01FAF3"/>
<path d="M47.4154 1.76288C47.4154 1.12183 47.8961 0.641046 48.5372 0.587625H62.5869C74.3929 0.534204 84.0086 10.0965 84.062 21.9025C84.1155 33.7085 74.5531 43.3243 62.7471 43.3777C62.6937 43.3777 62.6403 43.3777 62.6403 43.3777H48.4838C47.8427 43.3777 47.3619 42.8435 47.3619 42.2024L47.4154 1.76288ZM61.6787 37.6082C70.6534 37.6082 77.2242 30.9841 77.2242 21.9559C77.2242 12.9813 70.7068 6.41049 61.6787 6.41049H53.6122V37.5548L61.6787 37.6082Z" fill="#01FAF3"/>
<path d="M113.604 0C119.8 0 124.234 2.08341 128.401 5.66261C128.882 6.03655 128.989 6.78444 128.561 7.26523C128.508 7.31865 128.508 7.37207 128.455 7.37207L125.784 10.0965C125.356 10.6307 124.822 10.6307 124.234 10.0965C121.296 7.53233 117.557 6.08997 113.657 5.98313C104.896 5.98313 98.3253 13.3018 98.3253 21.9025C98.3253 30.5033 105.003 37.7151 113.711 37.7151C118.198 37.7151 121.296 35.9522 124.234 33.7085C124.662 33.3346 125.249 33.2812 125.73 33.6551L128.561 36.3796C128.989 36.8604 128.989 37.6082 128.508 38.0356C124.555 41.8819 119.213 44.0187 113.657 43.9653C101.477 44.0187 91.5943 34.1893 91.5409 22.0628C91.4874 9.93627 101.317 0.0534208 113.497 0C113.55 0 113.55 0 113.604 0Z" fill="#01FAF3"/>
<path d="M134.652 57H90.7396C90.2588 57 89.8849 56.6261 89.8849 56.0919V51.9785C89.8849 51.4977 90.2588 51.1237 90.7396 51.0703H134.652C135.132 51.0703 135.506 51.4443 135.506 51.9785V56.0919C135.506 56.6261 135.132 57 134.652 57Z" fill="#01FAF3"/>
<path d="M5.85388 27.298C5.80046 26.9241 5.6402 26.6036 5.3731 26.3899C5.10599 26.1762 4.73205 26.0159 4.3581 26.0159C3.77047 25.9625 3.18284 26.283 2.91574 26.7638C2.59521 27.298 2.43495 27.8857 2.48837 28.4733C2.48837 29.0609 2.64863 29.6485 2.91574 30.1293C3.18284 30.6635 3.77047 30.9841 4.3581 30.9306C4.78547 30.9306 5.15941 30.7704 5.47994 30.5033C5.74704 30.1827 5.9073 29.7554 5.96073 29.328H7.45651C7.1894 31.2512 6.17441 32.2127 4.3581 32.2662C3.39653 32.3196 2.43495 31.8922 1.7939 31.1443C1.15285 30.3964 0.832327 29.4883 0.885748 28.4733C0.832327 27.5117 1.15285 26.5501 1.7939 25.7488C2.43495 25.0009 3.39653 24.627 4.3581 24.6804C5.10599 24.6804 5.80046 24.8941 6.38809 25.3215C6.97572 25.8022 7.34967 26.4967 7.40309 27.2446L5.85388 27.298Z" fill="#1D1D1B"/>
<path d="M8.31127 29.4883C8.25785 28.7404 8.52496 28.0459 9.05917 27.5117C9.53995 27.0309 10.2344 26.7638 10.9289 26.7638C11.6234 26.7104 12.3178 26.9775 12.852 27.5117C13.3328 28.0459 13.5999 28.7938 13.5465 29.4883C13.5999 30.2362 13.3328 30.9306 12.852 31.4649C12.3713 31.9991 11.6768 32.2662 10.9289 32.2127C10.2344 32.2662 9.53995 31.9456 9.05917 31.4649C8.52496 30.9306 8.25785 30.2362 8.31127 29.4883ZM9.70022 29.4883C9.70022 29.8622 9.75364 30.2896 9.96732 30.6101C10.1276 30.9841 10.5549 31.1443 10.9289 31.1443C11.3028 31.1977 11.7302 30.9841 11.8905 30.6101C12.0507 30.2362 12.1576 29.8622 12.1576 29.4883C12.1576 29.0609 12.1042 28.687 11.8905 28.313C11.6768 27.9925 11.3028 27.7788 10.9289 27.7788C10.5549 27.7254 10.181 27.9391 9.96732 28.313C9.75364 28.687 9.64679 29.1143 9.70022 29.4883Z" fill="#1D1D1B"/>
<path d="M14.6149 26.8707H15.9504V27.8322C16.0572 27.5117 16.3243 27.1912 16.5914 27.0309C16.8585 26.8707 17.2325 26.7638 17.553 26.7638C17.6599 26.7638 17.7667 26.7638 17.8735 26.8172V28.1528C17.7133 28.0993 17.553 28.0993 17.3928 28.0993C16.9654 28.0459 16.5914 28.2596 16.3243 28.5801C16.1107 28.9541 16.0038 29.328 16.0038 29.7554V32.1059H14.6149V26.8707Z" fill="#1D1D1B"/>
<path d="M19.7434 30.3964C19.7434 30.6635 19.8503 30.9306 20.064 31.0375C20.2777 31.1977 20.5448 31.2512 20.8119 31.2512C21.0255 31.2512 21.2392 31.1978 21.3995 31.0909C21.6132 30.9841 21.72 30.7704 21.72 30.5567C21.72 30.343 21.5598 30.1828 21.2927 30.0759C20.9187 29.9157 20.4913 29.8622 20.1174 29.7554C20.0106 29.702 19.9037 29.702 19.8503 29.6485C19.7434 29.6485 19.6366 29.5951 19.5832 29.5417C19.4229 29.4883 19.2092 29.3814 19.049 29.2746C18.8887 29.1678 18.7819 29.0075 18.675 28.8472C18.5682 28.687 18.5148 28.4733 18.5148 28.313C18.5148 28.0459 18.5682 27.7254 18.7285 27.5117C18.8353 27.298 18.9956 27.1378 19.2092 26.9775C19.4229 26.8707 19.69 26.7638 19.9037 26.7104C20.1708 26.657 20.4379 26.657 20.705 26.657C21.2392 26.657 21.72 26.7638 22.2008 26.9775C22.6282 27.2446 22.9487 27.7788 22.9487 28.313H21.6132C21.6132 28.0993 21.5063 27.8857 21.3461 27.7254C21.1324 27.6186 20.9187 27.5651 20.705 27.6186C20.5448 27.6186 20.3845 27.672 20.2242 27.7254C20.064 27.7788 19.9571 27.9391 19.9571 28.0993C19.9571 28.2062 20.0106 28.313 20.1174 28.4199C20.2242 28.5267 20.3311 28.5801 20.4913 28.6336C20.6516 28.687 20.8119 28.7404 21.0255 28.7404C21.1858 28.7938 21.3995 28.8472 21.6132 28.9007C21.8269 28.9541 22.0405 29.0075 22.2008 29.0609C22.3611 29.1143 22.5748 29.2212 22.735 29.328C22.8953 29.4349 23.0021 29.5951 23.109 29.7554C23.2158 29.9691 23.2158 30.1828 23.2158 30.343C23.2692 30.9306 23.0021 31.4649 22.5213 31.7854C22.0405 32.0525 21.5063 32.2127 20.9187 32.1593C20.3311 32.1593 19.7969 32.0525 19.3161 31.732C18.8353 31.4114 18.5148 30.8772 18.5148 30.2896L19.7434 30.3964Z" fill="#1D1D1B"/>
<path d="M23.9102 29.4883C23.8567 28.7404 24.1238 28.0459 24.658 27.5117C25.1388 27.0309 25.8333 26.7638 26.5278 26.7638C27.2222 26.7104 27.9167 26.9775 28.4509 27.5117C28.9317 28.0459 29.1988 28.7938 29.1454 29.4883C29.1988 30.2362 28.9317 30.9306 28.4509 31.4649C27.9701 31.9991 27.2757 32.2662 26.5278 32.2127C25.8333 32.2662 25.1388 31.9456 24.658 31.4649C24.1773 30.9306 23.9102 30.2362 23.9102 29.4883ZM25.2991 29.4883C25.2991 29.8622 25.3525 30.2896 25.5662 30.6101C25.7265 30.9841 26.1538 31.1443 26.5278 31.1443C26.9017 31.1977 27.3291 30.9841 27.4893 30.6101C27.6496 30.2362 27.7565 29.8622 27.7565 29.4883C27.7565 29.0609 27.703 28.687 27.4893 28.313C27.2757 27.9925 26.9017 27.7788 26.5278 27.7788C26.1538 27.7254 25.7799 27.9391 25.5662 28.313C25.4059 28.687 25.2991 29.1143 25.2991 29.4883Z" fill="#1D1D1B"/>
<path d="M36.9982 31.4114C36.8379 31.6785 36.5708 31.8922 36.3037 32.0525C36.0366 32.1593 35.7161 32.2662 35.3956 32.2662C34.7011 32.3196 34.06 31.9456 33.6327 31.4114C33.2587 30.8238 33.045 30.1827 33.045 29.4883C33.045 28.7938 33.2053 28.1528 33.6327 27.6186C34.06 27.0843 34.7011 26.7638 35.3421 26.8172C35.6627 26.8172 35.9298 26.8707 36.2503 26.9775C36.5174 27.0843 36.7311 27.298 36.8913 27.5651V24.9475H38.3337V32.1593H36.9448L36.9982 31.4114ZM36.9982 29.4883C36.9982 29.1143 36.8913 28.687 36.7311 28.313C36.5174 27.9925 36.1435 27.7788 35.7695 27.8322C35.3956 27.8322 35.0216 27.9925 34.8079 28.313C34.5942 28.687 34.4874 29.0609 34.5408 29.4883C34.5408 29.8622 34.6477 30.2896 34.8614 30.6101C35.075 30.9841 35.3956 31.1977 35.8229 31.1443C36.2503 31.1977 36.6242 30.9841 36.7845 30.6101C36.8913 30.2896 36.9982 29.8622 36.9982 29.4883Z" fill="#1D1D1B"/>
<path d="M41.0048 26.0694H39.6158V24.8941H41.0048V26.0694ZM39.6158 26.8707H41.0048V32.1059H39.6158V26.8707Z" fill="#1D1D1B"/>
<path d="M46.3469 29.702C46.2934 30.0759 46.5071 30.5033 46.8277 30.717C47.1482 30.9306 47.5221 31.0375 47.8961 31.0375C48.0563 31.0375 48.2166 31.0375 48.3234 30.9841C48.4837 30.9841 48.644 30.9306 48.7508 30.8238C48.9111 30.7704 49.0179 30.6635 49.0713 30.5567C49.1782 30.4499 49.2316 30.2896 49.1782 30.1293C49.1782 29.9691 49.1248 29.7554 49.0179 29.6485C48.8576 29.5417 48.6974 29.4349 48.5371 29.3814C48.0563 29.2212 47.5755 29.0609 47.0948 28.9541C46.8277 28.9006 46.614 28.7938 46.3469 28.687C46.1332 28.5801 45.8661 28.4733 45.6524 28.313C45.225 27.9925 44.9579 27.4583 45.0113 26.9241C45.0113 26.283 45.2785 25.642 45.8661 25.268C46.4003 24.8941 46.9879 24.7338 47.629 24.7338C48.3234 24.7338 49.0179 24.8941 49.6055 25.268C50.1932 25.6954 50.5137 26.3365 50.4603 27.0843H48.9645C48.9645 26.7638 48.8042 26.3899 48.5371 26.2296C48.27 26.0693 47.8961 26.0159 47.5755 26.0159C47.3084 26.0159 47.0948 26.0693 46.8811 26.1762C46.6674 26.283 46.5071 26.5501 46.5071 26.8172C46.5071 26.9241 46.5071 27.0309 46.614 27.1378C46.6674 27.2446 46.7742 27.3514 46.9345 27.4049C47.4687 27.6185 48.0563 27.7788 48.644 27.9391C48.8042 27.9925 48.9645 27.9925 49.1782 28.0993C49.4453 28.1528 49.659 28.313 49.8726 28.4199C50.1397 28.5801 50.3 28.7938 50.4603 29.0609C50.6205 29.3814 50.7274 29.702 50.7274 30.0759C50.7274 30.717 50.4603 31.3046 49.9795 31.732C49.3384 32.2127 48.5905 32.4264 47.7892 32.373C47.0413 32.373 46.3469 32.1593 45.7058 31.732C45.1182 31.3046 44.7442 30.5567 44.7977 29.8088L46.3469 29.702Z" fill="#1D1D1B"/>
<path d="M53.5053 26.8707H54.5203V27.8322H53.5053V30.3964C53.5053 30.5567 53.5053 30.717 53.6121 30.8772C53.719 30.9841 53.9326 31.0375 54.0929 30.9841C54.2532 30.9841 54.36 30.9841 54.5203 30.9306V32.0525C54.2532 32.1059 53.9861 32.1059 53.719 32.1059C53.5053 32.1059 53.345 32.1059 53.1313 32.0525C52.9711 32.0525 52.7574 31.9456 52.5971 31.8922C52.4369 31.7854 52.33 31.6785 52.2766 31.5183C52.1698 31.3046 52.1163 31.0909 52.1163 30.8772V27.7788H51.2616V26.8172H52.1163V25.268H53.5053V26.8707Z" fill="#1D1D1B"/>
<path d="M60.1295 32.1059H58.794V31.358H58.7406C58.5803 31.6251 58.3666 31.8388 58.0461 31.9991C57.779 32.1593 57.4585 32.2127 57.1914 32.2127C56.6572 32.2662 56.0695 32.0525 55.6956 31.6251C55.4285 31.1443 55.2682 30.6101 55.3216 30.0759V26.8707H56.7106V29.8088C56.7106 30.6635 56.9777 31.0909 57.6187 31.0909C58.3666 31.0909 58.6871 30.6101 58.6871 29.5951V26.8707H60.0761L60.1295 32.1059Z" fill="#1D1D1B"/>
<path d="M65.151 31.4114C64.9908 31.6785 64.7236 31.8922 64.4565 32.0525C64.1894 32.1593 63.8689 32.2662 63.5484 32.2662C62.8539 32.3196 62.2129 31.9456 61.7855 31.4114C61.4116 30.8238 61.1979 30.1827 61.1979 29.4883C61.1979 28.7938 61.3581 28.1528 61.7855 27.6186C62.2129 27.0843 62.8539 26.7638 63.495 26.8172C63.8155 26.8172 64.0826 26.8707 64.4031 26.9775C64.6702 27.0843 64.8839 27.298 65.0442 27.5651V24.9475H66.4865V32.1593H65.151V31.4114ZM65.0976 29.4883C65.0976 29.1143 64.9908 28.687 64.8305 28.313C64.6168 27.9925 64.2429 27.7788 63.8689 27.8322C63.495 27.8322 63.121 27.9925 62.9073 28.313C62.6937 28.687 62.5868 29.0609 62.6402 29.4883C62.6402 29.8622 62.7471 30.2896 62.9608 30.6101C63.1744 30.9841 63.495 31.1977 63.9223 31.1443C64.3497 31.1977 64.7237 30.9841 64.8839 30.6101C65.0442 30.2896 65.0976 29.8622 65.0976 29.4883Z" fill="#1D1D1B"/>
<path d="M69.1041 26.0694H67.7152V24.8941H69.1041V26.0694ZM67.7152 26.8707H69.1041V32.1059H67.7152V26.8707Z" fill="#1D1D1B"/>
<path d="M0.511841 33.3346V32.8538H70.0123V33.3346H0.511841Z" fill="#1D1D1B"/>
<path d="M2.48843 37.8219H1.09949V36.6467H2.48843V37.8219ZM1.09949 38.6232H2.48843V43.8585H1.09949V38.6232Z" fill="#1D1D1B"/>
<path d="M3.71716 38.6232H5.05268V39.3711H5.1061C5.26637 39.104 5.53347 38.8903 5.80057 38.7301C6.06768 38.6232 6.33478 38.5164 6.65531 38.5164C7.18952 38.463 7.77714 38.6767 8.15109 39.104C8.41819 39.5848 8.52504 40.119 8.52504 40.6532V43.8585H7.13609V40.9203C7.13609 40.0656 6.86899 39.6382 6.22794 39.6382C5.48005 39.6382 5.15952 40.119 5.15952 41.134V43.8585H3.71716V38.6232Z" fill="#1D1D1B"/>
<path d="M12.8519 36.6467H15.8969C16.7516 36.5932 17.553 36.9138 18.194 37.5014C18.8351 38.2493 19.1556 39.2109 19.1022 40.1724C19.1556 41.0806 18.8885 42.0422 18.3009 42.7901C17.7132 43.4845 16.8051 43.9119 15.8969 43.8585H12.8519V36.6467ZM14.4011 42.523H15.7367C15.9503 42.523 16.164 42.4695 16.3777 42.4161C16.5914 42.3627 16.7516 42.2024 16.9119 42.0422C17.0722 41.8285 17.2324 41.6148 17.2859 41.3477C17.3927 41.0272 17.4461 40.7066 17.4461 40.3327C17.4995 39.7451 17.3393 39.104 17.0188 38.6232C16.6448 38.1424 16.0572 37.9288 15.4695 37.9822H14.4011V42.523Z" fill="#1D1D1B"/>
<path d="M21.346 41.6148C21.3994 42.523 21.8268 42.9503 22.5747 42.9503C22.8418 42.9503 23.1089 42.8969 23.3226 42.7367C23.4828 42.6298 23.6431 42.4696 23.6965 42.2559H24.9252C24.6581 43.3243 23.6431 44.0722 22.5747 44.0188C21.8802 44.0722 21.1857 43.7517 20.7049 43.2709C19.7434 42.149 19.7434 40.493 20.7049 39.3177C21.1857 38.7835 21.8802 38.5164 22.5747 38.5164C23.3226 38.463 24.0705 38.8369 24.4978 39.4246C24.6047 39.5848 24.7115 39.6917 24.7649 39.8519C24.8183 40.0122 24.8718 40.1725 24.9252 40.3861C25.032 40.7601 25.032 41.1875 25.032 41.5614L21.346 41.6148ZM23.5897 40.7067C23.5897 40.3861 23.4294 40.119 23.2691 39.9054C23.0555 39.6917 22.7884 39.6383 22.5213 39.6383C22.361 39.6383 22.1473 39.6917 21.987 39.7451C21.8268 39.7985 21.7199 39.9054 21.6131 40.0122C21.4528 40.2259 21.346 40.4396 21.346 40.7067H23.5897Z" fill="#1D1D1B"/>
<path d="M27.062 42.2024C27.062 42.4695 27.1688 42.7366 27.3825 42.8435C27.5962 43.0037 27.8633 43.0572 28.1304 43.0572C28.3441 43.0572 28.5577 43.0038 28.718 42.8969C28.9317 42.7901 29.0385 42.5764 29.0385 42.3627C29.0385 42.149 28.8783 41.9888 28.6112 41.8819C28.2372 41.7217 27.8099 41.6682 27.4359 41.5614C27.3291 41.508 27.2222 41.508 27.1688 41.4545C27.062 41.4545 26.9551 41.4011 26.9017 41.3477C26.7414 41.2943 26.5278 41.1874 26.3675 41.0806C26.2072 40.9738 26.1004 40.8135 25.9935 40.6532C25.8867 40.493 25.8333 40.2793 25.8333 40.119C25.8333 39.8519 25.8867 39.5314 26.047 39.3177C26.1538 39.104 26.3141 38.9438 26.5278 38.7835C26.7414 38.6767 27.0085 38.5698 27.2222 38.5164C27.4893 38.463 27.7564 38.463 28.0235 38.463C28.5577 38.463 29.0385 38.5698 29.5193 38.7835C29.9467 39.0506 30.2672 39.5848 30.2672 40.119H28.9317C28.9317 39.9053 28.8248 39.6917 28.6646 39.5314C28.4509 39.4246 28.2372 39.3711 28.0235 39.4246C27.8633 39.4246 27.703 39.478 27.5427 39.5314C27.3825 39.5848 27.2756 39.7451 27.2756 39.9053C27.2756 40.0122 27.3291 40.119 27.4359 40.2259C27.5427 40.3327 27.6496 40.3861 27.8099 40.4396C27.9701 40.493 28.1304 40.5464 28.3441 40.5464C28.5043 40.5998 28.718 40.6532 28.9317 40.7067C29.1454 40.7601 29.3591 40.8135 29.5193 40.8669C29.6796 40.9203 29.8933 41.0272 30.0535 41.134C30.2138 41.2409 30.3206 41.4011 30.4275 41.5614C30.4275 41.7751 30.4275 41.9888 30.4275 42.2024C30.4809 42.7901 30.2138 43.3243 29.733 43.6448C29.2522 43.9119 28.718 44.0722 28.1304 44.0187C27.5427 44.0187 27.0085 43.9119 26.5278 43.5914C26.047 43.2709 25.7264 42.7366 25.7264 42.149L27.062 42.2024Z" fill="#1D1D1B"/>
<path d="M32.8849 37.8219H31.496V36.6467H32.8849V37.8219ZM31.496 38.6232H32.8849V43.8585H31.496V38.6232Z" fill="#1D1D1B"/>
<path d="M38.9748 43.538C38.9748 43.7516 38.9748 44.0188 38.9213 44.2324C38.8679 44.4995 38.7077 44.7666 38.5474 44.9803C38.3337 45.2474 38.0666 45.4611 37.7461 45.568C37.3187 45.7282 36.8379 45.8351 36.3571 45.8351C35.8229 45.8351 35.3421 45.7282 34.9148 45.4611C34.7011 45.3009 34.5408 45.1406 34.3806 44.9269C34.2203 44.7132 34.1669 44.4461 34.1135 44.179H35.5024C35.5558 44.3927 35.7161 44.6064 35.8763 44.7132C36.09 44.8201 36.3037 44.8735 36.5174 44.8735C36.8379 44.8735 37.1584 44.7666 37.3721 44.4995C37.5324 44.2324 37.6392 43.9119 37.6392 43.5914V42.8969C37.479 43.164 37.2653 43.3777 36.9982 43.4845C36.7311 43.5914 36.4106 43.6982 36.09 43.6982C35.449 43.7517 34.8079 43.4311 34.434 42.9503C34.06 42.4161 33.8998 41.7751 33.8998 41.134C33.8998 40.493 34.06 39.8519 34.4874 39.3177C34.8614 38.8369 35.449 38.5164 36.09 38.5698C36.7311 38.5164 37.3187 38.8369 37.5858 39.3711V38.6767H38.9748V43.538ZM36.464 42.6298C36.8379 42.6298 37.1584 42.4696 37.3721 42.2024C37.5858 41.9353 37.6927 41.5614 37.6927 41.2409C37.6927 40.8669 37.6392 40.4396 37.4256 40.119C37.2119 39.7985 36.8379 39.6382 36.464 39.6382C36.1435 39.6382 35.8229 39.7985 35.6092 40.0656C35.3956 40.3861 35.3421 40.7601 35.3421 41.0806C35.3421 41.4546 35.3956 41.8285 35.6092 42.149C35.7695 42.4696 36.09 42.6832 36.464 42.6298Z" fill="#1D1D1B"/>
<path d="M40.3104 38.6232H41.6459V39.3711C41.8062 39.104 42.0733 38.8903 42.3404 38.7301C42.6075 38.6232 42.8746 38.5164 43.1951 38.5164C43.7294 38.463 44.317 38.6767 44.6909 39.104C44.958 39.5848 45.0649 40.119 45.0649 40.6532V43.8585H43.6759V40.9203C43.6759 40.0656 43.4088 39.6382 42.7678 39.6382C42.0199 39.6382 41.6994 40.119 41.6994 41.134V43.8585H40.3104V38.6232Z" fill="#1D1D1B"/>
<path d="M0.511841 45.1406V44.6598H45.8661V45.1406H0.511841Z" fill="#1D1D1B"/>
<path d="M4.78554 54.97C4.62528 55.2371 4.35817 55.4508 4.09107 55.6111C3.82396 55.7179 3.50344 55.8248 3.18291 55.8248C2.48844 55.8782 1.84739 55.5042 1.42003 54.97C1.04608 54.3824 0.832397 53.7413 0.832397 53.0469C0.832397 52.3524 0.99266 51.7114 1.42003 51.1771C1.84739 50.6429 2.48844 50.3224 3.12949 50.3758C3.45002 50.3758 3.71712 50.4293 4.03765 50.5361C4.30475 50.6429 4.51843 50.8566 4.6787 51.1237V48.5061H6.12106V55.7179H4.78554V54.97ZM4.73212 52.9934C4.73212 52.6195 4.62528 52.1921 4.46501 51.8182C4.25133 51.4977 3.87738 51.284 3.50344 51.3374C3.12949 51.3374 2.75555 51.4977 2.54186 51.8182C2.32818 52.1921 2.22134 52.5661 2.27476 52.9934C2.27476 53.3674 2.3816 53.7948 2.59528 54.1153C2.80897 54.4892 3.12949 54.7029 3.55686 54.6495C3.98423 54.7029 4.35817 54.4892 4.51843 54.1153C4.6787 53.7948 4.78554 53.4208 4.73212 52.9934Z" fill="#1D1D1B"/>
<path d="M8.47148 53.3674C8.5249 54.2755 8.95227 54.7029 9.70016 54.7029C9.96727 54.7029 10.2344 54.6495 10.4481 54.4892C10.6083 54.3824 10.7686 54.2221 10.822 54.0084H12.0507C11.7836 55.0769 10.7686 55.8247 9.70016 55.7713C9.00569 55.8247 8.31122 55.5042 7.83043 55.0234C6.86886 53.9016 6.86886 52.2455 7.83043 51.0703C8.31122 50.5361 9.00569 50.269 9.70016 50.269C10.4481 50.2156 11.1959 50.5895 11.6233 51.1771C11.7302 51.3374 11.837 51.4442 11.8904 51.6045C11.9438 51.7648 11.9973 51.925 12.0507 52.1387C12.1575 52.5127 12.1575 52.94 12.1575 53.314L8.47148 53.3674ZM10.7686 52.4592C10.7686 52.1387 10.6083 51.8716 10.4481 51.6579C10.2344 51.4442 9.96727 51.3908 9.70016 51.3908C9.5399 51.3908 9.32622 51.4442 9.16595 51.4977C9.00569 51.5511 8.89885 51.6579 8.79201 51.7648C8.63175 51.9784 8.5249 52.1921 8.5249 52.4592H10.7686Z" fill="#1D1D1B"/>
<path d="M13.1725 48.4526H14.5614V55.6644H13.1725V48.4526Z" fill="#1D1D1B"/>
<path d="M15.8436 48.4526H17.2326V55.6644H15.8436V48.4526Z" fill="#1D1D1B"/>
<path d="M18.4612 52.0319C18.4612 51.4442 18.7817 50.9635 19.2625 50.6429C19.7433 50.3758 20.2775 50.269 20.8117 50.269C21.0788 50.269 21.3459 50.269 21.613 50.3224C21.8801 50.3758 22.0938 50.4292 22.3075 50.5361C22.5212 50.6429 22.6814 50.8032 22.8417 50.9635C23.0019 51.1771 23.0554 51.4442 23.0554 51.7113V54.4358C23.0554 54.6495 23.0554 54.8632 23.1088 55.0769C23.1088 55.2371 23.1622 55.3974 23.2156 55.5576H21.8267C21.7733 55.3974 21.7198 55.2371 21.7198 55.0769C21.5062 55.2905 21.2391 55.4508 20.9185 55.5576C20.598 55.6645 20.3309 55.7179 20.0104 55.7179C19.583 55.7179 19.1556 55.6111 18.7817 55.344C18.4078 55.0769 18.2475 54.5961 18.3009 54.1687C18.3009 53.9016 18.3543 53.6879 18.4612 53.4208C18.568 53.2605 18.6749 53.1003 18.8351 52.9934C18.9954 52.8866 19.2091 52.7798 19.3693 52.7263C19.583 52.6729 19.7967 52.6195 20.0104 52.6195C20.2241 52.5661 20.4377 52.5661 20.6514 52.5127C20.8117 52.5127 21.0254 52.4592 21.1856 52.4592C21.5062 52.4058 21.6664 52.2456 21.6664 51.9785C21.7198 51.7648 21.613 51.5511 21.3993 51.3908C21.1856 51.284 20.972 51.284 20.7583 51.284C20.3309 51.2306 19.9035 51.5511 19.8501 51.9785C19.8501 52.0319 19.8501 52.0319 19.8501 52.0853L18.4612 52.0319ZM21.6664 53.1003C21.5062 53.2071 21.3459 53.2605 21.1856 53.314C20.972 53.3674 20.7583 53.3674 20.5446 53.4208C20.3309 53.4742 20.1706 53.5277 19.957 53.6345C19.7967 53.7413 19.6899 53.955 19.6899 54.1687C19.6899 54.3824 19.7967 54.5961 19.957 54.7029C20.1172 54.8098 20.3309 54.8632 20.5446 54.8632C20.7583 54.8632 20.972 54.8098 21.1856 54.7029C21.3459 54.6495 21.4527 54.4892 21.5062 54.3824C21.5596 54.2755 21.613 54.1153 21.613 53.955C21.613 53.7948 21.613 53.6879 21.613 53.6345L21.6664 53.1003Z" fill="#1D1D1B"/>
<path d="M32.1368 50.8566C32.0834 50.4826 31.9232 50.1621 31.6561 49.9484C31.3889 49.7348 31.015 49.5745 30.6411 49.5745C30.0534 49.5211 29.4658 49.8416 29.1987 50.3224C28.8782 50.8566 28.7179 51.4442 28.7713 52.0319C28.7713 52.6195 28.9316 53.2071 29.1987 53.6879C29.5192 54.1687 30.0534 54.4892 30.6411 54.4358C31.0684 54.4358 31.4424 54.2755 31.7629 54.0084C32.03 53.6879 32.1903 53.2605 32.2437 52.8332H33.7395C33.4724 54.7563 32.4574 55.7179 30.6411 55.7713C29.6795 55.8247 28.7179 55.3974 28.0769 54.6495C27.4358 53.9016 27.1153 52.9934 27.1687 51.9784C27.1153 51.0169 27.4358 50.0553 28.0769 49.254C29.2521 47.9719 31.2287 47.8116 32.6711 48.8266C33.2587 49.3074 33.6326 50.0019 33.686 50.7498L32.1368 50.8566Z" fill="#1D1D1B"/>
<path d="M34.541 53.0468C34.4876 52.299 34.7547 51.6045 35.2889 51.0703C35.7697 50.5895 36.4642 50.3224 37.1586 50.3224C37.8531 50.269 38.5476 50.5361 39.0818 51.0703C39.5626 51.6045 39.8297 52.3524 39.7762 53.0468C39.8297 53.7947 39.5626 54.4892 39.0818 55.0234C38.601 55.5576 37.9065 55.8247 37.1586 55.7713C36.4642 55.8247 35.7697 55.5042 35.2889 55.0234C34.8081 54.4892 34.541 53.7947 34.541 53.0468ZM35.93 53.0468C35.93 53.4208 35.9834 53.8482 36.1971 54.1687C36.3573 54.5426 36.7847 54.7029 37.1586 54.7029C37.5326 54.7563 37.9599 54.5426 38.1202 54.1687C38.2805 53.7947 38.3873 53.4208 38.3873 53.0468C38.3873 52.6195 38.3339 52.2455 38.1202 51.8716C37.9065 51.5511 37.5326 51.3374 37.1586 51.3374C36.7847 51.284 36.4107 51.4976 36.1971 51.8716C36.0368 52.2455 35.93 52.6195 35.93 53.0468Z" fill="#1D1D1B"/>
<path d="M40.8446 50.4292H42.1801V51.1237C42.5541 50.5895 43.1417 50.269 43.7827 50.3224C44.1033 50.3224 44.4238 50.3758 44.6909 50.4827C44.958 50.6429 45.1717 50.8566 45.2785 51.1771C45.4388 50.91 45.6525 50.6963 45.9196 50.5361C46.1867 50.3758 46.5072 50.269 46.8812 50.269C47.3619 50.269 47.8427 50.3758 48.2701 50.6964C48.644 51.0703 48.8577 51.6045 48.8043 52.1387V55.6111H47.4154V52.6729C47.4154 52.5127 47.4154 52.3524 47.4154 52.1921C47.4154 52.0319 47.3619 51.925 47.3085 51.7648C47.2551 51.6579 47.1483 51.5511 47.0414 51.4977C46.8812 51.4442 46.7209 51.3908 46.5606 51.3908C46.4004 51.3908 46.2401 51.4442 46.0798 51.4977C45.973 51.5511 45.8662 51.6579 45.7593 51.8182C45.7059 51.925 45.6525 52.0853 45.5991 52.2456C45.5456 52.4058 45.5456 52.5661 45.5456 52.7263V55.6111H44.1567V52.2456C44.1567 52.0853 44.1033 51.9784 44.0499 51.8182C43.9964 51.7113 43.8896 51.6045 43.7827 51.4977C43.6225 51.3908 43.4088 51.3908 43.2485 51.3908C43.1417 51.3908 43.0883 51.3908 42.9814 51.4442C42.8746 51.4977 42.7678 51.5511 42.6609 51.6045C42.5541 51.7113 42.4472 51.8182 42.3938 51.9785C42.287 52.1921 42.287 52.4058 42.287 52.6195V55.6111H40.898L40.8446 50.4292Z" fill="#1D1D1B"/>
<path d="M54.7875 55.6645H53.4519V54.9166H53.3985C53.2383 55.1837 53.0246 55.3974 52.7041 55.5577C52.437 55.7179 52.1164 55.7713 51.8493 55.7713C51.3151 55.8248 50.7275 55.6111 50.3535 55.1837C50.0864 54.7029 49.9262 54.1687 49.9796 53.6345V50.4293H51.3685V53.3674C51.3685 54.2221 51.6356 54.6495 52.2767 54.6495C53.0246 54.6495 53.3451 54.1687 53.3451 53.1537V50.4293H54.734L54.7875 55.6645Z" fill="#1D1D1B"/>
<path d="M56.0695 50.4292H57.405V51.1771H57.4584C57.6187 50.91 57.8858 50.6963 58.1529 50.5361C58.42 50.4292 58.6871 50.3224 59.0076 50.3224C59.5418 50.269 60.1294 50.4827 60.5034 50.91C60.7705 51.3908 60.8773 51.925 60.8773 52.4592V55.6645H59.4884V52.7263C59.4884 51.8716 59.2213 51.4442 58.5802 51.4442C57.8323 51.4442 57.5118 51.925 57.5118 52.94V55.6645H56.0695V50.4292Z" fill="#1D1D1B"/>
<path d="M63.5485 49.6279H62.1595V48.4526H63.5485V49.6279ZM62.1595 50.4292H63.5485V55.6644H62.1595V50.4292Z" fill="#1D1D1B"/>
<path d="M68.196 52.2456C68.1425 51.7114 67.7152 51.3374 67.181 51.3374C66.807 51.3374 66.4331 51.5511 66.2728 51.8716C66.1126 52.2456 66.0057 52.6195 66.0057 52.9935C66.0057 53.3674 66.1126 53.7413 66.2728 54.0619C66.3797 54.2221 66.4865 54.329 66.6468 54.4358C66.807 54.5427 66.9673 54.5961 67.181 54.5961C67.7686 54.5961 68.2494 54.1687 68.3028 53.5811V53.5277H69.6383C69.4246 54.9166 68.5699 55.6645 67.181 55.6645C66.4865 55.7179 65.792 55.3974 65.3647 54.9166C64.8839 54.3824 64.6168 53.6879 64.6702 52.9935C64.6168 52.2456 64.8839 51.5511 65.3647 50.9635C65.8455 50.4293 66.5399 50.1087 67.2878 50.1622C67.8754 50.1622 68.4097 50.3224 68.8904 50.6429C69.3712 51.0169 69.6383 51.5511 69.6383 52.1387L68.196 52.2456Z" fill="#1D1D1B"/>
<path d="M70.4932 52.0319C70.4932 51.4442 70.8137 50.9635 71.2945 50.6429C71.7753 50.3758 72.3095 50.269 72.8437 50.269C73.1108 50.269 73.3779 50.269 73.645 50.3224C73.9121 50.3758 74.1258 50.4292 74.3395 50.5361C74.5531 50.6429 74.7134 50.8032 74.8737 50.9635C75.0339 51.1771 75.0873 51.4442 75.0873 51.7113V54.4358C75.0873 54.6495 75.0873 54.8632 75.1408 55.0769C75.1408 55.2371 75.1942 55.3974 75.2476 55.5576H73.8587C73.8052 55.3974 73.7518 55.2371 73.7518 55.0769C73.5381 55.2905 73.271 55.4508 72.9505 55.5576C72.63 55.6645 72.3629 55.7179 72.0424 55.7179C71.615 55.7179 71.1876 55.6111 70.8137 55.344C70.4397 55.0769 70.2795 54.5961 70.3329 54.1687C70.3329 53.9016 70.3863 53.6879 70.4932 53.4208C70.6 53.2605 70.7068 53.1003 70.8671 52.9934C71.0274 52.8866 71.241 52.7798 71.4013 52.7263C71.615 52.6729 71.8287 52.6195 72.0424 52.6195C72.256 52.5661 72.4697 52.5661 72.6834 52.5127C72.8437 52.5127 73.0574 52.4592 73.2176 52.4592C73.5381 52.4058 73.6984 52.2456 73.6984 51.9785C73.7518 51.7648 73.645 51.5511 73.4313 51.3908C73.2176 51.284 73.0039 51.284 72.7903 51.284C72.3629 51.2306 71.9355 51.5511 71.8821 51.9785C71.8821 52.0319 71.8821 52.0319 71.8821 52.0853L70.4932 52.0319ZM73.6984 53.1003C73.5381 53.2071 73.3779 53.2605 73.2176 53.314C73.0039 53.3674 72.7902 53.3674 72.5766 53.4208C72.3629 53.4742 72.2026 53.5277 71.9889 53.6345C71.8287 53.7413 71.7218 53.955 71.7218 54.1687C71.7218 54.3824 71.8287 54.5961 71.9889 54.7029C72.1492 54.8098 72.3629 54.8632 72.5766 54.8632C72.7902 54.8632 73.0039 54.8098 73.2176 54.7029C73.3779 54.6495 73.4847 54.4892 73.5381 54.3824C73.5916 54.2755 73.645 54.1153 73.645 53.955C73.645 53.7948 73.645 53.6879 73.645 53.6345L73.6984 53.1003Z" fill="#1D1D1B"/>
<path d="M76.1024 54.5427L78.72 51.4977H76.2626V50.4293H80.5363V51.4977L77.8118 54.5427H80.6966V55.6111H76.049L76.1024 54.5427Z" fill="#1D1D1B"/>
<path d="M83.047 49.6279H81.6581V48.4526H83.047V49.6279ZM81.6581 50.4292H83.047V55.6644H81.6581V50.4292Z" fill="#1D1D1B"/>
<path d="M84.1155 53.0468C84.0621 52.299 84.3292 51.6045 84.8634 51.0703C85.3441 50.5895 86.0386 50.3224 86.7331 50.3224C87.4276 50.269 88.122 50.5361 88.6562 51.0703C89.137 51.6045 89.4041 52.3524 89.3507 53.0468C89.4041 53.7947 89.137 54.4892 88.6562 55.0234C88.1755 55.5576 87.481 55.8247 86.7331 55.7713C86.0386 55.8247 85.3441 55.5042 84.8634 55.0234C84.3826 54.4892 84.1155 53.7947 84.1155 53.0468ZM85.5044 53.0468C85.5044 53.4208 85.5578 53.8482 85.7715 54.1687C85.9318 54.5426 86.3591 54.7029 86.7331 54.7029C87.107 54.7563 87.5344 54.5426 87.6947 54.1687C87.8549 53.7947 87.9618 53.4208 87.9618 53.0468C87.9618 52.6195 87.9083 52.2455 87.6947 51.8716C87.481 51.5511 87.107 51.3374 86.7331 51.3374C86.3591 51.284 85.9852 51.4976 85.7715 51.8716C85.6113 52.2455 85.5044 52.6195 85.5044 53.0468Z" fill="#1D1D1B"/>
<path d="M90.4725 50.4292H91.8081V51.1771H91.8615C92.0217 50.91 92.2888 50.6963 92.556 50.5361C92.8231 50.4292 93.0902 50.3224 93.4107 50.3224C93.9449 50.269 94.5325 50.4827 94.9065 50.91C95.1736 51.3908 95.2804 51.925 95.2804 52.4592V55.6645H93.8915V52.7263C93.8915 51.8716 93.6244 51.4442 92.9833 51.4442C92.2354 51.4442 91.9149 51.925 91.9149 52.94V55.6645H90.526L90.4725 50.4292Z" fill="#1D1D1B"/>
<path d="M97.6309 53.3674C97.6843 54.2755 98.1117 54.7029 98.8596 54.7029C99.1267 54.7029 99.3938 54.6495 99.6075 54.4892C99.7677 54.3824 99.928 54.2221 99.9814 54.0084H101.21C100.943 55.0769 99.928 55.8247 98.8596 55.7713C98.1651 55.8247 97.4706 55.5042 96.9899 55.0234C96.0283 53.9016 96.0283 52.2455 96.9899 51.0703C97.4706 50.5361 98.1651 50.269 98.8596 50.269C99.6075 50.2156 100.355 50.5895 100.783 51.1771C100.89 51.3374 100.996 51.4442 101.05 51.6045C101.103 51.7648 101.157 51.925 101.21 52.1387C101.317 52.5127 101.317 52.94 101.317 53.314L97.6309 53.3674ZM99.8746 52.4592C99.8746 52.1387 99.7143 51.8716 99.554 51.6579C99.3404 51.4442 99.0733 51.3908 98.8062 51.3908C98.6459 51.3908 98.4322 51.4442 98.272 51.4977C98.1117 51.5511 98.0049 51.6579 97.898 51.7648C97.7377 51.9784 97.6309 52.1921 97.6309 52.4592H99.8746Z" fill="#1D1D1B"/>
<path d="M0.511841 56.8931V56.4124H101.851V56.8931H0.511841Z" fill="#1D1D1B"/>
</svg>
