<?xml version="1.0" encoding="UTF-8"?><svg id="Layer_1" xmlns="http://www.w3.org/2000/svg" xmlns:xlink="http://www.w3.org/1999/xlink" viewBox="0 0 100 100"><defs><style>.cls-1{clip-path:url(#clippath);}.cls-2{fill:none;}.cls-2,.dot{stroke-width:0px;}.dot{fill:#00aeef;}</style><clipPath id="clippath"><rect class="cls-2" width="100" height="100"/></clipPath></defs><g class="cls-1"><circle class="dot" cx="98.93" cy=".06" r=".88"/><circle class="dot" cx="86.97" cy=".15" r=".88"/><circle class="dot" cx="90.57" cy="1.32" r=".88"/><circle class="dot" cx="94.16" cy="2.49" r=".88"/><circle class="dot" cx="97.76" cy="3.66" r=".88"/><circle class="dot" cx="75.02" cy=".24" r=".88"/><circle class="dot" cx="78.61" cy="1.41" r=".88"/><circle class="dot" cx="82.21" cy="2.58" r=".88"/><circle class="dot" cx="85.8" cy="3.75" r=".88"/><circle class="dot" cx="89.4" cy="4.92" r=".88"/><circle class="dot" cx="92.99" cy="6.08" r=".88"/><circle class="dot" cx="96.59" cy="7.25" r=".88"/><circle class="dot" cx="100.18" cy="8.42" r=".88"/><circle class="dot" cx="59.47" cy="-.83" r=".88"/><circle class="dot" cx="63.07" cy=".34" r=".88"/><circle class="dot" cx="66.66" cy="1.5" r=".88"/><circle class="dot" cx="70.26" cy="2.67" r=".88"/><circle class="dot" cx="73.85" cy="3.84" r=".88"/><circle class="dot" cx="77.45" cy="5.01" r=".88"/><circle class="dot" cx="81.04" cy="6.18" r=".88"/><circle class="dot" cx="84.64" cy="7.34" r=".88"/><circle class="dot" cx="88.23" cy="8.51" r=".88"/><circle class="dot" cx="91.83" cy="9.68" r=".88"/><circle class="dot" cx="95.42" cy="10.85" r=".88"/><circle class="dot" cx="99.02" cy="12.02" r=".88"/><circle class="dot" cx="47.52" cy="-.74" r=".88"/><circle class="dot" cx="51.11" cy=".43" r=".88"/><circle class="dot" cx="54.71" cy="1.59" r=".88"/><circle class="dot" cx="58.3" cy="2.76" r=".88"/><circle class="dot" cx="61.9" cy="3.93" r=".88"/><circle class="dot" cx="65.49" cy="5.1" r=".88"/><circle class="dot" cx="69.09" cy="6.27" r=".88"/><circle class="dot" cx="72.68" cy="7.43" r=".88"/><circle class="dot" cx="76.28" cy="8.6" r=".88"/><circle class="dot" cx="79.87" cy="9.77" r=".88"/><circle class="dot" cx="83.47" cy="10.94" r=".88"/><circle class="dot" cx="87.06" cy="12.11" r=".88"/><circle class="dot" cx="90.66" cy="13.27" r=".88"/><circle class="dot" cx="94.25" cy="14.44" r=".88"/><circle class="dot" cx="97.85" cy="15.61" r=".88"/><circle class="dot" cx="35.57" cy="-.65" r=".88"/><circle class="dot" cx="39.16" cy=".52" r=".88"/><circle class="dot" cx="42.76" cy="1.68" r=".88"/><circle class="dot" cx="46.35" cy="2.85" r=".88"/><circle class="dot" cx="49.95" cy="4.02" r=".88"/><circle class="dot" cx="53.54" cy="5.19" r=".88"/><circle class="dot" cx="57.14" cy="6.36" r=".88"/><circle class="dot" cx="60.73" cy="7.53" r=".88"/><circle class="dot" cx="64.33" cy="8.69" r=".88"/><circle class="dot" cx="67.92" cy="9.86" r=".88"/><circle class="dot" cx="71.52" cy="11.03" r=".88"/><circle class="dot" cx="75.11" cy="12.2" r=".88"/><circle class="dot" cx="78.71" cy="13.37" r=".88"/><circle class="dot" cx="82.3" cy="14.53" r=".88"/><circle class="dot" cx="85.9" cy="15.7" r=".88"/><circle class="dot" cx="89.49" cy="16.87" r=".88"/><circle class="dot" cx="93.09" cy="18.04" r=".88"/><circle class="dot" cx="96.68" cy="19.21" r=".88"/><circle class="dot" cx="100.28" cy="20.37" r=".88"/><circle class="dot" cx="23.61" cy="-.56" r=".88"/><circle class="dot" cx="27.21" cy=".61" r=".88"/><circle class="dot" cx="30.8" cy="1.78" r=".88"/><circle class="dot" cx="34.4" cy="2.94" r=".88"/><circle class="dot" cx="37.99" cy="4.11" r=".88"/><circle class="dot" cx="41.59" cy="5.28" r=".88"/><circle class="dot" cx="45.18" cy="6.45" r=".88"/><circle class="dot" cx="48.78" cy="7.62" r=".88"/><circle class="dot" cx="52.37" cy="8.78" r=".88"/><circle class="dot" cx="55.97" cy="9.95" r=".88"/><circle class="dot" cx="59.56" cy="11.12" r=".88"/><circle class="dot" cx="63.16" cy="12.29" r=".88"/><circle class="dot" cx="66.75" cy="13.46" r=".88"/><circle class="dot" cx="70.35" cy="14.62" r=".88"/><circle class="dot" cx="73.94" cy="15.79" r=".88"/><circle class="dot" cx="77.54" cy="16.96" r=".88"/><circle class="dot" cx="81.13" cy="18.13" r=".88"/><circle class="dot" cx="84.73" cy="19.3" r=".88"/><circle class="dot" cx="88.32" cy="20.46" r=".88"/><circle class="dot" cx="91.92" cy="21.63" r=".88"/><circle class="dot" cx="95.51" cy="22.8" r=".88"/><circle class="dot" cx="99.11" cy="23.97" r=".88"/><circle class="dot" cx="11.66" cy="-.47" r=".88"/><circle class="dot" cx="15.25" cy=".7" r=".88"/><circle class="dot" cx="18.85" cy="1.87" r=".88"/><circle class="dot" cx="22.44" cy="3.03" r=".88"/><circle class="dot" cx="26.04" cy="4.2" r=".88"/><circle class="dot" cx="29.63" cy="5.37" r=".88"/><circle class="dot" cx="33.23" cy="6.54" r=".88"/><circle class="dot" cx="36.82" cy="7.71" r=".88"/><circle class="dot" cx="40.42" cy="8.87" r=".88"/><circle class="dot" cx="44.01" cy="10.04" r=".88"/><circle class="dot" cx="47.61" cy="11.21" r=".88"/><circle class="dot" cx="51.2" cy="12.38" r=".88"/><circle class="dot" cx="54.8" cy="13.55" r=".88"/><circle class="dot" cx="58.39" cy="14.72" r=".88"/><circle class="dot" cx="61.99" cy="15.88" r=".88"/><circle class="dot" cx="65.58" cy="17.05" r=".88"/><circle class="dot" cx="69.18" cy="18.22" r=".88"/><circle class="dot" cx="72.77" cy="19.39" r=".88"/><circle class="dot" cx="76.37" cy="20.56" r=".88"/><circle class="dot" cx="79.96" cy="21.72" r=".88"/><circle class="dot" cx="83.56" cy="22.89" r=".88"/><circle class="dot" cx="87.15" cy="24.06" r=".88"/><circle class="dot" cx="90.75" cy="25.23" r=".88"/><circle class="dot" cx="94.34" cy="26.4" r=".88"/><circle class="dot" cx="97.94" cy="27.56" r=".88"/><circle class="dot" cx="3.3" cy=".79" r=".88"/><circle class="dot" cx="6.9" cy="1.96" r=".88"/><circle class="dot" cx="10.49" cy="3.13" r=".88"/><circle class="dot" cx="14.09" cy="4.29" r=".88"/><circle class="dot" cx="17.68" cy="5.46" r=".88"/><circle class="dot" cx="21.28" cy="6.63" r=".88"/><circle class="dot" cx="24.87" cy="7.8" r=".88"/><circle class="dot" cx="28.47" cy="8.97" r=".88"/><circle class="dot" cx="32.06" cy="10.13" r=".88"/><circle class="dot" cx="35.66" cy="11.3" r=".88"/><circle class="dot" cx="39.25" cy="12.47" r=".88"/><circle class="dot" cx="42.85" cy="13.64" r=".88"/><circle class="dot" cx="46.44" cy="14.81" r=".88"/><circle class="dot" cx="50.04" cy="15.97" r=".88"/><circle class="dot" cx="53.63" cy="17.14" r=".88"/><circle class="dot" cx="57.23" cy="18.31" r=".88"/><circle class="dot" cx="60.82" cy="19.48" r=".88"/><circle class="dot" cx="64.42" cy="20.65" r=".88"/><circle class="dot" cx="68.01" cy="21.81" r=".88"/><circle class="dot" cx="71.61" cy="22.98" r=".88"/><circle class="dot" cx="75.2" cy="24.15" r=".88"/><circle class="dot" cx="78.8" cy="25.32" r=".88"/><circle class="dot" cx="82.39" cy="26.49" r=".88"/><circle class="dot" cx="85.99" cy="27.65" r=".88"/><circle class="dot" cx="89.58" cy="28.82" r=".88"/><circle class="dot" cx="93.18" cy="29.99" r=".88"/><circle class="dot" cx="96.77" cy="31.16" r=".88"/><circle class="dot" cx="100.37" cy="32.33" r=".88"/><circle class="dot" cx="2.13" cy="4.38" r=".88"/><circle class="dot" cx="5.73" cy="5.55" r=".88"/><circle class="dot" cx="9.32" cy="6.72" r=".88"/><circle class="dot" cx="12.92" cy="7.89" r=".88"/><circle class="dot" cx="16.51" cy="9.06" r=".88"/><circle class="dot" cx="20.11" cy="10.22" r=".88"/><circle class="dot" cx="23.7" cy="11.39" r=".88"/><circle class="dot" cx="27.3" cy="12.56" r=".88"/><circle class="dot" cx="30.89" cy="13.73" r=".88"/><circle class="dot" cx="34.49" cy="14.9" r=".88"/><circle class="dot" cx="38.08" cy="16.06" r=".88"/><circle class="dot" cx="41.68" cy="17.23" r=".88"/><circle class="dot" cx="45.27" cy="18.4" r=".88"/><circle class="dot" cx="48.87" cy="19.57" r=".88"/><circle class="dot" cx="52.46" cy="20.74" r=".88"/><circle class="dot" cx="56.06" cy="21.91" r=".88"/><circle class="dot" cx="59.65" cy="23.07" r=".88"/><circle class="dot" cx="63.25" cy="24.24" r=".88"/><circle class="dot" cx="66.84" cy="25.41" r=".88"/><circle class="dot" cx="70.44" cy="26.58" r=".88"/><circle class="dot" cx="74.03" cy="27.75" r=".88"/><circle class="dot" cx="77.63" cy="28.91" r=".88"/><circle class="dot" cx="81.22" cy="30.08" r=".88"/><circle class="dot" cx="84.82" cy="31.25" r=".88"/><circle class="dot" cx="88.41" cy="32.42" r=".88"/><circle class="dot" cx="92.01" cy="33.59" r=".88"/><circle class="dot" cx="95.6" cy="34.75" r=".88"/><circle class="dot" cx="99.2" cy="35.92" r=".88"/><circle class="dot" cx=".97" cy="7.98" r=".88"/><circle class="dot" cx="4.56" cy="9.15" r=".88"/><circle class="dot" cx="8.16" cy="10.32" r=".88"/><circle class="dot" cx="11.75" cy="11.48" r=".88"/><circle class="dot" cx="15.35" cy="12.65" r=".88"/><circle class="dot" cx="18.94" cy="13.82" r=".88"/><circle class="dot" cx="22.53" cy="14.99" r=".88"/><circle class="dot" cx="26.13" cy="16.16" r=".88"/><circle class="dot" cx="29.72" cy="17.32" r=".88"/><circle class="dot" cx="33.32" cy="18.49" r=".88"/><circle class="dot" cx="36.91" cy="19.66" r=".88"/><circle class="dot" cx="40.51" cy="20.83" r=".88"/><circle class="dot" cx="44.1" cy="22" r=".88"/><circle class="dot" cx="47.7" cy="23.16" r=".88"/><circle class="dot" cx="51.29" cy="24.33" r=".88"/><circle class="dot" cx="54.89" cy="25.5" r=".88"/><circle class="dot" cx="58.48" cy="26.67" r=".88"/><circle class="dot" cx="62.08" cy="27.84" r=".88"/><circle class="dot" cx="65.67" cy="29" r=".88"/><circle class="dot" cx="69.27" cy="30.17" r=".88"/><circle class="dot" cx="72.86" cy="31.34" r=".88"/><circle class="dot" cx="76.46" cy="32.51" r=".88"/><circle class="dot" cx="80.05" cy="33.68" r=".88"/><circle class="dot" cx="83.65" cy="34.84" r=".88"/><circle class="dot" cx="87.24" cy="36.01" r=".88"/><circle class="dot" cx="90.84" cy="37.18" r=".88"/><circle class="dot" cx="94.43" cy="38.35" r=".88"/><circle class="dot" cx="98.03" cy="39.52" r=".88"/><circle class="dot" cx="-.2" cy="11.57" r=".88"/><circle class="dot" cx="3.39" cy="12.74" r=".88"/><circle class="dot" cx="6.99" cy="13.91" r=".88"/><circle class="dot" cx="10.58" cy="15.08" r=".88"/><circle class="dot" cx="14.18" cy="16.25" r=".88"/><circle class="dot" cx="17.77" cy="17.41" r=".88"/><circle class="dot" cx="21.37" cy="18.58" r=".88"/><circle class="dot" cx="24.96" cy="19.75" r=".88"/><circle class="dot" cx="28.56" cy="20.92" r=".88"/><circle class="dot" cx="32.15" cy="22.09" r=".88"/><circle class="dot" cx="35.75" cy="23.25" r=".88"/><circle class="dot" cx="39.34" cy="24.42" r=".88"/><circle class="dot" cx="42.94" cy="25.59" r=".88"/><circle class="dot" cx="46.53" cy="26.76" r=".88"/><circle class="dot" cx="50.13" cy="27.93" r=".88"/><circle class="dot" cx="53.72" cy="29.1" r=".88"/><circle class="dot" cx="57.32" cy="30.26" r=".88"/><circle class="dot" cx="60.91" cy="31.43" r=".88"/><circle class="dot" cx="64.51" cy="32.6" r=".88"/><circle class="dot" cx="68.1" cy="33.77" r=".88"/><circle class="dot" cx="71.7" cy="34.94" r=".88"/><circle class="dot" cx="75.29" cy="36.1" r=".88"/><circle class="dot" cx="78.89" cy="37.27" r=".88"/><circle class="dot" cx="82.48" cy="38.44" r=".88"/><circle class="dot" cx="86.08" cy="39.61" r=".88"/><circle class="dot" cx="89.67" cy="40.78" r=".88"/><circle class="dot" cx="93.27" cy="41.94" r=".88"/><circle class="dot" cx="96.86" cy="43.11" r=".88"/><circle class="dot" cx="100.46" cy="44.28" r=".88"/><circle class="dot" cx="2.22" cy="16.34" r=".88"/><circle class="dot" cx="5.82" cy="17.51" r=".88"/><circle class="dot" cx="9.41" cy="18.67" r=".88"/><circle class="dot" cx="13.01" cy="19.84" r=".88"/><circle class="dot" cx="16.6" cy="21.01" r=".88"/><circle class="dot" cx="20.2" cy="22.18" r=".88"/><circle class="dot" cx="23.79" cy="23.35" r=".88"/><circle class="dot" cx="27.39" cy="24.51" r=".88"/><circle class="dot" cx="30.98" cy="25.68" r=".88"/><circle class="dot" cx="34.58" cy="26.85" r=".88"/><circle class="dot" cx="38.17" cy="28.02" r=".88"/><circle class="dot" cx="41.77" cy="29.19" r=".88"/><circle class="dot" cx="45.36" cy="30.35" r=".88"/><circle class="dot" cx="48.96" cy="31.52" r=".88"/><circle class="dot" cx="52.55" cy="32.69" r=".88"/><circle class="dot" cx="56.15" cy="33.86" r=".88"/><circle class="dot" cx="59.74" cy="35.03" r=".88"/><circle class="dot" cx="63.34" cy="36.19" r=".88"/><circle class="dot" cx="66.93" cy="37.36" r=".88"/><circle class="dot" cx="70.53" cy="38.53" r=".88"/><circle class="dot" cx="74.12" cy="39.7" r=".88"/><circle class="dot" cx="77.72" cy="40.87" r=".88"/><circle class="dot" cx="81.31" cy="42.03" r=".88"/><circle class="dot" cx="84.91" cy="43.2" r=".88"/><circle class="dot" cx="88.5" cy="44.37" r=".88"/><circle class="dot" cx="92.1" cy="45.54" r=".88"/><circle class="dot" cx="95.69" cy="46.71" r=".88"/><circle class="dot" cx="99.29" cy="47.88" r=".88"/><circle class="dot" cx="1.06" cy="19.93" r=".88"/><circle class="dot" cx="4.65" cy="21.1" r=".88"/><circle class="dot" cx="8.25" cy="22.27" r=".88"/><circle class="dot" cx="11.84" cy="23.44" r=".88"/><circle class="dot" cx="15.44" cy="24.6" r=".88"/><circle class="dot" cx="19.03" cy="25.77" r=".88"/><circle class="dot" cx="22.63" cy="26.94" r=".88"/><circle class="dot" cx="26.22" cy="28.11" r=".88"/><circle class="dot" cx="29.82" cy="29.28" r=".88"/><circle class="dot" cx="33.41" cy="30.44" r=".88"/><circle class="dot" cx="37.01" cy="31.61" r=".88"/><circle class="dot" cx="40.6" cy="32.78" r=".88"/><circle class="dot" cx="44.2" cy="33.95" r=".88"/><circle class="dot" cx="47.79" cy="35.12" r=".88"/><circle class="dot" cx="51.39" cy="36.29" r=".88"/><circle class="dot" cx="54.98" cy="37.45" r=".88"/><circle class="dot" cx="58.58" cy="38.62" r=".88"/><circle class="dot" cx="62.17" cy="39.79" r=".88"/><circle class="dot" cx="65.77" cy="40.96" r=".88"/><circle class="dot" cx="69.36" cy="42.13" r=".88"/><circle class="dot" cx="72.96" cy="43.29" r=".88"/><circle class="dot" cx="76.55" cy="44.46" r=".88"/><circle class="dot" cx="80.15" cy="45.63" r=".88"/><circle class="dot" cx="83.74" cy="46.8" r=".88"/><circle class="dot" cx="87.34" cy="47.97" r=".88"/><circle class="dot" cx="90.93" cy="49.13" r=".88"/><circle class="dot" cx="94.53" cy="50.3" r=".88"/><circle class="dot" cx="98.12" cy="51.47" r=".88"/><circle class="dot" cx="-.11" cy="23.53" r=".88"/><circle class="dot" cx="3.48" cy="24.7" r=".88"/><circle class="dot" cx="7.08" cy="25.86" r=".88"/><circle class="dot" cx="10.67" cy="27.03" r=".88"/><circle class="dot" cx="14.27" cy="28.2" r=".88"/><circle class="dot" cx="17.86" cy="29.37" r=".88"/><circle class="dot" cx="21.46" cy="30.54" r=".88"/><circle class="dot" cx="25.05" cy="31.7" r=".88"/><circle class="dot" cx="28.65" cy="32.87" r=".88"/><circle class="dot" cx="32.24" cy="34.04" r=".88"/><circle class="dot" cx="35.84" cy="35.21" r=".88"/><circle class="dot" cx="39.43" cy="36.38" r=".88"/><circle class="dot" cx="43.03" cy="37.54" r=".88"/><circle class="dot" cx="46.62" cy="38.71" r=".88"/><circle class="dot" cx="50.22" cy="39.88" r=".88"/><circle class="dot" cx="53.81" cy="41.05" r=".88"/><circle class="dot" cx="57.41" cy="42.22" r=".88"/><circle class="dot" cx="61" cy="43.38" r=".88"/><circle class="dot" cx="64.6" cy="44.55" r=".88"/><circle class="dot" cx="68.19" cy="45.72" r=".88"/><circle class="dot" cx="71.79" cy="46.89" r=".88"/><circle class="dot" cx="75.38" cy="48.06" r=".88"/><circle class="dot" cx="78.98" cy="49.22" r=".88"/><circle class="dot" cx="82.57" cy="50.39" r=".88"/><circle class="dot" cx="86.17" cy="51.56" r=".88"/><circle class="dot" cx="89.76" cy="52.73" r=".88"/><circle class="dot" cx="93.36" cy="53.9" r=".88"/><circle class="dot" cx="96.95" cy="55.07" r=".88"/><circle class="dot" cx="100.55" cy="56.23" r=".88"/><circle class="dot" cx="2.31" cy="28.29" r=".88"/><circle class="dot" cx="5.91" cy="29.46" r=".88"/><circle class="dot" cx="9.5" cy="30.63" r=".88"/><circle class="dot" cx="13.1" cy="31.79" r=".88"/><circle class="dot" cx="16.69" cy="32.96" r=".88"/><circle class="dot" cx="20.29" cy="34.13" r=".88"/><circle class="dot" cx="23.88" cy="35.3" r=".88"/><circle class="dot" cx="27.48" cy="36.47" r=".88"/><circle class="dot" cx="31.07" cy="37.63" r=".88"/><circle class="dot" cx="34.67" cy="38.8" r=".88"/><circle class="dot" cx="38.26" cy="39.97" r=".88"/><circle class="dot" cx="41.86" cy="41.14" r=".88"/><circle class="dot" cx="45.45" cy="42.31" r=".88"/><circle class="dot" cx="49.05" cy="43.48" r=".88"/><circle class="dot" cx="52.64" cy="44.64" r=".88"/><circle class="dot" cx="56.24" cy="45.81" r=".88"/><circle class="dot" cx="59.83" cy="46.98" r=".88"/><circle class="dot" cx="63.43" cy="48.15" r=".88"/><circle class="dot" cx="67.02" cy="49.32" r=".88"/><circle class="dot" cx="70.62" cy="50.48" r=".88"/><circle class="dot" cx="74.21" cy="51.65" r=".88"/><circle class="dot" cx="77.81" cy="52.82" r=".88"/><circle class="dot" cx="81.4" cy="53.99" r=".88"/><circle class="dot" cx="85" cy="55.16" r=".88"/><circle class="dot" cx="88.59" cy="56.32" r=".88"/><circle class="dot" cx="92.19" cy="57.49" r=".88"/><circle class="dot" cx="95.78" cy="58.66" r=".88"/><circle class="dot" cx="99.38" cy="59.83" r=".88"/><circle class="dot" cx="1.15" cy="31.89" r=".88"/><circle class="dot" cx="4.74" cy="33.05" r=".88"/><circle class="dot" cx="8.34" cy="34.22" r=".88"/><circle class="dot" cx="11.93" cy="35.39" r=".88"/><circle class="dot" cx="15.53" cy="36.56" r=".88"/><circle class="dot" cx="19.12" cy="37.73" r=".88"/><circle class="dot" cx="22.72" cy="38.89" r=".88"/><circle class="dot" cx="26.31" cy="40.06" r=".88"/><circle class="dot" cx="29.91" cy="41.23" r=".88"/><circle class="dot" cx="33.5" cy="42.4" r=".88"/><circle class="dot" cx="37.1" cy="43.57" r=".88"/><circle class="dot" cx="40.69" cy="44.73" r=".88"/><circle class="dot" cx="44.29" cy="45.9" r=".88"/><circle class="dot" cx="47.88" cy="47.07" r=".88"/><circle class="dot" cx="51.48" cy="48.24" r=".88"/><circle class="dot" cx="55.07" cy="49.41" r=".88"/><circle class="dot" cx="58.67" cy="50.57" r=".88"/><circle class="dot" cx="62.26" cy="51.74" r=".88"/><circle class="dot" cx="65.86" cy="52.91" r=".88"/><circle class="dot" cx="69.45" cy="54.08" r=".88"/><circle class="dot" cx="73.05" cy="55.25" r=".88"/><circle class="dot" cx="76.64" cy="56.41" r=".88"/><circle class="dot" cx="80.24" cy="57.58" r=".88"/><circle class="dot" cx="83.83" cy="58.75" r=".88"/><circle class="dot" cx="87.43" cy="59.92" r=".88"/><circle class="dot" cx="91.02" cy="61.09" r=".88"/><circle class="dot" cx="94.62" cy="62.26" r=".88"/><circle class="dot" cx="98.21" cy="63.42" r=".88"/><circle class="dot" cx="-.02" cy="35.48" r=".88"/><circle class="dot" cx="3.57" cy="36.65" r=".88"/><circle class="dot" cx="7.17" cy="37.82" r=".88"/><circle class="dot" cx="10.76" cy="38.98" r=".88"/><circle class="dot" cx="14.36" cy="40.15" r=".88"/><circle class="dot" cx="17.95" cy="41.32" r=".88"/><circle class="dot" cx="21.55" cy="42.49" r=".88"/><circle class="dot" cx="25.14" cy="43.66" r=".88"/><circle class="dot" cx="28.74" cy="44.82" r=".88"/><circle class="dot" cx="32.33" cy="45.99" r=".88"/><circle class="dot" cx="35.93" cy="47.16" r=".88"/><circle class="dot" cx="39.52" cy="48.33" r=".88"/><circle class="dot" cx="43.12" cy="49.5" r=".88"/><circle class="dot" cx="46.71" cy="50.67" r=".88"/><circle class="dot" cx="50.31" cy="51.83" r=".88"/><circle class="dot" cx="53.9" cy="53" r=".88"/><circle class="dot" cx="57.5" cy="54.17" r=".88"/><circle class="dot" cx="61.09" cy="55.34" r=".88"/><circle class="dot" cx="64.69" cy="56.51" r=".88"/><circle class="dot" cx="68.28" cy="57.67" r=".88"/><circle class="dot" cx="71.88" cy="58.84" r=".88"/><circle class="dot" cx="75.47" cy="60.01" r=".88"/><circle class="dot" cx="79.07" cy="61.18" r=".88"/><circle class="dot" cx="82.66" cy="62.35" r=".88"/><circle class="dot" cx="86.26" cy="63.51" r=".88"/><circle class="dot" cx="89.85" cy="64.68" r=".88"/><circle class="dot" cx="93.45" cy="65.85" r=".88"/><circle class="dot" cx="97.04" cy="67.02" r=".88"/><circle class="dot" cx="100.64" cy="68.19" r=".88"/><circle class="dot" cx="2.41" cy="40.24" r=".88"/><circle class="dot" cx="6" cy="41.41" r=".88"/><circle class="dot" cx="9.6" cy="42.58" r=".88"/><circle class="dot" cx="13.19" cy="43.75" r=".88"/><circle class="dot" cx="16.79" cy="44.92" r=".88"/><circle class="dot" cx="20.38" cy="46.08" r=".88"/><circle class="dot" cx="23.98" cy="47.25" r=".88"/><circle class="dot" cx="27.57" cy="48.42" r=".88"/><circle class="dot" cx="31.17" cy="49.59" r=".88"/><circle class="dot" cx="34.76" cy="50.76" r=".88"/><circle class="dot" cx="38.36" cy="51.92" r=".88"/><circle class="dot" cx="41.95" cy="53.09" r=".88"/><circle class="dot" cx="45.55" cy="54.26" r=".88"/><circle class="dot" cx="49.14" cy="55.43" r=".88"/><circle class="dot" cx="52.74" cy="56.6" r=".88"/><circle class="dot" cx="56.33" cy="57.76" r=".88"/><circle class="dot" cx="59.93" cy="58.93" r=".88"/><circle class="dot" cx="63.52" cy="60.1" r=".88"/><circle class="dot" cx="67.12" cy="61.27" r=".88"/><circle class="dot" cx="70.71" cy="62.44" r=".88"/><circle class="dot" cx="74.31" cy="63.6" r=".88"/><circle class="dot" cx="77.9" cy="64.77" r=".88"/><circle class="dot" cx="81.5" cy="65.94" r=".88"/><circle class="dot" cx="85.09" cy="67.11" r=".88"/><circle class="dot" cx="88.69" cy="68.28" r=".88"/><circle class="dot" cx="92.28" cy="69.45" r=".88"/><circle class="dot" cx="95.88" cy="70.61" r=".88"/><circle class="dot" cx="99.47" cy="71.78" r=".88"/><circle class="dot" cx="1.24" cy="43.84" r=".88"/><circle class="dot" cx="4.83" cy="45.01" r=".88"/><circle class="dot" cx="8.43" cy="46.17" r=".88"/><circle class="dot" cx="12.02" cy="47.34" r=".88"/><circle class="dot" cx="15.62" cy="48.51" r=".88"/><circle class="dot" cx="19.21" cy="49.68" r=".88"/><circle class="dot" cx="22.81" cy="50.85" r=".88"/><circle class="dot" cx="26.4" cy="52.01" r=".88"/><circle class="dot" cx="30" cy="53.18" r=".88"/><circle class="dot" cx="33.59" cy="54.35" r=".88"/><circle class="dot" cx="37.19" cy="55.52" r=".88"/><circle class="dot" cx="40.78" cy="56.69" r=".88"/><circle class="dot" cx="44.38" cy="57.86" r=".88"/><circle class="dot" cx="47.97" cy="59.02" r=".88"/><circle class="dot" cx="51.57" cy="60.19" r=".88"/><circle class="dot" cx="55.16" cy="61.36" r=".88"/><circle class="dot" cx="58.76" cy="62.53" r=".88"/><circle class="dot" cx="62.35" cy="63.7" r=".88"/><circle class="dot" cx="65.95" cy="64.86" r=".88"/><circle class="dot" cx="69.54" cy="66.03" r=".88"/><circle class="dot" cx="73.14" cy="67.2" r=".88"/><circle class="dot" cx="76.73" cy="68.37" r=".88"/><circle class="dot" cx="80.33" cy="69.54" r=".88"/><circle class="dot" cx="83.92" cy="70.7" r=".88"/><circle class="dot" cx="87.52" cy="71.87" r=".88"/><circle class="dot" cx="91.11" cy="73.04" r=".88"/><circle class="dot" cx="94.71" cy="74.21" r=".88"/><circle class="dot" cx="98.3" cy="75.38" r=".88"/><circle class="dot" cx=".07" cy="47.43" r=".88"/><circle class="dot" cx="3.66" cy="48.6" r=".88"/><circle class="dot" cx="7.26" cy="49.77" r=".88"/><circle class="dot" cx="10.85" cy="50.94" r=".88"/><circle class="dot" cx="14.45" cy="52.11" r=".88"/><circle class="dot" cx="18.04" cy="53.27" r=".88"/><circle class="dot" cx="21.64" cy="54.44" r=".88"/><circle class="dot" cx="25.23" cy="55.61" r=".88"/><circle class="dot" cx="28.83" cy="56.78" r=".88"/><circle class="dot" cx="32.42" cy="57.95" r=".88"/><circle class="dot" cx="36.02" cy="59.11" r=".88"/><circle class="dot" cx="39.61" cy="60.28" r=".88"/><circle class="dot" cx="43.21" cy="61.45" r=".88"/><circle class="dot" cx="46.8" cy="62.62" r=".88"/><circle class="dot" cx="50.4" cy="63.79" r=".88"/><circle class="dot" cx="53.99" cy="64.95" r=".88"/><circle class="dot" cx="57.59" cy="66.12" r=".88"/><circle class="dot" cx="61.18" cy="67.29" r=".88"/><circle class="dot" cx="64.78" cy="68.46" r=".88"/><circle class="dot" cx="68.37" cy="69.63" r=".88"/><circle class="dot" cx="71.97" cy="70.79" r=".88"/><circle class="dot" cx="75.56" cy="71.96" r=".88"/><circle class="dot" cx="79.16" cy="73.13" r=".88"/><circle class="dot" cx="82.75" cy="74.3" r=".88"/><circle class="dot" cx="86.35" cy="75.47" r=".88"/><circle class="dot" cx="89.94" cy="76.64" r=".88"/><circle class="dot" cx="93.54" cy="77.8" r=".88"/><circle class="dot" cx="97.13" cy="78.97" r=".88"/><circle class="dot" cx="100.73" cy="80.14" r=".88"/><circle class="dot" cx="2.5" cy="52.2" r=".88"/><circle class="dot" cx="6.09" cy="53.36" r=".88"/><circle class="dot" cx="9.69" cy="54.53" r=".88"/><circle class="dot" cx="13.28" cy="55.7" r=".88"/><circle class="dot" cx="16.88" cy="56.87" r=".88"/><circle class="dot" cx="20.47" cy="58.04" r=".88"/><circle class="dot" cx="24.07" cy="59.2" r=".88"/><circle class="dot" cx="27.66" cy="60.37" r=".88"/><circle class="dot" cx="31.26" cy="61.54" r=".88"/><circle class="dot" cx="34.85" cy="62.71" r=".88"/><circle class="dot" cx="38.45" cy="63.88" r=".88"/><circle class="dot" cx="42.04" cy="65.05" r=".88"/><circle class="dot" cx="45.64" cy="66.21" r=".88"/><circle class="dot" cx="49.23" cy="67.38" r=".88"/><circle class="dot" cx="52.83" cy="68.55" r=".88"/><circle class="dot" cx="56.42" cy="69.72" r=".88"/><circle class="dot" cx="60.02" cy="70.89" r=".88"/><circle class="dot" cx="63.61" cy="72.05" r=".88"/><circle class="dot" cx="67.21" cy="73.22" r=".88"/><circle class="dot" cx="70.8" cy="74.39" r=".88"/><circle class="dot" cx="74.4" cy="75.56" r=".88"/><circle class="dot" cx="77.99" cy="76.73" r=".88"/><circle class="dot" cx="81.59" cy="77.89" r=".88"/><circle class="dot" cx="85.18" cy="79.06" r=".88"/><circle class="dot" cx="88.78" cy="80.23" r=".88"/><circle class="dot" cx="92.37" cy="81.4" r=".88"/><circle class="dot" cx="95.97" cy="82.57" r=".88"/><circle class="dot" cx="99.56" cy="83.73" r=".88"/><circle class="dot" cx="1.33" cy="55.79" r=".88"/><circle class="dot" cx="4.92" cy="56.96" r=".88"/><circle class="dot" cx="8.52" cy="58.13" r=".88"/><circle class="dot" cx="12.11" cy="59.3" r=".88"/><circle class="dot" cx="15.71" cy="60.46" r=".88"/><circle class="dot" cx="19.3" cy="61.63" r=".88"/><circle class="dot" cx="22.9" cy="62.8" r=".88"/><circle class="dot" cx="26.49" cy="63.97" r=".88"/><circle class="dot" cx="30.09" cy="65.14" r=".88"/><circle class="dot" cx="33.68" cy="66.3" r=".88"/><circle class="dot" cx="37.28" cy="67.47" r=".88"/><circle class="dot" cx="40.87" cy="68.64" r=".88"/><circle class="dot" cx="44.47" cy="69.81" r=".88"/><circle class="dot" cx="48.06" cy="70.98" r=".88"/><circle class="dot" cx="51.66" cy="72.14" r=".88"/><circle class="dot" cx="55.25" cy="73.31" r=".88"/><circle class="dot" cx="58.85" cy="74.48" r=".88"/><circle class="dot" cx="62.44" cy="75.65" r=".88"/><circle class="dot" cx="66.04" cy="76.82" r=".88"/><circle class="dot" cx="69.63" cy="77.98" r=".88"/><circle class="dot" cx="73.23" cy="79.15" r=".88"/><circle class="dot" cx="76.82" cy="80.32" r=".88"/><circle class="dot" cx="80.42" cy="81.49" r=".88"/><circle class="dot" cx="84.01" cy="82.66" r=".88"/><circle class="dot" cx="87.61" cy="83.83" r=".88"/><circle class="dot" cx="91.2" cy="84.99" r=".88"/><circle class="dot" cx="94.8" cy="86.16" r=".88"/><circle class="dot" cx="98.39" cy="87.33" r=".88"/><circle class="dot" cx=".16" cy="59.39" r=".88"/><circle class="dot" cx="3.75" cy="60.55" r=".88"/><circle class="dot" cx="7.35" cy="61.72" r=".88"/><circle class="dot" cx="10.94" cy="62.89" r=".88"/><circle class="dot" cx="14.54" cy="64.06" r=".88"/><circle class="dot" cx="18.13" cy="65.23" r=".88"/><circle class="dot" cx="21.73" cy="66.39" r=".88"/><circle class="dot" cx="25.32" cy="67.56" r=".88"/><circle class="dot" cx="28.92" cy="68.73" r=".88"/><circle class="dot" cx="32.51" cy="69.9" r=".88"/><circle class="dot" cx="36.11" cy="71.07" r=".88"/><circle class="dot" cx="39.7" cy="72.24" r=".88"/><circle class="dot" cx="43.3" cy="73.4" r=".88"/><circle class="dot" cx="46.89" cy="74.57" r=".88"/><circle class="dot" cx="50.49" cy="75.74" r=".88"/><circle class="dot" cx="54.08" cy="76.91" r=".88"/><circle class="dot" cx="57.68" cy="78.08" r=".88"/><circle class="dot" cx="61.27" cy="79.24" r=".88"/><circle class="dot" cx="64.87" cy="80.41" r=".88"/><circle class="dot" cx="68.46" cy="81.58" r=".88"/><circle class="dot" cx="72.06" cy="82.75" r=".88"/><circle class="dot" cx="75.65" cy="83.92" r=".88"/><circle class="dot" cx="79.25" cy="85.08" r=".88"/><circle class="dot" cx="82.84" cy="86.25" r=".88"/><circle class="dot" cx="86.44" cy="87.42" r=".88"/><circle class="dot" cx="90.03" cy="88.59" r=".88"/><circle class="dot" cx="93.63" cy="89.76" r=".88"/><circle class="dot" cx="97.22" cy="90.92" r=".88"/><circle class="dot" cx="100.82" cy="92.09" r=".88"/><circle class="dot" cx="2.59" cy="64.15" r=".88"/><circle class="dot" cx="6.18" cy="65.32" r=".88"/><circle class="dot" cx="9.78" cy="66.49" r=".88"/><circle class="dot" cx="13.37" cy="67.65" r=".88"/><circle class="dot" cx="16.97" cy="68.82" r=".88"/><circle class="dot" cx="20.56" cy="69.99" r=".88"/><circle class="dot" cx="24.16" cy="71.16" r=".88"/><circle class="dot" cx="27.75" cy="72.33" r=".88"/><circle class="dot" cx="31.35" cy="73.49" r=".88"/><circle class="dot" cx="34.94" cy="74.66" r=".88"/><circle class="dot" cx="38.54" cy="75.83" r=".88"/><circle class="dot" cx="42.13" cy="77" r=".88"/><circle class="dot" cx="45.73" cy="78.17" r=".88"/><circle class="dot" cx="49.32" cy="79.33" r=".88"/><circle class="dot" cx="52.92" cy="80.5" r=".88"/><circle class="dot" cx="56.51" cy="81.67" r=".88"/><circle class="dot" cx="60.11" cy="82.84" r=".88"/><circle class="dot" cx="63.7" cy="84.01" r=".88"/><circle class="dot" cx="67.3" cy="85.17" r=".88"/><circle class="dot" cx="70.89" cy="86.34" r=".88"/><circle class="dot" cx="74.49" cy="87.51" r=".88"/><circle class="dot" cx="78.08" cy="88.68" r=".88"/><circle class="dot" cx="81.68" cy="89.85" r=".88"/><circle class="dot" cx="85.27" cy="91.02" r=".88"/><circle class="dot" cx="88.87" cy="92.18" r=".88"/><circle class="dot" cx="92.46" cy="93.35" r=".88"/><circle class="dot" cx="96.06" cy="94.52" r=".88"/><circle class="dot" cx="99.65" cy="95.69" r=".88"/><circle class="dot" cx="1.42" cy="67.74" r=".88"/><circle class="dot" cx="5.01" cy="68.91" r=".88"/><circle class="dot" cx="8.61" cy="70.08" r=".88"/><circle class="dot" cx="12.2" cy="71.25" r=".88"/><circle class="dot" cx="15.8" cy="72.42" r=".88"/><circle class="dot" cx="19.39" cy="73.58" r=".88"/><circle class="dot" cx="22.99" cy="74.75" r=".88"/><circle class="dot" cx="26.58" cy="75.92" r=".88"/><circle class="dot" cx="30.18" cy="77.09" r=".88"/><circle class="dot" cx="33.77" cy="78.26" r=".88"/><circle class="dot" cx="37.37" cy="79.43" r=".88"/><circle class="dot" cx="40.96" cy="80.59" r=".88"/><circle class="dot" cx="44.56" cy="81.76" r=".88"/><circle class="dot" cx="48.15" cy="82.93" r=".88"/><circle class="dot" cx="51.75" cy="84.1" r=".88"/><circle class="dot" cx="55.34" cy="85.27" r=".88"/><circle class="dot" cx="58.94" cy="86.43" r=".88"/><circle class="dot" cx="62.53" cy="87.6" r=".88"/><circle class="dot" cx="66.13" cy="88.77" r=".88"/><circle class="dot" cx="69.72" cy="89.94" r=".88"/><circle class="dot" cx="73.32" cy="91.11" r=".88"/><circle class="dot" cx="76.91" cy="92.27" r=".88"/><circle class="dot" cx="80.51" cy="93.44" r=".88"/><circle class="dot" cx="84.1" cy="94.61" r=".88"/><circle class="dot" cx="87.7" cy="95.78" r=".88"/><circle class="dot" cx="91.29" cy="96.95" r=".88"/><circle class="dot" cx="94.89" cy="98.11" r=".88"/><circle class="dot" cx="98.48" cy="99.28" r=".88"/><circle class="dot" cx=".25" cy="71.34" r=".88"/><circle class="dot" cx="3.85" cy="72.51" r=".88"/><circle class="dot" cx="7.44" cy="73.68" r=".88"/><circle class="dot" cx="11.04" cy="74.84" r=".88"/><circle class="dot" cx="14.63" cy="76.01" r=".88"/><circle class="dot" cx="18.23" cy="77.18" r=".88"/><circle class="dot" cx="21.82" cy="78.35" r=".88"/><circle class="dot" cx="25.42" cy="79.52" r=".88"/><circle class="dot" cx="29.01" cy="80.68" r=".88"/><circle class="dot" cx="32.61" cy="81.85" r=".88"/><circle class="dot" cx="36.2" cy="83.02" r=".88"/><circle class="dot" cx="39.8" cy="84.19" r=".88"/><circle class="dot" cx="43.39" cy="85.36" r=".88"/><circle class="dot" cx="46.99" cy="86.52" r=".88"/><circle class="dot" cx="50.58" cy="87.69" r=".88"/><circle class="dot" cx="54.18" cy="88.86" r=".88"/><circle class="dot" cx="57.77" cy="90.03" r=".88"/><circle class="dot" cx="61.37" cy="91.2" r=".88"/><circle class="dot" cx="64.96" cy="92.36" r=".88"/><circle class="dot" cx="68.56" cy="93.53" r=".88"/><circle class="dot" cx="72.15" cy="94.7" r=".88"/><circle class="dot" cx="75.75" cy="95.87" r=".88"/><circle class="dot" cx="79.34" cy="97.04" r=".88"/><circle class="dot" cx="82.94" cy="98.21" r=".88"/><circle class="dot" cx="86.53" cy="99.37" r=".88"/><circle class="dot" cx="90.13" cy="100.54" r=".88"/><circle class="dot" cx="2.68" cy="76.1" r=".88"/><circle class="dot" cx="6.27" cy="77.27" r=".88"/><circle class="dot" cx="9.87" cy="78.44" r=".88"/><circle class="dot" cx="13.46" cy="79.61" r=".88"/><circle class="dot" cx="17.06" cy="80.77" r=".88"/><circle class="dot" cx="20.65" cy="81.94" r=".88"/><circle class="dot" cx="24.25" cy="83.11" r=".88"/><circle class="dot" cx="27.84" cy="84.28" r=".88"/><circle class="dot" cx="31.44" cy="85.45" r=".88"/><circle class="dot" cx="35.03" cy="86.62" r=".88"/><circle class="dot" cx="38.63" cy="87.78" r=".88"/><circle class="dot" cx="42.22" cy="88.95" r=".88"/><circle class="dot" cx="45.82" cy="90.12" r=".88"/><circle class="dot" cx="49.41" cy="91.29" r=".88"/><circle class="dot" cx="53.01" cy="92.46" r=".88"/><circle class="dot" cx="56.6" cy="93.62" r=".88"/><circle class="dot" cx="60.2" cy="94.79" r=".88"/><circle class="dot" cx="63.79" cy="95.96" r=".88"/><circle class="dot" cx="67.39" cy="97.13" r=".88"/><circle class="dot" cx="70.98" cy="98.3" r=".88"/><circle class="dot" cx="74.58" cy="99.46" r=".88"/><circle class="dot" cx="78.17" cy="100.63" r=".88"/><circle class="dot" cx="1.51" cy="79.7" r=".88"/><circle class="dot" cx="5.1" cy="80.87" r=".88"/><circle class="dot" cx="8.7" cy="82.03" r=".88"/><circle class="dot" cx="12.29" cy="83.2" r=".88"/><circle class="dot" cx="15.89" cy="84.37" r=".88"/><circle class="dot" cx="19.48" cy="85.54" r=".88"/><circle class="dot" cx="23.08" cy="86.71" r=".88"/><circle class="dot" cx="26.67" cy="87.87" r=".88"/><circle class="dot" cx="30.27" cy="89.04" r=".88"/><circle class="dot" cx="33.86" cy="90.21" r=".88"/><circle class="dot" cx="37.46" cy="91.38" r=".88"/><circle class="dot" cx="41.05" cy="92.55" r=".88"/><circle class="dot" cx="44.65" cy="93.71" r=".88"/><circle class="dot" cx="48.24" cy="94.88" r=".88"/><circle class="dot" cx="51.84" cy="96.05" r=".88"/><circle class="dot" cx="55.43" cy="97.22" r=".88"/><circle class="dot" cx="59.03" cy="98.39" r=".88"/><circle class="dot" cx="62.62" cy="99.55" r=".88"/><circle class="dot" cx="66.22" cy="100.72" r=".88"/><circle class="dot" cx=".34" cy="83.29" r=".88"/><circle class="dot" cx="3.94" cy="84.46" r=".88"/><circle class="dot" cx="7.53" cy="85.63" r=".88"/><circle class="dot" cx="11.13" cy="86.8" r=".88"/><circle class="dot" cx="14.72" cy="87.96" r=".88"/><circle class="dot" cx="18.32" cy="89.13" r=".88"/><circle class="dot" cx="21.91" cy="90.3" r=".88"/><circle class="dot" cx="25.51" cy="91.47" r=".88"/><circle class="dot" cx="29.1" cy="92.64" r=".88"/><circle class="dot" cx="32.7" cy="93.81" r=".88"/><circle class="dot" cx="36.29" cy="94.97" r=".88"/><circle class="dot" cx="39.89" cy="96.14" r=".88"/><circle class="dot" cx="43.48" cy="97.31" r=".88"/><circle class="dot" cx="47.08" cy="98.48" r=".88"/><circle class="dot" cx="50.67" cy="99.65" r=".88"/><circle class="dot" cx="54.27" cy="100.81" r=".88"/><circle class="dot" cx="-.83" cy="86.89" r=".88"/><circle class="dot" cx="2.77" cy="88.06" r=".88"/><circle class="dot" cx="6.36" cy="89.22" r=".88"/><circle class="dot" cx="9.96" cy="90.39" r=".88"/><circle class="dot" cx="13.55" cy="91.56" r=".88"/><circle class="dot" cx="17.15" cy="92.73" r=".88"/><circle class="dot" cx="20.74" cy="93.9" r=".88"/><circle class="dot" cx="24.34" cy="95.06" r=".88"/><circle class="dot" cx="27.93" cy="96.23" r=".88"/><circle class="dot" cx="31.53" cy="97.4" r=".88"/><circle class="dot" cx="35.12" cy="98.57" r=".88"/><circle class="dot" cx="38.72" cy="99.74" r=".88"/><circle class="dot" cx="1.6" cy="91.65" r=".88"/><circle class="dot" cx="5.2" cy="92.82" r=".88"/><circle class="dot" cx="8.79" cy="93.99" r=".88"/><circle class="dot" cx="12.39" cy="95.15" r=".88"/><circle class="dot" cx="15.98" cy="96.32" r=".88"/><circle class="dot" cx="19.58" cy="97.49" r=".88"/><circle class="dot" cx="23.17" cy="98.66" r=".88"/><circle class="dot" cx="26.77" cy="99.83" r=".88"/><circle class="dot" cx="-.29" cy="-.38" r=".88"/><circle class="dot" cx=".43" cy="95.25" r=".88"/><circle class="dot" cx="4.03" cy="96.41" r=".88"/><circle class="dot" cx="7.62" cy="97.58" r=".88"/><circle class="dot" cx="11.22" cy="98.75" r=".88"/><circle class="dot" cx="14.81" cy="99.92" r=".88"/><circle class="dot" cx="-.74" cy="98.84" r=".88"/><circle class="dot" cx="2.86" cy="100.01" r=".88"/></g></svg>