<svg viewBox="0 0 273 82" fill="none" xmlns="http://www.w3.org/2000/svg">
<path d="M0.636 20.636C1.392 20.636 2.12 20.356 2.792 19.74C3.464 19.152 4.024 18.2 4.5 16.912L8.196 6.72C8.532 5.768 8.7 5.012 8.7 4.424C8.7 3.22 8.028 2.604 6.684 2.604V2.212C7.356 2.212 8.084 2.1 8.812 1.876C9.54 1.652 10.24 1.316 10.856 0.895998L11.22 1.036L17.52 18.284C17.828 19.18 18.192 19.796 18.64 20.132C19.06 20.468 19.592 20.636 20.208 20.636V21H12.704V20.636C13.796 20.636 14.356 20.216 14.356 19.376C14.356 19.04 14.272 18.676 14.132 18.284L12.956 14.952H5.9L5.2 16.912C4.976 17.556 4.864 18.116 4.864 18.592C4.864 19.292 5.06 19.796 5.508 20.132C5.928 20.468 6.516 20.636 7.272 20.636V21H0.636V20.636ZM12.788 14.476L9.456 5.068L6.068 14.476H12.788ZM19.1042 26.236C19.7202 26.236 20.1962 26.068 20.5322 25.676C20.8682 25.312 21.0642 24.668 21.0642 23.772V9.856C21.0642 9.184 20.8962 8.736 20.6162 8.456C20.3362 8.176 19.8602 8.036 19.2162 8.008V7.644C21.0082 7.532 22.5482 7.168 23.8362 6.552L24.0882 6.692V9.604C24.3402 8.876 24.8722 8.176 25.6842 7.532C26.4962 6.916 27.4762 6.58 28.5962 6.58C29.6602 6.58 30.6402 6.916 31.5082 7.532C32.3762 8.176 33.0482 9.044 33.5522 10.136C34.0562 11.256 34.3082 12.46 34.3082 13.804C34.3082 15.176 34.0002 16.436 33.4402 17.584C32.8522 18.732 32.0682 19.628 31.0602 20.3C30.0522 20.972 28.9322 21.28 27.7562 21.28C26.2722 21.28 25.0402 20.748 24.0882 19.628V23.772C24.0882 24.696 24.2842 25.34 24.7042 25.704C25.0962 26.068 25.6842 26.236 26.4402 26.236V26.6H19.1042V26.236ZM25.0122 19.208C25.6282 20.244 26.4682 20.748 27.5322 20.748C28.2042 20.748 28.8202 20.524 29.3802 20.02C29.9402 19.516 30.3602 18.816 30.6682 17.92C30.9762 17.024 31.1442 16.016 31.1442 14.84C31.1442 13.44 30.9482 12.236 30.5842 11.228C30.2202 10.22 29.7162 9.464 29.1002 8.932C28.4842 8.428 27.7842 8.148 27.0282 8.148C26.3002 8.148 25.7122 8.372 25.2082 8.82C24.7042 9.268 24.3122 9.828 24.0882 10.5V15.344C24.0882 16.912 24.3962 18.2 25.0122 19.208ZM36.2393 3.836C35.8753 3.444 35.7073 2.968 35.7073 2.352C35.7073 1.792 35.8753 1.344 36.2393 0.979999C36.6033 0.615999 37.0793 0.42 37.6673 0.42C38.2553 0.42 38.7313 0.615999 39.0953 0.979999C39.4593 1.344 39.6553 1.792 39.6553 2.352C39.6553 2.968 39.4593 3.444 39.0953 3.836C38.7313 4.228 38.2553 4.396 37.6673 4.396C37.0793 4.396 36.6033 4.228 36.2393 3.836ZM34.4473 20.636C35.0633 20.636 35.5393 20.468 35.8753 20.076C36.2113 19.712 36.4073 19.068 36.4073 18.172V9.856C36.4073 9.184 36.2393 8.736 35.9593 8.456C35.6793 8.176 35.2033 8.036 34.5593 8.008V7.644C36.3513 7.532 37.8913 7.168 39.1793 6.552L39.4313 6.692V18.172C39.4313 19.096 39.5993 19.74 39.9353 20.104C40.2713 20.468 40.7473 20.636 41.3913 20.636V21H34.4473V20.636ZM44.4849 23.38C44.9329 22.876 45.1849 22.372 45.1849 21.868C45.1849 21.588 45.1009 21.392 44.9609 21.252C44.7929 21.112 44.5689 20.944 44.2609 20.776C43.8409 20.58 43.5329 20.356 43.3369 20.132C43.1129 19.908 43.0289 19.544 43.0289 19.04C43.0289 18.536 43.1969 18.116 43.5609 17.78C43.8969 17.444 44.3169 17.248 44.8209 17.248C45.4369 17.248 45.9129 17.5 46.3049 18.004C46.6689 18.508 46.8649 19.124 46.8649 19.852C46.8649 21.084 46.4449 22.12 45.6609 23.016C44.8769 23.912 43.9529 24.556 42.9449 24.892L42.8049 24.528C43.4489 24.276 44.0089 23.884 44.4849 23.38ZM59.1079 20.02C57.5399 19.152 56.3079 17.948 55.4119 16.408C54.5159 14.896 54.0959 13.16 54.0959 11.228C54.0959 9.38 54.5159 7.7 55.3839 6.132C56.2239 4.592 57.4279 3.36 58.9959 2.436C60.5359 1.54 62.3279 1.064 64.3439 1.064C65.1559 1.064 65.8839 1.148 66.5559 1.316C67.2279 1.484 67.7599 1.624 68.1519 1.764C68.5439 1.904 68.8239 1.988 68.9359 2.016C69.3559 2.156 69.6639 2.212 69.8319 2.212C70.1119 2.212 70.3639 2.128 70.5879 1.904C70.8119 1.708 70.9519 1.428 71.0079 1.064L71.3999 1.036L71.9319 8.568L71.5679 8.624C71.2879 7.364 70.7559 6.188 70.0279 5.096C69.2719 4.032 68.4039 3.164 67.3959 2.52C66.3879 1.876 65.3519 1.54 64.3159 1.54C63.0559 1.54 61.9079 1.932 60.8999 2.688C59.8639 3.472 59.0519 4.536 58.4359 5.88C57.8199 7.252 57.5399 8.792 57.5399 10.5C57.5399 12.292 57.8479 13.972 58.4639 15.54C59.0799 17.136 59.9199 18.424 61.0399 19.376C62.1319 20.356 63.3919 20.832 64.8199 20.832C65.9399 20.832 66.9479 20.468 67.7879 19.74C68.6279 19.012 69.0479 17.864 69.0479 16.324V15.12C69.0479 14.224 68.7959 13.58 68.3479 13.188C67.8719 12.824 67.1999 12.628 66.3319 12.628V12.264L73.4999 12.292V12.656C73.0519 12.656 72.6879 12.852 72.4639 13.216C72.2399 13.58 72.1279 14.224 72.1279 15.12V17.892C72.1279 18.032 72.0999 18.144 72.0439 18.2C71.9879 18.284 71.9039 18.396 71.7359 18.564C70.8399 19.404 69.8039 20.076 68.5719 20.58C67.3399 21.084 65.9959 21.308 64.4839 21.308C62.4679 21.308 60.6759 20.888 59.1079 20.02ZM73.5489 20.636C74.1649 20.636 74.6409 20.468 74.9769 20.076C75.3129 19.712 75.5089 19.068 75.5089 18.172L75.5929 3.612C75.5929 2.94 75.4249 2.464 75.1449 2.184C74.8649 1.904 74.3889 1.764 73.7449 1.764V1.4C75.5369 1.288 77.0769 0.924 78.3649 0.307999L78.6169 0.447999V18.172C78.6169 19.068 78.7849 19.712 79.1209 20.076C79.4569 20.468 79.9609 20.636 80.5769 20.636V21H73.5489V20.636ZM82.669 3.836C82.305 3.444 82.137 2.968 82.137 2.352C82.137 1.792 82.305 1.344 82.669 0.979999C83.033 0.615999 83.509 0.42 84.097 0.42C84.685 0.42 85.161 0.615999 85.525 0.979999C85.889 1.344 86.085 1.792 86.085 2.352C86.085 2.968 85.889 3.444 85.525 3.836C85.161 4.228 84.685 4.396 84.097 4.396C83.509 4.396 83.033 4.228 82.669 3.836ZM80.877 20.636C81.493 20.636 81.969 20.468 82.305 20.076C82.641 19.712 82.837 19.068 82.837 18.172V9.856C82.837 9.184 82.669 8.736 82.389 8.456C82.109 8.176 81.633 8.036 80.989 8.008V7.644C82.781 7.532 84.321 7.168 85.609 6.552L85.861 6.692V18.172C85.861 19.096 86.029 19.74 86.365 20.104C86.701 20.468 87.177 20.636 87.821 20.636V21H80.877V20.636ZM91.2208 20.356C90.2128 19.74 89.4008 18.872 88.8128 17.78C88.2248 16.688 87.9448 15.456 87.9448 14.084C87.9448 12.712 88.2528 11.452 88.8968 10.276C89.5128 9.128 90.3808 8.204 91.4728 7.532C92.5368 6.86 93.7128 6.524 95.0008 6.524C95.9528 6.524 96.7928 6.72 97.5488 7.112C98.2768 7.504 98.8648 8.036 99.2848 8.652C99.7048 9.268 99.9288 9.94 99.9288 10.612C99.9288 11.172 99.7608 11.62 99.4528 11.928C99.1448 12.264 98.7808 12.404 98.3328 12.404C97.8848 12.404 97.5488 12.264 97.2968 11.984C97.0168 11.704 96.9048 11.368 96.9048 10.92C96.9048 10.696 96.9888 10.36 97.1568 9.94C97.3248 9.576 97.4088 9.24 97.4088 8.96C97.4088 8.428 97.1848 7.952 96.7368 7.56C96.2888 7.168 95.7568 6.972 95.0848 6.972C94.2728 6.972 93.5448 7.252 92.8728 7.756C92.2008 8.26 91.6688 8.988 91.2768 9.884C90.8848 10.808 90.6888 11.816 90.6888 12.936C90.6888 14.168 90.9128 15.232 91.4168 16.128C91.8928 17.052 92.5368 17.752 93.3208 18.256C94.1048 18.76 94.9728 18.984 95.9248 18.984C97.0448 18.984 98.0248 18.648 98.8368 17.976C99.6488 17.304 100.153 16.408 100.377 15.344L100.741 15.4C100.461 17.136 99.7888 18.536 98.6968 19.628C97.6048 20.748 96.2328 21.28 94.5528 21.28C93.3208 21.28 92.2288 20.972 91.2208 20.356ZM102.384 3.836C102.02 3.444 101.852 2.968 101.852 2.352C101.852 1.792 102.02 1.344 102.384 0.979999C102.748 0.615999 103.224 0.42 103.812 0.42C104.4 0.42 104.876 0.615999 105.24 0.979999C105.604 1.344 105.8 1.792 105.8 2.352C105.8 2.968 105.604 3.444 105.24 3.836C104.876 4.228 104.4 4.396 103.812 4.396C103.224 4.396 102.748 4.228 102.384 3.836ZM100.592 20.636C101.208 20.636 101.684 20.468 102.02 20.076C102.356 19.712 102.552 19.068 102.552 18.172V9.856C102.552 9.184 102.384 8.736 102.104 8.456C101.824 8.176 101.348 8.036 100.704 8.008V7.644C102.496 7.532 104.036 7.168 105.324 6.552L105.576 6.692V18.172C105.576 19.096 105.744 19.74 106.08 20.104C106.416 20.468 106.892 20.636 107.536 20.636V21H100.592V20.636ZM117.275 20.636C117.891 20.636 118.395 20.496 118.759 20.216C119.123 19.936 119.319 19.46 119.319 18.76C119.319 18.536 119.291 18.34 119.291 18.2L118.423 11.788C118.087 9.408 117.107 8.204 115.511 8.204C114.783 8.204 114.139 8.512 113.635 9.1C113.131 9.716 112.823 10.416 112.767 11.256V18.172C112.767 19.096 112.935 19.74 113.271 20.104C113.607 20.468 114.083 20.636 114.727 20.636V21H107.783V20.636C108.399 20.636 108.875 20.468 109.211 20.076C109.547 19.712 109.743 19.068 109.743 18.172V9.856C109.743 9.184 109.575 8.736 109.295 8.456C109.015 8.176 108.539 8.036 107.895 8.008V7.644C109.687 7.532 111.227 7.168 112.515 6.552L112.767 6.692V10.052C113.019 9.044 113.523 8.204 114.279 7.532C115.035 6.86 115.931 6.524 116.995 6.524C118.199 6.524 119.179 6.972 119.963 7.812C120.719 8.652 121.223 9.968 121.475 11.704L122.427 18.2C122.539 19.096 122.763 19.74 123.127 20.104C123.463 20.468 123.939 20.636 124.555 20.636V21H117.275V20.636ZM126.392 3.836C126.028 3.444 125.86 2.968 125.86 2.352C125.86 1.792 126.028 1.344 126.392 0.979999C126.756 0.615999 127.232 0.42 127.82 0.42C128.408 0.42 128.884 0.615999 129.248 0.979999C129.612 1.344 129.808 1.792 129.808 2.352C129.808 2.968 129.612 3.444 129.248 3.836C128.884 4.228 128.408 4.396 127.82 4.396C127.232 4.396 126.756 4.228 126.392 3.836ZM124.6 20.636C125.216 20.636 125.692 20.468 126.028 20.076C126.364 19.712 126.56 19.068 126.56 18.172V9.856C126.56 9.184 126.392 8.736 126.112 8.456C125.832 8.176 125.356 8.036 124.712 8.008V7.644C126.504 7.532 128.044 7.168 129.332 6.552L129.584 6.692V18.172C129.584 19.096 129.752 19.74 130.088 20.104C130.424 20.468 130.9 20.636 131.544 20.636V21H124.6V20.636ZM134.637 23.38C135.085 22.876 135.337 22.372 135.337 21.868C135.337 21.588 135.253 21.392 135.113 21.252C134.945 21.112 134.721 20.944 134.413 20.776C133.993 20.58 133.685 20.356 133.489 20.132C133.265 19.908 133.181 19.544 133.181 19.04C133.181 18.536 133.349 18.116 133.713 17.78C134.049 17.444 134.469 17.248 134.973 17.248C135.589 17.248 136.065 17.5 136.457 18.004C136.821 18.508 137.017 19.124 137.017 19.852C137.017 21.084 136.597 22.12 135.813 23.016C135.029 23.912 134.105 24.556 133.097 24.892L132.957 24.528C133.601 24.276 134.161 23.884 134.637 23.38ZM148.952 19.992C147.496 19.096 146.348 17.892 145.508 16.38C144.668 14.868 144.248 13.188 144.248 11.34C144.248 9.492 144.668 7.756 145.508 6.188C146.348 4.62 147.524 3.388 149.008 2.464C150.464 1.54 152.088 1.064 153.88 1.064C154.664 1.064 155.392 1.148 156.036 1.316C156.652 1.484 157.296 1.708 157.968 1.988C158.248 2.128 158.528 2.24 158.808 2.324C159.088 2.408 159.34 2.436 159.564 2.436C159.872 2.436 160.152 2.352 160.376 2.156C160.6 1.988 160.712 1.708 160.768 1.316L161.16 1.288L161.748 8.764L161.356 8.82C161.076 7.504 160.572 6.3 159.816 5.18C159.06 4.06 158.164 3.192 157.1 2.52C156.036 1.876 154.944 1.54 153.796 1.54C152.536 1.54 151.388 1.904 150.38 2.632C149.372 3.36 148.56 4.34 147.972 5.572C147.356 6.804 147.076 8.176 147.076 9.688C147.076 11.452 147.412 13.048 148.14 14.448C148.868 15.848 149.848 16.94 151.108 17.724C152.34 18.508 153.74 18.9 155.308 18.9C157.016 18.9 158.472 18.424 159.648 17.472C160.824 16.52 161.692 15.288 162.224 13.776L162.56 13.86C162.28 15.26 161.776 16.52 160.992 17.64C160.208 18.76 159.2 19.656 157.968 20.328C156.736 21 155.392 21.308 153.908 21.308C152.06 21.308 150.408 20.888 148.952 19.992ZM166.794 20.3C165.814 19.656 165.058 18.76 164.526 17.64C163.966 16.52 163.714 15.316 163.714 13.972C163.714 12.572 163.994 11.312 164.61 10.192C165.226 9.072 166.038 8.176 167.102 7.504C168.138 6.86 169.286 6.524 170.518 6.524C171.582 6.524 172.534 6.776 173.318 7.252C174.102 7.756 174.718 8.4 175.138 9.212C175.558 10.052 175.782 10.948 175.782 11.9H166.682C166.654 12.012 166.654 12.18 166.654 12.376C166.654 13.692 166.85 14.84 167.27 15.848C167.662 16.856 168.25 17.64 169.006 18.2C169.762 18.76 170.658 19.012 171.666 19.012C172.786 19.012 173.738 18.676 174.522 18.004C175.306 17.332 175.81 16.464 176.034 15.344L176.426 15.4C176.258 16.52 175.866 17.528 175.306 18.424C174.746 19.32 174.018 20.02 173.122 20.524C172.226 21.028 171.246 21.28 170.182 21.28C168.894 21.28 167.774 20.972 166.794 20.3ZM171.61 11.424C172.002 11.424 172.31 11.34 172.478 11.144C172.646 10.948 172.758 10.612 172.758 10.164C172.758 9.38 172.534 8.652 172.142 7.98C171.722 7.308 171.106 6.944 170.294 6.944C169.454 6.944 168.67 7.392 167.998 8.26C167.298 9.156 166.878 10.192 166.71 11.424H171.61ZM194.535 20.636C195.207 20.636 195.711 20.496 196.103 20.216C196.467 19.936 196.663 19.46 196.663 18.76C196.663 18.536 196.635 18.34 196.635 18.2L195.739 11.788C195.403 9.408 194.423 8.204 192.827 8.204C192.043 8.204 191.399 8.484 190.923 9.016C190.447 9.548 190.167 10.22 190.055 11.004C190.083 11.396 190.111 11.676 190.111 11.9V18.172C190.111 19.068 190.279 19.712 190.615 20.076C190.951 20.468 191.455 20.636 192.071 20.636V21H185.239V20.636C185.827 20.636 186.275 20.468 186.611 20.104C186.947 19.74 187.115 19.096 187.115 18.172V12.376C187.115 11.032 186.835 9.996 186.331 9.268C185.827 8.54 185.099 8.176 184.175 8.176C183.419 8.176 182.775 8.456 182.243 8.96C181.683 9.492 181.375 10.108 181.291 10.808V18.172C181.291 19.096 181.431 19.74 181.767 20.104C182.103 20.468 182.551 20.636 183.167 20.636V21H176.307V20.636C176.923 20.636 177.399 20.468 177.735 20.076C178.071 19.712 178.267 19.068 178.267 18.172V9.856C178.267 9.184 178.099 8.736 177.819 8.456C177.539 8.176 177.063 8.036 176.419 8.008V7.644C178.211 7.532 179.751 7.168 181.039 6.552L181.291 6.692V9.688C181.571 8.82 182.103 8.064 182.887 7.448C183.643 6.832 184.511 6.524 185.519 6.524C186.583 6.524 187.507 6.86 188.291 7.476C189.075 8.092 189.635 8.988 189.915 10.108C190.139 9.1 190.643 8.26 191.427 7.56C192.183 6.888 193.107 6.524 194.199 6.524C196.747 6.524 198.287 8.26 198.791 11.704L199.743 18.2C199.855 19.096 200.107 19.74 200.499 20.104C200.863 20.468 201.367 20.636 201.983 20.636V21H194.535V20.636ZM204.638 20.3C203.658 19.656 202.902 18.76 202.37 17.64C201.81 16.52 201.558 15.316 201.558 13.972C201.558 12.572 201.838 11.312 202.454 10.192C203.07 9.072 203.882 8.176 204.946 7.504C205.982 6.86 207.13 6.524 208.362 6.524C209.426 6.524 210.378 6.776 211.162 7.252C211.946 7.756 212.562 8.4 212.982 9.212C213.402 10.052 213.626 10.948 213.626 11.9H204.526C204.498 12.012 204.498 12.18 204.498 12.376C204.498 13.692 204.694 14.84 205.114 15.848C205.506 16.856 206.094 17.64 206.85 18.2C207.606 18.76 208.502 19.012 209.51 19.012C210.63 19.012 211.582 18.676 212.366 18.004C213.15 17.332 213.654 16.464 213.878 15.344L214.27 15.4C214.102 16.52 213.71 17.528 213.15 18.424C212.59 19.32 211.862 20.02 210.966 20.524C210.07 21.028 209.09 21.28 208.026 21.28C206.738 21.28 205.618 20.972 204.638 20.3ZM209.454 11.424C209.846 11.424 210.154 11.34 210.322 11.144C210.49 10.948 210.602 10.612 210.602 10.164C210.602 9.38 210.378 8.652 209.986 7.98C209.566 7.308 208.95 6.944 208.138 6.944C207.298 6.944 206.514 7.392 205.842 8.26C205.142 9.156 204.722 10.192 204.554 11.424H209.454ZM223.642 20.636C224.258 20.636 224.762 20.496 225.126 20.216C225.49 19.936 225.686 19.46 225.686 18.76C225.686 18.536 225.658 18.34 225.658 18.2L224.79 11.788C224.454 9.408 223.474 8.204 221.878 8.204C221.15 8.204 220.506 8.512 220.002 9.1C219.498 9.716 219.19 10.416 219.134 11.256V18.172C219.134 19.096 219.302 19.74 219.638 20.104C219.974 20.468 220.45 20.636 221.094 20.636V21H214.15V20.636C214.766 20.636 215.242 20.468 215.578 20.076C215.914 19.712 216.11 19.068 216.11 18.172V9.856C216.11 9.184 215.942 8.736 215.662 8.456C215.382 8.176 214.906 8.036 214.262 8.008V7.644C216.054 7.532 217.594 7.168 218.882 6.552L219.134 6.692V10.052C219.386 9.044 219.89 8.204 220.646 7.532C221.402 6.86 222.298 6.524 223.362 6.524C224.566 6.524 225.546 6.972 226.33 7.812C227.086 8.652 227.59 9.968 227.842 11.704L228.794 18.2C228.906 19.096 229.13 19.74 229.494 20.104C229.83 20.468 230.306 20.636 230.922 20.636V21H223.642V20.636ZM232.62 19.992C231.948 19.124 231.612 18.004 231.612 16.604V7.924H229.848V7.532C230.996 7.42 231.976 7.028 232.76 6.3C233.544 5.572 234.048 4.592 234.272 3.332H234.664V6.804H238.836L238.36 7.924H234.664V16.296C234.664 17.248 234.86 18.032 235.252 18.62C235.644 19.236 236.204 19.516 236.904 19.516C237.464 19.516 237.912 19.348 238.276 18.956C238.64 18.564 238.892 18.088 239.032 17.5L239.368 17.556C239.228 18.62 238.808 19.488 238.136 20.216C237.436 20.944 236.596 21.28 235.644 21.28C234.3 21.28 233.292 20.86 232.62 19.992ZM243.012 20.3C241.92 19.656 241.052 18.76 240.436 17.612C239.792 16.492 239.484 15.232 239.484 13.832C239.484 12.404 239.792 11.144 240.436 10.024C241.052 8.904 241.92 8.064 243.012 7.448C244.076 6.832 245.252 6.524 246.54 6.524C247.828 6.524 249.004 6.86 250.068 7.476C251.132 8.12 252 8.988 252.644 10.108C253.26 11.228 253.596 12.488 253.596 13.888C253.596 15.316 253.288 16.604 252.672 17.724C252.056 18.844 251.188 19.74 250.124 20.356C249.06 20.972 247.884 21.28 246.596 21.28C245.28 21.28 244.076 20.972 243.012 20.3ZM244.3 19.012C245.084 20.188 246.036 20.748 247.1 20.748C248.164 20.748 248.976 20.244 249.564 19.208C250.124 18.2 250.432 16.856 250.432 15.204C250.432 14.672 250.376 14 250.292 13.216C250.04 11.368 249.536 9.884 248.752 8.764C247.968 7.644 247.072 7.056 246.036 7.056C244.944 7.056 244.104 7.588 243.516 8.624C242.928 9.688 242.648 11.032 242.648 12.656C242.648 13.328 242.676 13.916 242.76 14.448C242.984 16.324 243.516 17.836 244.3 19.012ZM255.056 20.664C254.692 20.272 254.524 19.796 254.524 19.18C254.524 18.62 254.692 18.172 255.056 17.78C255.42 17.416 255.896 17.22 256.484 17.22C257.044 17.22 257.52 17.416 257.884 17.78C258.248 18.172 258.444 18.62 258.444 19.18C258.444 19.796 258.248 20.272 257.884 20.664C257.52 21.056 257.044 21.224 256.484 21.224C255.896 21.224 255.42 21.056 255.056 20.664ZM1.324 52.766C1.72 52.766 2.026 52.658 2.242 52.406C2.458 52.172 2.584 51.758 2.584 51.182V42.218C2.584 41.642 2.458 41.246 2.242 40.994C2.026 40.76 1.72 40.634 1.324 40.634V40.4H10.18L10.702 44.126L10.468 44.18C10.072 41.876 8.956 40.706 7.12 40.706H4.636V46.484H6.634C7.228 46.484 7.66 46.34 7.93 46.016C8.2 45.71 8.344 45.17 8.344 44.396H8.596V48.914H8.344C8.344 48.158 8.2 47.6 7.93 47.276C7.642 46.952 7.21 46.79 6.616 46.79H4.636V51.722C4.636 52.082 4.69 52.334 4.834 52.478C4.96 52.622 5.212 52.694 5.59 52.694H7.408C8.416 52.694 9.208 52.424 9.784 51.848C10.36 51.29 10.81 50.462 11.134 49.364L11.332 49.418L10.63 53H1.324V52.766ZM12.7378 41.966C12.5038 41.714 12.3958 41.408 12.3958 41.012C12.3958 40.652 12.5038 40.364 12.7378 40.13C12.9718 39.896 13.2778 39.77 13.6558 39.77C14.0338 39.77 14.3398 39.896 14.5738 40.13C14.8078 40.364 14.9338 40.652 14.9338 41.012C14.9338 41.408 14.8078 41.714 14.5738 41.966C14.3398 42.218 14.0338 42.326 13.6558 42.326C13.2778 42.326 12.9718 42.218 12.7378 41.966ZM11.5858 52.766C11.9818 52.766 12.2878 52.658 12.5038 52.406C12.7198 52.172 12.8458 51.758 12.8458 51.182V45.836C12.8458 45.404 12.7378 45.116 12.5578 44.936C12.3778 44.756 12.0718 44.666 11.6578 44.648V44.414C12.8098 44.342 13.7998 44.108 14.6278 43.712L14.7898 43.802V51.182C14.7898 51.776 14.8978 52.19 15.1138 52.424C15.3298 52.658 15.6358 52.766 16.0498 52.766V53H11.5858V52.766ZM18.0252 56.42C17.5032 56.204 17.1072 55.916 16.8372 55.556C16.5672 55.214 16.4412 54.854 16.4412 54.476C16.4412 54.224 16.6032 53.972 16.9272 53.72C17.2512 53.486 17.7012 53.234 18.2772 52.982C17.7912 52.874 17.4132 52.676 17.1432 52.352C16.8732 52.028 16.7472 51.668 16.7472 51.254C16.7472 51.11 16.7652 50.984 16.8372 50.912C16.8912 50.84 17.0352 50.714 17.2692 50.552L17.7012 50.246L18.4392 49.688C17.8632 49.436 17.4132 49.058 17.0892 48.572C16.7652 48.104 16.6032 47.546 16.6032 46.916C16.6032 46.286 16.7652 45.728 17.0892 45.224C17.4132 44.72 17.8812 44.342 18.4752 44.054C19.0512 43.784 19.7352 43.64 20.4912 43.64C20.7252 43.64 21.0672 43.676 21.5352 43.748C22.1472 43.838 22.6512 43.874 23.0832 43.874H24.9552L24.6492 44.594L22.9032 44.558C23.3352 44.864 23.6592 45.224 23.8932 45.638C24.1092 46.07 24.2352 46.502 24.2352 46.97C24.2352 47.582 24.0732 48.14 23.7492 48.608C23.4252 49.076 22.9932 49.454 22.4172 49.706C21.8412 49.976 21.1932 50.102 20.4372 50.102C19.7712 50.102 19.1772 49.994 18.6552 49.778C18.4032 49.994 18.2232 50.174 18.1512 50.282C18.0612 50.39 18.0252 50.498 18.0252 50.57C18.0252 51.056 18.3852 51.29 19.1052 51.29H22.4892C23.2092 51.29 23.7672 51.416 24.1812 51.668C24.5952 51.92 24.8112 52.352 24.8112 52.964C24.8112 53.576 24.5772 54.17 24.1452 54.746C23.7132 55.34 23.1012 55.826 22.3452 56.204C21.5892 56.582 20.7432 56.762 19.8252 56.762C19.1412 56.762 18.5292 56.654 18.0252 56.42ZM18.8892 55.304C19.3932 55.628 20.0592 55.79 20.8872 55.79C21.5352 55.79 22.0932 55.7 22.5972 55.502C23.0832 55.322 23.4612 55.07 23.7312 54.782C24.0012 54.494 24.1452 54.188 24.1452 53.882C24.1452 53.63 24.0372 53.414 23.8212 53.27C23.6052 53.126 23.2992 53.036 22.8852 53.036H18.8892H18.6732C18.4572 53.216 18.2772 53.396 18.1692 53.558C18.0612 53.72 18.0072 53.918 18.0252 54.134C18.0792 54.602 18.3672 54.98 18.8892 55.304ZM19.0692 48.914C19.4832 49.508 20.0232 49.796 20.6712 49.796C21.1932 49.796 21.6072 49.562 21.9312 49.058C22.2372 48.554 22.3992 47.942 22.3992 47.204C22.3992 46.628 22.2912 46.106 22.1112 45.602C21.9312 45.098 21.6612 44.702 21.3372 44.396C21.0132 44.108 20.6352 43.946 20.2392 43.946C19.6632 43.946 19.2312 44.216 18.9252 44.756C18.6012 45.296 18.4572 45.908 18.4572 46.628C18.4572 47.564 18.6552 48.338 19.0692 48.914ZM31.3096 52.766C31.7416 52.766 32.0656 52.676 32.3176 52.496C32.5516 52.316 32.6776 52.01 32.6776 51.56C32.6776 51.416 32.6596 51.29 32.6596 51.2L32.1016 47.078C31.8856 45.548 31.2556 44.774 30.2296 44.774C29.7616 44.774 29.3656 44.972 29.0416 45.35C28.7176 45.746 28.5196 46.196 28.4656 46.736V51.182C28.4656 51.776 28.5736 52.19 28.7896 52.424C29.0056 52.658 29.3116 52.766 29.7256 52.766V53H25.2616V52.766C25.6576 52.766 25.9636 52.658 26.1796 52.406C26.3956 52.172 26.5216 51.758 26.5216 51.182V41.822C26.5216 41.39 26.4136 41.084 26.2336 40.904C26.0536 40.724 25.7476 40.634 25.3336 40.634V40.4C26.4856 40.328 27.4756 40.094 28.3036 39.698L28.4656 39.788V45.962C28.6276 45.314 28.9516 44.774 29.4376 44.342C29.9236 43.91 30.4996 43.694 31.1836 43.694C31.9576 43.694 32.5876 43.982 33.0916 44.522C33.5776 45.062 33.9016 45.908 34.0636 47.024L34.6756 51.2C34.7476 51.776 34.8916 52.19 35.1436 52.424C35.3776 52.658 35.7016 52.766 36.0976 52.766V53H31.3096V52.766ZM37.1879 52.352C36.7559 51.794 36.5399 51.074 36.5399 50.174V44.594H35.4059V44.342C36.1439 44.27 36.7739 44.018 37.2779 43.55C37.7819 43.082 38.1059 42.452 38.2499 41.642H38.5019V43.874H41.1839L40.8779 44.594H38.5019V49.976C38.5019 50.588 38.6279 51.092 38.8799 51.47C39.1319 51.866 39.4919 52.046 39.9419 52.046C40.3019 52.046 40.5899 51.938 40.8239 51.686C41.0579 51.434 41.2199 51.128 41.3099 50.75L41.5259 50.786C41.4359 51.47 41.1659 52.028 40.7339 52.496C40.2839 52.964 39.7439 53.18 39.1319 53.18C38.2679 53.18 37.6199 52.91 37.1879 52.352ZM47.4958 52.568C46.9198 52.172 46.4878 51.614 46.1638 50.894C45.8398 50.192 45.6958 49.4 45.6958 48.536C45.6958 47.672 45.8758 46.862 46.2538 46.124C46.6138 45.404 47.1358 44.81 47.7838 44.378C48.4318 43.946 49.1338 43.73 49.9258 43.73C50.8618 43.73 51.6538 44.09 52.2658 44.81V41.822C52.2658 41.39 52.1758 41.084 51.9958 40.904C51.8158 40.724 51.5098 40.634 51.0958 40.634V40.4C52.2478 40.328 53.2378 40.094 54.0478 39.698L54.2278 39.788V51.308C54.2278 51.704 54.3178 51.974 54.4978 52.118C54.6778 52.262 54.9838 52.316 55.4158 52.298V52.532C54.2278 52.676 53.2558 52.91 52.4638 53.216L52.2658 53.108V51.236C52.0858 51.722 51.7438 52.172 51.2398 52.568C50.7178 52.982 50.1058 53.18 49.3858 53.18C48.6838 53.18 48.0538 52.982 47.4958 52.568ZM48.1078 50.156C48.3418 50.804 48.6658 51.272 49.0798 51.596C49.4758 51.92 49.9258 52.082 50.4118 52.082C50.8438 52.082 51.2398 51.956 51.5638 51.704C51.8878 51.452 52.1218 51.11 52.2658 50.678V47.798C52.2658 46.79 52.0678 45.908 51.6718 45.17C51.2758 44.45 50.7358 44.072 50.0698 44.072C49.6018 44.072 49.2058 44.252 48.8458 44.576C48.4858 44.9 48.2158 45.35 48.0358 45.926C47.8378 46.502 47.7478 47.15 47.7478 47.87C47.7478 48.77 47.8558 49.526 48.1078 50.156ZM57.5723 52.55C56.9423 52.136 56.4563 51.56 56.1143 50.84C55.7543 50.12 55.5923 49.346 55.5923 48.482C55.5923 47.582 55.7723 46.772 56.1683 46.052C56.5643 45.332 57.0863 44.756 57.7703 44.324C58.4363 43.91 59.1743 43.694 59.9663 43.694C60.6503 43.694 61.2623 43.856 61.7663 44.162C62.2703 44.486 62.6663 44.9 62.9363 45.422C63.2063 45.962 63.3503 46.538 63.3503 47.15H57.5003C57.4823 47.222 57.4823 47.33 57.4823 47.456C57.4823 48.302 57.6083 49.04 57.8783 49.688C58.1303 50.336 58.5083 50.84 58.9943 51.2C59.4803 51.56 60.0563 51.722 60.7043 51.722C61.4243 51.722 62.0363 51.506 62.5403 51.074C63.0443 50.642 63.3683 50.084 63.5123 49.364L63.7643 49.4C63.6563 50.12 63.4043 50.768 63.0443 51.344C62.6843 51.92 62.2163 52.37 61.6403 52.694C61.0643 53.018 60.4343 53.18 59.7503 53.18C58.9223 53.18 58.2023 52.982 57.5723 52.55ZM60.6683 46.844C60.9203 46.844 61.1183 46.79 61.2263 46.664C61.3343 46.538 61.4063 46.322 61.4063 46.034C61.4063 45.53 61.2623 45.062 61.0103 44.63C60.7403 44.198 60.3443 43.964 59.8223 43.964C59.2823 43.964 58.7783 44.252 58.3463 44.81C57.8963 45.386 57.6263 46.052 57.5183 46.844H60.6683ZM66.621 52.856C65.955 52.64 65.361 52.352 64.821 51.992V41.822C64.821 41.39 64.713 41.084 64.533 40.904C64.353 40.724 64.047 40.634 63.633 40.634V40.4C64.785 40.328 65.775 40.094 66.603 39.698L66.765 39.788V45.89C66.927 45.332 67.269 44.828 67.791 44.396C68.295 43.964 68.907 43.73 69.609 43.73C70.311 43.73 70.941 43.946 71.499 44.378C72.039 44.81 72.471 45.368 72.777 46.07C73.065 46.79 73.227 47.546 73.227 48.356C73.227 49.292 73.029 50.138 72.633 50.858C72.237 51.596 71.679 52.172 70.995 52.568C70.311 52.982 69.537 53.18 68.709 53.18C67.989 53.18 67.287 53.072 66.621 52.856ZM67.269 52.01C67.611 52.622 68.133 52.91 68.817 52.91C69.537 52.91 70.131 52.55 70.563 51.812C70.995 51.092 71.211 50.138 71.211 48.968C71.211 48.104 71.085 47.348 70.869 46.7C70.653 46.07 70.347 45.584 69.969 45.26C69.573 44.936 69.141 44.756 68.655 44.756C68.187 44.756 67.791 44.936 67.449 45.26C67.089 45.584 66.873 45.998 66.765 46.502V49.166C66.765 50.462 66.927 51.398 67.269 52.01ZM80.0618 52.658C79.7738 52.334 79.5938 51.866 79.5218 51.272L79.4678 50.876C79.3958 51.272 79.2158 51.65 78.9638 51.992C78.6938 52.352 78.3518 52.64 77.9378 52.856C77.5058 53.072 77.0378 53.18 76.5158 53.18C75.7598 53.18 75.1298 52.964 74.6438 52.532C74.1578 52.1 73.9238 51.542 73.9238 50.858C73.9238 50.246 74.1218 49.742 74.5538 49.346C74.9858 48.95 75.5978 48.716 76.3898 48.644L79.1258 48.428L78.9998 47.51C78.8918 46.664 78.6398 45.998 78.2438 45.512C77.8478 45.044 77.3258 44.792 76.6778 44.792C76.1558 44.792 75.7058 44.954 75.3098 45.242C74.9138 45.53 74.6258 45.926 74.4278 46.412L74.1938 46.358C74.3018 45.926 74.5178 45.494 74.8418 45.08C75.1658 44.684 75.5618 44.342 76.0478 44.09C76.5338 43.838 77.0738 43.694 77.6678 43.694C78.5678 43.694 79.3058 43.982 79.8638 44.558C80.4218 45.134 80.7638 45.962 80.9078 47.024L81.4298 51.002C81.5198 51.686 81.7538 52.01 82.1498 52.01C82.2578 52.01 82.3658 51.974 82.4558 51.866C82.5458 51.776 82.5998 51.65 82.6358 51.488L82.8518 51.506C82.8158 51.938 82.6718 52.316 82.3838 52.64C82.0958 52.982 81.7178 53.144 81.2498 53.144C80.7458 53.144 80.3498 52.982 80.0618 52.658ZM76.2098 51.632C76.5158 51.956 76.9298 52.118 77.4698 52.118C78.0098 52.118 78.4598 51.956 78.8198 51.632C79.1618 51.308 79.3598 50.912 79.4138 50.462L79.1618 48.698L77.3978 48.842C76.8578 48.896 76.4438 49.076 76.1558 49.364C75.8678 49.652 75.7418 50.03 75.7418 50.462C75.7418 50.93 75.8858 51.308 76.2098 51.632ZM84.2797 52.352C83.8477 51.794 83.6317 51.074 83.6317 50.174V44.594H82.4977V44.342C83.2357 44.27 83.8657 44.018 84.3697 43.55C84.8737 43.082 85.1977 42.452 85.3417 41.642H85.5937V43.874H88.2757L87.9697 44.594H85.5937V49.976C85.5937 50.588 85.7197 51.092 85.9717 51.47C86.2237 51.866 86.5837 52.046 87.0337 52.046C87.3937 52.046 87.6817 51.938 87.9157 51.686C88.1497 51.434 88.3117 51.128 88.4017 50.75L88.6177 50.786C88.5277 51.47 88.2577 52.028 87.8257 52.496C87.3757 52.964 86.8357 53.18 86.2237 53.18C85.3597 53.18 84.7117 52.91 84.2797 52.352ZM90.7247 52.55C90.0947 52.136 89.6087 51.56 89.2667 50.84C88.9067 50.12 88.7447 49.346 88.7447 48.482C88.7447 47.582 88.9247 46.772 89.3207 46.052C89.7167 45.332 90.2387 44.756 90.9227 44.324C91.5887 43.91 92.3267 43.694 93.1187 43.694C93.8027 43.694 94.4147 43.856 94.9187 44.162C95.4227 44.486 95.8187 44.9 96.0887 45.422C96.3587 45.962 96.5027 46.538 96.5027 47.15H90.6527C90.6347 47.222 90.6347 47.33 90.6347 47.456C90.6347 48.302 90.7607 49.04 91.0307 49.688C91.2827 50.336 91.6607 50.84 92.1467 51.2C92.6327 51.56 93.2087 51.722 93.8567 51.722C94.5767 51.722 95.1887 51.506 95.6927 51.074C96.1967 50.642 96.5207 50.084 96.6647 49.364L96.9167 49.4C96.8087 50.12 96.5567 50.768 96.1967 51.344C95.8367 51.92 95.3687 52.37 94.7927 52.694C94.2167 53.018 93.5867 53.18 92.9027 53.18C92.0747 53.18 91.3547 52.982 90.7247 52.55ZM93.8207 46.844C94.0727 46.844 94.2707 46.79 94.3787 46.664C94.4867 46.538 94.5587 46.322 94.5587 46.034C94.5587 45.53 94.4147 45.062 94.1627 44.63C93.8927 44.198 93.4967 43.964 92.9747 43.964C92.4347 43.964 91.9307 44.252 91.4987 44.81C91.0487 45.386 90.7787 46.052 90.6707 46.844H93.8207ZM97.6735 49.418L97.9075 49.364C98.1955 50.282 98.6095 51.092 99.1495 51.794C99.6895 52.514 100.392 52.874 101.292 52.874C101.85 52.874 102.3 52.73 102.624 52.442C102.948 52.154 103.128 51.776 103.146 51.326C103.146 50.894 102.984 50.516 102.678 50.228C102.354 49.94 101.85 49.67 101.13 49.418L100.05 48.986C99.2935 48.698 98.7355 48.356 98.3395 47.924C97.9435 47.492 97.7635 46.952 97.7635 46.304C97.7635 45.836 97.8895 45.386 98.1775 44.99C98.4475 44.594 98.8255 44.288 99.3115 44.054C99.7975 43.838 100.338 43.712 100.914 43.712C101.382 43.712 101.922 43.82 102.516 44.018C102.84 44.126 103.056 44.162 103.164 44.162C103.416 44.162 103.614 43.982 103.722 43.604L103.974 43.586L104.208 47.114L103.956 47.15C103.812 46.682 103.596 46.214 103.308 45.728C103.02 45.242 102.66 44.828 102.246 44.486C101.813 44.162 101.364 43.982 100.878 43.982C100.392 43.982 99.9955 44.126 99.7075 44.414C99.4195 44.702 99.2755 45.062 99.2755 45.458C99.2755 45.854 99.4195 46.214 99.7255 46.502C100.032 46.79 100.518 47.06 101.166 47.276L102.228 47.708C103.038 48.014 103.632 48.374 104.028 48.788C104.424 49.202 104.622 49.706 104.622 50.3C104.622 50.894 104.46 51.398 104.172 51.83C103.866 52.262 103.47 52.604 102.984 52.82C102.498 53.054 101.976 53.162 101.418 53.162C101.094 53.162 100.788 53.144 100.536 53.09C100.266 53.036 99.9595 52.964 99.6175 52.856C99.2395 52.748 98.9875 52.694 98.8615 52.694C98.7175 52.694 98.5915 52.748 98.5015 52.82C98.4115 52.892 98.3215 53.018 98.2495 53.198L97.9795 53.216L97.6735 49.418ZM111.438 52.55C110.736 52.136 110.178 51.56 109.782 50.822C109.368 50.102 109.17 49.292 109.17 48.392C109.17 47.474 109.368 46.664 109.782 45.944C110.178 45.224 110.736 44.684 111.438 44.288C112.122 43.892 112.878 43.694 113.706 43.694C114.534 43.694 115.29 43.91 115.974 44.306C116.658 44.72 117.216 45.278 117.63 45.998C118.026 46.718 118.242 47.528 118.242 48.428C118.242 49.346 118.044 50.174 117.648 50.894C117.252 51.614 116.694 52.19 116.01 52.586C115.326 52.982 114.57 53.18 113.742 53.18C112.896 53.18 112.122 52.982 111.438 52.55ZM112.266 51.722C112.77 52.478 113.382 52.838 114.066 52.838C114.75 52.838 115.272 52.514 115.65 51.848C116.01 51.2 116.208 50.336 116.208 49.274C116.208 48.932 116.172 48.5 116.118 47.996C115.956 46.808 115.632 45.854 115.128 45.134C114.624 44.414 114.048 44.036 113.382 44.036C112.68 44.036 112.14 44.378 111.762 45.044C111.384 45.728 111.204 46.592 111.204 47.636C111.204 48.068 111.222 48.446 111.276 48.788C111.42 49.994 111.762 50.966 112.266 51.722ZM124.369 52.766C124.765 52.766 125.089 52.676 125.323 52.496C125.557 52.316 125.683 52.01 125.683 51.56C125.683 51.416 125.665 51.29 125.665 51.2L125.107 47.078C124.891 45.548 124.261 44.774 123.235 44.774C122.767 44.774 122.353 44.972 122.029 45.35C121.705 45.746 121.507 46.196 121.471 46.736V51.182C121.471 51.776 121.579 52.19 121.795 52.424C122.011 52.658 122.317 52.766 122.731 52.766V53H118.267V52.766C118.663 52.766 118.969 52.658 119.185 52.406C119.401 52.172 119.527 51.758 119.527 51.182V45.836C119.527 45.404 119.419 45.116 119.239 44.936C119.059 44.756 118.753 44.666 118.339 44.648V44.414C119.491 44.342 120.481 44.108 121.309 43.712L121.471 43.802V45.962C121.633 45.314 121.957 44.774 122.443 44.342C122.929 43.91 123.505 43.694 124.189 43.694C124.963 43.694 125.593 43.982 126.097 44.522C126.583 45.062 126.907 45.908 127.069 47.024L127.681 51.2C127.753 51.776 127.897 52.19 128.131 52.424C128.347 52.658 128.653 52.766 129.049 52.766V53H124.369V52.766ZM135.291 52.766C134.841 52.478 134.499 52.064 134.247 51.524C133.995 50.984 133.869 50.336 133.869 49.598V45.836C133.869 45.404 133.761 45.116 133.581 44.936C133.401 44.756 133.095 44.666 132.681 44.648V44.414C133.833 44.342 134.823 44.108 135.651 43.712L135.813 43.802V49.4C135.813 50.228 135.957 50.894 136.281 51.362C136.587 51.848 137.055 52.082 137.685 52.082C138.225 52.082 138.639 51.902 138.945 51.524C139.251 51.146 139.431 50.696 139.485 50.192V45.836C139.485 45.404 139.377 45.116 139.197 44.936C139.017 44.756 138.711 44.666 138.297 44.648V44.414C139.449 44.342 140.439 44.108 141.267 43.712L141.429 43.802V51.308C141.429 51.704 141.519 51.974 141.699 52.118C141.879 52.262 142.203 52.316 142.635 52.298V52.532C141.465 52.676 140.475 52.91 139.665 53.216L139.485 53.108V51.056C139.287 51.632 138.963 52.136 138.513 52.568C138.045 53 137.487 53.198 136.803 53.198C136.227 53.198 135.723 53.054 135.291 52.766ZM142.807 52.766C143.203 52.766 143.509 52.658 143.725 52.406C143.941 52.172 144.067 51.758 144.067 51.182V45.836C144.067 45.404 143.977 45.116 143.797 44.936C143.617 44.756 143.311 44.666 142.879 44.648V44.414C144.031 44.342 145.021 44.108 145.849 43.712L146.011 43.802V45.764C146.155 45.206 146.425 44.72 146.821 44.306C147.217 43.91 147.667 43.694 148.207 43.694C148.621 43.694 148.963 43.838 149.233 44.09C149.485 44.36 149.629 44.666 149.629 45.008C149.629 45.314 149.521 45.566 149.341 45.782C149.161 45.998 148.909 46.088 148.603 46.088C148.387 46.088 148.225 46.052 148.099 45.944C147.973 45.854 147.865 45.728 147.793 45.584C147.721 45.44 147.649 45.296 147.613 45.152C147.541 45.008 147.487 44.918 147.433 44.846C147.361 44.792 147.289 44.756 147.181 44.756C146.893 44.756 146.641 44.936 146.425 45.26C146.209 45.602 146.065 45.998 146.011 46.448V51.182C146.011 51.758 146.155 52.172 146.443 52.406C146.731 52.658 147.127 52.766 147.649 52.766V53H142.807V52.766ZM152.297 52.856C151.631 52.64 151.037 52.352 150.497 51.992V41.822C150.497 41.39 150.389 41.084 150.209 40.904C150.029 40.724 149.723 40.634 149.309 40.634V40.4C150.461 40.328 151.451 40.094 152.279 39.698L152.441 39.788V45.89C152.603 45.332 152.945 44.828 153.467 44.396C153.971 43.964 154.583 43.73 155.285 43.73C155.987 43.73 156.617 43.946 157.175 44.378C157.715 44.81 158.147 45.368 158.453 46.07C158.741 46.79 158.903 47.546 158.903 48.356C158.903 49.292 158.705 50.138 158.309 50.858C157.913 51.596 157.355 52.172 156.671 52.568C155.987 52.982 155.213 53.18 154.385 53.18C153.665 53.18 152.963 53.072 152.297 52.856ZM152.945 52.01C153.287 52.622 153.809 52.91 154.493 52.91C155.213 52.91 155.807 52.55 156.239 51.812C156.671 51.092 156.887 50.138 156.887 48.968C156.887 48.104 156.761 47.348 156.545 46.7C156.329 46.07 156.023 45.584 155.645 45.26C155.249 44.936 154.817 44.756 154.331 44.756C153.863 44.756 153.467 44.936 153.125 45.26C152.765 45.584 152.549 45.998 152.441 46.502V49.166C152.441 50.462 152.603 51.398 152.945 52.01ZM165.738 52.658C165.45 52.334 165.27 51.866 165.198 51.272L165.144 50.876C165.072 51.272 164.892 51.65 164.64 51.992C164.37 52.352 164.028 52.64 163.614 52.856C163.182 53.072 162.714 53.18 162.192 53.18C161.436 53.18 160.806 52.964 160.32 52.532C159.834 52.1 159.6 51.542 159.6 50.858C159.6 50.246 159.798 49.742 160.23 49.346C160.662 48.95 161.274 48.716 162.066 48.644L164.802 48.428L164.676 47.51C164.568 46.664 164.316 45.998 163.92 45.512C163.524 45.044 163.002 44.792 162.354 44.792C161.832 44.792 161.382 44.954 160.986 45.242C160.59 45.53 160.302 45.926 160.104 46.412L159.87 46.358C159.978 45.926 160.194 45.494 160.518 45.08C160.842 44.684 161.238 44.342 161.724 44.09C162.21 43.838 162.75 43.694 163.344 43.694C164.244 43.694 164.982 43.982 165.54 44.558C166.098 45.134 166.44 45.962 166.584 47.024L167.106 51.002C167.196 51.686 167.43 52.01 167.826 52.01C167.934 52.01 168.042 51.974 168.132 51.866C168.222 51.776 168.276 51.65 168.312 51.488L168.528 51.506C168.492 51.938 168.348 52.316 168.06 52.64C167.772 52.982 167.394 53.144 166.926 53.144C166.422 53.144 166.026 52.982 165.738 52.658ZM161.886 51.632C162.192 51.956 162.606 52.118 163.146 52.118C163.686 52.118 164.136 51.956 164.496 51.632C164.838 51.308 165.036 50.912 165.09 50.462L164.838 48.698L163.074 48.842C162.534 48.896 162.12 49.076 161.832 49.364C161.544 49.652 161.418 50.03 161.418 50.462C161.418 50.93 161.562 51.308 161.886 51.632ZM174.625 52.766C175.021 52.766 175.345 52.676 175.579 52.496C175.813 52.316 175.939 52.01 175.939 51.56C175.939 51.416 175.921 51.29 175.921 51.2L175.363 47.078C175.147 45.548 174.517 44.774 173.491 44.774C173.023 44.774 172.609 44.972 172.285 45.35C171.961 45.746 171.763 46.196 171.727 46.736V51.182C171.727 51.776 171.835 52.19 172.051 52.424C172.267 52.658 172.573 52.766 172.987 52.766V53H168.523V52.766C168.919 52.766 169.225 52.658 169.441 52.406C169.657 52.172 169.783 51.758 169.783 51.182V45.836C169.783 45.404 169.675 45.116 169.495 44.936C169.315 44.756 169.009 44.666 168.595 44.648V44.414C169.747 44.342 170.737 44.108 171.565 43.712L171.727 43.802V45.962C171.889 45.314 172.213 44.774 172.699 44.342C173.185 43.91 173.761 43.694 174.445 43.694C175.219 43.694 175.849 43.982 176.353 44.522C176.839 45.062 177.163 45.908 177.325 47.024L177.937 51.2C178.009 51.776 178.153 52.19 178.387 52.424C178.603 52.658 178.909 52.766 179.305 52.766V53H174.625V52.766ZM185.871 52.856C185.205 52.64 184.611 52.352 184.071 51.992V41.822C184.071 41.39 183.963 41.084 183.783 40.904C183.603 40.724 183.297 40.634 182.883 40.634V40.4C184.035 40.328 185.025 40.094 185.853 39.698L186.015 39.788V45.89C186.177 45.332 186.519 44.828 187.041 44.396C187.545 43.964 188.157 43.73 188.859 43.73C189.561 43.73 190.191 43.946 190.749 44.378C191.289 44.81 191.721 45.368 192.027 46.07C192.315 46.79 192.477 47.546 192.477 48.356C192.477 49.292 192.279 50.138 191.883 50.858C191.487 51.596 190.929 52.172 190.245 52.568C189.561 52.982 188.787 53.18 187.959 53.18C187.239 53.18 186.537 53.072 185.871 52.856ZM186.519 52.01C186.861 52.622 187.383 52.91 188.067 52.91C188.787 52.91 189.381 52.55 189.813 51.812C190.245 51.092 190.461 50.138 190.461 48.968C190.461 48.104 190.335 47.348 190.119 46.7C189.903 46.07 189.597 45.584 189.219 45.26C188.823 44.936 188.391 44.756 187.905 44.756C187.437 44.756 187.041 44.936 186.699 45.26C186.339 45.584 186.123 45.998 186.015 46.502V49.166C186.015 50.462 186.177 51.398 186.519 52.01ZM193.722 41.966C193.488 41.714 193.38 41.408 193.38 41.012C193.38 40.652 193.488 40.364 193.722 40.13C193.956 39.896 194.262 39.77 194.64 39.77C195.018 39.77 195.324 39.896 195.558 40.13C195.792 40.364 195.918 40.652 195.918 41.012C195.918 41.408 195.792 41.714 195.558 41.966C195.324 42.218 195.018 42.326 194.64 42.326C194.262 42.326 193.956 42.218 193.722 41.966ZM192.57 52.766C192.966 52.766 193.272 52.658 193.488 52.406C193.704 52.172 193.83 51.758 193.83 51.182V45.836C193.83 45.404 193.722 45.116 193.542 44.936C193.362 44.756 193.056 44.666 192.642 44.648V44.414C193.794 44.342 194.784 44.108 195.612 43.712L195.774 43.802V51.182C195.774 51.776 195.882 52.19 196.098 52.424C196.314 52.658 196.62 52.766 197.034 52.766V53H192.57V52.766ZM199.382 52.55C198.68 52.136 198.122 51.56 197.726 50.822C197.312 50.102 197.114 49.292 197.114 48.392C197.114 47.474 197.312 46.664 197.726 45.944C198.122 45.224 198.68 44.684 199.382 44.288C200.066 43.892 200.822 43.694 201.65 43.694C202.478 43.694 203.234 43.91 203.918 44.306C204.602 44.72 205.16 45.278 205.574 45.998C205.97 46.718 206.186 47.528 206.186 48.428C206.186 49.346 205.988 50.174 205.592 50.894C205.196 51.614 204.638 52.19 203.954 52.586C203.27 52.982 202.514 53.18 201.686 53.18C200.84 53.18 200.066 52.982 199.382 52.55ZM200.21 51.722C200.714 52.478 201.326 52.838 202.01 52.838C202.694 52.838 203.216 52.514 203.594 51.848C203.954 51.2 204.152 50.336 204.152 49.274C204.152 48.932 204.116 48.5 204.062 47.996C203.9 46.808 203.576 45.854 203.072 45.134C202.568 44.414 201.992 44.036 201.326 44.036C200.624 44.036 200.084 44.378 199.706 45.044C199.328 45.728 199.148 46.592 199.148 47.636C199.148 48.068 199.166 48.446 199.22 48.788C199.364 49.994 199.706 50.966 200.21 51.722ZM208.968 52.568C208.392 52.172 207.96 51.614 207.636 50.894C207.312 50.192 207.168 49.4 207.168 48.536C207.168 47.672 207.348 46.862 207.726 46.124C208.086 45.404 208.608 44.81 209.256 44.378C209.904 43.946 210.606 43.73 211.398 43.73C212.334 43.73 213.126 44.09 213.738 44.81V41.822C213.738 41.39 213.648 41.084 213.468 40.904C213.288 40.724 212.982 40.634 212.568 40.634V40.4C213.72 40.328 214.71 40.094 215.52 39.698L215.7 39.788V51.308C215.7 51.704 215.79 51.974 215.97 52.118C216.15 52.262 216.456 52.316 216.888 52.298V52.532C215.7 52.676 214.728 52.91 213.936 53.216L213.738 53.108V51.236C213.558 51.722 213.216 52.172 212.712 52.568C212.19 52.982 211.578 53.18 210.858 53.18C210.156 53.18 209.526 52.982 208.968 52.568ZM209.58 50.156C209.814 50.804 210.138 51.272 210.552 51.596C210.948 51.92 211.398 52.082 211.884 52.082C212.316 52.082 212.712 51.956 213.036 51.704C213.36 51.452 213.594 51.11 213.738 50.678V47.798C213.738 46.79 213.54 45.908 213.144 45.17C212.748 44.45 212.208 44.072 211.542 44.072C211.074 44.072 210.678 44.252 210.318 44.576C209.958 44.9 209.688 45.35 209.508 45.926C209.31 46.502 209.22 47.15 209.22 47.87C209.22 48.77 209.328 49.526 209.58 50.156ZM218.209 41.966C217.975 41.714 217.867 41.408 217.867 41.012C217.867 40.652 217.975 40.364 218.209 40.13C218.443 39.896 218.749 39.77 219.127 39.77C219.505 39.77 219.811 39.896 220.045 40.13C220.279 40.364 220.405 40.652 220.405 41.012C220.405 41.408 220.279 41.714 220.045 41.966C219.811 42.218 219.505 42.326 219.127 42.326C218.749 42.326 218.443 42.218 218.209 41.966ZM217.057 52.766C217.453 52.766 217.759 52.658 217.975 52.406C218.191 52.172 218.317 51.758 218.317 51.182V45.836C218.317 45.404 218.209 45.116 218.029 44.936C217.849 44.756 217.543 44.666 217.129 44.648V44.414C218.281 44.342 219.271 44.108 220.099 43.712L220.261 43.802V51.182C220.261 51.776 220.369 52.19 220.585 52.424C220.801 52.658 221.107 52.766 221.521 52.766V53H217.057V52.766ZM224.1 52.28C223.596 51.686 223.236 50.768 223.038 49.526L222.408 45.674C222.3 45.098 222.138 44.702 221.904 44.468C221.652 44.234 221.346 44.108 220.95 44.108V43.874H225.342V44.108C224.64 44.108 224.298 44.468 224.298 45.188C224.298 45.404 224.298 45.566 224.334 45.674L224.874 48.986C225.018 49.958 225.27 50.696 225.612 51.182C225.936 51.686 226.422 51.92 227.07 51.92C227.538 51.92 227.988 51.758 228.438 51.398C228.888 51.038 229.248 50.57 229.536 49.958C229.806 49.364 229.95 48.716 229.95 47.996C229.95 47.204 229.788 46.556 229.482 46.088C229.176 45.62 228.762 45.368 228.24 45.368C227.988 45.368 227.736 45.422 227.52 45.512C227.412 45.566 227.286 45.584 227.142 45.584C226.89 45.584 226.674 45.512 226.494 45.332C226.314 45.152 226.242 44.936 226.242 44.648C226.242 44.396 226.332 44.162 226.512 43.982C226.692 43.802 226.944 43.712 227.304 43.712C227.808 43.712 228.276 43.874 228.726 44.162C229.176 44.45 229.536 44.9 229.824 45.494C230.112 46.106 230.256 46.844 230.256 47.708C230.256 48.698 230.058 49.616 229.68 50.444C229.284 51.29 228.78 51.956 228.15 52.442C227.52 52.946 226.854 53.18 226.152 53.18C225.288 53.18 224.604 52.892 224.1 52.28ZM233.213 52.55C232.583 52.136 232.097 51.56 231.755 50.84C231.395 50.12 231.233 49.346 231.233 48.482C231.233 47.582 231.413 46.772 231.809 46.052C232.205 45.332 232.727 44.756 233.411 44.324C234.077 43.91 234.815 43.694 235.607 43.694C236.291 43.694 236.903 43.856 237.407 44.162C237.911 44.486 238.307 44.9 238.577 45.422C238.847 45.962 238.991 46.538 238.991 47.15H233.141C233.123 47.222 233.123 47.33 233.123 47.456C233.123 48.302 233.249 49.04 233.519 49.688C233.771 50.336 234.149 50.84 234.635 51.2C235.121 51.56 235.697 51.722 236.345 51.722C237.065 51.722 237.677 51.506 238.181 51.074C238.685 50.642 239.009 50.084 239.153 49.364L239.405 49.4C239.297 50.12 239.045 50.768 238.685 51.344C238.325 51.92 237.857 52.37 237.281 52.694C236.705 53.018 236.075 53.18 235.391 53.18C234.563 53.18 233.843 52.982 233.213 52.55ZM236.309 46.844C236.561 46.844 236.759 46.79 236.867 46.664C236.975 46.538 237.047 46.322 237.047 46.034C237.047 45.53 236.903 45.062 236.651 44.63C236.381 44.198 235.985 43.964 235.463 43.964C234.923 43.964 234.419 44.252 233.987 44.81C233.537 45.386 233.267 46.052 233.159 46.844H236.309ZM239.328 52.766C239.724 52.766 240.03 52.658 240.246 52.406C240.462 52.172 240.588 51.758 240.588 51.182V45.836C240.588 45.404 240.498 45.116 240.318 44.936C240.138 44.756 239.832 44.666 239.4 44.648V44.414C240.552 44.342 241.542 44.108 242.37 43.712L242.532 43.802V45.764C242.676 45.206 242.946 44.72 243.342 44.306C243.738 43.91 244.188 43.694 244.728 43.694C245.142 43.694 245.484 43.838 245.754 44.09C246.006 44.36 246.15 44.666 246.15 45.008C246.15 45.314 246.042 45.566 245.862 45.782C245.682 45.998 245.43 46.088 245.124 46.088C244.908 46.088 244.746 46.052 244.62 45.944C244.494 45.854 244.386 45.728 244.314 45.584C244.242 45.44 244.17 45.296 244.134 45.152C244.062 45.008 244.008 44.918 243.954 44.846C243.882 44.792 243.81 44.756 243.702 44.756C243.414 44.756 243.162 44.936 242.946 45.26C242.73 45.602 242.586 45.998 242.532 46.448V51.182C242.532 51.758 242.676 52.172 242.964 52.406C243.252 52.658 243.648 52.766 244.17 52.766V53H239.328V52.766ZM246.49 49.418L246.724 49.364C247.012 50.282 247.426 51.092 247.966 51.794C248.506 52.514 249.208 52.874 250.108 52.874C250.666 52.874 251.116 52.73 251.44 52.442C251.764 52.154 251.944 51.776 251.962 51.326C251.962 50.894 251.8 50.516 251.494 50.228C251.17 49.94 250.666 49.67 249.946 49.418L248.866 48.986C248.11 48.698 247.552 48.356 247.156 47.924C246.76 47.492 246.58 46.952 246.58 46.304C246.58 45.836 246.706 45.386 246.994 44.99C247.264 44.594 247.642 44.288 248.128 44.054C248.614 43.838 249.154 43.712 249.73 43.712C250.198 43.712 250.738 43.82 251.332 44.018C251.656 44.126 251.872 44.162 251.98 44.162C252.232 44.162 252.43 43.982 252.538 43.604L252.79 43.586L253.024 47.114L252.772 47.15C252.628 46.682 252.412 46.214 252.124 45.728C251.836 45.242 251.476 44.828 251.062 44.486C250.63 44.162 250.18 43.982 249.694 43.982C249.208 43.982 248.812 44.126 248.524 44.414C248.236 44.702 248.092 45.062 248.092 45.458C248.092 45.854 248.236 46.214 248.542 46.502C248.848 46.79 249.334 47.06 249.982 47.276L251.044 47.708C251.854 48.014 252.448 48.374 252.844 48.788C253.24 49.202 253.438 49.706 253.438 50.3C253.438 50.894 253.276 51.398 252.988 51.83C252.682 52.262 252.286 52.604 251.8 52.82C251.314 53.054 250.792 53.162 250.234 53.162C249.91 53.162 249.604 53.144 249.352 53.09C249.082 53.036 248.776 52.964 248.434 52.856C248.056 52.748 247.804 52.694 247.678 52.694C247.534 52.694 247.408 52.748 247.318 52.82C247.228 52.892 247.138 53.018 247.066 53.198L246.796 53.216L246.49 49.418ZM254.912 41.966C254.678 41.714 254.57 41.408 254.57 41.012C254.57 40.652 254.678 40.364 254.912 40.13C255.146 39.896 255.452 39.77 255.83 39.77C256.208 39.77 256.514 39.896 256.748 40.13C256.982 40.364 257.108 40.652 257.108 41.012C257.108 41.408 256.982 41.714 256.748 41.966C256.514 42.218 256.208 42.326 255.83 42.326C255.452 42.326 255.146 42.218 254.912 41.966ZM253.76 52.766C254.156 52.766 254.462 52.658 254.678 52.406C254.894 52.172 255.02 51.758 255.02 51.182V45.836C255.02 45.404 254.912 45.116 254.732 44.936C254.552 44.756 254.246 44.666 253.832 44.648V44.414C254.984 44.342 255.974 44.108 256.802 43.712L256.964 43.802V51.182C256.964 51.776 257.072 52.19 257.288 52.424C257.504 52.658 257.81 52.766 258.224 52.766V53H253.76V52.766ZM259.85 52.352C259.418 51.794 259.202 51.074 259.202 50.174V44.594H258.068V44.342C258.806 44.27 259.436 44.018 259.94 43.55C260.444 43.082 260.768 42.452 260.912 41.642H261.164V43.874H263.846L263.54 44.594H261.164V49.976C261.164 50.588 261.29 51.092 261.542 51.47C261.794 51.866 262.154 52.046 262.604 52.046C262.964 52.046 263.252 51.938 263.486 51.686C263.72 51.434 263.882 51.128 263.972 50.75L264.188 50.786C264.098 51.47 263.828 52.028 263.396 52.496C262.946 52.964 262.406 53.18 261.794 53.18C260.93 53.18 260.282 52.91 259.85 52.352ZM266.885 56.42C266.417 56.204 266.039 55.898 265.787 55.538C265.535 55.178 265.409 54.782 265.409 54.368C265.409 54.08 265.499 53.864 265.679 53.684C265.859 53.504 266.075 53.414 266.345 53.414C266.615 53.414 266.849 53.522 267.029 53.72C267.209 53.918 267.317 54.152 267.317 54.44C267.317 54.584 267.299 54.71 267.263 54.854C267.245 54.908 267.227 54.98 267.227 55.052C267.209 55.142 267.209 55.214 267.209 55.286C267.209 55.646 267.335 55.934 267.605 56.15C267.857 56.366 268.181 56.456 268.559 56.456C270.125 56.456 270.917 55.052 270.917 52.208V50.804C270.719 51.38 270.395 51.884 269.945 52.316C269.477 52.748 268.919 52.946 268.235 52.946C267.659 52.946 267.155 52.802 266.723 52.514C266.273 52.226 265.931 51.812 265.679 51.272C265.427 50.732 265.301 50.084 265.301 49.346V45.836C265.301 45.404 265.193 45.116 265.013 44.936C264.833 44.756 264.527 44.666 264.113 44.648V44.414C265.265 44.342 266.255 44.108 267.083 43.712L267.245 43.802V49.148C267.245 49.976 267.389 50.642 267.713 51.11C268.019 51.596 268.487 51.83 269.117 51.83C269.657 51.83 270.071 51.65 270.377 51.272C270.683 50.894 270.863 50.444 270.917 49.94V45.836C270.917 45.404 270.809 45.116 270.629 44.936C270.449 44.756 270.143 44.666 269.729 44.648V44.414C270.881 44.342 271.871 44.108 272.699 43.712L272.861 43.802V51.992C272.861 53.018 272.645 53.882 272.249 54.602C271.835 55.322 271.295 55.862 270.647 56.222C269.999 56.582 269.297 56.744 268.541 56.744C267.911 56.744 267.353 56.636 266.885 56.42ZM1.486 74.418L1.72 74.364C2.008 75.282 2.422 76.092 2.962 76.794C3.502 77.514 4.204 77.874 5.104 77.874C5.662 77.874 6.112 77.73 6.436 77.442C6.76 77.154 6.94 76.776 6.958 76.326C6.958 75.894 6.796 75.516 6.49 75.228C6.166 74.94 5.662 74.67 4.942 74.418L3.862 73.986C3.106 73.698 2.548 73.356 2.152 72.924C1.756 72.492 1.576 71.952 1.576 71.304C1.576 70.836 1.702 70.386 1.99 69.99C2.26 69.594 2.638 69.288 3.124 69.054C3.61 68.838 4.15 68.712 4.726 68.712C5.194 68.712 5.734 68.82 6.328 69.018C6.652 69.126 6.868 69.162 6.976 69.162C7.228 69.162 7.426 68.982 7.534 68.604L7.786 68.586L8.02 72.114L7.768 72.15C7.624 71.682 7.408 71.214 7.12 70.728C6.832 70.242 6.472 69.828 6.058 69.486C5.626 69.162 5.176 68.982 4.69 68.982C4.204 68.982 3.808 69.126 3.52 69.414C3.232 69.702 3.088 70.062 3.088 70.458C3.088 70.854 3.232 71.214 3.538 71.502C3.844 71.79 4.33 72.06 4.978 72.276L6.04 72.708C6.85 73.014 7.444 73.374 7.84 73.788C8.236 74.202 8.434 74.706 8.434 75.3C8.434 75.894 8.272 76.398 7.984 76.83C7.678 77.262 7.282 77.604 6.796 77.82C6.31 78.054 5.788 78.162 5.23 78.162C4.906 78.162 4.6 78.144 4.348 78.09C4.078 78.036 3.772 77.964 3.43 77.856C3.052 77.748 2.8 77.694 2.674 77.694C2.53 77.694 2.404 77.748 2.314 77.82C2.224 77.892 2.134 78.018 2.062 78.198L1.792 78.216L1.486 74.418ZM11.254 77.55C10.624 77.136 10.138 76.56 9.79595 75.84C9.43595 75.12 9.27395 74.346 9.27395 73.482C9.27395 72.582 9.45395 71.772 9.84995 71.052C10.246 70.332 10.768 69.756 11.452 69.324C12.118 68.91 12.856 68.694 13.648 68.694C14.332 68.694 14.944 68.856 15.448 69.162C15.952 69.486 16.348 69.9 16.618 70.422C16.888 70.962 17.032 71.538 17.032 72.15H11.182C11.164 72.222 11.164 72.33 11.164 72.456C11.164 73.302 11.29 74.04 11.56 74.688C11.812 75.336 12.19 75.84 12.676 76.2C13.162 76.56 13.738 76.722 14.386 76.722C15.106 76.722 15.718 76.506 16.222 76.074C16.726 75.642 17.05 75.084 17.194 74.364L17.446 74.4C17.338 75.12 17.086 75.768 16.726 76.344C16.366 76.92 15.898 77.37 15.322 77.694C14.746 78.018 14.116 78.18 13.432 78.18C12.604 78.18 11.884 77.982 11.254 77.55ZM14.35 71.844C14.602 71.844 14.8 71.79 14.908 71.664C15.016 71.538 15.088 71.322 15.088 71.034C15.088 70.53 14.944 70.062 14.692 69.63C14.422 69.198 14.026 68.964 13.504 68.964C12.964 68.964 12.46 69.252 12.028 69.81C11.578 70.386 11.308 71.052 11.2 71.844H14.35ZM20.0782 77.55C19.4482 77.136 18.9622 76.56 18.6202 75.84C18.2602 75.12 18.0982 74.346 18.0982 73.482C18.0982 72.582 18.2782 71.772 18.6742 71.052C19.0702 70.332 19.5922 69.756 20.2762 69.324C20.9422 68.91 21.6802 68.694 22.4722 68.694C23.1562 68.694 23.7682 68.856 24.2722 69.162C24.7762 69.486 25.1722 69.9 25.4422 70.422C25.7122 70.962 25.8562 71.538 25.8562 72.15H20.0062C19.9882 72.222 19.9882 72.33 19.9882 72.456C19.9882 73.302 20.1142 74.04 20.3842 74.688C20.6362 75.336 21.0142 75.84 21.5002 76.2C21.9862 76.56 22.5622 76.722 23.2102 76.722C23.9302 76.722 24.5422 76.506 25.0462 76.074C25.5502 75.642 25.8742 75.084 26.0182 74.364L26.2702 74.4C26.1622 75.12 25.9102 75.768 25.5502 76.344C25.1902 76.92 24.7222 77.37 24.1462 77.694C23.5702 78.018 22.9402 78.18 22.2562 78.18C21.4282 78.18 20.7082 77.982 20.0782 77.55ZM23.1742 71.844C23.4262 71.844 23.6242 71.79 23.7322 71.664C23.8402 71.538 23.9122 71.322 23.9122 71.034C23.9122 70.53 23.7682 70.062 23.5162 69.63C23.2462 69.198 22.8502 68.964 22.3282 68.964C21.7882 68.964 21.2842 69.252 20.8522 69.81C20.4022 70.386 20.1322 71.052 20.0242 71.844H23.1742ZM32.2953 77.766C32.6913 77.766 33.0153 77.676 33.2493 77.496C33.4833 77.316 33.6093 77.01 33.6093 76.56C33.6093 76.416 33.5913 76.29 33.5913 76.2L33.0333 72.078C32.8173 70.548 32.1873 69.774 31.1613 69.774C30.6933 69.774 30.2793 69.972 29.9553 70.35C29.6313 70.746 29.4333 71.196 29.3973 71.736V76.182C29.3973 76.776 29.5053 77.19 29.7213 77.424C29.9373 77.658 30.2433 77.766 30.6572 77.766V78H26.1933V77.766C26.5893 77.766 26.8953 77.658 27.1113 77.406C27.3273 77.172 27.4533 76.758 27.4533 76.182V70.836C27.4533 70.404 27.3453 70.116 27.1653 69.936C26.9853 69.756 26.6793 69.666 26.2653 69.648V69.414C27.4173 69.342 28.4072 69.108 29.2353 68.712L29.3973 68.802V70.962C29.5593 70.314 29.8833 69.774 30.3693 69.342C30.8553 68.91 31.4313 68.694 32.1153 68.694C32.8893 68.694 33.5193 68.982 34.0233 69.522C34.5093 70.062 34.8333 70.908 34.9953 72.024L35.6073 76.2C35.6793 76.776 35.8233 77.19 36.0573 77.424C36.2733 77.658 36.5793 77.766 36.9753 77.766V78H32.2953V77.766ZM42.4789 77.352C42.0469 76.794 41.8309 76.074 41.8309 75.174V69.594H40.6969V69.342C41.4349 69.27 42.0649 69.018 42.5689 68.55C43.0729 68.082 43.3969 67.452 43.5409 66.642H43.7929V68.874H46.4749L46.1689 69.594H43.7929V74.976C43.7929 75.588 43.9189 76.092 44.1709 76.47C44.4229 76.866 44.7829 77.046 45.2329 77.046C45.5929 77.046 45.8809 76.938 46.1149 76.686C46.3489 76.434 46.5109 76.128 46.6009 75.75L46.8169 75.786C46.7269 76.47 46.4569 77.028 46.0249 77.496C45.5749 77.964 45.0349 78.18 44.4229 78.18C43.5589 78.18 42.9109 77.91 42.4789 77.352ZM52.6846 77.766C53.1166 77.766 53.4406 77.676 53.6926 77.496C53.9266 77.316 54.0526 77.01 54.0526 76.56C54.0526 76.416 54.0346 76.29 54.0346 76.2L53.4766 72.078C53.2606 70.548 52.6306 69.774 51.6046 69.774C51.1366 69.774 50.7406 69.972 50.4166 70.35C50.0926 70.746 49.8946 71.196 49.8406 71.736V76.182C49.8406 76.776 49.9486 77.19 50.1646 77.424C50.3806 77.658 50.6866 77.766 51.1006 77.766V78H46.6366V77.766C47.0326 77.766 47.3386 77.658 47.5546 77.406C47.7706 77.172 47.8966 76.758 47.8966 76.182V66.822C47.8966 66.39 47.7886 66.084 47.6086 65.904C47.4286 65.724 47.1226 65.634 46.7086 65.634V65.4C47.8606 65.328 48.8506 65.094 49.6786 64.698L49.8406 64.788V70.962C50.0026 70.314 50.3266 69.774 50.8126 69.342C51.2986 68.91 51.8746 68.694 52.5586 68.694C53.3326 68.694 53.9626 68.982 54.4666 69.522C54.9526 70.062 55.2766 70.908 55.4386 72.024L56.0506 76.2C56.1226 76.776 56.2666 77.19 56.5186 77.424C56.7526 77.658 57.0766 77.766 57.4726 77.766V78H52.6846V77.766ZM57.4999 77.766C57.8959 77.766 58.2019 77.658 58.4179 77.406C58.6339 77.172 58.7599 76.758 58.7599 76.182V70.836C58.7599 70.404 58.6699 70.116 58.4899 69.936C58.3099 69.756 58.0039 69.666 57.5719 69.648V69.414C58.7239 69.342 59.7139 69.108 60.5419 68.712L60.7039 68.802V70.764C60.8479 70.206 61.1179 69.72 61.5139 69.306C61.9099 68.91 62.3599 68.694 62.8999 68.694C63.3139 68.694 63.6559 68.838 63.9259 69.09C64.1779 69.36 64.3219 69.666 64.3219 70.008C64.3219 70.314 64.2139 70.566 64.0339 70.782C63.8539 70.998 63.6019 71.088 63.2959 71.088C63.0799 71.088 62.9179 71.052 62.7919 70.944C62.6659 70.854 62.5579 70.728 62.4859 70.584C62.4139 70.44 62.3419 70.296 62.3059 70.152C62.2339 70.008 62.1799 69.918 62.1259 69.846C62.0539 69.792 61.9819 69.756 61.8739 69.756C61.5859 69.756 61.3339 69.936 61.1179 70.26C60.9019 70.602 60.7579 70.998 60.7039 71.448V76.182C60.7039 76.758 60.8479 77.172 61.1359 77.406C61.4239 77.658 61.8199 77.766 62.3419 77.766V78H57.4999V77.766ZM66.5791 77.55C65.8771 77.136 65.3191 76.56 64.9231 75.822C64.5091 75.102 64.3111 74.292 64.3111 73.392C64.3111 72.474 64.5091 71.664 64.9231 70.944C65.3191 70.224 65.8771 69.684 66.5791 69.288C67.2631 68.892 68.0191 68.694 68.8471 68.694C69.6751 68.694 70.4311 68.91 71.1151 69.306C71.7991 69.72 72.3571 70.278 72.7711 70.998C73.1671 71.718 73.3831 72.528 73.3831 73.428C73.3831 74.346 73.1851 75.174 72.7891 75.894C72.3931 76.614 71.8351 77.19 71.1511 77.586C70.4671 77.982 69.7111 78.18 68.8831 78.18C68.0371 78.18 67.2631 77.982 66.5791 77.55ZM67.4071 76.722C67.9111 77.478 68.5231 77.838 69.2071 77.838C69.8911 77.838 70.4131 77.514 70.7911 76.848C71.1511 76.2 71.3491 75.336 71.3491 74.274C71.3491 73.932 71.3131 73.5 71.2591 72.996C71.0971 71.808 70.7731 70.854 70.2691 70.134C69.7651 69.414 69.1891 69.036 68.5231 69.036C67.8211 69.036 67.2811 69.378 66.9031 70.044C66.5251 70.728 66.3451 71.592 66.3451 72.636C66.3451 73.068 66.3631 73.446 66.4171 73.788C66.5611 74.994 66.9031 75.966 67.4071 76.722ZM76.0353 77.766C75.5853 77.478 75.2433 77.064 74.9913 76.524C74.7393 75.984 74.6133 75.336 74.6133 74.598V70.836C74.6133 70.404 74.5053 70.116 74.3253 69.936C74.1453 69.756 73.8393 69.666 73.4253 69.648V69.414C74.5773 69.342 75.5673 69.108 76.3953 68.712L76.5573 68.802V74.4C76.5573 75.228 76.7013 75.894 77.0253 76.362C77.3313 76.848 77.7993 77.082 78.4293 77.082C78.9693 77.082 79.3833 76.902 79.6893 76.524C79.9953 76.146 80.1753 75.696 80.2293 75.192V70.836C80.2293 70.404 80.1213 70.116 79.9413 69.936C79.7613 69.756 79.4553 69.666 79.0413 69.648V69.414C80.1933 69.342 81.1833 69.108 82.0113 68.712L82.1733 68.802V76.308C82.1733 76.704 82.2633 76.974 82.4433 77.118C82.6233 77.262 82.9473 77.316 83.3793 77.298V77.532C82.2093 77.676 81.2193 77.91 80.4093 78.216L80.2293 78.108V76.056C80.0313 76.632 79.7073 77.136 79.2573 77.568C78.7893 78 78.2313 78.198 77.5473 78.198C76.9713 78.198 76.4673 78.054 76.0353 77.766ZM85.3494 81.42C84.8274 81.204 84.4314 80.916 84.1614 80.556C83.8914 80.214 83.7654 79.854 83.7654 79.476C83.7654 79.224 83.9274 78.972 84.2514 78.72C84.5754 78.486 85.0254 78.234 85.6014 77.982C85.1154 77.874 84.7374 77.676 84.4674 77.352C84.1974 77.028 84.0714 76.668 84.0714 76.254C84.0714 76.11 84.0894 75.984 84.1614 75.912C84.2154 75.84 84.3594 75.714 84.5934 75.552L85.0254 75.246L85.7634 74.688C85.1874 74.436 84.7374 74.058 84.4134 73.572C84.0894 73.104 83.9274 72.546 83.9274 71.916C83.9274 71.286 84.0894 70.728 84.4134 70.224C84.7374 69.72 85.2054 69.342 85.7994 69.054C86.3754 68.784 87.0594 68.64 87.8154 68.64C88.0494 68.64 88.3914 68.676 88.8594 68.748C89.4714 68.838 89.9754 68.874 90.4074 68.874H92.2794L91.9734 69.594L90.2274 69.558C90.6594 69.864 90.9834 70.224 91.2174 70.638C91.4334 71.07 91.5594 71.502 91.5594 71.97C91.5594 72.582 91.3974 73.14 91.0734 73.608C90.7494 74.076 90.3174 74.454 89.7414 74.706C89.1654 74.976 88.5174 75.102 87.7614 75.102C87.0954 75.102 86.5014 74.994 85.9794 74.778C85.7274 74.994 85.5474 75.174 85.4754 75.282C85.3854 75.39 85.3494 75.498 85.3494 75.57C85.3494 76.056 85.7094 76.29 86.4294 76.29H89.8134C90.5334 76.29 91.0914 76.416 91.5054 76.668C91.9194 76.92 92.1354 77.352 92.1354 77.964C92.1354 78.576 91.9014 79.17 91.4694 79.746C91.0374 80.34 90.4254 80.826 89.6694 81.204C88.9134 81.582 88.0674 81.762 87.1494 81.762C86.4654 81.762 85.8534 81.654 85.3494 81.42ZM86.2134 80.304C86.7174 80.628 87.3834 80.79 88.2114 80.79C88.8594 80.79 89.4174 80.7 89.9214 80.502C90.4074 80.322 90.7854 80.07 91.0554 79.782C91.3254 79.494 91.4694 79.188 91.4694 78.882C91.4694 78.63 91.3614 78.414 91.1454 78.27C90.9294 78.126 90.6234 78.036 90.2094 78.036H86.2134H85.9974C85.7814 78.216 85.6014 78.396 85.4934 78.558C85.3854 78.72 85.3314 78.918 85.3494 79.134C85.4034 79.602 85.6914 79.98 86.2134 80.304ZM86.3934 73.914C86.8074 74.508 87.3474 74.796 87.9954 74.796C88.5174 74.796 88.9314 74.562 89.2554 74.058C89.5614 73.554 89.7234 72.942 89.7234 72.204C89.7234 71.628 89.6154 71.106 89.4354 70.602C89.2554 70.098 88.9854 69.702 88.6614 69.396C88.3374 69.108 87.9594 68.946 87.5634 68.946C86.9874 68.946 86.5554 69.216 86.2494 69.756C85.9254 70.296 85.7814 70.908 85.7814 71.628C85.7814 72.564 85.9794 73.338 86.3934 73.914ZM98.6338 77.766C99.0658 77.766 99.3898 77.676 99.6418 77.496C99.8758 77.316 100.002 77.01 100.002 76.56C100.002 76.416 99.9838 76.29 99.9838 76.2L99.4258 72.078C99.2098 70.548 98.5798 69.774 97.5538 69.774C97.0858 69.774 96.6898 69.972 96.3658 70.35C96.0418 70.746 95.8438 71.196 95.7898 71.736V76.182C95.7898 76.776 95.8978 77.19 96.1138 77.424C96.3298 77.658 96.6358 77.766 97.0498 77.766V78H92.5858V77.766C92.9818 77.766 93.2878 77.658 93.5038 77.406C93.7198 77.172 93.8458 76.758 93.8458 76.182V66.822C93.8458 66.39 93.7378 66.084 93.5578 65.904C93.3778 65.724 93.0718 65.634 92.6578 65.634V65.4C93.8098 65.328 94.7998 65.094 95.6278 64.698L95.7898 64.788V70.962C95.9518 70.314 96.2758 69.774 96.7618 69.342C97.2478 68.91 97.8238 68.694 98.5078 68.694C99.2818 68.694 99.9118 68.982 100.416 69.522C100.902 70.062 101.226 70.908 101.388 72.024L102 76.2C102.072 76.776 102.216 77.19 102.468 77.424C102.702 77.658 103.026 77.766 103.422 77.766V78H98.6338V77.766ZM108.924 77.352C108.492 76.794 108.276 76.074 108.276 75.174V69.594H107.142V69.342C107.88 69.27 108.51 69.018 109.014 68.55C109.518 68.082 109.842 67.452 109.986 66.642H110.238V68.874H112.92L112.614 69.594H110.238V74.976C110.238 75.588 110.364 76.092 110.616 76.47C110.868 76.866 111.228 77.046 111.678 77.046C112.038 77.046 112.326 76.938 112.56 76.686C112.794 76.434 112.956 76.128 113.046 75.75L113.262 75.786C113.172 76.47 112.902 77.028 112.47 77.496C112.02 77.964 111.48 78.18 110.868 78.18C110.004 78.18 109.356 77.91 108.924 77.352ZM119.13 77.766C119.562 77.766 119.886 77.676 120.138 77.496C120.372 77.316 120.498 77.01 120.498 76.56C120.498 76.416 120.48 76.29 120.48 76.2L119.922 72.078C119.706 70.548 119.076 69.774 118.05 69.774C117.582 69.774 117.186 69.972 116.862 70.35C116.538 70.746 116.34 71.196 116.286 71.736V76.182C116.286 76.776 116.394 77.19 116.61 77.424C116.826 77.658 117.132 77.766 117.546 77.766V78H113.082V77.766C113.478 77.766 113.784 77.658 114 77.406C114.216 77.172 114.342 76.758 114.342 76.182V66.822C114.342 66.39 114.234 66.084 114.054 65.904C113.874 65.724 113.568 65.634 113.154 65.634V65.4C114.306 65.328 115.296 65.094 116.124 64.698L116.286 64.788V70.962C116.448 70.314 116.772 69.774 117.258 69.342C117.744 68.91 118.32 68.694 119.004 68.694C119.778 68.694 120.408 68.982 120.912 69.522C121.398 70.062 121.722 70.908 121.884 72.024L122.496 76.2C122.568 76.776 122.712 77.19 122.964 77.424C123.198 77.658 123.522 77.766 123.918 77.766V78H119.13V77.766ZM125.652 77.55C125.022 77.136 124.536 76.56 124.194 75.84C123.834 75.12 123.672 74.346 123.672 73.482C123.672 72.582 123.852 71.772 124.248 71.052C124.644 70.332 125.166 69.756 125.85 69.324C126.516 68.91 127.254 68.694 128.046 68.694C128.73 68.694 129.342 68.856 129.846 69.162C130.35 69.486 130.746 69.9 131.016 70.422C131.286 70.962 131.43 71.538 131.43 72.15H125.58C125.562 72.222 125.562 72.33 125.562 72.456C125.562 73.302 125.688 74.04 125.958 74.688C126.21 75.336 126.588 75.84 127.074 76.2C127.56 76.56 128.136 76.722 128.784 76.722C129.504 76.722 130.116 76.506 130.62 76.074C131.124 75.642 131.448 75.084 131.592 74.364L131.844 74.4C131.736 75.12 131.484 75.768 131.124 76.344C130.764 76.92 130.296 77.37 129.72 77.694C129.144 78.018 128.514 78.18 127.83 78.18C127.002 78.18 126.282 77.982 125.652 77.55ZM128.748 71.844C129 71.844 129.198 71.79 129.306 71.664C129.414 71.538 129.486 71.322 129.486 71.034C129.486 70.53 129.342 70.062 129.09 69.63C128.82 69.198 128.424 68.964 127.902 68.964C127.362 68.964 126.858 69.252 126.426 69.81C125.976 70.386 125.706 71.052 125.598 71.844H128.748ZM143.172 76.272C142.884 76.848 142.506 77.316 142.074 77.658C141.624 78.018 141.12 78.18 140.562 78.18C139.698 78.18 139.014 77.892 138.51 77.28C138.006 76.686 137.646 75.768 137.448 74.526L136.8 70.674C136.692 70.098 136.53 69.702 136.296 69.468C136.044 69.234 135.738 69.108 135.342 69.108V68.874H139.698V69.108C139.032 69.108 138.708 69.468 138.708 70.17C138.708 70.386 138.708 70.566 138.744 70.674L139.266 73.986C139.428 74.958 139.68 75.678 140.004 76.146C140.328 76.632 140.814 76.866 141.444 76.866C142.056 76.866 142.614 76.596 143.082 76.02C142.92 75.588 142.794 75.102 142.704 74.526L142.056 70.674C141.948 70.098 141.786 69.702 141.57 69.468C141.336 69.234 141.03 69.108 140.67 69.108V68.874H144.954V69.108C144.288 69.108 143.964 69.468 143.964 70.188C143.964 70.404 143.964 70.566 144 70.674L144.54 73.986C144.684 74.958 144.936 75.696 145.278 76.164C145.602 76.632 146.088 76.866 146.7 76.866C147.204 76.866 147.69 76.704 148.14 76.362C148.59 76.038 148.95 75.57 149.238 74.994C149.508 74.418 149.652 73.77 149.652 73.086C149.652 72.294 149.49 71.628 149.166 71.124C148.842 70.62 148.428 70.368 147.888 70.368C147.672 70.368 147.42 70.422 147.168 70.512C147.06 70.566 146.916 70.584 146.772 70.584C146.52 70.584 146.304 70.512 146.124 70.332C145.944 70.17 145.872 69.954 145.872 69.684C145.872 69.396 145.962 69.162 146.142 68.982C146.322 68.802 146.574 68.712 146.934 68.712C147.438 68.712 147.924 68.874 148.392 69.162C148.86 69.45 149.238 69.9 149.526 70.494C149.814 71.106 149.976 71.844 149.976 72.708C149.976 73.698 149.778 74.616 149.4 75.444C149.022 76.29 148.518 76.956 147.888 77.442C147.258 77.946 146.592 78.18 145.89 78.18C144.612 78.18 143.712 77.55 143.172 76.272ZM152.951 77.55C152.321 77.136 151.835 76.56 151.493 75.84C151.133 75.12 150.971 74.346 150.971 73.482C150.971 72.582 151.151 71.772 151.547 71.052C151.943 70.332 152.465 69.756 153.149 69.324C153.815 68.91 154.553 68.694 155.345 68.694C156.029 68.694 156.641 68.856 157.145 69.162C157.649 69.486 158.045 69.9 158.315 70.422C158.585 70.962 158.729 71.538 158.729 72.15H152.879C152.861 72.222 152.861 72.33 152.861 72.456C152.861 73.302 152.987 74.04 153.257 74.688C153.509 75.336 153.887 75.84 154.373 76.2C154.859 76.56 155.435 76.722 156.083 76.722C156.803 76.722 157.415 76.506 157.919 76.074C158.423 75.642 158.747 75.084 158.891 74.364L159.143 74.4C159.035 75.12 158.783 75.768 158.423 76.344C158.063 76.92 157.595 77.37 157.019 77.694C156.443 78.018 155.813 78.18 155.129 78.18C154.301 78.18 153.581 77.982 152.951 77.55ZM156.047 71.844C156.299 71.844 156.497 71.79 156.605 71.664C156.713 71.538 156.785 71.322 156.785 71.034C156.785 70.53 156.641 70.062 156.389 69.63C156.119 69.198 155.723 68.964 155.201 68.964C154.661 68.964 154.157 69.252 153.725 69.81C153.275 70.386 153.005 71.052 152.897 71.844H156.047ZM162 77.856C161.334 77.64 160.74 77.352 160.2 76.992V66.822C160.2 66.39 160.092 66.084 159.912 65.904C159.732 65.724 159.426 65.634 159.012 65.634V65.4C160.164 65.328 161.154 65.094 161.982 64.698L162.144 64.788V70.89C162.306 70.332 162.648 69.828 163.17 69.396C163.674 68.964 164.286 68.73 164.988 68.73C165.69 68.73 166.32 68.946 166.878 69.378C167.418 69.81 167.85 70.368 168.156 71.07C168.444 71.79 168.606 72.546 168.606 73.356C168.606 74.292 168.408 75.138 168.012 75.858C167.616 76.596 167.058 77.172 166.374 77.568C165.69 77.982 164.916 78.18 164.088 78.18C163.368 78.18 162.666 78.072 162 77.856ZM162.648 77.01C162.99 77.622 163.512 77.91 164.196 77.91C164.916 77.91 165.51 77.55 165.942 76.812C166.374 76.092 166.59 75.138 166.59 73.968C166.59 73.104 166.464 72.348 166.248 71.7C166.032 71.07 165.726 70.584 165.348 70.26C164.952 69.936 164.52 69.756 164.034 69.756C163.566 69.756 163.17 69.936 162.828 70.26C162.468 70.584 162.252 70.998 162.144 71.502V74.166C162.144 75.462 162.306 76.398 162.648 77.01Z" fill="#1A1A1A"/>
</svg>
