<svg viewBox="0 0 272 82" fill="none" xmlns="http://www.w3.org/2000/svg">
<path d="M4.25709 20.636C5.01309 20.636 5.74109 20.356 6.41309 19.74C7.08509 19.152 7.64509 18.2 8.12109 16.912L11.8171 6.72C12.1531 5.768 12.3211 5.012 12.3211 4.424C12.3211 3.22 11.6491 2.604 10.3051 2.604V2.212C10.9771 2.212 11.7051 2.1 12.4331 1.876C13.1611 1.652 13.8611 1.316 14.4771 0.895998L14.8411 1.036L21.1411 18.284C21.4491 19.18 21.8131 19.796 22.2611 20.132C22.6811 20.468 23.2131 20.636 23.8291 20.636V21H16.3251V20.636C17.4171 20.636 17.9771 20.216 17.9771 19.376C17.9771 19.04 17.8931 18.676 17.7531 18.284L16.5771 14.952H9.52109L8.82109 16.912C8.59709 17.556 8.48509 18.116 8.48509 18.592C8.48509 19.292 8.68109 19.796 9.12909 20.132C9.54909 20.468 10.1371 20.636 10.8931 20.636V21H4.25709V20.636ZM16.4091 14.476L13.0771 5.068L9.68909 14.476H16.4091ZM22.7253 26.236C23.3413 26.236 23.8173 26.068 24.1533 25.676C24.4893 25.312 24.6853 24.668 24.6853 23.772V9.856C24.6853 9.184 24.5173 8.736 24.2373 8.456C23.9573 8.176 23.4813 8.036 22.8373 8.008V7.644C24.6293 7.532 26.1693 7.168 27.4573 6.552L27.7093 6.692V9.604C27.9613 8.876 28.4933 8.176 29.3053 7.532C30.1173 6.916 31.0973 6.58 32.2173 6.58C33.2813 6.58 34.2613 6.916 35.1293 7.532C35.9973 8.176 36.6693 9.044 37.1733 10.136C37.6773 11.256 37.9293 12.46 37.9293 13.804C37.9293 15.176 37.6213 16.436 37.0613 17.584C36.4733 18.732 35.6893 19.628 34.6813 20.3C33.6733 20.972 32.5533 21.28 31.3773 21.28C29.8933 21.28 28.6613 20.748 27.7093 19.628V23.772C27.7093 24.696 27.9053 25.34 28.3253 25.704C28.7173 26.068 29.3053 26.236 30.0613 26.236V26.6H22.7253V26.236ZM28.6333 19.208C29.2493 20.244 30.0893 20.748 31.1533 20.748C31.8253 20.748 32.4413 20.524 33.0013 20.02C33.5613 19.516 33.9813 18.816 34.2893 17.92C34.5973 17.024 34.7653 16.016 34.7653 14.84C34.7653 13.44 34.5693 12.236 34.2053 11.228C33.8413 10.22 33.3373 9.464 32.7213 8.932C32.1053 8.428 31.4053 8.148 30.6493 8.148C29.9213 8.148 29.3333 8.372 28.8293 8.82C28.3253 9.268 27.9333 9.828 27.7093 10.5V15.344C27.7093 16.912 28.0173 18.2 28.6333 19.208ZM39.8604 3.836C39.4964 3.444 39.3284 2.968 39.3284 2.352C39.3284 1.792 39.4964 1.344 39.8604 0.979999C40.2244 0.615999 40.7004 0.42 41.2884 0.42C41.8764 0.42 42.3524 0.615999 42.7164 0.979999C43.0804 1.344 43.2764 1.792 43.2764 2.352C43.2764 2.968 43.0804 3.444 42.7164 3.836C42.3524 4.228 41.8764 4.396 41.2884 4.396C40.7004 4.396 40.2244 4.228 39.8604 3.836ZM38.0684 20.636C38.6844 20.636 39.1604 20.468 39.4964 20.076C39.8324 19.712 40.0284 19.068 40.0284 18.172V9.856C40.0284 9.184 39.8604 8.736 39.5804 8.456C39.3004 8.176 38.8244 8.036 38.1804 8.008V7.644C39.9724 7.532 41.5124 7.168 42.8004 6.552L43.0524 6.692V18.172C43.0524 19.096 43.2204 19.74 43.5564 20.104C43.8924 20.468 44.3684 20.636 45.0124 20.636V21H38.0684V20.636ZM48.106 23.38C48.554 22.876 48.806 22.372 48.806 21.868C48.806 21.588 48.722 21.392 48.582 21.252C48.414 21.112 48.19 20.944 47.882 20.776C47.462 20.58 47.154 20.356 46.958 20.132C46.734 19.908 46.65 19.544 46.65 19.04C46.65 18.536 46.818 18.116 47.182 17.78C47.518 17.444 47.938 17.248 48.442 17.248C49.058 17.248 49.534 17.5 49.926 18.004C50.29 18.508 50.486 19.124 50.486 19.852C50.486 21.084 50.066 22.12 49.282 23.016C48.498 23.912 47.574 24.556 46.566 24.892L46.426 24.528C47.07 24.276 47.63 23.884 48.106 23.38ZM62.729 20.02C61.161 19.152 59.929 17.948 59.033 16.408C58.137 14.896 57.717 13.16 57.717 11.228C57.717 9.38 58.137 7.7 59.005 6.132C59.845 4.592 61.049 3.36 62.617 2.436C64.157 1.54 65.949 1.064 67.965 1.064C68.777 1.064 69.505 1.148 70.177 1.316C70.849 1.484 71.381 1.624 71.773 1.764C72.165 1.904 72.445 1.988 72.557 2.016C72.977 2.156 73.285 2.212 73.453 2.212C73.733 2.212 73.985 2.128 74.209 1.904C74.433 1.708 74.573 1.428 74.629 1.064L75.021 1.036L75.553 8.568L75.189 8.624C74.909 7.364 74.377 6.188 73.649 5.096C72.893 4.032 72.025 3.164 71.017 2.52C70.009 1.876 68.973 1.54 67.937 1.54C66.677 1.54 65.529 1.932 64.521 2.688C63.485 3.472 62.673 4.536 62.057 5.88C61.441 7.252 61.161 8.792 61.161 10.5C61.161 12.292 61.469 13.972 62.085 15.54C62.701 17.136 63.541 18.424 64.661 19.376C65.753 20.356 67.013 20.832 68.441 20.832C69.561 20.832 70.569 20.468 71.409 19.74C72.249 19.012 72.669 17.864 72.669 16.324V15.12C72.669 14.224 72.417 13.58 71.969 13.188C71.493 12.824 70.821 12.628 69.953 12.628V12.264L77.121 12.292V12.656C76.673 12.656 76.309 12.852 76.085 13.216C75.861 13.58 75.749 14.224 75.749 15.12V17.892C75.749 18.032 75.721 18.144 75.665 18.2C75.609 18.284 75.525 18.396 75.357 18.564C74.461 19.404 73.425 20.076 72.193 20.58C70.961 21.084 69.617 21.308 68.105 21.308C66.089 21.308 64.297 20.888 62.729 20.02ZM77.17 20.636C77.786 20.636 78.262 20.468 78.598 20.076C78.934 19.712 79.13 19.068 79.13 18.172L79.214 3.612C79.214 2.94 79.046 2.464 78.766 2.184C78.486 1.904 78.01 1.764 77.366 1.764V1.4C79.158 1.288 80.698 0.924 81.986 0.307999L82.238 0.447999V18.172C82.238 19.068 82.406 19.712 82.742 20.076C83.078 20.468 83.582 20.636 84.198 20.636V21H77.17V20.636ZM86.2901 3.836C85.9261 3.444 85.7581 2.968 85.7581 2.352C85.7581 1.792 85.9261 1.344 86.2901 0.979999C86.6541 0.615999 87.1301 0.42 87.7181 0.42C88.3061 0.42 88.7821 0.615999 89.1461 0.979999C89.5101 1.344 89.7061 1.792 89.7061 2.352C89.7061 2.968 89.5101 3.444 89.1461 3.836C88.7821 4.228 88.3061 4.396 87.7181 4.396C87.1301 4.396 86.6541 4.228 86.2901 3.836ZM84.4981 20.636C85.1141 20.636 85.5901 20.468 85.9261 20.076C86.2621 19.712 86.4581 19.068 86.4581 18.172V9.856C86.4581 9.184 86.2901 8.736 86.0101 8.456C85.7301 8.176 85.2541 8.036 84.6101 8.008V7.644C86.4021 7.532 87.9421 7.168 89.2301 6.552L89.4821 6.692V18.172C89.4821 19.096 89.6501 19.74 89.9861 20.104C90.3221 20.468 90.7981 20.636 91.4421 20.636V21H84.4981V20.636ZM94.8419 20.356C93.8339 19.74 93.0219 18.872 92.4339 17.78C91.8459 16.688 91.5659 15.456 91.5659 14.084C91.5659 12.712 91.8739 11.452 92.5179 10.276C93.1339 9.128 94.0019 8.204 95.0939 7.532C96.1579 6.86 97.3339 6.524 98.6219 6.524C99.5739 6.524 100.414 6.72 101.17 7.112C101.898 7.504 102.486 8.036 102.906 8.652C103.326 9.268 103.55 9.94 103.55 10.612C103.55 11.172 103.382 11.62 103.074 11.928C102.766 12.264 102.402 12.404 101.954 12.404C101.506 12.404 101.17 12.264 100.918 11.984C100.638 11.704 100.526 11.368 100.526 10.92C100.526 10.696 100.61 10.36 100.778 9.94C100.946 9.576 101.03 9.24 101.03 8.96C101.03 8.428 100.806 7.952 100.358 7.56C99.9099 7.168 99.3779 6.972 98.7059 6.972C97.8939 6.972 97.1659 7.252 96.4939 7.756C95.8219 8.26 95.2899 8.988 94.8979 9.884C94.5059 10.808 94.3099 11.816 94.3099 12.936C94.3099 14.168 94.5339 15.232 95.0379 16.128C95.5139 17.052 96.1579 17.752 96.9419 18.256C97.7259 18.76 98.5939 18.984 99.5459 18.984C100.666 18.984 101.646 18.648 102.458 17.976C103.27 17.304 103.774 16.408 103.998 15.344L104.362 15.4C104.082 17.136 103.41 18.536 102.318 19.628C101.226 20.748 99.8539 21.28 98.1739 21.28C96.9419 21.28 95.8499 20.972 94.8419 20.356ZM106.005 3.836C105.641 3.444 105.473 2.968 105.473 2.352C105.473 1.792 105.641 1.344 106.005 0.979999C106.369 0.615999 106.845 0.42 107.433 0.42C108.021 0.42 108.497 0.615999 108.861 0.979999C109.225 1.344 109.421 1.792 109.421 2.352C109.421 2.968 109.225 3.444 108.861 3.836C108.497 4.228 108.021 4.396 107.433 4.396C106.845 4.396 106.369 4.228 106.005 3.836ZM104.213 20.636C104.829 20.636 105.305 20.468 105.641 20.076C105.977 19.712 106.173 19.068 106.173 18.172V9.856C106.173 9.184 106.005 8.736 105.725 8.456C105.445 8.176 104.969 8.036 104.325 8.008V7.644C106.117 7.532 107.657 7.168 108.945 6.552L109.197 6.692V18.172C109.197 19.096 109.365 19.74 109.701 20.104C110.037 20.468 110.513 20.636 111.157 20.636V21H104.213V20.636ZM120.896 20.636C121.512 20.636 122.016 20.496 122.38 20.216C122.744 19.936 122.94 19.46 122.94 18.76C122.94 18.536 122.912 18.34 122.912 18.2L122.044 11.788C121.708 9.408 120.728 8.204 119.132 8.204C118.404 8.204 117.76 8.512 117.256 9.1C116.752 9.716 116.444 10.416 116.388 11.256V18.172C116.388 19.096 116.556 19.74 116.892 20.104C117.228 20.468 117.704 20.636 118.348 20.636V21H111.404V20.636C112.02 20.636 112.496 20.468 112.832 20.076C113.168 19.712 113.364 19.068 113.364 18.172V9.856C113.364 9.184 113.196 8.736 112.916 8.456C112.636 8.176 112.16 8.036 111.516 8.008V7.644C113.308 7.532 114.848 7.168 116.136 6.552L116.388 6.692V10.052C116.64 9.044 117.144 8.204 117.9 7.532C118.656 6.86 119.552 6.524 120.616 6.524C121.82 6.524 122.8 6.972 123.584 7.812C124.34 8.652 124.844 9.968 125.096 11.704L126.048 18.2C126.16 19.096 126.384 19.74 126.748 20.104C127.084 20.468 127.56 20.636 128.176 20.636V21H120.896V20.636ZM130.013 3.836C129.649 3.444 129.481 2.968 129.481 2.352C129.481 1.792 129.649 1.344 130.013 0.979999C130.377 0.615999 130.853 0.42 131.441 0.42C132.029 0.42 132.505 0.615999 132.869 0.979999C133.233 1.344 133.429 1.792 133.429 2.352C133.429 2.968 133.233 3.444 132.869 3.836C132.505 4.228 132.029 4.396 131.441 4.396C130.853 4.396 130.377 4.228 130.013 3.836ZM128.221 20.636C128.837 20.636 129.313 20.468 129.649 20.076C129.985 19.712 130.181 19.068 130.181 18.172V9.856C130.181 9.184 130.013 8.736 129.733 8.456C129.453 8.176 128.977 8.036 128.333 8.008V7.644C130.125 7.532 131.665 7.168 132.953 6.552L133.205 6.692V18.172C133.205 19.096 133.373 19.74 133.709 20.104C134.045 20.468 134.521 20.636 135.165 20.636V21H128.221V20.636ZM138.258 23.38C138.706 22.876 138.958 22.372 138.958 21.868C138.958 21.588 138.874 21.392 138.734 21.252C138.566 21.112 138.342 20.944 138.034 20.776C137.614 20.58 137.306 20.356 137.11 20.132C136.886 19.908 136.802 19.544 136.802 19.04C136.802 18.536 136.97 18.116 137.334 17.78C137.67 17.444 138.09 17.248 138.594 17.248C139.21 17.248 139.686 17.5 140.078 18.004C140.442 18.508 140.638 19.124 140.638 19.852C140.638 21.084 140.218 22.12 139.434 23.016C138.65 23.912 137.726 24.556 136.718 24.892L136.578 24.528C137.222 24.276 137.782 23.884 138.258 23.38ZM152.573 19.992C151.117 19.096 149.969 17.892 149.129 16.38C148.289 14.868 147.869 13.188 147.869 11.34C147.869 9.492 148.289 7.756 149.129 6.188C149.969 4.62 151.145 3.388 152.629 2.464C154.085 1.54 155.709 1.064 157.501 1.064C158.285 1.064 159.013 1.148 159.657 1.316C160.273 1.484 160.917 1.708 161.589 1.988C161.869 2.128 162.149 2.24 162.429 2.324C162.709 2.408 162.961 2.436 163.185 2.436C163.493 2.436 163.773 2.352 163.997 2.156C164.221 1.988 164.333 1.708 164.389 1.316L164.781 1.288L165.369 8.764L164.977 8.82C164.697 7.504 164.193 6.3 163.437 5.18C162.681 4.06 161.785 3.192 160.721 2.52C159.657 1.876 158.565 1.54 157.417 1.54C156.157 1.54 155.009 1.904 154.001 2.632C152.993 3.36 152.181 4.34 151.593 5.572C150.977 6.804 150.697 8.176 150.697 9.688C150.697 11.452 151.033 13.048 151.761 14.448C152.489 15.848 153.469 16.94 154.729 17.724C155.961 18.508 157.361 18.9 158.929 18.9C160.637 18.9 162.093 18.424 163.269 17.472C164.445 16.52 165.313 15.288 165.845 13.776L166.181 13.86C165.901 15.26 165.397 16.52 164.613 17.64C163.829 18.76 162.821 19.656 161.589 20.328C160.357 21 159.013 21.308 157.529 21.308C155.681 21.308 154.029 20.888 152.573 19.992ZM170.415 20.3C169.435 19.656 168.679 18.76 168.147 17.64C167.587 16.52 167.335 15.316 167.335 13.972C167.335 12.572 167.615 11.312 168.231 10.192C168.847 9.072 169.659 8.176 170.723 7.504C171.759 6.86 172.907 6.524 174.139 6.524C175.203 6.524 176.155 6.776 176.939 7.252C177.723 7.756 178.339 8.4 178.759 9.212C179.179 10.052 179.403 10.948 179.403 11.9H170.303C170.275 12.012 170.275 12.18 170.275 12.376C170.275 13.692 170.471 14.84 170.891 15.848C171.283 16.856 171.871 17.64 172.627 18.2C173.383 18.76 174.279 19.012 175.287 19.012C176.407 19.012 177.359 18.676 178.143 18.004C178.927 17.332 179.431 16.464 179.655 15.344L180.047 15.4C179.879 16.52 179.487 17.528 178.927 18.424C178.367 19.32 177.639 20.02 176.743 20.524C175.847 21.028 174.867 21.28 173.803 21.28C172.515 21.28 171.395 20.972 170.415 20.3ZM175.231 11.424C175.623 11.424 175.931 11.34 176.099 11.144C176.267 10.948 176.379 10.612 176.379 10.164C176.379 9.38 176.155 8.652 175.763 7.98C175.343 7.308 174.727 6.944 173.915 6.944C173.075 6.944 172.291 7.392 171.619 8.26C170.919 9.156 170.499 10.192 170.331 11.424H175.231ZM198.156 20.636C198.828 20.636 199.332 20.496 199.724 20.216C200.088 19.936 200.284 19.46 200.284 18.76C200.284 18.536 200.256 18.34 200.256 18.2L199.36 11.788C199.024 9.408 198.044 8.204 196.448 8.204C195.664 8.204 195.02 8.484 194.544 9.016C194.068 9.548 193.788 10.22 193.676 11.004C193.704 11.396 193.732 11.676 193.732 11.9V18.172C193.732 19.068 193.9 19.712 194.236 20.076C194.572 20.468 195.076 20.636 195.692 20.636V21H188.86V20.636C189.448 20.636 189.896 20.468 190.232 20.104C190.568 19.74 190.736 19.096 190.736 18.172V12.376C190.736 11.032 190.456 9.996 189.952 9.268C189.448 8.54 188.72 8.176 187.796 8.176C187.04 8.176 186.396 8.456 185.864 8.96C185.304 9.492 184.996 10.108 184.912 10.808V18.172C184.912 19.096 185.052 19.74 185.388 20.104C185.724 20.468 186.172 20.636 186.788 20.636V21H179.928V20.636C180.544 20.636 181.02 20.468 181.356 20.076C181.692 19.712 181.888 19.068 181.888 18.172V9.856C181.888 9.184 181.72 8.736 181.44 8.456C181.16 8.176 180.684 8.036 180.04 8.008V7.644C181.832 7.532 183.372 7.168 184.66 6.552L184.912 6.692V9.688C185.192 8.82 185.724 8.064 186.508 7.448C187.264 6.832 188.132 6.524 189.14 6.524C190.204 6.524 191.128 6.86 191.912 7.476C192.696 8.092 193.256 8.988 193.536 10.108C193.76 9.1 194.264 8.26 195.048 7.56C195.804 6.888 196.728 6.524 197.82 6.524C200.368 6.524 201.908 8.26 202.412 11.704L203.364 18.2C203.476 19.096 203.728 19.74 204.12 20.104C204.484 20.468 204.988 20.636 205.604 20.636V21H198.156V20.636ZM208.259 20.3C207.279 19.656 206.523 18.76 205.991 17.64C205.431 16.52 205.179 15.316 205.179 13.972C205.179 12.572 205.459 11.312 206.075 10.192C206.691 9.072 207.503 8.176 208.567 7.504C209.603 6.86 210.751 6.524 211.983 6.524C213.047 6.524 213.999 6.776 214.783 7.252C215.567 7.756 216.183 8.4 216.603 9.212C217.023 10.052 217.247 10.948 217.247 11.9H208.147C208.119 12.012 208.119 12.18 208.119 12.376C208.119 13.692 208.315 14.84 208.735 15.848C209.127 16.856 209.715 17.64 210.471 18.2C211.227 18.76 212.123 19.012 213.131 19.012C214.251 19.012 215.203 18.676 215.987 18.004C216.771 17.332 217.275 16.464 217.499 15.344L217.891 15.4C217.723 16.52 217.331 17.528 216.771 18.424C216.211 19.32 215.483 20.02 214.587 20.524C213.691 21.028 212.711 21.28 211.647 21.28C210.359 21.28 209.239 20.972 208.259 20.3ZM213.075 11.424C213.467 11.424 213.775 11.34 213.943 11.144C214.111 10.948 214.223 10.612 214.223 10.164C214.223 9.38 213.999 8.652 213.607 7.98C213.187 7.308 212.571 6.944 211.759 6.944C210.919 6.944 210.135 7.392 209.463 8.26C208.763 9.156 208.343 10.192 208.175 11.424H213.075ZM227.264 20.636C227.88 20.636 228.384 20.496 228.748 20.216C229.112 19.936 229.308 19.46 229.308 18.76C229.308 18.536 229.28 18.34 229.28 18.2L228.412 11.788C228.076 9.408 227.096 8.204 225.5 8.204C224.772 8.204 224.128 8.512 223.624 9.1C223.12 9.716 222.812 10.416 222.756 11.256V18.172C222.756 19.096 222.924 19.74 223.26 20.104C223.596 20.468 224.072 20.636 224.716 20.636V21H217.772V20.636C218.388 20.636 218.864 20.468 219.2 20.076C219.536 19.712 219.732 19.068 219.732 18.172V9.856C219.732 9.184 219.564 8.736 219.284 8.456C219.004 8.176 218.528 8.036 217.884 8.008V7.644C219.676 7.532 221.216 7.168 222.504 6.552L222.756 6.692V10.052C223.008 9.044 223.512 8.204 224.268 7.532C225.024 6.86 225.92 6.524 226.984 6.524C228.188 6.524 229.168 6.972 229.952 7.812C230.708 8.652 231.212 9.968 231.464 11.704L232.416 18.2C232.528 19.096 232.752 19.74 233.116 20.104C233.452 20.468 233.928 20.636 234.544 20.636V21H227.264V20.636ZM236.241 19.992C235.569 19.124 235.233 18.004 235.233 16.604V7.924H233.469V7.532C234.617 7.42 235.597 7.028 236.381 6.3C237.165 5.572 237.669 4.592 237.893 3.332H238.285V6.804H242.457L241.981 7.924H238.285V16.296C238.285 17.248 238.481 18.032 238.873 18.62C239.265 19.236 239.825 19.516 240.525 19.516C241.085 19.516 241.533 19.348 241.897 18.956C242.261 18.564 242.513 18.088 242.653 17.5L242.989 17.556C242.849 18.62 242.429 19.488 241.757 20.216C241.057 20.944 240.217 21.28 239.265 21.28C237.921 21.28 236.913 20.86 236.241 19.992ZM246.633 20.3C245.541 19.656 244.673 18.76 244.057 17.612C243.413 16.492 243.105 15.232 243.105 13.832C243.105 12.404 243.413 11.144 244.057 10.024C244.673 8.904 245.541 8.064 246.633 7.448C247.697 6.832 248.873 6.524 250.161 6.524C251.449 6.524 252.625 6.86 253.689 7.476C254.753 8.12 255.621 8.988 256.265 10.108C256.881 11.228 257.217 12.488 257.217 13.888C257.217 15.316 256.909 16.604 256.293 17.724C255.677 18.844 254.809 19.74 253.745 20.356C252.681 20.972 251.505 21.28 250.217 21.28C248.901 21.28 247.697 20.972 246.633 20.3ZM247.921 19.012C248.705 20.188 249.657 20.748 250.721 20.748C251.785 20.748 252.597 20.244 253.185 19.208C253.745 18.2 254.053 16.856 254.053 15.204C254.053 14.672 253.997 14 253.913 13.216C253.661 11.368 253.157 9.884 252.373 8.764C251.589 7.644 250.693 7.056 249.657 7.056C248.565 7.056 247.725 7.588 247.137 8.624C246.549 9.688 246.269 11.032 246.269 12.656C246.269 13.328 246.297 13.916 246.381 14.448C246.605 16.324 247.137 17.836 247.921 19.012ZM258.677 20.664C258.313 20.272 258.145 19.796 258.145 19.18C258.145 18.62 258.313 18.172 258.677 17.78C259.041 17.416 259.517 17.22 260.105 17.22C260.665 17.22 261.141 17.416 261.505 17.78C261.869 18.172 262.065 18.62 262.065 19.18C262.065 19.796 261.869 20.272 261.505 20.664C261.141 21.056 260.665 21.224 260.105 21.224C259.517 21.224 259.041 21.056 258.677 20.664ZM0.347438 52.766C0.743438 52.766 1.04944 52.658 1.26544 52.406C1.48144 52.172 1.60744 51.758 1.60744 51.182V42.218C1.60744 41.642 1.48144 41.246 1.26544 40.994C1.04944 40.76 0.743438 40.634 0.347438 40.634V40.4H9.20344L9.72544 44.126L9.49144 44.18C9.09544 41.876 7.97944 40.706 6.14344 40.706H3.65944V46.484H5.65744C6.25144 46.484 6.68344 46.34 6.95344 46.016C7.22344 45.71 7.36744 45.17 7.36744 44.396H7.61944V48.914H7.36744C7.36744 48.158 7.22344 47.6 6.95344 47.276C6.66544 46.952 6.23344 46.79 5.63944 46.79H3.65944V51.722C3.65944 52.082 3.71344 52.334 3.85744 52.478C3.98344 52.622 4.23544 52.694 4.61344 52.694H6.43144C7.43944 52.694 8.23144 52.424 8.80744 51.848C9.38344 51.29 9.83344 50.462 10.1574 49.364L10.3554 49.418L9.65344 53H0.347438V52.766ZM11.7613 41.966C11.5273 41.714 11.4193 41.408 11.4193 41.012C11.4193 40.652 11.5273 40.364 11.7613 40.13C11.9953 39.896 12.3013 39.77 12.6793 39.77C13.0573 39.77 13.3633 39.896 13.5973 40.13C13.8313 40.364 13.9573 40.652 13.9573 41.012C13.9573 41.408 13.8313 41.714 13.5973 41.966C13.3633 42.218 13.0573 42.326 12.6793 42.326C12.3013 42.326 11.9953 42.218 11.7613 41.966ZM10.6093 52.766C11.0053 52.766 11.3113 52.658 11.5273 52.406C11.7433 52.172 11.8693 51.758 11.8693 51.182V45.836C11.8693 45.404 11.7613 45.116 11.5813 44.936C11.4013 44.756 11.0953 44.666 10.6813 44.648V44.414C11.8333 44.342 12.8233 44.108 13.6513 43.712L13.8133 43.802V51.182C13.8133 51.776 13.9213 52.19 14.1373 52.424C14.3533 52.658 14.6593 52.766 15.0733 52.766V53H10.6093V52.766ZM17.0486 56.42C16.5266 56.204 16.1306 55.916 15.8606 55.556C15.5906 55.214 15.4646 54.854 15.4646 54.476C15.4646 54.224 15.6266 53.972 15.9506 53.72C16.2746 53.486 16.7246 53.234 17.3006 52.982C16.8146 52.874 16.4366 52.676 16.1666 52.352C15.8966 52.028 15.7706 51.668 15.7706 51.254C15.7706 51.11 15.7886 50.984 15.8606 50.912C15.9146 50.84 16.0586 50.714 16.2926 50.552L16.7246 50.246L17.4626 49.688C16.8866 49.436 16.4366 49.058 16.1126 48.572C15.7886 48.104 15.6266 47.546 15.6266 46.916C15.6266 46.286 15.7886 45.728 16.1126 45.224C16.4366 44.72 16.9046 44.342 17.4986 44.054C18.0746 43.784 18.7586 43.64 19.5146 43.64C19.7486 43.64 20.0906 43.676 20.5586 43.748C21.1706 43.838 21.6746 43.874 22.1066 43.874H23.9786L23.6726 44.594L21.9266 44.558C22.3586 44.864 22.6826 45.224 22.9166 45.638C23.1326 46.07 23.2586 46.502 23.2586 46.97C23.2586 47.582 23.0966 48.14 22.7726 48.608C22.4486 49.076 22.0166 49.454 21.4406 49.706C20.8646 49.976 20.2166 50.102 19.4606 50.102C18.7946 50.102 18.2006 49.994 17.6786 49.778C17.4266 49.994 17.2466 50.174 17.1746 50.282C17.0846 50.39 17.0486 50.498 17.0486 50.57C17.0486 51.056 17.4086 51.29 18.1286 51.29H21.5126C22.2326 51.29 22.7906 51.416 23.2046 51.668C23.6186 51.92 23.8346 52.352 23.8346 52.964C23.8346 53.576 23.6006 54.17 23.1686 54.746C22.7366 55.34 22.1246 55.826 21.3686 56.204C20.6126 56.582 19.7666 56.762 18.8486 56.762C18.1646 56.762 17.5526 56.654 17.0486 56.42ZM17.9126 55.304C18.4166 55.628 19.0826 55.79 19.9106 55.79C20.5586 55.79 21.1166 55.7 21.6206 55.502C22.1066 55.322 22.4846 55.07 22.7546 54.782C23.0246 54.494 23.1686 54.188 23.1686 53.882C23.1686 53.63 23.0606 53.414 22.8446 53.27C22.6286 53.126 22.3226 53.036 21.9086 53.036H17.9126H17.6966C17.4806 53.216 17.3006 53.396 17.1926 53.558C17.0846 53.72 17.0306 53.918 17.0486 54.134C17.1026 54.602 17.3906 54.98 17.9126 55.304ZM18.0926 48.914C18.5066 49.508 19.0466 49.796 19.6946 49.796C20.2166 49.796 20.6306 49.562 20.9546 49.058C21.2606 48.554 21.4226 47.942 21.4226 47.204C21.4226 46.628 21.3146 46.106 21.1346 45.602C20.9546 45.098 20.6846 44.702 20.3606 44.396C20.0366 44.108 19.6586 43.946 19.2626 43.946C18.6866 43.946 18.2546 44.216 17.9486 44.756C17.6246 45.296 17.4806 45.908 17.4806 46.628C17.4806 47.564 17.6786 48.338 18.0926 48.914ZM30.333 52.766C30.765 52.766 31.089 52.676 31.341 52.496C31.575 52.316 31.701 52.01 31.701 51.56C31.701 51.416 31.683 51.29 31.683 51.2L31.125 47.078C30.909 45.548 30.279 44.774 29.253 44.774C28.785 44.774 28.389 44.972 28.065 45.35C27.741 45.746 27.543 46.196 27.489 46.736V51.182C27.489 51.776 27.597 52.19 27.813 52.424C28.029 52.658 28.335 52.766 28.749 52.766V53H24.285V52.766C24.681 52.766 24.987 52.658 25.203 52.406C25.419 52.172 25.545 51.758 25.545 51.182V41.822C25.545 41.39 25.437 41.084 25.257 40.904C25.077 40.724 24.771 40.634 24.357 40.634V40.4C25.509 40.328 26.499 40.094 27.327 39.698L27.489 39.788V45.962C27.651 45.314 27.975 44.774 28.461 44.342C28.947 43.91 29.523 43.694 30.207 43.694C30.981 43.694 31.611 43.982 32.115 44.522C32.601 45.062 32.925 45.908 33.087 47.024L33.699 51.2C33.771 51.776 33.915 52.19 34.167 52.424C34.401 52.658 34.725 52.766 35.121 52.766V53H30.333V52.766ZM36.2113 52.352C35.7793 51.794 35.5633 51.074 35.5633 50.174V44.594H34.4293V44.342C35.1673 44.27 35.7973 44.018 36.3013 43.55C36.8053 43.082 37.1293 42.452 37.2733 41.642H37.5253V43.874H40.2073L39.9013 44.594H37.5253V49.976C37.5253 50.588 37.6513 51.092 37.9033 51.47C38.1553 51.866 38.5153 52.046 38.9653 52.046C39.3253 52.046 39.6133 51.938 39.8473 51.686C40.0813 51.434 40.2433 51.128 40.3333 50.75L40.5493 50.786C40.4593 51.47 40.1893 52.028 39.7573 52.496C39.3073 52.964 38.7673 53.18 38.1553 53.18C37.2913 53.18 36.6433 52.91 36.2113 52.352ZM46.5193 52.568C45.9433 52.172 45.5113 51.614 45.1873 50.894C44.8633 50.192 44.7193 49.4 44.7193 48.536C44.7193 47.672 44.8993 46.862 45.2773 46.124C45.6373 45.404 46.1593 44.81 46.8073 44.378C47.4553 43.946 48.1573 43.73 48.9493 43.73C49.8853 43.73 50.6773 44.09 51.2893 44.81V41.822C51.2893 41.39 51.1993 41.084 51.0193 40.904C50.8393 40.724 50.5333 40.634 50.1193 40.634V40.4C51.2713 40.328 52.2613 40.094 53.0713 39.698L53.2513 39.788V51.308C53.2513 51.704 53.3413 51.974 53.5213 52.118C53.7013 52.262 54.0073 52.316 54.4393 52.298V52.532C53.2513 52.676 52.2793 52.91 51.4873 53.216L51.2893 53.108V51.236C51.1093 51.722 50.7673 52.172 50.2633 52.568C49.7413 52.982 49.1293 53.18 48.4093 53.18C47.7073 53.18 47.0773 52.982 46.5193 52.568ZM47.1313 50.156C47.3653 50.804 47.6893 51.272 48.1033 51.596C48.4993 51.92 48.9493 52.082 49.4353 52.082C49.8673 52.082 50.2633 51.956 50.5873 51.704C50.9113 51.452 51.1453 51.11 51.2893 50.678V47.798C51.2893 46.79 51.0913 45.908 50.6953 45.17C50.2993 44.45 49.7593 44.072 49.0933 44.072C48.6253 44.072 48.2293 44.252 47.8693 44.576C47.5093 44.9 47.2393 45.35 47.0593 45.926C46.8613 46.502 46.7713 47.15 46.7713 47.87C46.7713 48.77 46.8793 49.526 47.1313 50.156ZM56.5958 52.55C55.9658 52.136 55.4798 51.56 55.1378 50.84C54.7778 50.12 54.6158 49.346 54.6158 48.482C54.6158 47.582 54.7958 46.772 55.1918 46.052C55.5878 45.332 56.1098 44.756 56.7938 44.324C57.4598 43.91 58.1978 43.694 58.9898 43.694C59.6738 43.694 60.2858 43.856 60.7898 44.162C61.2938 44.486 61.6898 44.9 61.9598 45.422C62.2298 45.962 62.3738 46.538 62.3738 47.15H56.5238C56.5058 47.222 56.5058 47.33 56.5058 47.456C56.5058 48.302 56.6318 49.04 56.9018 49.688C57.1538 50.336 57.5318 50.84 58.0178 51.2C58.5038 51.56 59.0798 51.722 59.7278 51.722C60.4478 51.722 61.0598 51.506 61.5638 51.074C62.0678 50.642 62.3918 50.084 62.5358 49.364L62.7878 49.4C62.6798 50.12 62.4278 50.768 62.0678 51.344C61.7078 51.92 61.2398 52.37 60.6638 52.694C60.0878 53.018 59.4578 53.18 58.7738 53.18C57.9458 53.18 57.2258 52.982 56.5958 52.55ZM59.6918 46.844C59.9438 46.844 60.1418 46.79 60.2498 46.664C60.3578 46.538 60.4298 46.322 60.4298 46.034C60.4298 45.53 60.2858 45.062 60.0338 44.63C59.7638 44.198 59.3678 43.964 58.8457 43.964C58.3058 43.964 57.8018 44.252 57.3698 44.81C56.9198 45.386 56.6498 46.052 56.5418 46.844H59.6918ZM65.6444 52.856C64.9784 52.64 64.3844 52.352 63.8444 51.992V41.822C63.8444 41.39 63.7364 41.084 63.5564 40.904C63.3764 40.724 63.0704 40.634 62.6564 40.634V40.4C63.8084 40.328 64.7984 40.094 65.6264 39.698L65.7884 39.788V45.89C65.9504 45.332 66.2924 44.828 66.8144 44.396C67.3184 43.964 67.9304 43.73 68.6324 43.73C69.3344 43.73 69.9644 43.946 70.5224 44.378C71.0624 44.81 71.4944 45.368 71.8004 46.07C72.0884 46.79 72.2504 47.546 72.2504 48.356C72.2504 49.292 72.0524 50.138 71.6564 50.858C71.2604 51.596 70.7024 52.172 70.0184 52.568C69.3344 52.982 68.5604 53.18 67.7324 53.18C67.0124 53.18 66.3104 53.072 65.6444 52.856ZM66.2924 52.01C66.6344 52.622 67.1564 52.91 67.8404 52.91C68.5604 52.91 69.1544 52.55 69.5864 51.812C70.0184 51.092 70.2344 50.138 70.2344 48.968C70.2344 48.104 70.1084 47.348 69.8924 46.7C69.6764 46.07 69.3704 45.584 68.9924 45.26C68.5964 44.936 68.1644 44.756 67.6784 44.756C67.2104 44.756 66.8144 44.936 66.4724 45.26C66.1124 45.584 65.8964 45.998 65.7884 46.502V49.166C65.7884 50.462 65.9504 51.398 66.2924 52.01ZM79.0852 52.658C78.7972 52.334 78.6172 51.866 78.5452 51.272L78.4912 50.876C78.4192 51.272 78.2392 51.65 77.9872 51.992C77.7172 52.352 77.3752 52.64 76.9612 52.856C76.5292 53.072 76.0612 53.18 75.5392 53.18C74.7832 53.18 74.1532 52.964 73.6672 52.532C73.1812 52.1 72.9472 51.542 72.9472 50.858C72.9472 50.246 73.1452 49.742 73.5772 49.346C74.0092 48.95 74.6212 48.716 75.4132 48.644L78.1492 48.428L78.0232 47.51C77.9152 46.664 77.6632 45.998 77.2672 45.512C76.8712 45.044 76.3492 44.792 75.7012 44.792C75.1792 44.792 74.7292 44.954 74.3332 45.242C73.9372 45.53 73.6492 45.926 73.4512 46.412L73.2172 46.358C73.3252 45.926 73.5412 45.494 73.8652 45.08C74.1892 44.684 74.5852 44.342 75.0712 44.09C75.5572 43.838 76.0972 43.694 76.6912 43.694C77.5912 43.694 78.3292 43.982 78.8872 44.558C79.4452 45.134 79.7872 45.962 79.9312 47.024L80.4532 51.002C80.5432 51.686 80.7772 52.01 81.1732 52.01C81.2812 52.01 81.3892 51.974 81.4792 51.866C81.5692 51.776 81.6232 51.65 81.6592 51.488L81.8752 51.506C81.8392 51.938 81.6952 52.316 81.4072 52.64C81.1192 52.982 80.7412 53.144 80.2732 53.144C79.7692 53.144 79.3732 52.982 79.0852 52.658ZM75.2332 51.632C75.5392 51.956 75.9532 52.118 76.4932 52.118C77.0332 52.118 77.4832 51.956 77.8432 51.632C78.1852 51.308 78.3832 50.912 78.4372 50.462L78.1852 48.698L76.4212 48.842C75.8812 48.896 75.4672 49.076 75.1792 49.364C74.8912 49.652 74.7652 50.03 74.7652 50.462C74.7652 50.93 74.9092 51.308 75.2332 51.632ZM83.3031 52.352C82.8711 51.794 82.6551 51.074 82.6551 50.174V44.594H81.5211V44.342C82.2591 44.27 82.8891 44.018 83.3931 43.55C83.8971 43.082 84.2211 42.452 84.3651 41.642H84.6171V43.874H87.2991L86.9931 44.594H84.6171V49.976C84.6171 50.588 84.7431 51.092 84.9951 51.47C85.2471 51.866 85.6071 52.046 86.0571 52.046C86.4171 52.046 86.7051 51.938 86.9391 51.686C87.1731 51.434 87.3351 51.128 87.4251 50.75L87.6411 50.786C87.5511 51.47 87.2811 52.028 86.8491 52.496C86.3991 52.964 85.8591 53.18 85.2471 53.18C84.3831 53.18 83.7351 52.91 83.3031 52.352ZM89.7481 52.55C89.1181 52.136 88.6321 51.56 88.2901 50.84C87.9301 50.12 87.7681 49.346 87.7681 48.482C87.7681 47.582 87.9481 46.772 88.3441 46.052C88.7401 45.332 89.2621 44.756 89.9461 44.324C90.6121 43.91 91.3501 43.694 92.1421 43.694C92.8261 43.694 93.4381 43.856 93.9421 44.162C94.4461 44.486 94.8421 44.9 95.1121 45.422C95.3821 45.962 95.5261 46.538 95.5261 47.15H89.6761C89.6581 47.222 89.6581 47.33 89.6581 47.456C89.6581 48.302 89.7841 49.04 90.0541 49.688C90.3061 50.336 90.6841 50.84 91.1701 51.2C91.6561 51.56 92.2321 51.722 92.8801 51.722C93.6001 51.722 94.2121 51.506 94.7161 51.074C95.2201 50.642 95.5441 50.084 95.6881 49.364L95.9401 49.4C95.8321 50.12 95.5801 50.768 95.2201 51.344C94.8601 51.92 94.3921 52.37 93.8161 52.694C93.2401 53.018 92.6101 53.18 91.9261 53.18C91.0981 53.18 90.3781 52.982 89.7481 52.55ZM92.8441 46.844C93.0961 46.844 93.2941 46.79 93.4021 46.664C93.5101 46.538 93.5821 46.322 93.5821 46.034C93.5821 45.53 93.4381 45.062 93.1861 44.63C92.9161 44.198 92.5201 43.964 91.9981 43.964C91.4581 43.964 90.9541 44.252 90.5221 44.81C90.0721 45.386 89.8021 46.052 89.6941 46.844H92.8441ZM96.6969 49.418L96.9309 49.364C97.2189 50.282 97.6329 51.092 98.1729 51.794C98.7129 52.514 99.4149 52.874 100.315 52.874C100.873 52.874 101.323 52.73 101.647 52.442C101.971 52.154 102.151 51.776 102.169 51.326C102.169 50.894 102.007 50.516 101.701 50.228C101.377 49.94 100.873 49.67 100.153 49.418L99.0729 48.986C98.3169 48.698 97.7589 48.356 97.3629 47.924C96.9669 47.492 96.7869 46.952 96.7869 46.304C96.7869 45.836 96.9129 45.386 97.2009 44.99C97.4709 44.594 97.8489 44.288 98.3349 44.054C98.8209 43.838 99.3609 43.712 99.9369 43.712C100.405 43.712 100.945 43.82 101.539 44.018C101.863 44.126 102.079 44.162 102.187 44.162C102.439 44.162 102.637 43.982 102.745 43.604L102.997 43.586L103.231 47.114L102.979 47.15C102.835 46.682 102.619 46.214 102.331 45.728C102.043 45.242 101.683 44.828 101.269 44.486C100.837 44.162 100.387 43.982 99.9009 43.982C99.4149 43.982 99.0189 44.126 98.7309 44.414C98.4429 44.702 98.2989 45.062 98.2989 45.458C98.2989 45.854 98.4429 46.214 98.7489 46.502C99.0549 46.79 99.5409 47.06 100.189 47.276L101.251 47.708C102.061 48.014 102.655 48.374 103.051 48.788C103.447 49.202 103.645 49.706 103.645 50.3C103.645 50.894 103.483 51.398 103.195 51.83C102.889 52.262 102.493 52.604 102.007 52.82C101.521 53.054 100.999 53.162 100.441 53.162C100.117 53.162 99.8109 53.144 99.5589 53.09C99.2889 53.036 98.9829 52.964 98.6409 52.856C98.2629 52.748 98.0109 52.694 97.8849 52.694C97.7409 52.694 97.6149 52.748 97.5249 52.82C97.4349 52.892 97.3449 53.018 97.2729 53.198L97.0029 53.216L96.6969 49.418ZM110.462 52.55C109.76 52.136 109.202 51.56 108.806 50.822C108.392 50.102 108.194 49.292 108.194 48.392C108.194 47.474 108.392 46.664 108.806 45.944C109.202 45.224 109.76 44.684 110.462 44.288C111.146 43.892 111.902 43.694 112.73 43.694C113.558 43.694 114.314 43.91 114.998 44.306C115.682 44.72 116.24 45.278 116.654 45.998C117.05 46.718 117.266 47.528 117.266 48.428C117.266 49.346 117.068 50.174 116.672 50.894C116.276 51.614 115.718 52.19 115.034 52.586C114.35 52.982 113.594 53.18 112.766 53.18C111.92 53.18 111.146 52.982 110.462 52.55ZM111.29 51.722C111.794 52.478 112.406 52.838 113.09 52.838C113.774 52.838 114.296 52.514 114.674 51.848C115.034 51.2 115.232 50.336 115.232 49.274C115.232 48.932 115.196 48.5 115.142 47.996C114.98 46.808 114.656 45.854 114.152 45.134C113.648 44.414 113.072 44.036 112.406 44.036C111.704 44.036 111.164 44.378 110.786 45.044C110.408 45.728 110.228 46.592 110.228 47.636C110.228 48.068 110.246 48.446 110.3 48.788C110.444 49.994 110.786 50.966 111.29 51.722ZM123.393 52.766C123.789 52.766 124.113 52.676 124.347 52.496C124.581 52.316 124.707 52.01 124.707 51.56C124.707 51.416 124.689 51.29 124.689 51.2L124.131 47.078C123.915 45.548 123.285 44.774 122.259 44.774C121.791 44.774 121.377 44.972 121.053 45.35C120.729 45.746 120.531 46.196 120.495 46.736V51.182C120.495 51.776 120.603 52.19 120.819 52.424C121.035 52.658 121.341 52.766 121.755 52.766V53H117.291V52.766C117.687 52.766 117.993 52.658 118.209 52.406C118.425 52.172 118.551 51.758 118.551 51.182V45.836C118.551 45.404 118.443 45.116 118.263 44.936C118.083 44.756 117.777 44.666 117.363 44.648V44.414C118.515 44.342 119.505 44.108 120.333 43.712L120.495 43.802V45.962C120.657 45.314 120.981 44.774 121.467 44.342C121.953 43.91 122.529 43.694 123.213 43.694C123.987 43.694 124.617 43.982 125.121 44.522C125.607 45.062 125.931 45.908 126.093 47.024L126.705 51.2C126.777 51.776 126.921 52.19 127.155 52.424C127.371 52.658 127.677 52.766 128.073 52.766V53H123.393V52.766ZM134.315 52.766C133.865 52.478 133.523 52.064 133.271 51.524C133.019 50.984 132.893 50.336 132.893 49.598V45.836C132.893 45.404 132.785 45.116 132.605 44.936C132.425 44.756 132.119 44.666 131.705 44.648V44.414C132.857 44.342 133.847 44.108 134.675 43.712L134.837 43.802V49.4C134.837 50.228 134.981 50.894 135.305 51.362C135.611 51.848 136.079 52.082 136.709 52.082C137.249 52.082 137.663 51.902 137.969 51.524C138.275 51.146 138.455 50.696 138.509 50.192V45.836C138.509 45.404 138.401 45.116 138.221 44.936C138.041 44.756 137.735 44.666 137.321 44.648V44.414C138.473 44.342 139.463 44.108 140.291 43.712L140.453 43.802V51.308C140.453 51.704 140.543 51.974 140.723 52.118C140.903 52.262 141.227 52.316 141.659 52.298V52.532C140.489 52.676 139.499 52.91 138.689 53.216L138.509 53.108V51.056C138.311 51.632 137.987 52.136 137.537 52.568C137.069 53 136.511 53.198 135.827 53.198C135.251 53.198 134.747 53.054 134.315 52.766ZM141.83 52.766C142.226 52.766 142.532 52.658 142.748 52.406C142.964 52.172 143.09 51.758 143.09 51.182V45.836C143.09 45.404 143 45.116 142.82 44.936C142.64 44.756 142.334 44.666 141.902 44.648V44.414C143.054 44.342 144.044 44.108 144.872 43.712L145.034 43.802V45.764C145.178 45.206 145.448 44.72 145.844 44.306C146.24 43.91 146.69 43.694 147.23 43.694C147.644 43.694 147.986 43.838 148.256 44.09C148.508 44.36 148.652 44.666 148.652 45.008C148.652 45.314 148.544 45.566 148.364 45.782C148.184 45.998 147.932 46.088 147.626 46.088C147.41 46.088 147.248 46.052 147.122 45.944C146.996 45.854 146.888 45.728 146.816 45.584C146.744 45.44 146.672 45.296 146.636 45.152C146.564 45.008 146.51 44.918 146.456 44.846C146.384 44.792 146.312 44.756 146.204 44.756C145.916 44.756 145.664 44.936 145.448 45.26C145.232 45.602 145.088 45.998 145.034 46.448V51.182C145.034 51.758 145.178 52.172 145.466 52.406C145.754 52.658 146.15 52.766 146.672 52.766V53H141.83V52.766ZM151.32 52.856C150.654 52.64 150.06 52.352 149.52 51.992V41.822C149.52 41.39 149.412 41.084 149.232 40.904C149.052 40.724 148.746 40.634 148.332 40.634V40.4C149.484 40.328 150.474 40.094 151.302 39.698L151.464 39.788V45.89C151.626 45.332 151.968 44.828 152.49 44.396C152.994 43.964 153.606 43.73 154.308 43.73C155.01 43.73 155.64 43.946 156.198 44.378C156.738 44.81 157.17 45.368 157.476 46.07C157.764 46.79 157.926 47.546 157.926 48.356C157.926 49.292 157.728 50.138 157.332 50.858C156.936 51.596 156.378 52.172 155.694 52.568C155.01 52.982 154.236 53.18 153.408 53.18C152.688 53.18 151.986 53.072 151.32 52.856ZM151.968 52.01C152.31 52.622 152.832 52.91 153.516 52.91C154.236 52.91 154.83 52.55 155.262 51.812C155.694 51.092 155.91 50.138 155.91 48.968C155.91 48.104 155.784 47.348 155.568 46.7C155.352 46.07 155.046 45.584 154.668 45.26C154.272 44.936 153.84 44.756 153.354 44.756C152.886 44.756 152.49 44.936 152.148 45.26C151.788 45.584 151.572 45.998 151.464 46.502V49.166C151.464 50.462 151.626 51.398 151.968 52.01ZM164.761 52.658C164.473 52.334 164.293 51.866 164.221 51.272L164.167 50.876C164.095 51.272 163.915 51.65 163.663 51.992C163.393 52.352 163.051 52.64 162.637 52.856C162.205 53.072 161.737 53.18 161.215 53.18C160.459 53.18 159.829 52.964 159.343 52.532C158.857 52.1 158.623 51.542 158.623 50.858C158.623 50.246 158.821 49.742 159.253 49.346C159.685 48.95 160.297 48.716 161.089 48.644L163.825 48.428L163.699 47.51C163.591 46.664 163.339 45.998 162.943 45.512C162.547 45.044 162.025 44.792 161.377 44.792C160.855 44.792 160.405 44.954 160.009 45.242C159.613 45.53 159.325 45.926 159.127 46.412L158.893 46.358C159.001 45.926 159.217 45.494 159.541 45.08C159.865 44.684 160.261 44.342 160.747 44.09C161.233 43.838 161.773 43.694 162.367 43.694C163.267 43.694 164.005 43.982 164.563 44.558C165.121 45.134 165.463 45.962 165.607 47.024L166.129 51.002C166.219 51.686 166.453 52.01 166.849 52.01C166.957 52.01 167.065 51.974 167.155 51.866C167.245 51.776 167.299 51.65 167.335 51.488L167.551 51.506C167.515 51.938 167.371 52.316 167.083 52.64C166.795 52.982 166.417 53.144 165.949 53.144C165.445 53.144 165.049 52.982 164.761 52.658ZM160.909 51.632C161.215 51.956 161.629 52.118 162.169 52.118C162.709 52.118 163.159 51.956 163.519 51.632C163.861 51.308 164.059 50.912 164.113 50.462L163.861 48.698L162.097 48.842C161.557 48.896 161.143 49.076 160.855 49.364C160.567 49.652 160.441 50.03 160.441 50.462C160.441 50.93 160.585 51.308 160.909 51.632ZM173.649 52.766C174.045 52.766 174.369 52.676 174.603 52.496C174.837 52.316 174.963 52.01 174.963 51.56C174.963 51.416 174.945 51.29 174.945 51.2L174.387 47.078C174.171 45.548 173.541 44.774 172.515 44.774C172.047 44.774 171.633 44.972 171.309 45.35C170.985 45.746 170.787 46.196 170.751 46.736V51.182C170.751 51.776 170.859 52.19 171.075 52.424C171.291 52.658 171.597 52.766 172.011 52.766V53H167.547V52.766C167.943 52.766 168.249 52.658 168.465 52.406C168.681 52.172 168.807 51.758 168.807 51.182V45.836C168.807 45.404 168.699 45.116 168.519 44.936C168.339 44.756 168.033 44.666 167.619 44.648V44.414C168.771 44.342 169.761 44.108 170.589 43.712L170.751 43.802V45.962C170.913 45.314 171.237 44.774 171.723 44.342C172.209 43.91 172.785 43.694 173.469 43.694C174.243 43.694 174.873 43.982 175.377 44.522C175.863 45.062 176.187 45.908 176.349 47.024L176.961 51.2C177.033 51.776 177.177 52.19 177.411 52.424C177.627 52.658 177.933 52.766 178.329 52.766V53H173.649V52.766ZM184.894 52.856C184.228 52.64 183.634 52.352 183.094 51.992V41.822C183.094 41.39 182.986 41.084 182.806 40.904C182.626 40.724 182.32 40.634 181.906 40.634V40.4C183.058 40.328 184.048 40.094 184.876 39.698L185.038 39.788V45.89C185.2 45.332 185.542 44.828 186.064 44.396C186.568 43.964 187.18 43.73 187.882 43.73C188.584 43.73 189.214 43.946 189.772 44.378C190.312 44.81 190.744 45.368 191.05 46.07C191.338 46.79 191.5 47.546 191.5 48.356C191.5 49.292 191.302 50.138 190.906 50.858C190.51 51.596 189.952 52.172 189.268 52.568C188.584 52.982 187.81 53.18 186.982 53.18C186.262 53.18 185.56 53.072 184.894 52.856ZM185.542 52.01C185.884 52.622 186.406 52.91 187.09 52.91C187.81 52.91 188.404 52.55 188.836 51.812C189.268 51.092 189.484 50.138 189.484 48.968C189.484 48.104 189.358 47.348 189.142 46.7C188.926 46.07 188.62 45.584 188.242 45.26C187.846 44.936 187.414 44.756 186.928 44.756C186.46 44.756 186.064 44.936 185.722 45.26C185.362 45.584 185.146 45.998 185.038 46.502V49.166C185.038 50.462 185.2 51.398 185.542 52.01ZM192.746 41.966C192.512 41.714 192.404 41.408 192.404 41.012C192.404 40.652 192.512 40.364 192.746 40.13C192.98 39.896 193.286 39.77 193.664 39.77C194.042 39.77 194.348 39.896 194.582 40.13C194.816 40.364 194.942 40.652 194.942 41.012C194.942 41.408 194.816 41.714 194.582 41.966C194.348 42.218 194.042 42.326 193.664 42.326C193.286 42.326 192.98 42.218 192.746 41.966ZM191.594 52.766C191.99 52.766 192.296 52.658 192.512 52.406C192.728 52.172 192.854 51.758 192.854 51.182V45.836C192.854 45.404 192.746 45.116 192.566 44.936C192.386 44.756 192.08 44.666 191.666 44.648V44.414C192.818 44.342 193.808 44.108 194.636 43.712L194.798 43.802V51.182C194.798 51.776 194.906 52.19 195.122 52.424C195.338 52.658 195.644 52.766 196.058 52.766V53H191.594V52.766ZM198.405 52.55C197.703 52.136 197.145 51.56 196.749 50.822C196.335 50.102 196.137 49.292 196.137 48.392C196.137 47.474 196.335 46.664 196.749 45.944C197.145 45.224 197.703 44.684 198.405 44.288C199.089 43.892 199.845 43.694 200.673 43.694C201.501 43.694 202.257 43.91 202.941 44.306C203.625 44.72 204.183 45.278 204.597 45.998C204.993 46.718 205.209 47.528 205.209 48.428C205.209 49.346 205.011 50.174 204.615 50.894C204.219 51.614 203.661 52.19 202.977 52.586C202.293 52.982 201.537 53.18 200.709 53.18C199.863 53.18 199.089 52.982 198.405 52.55ZM199.233 51.722C199.737 52.478 200.349 52.838 201.033 52.838C201.717 52.838 202.239 52.514 202.617 51.848C202.977 51.2 203.175 50.336 203.175 49.274C203.175 48.932 203.139 48.5 203.085 47.996C202.923 46.808 202.599 45.854 202.095 45.134C201.591 44.414 201.015 44.036 200.349 44.036C199.647 44.036 199.107 44.378 198.729 45.044C198.351 45.728 198.171 46.592 198.171 47.636C198.171 48.068 198.189 48.446 198.243 48.788C198.387 49.994 198.729 50.966 199.233 51.722ZM207.992 52.568C207.416 52.172 206.984 51.614 206.66 50.894C206.336 50.192 206.192 49.4 206.192 48.536C206.192 47.672 206.372 46.862 206.75 46.124C207.11 45.404 207.632 44.81 208.28 44.378C208.928 43.946 209.63 43.73 210.422 43.73C211.358 43.73 212.15 44.09 212.762 44.81V41.822C212.762 41.39 212.672 41.084 212.492 40.904C212.312 40.724 212.006 40.634 211.592 40.634V40.4C212.744 40.328 213.734 40.094 214.544 39.698L214.724 39.788V51.308C214.724 51.704 214.814 51.974 214.994 52.118C215.174 52.262 215.48 52.316 215.912 52.298V52.532C214.724 52.676 213.752 52.91 212.96 53.216L212.762 53.108V51.236C212.582 51.722 212.24 52.172 211.736 52.568C211.214 52.982 210.602 53.18 209.882 53.18C209.18 53.18 208.55 52.982 207.992 52.568ZM208.604 50.156C208.838 50.804 209.162 51.272 209.576 51.596C209.972 51.92 210.422 52.082 210.908 52.082C211.34 52.082 211.736 51.956 212.06 51.704C212.384 51.452 212.618 51.11 212.762 50.678V47.798C212.762 46.79 212.564 45.908 212.168 45.17C211.772 44.45 211.232 44.072 210.566 44.072C210.098 44.072 209.702 44.252 209.342 44.576C208.982 44.9 208.712 45.35 208.532 45.926C208.334 46.502 208.244 47.15 208.244 47.87C208.244 48.77 208.352 49.526 208.604 50.156ZM217.232 41.966C216.998 41.714 216.89 41.408 216.89 41.012C216.89 40.652 216.998 40.364 217.232 40.13C217.466 39.896 217.772 39.77 218.15 39.77C218.528 39.77 218.834 39.896 219.068 40.13C219.302 40.364 219.428 40.652 219.428 41.012C219.428 41.408 219.302 41.714 219.068 41.966C218.834 42.218 218.528 42.326 218.15 42.326C217.772 42.326 217.466 42.218 217.232 41.966ZM216.08 52.766C216.476 52.766 216.782 52.658 216.998 52.406C217.214 52.172 217.34 51.758 217.34 51.182V45.836C217.34 45.404 217.232 45.116 217.052 44.936C216.872 44.756 216.566 44.666 216.152 44.648V44.414C217.304 44.342 218.294 44.108 219.122 43.712L219.284 43.802V51.182C219.284 51.776 219.392 52.19 219.608 52.424C219.824 52.658 220.13 52.766 220.544 52.766V53H216.08V52.766ZM223.123 52.28C222.619 51.686 222.259 50.768 222.061 49.526L221.431 45.674C221.323 45.098 221.161 44.702 220.927 44.468C220.675 44.234 220.369 44.108 219.973 44.108V43.874H224.365V44.108C223.663 44.108 223.321 44.468 223.321 45.188C223.321 45.404 223.321 45.566 223.357 45.674L223.897 48.986C224.041 49.958 224.293 50.696 224.635 51.182C224.959 51.686 225.445 51.92 226.093 51.92C226.561 51.92 227.011 51.758 227.461 51.398C227.911 51.038 228.271 50.57 228.559 49.958C228.829 49.364 228.973 48.716 228.973 47.996C228.973 47.204 228.811 46.556 228.505 46.088C228.199 45.62 227.785 45.368 227.263 45.368C227.011 45.368 226.759 45.422 226.543 45.512C226.435 45.566 226.309 45.584 226.165 45.584C225.913 45.584 225.697 45.512 225.517 45.332C225.337 45.152 225.265 44.936 225.265 44.648C225.265 44.396 225.355 44.162 225.535 43.982C225.715 43.802 225.967 43.712 226.327 43.712C226.831 43.712 227.299 43.874 227.749 44.162C228.199 44.45 228.559 44.9 228.847 45.494C229.135 46.106 229.279 46.844 229.279 47.708C229.279 48.698 229.081 49.616 228.703 50.444C228.307 51.29 227.803 51.956 227.173 52.442C226.543 52.946 225.877 53.18 225.175 53.18C224.311 53.18 223.627 52.892 223.123 52.28ZM232.236 52.55C231.606 52.136 231.12 51.56 230.778 50.84C230.418 50.12 230.256 49.346 230.256 48.482C230.256 47.582 230.436 46.772 230.832 46.052C231.228 45.332 231.75 44.756 232.434 44.324C233.1 43.91 233.838 43.694 234.63 43.694C235.314 43.694 235.926 43.856 236.43 44.162C236.934 44.486 237.33 44.9 237.6 45.422C237.87 45.962 238.014 46.538 238.014 47.15H232.164C232.146 47.222 232.146 47.33 232.146 47.456C232.146 48.302 232.272 49.04 232.542 49.688C232.794 50.336 233.172 50.84 233.658 51.2C234.144 51.56 234.72 51.722 235.368 51.722C236.088 51.722 236.7 51.506 237.204 51.074C237.708 50.642 238.032 50.084 238.176 49.364L238.428 49.4C238.32 50.12 238.068 50.768 237.708 51.344C237.348 51.92 236.88 52.37 236.304 52.694C235.728 53.018 235.098 53.18 234.414 53.18C233.586 53.18 232.866 52.982 232.236 52.55ZM235.332 46.844C235.584 46.844 235.782 46.79 235.89 46.664C235.998 46.538 236.07 46.322 236.07 46.034C236.07 45.53 235.926 45.062 235.674 44.63C235.404 44.198 235.008 43.964 234.486 43.964C233.946 43.964 233.442 44.252 233.01 44.81C232.56 45.386 232.29 46.052 232.182 46.844H235.332ZM238.351 52.766C238.747 52.766 239.053 52.658 239.269 52.406C239.485 52.172 239.611 51.758 239.611 51.182V45.836C239.611 45.404 239.521 45.116 239.341 44.936C239.161 44.756 238.855 44.666 238.423 44.648V44.414C239.575 44.342 240.565 44.108 241.393 43.712L241.555 43.802V45.764C241.699 45.206 241.969 44.72 242.365 44.306C242.761 43.91 243.211 43.694 243.751 43.694C244.165 43.694 244.507 43.838 244.777 44.09C245.029 44.36 245.173 44.666 245.173 45.008C245.173 45.314 245.065 45.566 244.885 45.782C244.705 45.998 244.453 46.088 244.147 46.088C243.931 46.088 243.769 46.052 243.643 45.944C243.517 45.854 243.409 45.728 243.337 45.584C243.265 45.44 243.193 45.296 243.157 45.152C243.085 45.008 243.031 44.918 242.977 44.846C242.905 44.792 242.833 44.756 242.725 44.756C242.437 44.756 242.185 44.936 241.969 45.26C241.753 45.602 241.609 45.998 241.555 46.448V51.182C241.555 51.758 241.699 52.172 241.987 52.406C242.275 52.658 242.671 52.766 243.193 52.766V53H238.351V52.766ZM245.513 49.418L245.747 49.364C246.035 50.282 246.449 51.092 246.989 51.794C247.529 52.514 248.231 52.874 249.131 52.874C249.689 52.874 250.139 52.73 250.463 52.442C250.787 52.154 250.967 51.776 250.985 51.326C250.985 50.894 250.823 50.516 250.517 50.228C250.193 49.94 249.689 49.67 248.969 49.418L247.889 48.986C247.133 48.698 246.575 48.356 246.179 47.924C245.783 47.492 245.603 46.952 245.603 46.304C245.603 45.836 245.729 45.386 246.017 44.99C246.287 44.594 246.665 44.288 247.151 44.054C247.637 43.838 248.177 43.712 248.753 43.712C249.221 43.712 249.761 43.82 250.355 44.018C250.679 44.126 250.895 44.162 251.003 44.162C251.255 44.162 251.453 43.982 251.561 43.604L251.813 43.586L252.047 47.114L251.795 47.15C251.651 46.682 251.435 46.214 251.147 45.728C250.859 45.242 250.499 44.828 250.085 44.486C249.653 44.162 249.203 43.982 248.717 43.982C248.231 43.982 247.835 44.126 247.547 44.414C247.259 44.702 247.115 45.062 247.115 45.458C247.115 45.854 247.259 46.214 247.565 46.502C247.871 46.79 248.357 47.06 249.005 47.276L250.067 47.708C250.877 48.014 251.471 48.374 251.867 48.788C252.263 49.202 252.461 49.706 252.461 50.3C252.461 50.894 252.299 51.398 252.011 51.83C251.705 52.262 251.309 52.604 250.823 52.82C250.337 53.054 249.815 53.162 249.257 53.162C248.933 53.162 248.627 53.144 248.375 53.09C248.105 53.036 247.799 52.964 247.457 52.856C247.079 52.748 246.827 52.694 246.701 52.694C246.557 52.694 246.431 52.748 246.341 52.82C246.251 52.892 246.161 53.018 246.089 53.198L245.819 53.216L245.513 49.418ZM253.935 41.966C253.701 41.714 253.593 41.408 253.593 41.012C253.593 40.652 253.701 40.364 253.935 40.13C254.169 39.896 254.475 39.77 254.853 39.77C255.231 39.77 255.537 39.896 255.771 40.13C256.005 40.364 256.131 40.652 256.131 41.012C256.131 41.408 256.005 41.714 255.771 41.966C255.537 42.218 255.231 42.326 254.853 42.326C254.475 42.326 254.169 42.218 253.935 41.966ZM252.783 52.766C253.179 52.766 253.485 52.658 253.701 52.406C253.917 52.172 254.043 51.758 254.043 51.182V45.836C254.043 45.404 253.935 45.116 253.755 44.936C253.575 44.756 253.269 44.666 252.855 44.648V44.414C254.007 44.342 254.997 44.108 255.825 43.712L255.987 43.802V51.182C255.987 51.776 256.095 52.19 256.311 52.424C256.527 52.658 256.833 52.766 257.247 52.766V53H252.783V52.766ZM258.873 52.352C258.441 51.794 258.225 51.074 258.225 50.174V44.594H257.091V44.342C257.829 44.27 258.459 44.018 258.963 43.55C259.467 43.082 259.791 42.452 259.935 41.642H260.187V43.874H262.869L262.563 44.594H260.187V49.976C260.187 50.588 260.313 51.092 260.565 51.47C260.817 51.866 261.177 52.046 261.627 52.046C261.987 52.046 262.275 51.938 262.509 51.686C262.743 51.434 262.905 51.128 262.995 50.75L263.211 50.786C263.121 51.47 262.851 52.028 262.419 52.496C261.969 52.964 261.429 53.18 260.817 53.18C259.953 53.18 259.305 52.91 258.873 52.352ZM265.908 56.42C265.44 56.204 265.062 55.898 264.81 55.538C264.558 55.178 264.432 54.782 264.432 54.368C264.432 54.08 264.522 53.864 264.702 53.684C264.882 53.504 265.098 53.414 265.368 53.414C265.638 53.414 265.872 53.522 266.052 53.72C266.232 53.918 266.34 54.152 266.34 54.44C266.34 54.584 266.322 54.71 266.286 54.854C266.268 54.908 266.25 54.98 266.25 55.052C266.232 55.142 266.232 55.214 266.232 55.286C266.232 55.646 266.358 55.934 266.628 56.15C266.88 56.366 267.204 56.456 267.582 56.456C269.148 56.456 269.94 55.052 269.94 52.208V50.804C269.742 51.38 269.418 51.884 268.968 52.316C268.5 52.748 267.942 52.946 267.258 52.946C266.682 52.946 266.178 52.802 265.746 52.514C265.296 52.226 264.954 51.812 264.702 51.272C264.45 50.732 264.324 50.084 264.324 49.346V45.836C264.324 45.404 264.216 45.116 264.036 44.936C263.856 44.756 263.55 44.666 263.136 44.648V44.414C264.288 44.342 265.278 44.108 266.106 43.712L266.268 43.802V49.148C266.268 49.976 266.412 50.642 266.736 51.11C267.042 51.596 267.51 51.83 268.14 51.83C268.68 51.83 269.094 51.65 269.4 51.272C269.706 50.894 269.886 50.444 269.94 49.94V45.836C269.94 45.404 269.832 45.116 269.652 44.936C269.472 44.756 269.166 44.666 268.752 44.648V44.414C269.904 44.342 270.894 44.108 271.722 43.712L271.884 43.802V51.992C271.884 53.018 271.668 53.882 271.272 54.602C270.858 55.322 270.318 55.862 269.67 56.222C269.022 56.582 268.32 56.744 267.564 56.744C266.934 56.744 266.376 56.636 265.908 56.42ZM52.9186 74.418L53.1526 74.364C53.4406 75.282 53.8546 76.092 54.3946 76.794C54.9346 77.514 55.6366 77.874 56.5366 77.874C57.0946 77.874 57.5446 77.73 57.8686 77.442C58.1926 77.154 58.3726 76.776 58.3906 76.326C58.3906 75.894 58.2286 75.516 57.9226 75.228C57.5986 74.94 57.0946 74.67 56.3746 74.418L55.2946 73.986C54.5386 73.698 53.9806 73.356 53.5846 72.924C53.1886 72.492 53.0086 71.952 53.0086 71.304C53.0086 70.836 53.1346 70.386 53.4226 69.99C53.6926 69.594 54.0706 69.288 54.5566 69.054C55.0426 68.838 55.5826 68.712 56.1586 68.712C56.6266 68.712 57.1666 68.82 57.7606 69.018C58.0846 69.126 58.3006 69.162 58.4086 69.162C58.6606 69.162 58.8586 68.982 58.9666 68.604L59.2186 68.586L59.4526 72.114L59.2006 72.15C59.0566 71.682 58.8406 71.214 58.5526 70.728C58.2646 70.242 57.9046 69.828 57.4906 69.486C57.0586 69.162 56.6086 68.982 56.1226 68.982C55.6366 68.982 55.2406 69.126 54.9526 69.414C54.6646 69.702 54.5206 70.062 54.5206 70.458C54.5206 70.854 54.6646 71.214 54.9706 71.502C55.2766 71.79 55.7626 72.06 56.4106 72.276L57.4726 72.708C58.2826 73.014 58.8766 73.374 59.2726 73.788C59.6686 74.202 59.8666 74.706 59.8666 75.3C59.8666 75.894 59.7046 76.398 59.4166 76.83C59.1106 77.262 58.7146 77.604 58.2286 77.82C57.7426 78.054 57.2206 78.162 56.6626 78.162C56.3386 78.162 56.0326 78.144 55.7806 78.09C55.5106 78.036 55.2046 77.964 54.8626 77.856C54.4846 77.748 54.2326 77.694 54.1066 77.694C53.9626 77.694 53.8366 77.748 53.7466 77.82C53.6566 77.892 53.5666 78.018 53.4946 78.198L53.2246 78.216L52.9186 74.418ZM62.6866 77.55C62.0566 77.136 61.5706 76.56 61.2286 75.84C60.8686 75.12 60.7066 74.346 60.7066 73.482C60.7066 72.582 60.8866 71.772 61.2826 71.052C61.6786 70.332 62.2006 69.756 62.8846 69.324C63.5506 68.91 64.2886 68.694 65.0806 68.694C65.7646 68.694 66.3766 68.856 66.8806 69.162C67.3846 69.486 67.7806 69.9 68.0506 70.422C68.3206 70.962 68.4646 71.538 68.4646 72.15H62.6146C62.5966 72.222 62.5966 72.33 62.5966 72.456C62.5966 73.302 62.7226 74.04 62.9926 74.688C63.2446 75.336 63.6226 75.84 64.1086 76.2C64.5946 76.56 65.1706 76.722 65.8186 76.722C66.5386 76.722 67.1506 76.506 67.6546 76.074C68.1586 75.642 68.4826 75.084 68.6266 74.364L68.8786 74.4C68.7706 75.12 68.5186 75.768 68.1586 76.344C67.7986 76.92 67.3306 77.37 66.7546 77.694C66.1786 78.018 65.5486 78.18 64.8646 78.18C64.0366 78.18 63.3166 77.982 62.6866 77.55ZM65.7826 71.844C66.0346 71.844 66.2326 71.79 66.3406 71.664C66.4486 71.538 66.5206 71.322 66.5206 71.034C66.5206 70.53 66.3766 70.062 66.1246 69.63C65.8546 69.198 65.4586 68.964 64.9366 68.964C64.3966 68.964 63.8926 69.252 63.4606 69.81C63.0106 70.386 62.7406 71.052 62.6326 71.844H65.7826ZM71.5108 77.55C70.8808 77.136 70.3948 76.56 70.0528 75.84C69.6928 75.12 69.5308 74.346 69.5308 73.482C69.5308 72.582 69.7108 71.772 70.1068 71.052C70.5028 70.332 71.0248 69.756 71.7088 69.324C72.3748 68.91 73.1128 68.694 73.9048 68.694C74.5888 68.694 75.2008 68.856 75.7048 69.162C76.2088 69.486 76.6048 69.9 76.8748 70.422C77.1448 70.962 77.2888 71.538 77.2888 72.15H71.4388C71.4208 72.222 71.4208 72.33 71.4208 72.456C71.4208 73.302 71.5468 74.04 71.8168 74.688C72.0688 75.336 72.4468 75.84 72.9328 76.2C73.4188 76.56 73.9948 76.722 74.6428 76.722C75.3628 76.722 75.9748 76.506 76.4788 76.074C76.9828 75.642 77.3068 75.084 77.4508 74.364L77.7028 74.4C77.5948 75.12 77.3428 75.768 76.9828 76.344C76.6228 76.92 76.1548 77.37 75.5788 77.694C75.0028 78.018 74.3728 78.18 73.6888 78.18C72.8608 78.18 72.1408 77.982 71.5108 77.55ZM74.6068 71.844C74.8588 71.844 75.0568 71.79 75.1648 71.664C75.2728 71.538 75.3448 71.322 75.3448 71.034C75.3448 70.53 75.2008 70.062 74.9488 69.63C74.6788 69.198 74.2828 68.964 73.7608 68.964C73.2208 68.964 72.7168 69.252 72.2848 69.81C71.8348 70.386 71.5648 71.052 71.4568 71.844H74.6068ZM83.7279 77.766C84.1239 77.766 84.4479 77.676 84.6819 77.496C84.9159 77.316 85.0419 77.01 85.0419 76.56C85.0419 76.416 85.0239 76.29 85.0239 76.2L84.4659 72.078C84.2499 70.548 83.6199 69.774 82.5939 69.774C82.1259 69.774 81.7119 69.972 81.3879 70.35C81.0639 70.746 80.8659 71.196 80.8299 71.736V76.182C80.8299 76.776 80.9379 77.19 81.1539 77.424C81.3699 77.658 81.6759 77.766 82.0899 77.766V78H77.6259V77.766C78.0219 77.766 78.3279 77.658 78.5439 77.406C78.7599 77.172 78.8859 76.758 78.8859 76.182V70.836C78.8859 70.404 78.7779 70.116 78.5979 69.936C78.4179 69.756 78.1119 69.666 77.6979 69.648V69.414C78.8499 69.342 79.8399 69.108 80.6679 68.712L80.8299 68.802V70.962C80.9919 70.314 81.3159 69.774 81.8019 69.342C82.2879 68.91 82.8639 68.694 83.5479 68.694C84.3219 68.694 84.9519 68.982 85.4559 69.522C85.9419 70.062 86.2659 70.908 86.4279 72.024L87.0399 76.2C87.1119 76.776 87.2559 77.19 87.4899 77.424C87.7059 77.658 88.0119 77.766 88.4079 77.766V78H83.7279V77.766ZM93.9115 77.352C93.4795 76.794 93.2635 76.074 93.2635 75.174V69.594H92.1295V69.342C92.8675 69.27 93.4975 69.018 94.0015 68.55C94.5055 68.082 94.8295 67.452 94.9735 66.642H95.2255V68.874H97.9075L97.6015 69.594H95.2255V74.976C95.2255 75.588 95.3515 76.092 95.6035 76.47C95.8555 76.866 96.2155 77.046 96.6655 77.046C97.0255 77.046 97.3135 76.938 97.5475 76.686C97.7815 76.434 97.9435 76.128 98.0335 75.75L98.2495 75.786C98.1595 76.47 97.8895 77.028 97.4575 77.496C97.0075 77.964 96.4675 78.18 95.8555 78.18C94.9915 78.18 94.3435 77.91 93.9115 77.352ZM104.117 77.766C104.549 77.766 104.873 77.676 105.125 77.496C105.359 77.316 105.485 77.01 105.485 76.56C105.485 76.416 105.467 76.29 105.467 76.2L104.909 72.078C104.693 70.548 104.063 69.774 103.037 69.774C102.569 69.774 102.173 69.972 101.849 70.35C101.525 70.746 101.327 71.196 101.273 71.736V76.182C101.273 76.776 101.381 77.19 101.597 77.424C101.813 77.658 102.119 77.766 102.533 77.766V78H98.0692V77.766C98.4652 77.766 98.7712 77.658 98.9872 77.406C99.2032 77.172 99.3292 76.758 99.3292 76.182V66.822C99.3292 66.39 99.2212 66.084 99.0412 65.904C98.8612 65.724 98.5552 65.634 98.1412 65.634V65.4C99.2932 65.328 100.283 65.094 101.111 64.698L101.273 64.788V70.962C101.435 70.314 101.759 69.774 102.245 69.342C102.731 68.91 103.307 68.694 103.991 68.694C104.765 68.694 105.395 68.982 105.899 69.522C106.385 70.062 106.709 70.908 106.871 72.024L107.483 76.2C107.555 76.776 107.699 77.19 107.951 77.424C108.185 77.658 108.509 77.766 108.905 77.766V78H104.117V77.766ZM108.933 77.766C109.329 77.766 109.635 77.658 109.851 77.406C110.067 77.172 110.193 76.758 110.193 76.182V70.836C110.193 70.404 110.103 70.116 109.923 69.936C109.743 69.756 109.437 69.666 109.005 69.648V69.414C110.157 69.342 111.147 69.108 111.975 68.712L112.137 68.802V70.764C112.281 70.206 112.551 69.72 112.947 69.306C113.343 68.91 113.793 68.694 114.333 68.694C114.747 68.694 115.089 68.838 115.359 69.09C115.611 69.36 115.755 69.666 115.755 70.008C115.755 70.314 115.647 70.566 115.467 70.782C115.287 70.998 115.035 71.088 114.729 71.088C114.513 71.088 114.351 71.052 114.225 70.944C114.099 70.854 113.991 70.728 113.919 70.584C113.847 70.44 113.775 70.296 113.739 70.152C113.667 70.008 113.613 69.918 113.559 69.846C113.487 69.792 113.415 69.756 113.307 69.756C113.019 69.756 112.767 69.936 112.551 70.26C112.335 70.602 112.191 70.998 112.137 71.448V76.182C112.137 76.758 112.281 77.172 112.569 77.406C112.857 77.658 113.253 77.766 113.775 77.766V78H108.933V77.766ZM118.012 77.55C117.31 77.136 116.752 76.56 116.356 75.822C115.942 75.102 115.744 74.292 115.744 73.392C115.744 72.474 115.942 71.664 116.356 70.944C116.752 70.224 117.31 69.684 118.012 69.288C118.696 68.892 119.452 68.694 120.28 68.694C121.108 68.694 121.864 68.91 122.548 69.306C123.232 69.72 123.79 70.278 124.204 70.998C124.6 71.718 124.816 72.528 124.816 73.428C124.816 74.346 124.618 75.174 124.222 75.894C123.826 76.614 123.268 77.19 122.584 77.586C121.9 77.982 121.144 78.18 120.316 78.18C119.47 78.18 118.696 77.982 118.012 77.55ZM118.84 76.722C119.344 77.478 119.956 77.838 120.64 77.838C121.324 77.838 121.846 77.514 122.224 76.848C122.584 76.2 122.782 75.336 122.782 74.274C122.782 73.932 122.746 73.5 122.692 72.996C122.53 71.808 122.206 70.854 121.702 70.134C121.198 69.414 120.622 69.036 119.956 69.036C119.254 69.036 118.714 69.378 118.336 70.044C117.958 70.728 117.778 71.592 117.778 72.636C117.778 73.068 117.796 73.446 117.85 73.788C117.994 74.994 118.336 75.966 118.84 76.722ZM127.468 77.766C127.018 77.478 126.676 77.064 126.424 76.524C126.172 75.984 126.046 75.336 126.046 74.598V70.836C126.046 70.404 125.938 70.116 125.758 69.936C125.578 69.756 125.272 69.666 124.858 69.648V69.414C126.01 69.342 127 69.108 127.828 68.712L127.99 68.802V74.4C127.99 75.228 128.134 75.894 128.458 76.362C128.764 76.848 129.232 77.082 129.862 77.082C130.402 77.082 130.816 76.902 131.122 76.524C131.428 76.146 131.608 75.696 131.662 75.192V70.836C131.662 70.404 131.554 70.116 131.374 69.936C131.194 69.756 130.888 69.666 130.474 69.648V69.414C131.626 69.342 132.616 69.108 133.444 68.712L133.606 68.802V76.308C133.606 76.704 133.696 76.974 133.876 77.118C134.056 77.262 134.38 77.316 134.812 77.298V77.532C133.642 77.676 132.652 77.91 131.842 78.216L131.662 78.108V76.056C131.464 76.632 131.14 77.136 130.69 77.568C130.222 78 129.664 78.198 128.98 78.198C128.404 78.198 127.9 78.054 127.468 77.766ZM136.782 81.42C136.26 81.204 135.864 80.916 135.594 80.556C135.324 80.214 135.198 79.854 135.198 79.476C135.198 79.224 135.36 78.972 135.684 78.72C136.008 78.486 136.458 78.234 137.034 77.982C136.548 77.874 136.17 77.676 135.9 77.352C135.63 77.028 135.504 76.668 135.504 76.254C135.504 76.11 135.522 75.984 135.594 75.912C135.648 75.84 135.792 75.714 136.026 75.552L136.458 75.246L137.196 74.688C136.62 74.436 136.17 74.058 135.846 73.572C135.522 73.104 135.36 72.546 135.36 71.916C135.36 71.286 135.522 70.728 135.846 70.224C136.17 69.72 136.638 69.342 137.232 69.054C137.808 68.784 138.492 68.64 139.248 68.64C139.482 68.64 139.824 68.676 140.292 68.748C140.904 68.838 141.408 68.874 141.84 68.874H143.712L143.406 69.594L141.66 69.558C142.092 69.864 142.416 70.224 142.65 70.638C142.866 71.07 142.992 71.502 142.992 71.97C142.992 72.582 142.83 73.14 142.506 73.608C142.182 74.076 141.75 74.454 141.174 74.706C140.598 74.976 139.95 75.102 139.194 75.102C138.528 75.102 137.934 74.994 137.412 74.778C137.16 74.994 136.98 75.174 136.908 75.282C136.818 75.39 136.782 75.498 136.782 75.57C136.782 76.056 137.142 76.29 137.862 76.29H141.246C141.966 76.29 142.524 76.416 142.938 76.668C143.352 76.92 143.568 77.352 143.568 77.964C143.568 78.576 143.334 79.17 142.902 79.746C142.47 80.34 141.858 80.826 141.102 81.204C140.346 81.582 139.5 81.762 138.582 81.762C137.898 81.762 137.286 81.654 136.782 81.42ZM137.646 80.304C138.15 80.628 138.816 80.79 139.644 80.79C140.292 80.79 140.85 80.7 141.354 80.502C141.84 80.322 142.218 80.07 142.488 79.782C142.758 79.494 142.902 79.188 142.902 78.882C142.902 78.63 142.794 78.414 142.578 78.27C142.362 78.126 142.056 78.036 141.642 78.036H137.646H137.43C137.214 78.216 137.034 78.396 136.926 78.558C136.818 78.72 136.764 78.918 136.782 79.134C136.836 79.602 137.124 79.98 137.646 80.304ZM137.826 73.914C138.24 74.508 138.78 74.796 139.428 74.796C139.95 74.796 140.364 74.562 140.688 74.058C140.994 73.554 141.156 72.942 141.156 72.204C141.156 71.628 141.048 71.106 140.868 70.602C140.688 70.098 140.418 69.702 140.094 69.396C139.77 69.108 139.392 68.946 138.996 68.946C138.42 68.946 137.988 69.216 137.682 69.756C137.358 70.296 137.214 70.908 137.214 71.628C137.214 72.564 137.412 73.338 137.826 73.914ZM150.066 77.766C150.498 77.766 150.822 77.676 151.074 77.496C151.308 77.316 151.434 77.01 151.434 76.56C151.434 76.416 151.416 76.29 151.416 76.2L150.858 72.078C150.642 70.548 150.012 69.774 148.986 69.774C148.518 69.774 148.122 69.972 147.798 70.35C147.474 70.746 147.276 71.196 147.222 71.736V76.182C147.222 76.776 147.33 77.19 147.546 77.424C147.762 77.658 148.068 77.766 148.482 77.766V78H144.018V77.766C144.414 77.766 144.72 77.658 144.936 77.406C145.152 77.172 145.278 76.758 145.278 76.182V66.822C145.278 66.39 145.17 66.084 144.99 65.904C144.81 65.724 144.504 65.634 144.09 65.634V65.4C145.242 65.328 146.232 65.094 147.06 64.698L147.222 64.788V70.962C147.384 70.314 147.708 69.774 148.194 69.342C148.68 68.91 149.256 68.694 149.94 68.694C150.714 68.694 151.344 68.982 151.848 69.522C152.334 70.062 152.658 70.908 152.82 72.024L153.432 76.2C153.504 76.776 153.648 77.19 153.9 77.424C154.134 77.658 154.458 77.766 154.854 77.766V78H150.066V77.766ZM160.357 77.352C159.925 76.794 159.709 76.074 159.709 75.174V69.594H158.575V69.342C159.313 69.27 159.943 69.018 160.447 68.55C160.951 68.082 161.275 67.452 161.419 66.642H161.671V68.874H164.353L164.047 69.594H161.671V74.976C161.671 75.588 161.797 76.092 162.049 76.47C162.301 76.866 162.661 77.046 163.111 77.046C163.471 77.046 163.759 76.938 163.993 76.686C164.227 76.434 164.389 76.128 164.479 75.75L164.695 75.786C164.605 76.47 164.335 77.028 163.903 77.496C163.453 77.964 162.913 78.18 162.301 78.18C161.437 78.18 160.789 77.91 160.357 77.352ZM170.563 77.766C170.995 77.766 171.319 77.676 171.571 77.496C171.805 77.316 171.931 77.01 171.931 76.56C171.931 76.416 171.913 76.29 171.913 76.2L171.355 72.078C171.139 70.548 170.509 69.774 169.483 69.774C169.015 69.774 168.619 69.972 168.295 70.35C167.971 70.746 167.773 71.196 167.719 71.736V76.182C167.719 76.776 167.827 77.19 168.043 77.424C168.259 77.658 168.565 77.766 168.979 77.766V78H164.515V77.766C164.911 77.766 165.217 77.658 165.433 77.406C165.649 77.172 165.775 76.758 165.775 76.182V66.822C165.775 66.39 165.667 66.084 165.487 65.904C165.307 65.724 165.001 65.634 164.587 65.634V65.4C165.739 65.328 166.729 65.094 167.557 64.698L167.719 64.788V70.962C167.881 70.314 168.205 69.774 168.691 69.342C169.177 68.91 169.753 68.694 170.437 68.694C171.211 68.694 171.841 68.982 172.345 69.522C172.831 70.062 173.155 70.908 173.317 72.024L173.929 76.2C174.001 76.776 174.145 77.19 174.397 77.424C174.631 77.658 174.955 77.766 175.351 77.766V78H170.563V77.766ZM177.085 77.55C176.455 77.136 175.969 76.56 175.627 75.84C175.267 75.12 175.105 74.346 175.105 73.482C175.105 72.582 175.285 71.772 175.681 71.052C176.077 70.332 176.599 69.756 177.283 69.324C177.949 68.91 178.687 68.694 179.479 68.694C180.163 68.694 180.775 68.856 181.279 69.162C181.783 69.486 182.179 69.9 182.449 70.422C182.719 70.962 182.863 71.538 182.863 72.15H177.013C176.995 72.222 176.995 72.33 176.995 72.456C176.995 73.302 177.121 74.04 177.391 74.688C177.643 75.336 178.021 75.84 178.507 76.2C178.993 76.56 179.569 76.722 180.217 76.722C180.937 76.722 181.549 76.506 182.053 76.074C182.557 75.642 182.881 75.084 183.025 74.364L183.277 74.4C183.169 75.12 182.917 75.768 182.557 76.344C182.197 76.92 181.729 77.37 181.153 77.694C180.577 78.018 179.947 78.18 179.263 78.18C178.435 78.18 177.715 77.982 177.085 77.55ZM180.181 71.844C180.433 71.844 180.631 71.79 180.739 71.664C180.847 71.538 180.919 71.322 180.919 71.034C180.919 70.53 180.775 70.062 180.523 69.63C180.253 69.198 179.857 68.964 179.335 68.964C178.795 68.964 178.291 69.252 177.859 69.81C177.409 70.386 177.139 71.052 177.031 71.844H180.181ZM194.605 76.272C194.317 76.848 193.939 77.316 193.507 77.658C193.057 78.018 192.553 78.18 191.995 78.18C191.131 78.18 190.447 77.892 189.943 77.28C189.439 76.686 189.079 75.768 188.881 74.526L188.233 70.674C188.125 70.098 187.963 69.702 187.729 69.468C187.477 69.234 187.171 69.108 186.775 69.108V68.874H191.131V69.108C190.465 69.108 190.141 69.468 190.141 70.17C190.141 70.386 190.141 70.566 190.177 70.674L190.699 73.986C190.861 74.958 191.113 75.678 191.437 76.146C191.761 76.632 192.247 76.866 192.877 76.866C193.489 76.866 194.047 76.596 194.515 76.02C194.353 75.588 194.227 75.102 194.137 74.526L193.489 70.674C193.381 70.098 193.219 69.702 193.003 69.468C192.769 69.234 192.463 69.108 192.103 69.108V68.874H196.387V69.108C195.721 69.108 195.397 69.468 195.397 70.188C195.397 70.404 195.397 70.566 195.433 70.674L195.973 73.986C196.117 74.958 196.369 75.696 196.711 76.164C197.035 76.632 197.521 76.866 198.133 76.866C198.637 76.866 199.123 76.704 199.573 76.362C200.023 76.038 200.383 75.57 200.671 74.994C200.941 74.418 201.085 73.77 201.085 73.086C201.085 72.294 200.923 71.628 200.599 71.124C200.275 70.62 199.861 70.368 199.321 70.368C199.105 70.368 198.853 70.422 198.601 70.512C198.493 70.566 198.349 70.584 198.205 70.584C197.953 70.584 197.737 70.512 197.557 70.332C197.377 70.17 197.305 69.954 197.305 69.684C197.305 69.396 197.395 69.162 197.575 68.982C197.755 68.802 198.007 68.712 198.367 68.712C198.871 68.712 199.357 68.874 199.825 69.162C200.293 69.45 200.671 69.9 200.959 70.494C201.247 71.106 201.409 71.844 201.409 72.708C201.409 73.698 201.211 74.616 200.833 75.444C200.455 76.29 199.951 76.956 199.321 77.442C198.691 77.946 198.025 78.18 197.323 78.18C196.045 78.18 195.145 77.55 194.605 76.272ZM204.384 77.55C203.754 77.136 203.268 76.56 202.926 75.84C202.566 75.12 202.404 74.346 202.404 73.482C202.404 72.582 202.584 71.772 202.98 71.052C203.376 70.332 203.898 69.756 204.582 69.324C205.248 68.91 205.986 68.694 206.778 68.694C207.462 68.694 208.074 68.856 208.578 69.162C209.082 69.486 209.478 69.9 209.748 70.422C210.018 70.962 210.162 71.538 210.162 72.15H204.312C204.294 72.222 204.294 72.33 204.294 72.456C204.294 73.302 204.42 74.04 204.69 74.688C204.942 75.336 205.32 75.84 205.806 76.2C206.292 76.56 206.868 76.722 207.516 76.722C208.236 76.722 208.848 76.506 209.352 76.074C209.856 75.642 210.18 75.084 210.324 74.364L210.576 74.4C210.468 75.12 210.216 75.768 209.856 76.344C209.496 76.92 209.028 77.37 208.452 77.694C207.876 78.018 207.246 78.18 206.562 78.18C205.734 78.18 205.014 77.982 204.384 77.55ZM207.48 71.844C207.732 71.844 207.93 71.79 208.038 71.664C208.146 71.538 208.218 71.322 208.218 71.034C208.218 70.53 208.074 70.062 207.822 69.63C207.552 69.198 207.156 68.964 206.634 68.964C206.094 68.964 205.59 69.252 205.158 69.81C204.708 70.386 204.438 71.052 204.33 71.844H207.48ZM213.432 77.856C212.766 77.64 212.172 77.352 211.632 76.992V66.822C211.632 66.39 211.524 66.084 211.344 65.904C211.164 65.724 210.858 65.634 210.444 65.634V65.4C211.596 65.328 212.586 65.094 213.414 64.698L213.576 64.788V70.89C213.738 70.332 214.08 69.828 214.602 69.396C215.106 68.964 215.718 68.73 216.42 68.73C217.122 68.73 217.752 68.946 218.31 69.378C218.85 69.81 219.282 70.368 219.588 71.07C219.876 71.79 220.038 72.546 220.038 73.356C220.038 74.292 219.84 75.138 219.444 75.858C219.048 76.596 218.49 77.172 217.806 77.568C217.122 77.982 216.348 78.18 215.52 78.18C214.8 78.18 214.098 78.072 213.432 77.856ZM214.08 77.01C214.422 77.622 214.944 77.91 215.628 77.91C216.348 77.91 216.942 77.55 217.374 76.812C217.806 76.092 218.022 75.138 218.022 73.968C218.022 73.104 217.896 72.348 217.68 71.7C217.464 71.07 217.158 70.584 216.78 70.26C216.384 69.936 215.952 69.756 215.466 69.756C214.998 69.756 214.602 69.936 214.26 70.26C213.9 70.584 213.684 70.998 213.576 71.502V74.166C213.576 75.462 213.738 76.398 214.08 77.01Z" fill="#1A1A1A"/>
</svg>
