<?xml version="1.0" encoding="UTF-8"?><svg id="a" xmlns="http://www.w3.org/2000/svg" viewBox="0 0 292.78 81.45"><defs><style>.b{fill:#1a1a1a;stroke-width:0px;}</style></defs><path class="b" d="m14.53,20.33c.76,0,1.48-.28,2.16-.9.67-.59,1.23-1.54,1.71-2.83l3.7-10.19c.34-.95.5-1.71.5-2.3,0-1.2-.67-1.82-2.02-1.82v-.39c.67,0,1.4-.11,2.13-.34.73-.22,1.43-.56,2.04-.98l.36.14,6.3,17.25c.31.9.67,1.51,1.12,1.85.42.34.95.5,1.57.5v.36h-7.5v-.36c1.09,0,1.65-.42,1.65-1.26,0-.34-.08-.7-.22-1.09l-1.18-3.33h-7.06l-.7,1.96c-.22.64-.34,1.2-.34,1.68,0,.7.2,1.2.64,1.54.42.34,1.01.5,1.76.5v.36h-6.64v-.36Zm12.15-6.16l-3.33-9.41-3.39,9.41h6.72Zm6.32,11.76c.62,0,1.09-.17,1.43-.56.34-.36.53-1.01.53-1.9v-13.92c0-.67-.17-1.12-.45-1.4-.28-.28-.76-.42-1.4-.45v-.36c1.79-.11,3.33-.48,4.62-1.09l.25.14v2.91c.25-.73.78-1.43,1.6-2.07.81-.62,1.79-.95,2.91-.95s2.04.34,2.91.95c.87.64,1.54,1.51,2.04,2.6.5,1.12.76,2.32.76,3.67s-.31,2.63-.87,3.78c-.59,1.15-1.37,2.04-2.38,2.72-1.01.67-2.13.98-3.3.98-1.48,0-2.72-.53-3.67-1.65v4.14c0,.92.2,1.57.62,1.93.39.36.98.53,1.74.53v.36h-7.34v-.36Zm5.91-7.03c.62,1.04,1.46,1.54,2.52,1.54.67,0,1.29-.22,1.85-.73.56-.5.98-1.2,1.29-2.1.31-.9.48-1.9.48-3.08,0-1.4-.2-2.6-.56-3.61-.36-1.01-.87-1.76-1.48-2.3-.62-.5-1.32-.78-2.07-.78s-1.32.22-1.82.67-.9,1.01-1.12,1.68v4.84c0,1.57.31,2.86.92,3.86Zm11.23-15.37c-.36-.39-.53-.87-.53-1.48,0-.56.17-1.01.53-1.37.36-.36.84-.56,1.43-.56s1.06.2,1.43.56c.36.36.56.81.56,1.37,0,.62-.2,1.09-.56,1.48-.36.39-.84.56-1.43.56s-1.06-.17-1.43-.56Zm-1.79,16.8c.62,0,1.09-.17,1.43-.56.34-.36.53-1.01.53-1.9v-8.32c0-.67-.17-1.12-.45-1.4-.28-.28-.76-.42-1.4-.45v-.36c1.79-.11,3.33-.48,4.62-1.09l.25.14v11.48c0,.92.17,1.57.5,1.93s.81.53,1.46.53v.36h-6.94v-.36Zm10.04,2.74c.45-.5.7-1.01.7-1.51,0-.28-.08-.48-.22-.62-.17-.14-.39-.31-.7-.48-.42-.2-.73-.42-.92-.64-.22-.22-.31-.59-.31-1.09s.17-.92.53-1.26c.34-.34.76-.53,1.26-.53.62,0,1.09.25,1.48.76.36.5.56,1.12.56,1.85,0,1.23-.42,2.27-1.2,3.16s-1.71,1.54-2.72,1.88l-.14-.36c.64-.25,1.2-.64,1.68-1.15Zm14.62-3.36c-1.57-.87-2.8-2.07-3.7-3.61-.9-1.51-1.32-3.25-1.32-5.18s.42-3.53,1.29-5.1c.84-1.54,2.04-2.77,3.61-3.7,1.54-.9,3.33-1.37,5.35-1.37.81,0,1.54.08,2.21.25.67.17,1.2.31,1.6.45.39.14.67.22.78.25.42.14.73.2.9.2.28,0,.53-.08.76-.31.22-.2.36-.48.42-.84l.39-.03.53,7.53-.36.06c-.28-1.26-.81-2.44-1.54-3.53-.76-1.06-1.62-1.93-2.63-2.58-1.01-.64-2.04-.98-3.08-.98-1.26,0-2.41.39-3.42,1.15-1.04.78-1.85,1.85-2.46,3.19-.62,1.37-.9,2.91-.9,4.62,0,1.79.31,3.47.92,5.04.62,1.6,1.46,2.88,2.58,3.84,1.09.98,2.35,1.46,3.78,1.46,1.12,0,2.13-.36,2.97-1.09.84-.73,1.26-1.88,1.26-3.42v-1.2c0-.9-.25-1.54-.7-1.93-.48-.36-1.15-.56-2.02-.56v-.36l7.17.03v.36c-.45,0-.81.2-1.04.56-.22.36-.34,1.01-.34,1.9v2.77c0,.14-.03.25-.08.31-.06.08-.14.2-.31.36-.9.84-1.93,1.51-3.16,2.02s-2.58.73-4.09.73c-2.02,0-3.81-.42-5.38-1.29Zm14.44.62c.62,0,1.09-.17,1.43-.56.34-.36.53-1.01.53-1.9l.08-14.56c0-.67-.17-1.15-.45-1.43s-.76-.42-1.4-.42v-.36c1.79-.11,3.33-.48,4.62-1.09l.25.14v17.72c0,.9.17,1.54.5,1.9.34.39.84.56,1.46.56v.36h-7.03v-.36Zm9.12-16.8c-.36-.39-.53-.87-.53-1.48,0-.56.17-1.01.53-1.37.36-.36.84-.56,1.43-.56s1.06.2,1.43.56c.36.36.56.81.56,1.37,0,.62-.2,1.09-.56,1.48-.36.39-.84.56-1.43.56s-1.06-.17-1.43-.56Zm-1.79,16.8c.62,0,1.09-.17,1.43-.56.34-.36.53-1.01.53-1.9v-8.32c0-.67-.17-1.12-.45-1.4-.28-.28-.76-.42-1.4-.45v-.36c1.79-.11,3.33-.48,4.62-1.09l.25.14v11.48c0,.92.17,1.57.5,1.93s.81.53,1.46.53v.36h-6.94v-.36Zm10.34-.28c-1.01-.62-1.82-1.48-2.41-2.58-.59-1.09-.87-2.32-.87-3.7s.31-2.63.95-3.81c.62-1.15,1.48-2.07,2.58-2.74,1.06-.67,2.24-1.01,3.53-1.01.95,0,1.79.2,2.55.59.73.39,1.32.92,1.74,1.54.42.62.64,1.29.64,1.96,0,.56-.17,1.01-.48,1.32-.31.34-.67.48-1.12.48s-.78-.14-1.04-.42c-.28-.28-.39-.62-.39-1.06,0-.22.08-.56.25-.98.17-.36.25-.7.25-.98,0-.53-.22-1.01-.67-1.4-.45-.39-.98-.59-1.65-.59-.81,0-1.54.28-2.21.78-.67.5-1.2,1.23-1.6,2.13-.39.92-.59,1.93-.59,3.05,0,1.23.22,2.3.73,3.19.48.92,1.12,1.62,1.9,2.13.78.5,1.65.73,2.6.73,1.12,0,2.1-.34,2.91-1.01.81-.67,1.32-1.57,1.54-2.63l.36.06c-.28,1.74-.95,3.14-2.04,4.23-1.09,1.12-2.46,1.65-4.14,1.65-1.23,0-2.32-.31-3.33-.92Zm11.16-16.52c-.36-.39-.53-.87-.53-1.48,0-.56.17-1.01.53-1.37.36-.36.84-.56,1.43-.56s1.06.2,1.43.56c.36.36.56.81.56,1.37,0,.62-.2,1.09-.56,1.48-.36.39-.84.56-1.43.56s-1.06-.17-1.43-.56Zm-1.79,16.8c.62,0,1.09-.17,1.43-.56.34-.36.53-1.01.53-1.9v-8.32c0-.67-.17-1.12-.45-1.4-.28-.28-.76-.42-1.4-.45v-.36c1.79-.11,3.33-.48,4.62-1.09l.25.14v11.48c0,.92.17,1.57.5,1.93.34.36.81.53,1.46.53v.36h-6.94v-.36Zm16.68,0c.62,0,1.12-.14,1.48-.42.36-.28.56-.76.56-1.46,0-.22-.03-.42-.03-.56l-.87-6.41c-.34-2.38-1.32-3.58-2.91-3.58-.73,0-1.37.31-1.88.9-.5.62-.81,1.32-.87,2.16v6.92c0,.92.17,1.57.5,1.93s.81.53,1.46.53v.36h-6.94v-.36c.62,0,1.09-.17,1.43-.56.34-.36.53-1.01.53-1.9v-8.32c0-.67-.17-1.12-.45-1.4-.28-.28-.76-.42-1.4-.45v-.36c1.79-.11,3.33-.48,4.62-1.09l.25.14v3.36c.25-1.01.76-1.85,1.51-2.52.76-.67,1.65-1.01,2.72-1.01,1.2,0,2.18.45,2.97,1.29.76.84,1.26,2.16,1.51,3.89l.95,6.5c.11.9.34,1.54.7,1.9.34.36.81.53,1.43.53v.36h-7.28v-.36Zm9.12-16.8c-.36-.39-.53-.87-.53-1.48,0-.56.17-1.01.53-1.37.36-.36.84-.56,1.43-.56s1.06.2,1.43.56c.36.36.56.81.56,1.37,0,.62-.2,1.09-.56,1.48-.36.39-.84.56-1.43.56s-1.06-.17-1.43-.56Zm-1.79,16.8c.62,0,1.09-.17,1.43-.56.34-.36.53-1.01.53-1.9v-8.32c0-.67-.17-1.12-.45-1.4-.28-.28-.76-.42-1.4-.45v-.36c1.79-.11,3.33-.48,4.62-1.09l.25.14v11.48c0,.92.17,1.57.5,1.93s.81.53,1.46.53v.36h-6.94v-.36Zm10.04,2.74c.45-.5.7-1.01.7-1.51,0-.28-.08-.48-.22-.62-.17-.14-.39-.31-.7-.48-.42-.2-.73-.42-.92-.64-.22-.22-.31-.59-.31-1.09s.17-.92.53-1.26c.34-.34.76-.53,1.26-.53.62,0,1.09.25,1.48.76.36.5.56,1.12.56,1.85,0,1.23-.42,2.27-1.2,3.16-.78.9-1.71,1.54-2.72,1.88l-.14-.36c.64-.25,1.2-.64,1.68-1.15Zm14.32-3.39c-1.46-.9-2.6-2.1-3.44-3.61-.84-1.51-1.26-3.19-1.26-5.04s.42-3.58,1.26-5.15c.84-1.57,2.02-2.8,3.5-3.72,1.46-.92,3.08-1.4,4.87-1.4.78,0,1.51.08,2.16.25.62.17,1.26.39,1.93.67.28.14.56.25.84.34.28.08.53.11.76.11.31,0,.59-.08.81-.28.22-.17.34-.45.39-.84l.39-.03.59,7.48-.39.06c-.28-1.32-.78-2.52-1.54-3.64-.76-1.12-1.65-1.99-2.72-2.66-1.06-.64-2.16-.98-3.3-.98-1.26,0-2.41.36-3.42,1.09-1.01.73-1.82,1.71-2.41,2.94-.62,1.23-.9,2.6-.9,4.12,0,1.76.34,3.36,1.06,4.76s1.71,2.49,2.97,3.28c1.23.78,2.63,1.18,4.2,1.18,1.71,0,3.16-.48,4.34-1.43,1.18-.95,2.04-2.18,2.58-3.7l.34.08c-.28,1.4-.78,2.66-1.57,3.78-.78,1.12-1.79,2.02-3.02,2.69-1.23.67-2.58.98-4.06.98-1.85,0-3.5-.42-4.96-1.32Zm17.84.31c-.98-.64-1.74-1.54-2.27-2.66-.56-1.12-.81-2.32-.81-3.67s.28-2.66.9-3.78c.62-1.12,1.43-2.02,2.49-2.69,1.04-.64,2.18-.98,3.42-.98,1.06,0,2.02.25,2.8.73.78.5,1.4,1.15,1.82,1.96.42.84.64,1.74.64,2.69h-9.1c-.03.11-.03.28-.03.48,0,1.32.2,2.46.62,3.47.39,1.01.98,1.79,1.74,2.35.76.56,1.65.81,2.66.81,1.12,0,2.07-.34,2.86-1.01.78-.67,1.29-1.54,1.51-2.66l.39.06c-.17,1.12-.56,2.13-1.12,3.02s-1.29,1.6-2.18,2.1c-.9.5-1.88.76-2.94.76-1.29,0-2.41-.31-3.39-.98Zm4.82-8.88c.39,0,.7-.08.87-.28s.28-.53.28-.98c0-.78-.22-1.51-.62-2.18-.42-.67-1.04-1.04-1.85-1.04s-1.62.45-2.3,1.32c-.7.9-1.12,1.93-1.29,3.16h4.9Zm22.93,9.21c.67,0,1.18-.14,1.57-.42.36-.28.56-.76.56-1.46,0-.22-.03-.42-.03-.56l-.9-6.41c-.34-2.38-1.32-3.58-2.91-3.58-.78,0-1.43.28-1.9.81-.48.53-.76,1.2-.87,1.99.03.39.06.67.06.9v6.27c0,.9.17,1.54.5,1.9.34.39.84.56,1.46.56v.36h-6.83v-.36c.59,0,1.04-.17,1.37-.53s.5-1.01.5-1.93v-5.8c0-1.34-.28-2.38-.78-3.11-.5-.73-1.23-1.09-2.16-1.09-.76,0-1.4.28-1.93.78-.56.53-.87,1.15-.95,1.85v7.36c0,.92.14,1.57.48,1.93s.78.53,1.4.53v.36h-6.86v-.36c.62,0,1.09-.17,1.43-.56.34-.36.53-1.01.53-1.9v-8.32c0-.67-.17-1.12-.45-1.4-.28-.28-.76-.42-1.4-.45v-.36c1.79-.11,3.33-.48,4.62-1.09l.25.14v3c.28-.87.81-1.62,1.6-2.24.76-.62,1.62-.92,2.63-.92,1.06,0,1.99.34,2.77.95.78.62,1.34,1.51,1.62,2.63.22-1.01.73-1.85,1.51-2.55.76-.67,1.68-1.04,2.77-1.04,2.55,0,4.09,1.74,4.59,5.18l.95,6.5c.11.9.36,1.54.76,1.9.36.36.87.53,1.48.53v.36h-7.45v-.36Zm10.1-.34c-.98-.64-1.74-1.54-2.27-2.66-.56-1.12-.81-2.32-.81-3.67s.28-2.66.9-3.78c.62-1.12,1.43-2.02,2.49-2.69,1.04-.64,2.18-.98,3.42-.98,1.06,0,2.02.25,2.8.73.78.5,1.4,1.15,1.82,1.96.42.84.64,1.74.64,2.69h-9.1c-.03.11-.03.28-.03.48,0,1.32.2,2.46.62,3.47.39,1.01.98,1.79,1.74,2.35.76.56,1.65.81,2.66.81,1.12,0,2.07-.34,2.86-1.01.78-.67,1.29-1.54,1.51-2.66l.39.06c-.17,1.12-.56,2.13-1.12,3.02s-1.29,1.6-2.18,2.1c-.9.5-1.88.76-2.94.76-1.29,0-2.41-.31-3.39-.98Zm4.82-8.88c.39,0,.7-.08.87-.28s.28-.53.28-.98c0-.78-.22-1.51-.62-2.18-.42-.67-1.04-1.04-1.85-1.04s-1.62.45-2.3,1.32c-.7.9-1.12,1.93-1.29,3.16h4.9Zm14.19,9.21c.62,0,1.12-.14,1.48-.42.36-.28.56-.76.56-1.46,0-.22-.03-.42-.03-.56l-.87-6.41c-.34-2.38-1.32-3.58-2.91-3.58-.73,0-1.37.31-1.88.9-.5.62-.81,1.32-.87,2.16v6.92c0,.92.17,1.57.5,1.93s.81.53,1.46.53v.36h-6.94v-.36c.62,0,1.09-.17,1.43-.56.34-.36.53-1.01.53-1.9v-8.32c0-.67-.17-1.12-.45-1.4-.28-.28-.76-.42-1.4-.45v-.36c1.79-.11,3.33-.48,4.62-1.09l.25.14v3.36c.25-1.01.76-1.85,1.51-2.52.76-.67,1.65-1.01,2.72-1.01,1.2,0,2.18.45,2.97,1.29.76.84,1.26,2.16,1.51,3.89l.95,6.5c.11.9.34,1.54.7,1.9.34.36.81.53,1.43.53v.36h-7.28v-.36Zm8.98-.64c-.67-.87-1.01-1.99-1.01-3.39V7.62h-1.76v-.39c1.15-.11,2.13-.5,2.91-1.23.78-.73,1.29-1.71,1.51-2.97h.39v3.47h4.17l-.48,1.12h-3.7v8.37c0,.95.2,1.74.59,2.32.39.62.95.9,1.65.9.56,0,1.01-.17,1.37-.56s.62-.87.76-1.46l.34.06c-.14,1.06-.56,1.93-1.23,2.66-.7.73-1.54,1.06-2.49,1.06-1.34,0-2.35-.42-3.02-1.29Zm10.39.31c-1.09-.64-1.96-1.54-2.58-2.69-.64-1.12-.95-2.38-.95-3.78s.31-2.69.95-3.81c.62-1.12,1.48-1.96,2.58-2.58,1.06-.62,2.24-.92,3.53-.92s2.46.34,3.53.95c1.06.64,1.93,1.51,2.58,2.63.62,1.12.95,2.38.95,3.78s-.31,2.72-.92,3.84c-.62,1.12-1.48,2.02-2.55,2.63-1.06.62-2.24.92-3.53.92s-2.52-.31-3.58-.98Zm1.29-1.29c.78,1.18,1.74,1.74,2.8,1.74s1.88-.5,2.46-1.54c.56-1.01.87-2.35.87-4,0-.53-.06-1.2-.14-1.99-.25-1.85-.76-3.33-1.54-4.45s-1.68-1.71-2.72-1.71c-1.09,0-1.93.53-2.52,1.57-.59,1.06-.87,2.41-.87,4.03,0,.67.03,1.26.11,1.79.22,1.88.76,3.39,1.54,4.56Zm10.76,1.65c-.36-.39-.53-.87-.53-1.48,0-.56.17-1.01.53-1.4.36-.36.84-.56,1.43-.56s1.04.2,1.4.56c.36.39.56.84.56,1.4,0,.62-.2,1.09-.56,1.48-.36.39-.84.56-1.4.56-.59,0-1.06-.17-1.43-.56ZM10.62,52.46c.4,0,.7-.11.92-.36.22-.23.34-.65.34-1.22v-8.96c0-.58-.13-.97-.34-1.22-.22-.23-.52-.36-.92-.36v-.23h8.86l.52,3.73-.23.05c-.4-2.3-1.51-3.47-3.35-3.47h-2.48v5.78h2c.59,0,1.03-.14,1.3-.47.27-.31.41-.85.41-1.62h.25v4.52h-.25c0-.76-.14-1.31-.41-1.64-.29-.32-.72-.49-1.31-.49h-1.98v4.93c0,.36.05.61.2.76.13.14.38.22.76.22h1.82c1.01,0,1.8-.27,2.38-.85.58-.56,1.03-1.39,1.35-2.48l.2.05-.7,3.58h-9.31v-.23Zm11.41-10.8c-.23-.25-.34-.56-.34-.95,0-.36.11-.65.34-.88.23-.23.54-.36.92-.36s.68.13.92.36c.23.23.36.52.36.88,0,.4-.13.7-.36.95-.23.25-.54.36-.92.36s-.68-.11-.92-.36Zm-1.15,10.8c.4,0,.7-.11.92-.36.22-.23.34-.65.34-1.22v-5.35c0-.43-.11-.72-.29-.9-.18-.18-.49-.27-.9-.29v-.23c1.15-.07,2.14-.31,2.97-.7l.16.09v7.38c0,.59.11,1.01.32,1.24.22.23.52.34.94.34v.23h-4.46v-.23Zm6.44,3.65c-.52-.22-.92-.5-1.19-.86-.27-.34-.4-.7-.4-1.08,0-.25.16-.5.49-.76.32-.23.77-.49,1.35-.74-.49-.11-.86-.31-1.13-.63-.27-.32-.4-.68-.4-1.1,0-.14.02-.27.09-.34.05-.07.2-.2.43-.36l.43-.31.74-.56c-.58-.25-1.03-.63-1.35-1.12-.32-.47-.49-1.03-.49-1.66s.16-1.19.49-1.69c.32-.5.79-.88,1.39-1.17.58-.27,1.26-.41,2.02-.41.23,0,.58.04,1.04.11.61.09,1.12.13,1.55.13h1.87l-.31.72-1.75-.04c.43.31.76.67.99,1.08.22.43.34.86.34,1.33,0,.61-.16,1.17-.49,1.64-.32.47-.76.85-1.33,1.1-.58.27-1.22.4-1.98.4-.67,0-1.26-.11-1.78-.32-.25.22-.43.4-.5.5-.09.11-.13.22-.13.29,0,.49.36.72,1.08.72h3.38c.72,0,1.28.13,1.69.38.41.25.63.68.63,1.3s-.23,1.21-.67,1.78c-.43.59-1.04,1.08-1.8,1.46-.76.38-1.6.56-2.52.56-.68,0-1.3-.11-1.8-.34Zm.86-1.12c.5.32,1.17.49,2,.49.65,0,1.21-.09,1.71-.29.49-.18.86-.43,1.13-.72.27-.29.41-.59.41-.9,0-.25-.11-.47-.32-.61-.22-.14-.52-.23-.94-.23h-4.21c-.22.18-.4.36-.5.52-.11.16-.16.36-.14.58.05.47.34.85.86,1.17Zm.18-6.39c.41.59.95.88,1.6.88.52,0,.94-.23,1.26-.74.31-.5.47-1.12.47-1.85,0-.58-.11-1.1-.29-1.6-.18-.5-.45-.9-.77-1.21-.32-.29-.7-.45-1.1-.45-.58,0-1.01.27-1.31.81-.32.54-.47,1.15-.47,1.87,0,.94.2,1.71.61,2.29Zm12.24,3.85c.43,0,.76-.09,1.01-.27.23-.18.36-.49.36-.94,0-.14-.02-.27-.02-.36l-.56-4.12c-.22-1.53-.85-2.3-1.87-2.3-.47,0-.86.2-1.19.58-.32.4-.52.85-.58,1.39v4.45c0,.59.11,1.01.32,1.24s.52.34.94.34v.23h-4.46v-.23c.4,0,.7-.11.92-.36.22-.23.34-.65.34-1.22v-9.36c0-.43-.11-.74-.29-.92s-.49-.27-.9-.27v-.23c1.15-.07,2.14-.31,2.97-.7l.16.09v6.17c.16-.65.49-1.19.97-1.62s1.06-.65,1.75-.65c.77,0,1.4.29,1.91.83.49.54.81,1.39.97,2.5l.61,4.18c.07.58.22.99.47,1.22.23.23.56.34.95.34v.23h-4.79v-.23Zm5.88-.41c-.43-.56-.65-1.28-.65-2.18v-5.58h-1.13v-.25c.74-.07,1.37-.32,1.87-.79.5-.47.83-1.1.97-1.91h.25v2.23h2.68l-.31.72h-2.38v5.38c0,.61.13,1.12.38,1.49.25.4.61.58,1.06.58.36,0,.65-.11.88-.36.23-.25.4-.56.49-.94l.22.04c-.09.68-.36,1.24-.79,1.71-.45.47-.99.68-1.6.68-.86,0-1.51-.27-1.94-.83Zm10.31.22c-.58-.4-1.01-.95-1.33-1.67-.32-.7-.47-1.49-.47-2.36s.18-1.67.56-2.41c.36-.72.88-1.31,1.53-1.75.65-.43,1.35-.65,2.14-.65.94,0,1.73.36,2.34,1.08v-2.99c0-.43-.09-.74-.27-.92s-.49-.27-.9-.27v-.23c1.15-.07,2.14-.31,2.95-.7l.18.09v11.52c0,.4.09.67.27.81s.49.2.92.18v.23c-1.19.14-2.16.38-2.95.68l-.2-.11v-1.87c-.18.49-.52.94-1.03,1.33-.52.41-1.13.61-1.85.61s-1.33-.2-1.89-.61Zm.61-2.41c.23.65.56,1.12.97,1.44.4.32.85.49,1.33.49.43,0,.83-.13,1.15-.38.32-.25.56-.59.7-1.03v-2.88c0-1.01-.2-1.89-.59-2.63-.4-.72-.94-1.1-1.6-1.1-.47,0-.86.18-1.22.5s-.63.77-.81,1.35c-.2.58-.29,1.22-.29,1.94,0,.9.11,1.66.36,2.29Zm9.46,2.39c-.63-.41-1.12-.99-1.46-1.71-.36-.72-.52-1.49-.52-2.36s.18-1.71.58-2.43c.4-.72.92-1.3,1.6-1.73.67-.41,1.4-.63,2.2-.63.68,0,1.3.16,1.8.47.5.32.9.74,1.17,1.26.27.54.41,1.12.41,1.73h-5.85c-.02.07-.02.18-.02.31,0,.85.13,1.58.4,2.23.25.65.63,1.15,1.12,1.51s1.06.52,1.71.52c.72,0,1.33-.22,1.84-.65.5-.43.83-.99.97-1.71l.25.04c-.11.72-.36,1.37-.72,1.94-.36.58-.83,1.03-1.4,1.35s-1.21.49-1.89.49c-.83,0-1.55-.2-2.18-.63Zm3.1-5.71c.25,0,.45-.05.56-.18.11-.13.18-.34.18-.63,0-.5-.14-.97-.4-1.4-.27-.43-.67-.67-1.19-.67s-1.04.29-1.48.85c-.45.58-.72,1.24-.83,2.03h3.15Zm5.95,6.01c-.67-.22-1.26-.5-1.8-.86v-10.17c0-.43-.11-.74-.29-.92s-.49-.27-.9-.27v-.23c1.15-.07,2.14-.31,2.97-.7l.16.09v6.1c.16-.56.5-1.06,1.03-1.49.5-.43,1.12-.67,1.82-.67s1.33.22,1.89.65c.54.43.97.99,1.28,1.69.29.72.45,1.48.45,2.29,0,.94-.2,1.78-.59,2.5-.4.74-.95,1.31-1.64,1.71-.68.41-1.46.61-2.29.61-.72,0-1.42-.11-2.09-.32Zm.65-.85c.34.61.86.9,1.55.9.72,0,1.31-.36,1.75-1.1.43-.72.65-1.67.65-2.84,0-.86-.13-1.62-.34-2.27-.22-.63-.52-1.12-.9-1.44-.4-.32-.83-.5-1.31-.5s-.86.18-1.21.5c-.36.32-.58.74-.68,1.24v2.66c0,1.3.16,2.23.5,2.84Zm12.79.65c-.29-.32-.47-.79-.54-1.39l-.05-.4c-.07.4-.25.77-.5,1.12-.27.36-.61.65-1.03.86-.43.22-.9.32-1.42.32-.76,0-1.39-.22-1.87-.65-.49-.43-.72-.99-.72-1.67,0-.61.2-1.12.63-1.51s1.04-.63,1.84-.7l2.74-.22-.13-.92c-.11-.85-.36-1.51-.76-2-.4-.47-.92-.72-1.57-.72-.52,0-.97.16-1.37.45-.4.29-.68.68-.88,1.17l-.23-.05c.11-.43.32-.86.65-1.28.32-.4.72-.74,1.21-.99s1.03-.4,1.62-.4c.9,0,1.64.29,2.2.86s.9,1.4,1.04,2.47l.52,3.98c.09.68.32,1.01.72,1.01.11,0,.22-.04.31-.14.09-.09.14-.22.18-.38l.22.02c-.04.43-.18.81-.47,1.13-.29.34-.67.5-1.13.5-.5,0-.9-.16-1.19-.49Zm-3.85-1.03c.31.32.72.49,1.26.49s.99-.16,1.35-.49c.34-.32.54-.72.59-1.17l-.25-1.76-1.76.14c-.54.05-.95.23-1.24.52-.29.29-.41.67-.41,1.1,0,.47.14.85.47,1.17Zm8.07.72c-.43-.56-.65-1.28-.65-2.18v-5.58h-1.13v-.25c.74-.07,1.37-.32,1.87-.79.5-.47.83-1.1.97-1.91h.25v2.23h2.68l-.31.72h-2.38v5.38c0,.61.13,1.12.38,1.49.25.4.61.58,1.06.58.36,0,.65-.11.88-.36.23-.25.4-.56.49-.94l.22.04c-.09.68-.36,1.24-.79,1.71-.45.47-.99.68-1.6.68-.86,0-1.51-.27-1.94-.83Zm6.44.2c-.63-.41-1.12-.99-1.46-1.71-.36-.72-.52-1.49-.52-2.36s.18-1.71.58-2.43c.4-.72.92-1.3,1.6-1.73.67-.41,1.4-.63,2.2-.63.68,0,1.3.16,1.8.47.5.32.9.74,1.17,1.26.27.54.41,1.12.41,1.73h-5.85c-.02.07-.02.18-.02.31,0,.85.13,1.58.4,2.23.25.65.63,1.15,1.12,1.51s1.06.52,1.71.52c.72,0,1.33-.22,1.84-.65.5-.43.83-.99.97-1.71l.25.04c-.11.72-.36,1.37-.72,1.94-.36.58-.83,1.03-1.4,1.35-.58.32-1.21.49-1.89.49-.83,0-1.55-.2-2.18-.63Zm3.1-5.71c.25,0,.45-.05.56-.18.11-.13.18-.34.18-.63,0-.5-.14-.97-.4-1.4-.27-.43-.67-.67-1.19-.67s-1.04.29-1.48.85c-.45.58-.72,1.24-.83,2.03h3.15Zm3.85,2.57l.23-.05c.29.92.7,1.73,1.24,2.43.54.72,1.24,1.08,2.14,1.08.56,0,1.01-.14,1.33-.43.32-.29.5-.67.52-1.12,0-.43-.16-.81-.47-1.1-.32-.29-.83-.56-1.55-.81l-1.08-.43c-.76-.29-1.31-.63-1.71-1.06-.4-.43-.58-.97-.58-1.62,0-.47.13-.92.41-1.31.27-.4.65-.7,1.13-.94.49-.22,1.03-.34,1.6-.34.47,0,1.01.11,1.6.31.32.11.54.14.65.14.25,0,.45-.18.56-.56l.25-.02.23,3.53-.25.04c-.14-.47-.36-.94-.65-1.42s-.65-.9-1.06-1.24c-.43-.32-.88-.5-1.37-.5s-.88.14-1.17.43c-.29.29-.43.65-.43,1.04s.14.76.45,1.04c.31.29.79.56,1.44.77l1.06.43c.81.31,1.4.67,1.8,1.08.4.41.59.92.59,1.51s-.16,1.1-.45,1.53c-.31.43-.7.77-1.19.99-.49.23-1.01.34-1.57.34-.32,0-.63-.02-.88-.07-.27-.05-.58-.13-.92-.23-.38-.11-.63-.16-.76-.16-.14,0-.27.05-.36.13-.09.07-.18.2-.25.38l-.27.02-.31-3.8Zm13.77,3.13c-.7-.41-1.26-.99-1.66-1.73-.41-.72-.61-1.53-.61-2.43s.2-1.73.61-2.45c.4-.72.95-1.26,1.66-1.66.68-.4,1.44-.59,2.27-.59s1.58.22,2.27.61c.68.41,1.24.97,1.66,1.69.4.72.61,1.53.61,2.43s-.2,1.75-.59,2.47c-.4.72-.95,1.3-1.64,1.69-.68.4-1.44.59-2.27.59s-1.62-.2-2.3-.63Zm.83-.83c.5.76,1.12,1.12,1.8,1.12s1.21-.32,1.58-.99c.36-.65.56-1.51.56-2.57,0-.34-.04-.77-.09-1.28-.16-1.19-.49-2.14-.99-2.86-.5-.72-1.08-1.1-1.75-1.1-.7,0-1.24.34-1.62,1.01-.38.68-.56,1.55-.56,2.59,0,.43.02.81.07,1.15.14,1.21.49,2.18.99,2.93Zm12.1,1.04c.4,0,.72-.09.95-.27.23-.18.36-.49.36-.94,0-.14-.02-.27-.02-.36l-.56-4.12c-.22-1.53-.85-2.3-1.87-2.3-.47,0-.88.2-1.21.58-.32.4-.52.85-.56,1.39v4.45c0,.59.11,1.01.32,1.24s.52.34.94.34v.23h-4.46v-.23c.4,0,.7-.11.92-.36.22-.23.34-.65.34-1.22v-5.35c0-.43-.11-.72-.29-.9s-.49-.27-.9-.29v-.23c1.15-.07,2.14-.31,2.97-.7l.16.09v2.16c.16-.65.49-1.19.97-1.62s1.06-.65,1.75-.65c.77,0,1.4.29,1.91.83.49.54.81,1.39.97,2.5l.61,4.18c.07.58.22.99.45,1.22.22.23.52.34.92.34v.23h-4.68v-.23Zm10.92,0c-.45-.29-.79-.7-1.04-1.24-.25-.54-.38-1.19-.38-1.93v-3.76c0-.43-.11-.72-.29-.9-.18-.18-.49-.27-.9-.29v-.23c1.15-.07,2.14-.31,2.97-.7l.16.09v5.6c0,.83.14,1.49.47,1.96.31.49.77.72,1.4.72.54,0,.95-.18,1.26-.56.31-.38.49-.83.54-1.33v-4.36c0-.43-.11-.72-.29-.9-.18-.18-.49-.27-.9-.29v-.23c1.15-.07,2.14-.31,2.97-.7l.16.09v7.51c0,.4.09.67.27.81.18.14.5.2.94.18v.23c-1.17.14-2.16.38-2.97.68l-.18-.11v-2.05c-.2.58-.52,1.08-.97,1.51-.47.43-1.03.63-1.71.63-.58,0-1.08-.14-1.51-.43Zm7.51,0c.4,0,.7-.11.92-.36.22-.23.34-.65.34-1.22v-5.35c0-.43-.09-.72-.27-.9-.18-.18-.49-.27-.92-.29v-.23c1.15-.07,2.14-.31,2.97-.7l.16.09v1.96c.14-.56.41-1.04.81-1.46.4-.4.85-.61,1.39-.61.41,0,.76.14,1.03.4.25.27.4.58.4.92,0,.31-.11.56-.29.77-.18.22-.43.31-.74.31-.22,0-.38-.04-.5-.14-.13-.09-.23-.22-.31-.36-.07-.14-.14-.29-.18-.43-.07-.14-.13-.23-.18-.31-.07-.05-.14-.09-.25-.09-.29,0-.54.18-.76.5-.22.34-.36.74-.41,1.19v4.73c0,.58.14.99.43,1.22.29.25.68.36,1.21.36v.23h-4.84v-.23Zm9.49.09c-.67-.22-1.26-.5-1.8-.86v-10.17c0-.43-.11-.74-.29-.92-.18-.18-.49-.27-.9-.27v-.23c1.15-.07,2.14-.31,2.97-.7l.16.09v6.1c.16-.56.5-1.06,1.03-1.49.5-.43,1.12-.67,1.82-.67s1.33.22,1.89.65c.54.43.97.99,1.28,1.69.29.72.45,1.48.45,2.29,0,.94-.2,1.78-.59,2.5-.4.74-.95,1.31-1.64,1.71-.68.41-1.46.61-2.29.61-.72,0-1.42-.11-2.09-.32Zm.65-.85c.34.61.86.9,1.55.9.72,0,1.31-.36,1.75-1.1.43-.72.65-1.67.65-2.84,0-.86-.13-1.62-.34-2.27-.22-.63-.52-1.12-.9-1.44-.4-.32-.83-.5-1.31-.5s-.86.18-1.21.5c-.36.32-.58.74-.68,1.24v2.66c0,1.3.16,2.23.5,2.84Zm12.79.65c-.29-.32-.47-.79-.54-1.39l-.05-.4c-.07.4-.25.77-.5,1.12-.27.36-.61.65-1.03.86-.43.22-.9.32-1.42.32-.76,0-1.39-.22-1.87-.65-.49-.43-.72-.99-.72-1.67,0-.61.2-1.12.63-1.51.43-.4,1.04-.63,1.84-.7l2.74-.22-.13-.92c-.11-.85-.36-1.51-.76-2-.4-.47-.92-.72-1.57-.72-.52,0-.97.16-1.37.45-.4.29-.68.68-.88,1.17l-.23-.05c.11-.43.32-.86.65-1.28.32-.4.72-.74,1.21-.99.49-.25,1.03-.4,1.62-.4.9,0,1.64.29,2.2.86s.9,1.4,1.04,2.47l.52,3.98c.09.68.32,1.01.72,1.01.11,0,.22-.04.31-.14.09-.09.14-.22.18-.38l.22.02c-.04.43-.18.81-.47,1.13-.29.34-.67.5-1.13.5-.5,0-.9-.16-1.19-.49Zm-3.85-1.03c.31.32.72.49,1.26.49s.99-.16,1.35-.49c.34-.32.54-.72.59-1.17l-.25-1.76-1.76.14c-.54.05-.95.23-1.24.52-.29.29-.41.67-.41,1.1,0,.47.14.85.47,1.17Zm12.74,1.13c.4,0,.72-.09.95-.27.23-.18.36-.49.36-.94,0-.14-.02-.27-.02-.36l-.56-4.12c-.22-1.53-.85-2.3-1.87-2.3-.47,0-.88.2-1.21.58-.32.4-.52.85-.56,1.39v4.45c0,.59.11,1.01.32,1.24s.52.34.94.34v.23h-4.46v-.23c.4,0,.7-.11.92-.36.22-.23.34-.65.34-1.22v-5.35c0-.43-.11-.72-.29-.9-.18-.18-.49-.27-.9-.29v-.23c1.15-.07,2.14-.31,2.97-.7l.16.09v2.16c.16-.65.49-1.19.97-1.62.49-.43,1.06-.65,1.75-.65.77,0,1.4.29,1.91.83.49.54.81,1.39.97,2.5l.61,4.18c.07.58.22.99.45,1.22.22.23.52.34.92.34v.23h-4.68v-.23Zm11.24.09c-.67-.22-1.26-.5-1.8-.86v-10.17c0-.43-.11-.74-.29-.92s-.49-.27-.9-.27v-.23c1.15-.07,2.14-.31,2.97-.7l.16.09v6.1c.16-.56.5-1.06,1.03-1.49.5-.43,1.12-.67,1.82-.67s1.33.22,1.89.65c.54.43.97.99,1.28,1.69.29.72.45,1.48.45,2.29,0,.94-.2,1.78-.59,2.5-.4.74-.95,1.31-1.64,1.71-.68.41-1.46.61-2.29.61-.72,0-1.42-.11-2.09-.32Zm.65-.85c.34.61.86.9,1.55.9.72,0,1.31-.36,1.75-1.1.43-.72.65-1.67.65-2.84,0-.86-.13-1.62-.34-2.27-.22-.63-.52-1.12-.9-1.44-.4-.32-.83-.5-1.31-.5s-.86.18-1.21.5c-.36.32-.58.74-.68,1.24v2.66c0,1.3.16,2.23.5,2.84Zm7.2-10.04c-.23-.25-.34-.56-.34-.95,0-.36.11-.65.34-.88.23-.23.54-.36.92-.36s.68.13.92.36c.23.23.36.52.36.88,0,.4-.13.7-.36.95s-.54.36-.92.36-.68-.11-.92-.36Zm-1.15,10.8c.4,0,.7-.11.92-.36.22-.23.34-.65.34-1.22v-5.35c0-.43-.11-.72-.29-.9-.18-.18-.49-.27-.9-.29v-.23c1.15-.07,2.14-.31,2.97-.7l.16.09v7.38c0,.59.11,1.01.32,1.24.22.23.52.34.94.34v.23h-4.46v-.23Zm6.81-.22c-.7-.41-1.26-.99-1.66-1.73-.41-.72-.61-1.53-.61-2.43s.2-1.73.61-2.45c.4-.72.95-1.26,1.66-1.66.68-.4,1.44-.59,2.27-.59s1.58.22,2.27.61c.68.41,1.24.97,1.66,1.69.4.72.61,1.53.61,2.43s-.2,1.75-.59,2.47c-.4.72-.95,1.3-1.64,1.69-.68.4-1.44.59-2.27.59s-1.62-.2-2.3-.63Zm.83-.83c.5.76,1.12,1.12,1.8,1.12s1.21-.32,1.58-.99c.36-.65.56-1.51.56-2.57,0-.34-.04-.77-.09-1.28-.16-1.19-.49-2.14-.99-2.86-.5-.72-1.08-1.1-1.75-1.1-.7,0-1.24.34-1.62,1.01-.38.68-.56,1.55-.56,2.59,0,.43.02.81.07,1.15.14,1.21.49,2.18.99,2.93Zm8.76.85c-.58-.4-1.01-.95-1.33-1.67-.32-.7-.47-1.49-.47-2.36s.18-1.67.56-2.41c.36-.72.88-1.31,1.53-1.75.65-.43,1.35-.65,2.14-.65.94,0,1.73.36,2.34,1.08v-2.99c0-.43-.09-.74-.27-.92-.18-.18-.49-.27-.9-.27v-.23c1.15-.07,2.14-.31,2.95-.7l.18.09v11.52c0,.4.09.67.27.81.18.14.49.2.92.18v.23c-1.19.14-2.16.38-2.95.68l-.2-.11v-1.87c-.18.49-.52.94-1.03,1.33-.52.41-1.13.61-1.85.61s-1.33-.2-1.89-.61Zm.61-2.41c.23.65.56,1.12.97,1.44.4.32.85.49,1.33.49.43,0,.83-.13,1.15-.38.32-.25.56-.59.7-1.03v-2.88c0-1.01-.2-1.89-.59-2.63-.4-.72-.94-1.1-1.6-1.1-.47,0-.86.18-1.22.5s-.63.77-.81,1.35c-.2.58-.29,1.22-.29,1.94,0,.9.11,1.66.36,2.29Zm8.63-8.19c-.23-.25-.34-.56-.34-.95,0-.36.11-.65.34-.88.23-.23.54-.36.92-.36s.68.13.92.36c.23.23.36.52.36.88,0,.4-.13.7-.36.95-.23.25-.54.36-.92.36s-.68-.11-.92-.36Zm-1.15,10.8c.4,0,.7-.11.92-.36.22-.23.34-.65.34-1.22v-5.35c0-.43-.11-.72-.29-.9-.18-.18-.49-.27-.9-.29v-.23c1.15-.07,2.14-.31,2.97-.7l.16.09v7.38c0,.59.11,1.01.32,1.24s.52.34.94.34v.23h-4.46v-.23Zm7.04-.49c-.5-.59-.86-1.51-1.06-2.75l-.63-3.85c-.11-.58-.27-.97-.5-1.21-.25-.23-.56-.36-.95-.36v-.23h4.39v.23c-.7,0-1.04.36-1.04,1.08,0,.22,0,.38.04.49l.54,3.31c.14.97.4,1.71.74,2.2.32.5.81.74,1.46.74.47,0,.92-.16,1.37-.52s.81-.83,1.1-1.44c.27-.59.41-1.24.41-1.96,0-.79-.16-1.44-.47-1.91-.31-.47-.72-.72-1.24-.72-.25,0-.5.05-.72.14-.11.05-.23.07-.38.07-.25,0-.47-.07-.65-.25-.18-.18-.25-.4-.25-.68,0-.25.09-.49.27-.67.18-.18.43-.27.79-.27.5,0,.97.16,1.42.45.45.29.81.74,1.1,1.33.29.61.43,1.35.43,2.21,0,.99-.2,1.91-.58,2.74-.4.85-.9,1.51-1.53,2-.63.5-1.3.74-2,.74-.86,0-1.55-.29-2.05-.9Zm9.11.27c-.63-.41-1.12-.99-1.46-1.71-.36-.72-.52-1.49-.52-2.36s.18-1.71.58-2.43c.4-.72.92-1.3,1.6-1.73.67-.41,1.4-.63,2.2-.63.68,0,1.3.16,1.8.47.5.32.9.74,1.17,1.26.27.54.41,1.12.41,1.73h-5.85c-.02.07-.02.18-.02.31,0,.85.13,1.58.4,2.23.25.65.63,1.15,1.12,1.51.49.36,1.06.52,1.71.52.72,0,1.33-.22,1.84-.65.5-.43.83-.99.97-1.71l.25.04c-.11.72-.36,1.37-.72,1.94-.36.58-.83,1.03-1.4,1.35s-1.21.49-1.89.49c-.83,0-1.55-.2-2.18-.63Zm3.1-5.71c.25,0,.45-.05.56-.18.11-.13.18-.34.18-.63,0-.5-.14-.97-.4-1.4-.27-.43-.67-.67-1.19-.67s-1.04.29-1.48.85c-.45.58-.72,1.24-.83,2.03h3.15Zm3.02,5.92c.4,0,.7-.11.92-.36.22-.23.34-.65.34-1.22v-5.35c0-.43-.09-.72-.27-.9-.18-.18-.49-.27-.92-.29v-.23c1.15-.07,2.14-.31,2.97-.7l.16.09v1.96c.14-.56.41-1.04.81-1.46.4-.4.85-.61,1.39-.61.41,0,.76.14,1.03.4.25.27.4.58.4.92,0,.31-.11.56-.29.77-.18.22-.43.31-.74.31-.22,0-.38-.04-.5-.14-.13-.09-.23-.22-.31-.36-.07-.14-.14-.29-.18-.43-.07-.14-.13-.23-.18-.31-.07-.05-.14-.09-.25-.09-.29,0-.54.18-.76.5-.22.34-.36.74-.41,1.19v4.73c0,.58.14.99.43,1.22.29.25.68.36,1.21.36v.23h-4.84v-.23Zm7.16-3.35l.23-.05c.29.92.7,1.73,1.24,2.43.54.72,1.24,1.08,2.14,1.08.56,0,1.01-.14,1.33-.43.32-.29.5-.67.52-1.12,0-.43-.16-.81-.47-1.1-.32-.29-.83-.56-1.55-.81l-1.08-.43c-.76-.29-1.31-.63-1.71-1.06s-.58-.97-.58-1.62c0-.47.13-.92.41-1.31.27-.4.65-.7,1.13-.94.49-.22,1.03-.34,1.6-.34.47,0,1.01.11,1.6.31.32.11.54.14.65.14.25,0,.45-.18.56-.56l.25-.02.23,3.53-.25.04c-.14-.47-.36-.94-.65-1.42-.29-.49-.65-.9-1.06-1.24-.43-.32-.88-.5-1.37-.5s-.88.14-1.17.43c-.29.29-.43.65-.43,1.04s.14.76.45,1.04c.31.29.79.56,1.44.77l1.06.43c.81.31,1.4.67,1.8,1.08.4.41.59.92.59,1.51s-.16,1.1-.45,1.53c-.31.43-.7.77-1.19.99-.49.23-1.01.34-1.57.34-.32,0-.63-.02-.88-.07-.27-.05-.58-.13-.92-.23-.38-.11-.63-.16-.76-.16-.14,0-.27.05-.36.13s-.18.2-.25.38l-.27.02-.31-3.8Zm8.42-7.45c-.23-.25-.34-.56-.34-.95,0-.36.11-.65.34-.88.23-.23.54-.36.92-.36s.68.13.92.36c.23.23.36.52.36.88,0,.4-.13.7-.36.95-.23.25-.54.36-.92.36s-.68-.11-.92-.36Zm-1.15,10.8c.4,0,.7-.11.92-.36.22-.23.34-.65.34-1.22v-5.35c0-.43-.11-.72-.29-.9-.18-.18-.49-.27-.9-.29v-.23c1.15-.07,2.14-.31,2.97-.7l.16.09v7.38c0,.59.11,1.01.32,1.24s.52.34.94.34v.23h-4.46v-.23Zm6.09-.41c-.43-.56-.65-1.28-.65-2.18v-5.58h-1.13v-.25c.74-.07,1.37-.32,1.87-.79.5-.47.83-1.1.97-1.91h.25v2.23h2.68l-.31.72h-2.38v5.38c0,.61.13,1.12.38,1.49.25.4.61.58,1.06.58.36,0,.65-.11.88-.36.23-.25.4-.56.49-.94l.22.04c-.09.68-.36,1.24-.79,1.71-.45.47-.99.68-1.6.68-.86,0-1.51-.27-1.94-.83Zm7.04,4.07c-.47-.22-.85-.52-1.1-.88-.25-.36-.38-.76-.38-1.17,0-.29.09-.5.27-.68.18-.18.4-.27.67-.27s.5.11.68.31c.18.2.29.43.29.72,0,.14-.02.27-.05.41-.02.05-.04.13-.04.2-.02.09-.02.16-.02.23,0,.36.13.65.4.86.25.22.58.31.95.31,1.57,0,2.36-1.4,2.36-4.25v-1.4c-.2.58-.52,1.08-.97,1.51-.47.43-1.03.63-1.71.63-.58,0-1.08-.14-1.51-.43-.45-.29-.79-.7-1.04-1.24-.25-.54-.38-1.19-.38-1.93v-3.51c0-.43-.11-.72-.29-.9-.18-.18-.49-.27-.9-.29v-.23c1.15-.07,2.14-.31,2.97-.7l.16.09v5.35c0,.83.14,1.49.47,1.96.31.49.77.72,1.4.72.54,0,.95-.18,1.26-.56.31-.38.49-.83.54-1.33v-4.1c0-.43-.11-.72-.29-.9-.18-.18-.49-.27-.9-.29v-.23c1.15-.07,2.14-.31,2.97-.7l.16.09v8.19c0,1.03-.22,1.89-.61,2.61-.41.72-.95,1.26-1.6,1.62-.65.36-1.35.52-2.11.52-.63,0-1.19-.11-1.66-.32Zm-212.99,18l.23-.05c.29.92.7,1.73,1.24,2.43.54.72,1.24,1.08,2.14,1.08.56,0,1.01-.14,1.33-.43.32-.29.5-.67.52-1.12,0-.43-.16-.81-.47-1.1-.32-.29-.83-.56-1.55-.81l-1.08-.43c-.76-.29-1.31-.63-1.71-1.06-.4-.43-.58-.97-.58-1.62,0-.47.13-.92.41-1.31.27-.4.65-.7,1.13-.94.49-.22,1.03-.34,1.6-.34.47,0,1.01.11,1.6.31.32.11.54.14.65.14.25,0,.45-.18.56-.56l.25-.02.23,3.53-.25.04c-.14-.47-.36-.94-.65-1.42-.29-.49-.65-.9-1.06-1.24-.43-.32-.88-.5-1.37-.5s-.88.14-1.17.43c-.29.29-.43.65-.43,1.04s.14.76.45,1.04.79.56,1.44.77l1.06.43c.81.31,1.4.67,1.8,1.08s.59.92.59,1.51-.16,1.1-.45,1.53c-.31.43-.7.77-1.19.99-.49.23-1.01.34-1.57.34-.32,0-.63-.02-.88-.07-.27-.05-.58-.13-.92-.23-.38-.11-.63-.16-.76-.16-.14,0-.27.05-.36.13s-.18.2-.25.38l-.27.02-.31-3.8Zm9.77,3.13c-.63-.41-1.12-.99-1.46-1.71-.36-.72-.52-1.49-.52-2.36s.18-1.71.58-2.43.92-1.3,1.6-1.73c.67-.41,1.4-.63,2.2-.63.68,0,1.3.16,1.8.47.5.32.9.74,1.17,1.26.27.54.41,1.12.41,1.73h-5.85c-.02.07-.02.18-.02.31,0,.85.13,1.58.4,2.23.25.65.63,1.15,1.12,1.51.49.36,1.06.52,1.71.52.72,0,1.33-.22,1.84-.65.5-.43.83-.99.97-1.71l.25.04c-.11.72-.36,1.37-.72,1.94-.36.58-.83,1.03-1.4,1.35-.58.32-1.21.49-1.89.49-.83,0-1.55-.2-2.18-.63Zm3.1-5.71c.25,0,.45-.05.56-.18s.18-.34.18-.63c0-.5-.14-.97-.4-1.4-.27-.43-.67-.67-1.19-.67s-1.04.29-1.48.85c-.45.58-.72,1.24-.83,2.03h3.15Zm5.73,5.71c-.63-.41-1.12-.99-1.46-1.71-.36-.72-.52-1.49-.52-2.36s.18-1.71.58-2.43c.4-.72.92-1.3,1.6-1.73.67-.41,1.4-.63,2.2-.63.68,0,1.3.16,1.8.47.5.32.9.74,1.17,1.26.27.54.41,1.12.41,1.73h-5.85c-.02.07-.02.18-.02.31,0,.85.13,1.58.4,2.23.25.65.63,1.15,1.12,1.51s1.06.52,1.71.52c.72,0,1.33-.22,1.84-.65.5-.43.83-.99.97-1.71l.25.04c-.11.72-.36,1.37-.72,1.94-.36.58-.83,1.03-1.4,1.35-.58.32-1.21.49-1.89.49-.83,0-1.55-.2-2.18-.63Zm3.1-5.71c.25,0,.45-.05.56-.18.11-.13.18-.34.18-.63,0-.5-.14-.97-.4-1.4-.27-.43-.67-.67-1.19-.67s-1.04.29-1.48.85c-.45.58-.72,1.24-.83,2.03h3.15Zm9.12,5.92c.4,0,.72-.09.95-.27s.36-.49.36-.94c0-.14-.02-.27-.02-.36l-.56-4.12c-.22-1.53-.85-2.3-1.87-2.3-.47,0-.88.2-1.21.58-.32.4-.52.85-.56,1.39v4.45c0,.59.11,1.01.32,1.24.22.23.52.34.94.34v.23h-4.46v-.23c.4,0,.7-.11.92-.36.22-.23.34-.65.34-1.22v-5.35c0-.43-.11-.72-.29-.9s-.49-.27-.9-.29v-.23c1.15-.07,2.14-.31,2.97-.7l.16.09v2.16c.16-.65.49-1.19.97-1.62s1.06-.65,1.75-.65c.77,0,1.4.29,1.91.83.49.54.81,1.39.97,2.5l.61,4.18c.07.58.22.99.45,1.22.22.23.52.34.92.34v.23h-4.68v-.23Zm10.18-.41c-.43-.56-.65-1.28-.65-2.18v-5.58h-1.13v-.25c.74-.07,1.37-.32,1.87-.79.5-.47.83-1.1.97-1.91h.25v2.23h2.68l-.31.72h-2.38v5.38c0,.61.13,1.12.38,1.49.25.4.61.58,1.06.58.36,0,.65-.11.88-.36.23-.25.4-.56.49-.94l.22.04c-.09.68-.36,1.24-.79,1.71-.45.47-.99.68-1.6.68-.86,0-1.51-.27-1.94-.83Zm10.21.41c.43,0,.76-.09,1.01-.27.23-.18.36-.49.36-.94,0-.14-.02-.27-.02-.36l-.56-4.12c-.22-1.53-.85-2.3-1.87-2.3-.47,0-.86.2-1.19.58-.32.4-.52.85-.58,1.39v4.45c0,.59.11,1.01.32,1.24.22.23.52.34.94.34v.23h-4.46v-.23c.4,0,.7-.11.92-.36.22-.23.34-.65.34-1.22v-9.36c0-.43-.11-.74-.29-.92s-.49-.27-.9-.27v-.23c1.15-.07,2.14-.31,2.97-.7l.16.09v6.17c.16-.65.49-1.19.97-1.62s1.06-.65,1.75-.65c.77,0,1.4.29,1.91.83.49.54.81,1.39.97,2.5l.61,4.18c.07.58.22.99.47,1.22.23.23.56.34.95.34v.23h-4.79v-.23Zm4.82,0c.4,0,.7-.11.92-.36.22-.23.34-.65.34-1.22v-5.35c0-.43-.09-.72-.27-.9s-.49-.27-.92-.29v-.23c1.15-.07,2.14-.31,2.97-.7l.16.09v1.96c.14-.56.41-1.04.81-1.46.4-.4.85-.61,1.39-.61.41,0,.76.14,1.03.4.25.27.4.58.4.92,0,.31-.11.56-.29.77-.18.22-.43.31-.74.31-.22,0-.38-.04-.5-.14-.13-.09-.23-.22-.31-.36s-.14-.29-.18-.43c-.07-.14-.13-.23-.18-.31-.07-.05-.14-.09-.25-.09-.29,0-.54.18-.76.5-.22.34-.36.74-.41,1.19v4.73c0,.58.14.99.43,1.22.29.25.68.36,1.21.36v.23h-4.84v-.23Zm9.08-.22c-.7-.41-1.26-.99-1.66-1.73-.41-.72-.61-1.53-.61-2.43s.2-1.73.61-2.45c.4-.72.95-1.26,1.66-1.66.68-.4,1.44-.59,2.27-.59s1.58.22,2.27.61c.68.41,1.24.97,1.66,1.69.4.72.61,1.53.61,2.43s-.2,1.75-.59,2.47c-.4.72-.95,1.3-1.64,1.69-.68.4-1.44.59-2.27.59s-1.62-.2-2.3-.63Zm.83-.83c.5.76,1.12,1.12,1.8,1.12s1.21-.32,1.58-.99c.36-.65.56-1.51.56-2.57,0-.34-.04-.77-.09-1.28-.16-1.19-.49-2.14-.99-2.86-.5-.72-1.08-1.1-1.75-1.1-.7,0-1.24.34-1.62,1.01-.38.68-.56,1.55-.56,2.59,0,.43.02.81.07,1.15.14,1.21.49,2.18.99,2.93Zm8.63,1.04c-.45-.29-.79-.7-1.04-1.24-.25-.54-.38-1.19-.38-1.93v-3.76c0-.43-.11-.72-.29-.9s-.49-.27-.9-.29v-.23c1.15-.07,2.14-.31,2.97-.7l.16.09v5.6c0,.83.14,1.49.47,1.96.31.49.77.72,1.4.72.54,0,.95-.18,1.26-.56s.49-.83.54-1.33v-4.36c0-.43-.11-.72-.29-.9-.18-.18-.49-.27-.9-.29v-.23c1.15-.07,2.14-.31,2.97-.7l.16.09v7.51c0,.4.09.67.27.81.18.14.5.2.94.18v.23c-1.17.14-2.16.38-2.97.68l-.18-.11v-2.05c-.2.58-.52,1.08-.97,1.51-.47.43-1.03.63-1.71.63-.58,0-1.08-.14-1.51-.43Zm9.31,3.65c-.52-.22-.92-.5-1.19-.86-.27-.34-.4-.7-.4-1.08,0-.25.16-.5.49-.76.32-.23.77-.49,1.35-.74-.49-.11-.86-.31-1.13-.63-.27-.32-.4-.68-.4-1.1,0-.14.02-.27.09-.34.05-.07.2-.2.43-.36l.43-.31.74-.56c-.58-.25-1.03-.63-1.35-1.12-.32-.47-.49-1.03-.49-1.66s.16-1.19.49-1.69c.32-.5.79-.88,1.39-1.17.58-.27,1.26-.41,2.02-.41.23,0,.58.04,1.04.11.61.09,1.12.13,1.55.13h1.87l-.31.72-1.75-.04c.43.31.76.67.99,1.08.22.43.34.86.34,1.33,0,.61-.16,1.17-.49,1.64-.32.47-.76.85-1.33,1.1-.58.27-1.22.4-1.98.4-.67,0-1.26-.11-1.78-.32-.25.22-.43.4-.5.5-.09.11-.13.22-.13.29,0,.49.36.72,1.08.72h3.38c.72,0,1.28.13,1.69.38s.63.68.63,1.3-.23,1.21-.67,1.78c-.43.59-1.04,1.08-1.8,1.46-.76.38-1.6.56-2.52.56-.68,0-1.3-.11-1.8-.34Zm.86-1.12c.5.32,1.17.49,2,.49.65,0,1.21-.09,1.71-.29.49-.18.86-.43,1.13-.72.27-.29.41-.59.41-.9,0-.25-.11-.47-.32-.61-.22-.14-.52-.23-.94-.23h-4.21c-.22.18-.4.36-.5.52-.11.16-.16.36-.14.58.05.47.34.85.86,1.17Zm.18-6.39c.41.59.95.88,1.6.88.52,0,.94-.23,1.26-.74.31-.5.47-1.12.47-1.85,0-.58-.11-1.1-.29-1.6-.18-.5-.45-.9-.77-1.21-.32-.29-.7-.45-1.1-.45-.58,0-1.01.27-1.31.81-.32.54-.47,1.15-.47,1.87,0,.94.2,1.71.61,2.29Zm12.24,3.85c.43,0,.76-.09,1.01-.27.23-.18.36-.49.36-.94,0-.14-.02-.27-.02-.36l-.56-4.12c-.22-1.53-.85-2.3-1.87-2.3-.47,0-.86.2-1.19.58-.32.4-.52.85-.58,1.39v4.45c0,.59.11,1.01.32,1.24.22.23.52.34.94.34v.23h-4.46v-.23c.4,0,.7-.11.92-.36.22-.23.34-.65.34-1.22v-9.36c0-.43-.11-.74-.29-.92-.18-.18-.49-.27-.9-.27v-.23c1.15-.07,2.14-.31,2.97-.7l.16.09v6.17c.16-.65.49-1.19.97-1.62.49-.43,1.06-.65,1.75-.65.77,0,1.4.29,1.91.83.49.54.81,1.39.97,2.5l.61,4.18c.07.58.22.99.47,1.22.23.23.56.34.95.34v.23h-4.79v-.23Zm10.29-.41c-.43-.56-.65-1.28-.65-2.18v-5.58h-1.13v-.25c.74-.07,1.37-.32,1.87-.79.5-.47.83-1.1.97-1.91h.25v2.23h2.68l-.31.72h-2.38v5.38c0,.61.13,1.12.38,1.49.25.4.61.58,1.06.58.36,0,.65-.11.88-.36.23-.25.4-.56.49-.94l.22.04c-.09.68-.36,1.24-.79,1.71-.45.47-.99.68-1.6.68-.86,0-1.51-.27-1.94-.83Zm10.21.41c.43,0,.76-.09,1.01-.27.23-.18.36-.49.36-.94,0-.14-.02-.27-.02-.36l-.56-4.12c-.22-1.53-.85-2.3-1.87-2.3-.47,0-.86.2-1.19.58-.32.4-.52.85-.58,1.39v4.45c0,.59.11,1.01.32,1.24.22.23.52.34.94.34v.23h-4.46v-.23c.4,0,.7-.11.92-.36.22-.23.34-.65.34-1.22v-9.36c0-.43-.11-.74-.29-.92-.18-.18-.49-.27-.9-.27v-.23c1.15-.07,2.14-.31,2.97-.7l.16.09v6.17c.16-.65.49-1.19.97-1.62.49-.43,1.06-.65,1.75-.65.77,0,1.4.29,1.91.83.49.54.81,1.39.97,2.5l.61,4.18c.07.58.22.99.47,1.22.23.23.56.34.95.34v.23h-4.79v-.23Zm6.52-.22c-.63-.41-1.12-.99-1.46-1.71-.36-.72-.52-1.49-.52-2.36s.18-1.71.58-2.43.92-1.3,1.6-1.73c.67-.41,1.4-.63,2.2-.63.68,0,1.3.16,1.8.47.5.32.9.74,1.17,1.26.27.54.41,1.12.41,1.73h-5.85c-.02.07-.02.18-.02.31,0,.85.13,1.58.4,2.23.25.65.63,1.15,1.12,1.51.49.36,1.06.52,1.71.52.72,0,1.33-.22,1.84-.65.5-.43.83-.99.97-1.71l.25.04c-.11.72-.36,1.37-.72,1.94-.36.58-.83,1.03-1.4,1.35s-1.21.49-1.89.49c-.83,0-1.55-.2-2.18-.63Zm3.1-5.71c.25,0,.45-.05.56-.18s.18-.34.18-.63c0-.5-.14-.97-.4-1.4-.27-.43-.67-.67-1.19-.67s-1.04.29-1.48.85c-.45.58-.72,1.24-.83,2.03h3.15Zm14.42,4.43c-.29.58-.67,1.04-1.1,1.39-.45.36-.95.52-1.51.52-.86,0-1.55-.29-2.05-.9-.5-.59-.86-1.51-1.06-2.75l-.65-3.85c-.11-.58-.27-.97-.5-1.21-.25-.23-.56-.36-.95-.36v-.23h4.36v.23c-.67,0-.99.36-.99,1.06,0,.22,0,.4.04.5l.52,3.31c.16.97.41,1.69.74,2.16.32.49.81.72,1.44.72s1.17-.27,1.64-.85c-.16-.43-.29-.92-.38-1.49l-.65-3.85c-.11-.58-.27-.97-.49-1.21-.23-.23-.54-.36-.9-.36v-.23h4.28v.23c-.67,0-.99.36-.99,1.08,0,.22,0,.38.04.49l.54,3.31c.14.97.4,1.71.74,2.18.32.47.81.7,1.42.7.5,0,.99-.16,1.44-.5.45-.32.81-.79,1.1-1.37.27-.58.41-1.22.41-1.91,0-.79-.16-1.46-.49-1.96s-.74-.76-1.28-.76c-.22,0-.47.05-.72.14-.11.05-.25.07-.4.07-.25,0-.47-.07-.65-.25-.18-.16-.25-.38-.25-.65,0-.29.09-.52.27-.7.18-.18.43-.27.79-.27.5,0,.99.16,1.46.45.47.29.85.74,1.13,1.33.29.61.45,1.35.45,2.21,0,.99-.2,1.91-.58,2.74-.38.85-.88,1.51-1.51,2-.63.5-1.3.74-2,.74-1.28,0-2.18-.63-2.72-1.91Zm9.78,1.28c-.63-.41-1.12-.99-1.46-1.71-.36-.72-.52-1.49-.52-2.36s.18-1.71.58-2.43c.4-.72.92-1.3,1.6-1.73.67-.41,1.4-.63,2.2-.63.68,0,1.3.16,1.8.47.5.32.9.74,1.17,1.26.27.54.41,1.12.41,1.73h-5.85c-.02.07-.02.18-.02.31,0,.85.13,1.58.4,2.23.25.65.63,1.15,1.12,1.51.49.36,1.06.52,1.71.52.72,0,1.33-.22,1.84-.65s.83-.99.97-1.71l.25.04c-.11.72-.36,1.37-.72,1.94-.36.58-.83,1.03-1.4,1.35-.58.32-1.21.49-1.89.49-.83,0-1.55-.2-2.18-.63Zm3.1-5.71c.25,0,.45-.05.56-.18s.18-.34.18-.63c0-.5-.14-.97-.4-1.4-.27-.43-.67-.67-1.19-.67s-1.04.29-1.48.85c-.45.58-.72,1.24-.83,2.03h3.15Zm5.95,6.01c-.67-.22-1.26-.5-1.8-.86v-10.17c0-.43-.11-.74-.29-.92-.18-.18-.49-.27-.9-.27v-.23c1.15-.07,2.14-.31,2.97-.7l.16.09v6.1c.16-.56.5-1.06,1.03-1.49.5-.43,1.12-.67,1.82-.67s1.33.22,1.89.65c.54.43.97.99,1.28,1.69.29.72.45,1.48.45,2.29,0,.94-.2,1.78-.59,2.5-.4.74-.95,1.31-1.64,1.71-.68.41-1.46.61-2.29.61-.72,0-1.42-.11-2.09-.32Zm.65-.85c.34.61.86.9,1.55.9.72,0,1.31-.36,1.75-1.1.43-.72.65-1.67.65-2.84,0-.86-.13-1.62-.34-2.27-.22-.63-.52-1.12-.9-1.44-.4-.32-.83-.5-1.31-.5s-.86.18-1.21.5c-.36.32-.58.74-.68,1.24v2.66c0,1.3.16,2.23.5,2.84Z"/></svg>