<svg viewBox="0 0 294 78" fill="none" xmlns="http://www.w3.org/2000/svg">
<path d="M0.636 20.636C1.392 20.636 2.12 20.356 2.792 19.74C3.464 19.152 4.024 18.2 4.5 16.912L8.196 6.72C8.532 5.768 8.7 5.012 8.7 4.424C8.7 3.22 8.028 2.604 6.684 2.604V2.212C7.356 2.212 8.084 2.1 8.812 1.876C9.54 1.652 10.24 1.316 10.856 0.895998L11.22 1.036L17.52 18.284C17.828 19.18 18.192 19.796 18.64 20.132C19.06 20.468 19.592 20.636 20.208 20.636V21H12.704V20.636C13.796 20.636 14.356 20.216 14.356 19.376C14.356 19.04 14.272 18.676 14.132 18.284L12.956 14.952H5.9L5.2 16.912C4.976 17.556 4.864 18.116 4.864 18.592C4.864 19.292 5.06 19.796 5.508 20.132C5.928 20.468 6.516 20.636 7.272 20.636V21H0.636V20.636ZM12.788 14.476L9.456 5.068L6.068 14.476H12.788ZM19.1042 26.236C19.7202 26.236 20.1962 26.068 20.5322 25.676C20.8682 25.312 21.0642 24.668 21.0642 23.772V9.856C21.0642 9.184 20.8962 8.736 20.6162 8.456C20.3362 8.176 19.8602 8.036 19.2162 8.008V7.644C21.0082 7.532 22.5482 7.168 23.8362 6.552L24.0882 6.692V9.604C24.3402 8.876 24.8722 8.176 25.6842 7.532C26.4962 6.916 27.4762 6.58 28.5962 6.58C29.6602 6.58 30.6402 6.916 31.5082 7.532C32.3762 8.176 33.0482 9.044 33.5522 10.136C34.0562 11.256 34.3082 12.46 34.3082 13.804C34.3082 15.176 34.0002 16.436 33.4402 17.584C32.8522 18.732 32.0682 19.628 31.0602 20.3C30.0522 20.972 28.9322 21.28 27.7562 21.28C26.2722 21.28 25.0402 20.748 24.0882 19.628V23.772C24.0882 24.696 24.2842 25.34 24.7042 25.704C25.0962 26.068 25.6842 26.236 26.4402 26.236V26.6H19.1042V26.236ZM25.0122 19.208C25.6282 20.244 26.4682 20.748 27.5322 20.748C28.2042 20.748 28.8202 20.524 29.3802 20.02C29.9402 19.516 30.3602 18.816 30.6682 17.92C30.9762 17.024 31.1442 16.016 31.1442 14.84C31.1442 13.44 30.9482 12.236 30.5842 11.228C30.2202 10.22 29.7162 9.464 29.1002 8.932C28.4842 8.428 27.7842 8.148 27.0282 8.148C26.3002 8.148 25.7122 8.372 25.2082 8.82C24.7042 9.268 24.3122 9.828 24.0882 10.5V15.344C24.0882 16.912 24.3962 18.2 25.0122 19.208ZM36.2393 3.836C35.8753 3.444 35.7073 2.968 35.7073 2.352C35.7073 1.792 35.8753 1.344 36.2393 0.979999C36.6033 0.615999 37.0793 0.42 37.6673 0.42C38.2553 0.42 38.7313 0.615999 39.0953 0.979999C39.4593 1.344 39.6553 1.792 39.6553 2.352C39.6553 2.968 39.4593 3.444 39.0953 3.836C38.7313 4.228 38.2553 4.396 37.6673 4.396C37.0793 4.396 36.6033 4.228 36.2393 3.836ZM34.4473 20.636C35.0633 20.636 35.5393 20.468 35.8753 20.076C36.2113 19.712 36.4073 19.068 36.4073 18.172V9.856C36.4073 9.184 36.2393 8.736 35.9593 8.456C35.6793 8.176 35.2033 8.036 34.5593 8.008V7.644C36.3513 7.532 37.8913 7.168 39.1793 6.552L39.4313 6.692V18.172C39.4313 19.096 39.5993 19.74 39.9353 20.104C40.2713 20.468 40.7473 20.636 41.3913 20.636V21H34.4473V20.636ZM44.4849 23.38C44.9329 22.876 45.1849 22.372 45.1849 21.868C45.1849 21.588 45.1009 21.392 44.9609 21.252C44.7929 21.112 44.5689 20.944 44.2609 20.776C43.8409 20.58 43.5329 20.356 43.3369 20.132C43.1129 19.908 43.0289 19.544 43.0289 19.04C43.0289 18.536 43.1969 18.116 43.5609 17.78C43.8969 17.444 44.3169 17.248 44.8209 17.248C45.4369 17.248 45.9129 17.5 46.3049 18.004C46.6689 18.508 46.8649 19.124 46.8649 19.852C46.8649 21.084 46.4449 22.12 45.6609 23.016C44.8769 23.912 43.9529 24.556 42.9449 24.892L42.8049 24.528C43.4489 24.276 44.0089 23.884 44.4849 23.38ZM59.1079 20.02C57.5399 19.152 56.3079 17.948 55.4119 16.408C54.5159 14.896 54.0959 13.16 54.0959 11.228C54.0959 9.38 54.5159 7.7 55.3839 6.132C56.2239 4.592 57.4279 3.36 58.9959 2.436C60.5359 1.54 62.3279 1.064 64.3439 1.064C65.1559 1.064 65.8839 1.148 66.5559 1.316C67.2279 1.484 67.7599 1.624 68.1519 1.764C68.5439 1.904 68.8239 1.988 68.9359 2.016C69.3559 2.156 69.6639 2.212 69.8319 2.212C70.1119 2.212 70.3639 2.128 70.5879 1.904C70.8119 1.708 70.9519 1.428 71.0079 1.064L71.3999 1.036L71.9319 8.568L71.5679 8.624C71.2879 7.364 70.7559 6.188 70.0279 5.096C69.2719 4.032 68.4039 3.164 67.3959 2.52C66.3879 1.876 65.3519 1.54 64.3159 1.54C63.0559 1.54 61.9079 1.932 60.8999 2.688C59.8639 3.472 59.0519 4.536 58.4359 5.88C57.8199 7.252 57.5399 8.792 57.5399 10.5C57.5399 12.292 57.8479 13.972 58.4639 15.54C59.0799 17.136 59.9199 18.424 61.0399 19.376C62.1319 20.356 63.3919 20.832 64.8199 20.832C65.9399 20.832 66.9479 20.468 67.7879 19.74C68.6279 19.012 69.0479 17.864 69.0479 16.324V15.12C69.0479 14.224 68.7959 13.58 68.3479 13.188C67.8719 12.824 67.1999 12.628 66.3319 12.628V12.264L73.4999 12.292V12.656C73.0519 12.656 72.6879 12.852 72.4639 13.216C72.2399 13.58 72.1279 14.224 72.1279 15.12V17.892C72.1279 18.032 72.0999 18.144 72.0439 18.2C71.9879 18.284 71.9039 18.396 71.7359 18.564C70.8399 19.404 69.8039 20.076 68.5719 20.58C67.3399 21.084 65.9959 21.308 64.4839 21.308C62.4679 21.308 60.6759 20.888 59.1079 20.02ZM73.5489 20.636C74.1649 20.636 74.6409 20.468 74.9769 20.076C75.3129 19.712 75.5089 19.068 75.5089 18.172L75.5929 3.612C75.5929 2.94 75.4249 2.464 75.1449 2.184C74.8649 1.904 74.3889 1.764 73.7449 1.764V1.4C75.5369 1.288 77.0769 0.924 78.3649 0.307999L78.6169 0.447999V18.172C78.6169 19.068 78.7849 19.712 79.1209 20.076C79.4569 20.468 79.9609 20.636 80.5769 20.636V21H73.5489V20.636ZM82.669 3.836C82.305 3.444 82.137 2.968 82.137 2.352C82.137 1.792 82.305 1.344 82.669 0.979999C83.033 0.615999 83.509 0.42 84.097 0.42C84.685 0.42 85.161 0.615999 85.525 0.979999C85.889 1.344 86.085 1.792 86.085 2.352C86.085 2.968 85.889 3.444 85.525 3.836C85.161 4.228 84.685 4.396 84.097 4.396C83.509 4.396 83.033 4.228 82.669 3.836ZM80.877 20.636C81.493 20.636 81.969 20.468 82.305 20.076C82.641 19.712 82.837 19.068 82.837 18.172V9.856C82.837 9.184 82.669 8.736 82.389 8.456C82.109 8.176 81.633 8.036 80.989 8.008V7.644C82.781 7.532 84.321 7.168 85.609 6.552L85.861 6.692V18.172C85.861 19.096 86.029 19.74 86.365 20.104C86.701 20.468 87.177 20.636 87.821 20.636V21H80.877V20.636ZM91.2208 20.356C90.2128 19.74 89.4008 18.872 88.8128 17.78C88.2248 16.688 87.9448 15.456 87.9448 14.084C87.9448 12.712 88.2528 11.452 88.8968 10.276C89.5128 9.128 90.3808 8.204 91.4728 7.532C92.5368 6.86 93.7128 6.524 95.0008 6.524C95.9528 6.524 96.7928 6.72 97.5488 7.112C98.2768 7.504 98.8648 8.036 99.2848 8.652C99.7048 9.268 99.9288 9.94 99.9288 10.612C99.9288 11.172 99.7608 11.62 99.4528 11.928C99.1448 12.264 98.7808 12.404 98.3328 12.404C97.8848 12.404 97.5488 12.264 97.2968 11.984C97.0168 11.704 96.9048 11.368 96.9048 10.92C96.9048 10.696 96.9888 10.36 97.1568 9.94C97.3248 9.576 97.4088 9.24 97.4088 8.96C97.4088 8.428 97.1848 7.952 96.7368 7.56C96.2888 7.168 95.7568 6.972 95.0848 6.972C94.2728 6.972 93.5448 7.252 92.8728 7.756C92.2008 8.26 91.6688 8.988 91.2768 9.884C90.8848 10.808 90.6888 11.816 90.6888 12.936C90.6888 14.168 90.9128 15.232 91.4168 16.128C91.8928 17.052 92.5368 17.752 93.3208 18.256C94.1048 18.76 94.9728 18.984 95.9248 18.984C97.0448 18.984 98.0248 18.648 98.8368 17.976C99.6488 17.304 100.153 16.408 100.377 15.344L100.741 15.4C100.461 17.136 99.7888 18.536 98.6968 19.628C97.6048 20.748 96.2328 21.28 94.5528 21.28C93.3208 21.28 92.2288 20.972 91.2208 20.356ZM102.384 3.836C102.02 3.444 101.852 2.968 101.852 2.352C101.852 1.792 102.02 1.344 102.384 0.979999C102.748 0.615999 103.224 0.42 103.812 0.42C104.4 0.42 104.876 0.615999 105.24 0.979999C105.604 1.344 105.8 1.792 105.8 2.352C105.8 2.968 105.604 3.444 105.24 3.836C104.876 4.228 104.4 4.396 103.812 4.396C103.224 4.396 102.748 4.228 102.384 3.836ZM100.592 20.636C101.208 20.636 101.684 20.468 102.02 20.076C102.356 19.712 102.552 19.068 102.552 18.172V9.856C102.552 9.184 102.384 8.736 102.104 8.456C101.824 8.176 101.348 8.036 100.704 8.008V7.644C102.496 7.532 104.036 7.168 105.324 6.552L105.576 6.692V18.172C105.576 19.096 105.744 19.74 106.08 20.104C106.416 20.468 106.892 20.636 107.536 20.636V21H100.592V20.636ZM117.275 20.636C117.891 20.636 118.395 20.496 118.759 20.216C119.123 19.936 119.319 19.46 119.319 18.76C119.319 18.536 119.291 18.34 119.291 18.2L118.423 11.788C118.087 9.408 117.107 8.204 115.511 8.204C114.783 8.204 114.139 8.512 113.635 9.1C113.131 9.716 112.823 10.416 112.767 11.256V18.172C112.767 19.096 112.935 19.74 113.271 20.104C113.607 20.468 114.083 20.636 114.727 20.636V21H107.783V20.636C108.399 20.636 108.875 20.468 109.211 20.076C109.547 19.712 109.743 19.068 109.743 18.172V9.856C109.743 9.184 109.575 8.736 109.295 8.456C109.015 8.176 108.539 8.036 107.895 8.008V7.644C109.687 7.532 111.227 7.168 112.515 6.552L112.767 6.692V10.052C113.019 9.044 113.523 8.204 114.279 7.532C115.035 6.86 115.931 6.524 116.995 6.524C118.199 6.524 119.179 6.972 119.963 7.812C120.719 8.652 121.223 9.968 121.475 11.704L122.427 18.2C122.539 19.096 122.763 19.74 123.127 20.104C123.463 20.468 123.939 20.636 124.555 20.636V21H117.275V20.636ZM126.392 3.836C126.028 3.444 125.86 2.968 125.86 2.352C125.86 1.792 126.028 1.344 126.392 0.979999C126.756 0.615999 127.232 0.42 127.82 0.42C128.408 0.42 128.884 0.615999 129.248 0.979999C129.612 1.344 129.808 1.792 129.808 2.352C129.808 2.968 129.612 3.444 129.248 3.836C128.884 4.228 128.408 4.396 127.82 4.396C127.232 4.396 126.756 4.228 126.392 3.836ZM124.6 20.636C125.216 20.636 125.692 20.468 126.028 20.076C126.364 19.712 126.56 19.068 126.56 18.172V9.856C126.56 9.184 126.392 8.736 126.112 8.456C125.832 8.176 125.356 8.036 124.712 8.008V7.644C126.504 7.532 128.044 7.168 129.332 6.552L129.584 6.692V18.172C129.584 19.096 129.752 19.74 130.088 20.104C130.424 20.468 130.9 20.636 131.544 20.636V21H124.6V20.636ZM134.637 23.38C135.085 22.876 135.337 22.372 135.337 21.868C135.337 21.588 135.253 21.392 135.113 21.252C134.945 21.112 134.721 20.944 134.413 20.776C133.993 20.58 133.685 20.356 133.489 20.132C133.265 19.908 133.181 19.544 133.181 19.04C133.181 18.536 133.349 18.116 133.713 17.78C134.049 17.444 134.469 17.248 134.973 17.248C135.589 17.248 136.065 17.5 136.457 18.004C136.821 18.508 137.017 19.124 137.017 19.852C137.017 21.084 136.597 22.12 135.813 23.016C135.029 23.912 134.105 24.556 133.097 24.892L132.957 24.528C133.601 24.276 134.161 23.884 134.637 23.38ZM148.952 19.992C147.496 19.096 146.348 17.892 145.508 16.38C144.668 14.868 144.248 13.188 144.248 11.34C144.248 9.492 144.668 7.756 145.508 6.188C146.348 4.62 147.524 3.388 149.008 2.464C150.464 1.54 152.088 1.064 153.88 1.064C154.664 1.064 155.392 1.148 156.036 1.316C156.652 1.484 157.296 1.708 157.968 1.988C158.248 2.128 158.528 2.24 158.808 2.324C159.088 2.408 159.34 2.436 159.564 2.436C159.872 2.436 160.152 2.352 160.376 2.156C160.6 1.988 160.712 1.708 160.768 1.316L161.16 1.288L161.748 8.764L161.356 8.82C161.076 7.504 160.572 6.3 159.816 5.18C159.06 4.06 158.164 3.192 157.1 2.52C156.036 1.876 154.944 1.54 153.796 1.54C152.536 1.54 151.388 1.904 150.38 2.632C149.372 3.36 148.56 4.34 147.972 5.572C147.356 6.804 147.076 8.176 147.076 9.688C147.076 11.452 147.412 13.048 148.14 14.448C148.868 15.848 149.848 16.94 151.108 17.724C152.34 18.508 153.74 18.9 155.308 18.9C157.016 18.9 158.472 18.424 159.648 17.472C160.824 16.52 161.692 15.288 162.224 13.776L162.56 13.86C162.28 15.26 161.776 16.52 160.992 17.64C160.208 18.76 159.2 19.656 157.968 20.328C156.736 21 155.392 21.308 153.908 21.308C152.06 21.308 150.408 20.888 148.952 19.992ZM166.794 20.3C165.814 19.656 165.058 18.76 164.526 17.64C163.966 16.52 163.714 15.316 163.714 13.972C163.714 12.572 163.994 11.312 164.61 10.192C165.226 9.072 166.038 8.176 167.102 7.504C168.138 6.86 169.286 6.524 170.518 6.524C171.582 6.524 172.534 6.776 173.318 7.252C174.102 7.756 174.718 8.4 175.138 9.212C175.558 10.052 175.782 10.948 175.782 11.9H166.682C166.654 12.012 166.654 12.18 166.654 12.376C166.654 13.692 166.85 14.84 167.27 15.848C167.662 16.856 168.25 17.64 169.006 18.2C169.762 18.76 170.658 19.012 171.666 19.012C172.786 19.012 173.738 18.676 174.522 18.004C175.306 17.332 175.81 16.464 176.034 15.344L176.426 15.4C176.258 16.52 175.866 17.528 175.306 18.424C174.746 19.32 174.018 20.02 173.122 20.524C172.226 21.028 171.246 21.28 170.182 21.28C168.894 21.28 167.774 20.972 166.794 20.3ZM171.61 11.424C172.002 11.424 172.31 11.34 172.478 11.144C172.646 10.948 172.758 10.612 172.758 10.164C172.758 9.38 172.534 8.652 172.142 7.98C171.722 7.308 171.106 6.944 170.294 6.944C169.454 6.944 168.67 7.392 167.998 8.26C167.298 9.156 166.878 10.192 166.71 11.424H171.61ZM194.535 20.636C195.207 20.636 195.711 20.496 196.103 20.216C196.467 19.936 196.663 19.46 196.663 18.76C196.663 18.536 196.635 18.34 196.635 18.2L195.739 11.788C195.403 9.408 194.423 8.204 192.827 8.204C192.043 8.204 191.399 8.484 190.923 9.016C190.447 9.548 190.167 10.22 190.055 11.004C190.083 11.396 190.111 11.676 190.111 11.9V18.172C190.111 19.068 190.279 19.712 190.615 20.076C190.951 20.468 191.455 20.636 192.071 20.636V21H185.239V20.636C185.827 20.636 186.275 20.468 186.611 20.104C186.947 19.74 187.115 19.096 187.115 18.172V12.376C187.115 11.032 186.835 9.996 186.331 9.268C185.827 8.54 185.099 8.176 184.175 8.176C183.419 8.176 182.775 8.456 182.243 8.96C181.683 9.492 181.375 10.108 181.291 10.808V18.172C181.291 19.096 181.431 19.74 181.767 20.104C182.103 20.468 182.551 20.636 183.167 20.636V21H176.307V20.636C176.923 20.636 177.399 20.468 177.735 20.076C178.071 19.712 178.267 19.068 178.267 18.172V9.856C178.267 9.184 178.099 8.736 177.819 8.456C177.539 8.176 177.063 8.036 176.419 8.008V7.644C178.211 7.532 179.751 7.168 181.039 6.552L181.291 6.692V9.688C181.571 8.82 182.103 8.064 182.887 7.448C183.643 6.832 184.511 6.524 185.519 6.524C186.583 6.524 187.507 6.86 188.291 7.476C189.075 8.092 189.635 8.988 189.915 10.108C190.139 9.1 190.643 8.26 191.427 7.56C192.183 6.888 193.107 6.524 194.199 6.524C196.747 6.524 198.287 8.26 198.791 11.704L199.743 18.2C199.855 19.096 200.107 19.74 200.499 20.104C200.863 20.468 201.367 20.636 201.983 20.636V21H194.535V20.636ZM204.638 20.3C203.658 19.656 202.902 18.76 202.37 17.64C201.81 16.52 201.558 15.316 201.558 13.972C201.558 12.572 201.838 11.312 202.454 10.192C203.07 9.072 203.882 8.176 204.946 7.504C205.982 6.86 207.13 6.524 208.362 6.524C209.426 6.524 210.378 6.776 211.162 7.252C211.946 7.756 212.562 8.4 212.982 9.212C213.402 10.052 213.626 10.948 213.626 11.9H204.526C204.498 12.012 204.498 12.18 204.498 12.376C204.498 13.692 204.694 14.84 205.114 15.848C205.506 16.856 206.094 17.64 206.85 18.2C207.606 18.76 208.502 19.012 209.51 19.012C210.63 19.012 211.582 18.676 212.366 18.004C213.15 17.332 213.654 16.464 213.878 15.344L214.27 15.4C214.102 16.52 213.71 17.528 213.15 18.424C212.59 19.32 211.862 20.02 210.966 20.524C210.07 21.028 209.09 21.28 208.026 21.28C206.738 21.28 205.618 20.972 204.638 20.3ZM209.454 11.424C209.846 11.424 210.154 11.34 210.322 11.144C210.49 10.948 210.602 10.612 210.602 10.164C210.602 9.38 210.378 8.652 209.986 7.98C209.566 7.308 208.95 6.944 208.138 6.944C207.298 6.944 206.514 7.392 205.842 8.26C205.142 9.156 204.722 10.192 204.554 11.424H209.454ZM223.642 20.636C224.258 20.636 224.762 20.496 225.126 20.216C225.49 19.936 225.686 19.46 225.686 18.76C225.686 18.536 225.658 18.34 225.658 18.2L224.79 11.788C224.454 9.408 223.474 8.204 221.878 8.204C221.15 8.204 220.506 8.512 220.002 9.1C219.498 9.716 219.19 10.416 219.134 11.256V18.172C219.134 19.096 219.302 19.74 219.638 20.104C219.974 20.468 220.45 20.636 221.094 20.636V21H214.15V20.636C214.766 20.636 215.242 20.468 215.578 20.076C215.914 19.712 216.11 19.068 216.11 18.172V9.856C216.11 9.184 215.942 8.736 215.662 8.456C215.382 8.176 214.906 8.036 214.262 8.008V7.644C216.054 7.532 217.594 7.168 218.882 6.552L219.134 6.692V10.052C219.386 9.044 219.89 8.204 220.646 7.532C221.402 6.86 222.298 6.524 223.362 6.524C224.566 6.524 225.546 6.972 226.33 7.812C227.086 8.652 227.59 9.968 227.842 11.704L228.794 18.2C228.906 19.096 229.13 19.74 229.494 20.104C229.83 20.468 230.306 20.636 230.922 20.636V21H223.642V20.636ZM232.62 19.992C231.948 19.124 231.612 18.004 231.612 16.604V7.924H229.848V7.532C230.996 7.42 231.976 7.028 232.76 6.3C233.544 5.572 234.048 4.592 234.272 3.332H234.664V6.804H238.836L238.36 7.924H234.664V16.296C234.664 17.248 234.86 18.032 235.252 18.62C235.644 19.236 236.204 19.516 236.904 19.516C237.464 19.516 237.912 19.348 238.276 18.956C238.64 18.564 238.892 18.088 239.032 17.5L239.368 17.556C239.228 18.62 238.808 19.488 238.136 20.216C237.436 20.944 236.596 21.28 235.644 21.28C234.3 21.28 233.292 20.86 232.62 19.992ZM243.012 20.3C241.92 19.656 241.052 18.76 240.436 17.612C239.792 16.492 239.484 15.232 239.484 13.832C239.484 12.404 239.792 11.144 240.436 10.024C241.052 8.904 241.92 8.064 243.012 7.448C244.076 6.832 245.252 6.524 246.54 6.524C247.828 6.524 249.004 6.86 250.068 7.476C251.132 8.12 252 8.988 252.644 10.108C253.26 11.228 253.596 12.488 253.596 13.888C253.596 15.316 253.288 16.604 252.672 17.724C252.056 18.844 251.188 19.74 250.124 20.356C249.06 20.972 247.884 21.28 246.596 21.28C245.28 21.28 244.076 20.972 243.012 20.3ZM244.3 19.012C245.084 20.188 246.036 20.748 247.1 20.748C248.164 20.748 248.976 20.244 249.564 19.208C250.124 18.2 250.432 16.856 250.432 15.204C250.432 14.672 250.376 14 250.292 13.216C250.04 11.368 249.536 9.884 248.752 8.764C247.968 7.644 247.072 7.056 246.036 7.056C244.944 7.056 244.104 7.588 243.516 8.624C242.928 9.688 242.648 11.032 242.648 12.656C242.648 13.328 242.676 13.916 242.76 14.448C242.984 16.324 243.516 17.836 244.3 19.012ZM255.056 20.664C254.692 20.272 254.524 19.796 254.524 19.18C254.524 18.62 254.692 18.172 255.056 17.78C255.42 17.416 255.896 17.22 256.484 17.22C257.044 17.22 257.52 17.416 257.884 17.78C258.248 18.172 258.444 18.62 258.444 19.18C258.444 19.796 258.248 20.272 257.884 20.664C257.52 21.056 257.044 21.224 256.484 21.224C255.896 21.224 255.42 21.056 255.056 20.664ZM4.816 52.352C3.844 51.776 3.052 51.002 2.476 50.012C1.882 49.04 1.594 47.942 1.594 46.754C1.594 45.494 1.882 44.36 2.458 43.352C3.034 42.362 3.808 41.588 4.762 41.03C5.716 40.49 6.742 40.202 7.84 40.202C8.956 40.202 9.982 40.49 10.954 41.066C11.908 41.642 12.664 42.434 13.24 43.424C13.816 44.414 14.104 45.494 14.104 46.682C14.104 47.942 13.816 49.058 13.24 50.048C12.664 51.038 11.908 51.812 10.972 52.37C10.018 52.928 8.992 53.198 7.894 53.198C6.814 53.198 5.788 52.928 4.816 52.352ZM4.618 49.976C5.032 50.84 5.554 51.542 6.184 52.046C6.814 52.568 7.516 52.82 8.272 52.82C8.992 52.82 9.622 52.604 10.18 52.136C10.738 51.686 11.17 51.056 11.494 50.246C11.8 49.436 11.962 48.518 11.962 47.474C11.962 47.042 11.926 46.628 11.89 46.232C11.746 45.17 11.494 44.216 11.098 43.352C10.702 42.488 10.18 41.822 9.568 41.318C8.956 40.814 8.254 40.562 7.498 40.562C7.246 40.562 7.066 40.58 6.958 40.598C6.328 40.706 5.77 41.012 5.284 41.498C4.798 41.984 4.42 42.614 4.15 43.37C3.862 44.144 3.736 44.99 3.736 45.926C3.736 46.358 3.754 46.772 3.808 47.132C3.934 48.176 4.204 49.112 4.618 49.976ZM16.5687 52.352C16.1367 51.794 15.9207 51.074 15.9207 50.174V44.594H14.7867V44.342C15.5247 44.27 16.1547 44.018 16.6587 43.55C17.1627 43.082 17.4867 42.452 17.6307 41.642H17.8827V43.874H20.5647L20.2587 44.594H17.8827V49.976C17.8827 50.588 18.0087 51.092 18.2607 51.47C18.5127 51.866 18.8727 52.046 19.3227 52.046C19.6827 52.046 19.9707 51.938 20.2047 51.686C20.4387 51.434 20.6007 51.128 20.6907 50.75L20.9067 50.786C20.8167 51.47 20.5467 52.028 20.1147 52.496C19.6647 52.964 19.1247 53.18 18.5127 53.18C17.6487 53.18 17.0007 52.91 16.5687 52.352ZM22.6508 52.352C22.2188 51.794 22.0028 51.074 22.0028 50.174V44.594H20.8688V44.342C21.6068 44.27 22.2368 44.018 22.7408 43.55C23.2448 43.082 23.5688 42.452 23.7128 41.642H23.9648V43.874H26.6468L26.3408 44.594H23.9648V49.976C23.9648 50.588 24.0908 51.092 24.3428 51.47C24.5948 51.866 24.9548 52.046 25.4048 52.046C25.7648 52.046 26.0528 51.938 26.2868 51.686C26.5208 51.434 26.6828 51.128 26.7728 50.75L26.9888 50.786C26.8988 51.47 26.6288 52.028 26.1968 52.496C25.7468 52.964 25.2068 53.18 24.5948 53.18C23.7308 53.18 23.0828 52.91 22.6508 52.352ZM29.331 52.55C28.629 52.136 28.071 51.56 27.675 50.822C27.261 50.102 27.063 49.292 27.063 48.392C27.063 47.474 27.261 46.664 27.675 45.944C28.071 45.224 28.629 44.684 29.331 44.288C30.015 43.892 30.771 43.694 31.599 43.694C32.427 43.694 33.183 43.91 33.867 44.306C34.551 44.72 35.109 45.278 35.523 45.998C35.919 46.718 36.135 47.528 36.135 48.428C36.135 49.346 35.937 50.174 35.541 50.894C35.145 51.614 34.587 52.19 33.903 52.586C33.219 52.982 32.463 53.18 31.635 53.18C30.789 53.18 30.015 52.982 29.331 52.55ZM30.159 51.722C30.663 52.478 31.275 52.838 31.959 52.838C32.643 52.838 33.165 52.514 33.543 51.848C33.903 51.2 34.101 50.336 34.101 49.274C34.101 48.932 34.065 48.5 34.011 47.996C33.849 46.808 33.525 45.854 33.021 45.134C32.517 44.414 31.941 44.036 31.275 44.036C30.573 44.036 30.033 44.378 29.655 45.044C29.277 45.728 29.097 46.592 29.097 47.636C29.097 48.068 29.115 48.446 29.169 48.788C29.313 49.994 29.655 50.966 30.159 51.722ZM42.4861 52.568C41.9101 52.172 41.4781 51.614 41.1541 50.894C40.8301 50.192 40.6861 49.4 40.6861 48.536C40.6861 47.672 40.8661 46.862 41.2441 46.124C41.6041 45.404 42.1261 44.81 42.7741 44.378C43.4221 43.946 44.1241 43.73 44.9161 43.73C45.8521 43.73 46.6441 44.09 47.2561 44.81V41.822C47.2561 41.39 47.1661 41.084 46.9861 40.904C46.8061 40.724 46.5001 40.634 46.0861 40.634V40.4C47.2381 40.328 48.2281 40.094 49.0381 39.698L49.2181 39.788V51.308C49.2181 51.704 49.3081 51.974 49.4881 52.118C49.6681 52.262 49.9741 52.316 50.4061 52.298V52.532C49.2181 52.676 48.2461 52.91 47.4541 53.216L47.2561 53.108V51.236C47.0761 51.722 46.7341 52.172 46.2301 52.568C45.7081 52.982 45.0961 53.18 44.3761 53.18C43.6741 53.18 43.0441 52.982 42.4861 52.568ZM43.0981 50.156C43.3321 50.804 43.6561 51.272 44.0701 51.596C44.4661 51.92 44.9161 52.082 45.4021 52.082C45.8341 52.082 46.2301 51.956 46.5541 51.704C46.8781 51.452 47.1121 51.11 47.2561 50.678V47.798C47.2561 46.79 47.0581 45.908 46.6621 45.17C46.2661 44.45 45.7261 44.072 45.0601 44.072C44.5921 44.072 44.1961 44.252 43.8361 44.576C43.4761 44.9 43.2061 45.35 43.0261 45.926C42.8281 46.502 42.7381 47.15 42.7381 47.87C42.7381 48.77 42.8461 49.526 43.0981 50.156ZM51.7261 41.966C51.4921 41.714 51.3841 41.408 51.3841 41.012C51.3841 40.652 51.4921 40.364 51.7261 40.13C51.9601 39.896 52.2661 39.77 52.6441 39.77C53.0221 39.77 53.3281 39.896 53.5621 40.13C53.7961 40.364 53.9221 40.652 53.9221 41.012C53.9221 41.408 53.7961 41.714 53.5621 41.966C53.3281 42.218 53.0221 42.326 52.6441 42.326C52.2661 42.326 51.9601 42.218 51.7261 41.966ZM50.5741 52.766C50.9701 52.766 51.2761 52.658 51.4921 52.406C51.7081 52.172 51.8341 51.758 51.8341 51.182V45.836C51.8341 45.404 51.7261 45.116 51.5461 44.936C51.3661 44.756 51.0601 44.666 50.6461 44.648V44.414C51.7981 44.342 52.7881 44.108 53.6161 43.712L53.7781 43.802V51.182C53.7781 51.776 53.8861 52.19 54.1021 52.424C54.3181 52.658 54.6241 52.766 55.0381 52.766V53H50.5741V52.766ZM57.7616 52.856C57.0956 52.64 56.5016 52.352 55.9616 51.992V41.822C55.9616 41.39 55.8536 41.084 55.6736 40.904C55.4936 40.724 55.1876 40.634 54.7736 40.634V40.4C55.9256 40.328 56.9156 40.094 57.7436 39.698L57.9056 39.788V45.89C58.0676 45.332 58.4096 44.828 58.9316 44.396C59.4356 43.964 60.0476 43.73 60.7496 43.73C61.4516 43.73 62.0816 43.946 62.6396 44.378C63.1796 44.81 63.6116 45.368 63.9176 46.07C64.2056 46.79 64.3676 47.546 64.3676 48.356C64.3676 49.292 64.1696 50.138 63.7736 50.858C63.3776 51.596 62.8196 52.172 62.1356 52.568C61.4516 52.982 60.6776 53.18 59.8496 53.18C59.1296 53.18 58.4276 53.072 57.7616 52.856ZM58.4096 52.01C58.7516 52.622 59.2736 52.91 59.9576 52.91C60.6776 52.91 61.2716 52.55 61.7036 51.812C62.1356 51.092 62.3516 50.138 62.3516 48.968C62.3516 48.104 62.2256 47.348 62.0096 46.7C61.7936 46.07 61.4876 45.584 61.1096 45.26C60.7136 44.936 60.2816 44.756 59.7956 44.756C59.3276 44.756 58.9316 44.936 58.5896 45.26C58.2296 45.584 58.0136 45.998 57.9056 46.502V49.166C57.9056 50.462 58.0676 51.398 58.4096 52.01ZM71.2024 52.658C70.9144 52.334 70.7344 51.866 70.6624 51.272L70.6084 50.876C70.5364 51.272 70.3564 51.65 70.1044 51.992C69.8344 52.352 69.4924 52.64 69.0784 52.856C68.6464 53.072 68.1784 53.18 67.6564 53.18C66.9004 53.18 66.2704 52.964 65.7844 52.532C65.2984 52.1 65.0644 51.542 65.0644 50.858C65.0644 50.246 65.2624 49.742 65.6944 49.346C66.1264 48.95 66.7384 48.716 67.5304 48.644L70.2664 48.428L70.1404 47.51C70.0324 46.664 69.7804 45.998 69.3844 45.512C68.9884 45.044 68.4664 44.792 67.8184 44.792C67.2964 44.792 66.8464 44.954 66.4504 45.242C66.0544 45.53 65.7664 45.926 65.5684 46.412L65.3344 46.358C65.4424 45.926 65.6584 45.494 65.9824 45.08C66.3064 44.684 66.7024 44.342 67.1884 44.09C67.6744 43.838 68.2144 43.694 68.8084 43.694C69.7084 43.694 70.4464 43.982 71.0044 44.558C71.5624 45.134 71.9044 45.962 72.0484 47.024L72.5704 51.002C72.6604 51.686 72.8944 52.01 73.2904 52.01C73.3984 52.01 73.5064 51.974 73.5964 51.866C73.6864 51.776 73.7404 51.65 73.7764 51.488L73.9924 51.506C73.9564 51.938 73.8124 52.316 73.5244 52.64C73.2364 52.982 72.8584 53.144 72.3904 53.144C71.8864 53.144 71.4904 52.982 71.2024 52.658ZM67.3504 51.632C67.6564 51.956 68.0704 52.118 68.6104 52.118C69.1504 52.118 69.6004 51.956 69.9604 51.632C70.3024 51.308 70.5004 50.912 70.5544 50.462L70.3024 48.698L68.5384 48.842C67.9984 48.896 67.5844 49.076 67.2964 49.364C67.0084 49.652 66.8824 50.03 66.8824 50.462C66.8824 50.93 67.0264 51.308 67.3504 51.632ZM75.4203 52.352C74.9883 51.794 74.7723 51.074 74.7723 50.174V44.594H73.6383V44.342C74.3763 44.27 75.0063 44.018 75.5103 43.55C76.0143 43.082 76.3383 42.452 76.4823 41.642H76.7343V43.874H79.4163L79.1103 44.594H76.7343V49.976C76.7343 50.588 76.8603 51.092 77.1123 51.47C77.3643 51.866 77.7243 52.046 78.1743 52.046C78.5343 52.046 78.8223 51.938 79.0563 51.686C79.2903 51.434 79.4523 51.128 79.5423 50.75L79.7583 50.786C79.6683 51.47 79.3983 52.028 78.9663 52.496C78.5163 52.964 77.9763 53.18 77.3643 53.18C76.5003 53.18 75.8523 52.91 75.4203 52.352ZM81.5023 52.352C81.0703 51.794 80.8543 51.074 80.8543 50.174V44.594H79.7203V44.342C80.4583 44.27 81.0883 44.018 81.5923 43.55C82.0963 43.082 82.4203 42.452 82.5643 41.642H82.8163V43.874H85.4983L85.1923 44.594H82.8163V49.976C82.8163 50.588 82.9423 51.092 83.1943 51.47C83.4463 51.866 83.8063 52.046 84.2563 52.046C84.6163 52.046 84.9043 51.938 85.1383 51.686C85.3723 51.434 85.5343 51.128 85.6243 50.75L85.8403 50.786C85.7503 51.47 85.4803 52.028 85.0483 52.496C84.5983 52.964 84.0583 53.18 83.4463 53.18C82.5823 53.18 81.9343 52.91 81.5023 52.352ZM86.9703 41.966C86.7363 41.714 86.6283 41.408 86.6283 41.012C86.6283 40.652 86.7363 40.364 86.9703 40.13C87.2043 39.896 87.5103 39.77 87.8883 39.77C88.2663 39.77 88.5723 39.896 88.8063 40.13C89.0403 40.364 89.1663 40.652 89.1663 41.012C89.1663 41.408 89.0403 41.714 88.8063 41.966C88.5723 42.218 88.2663 42.326 87.8883 42.326C87.5103 42.326 87.2043 42.218 86.9703 41.966ZM85.8183 52.766C86.2143 52.766 86.5203 52.658 86.7363 52.406C86.9523 52.172 87.0783 51.758 87.0783 51.182V45.836C87.0783 45.404 86.9703 45.116 86.7903 44.936C86.6103 44.756 86.3043 44.666 85.8903 44.648V44.414C87.0423 44.342 88.0322 44.108 88.8603 43.712L89.0223 43.802V51.182C89.0223 51.776 89.1303 52.19 89.3463 52.424C89.5623 52.658 89.8683 52.766 90.2822 52.766V53H85.8183V52.766ZM91.9086 52.352C91.4766 51.794 91.2606 51.074 91.2606 50.174V44.594H90.1266V44.342C90.8646 44.27 91.4946 44.018 91.9986 43.55C92.5026 43.082 92.8266 42.452 92.9706 41.642H93.2226V43.874H95.9046L95.5986 44.594H93.2226V49.976C93.2226 50.588 93.3486 51.092 93.6006 51.47C93.8526 51.866 94.2126 52.046 94.6626 52.046C95.0226 52.046 95.3106 51.938 95.5446 51.686C95.7786 51.434 95.9406 51.128 96.0306 50.75L96.2466 50.786C96.1566 51.47 95.8866 52.028 95.4546 52.496C95.0046 52.964 94.4646 53.18 93.8526 53.18C92.9886 53.18 92.3406 52.91 91.9086 52.352ZM97.3765 41.966C97.1425 41.714 97.0345 41.408 97.0345 41.012C97.0345 40.652 97.1425 40.364 97.3765 40.13C97.6105 39.896 97.9165 39.77 98.2945 39.77C98.6725 39.77 98.9785 39.896 99.2125 40.13C99.4465 40.364 99.5725 40.652 99.5725 41.012C99.5725 41.408 99.4465 41.714 99.2125 41.966C98.9785 42.218 98.6725 42.326 98.2945 42.326C97.9165 42.326 97.6105 42.218 97.3765 41.966ZM96.2245 52.766C96.6205 52.766 96.9265 52.658 97.1425 52.406C97.3585 52.172 97.4845 51.758 97.4845 51.182V45.836C97.4845 45.404 97.3765 45.116 97.1965 44.936C97.0165 44.756 96.7105 44.666 96.2965 44.648V44.414C97.4485 44.342 98.4385 44.108 99.2665 43.712L99.4285 43.802V51.182C99.4285 51.776 99.5365 52.19 99.7525 52.424C99.9685 52.658 100.275 52.766 100.688 52.766V53H96.2245V52.766ZM105.004 49.418L105.238 49.364C105.526 50.282 105.94 51.092 106.48 51.794C107.02 52.514 107.722 52.874 108.622 52.874C109.18 52.874 109.63 52.73 109.954 52.442C110.278 52.154 110.458 51.776 110.476 51.326C110.476 50.894 110.314 50.516 110.008 50.228C109.684 49.94 109.18 49.67 108.46 49.418L107.38 48.986C106.624 48.698 106.066 48.356 105.67 47.924C105.274 47.492 105.094 46.952 105.094 46.304C105.094 45.836 105.22 45.386 105.508 44.99C105.778 44.594 106.156 44.288 106.642 44.054C107.128 43.838 107.668 43.712 108.244 43.712C108.712 43.712 109.252 43.82 109.846 44.018C110.17 44.126 110.386 44.162 110.494 44.162C110.746 44.162 110.944 43.982 111.052 43.604L111.304 43.586L111.538 47.114L111.286 47.15C111.142 46.682 110.926 46.214 110.638 45.728C110.35 45.242 109.99 44.828 109.576 44.486C109.144 44.162 108.694 43.982 108.208 43.982C107.722 43.982 107.326 44.126 107.038 44.414C106.75 44.702 106.606 45.062 106.606 45.458C106.606 45.854 106.75 46.214 107.056 46.502C107.362 46.79 107.848 47.06 108.496 47.276L109.558 47.708C110.368 48.014 110.962 48.374 111.358 48.788C111.754 49.202 111.952 49.706 111.952 50.3C111.952 50.894 111.79 51.398 111.502 51.83C111.196 52.262 110.8 52.604 110.314 52.82C109.828 53.054 109.306 53.162 108.748 53.162C108.424 53.162 108.118 53.144 107.866 53.09C107.596 53.036 107.29 52.964 106.948 52.856C106.57 52.748 106.318 52.694 106.192 52.694C106.048 52.694 105.922 52.748 105.832 52.82C105.742 52.892 105.652 53.018 105.58 53.198L105.31 53.216L105.004 49.418ZM114.883 52.766C114.433 52.478 114.091 52.064 113.839 51.524C113.587 50.984 113.461 50.336 113.461 49.598V45.836C113.461 45.404 113.353 45.116 113.173 44.936C112.993 44.756 112.687 44.666 112.273 44.648V44.414C113.425 44.342 114.415 44.108 115.243 43.712L115.405 43.802V49.4C115.405 50.228 115.549 50.894 115.873 51.362C116.179 51.848 116.647 52.082 117.277 52.082C117.817 52.082 118.231 51.902 118.537 51.524C118.843 51.146 119.023 50.696 119.077 50.192V45.836C119.077 45.404 118.969 45.116 118.789 44.936C118.609 44.756 118.303 44.666 117.889 44.648V44.414C119.041 44.342 120.031 44.108 120.859 43.712L121.021 43.802V51.308C121.021 51.704 121.111 51.974 121.291 52.118C121.471 52.262 121.795 52.316 122.227 52.298V52.532C121.057 52.676 120.067 52.91 119.257 53.216L119.077 53.108V51.056C118.879 51.632 118.555 52.136 118.105 52.568C117.637 53 117.079 53.198 116.395 53.198C115.819 53.198 115.315 53.054 114.883 52.766ZM122.187 52.766C122.583 52.766 122.889 52.658 123.105 52.406C123.321 52.172 123.447 51.758 123.447 51.182L123.501 41.822C123.501 41.39 123.393 41.084 123.213 40.904C123.033 40.724 122.727 40.634 122.313 40.634V40.4C123.465 40.328 124.455 40.094 125.283 39.698L125.445 39.788V51.182C125.445 51.758 125.553 52.172 125.769 52.406C125.985 52.658 126.309 52.766 126.705 52.766V53H122.187V52.766ZM126.723 52.766C127.119 52.766 127.425 52.658 127.641 52.406C127.857 52.172 127.983 51.758 127.983 51.182L128.037 41.822C128.037 41.39 127.929 41.084 127.749 40.904C127.569 40.724 127.263 40.634 126.849 40.634V40.4C128.001 40.328 128.991 40.094 129.819 39.698L129.981 39.788V51.182C129.981 51.758 130.089 52.172 130.305 52.406C130.521 52.658 130.845 52.766 131.241 52.766V53H126.723V52.766ZM137.542 52.658C137.254 52.334 137.074 51.866 137.002 51.272L136.948 50.876C136.876 51.272 136.696 51.65 136.444 51.992C136.174 52.352 135.832 52.64 135.418 52.856C134.986 53.072 134.518 53.18 133.996 53.18C133.24 53.18 132.61 52.964 132.124 52.532C131.638 52.1 131.404 51.542 131.404 50.858C131.404 50.246 131.602 49.742 132.034 49.346C132.466 48.95 133.078 48.716 133.87 48.644L136.606 48.428L136.48 47.51C136.372 46.664 136.12 45.998 135.724 45.512C135.328 45.044 134.806 44.792 134.158 44.792C133.636 44.792 133.186 44.954 132.79 45.242C132.394 45.53 132.106 45.926 131.908 46.412L131.674 46.358C131.782 45.926 131.998 45.494 132.322 45.08C132.646 44.684 133.042 44.342 133.528 44.09C134.014 43.838 134.554 43.694 135.148 43.694C136.048 43.694 136.786 43.982 137.344 44.558C137.902 45.134 138.244 45.962 138.388 47.024L138.91 51.002C139 51.686 139.234 52.01 139.63 52.01C139.738 52.01 139.846 51.974 139.936 51.866C140.026 51.776 140.08 51.65 140.116 51.488L140.332 51.506C140.296 51.938 140.152 52.316 139.864 52.64C139.576 52.982 139.198 53.144 138.73 53.144C138.226 53.144 137.83 52.982 137.542 52.658ZM133.69 51.632C133.996 51.956 134.41 52.118 134.95 52.118C135.49 52.118 135.94 51.956 136.3 51.632C136.642 51.308 136.84 50.912 136.894 50.462L136.642 48.698L134.878 48.842C134.338 48.896 133.924 49.076 133.636 49.364C133.348 49.652 133.222 50.03 133.222 50.462C133.222 50.93 133.366 51.308 133.69 51.632ZM146.988 52.856C146.322 52.64 145.728 52.352 145.188 51.992V41.822C145.188 41.39 145.08 41.084 144.9 40.904C144.72 40.724 144.414 40.634 144 40.634V40.4C145.152 40.328 146.142 40.094 146.97 39.698L147.132 39.788V45.89C147.294 45.332 147.636 44.828 148.158 44.396C148.662 43.964 149.274 43.73 149.976 43.73C150.678 43.73 151.308 43.946 151.866 44.378C152.406 44.81 152.838 45.368 153.144 46.07C153.432 46.79 153.594 47.546 153.594 48.356C153.594 49.292 153.396 50.138 153 50.858C152.604 51.596 152.046 52.172 151.362 52.568C150.678 52.982 149.904 53.18 149.076 53.18C148.356 53.18 147.654 53.072 146.988 52.856ZM147.636 52.01C147.978 52.622 148.5 52.91 149.184 52.91C149.904 52.91 150.498 52.55 150.93 51.812C151.362 51.092 151.578 50.138 151.578 48.968C151.578 48.104 151.452 47.348 151.236 46.7C151.02 46.07 150.714 45.584 150.336 45.26C149.94 44.936 149.508 44.756 149.022 44.756C148.554 44.756 148.158 44.936 147.816 45.26C147.456 45.584 147.24 45.998 147.132 46.502V49.166C147.132 50.462 147.294 51.398 147.636 52.01ZM154.839 41.966C154.605 41.714 154.497 41.408 154.497 41.012C154.497 40.652 154.605 40.364 154.839 40.13C155.073 39.896 155.379 39.77 155.757 39.77C156.135 39.77 156.441 39.896 156.675 40.13C156.909 40.364 157.035 40.652 157.035 41.012C157.035 41.408 156.909 41.714 156.675 41.966C156.441 42.218 156.135 42.326 155.757 42.326C155.379 42.326 155.073 42.218 154.839 41.966ZM153.687 52.766C154.083 52.766 154.389 52.658 154.605 52.406C154.821 52.172 154.947 51.758 154.947 51.182V45.836C154.947 45.404 154.839 45.116 154.659 44.936C154.479 44.756 154.173 44.666 153.759 44.648V44.414C154.911 44.342 155.901 44.108 156.729 43.712L156.891 43.802V51.182C156.891 51.776 156.999 52.19 157.215 52.424C157.431 52.658 157.737 52.766 158.151 52.766V53H153.687V52.766ZM160.499 52.55C159.797 52.136 159.239 51.56 158.843 50.822C158.429 50.102 158.231 49.292 158.231 48.392C158.231 47.474 158.429 46.664 158.843 45.944C159.239 45.224 159.797 44.684 160.499 44.288C161.183 43.892 161.939 43.694 162.767 43.694C163.595 43.694 164.351 43.91 165.035 44.306C165.719 44.72 166.277 45.278 166.691 45.998C167.087 46.718 167.303 47.528 167.303 48.428C167.303 49.346 167.105 50.174 166.709 50.894C166.313 51.614 165.755 52.19 165.071 52.586C164.387 52.982 163.631 53.18 162.803 53.18C161.957 53.18 161.183 52.982 160.499 52.55ZM161.327 51.722C161.831 52.478 162.443 52.838 163.127 52.838C163.811 52.838 164.333 52.514 164.711 51.848C165.071 51.2 165.269 50.336 165.269 49.274C165.269 48.932 165.233 48.5 165.179 47.996C165.017 46.808 164.693 45.854 164.189 45.134C163.685 44.414 163.109 44.036 162.443 44.036C161.741 44.036 161.201 44.378 160.823 45.044C160.445 45.728 160.265 46.592 160.265 47.636C160.265 48.068 160.283 48.446 160.337 48.788C160.481 49.994 160.823 50.966 161.327 51.722ZM170.086 52.568C169.51 52.172 169.078 51.614 168.754 50.894C168.43 50.192 168.286 49.4 168.286 48.536C168.286 47.672 168.466 46.862 168.844 46.124C169.204 45.404 169.726 44.81 170.374 44.378C171.022 43.946 171.724 43.73 172.516 43.73C173.452 43.73 174.244 44.09 174.856 44.81V41.822C174.856 41.39 174.766 41.084 174.586 40.904C174.406 40.724 174.1 40.634 173.686 40.634V40.4C174.838 40.328 175.828 40.094 176.638 39.698L176.818 39.788V51.308C176.818 51.704 176.908 51.974 177.088 52.118C177.268 52.262 177.574 52.316 178.006 52.298V52.532C176.818 52.676 175.846 52.91 175.054 53.216L174.856 53.108V51.236C174.676 51.722 174.334 52.172 173.83 52.568C173.308 52.982 172.696 53.18 171.976 53.18C171.274 53.18 170.644 52.982 170.086 52.568ZM170.698 50.156C170.932 50.804 171.256 51.272 171.67 51.596C172.066 51.92 172.516 52.082 173.002 52.082C173.434 52.082 173.83 51.956 174.154 51.704C174.478 51.452 174.712 51.11 174.856 50.678V47.798C174.856 46.79 174.658 45.908 174.262 45.17C173.866 44.45 173.326 44.072 172.66 44.072C172.192 44.072 171.796 44.252 171.436 44.576C171.076 44.9 170.806 45.35 170.626 45.926C170.428 46.502 170.338 47.15 170.338 47.87C170.338 48.77 170.446 49.526 170.698 50.156ZM179.326 41.966C179.092 41.714 178.984 41.408 178.984 41.012C178.984 40.652 179.092 40.364 179.326 40.13C179.56 39.896 179.866 39.77 180.244 39.77C180.622 39.77 180.928 39.896 181.162 40.13C181.396 40.364 181.522 40.652 181.522 41.012C181.522 41.408 181.396 41.714 181.162 41.966C180.928 42.218 180.622 42.326 180.244 42.326C179.866 42.326 179.56 42.218 179.326 41.966ZM178.174 52.766C178.57 52.766 178.876 52.658 179.092 52.406C179.308 52.172 179.434 51.758 179.434 51.182V45.836C179.434 45.404 179.326 45.116 179.146 44.936C178.966 44.756 178.66 44.666 178.246 44.648V44.414C179.398 44.342 180.388 44.108 181.216 43.712L181.378 43.802V51.182C181.378 51.776 181.486 52.19 181.702 52.424C181.918 52.658 182.224 52.766 182.638 52.766V53H178.174V52.766ZM185.217 52.28C184.713 51.686 184.353 50.768 184.155 49.526L183.525 45.674C183.417 45.098 183.255 44.702 183.021 44.468C182.769 44.234 182.463 44.108 182.067 44.108V43.874H186.459V44.108C185.757 44.108 185.415 44.468 185.415 45.188C185.415 45.404 185.415 45.566 185.451 45.674L185.991 48.986C186.135 49.958 186.387 50.696 186.729 51.182C187.053 51.686 187.539 51.92 188.187 51.92C188.655 51.92 189.105 51.758 189.555 51.398C190.005 51.038 190.365 50.57 190.653 49.958C190.923 49.364 191.067 48.716 191.067 47.996C191.067 47.204 190.905 46.556 190.599 46.088C190.293 45.62 189.879 45.368 189.357 45.368C189.105 45.368 188.853 45.422 188.637 45.512C188.529 45.566 188.403 45.584 188.259 45.584C188.007 45.584 187.791 45.512 187.611 45.332C187.431 45.152 187.359 44.936 187.359 44.648C187.359 44.396 187.449 44.162 187.629 43.982C187.809 43.802 188.061 43.712 188.421 43.712C188.925 43.712 189.393 43.874 189.843 44.162C190.293 44.45 190.653 44.9 190.941 45.494C191.229 46.106 191.373 46.844 191.373 47.708C191.373 48.698 191.175 49.616 190.797 50.444C190.401 51.29 189.897 51.956 189.267 52.442C188.637 52.946 187.971 53.18 187.269 53.18C186.405 53.18 185.721 52.892 185.217 52.28ZM194.33 52.55C193.7 52.136 193.214 51.56 192.872 50.84C192.512 50.12 192.35 49.346 192.35 48.482C192.35 47.582 192.53 46.772 192.926 46.052C193.322 45.332 193.844 44.756 194.528 44.324C195.194 43.91 195.932 43.694 196.724 43.694C197.408 43.694 198.02 43.856 198.524 44.162C199.028 44.486 199.424 44.9 199.694 45.422C199.964 45.962 200.108 46.538 200.108 47.15H194.258C194.24 47.222 194.24 47.33 194.24 47.456C194.24 48.302 194.366 49.04 194.636 49.688C194.888 50.336 195.266 50.84 195.752 51.2C196.238 51.56 196.814 51.722 197.462 51.722C198.182 51.722 198.794 51.506 199.298 51.074C199.802 50.642 200.126 50.084 200.27 49.364L200.522 49.4C200.414 50.12 200.162 50.768 199.802 51.344C199.442 51.92 198.974 52.37 198.398 52.694C197.822 53.018 197.192 53.18 196.508 53.18C195.68 53.18 194.96 52.982 194.33 52.55ZM197.426 46.844C197.678 46.844 197.876 46.79 197.984 46.664C198.092 46.538 198.164 46.322 198.164 46.034C198.164 45.53 198.02 45.062 197.768 44.63C197.498 44.198 197.102 43.964 196.58 43.964C196.04 43.964 195.536 44.252 195.104 44.81C194.654 45.386 194.384 46.052 194.276 46.844H197.426ZM200.445 52.766C200.841 52.766 201.147 52.658 201.363 52.406C201.579 52.172 201.705 51.758 201.705 51.182V45.836C201.705 45.404 201.615 45.116 201.435 44.936C201.255 44.756 200.949 44.666 200.517 44.648V44.414C201.669 44.342 202.659 44.108 203.487 43.712L203.649 43.802V45.764C203.793 45.206 204.063 44.72 204.459 44.306C204.855 43.91 205.305 43.694 205.845 43.694C206.259 43.694 206.601 43.838 206.871 44.09C207.123 44.36 207.267 44.666 207.267 45.008C207.267 45.314 207.159 45.566 206.979 45.782C206.799 45.998 206.547 46.088 206.241 46.088C206.025 46.088 205.863 46.052 205.737 45.944C205.611 45.854 205.503 45.728 205.431 45.584C205.359 45.44 205.287 45.296 205.251 45.152C205.179 45.008 205.125 44.918 205.071 44.846C204.999 44.792 204.927 44.756 204.819 44.756C204.531 44.756 204.279 44.936 204.063 45.26C203.847 45.602 203.703 45.998 203.649 46.448V51.182C203.649 51.758 203.793 52.172 204.081 52.406C204.369 52.658 204.765 52.766 205.287 52.766V53H200.445V52.766ZM207.607 49.418L207.841 49.364C208.129 50.282 208.543 51.092 209.083 51.794C209.623 52.514 210.325 52.874 211.225 52.874C211.783 52.874 212.233 52.73 212.557 52.442C212.881 52.154 213.061 51.776 213.079 51.326C213.079 50.894 212.917 50.516 212.611 50.228C212.287 49.94 211.783 49.67 211.063 49.418L209.983 48.986C209.227 48.698 208.669 48.356 208.273 47.924C207.877 47.492 207.697 46.952 207.697 46.304C207.697 45.836 207.823 45.386 208.111 44.99C208.381 44.594 208.759 44.288 209.245 44.054C209.731 43.838 210.271 43.712 210.847 43.712C211.315 43.712 211.855 43.82 212.449 44.018C212.773 44.126 212.989 44.162 213.097 44.162C213.349 44.162 213.547 43.982 213.655 43.604L213.907 43.586L214.141 47.114L213.889 47.15C213.745 46.682 213.529 46.214 213.241 45.728C212.953 45.242 212.593 44.828 212.179 44.486C211.747 44.162 211.297 43.982 210.811 43.982C210.325 43.982 209.929 44.126 209.641 44.414C209.353 44.702 209.209 45.062 209.209 45.458C209.209 45.854 209.353 46.214 209.659 46.502C209.965 46.79 210.451 47.06 211.099 47.276L212.161 47.708C212.971 48.014 213.565 48.374 213.961 48.788C214.357 49.202 214.555 49.706 214.555 50.3C214.555 50.894 214.393 51.398 214.105 51.83C213.799 52.262 213.403 52.604 212.917 52.82C212.431 53.054 211.909 53.162 211.351 53.162C211.027 53.162 210.721 53.144 210.469 53.09C210.199 53.036 209.893 52.964 209.551 52.856C209.173 52.748 208.921 52.694 208.795 52.694C208.651 52.694 208.525 52.748 208.435 52.82C208.345 52.892 208.255 53.018 208.183 53.198L207.913 53.216L207.607 49.418ZM216.029 41.966C215.795 41.714 215.687 41.408 215.687 41.012C215.687 40.652 215.795 40.364 216.029 40.13C216.263 39.896 216.569 39.77 216.947 39.77C217.325 39.77 217.631 39.896 217.865 40.13C218.099 40.364 218.225 40.652 218.225 41.012C218.225 41.408 218.099 41.714 217.865 41.966C217.631 42.218 217.325 42.326 216.947 42.326C216.569 42.326 216.263 42.218 216.029 41.966ZM214.877 52.766C215.273 52.766 215.579 52.658 215.795 52.406C216.011 52.172 216.137 51.758 216.137 51.182V45.836C216.137 45.404 216.029 45.116 215.849 44.936C215.669 44.756 215.363 44.666 214.949 44.648V44.414C216.101 44.342 217.091 44.108 217.919 43.712L218.081 43.802V51.182C218.081 51.776 218.189 52.19 218.405 52.424C218.621 52.658 218.927 52.766 219.341 52.766V53H214.877V52.766ZM220.967 52.352C220.535 51.794 220.319 51.074 220.319 50.174V44.594H219.185V44.342C219.923 44.27 220.553 44.018 221.057 43.55C221.561 43.082 221.885 42.452 222.029 41.642H222.281V43.874H224.963L224.657 44.594H222.281V49.976C222.281 50.588 222.407 51.092 222.659 51.47C222.911 51.866 223.271 52.046 223.721 52.046C224.081 52.046 224.369 51.938 224.603 51.686C224.837 51.434 224.999 51.128 225.089 50.75L225.305 50.786C225.215 51.47 224.945 52.028 224.513 52.496C224.063 52.964 223.523 53.18 222.911 53.18C222.047 53.18 221.399 52.91 220.967 52.352ZM231.849 52.658C231.561 52.334 231.381 51.866 231.309 51.272L231.255 50.876C231.183 51.272 231.003 51.65 230.751 51.992C230.481 52.352 230.139 52.64 229.725 52.856C229.293 53.072 228.825 53.18 228.303 53.18C227.547 53.18 226.917 52.964 226.431 52.532C225.945 52.1 225.711 51.542 225.711 50.858C225.711 50.246 225.909 49.742 226.341 49.346C226.773 48.95 227.385 48.716 228.177 48.644L230.913 48.428L230.787 47.51C230.679 46.664 230.427 45.998 230.031 45.512C229.635 45.044 229.113 44.792 228.465 44.792C227.943 44.792 227.493 44.954 227.097 45.242C226.701 45.53 226.413 45.926 226.215 46.412L225.981 46.358C226.089 45.926 226.305 45.494 226.629 45.08C226.953 44.684 227.349 44.342 227.835 44.09C228.321 43.838 228.861 43.694 229.455 43.694C230.355 43.694 231.093 43.982 231.651 44.558C232.209 45.134 232.551 45.962 232.695 47.024L233.217 51.002C233.307 51.686 233.541 52.01 233.937 52.01C234.045 52.01 234.153 51.974 234.243 51.866C234.333 51.776 234.387 51.65 234.423 51.488L234.639 51.506C234.603 51.938 234.459 52.316 234.171 52.64C233.883 52.982 233.505 53.144 233.037 53.144C232.533 53.144 232.137 52.982 231.849 52.658ZM227.997 51.632C228.303 51.956 228.717 52.118 229.257 52.118C229.797 52.118 230.247 51.956 230.607 51.632C230.949 51.308 231.147 50.912 231.201 50.462L230.949 48.698L229.185 48.842C228.645 48.896 228.231 49.076 227.943 49.364C227.655 49.652 227.529 50.03 227.529 50.462C227.529 50.93 227.673 51.308 227.997 51.632ZM226.593 39.734L228.807 39.752L230.175 42.74L229.923 42.848L226.593 39.734ZM240.971 52.766C240.521 52.478 240.179 52.064 239.927 51.524C239.675 50.984 239.549 50.336 239.549 49.598V45.836C239.549 45.404 239.441 45.116 239.261 44.936C239.081 44.756 238.775 44.666 238.361 44.648V44.414C239.513 44.342 240.503 44.108 241.331 43.712L241.493 43.802V49.4C241.493 50.228 241.637 50.894 241.961 51.362C242.267 51.848 242.735 52.082 243.365 52.082C243.905 52.082 244.319 51.902 244.625 51.524C244.931 51.146 245.111 50.696 245.165 50.192V45.836C245.165 45.404 245.057 45.116 244.877 44.936C244.697 44.756 244.391 44.666 243.977 44.648V44.414C245.129 44.342 246.119 44.108 246.947 43.712L247.109 43.802V51.308C247.109 51.704 247.199 51.974 247.379 52.118C247.559 52.262 247.883 52.316 248.315 52.298V52.532C247.145 52.676 246.155 52.91 245.345 53.216L245.165 53.108V51.056C244.967 51.632 244.643 52.136 244.193 52.568C243.725 53 243.167 53.198 242.483 53.198C241.907 53.198 241.403 53.054 240.971 52.766ZM248.486 52.766C248.882 52.766 249.188 52.658 249.404 52.406C249.62 52.172 249.746 51.758 249.746 51.182V45.836C249.746 45.404 249.656 45.116 249.476 44.936C249.296 44.756 248.99 44.666 248.558 44.648V44.414C249.71 44.342 250.7 44.108 251.528 43.712L251.69 43.802V45.764C251.834 45.206 252.104 44.72 252.5 44.306C252.896 43.91 253.346 43.694 253.886 43.694C254.3 43.694 254.642 43.838 254.912 44.09C255.164 44.36 255.308 44.666 255.308 45.008C255.308 45.314 255.2 45.566 255.02 45.782C254.84 45.998 254.588 46.088 254.282 46.088C254.066 46.088 253.904 46.052 253.778 45.944C253.652 45.854 253.544 45.728 253.472 45.584C253.4 45.44 253.328 45.296 253.292 45.152C253.22 45.008 253.166 44.918 253.112 44.846C253.04 44.792 252.968 44.756 252.86 44.756C252.572 44.756 252.32 44.936 252.104 45.26C251.888 45.602 251.744 45.998 251.69 46.448V51.182C251.69 51.758 251.834 52.172 252.122 52.406C252.41 52.658 252.806 52.766 253.328 52.766V53H248.486V52.766ZM257.976 52.856C257.31 52.64 256.716 52.352 256.176 51.992V41.822C256.176 41.39 256.068 41.084 255.888 40.904C255.708 40.724 255.402 40.634 254.988 40.634V40.4C256.14 40.328 257.13 40.094 257.958 39.698L258.12 39.788V45.89C258.282 45.332 258.624 44.828 259.146 44.396C259.65 43.964 260.262 43.73 260.964 43.73C261.666 43.73 262.296 43.946 262.854 44.378C263.394 44.81 263.826 45.368 264.132 46.07C264.42 46.79 264.582 47.546 264.582 48.356C264.582 49.292 264.384 50.138 263.988 50.858C263.592 51.596 263.034 52.172 262.35 52.568C261.666 52.982 260.892 53.18 260.064 53.18C259.344 53.18 258.642 53.072 257.976 52.856ZM258.624 52.01C258.966 52.622 259.488 52.91 260.172 52.91C260.892 52.91 261.486 52.55 261.918 51.812C262.35 51.092 262.566 50.138 262.566 48.968C262.566 48.104 262.44 47.348 262.224 46.7C262.008 46.07 261.702 45.584 261.324 45.26C260.928 44.936 260.496 44.756 260.01 44.756C259.542 44.756 259.146 44.936 258.804 45.26C258.444 45.584 258.228 45.998 258.12 46.502V49.166C258.12 50.462 258.282 51.398 258.624 52.01ZM271.417 52.658C271.129 52.334 270.949 51.866 270.877 51.272L270.823 50.876C270.751 51.272 270.571 51.65 270.319 51.992C270.049 52.352 269.707 52.64 269.293 52.856C268.861 53.072 268.393 53.18 267.871 53.18C267.115 53.18 266.485 52.964 265.999 52.532C265.513 52.1 265.279 51.542 265.279 50.858C265.279 50.246 265.477 49.742 265.909 49.346C266.341 48.95 266.953 48.716 267.745 48.644L270.481 48.428L270.355 47.51C270.247 46.664 269.995 45.998 269.599 45.512C269.203 45.044 268.681 44.792 268.033 44.792C267.511 44.792 267.061 44.954 266.665 45.242C266.269 45.53 265.981 45.926 265.783 46.412L265.549 46.358C265.657 45.926 265.873 45.494 266.197 45.08C266.521 44.684 266.917 44.342 267.403 44.09C267.889 43.838 268.429 43.694 269.023 43.694C269.923 43.694 270.661 43.982 271.219 44.558C271.777 45.134 272.119 45.962 272.263 47.024L272.785 51.002C272.875 51.686 273.109 52.01 273.505 52.01C273.613 52.01 273.721 51.974 273.811 51.866C273.901 51.776 273.955 51.65 273.991 51.488L274.207 51.506C274.171 51.938 274.027 52.316 273.739 52.64C273.451 52.982 273.073 53.144 272.605 53.144C272.101 53.144 271.705 52.982 271.417 52.658ZM267.565 51.632C267.871 51.956 268.285 52.118 268.825 52.118C269.365 52.118 269.815 51.956 270.175 51.632C270.517 51.308 270.715 50.912 270.769 50.462L270.517 48.698L268.753 48.842C268.213 48.896 267.799 49.076 267.511 49.364C267.223 49.652 267.097 50.03 267.097 50.462C267.097 50.93 267.241 51.308 267.565 51.632ZM280.305 52.766C280.701 52.766 281.025 52.676 281.259 52.496C281.493 52.316 281.619 52.01 281.619 51.56C281.619 51.416 281.601 51.29 281.601 51.2L281.043 47.078C280.827 45.548 280.197 44.774 279.171 44.774C278.703 44.774 278.289 44.972 277.965 45.35C277.641 45.746 277.443 46.196 277.407 46.736V51.182C277.407 51.776 277.515 52.19 277.731 52.424C277.947 52.658 278.253 52.766 278.667 52.766V53H274.203V52.766C274.599 52.766 274.905 52.658 275.121 52.406C275.337 52.172 275.463 51.758 275.463 51.182V45.836C275.463 45.404 275.355 45.116 275.175 44.936C274.995 44.756 274.689 44.666 274.275 44.648V44.414C275.427 44.342 276.417 44.108 277.245 43.712L277.407 43.802V45.962C277.569 45.314 277.893 44.774 278.379 44.342C278.865 43.91 279.441 43.694 280.125 43.694C280.899 43.694 281.529 43.982 282.033 44.522C282.519 45.062 282.843 45.908 283.005 47.024L283.617 51.2C283.689 51.776 283.833 52.19 284.067 52.424C284.283 52.658 284.589 52.766 284.985 52.766V53H280.305V52.766ZM291.052 52.658C290.764 52.334 290.584 51.866 290.512 51.272L290.458 50.876C290.386 51.272 290.206 51.65 289.954 51.992C289.684 52.352 289.342 52.64 288.928 52.856C288.496 53.072 288.028 53.18 287.506 53.18C286.75 53.18 286.12 52.964 285.634 52.532C285.148 52.1 284.914 51.542 284.914 50.858C284.914 50.246 285.112 49.742 285.544 49.346C285.976 48.95 286.588 48.716 287.38 48.644L290.116 48.428L289.99 47.51C289.882 46.664 289.63 45.998 289.234 45.512C288.838 45.044 288.316 44.792 287.668 44.792C287.146 44.792 286.696 44.954 286.3 45.242C285.904 45.53 285.616 45.926 285.418 46.412L285.184 46.358C285.292 45.926 285.508 45.494 285.832 45.08C286.156 44.684 286.552 44.342 287.038 44.09C287.524 43.838 288.064 43.694 288.658 43.694C289.558 43.694 290.296 43.982 290.854 44.558C291.412 45.134 291.754 45.962 291.898 47.024L292.42 51.002C292.51 51.686 292.744 52.01 293.14 52.01C293.248 52.01 293.356 51.974 293.446 51.866C293.536 51.776 293.59 51.65 293.626 51.488L293.842 51.506C293.806 51.938 293.662 52.316 293.374 52.64C293.086 52.982 292.708 53.144 292.24 53.144C291.736 53.144 291.34 52.982 291.052 52.658ZM287.2 51.632C287.506 51.956 287.92 52.118 288.46 52.118C289 52.118 289.45 51.956 289.81 51.632C290.152 51.308 290.35 50.912 290.404 50.462L290.152 48.698L288.388 48.842C287.848 48.896 287.434 49.076 287.146 49.364C286.858 49.652 286.732 50.03 286.732 50.462C286.732 50.93 286.876 51.308 287.2 51.632ZM3.916 76.28C3.412 75.686 3.052 74.768 2.854 73.526L2.224 69.674C2.116 69.098 1.954 68.702 1.72 68.468C1.468 68.234 1.162 68.108 0.766 68.108V67.874H5.158V68.108C4.456 68.108 4.114 68.468 4.114 69.188C4.114 69.404 4.114 69.566 4.15 69.674L4.69 72.986C4.834 73.958 5.086 74.696 5.428 75.182C5.752 75.686 6.238 75.92 6.886 75.92C7.354 75.92 7.804 75.758 8.254 75.398C8.704 75.038 9.064 74.57 9.352 73.958C9.622 73.364 9.766 72.716 9.766 71.996C9.766 71.204 9.604 70.556 9.298 70.088C8.992 69.62 8.578 69.368 8.056 69.368C7.804 69.368 7.552 69.422 7.336 69.512C7.228 69.566 7.102 69.584 6.958 69.584C6.706 69.584 6.49 69.512 6.31 69.332C6.13 69.152 6.058 68.936 6.058 68.648C6.058 68.396 6.148 68.162 6.328 67.982C6.508 67.802 6.76 67.712 7.12 67.712C7.624 67.712 8.092 67.874 8.542 68.162C8.992 68.45 9.352 68.9 9.64 69.494C9.928 70.106 10.072 70.844 10.072 71.708C10.072 72.698 9.874 73.616 9.496 74.444C9.1 75.29 8.596 75.956 7.966 76.442C7.336 76.946 6.67 77.18 5.968 77.18C5.104 77.18 4.42 76.892 3.916 76.28ZM11.437 65.966C11.203 65.714 11.095 65.408 11.095 65.012C11.095 64.652 11.203 64.364 11.437 64.13C11.671 63.896 11.977 63.77 12.355 63.77C12.733 63.77 13.039 63.896 13.273 64.13C13.507 64.364 13.633 64.652 13.633 65.012C13.633 65.408 13.507 65.714 13.273 65.966C13.039 66.218 12.733 66.326 12.355 66.326C11.977 66.326 11.671 66.218 11.437 65.966ZM10.285 76.766C10.681 76.766 10.987 76.658 11.203 76.406C11.419 76.172 11.545 75.758 11.545 75.182V69.836C11.545 69.404 11.437 69.116 11.257 68.936C11.077 68.756 10.771 68.666 10.357 68.648V68.414C11.509 68.342 12.499 68.108 13.327 67.712L13.489 67.802V75.182C13.489 75.776 13.597 76.19 13.813 76.424C14.029 76.658 14.335 76.766 14.749 76.766V77H10.285V76.766ZM15.2497 73.418L15.4837 73.364C15.7717 74.282 16.1857 75.092 16.7257 75.794C17.2657 76.514 17.9677 76.874 18.8677 76.874C19.4257 76.874 19.8757 76.73 20.1997 76.442C20.5237 76.154 20.7037 75.776 20.7217 75.326C20.7217 74.894 20.5597 74.516 20.2537 74.228C19.9297 73.94 19.4257 73.67 18.7057 73.418L17.6257 72.986C16.8697 72.698 16.3117 72.356 15.9157 71.924C15.5197 71.492 15.3397 70.952 15.3397 70.304C15.3397 69.836 15.4657 69.386 15.7537 68.99C16.0237 68.594 16.4017 68.288 16.8877 68.054C17.3737 67.838 17.9137 67.712 18.4897 67.712C18.9577 67.712 19.4977 67.82 20.0917 68.018C20.4157 68.126 20.6317 68.162 20.7397 68.162C20.9917 68.162 21.1897 67.982 21.2977 67.604L21.5497 67.586L21.7837 71.114L21.5317 71.15C21.3877 70.682 21.1717 70.214 20.8837 69.728C20.5957 69.242 20.2357 68.828 19.8217 68.486C19.3897 68.162 18.9397 67.982 18.4537 67.982C17.9677 67.982 17.5717 68.126 17.2837 68.414C16.9957 68.702 16.8517 69.062 16.8517 69.458C16.8517 69.854 16.9957 70.214 17.3017 70.502C17.6077 70.79 18.0937 71.06 18.7417 71.276L19.8037 71.708C20.6137 72.014 21.2077 72.374 21.6037 72.788C21.9997 73.202 22.1977 73.706 22.1977 74.3C22.1977 74.894 22.0357 75.398 21.7477 75.83C21.4417 76.262 21.0457 76.604 20.5597 76.82C20.0737 77.054 19.5517 77.162 18.9937 77.162C18.6697 77.162 18.3637 77.144 18.1117 77.09C17.8417 77.036 17.5357 76.964 17.1937 76.856C16.8157 76.748 16.5637 76.694 16.4377 76.694C16.2937 76.694 16.1677 76.748 16.0777 76.82C15.9877 76.892 15.8977 77.018 15.8257 77.198L15.5557 77.216L15.2497 73.418ZM24.3383 76.352C23.9063 75.794 23.6903 75.074 23.6903 74.174V68.594H22.5563V68.342C23.2943 68.27 23.9243 68.018 24.4283 67.55C24.9323 67.082 25.2563 66.452 25.4003 65.642H25.6523V67.874H28.3343L28.0283 68.594H25.6523V73.976C25.6523 74.588 25.7783 75.092 26.0303 75.47C26.2823 75.866 26.6423 76.046 27.0923 76.046C27.4523 76.046 27.7403 75.938 27.9743 75.686C28.2083 75.434 28.3703 75.128 28.4603 74.75L28.6763 74.786C28.5863 75.47 28.3163 76.028 27.8843 76.496C27.4343 76.964 26.8943 77.18 26.2823 77.18C25.4183 77.18 24.7703 76.91 24.3383 76.352ZM29.8062 65.966C29.5722 65.714 29.4642 65.408 29.4642 65.012C29.4642 64.652 29.5722 64.364 29.8062 64.13C30.0402 63.896 30.3462 63.77 30.7242 63.77C31.1022 63.77 31.4082 63.896 31.6422 64.13C31.8762 64.364 32.0022 64.652 32.0022 65.012C32.0022 65.408 31.8762 65.714 31.6422 65.966C31.4082 66.218 31.1022 66.326 30.7242 66.326C30.3462 66.326 30.0402 66.218 29.8062 65.966ZM28.6542 76.766C29.0502 76.766 29.3562 76.658 29.5722 76.406C29.7882 76.172 29.9142 75.758 29.9142 75.182V69.836C29.9142 69.404 29.8062 69.116 29.6262 68.936C29.4462 68.756 29.1402 68.666 28.7262 68.648V68.414C29.8782 68.342 30.8682 68.108 31.6962 67.712L31.8582 67.802V75.182C31.8582 75.776 31.9662 76.19 32.1822 76.424C32.3982 76.658 32.7042 76.766 33.1182 76.766V77H28.6542V76.766ZM43.4993 76.658C43.2113 76.334 43.0313 75.866 42.9593 75.272L42.9053 74.876C42.8333 75.272 42.6533 75.65 42.4013 75.992C42.1313 76.352 41.7893 76.64 41.3753 76.856C40.9433 77.072 40.4753 77.18 39.9533 77.18C39.1973 77.18 38.5673 76.964 38.0813 76.532C37.5953 76.1 37.3613 75.542 37.3613 74.858C37.3613 74.246 37.5593 73.742 37.9913 73.346C38.4233 72.95 39.0353 72.716 39.8273 72.644L42.5633 72.428L42.4373 71.51C42.3293 70.664 42.0773 69.998 41.6813 69.512C41.2853 69.044 40.7633 68.792 40.1153 68.792C39.5933 68.792 39.1433 68.954 38.7473 69.242C38.3513 69.53 38.0633 69.926 37.8653 70.412L37.6313 70.358C37.7393 69.926 37.9553 69.494 38.2793 69.08C38.6033 68.684 38.9993 68.342 39.4853 68.09C39.9713 67.838 40.5113 67.694 41.1053 67.694C42.0053 67.694 42.7433 67.982 43.3013 68.558C43.8593 69.134 44.2013 69.962 44.3453 71.024L44.8673 75.002C44.9573 75.686 45.1913 76.01 45.5873 76.01C45.6953 76.01 45.8033 75.974 45.8933 75.866C45.9833 75.776 46.0373 75.65 46.0733 75.488L46.2893 75.506C46.2533 75.938 46.1093 76.316 45.8213 76.64C45.5333 76.982 45.1553 77.144 44.6873 77.144C44.1833 77.144 43.7873 76.982 43.4993 76.658ZM39.6473 75.632C39.9533 75.956 40.3673 76.118 40.9073 76.118C41.4473 76.118 41.8973 75.956 42.2573 75.632C42.5993 75.308 42.7973 74.912 42.8513 74.462L42.5993 72.698L40.8353 72.842C40.2953 72.896 39.8813 73.076 39.5933 73.364C39.3053 73.652 39.1793 74.03 39.1793 74.462C39.1793 74.93 39.3233 75.308 39.6473 75.632ZM47.7172 76.352C47.2852 75.794 47.0692 75.074 47.0692 74.174V68.594H45.9352V68.342C46.6732 68.27 47.3032 68.018 47.8072 67.55C48.3112 67.082 48.6352 66.452 48.7792 65.642H49.0312V67.874H51.7132L51.4072 68.594H49.0312V73.976C49.0312 74.588 49.1572 75.092 49.4092 75.47C49.6612 75.866 50.0212 76.046 50.4712 76.046C50.8312 76.046 51.1192 75.938 51.3532 75.686C51.5872 75.434 51.7492 75.128 51.8392 74.75L52.0552 74.786C51.9652 75.47 51.6952 76.028 51.2632 76.496C50.8132 76.964 50.2732 77.18 49.6612 77.18C48.7972 77.18 48.1492 76.91 47.7172 76.352ZM53.7992 76.352C53.3672 75.794 53.1512 75.074 53.1512 74.174V68.594H52.0172V68.342C52.7552 68.27 53.3852 68.018 53.8892 67.55C54.3932 67.082 54.7172 66.452 54.8612 65.642H55.1132V67.874H57.7952L57.4892 68.594H55.1132V73.976C55.1132 74.588 55.2392 75.092 55.4912 75.47C55.7432 75.866 56.1032 76.046 56.5532 76.046C56.9132 76.046 57.2012 75.938 57.4352 75.686C57.6692 75.434 57.8312 75.128 57.9212 74.75L58.1372 74.786C58.0472 75.47 57.7772 76.028 57.3452 76.496C56.8952 76.964 56.3552 77.18 55.7432 77.18C54.8792 77.18 54.2312 76.91 53.7992 76.352ZM58.1151 76.766C58.5111 76.766 58.8171 76.658 59.0331 76.406C59.2491 76.172 59.3751 75.758 59.3751 75.182V69.836C59.3751 69.404 59.2851 69.116 59.1051 68.936C58.9251 68.756 58.6191 68.666 58.1871 68.648V68.414C59.3391 68.342 60.3291 68.108 61.1571 67.712L61.3191 67.802V69.764C61.4631 69.206 61.7331 68.72 62.1291 68.306C62.5251 67.91 62.9751 67.694 63.5151 67.694C63.9291 67.694 64.2711 67.838 64.5411 68.09C64.7931 68.36 64.9371 68.666 64.9371 69.008C64.9371 69.314 64.8291 69.566 64.6491 69.782C64.4691 69.998 64.2171 70.088 63.9111 70.088C63.6951 70.088 63.5331 70.052 63.4071 69.944C63.2811 69.854 63.1731 69.728 63.1011 69.584C63.0291 69.44 62.9571 69.296 62.9211 69.152C62.8491 69.008 62.7951 68.918 62.7411 68.846C62.6691 68.792 62.5971 68.756 62.4891 68.756C62.2011 68.756 61.9491 68.936 61.7331 69.26C61.5171 69.602 61.3731 69.998 61.3191 70.448V75.182C61.3191 75.758 61.4631 76.172 61.7511 76.406C62.0391 76.658 62.4351 76.766 62.9571 76.766V77H58.1151V76.766ZM71.1497 76.658C70.8617 76.334 70.6817 75.866 70.6097 75.272L70.5557 74.876C70.4837 75.272 70.3037 75.65 70.0517 75.992C69.7817 76.352 69.4397 76.64 69.0257 76.856C68.5937 77.072 68.1257 77.18 67.6037 77.18C66.8477 77.18 66.2177 76.964 65.7317 76.532C65.2457 76.1 65.0117 75.542 65.0117 74.858C65.0117 74.246 65.2097 73.742 65.6417 73.346C66.0737 72.95 66.6857 72.716 67.4777 72.644L70.2137 72.428L70.0877 71.51C69.9797 70.664 69.7277 69.998 69.3317 69.512C68.9357 69.044 68.4137 68.792 67.7657 68.792C67.2437 68.792 66.7937 68.954 66.3977 69.242C66.0017 69.53 65.7137 69.926 65.5157 70.412L65.2817 70.358C65.3897 69.926 65.6057 69.494 65.9297 69.08C66.2537 68.684 66.6497 68.342 67.1357 68.09C67.6217 67.838 68.1617 67.694 68.7557 67.694C69.6557 67.694 70.3937 67.982 70.9517 68.558C71.5097 69.134 71.8517 69.962 71.9957 71.024L72.5177 75.002C72.6077 75.686 72.8417 76.01 73.2377 76.01C73.3457 76.01 73.4537 75.974 73.5437 75.866C73.6337 75.776 73.6877 75.65 73.7237 75.488L73.9397 75.506C73.9037 75.938 73.7597 76.316 73.4717 76.64C73.1837 76.982 72.8057 77.144 72.3377 77.144C71.8337 77.144 71.4377 76.982 71.1497 76.658ZM67.2977 75.632C67.6037 75.956 68.0177 76.118 68.5577 76.118C69.0977 76.118 69.5477 75.956 69.9077 75.632C70.2497 75.308 70.4477 74.912 70.5017 74.462L70.2497 72.698L68.4857 72.842C67.9457 72.896 67.5317 73.076 67.2437 73.364C66.9557 73.652 66.8297 74.03 66.8297 74.462C66.8297 74.93 66.9737 75.308 67.2977 75.632ZM75.8457 76.28C75.3417 75.686 74.9817 74.768 74.7837 73.526L74.1537 69.674C74.0457 69.098 73.8837 68.702 73.6497 68.468C73.3977 68.234 73.0917 68.108 72.6957 68.108V67.874H77.0877V68.108C76.3857 68.108 76.0437 68.468 76.0437 69.188C76.0437 69.404 76.0437 69.566 76.0797 69.674L76.6197 72.986C76.7637 73.958 77.0157 74.696 77.3577 75.182C77.6817 75.686 78.1677 75.92 78.8157 75.92C79.2837 75.92 79.7337 75.758 80.1837 75.398C80.6337 75.038 80.9937 74.57 81.2817 73.958C81.5517 73.364 81.6957 72.716 81.6957 71.996C81.6957 71.204 81.5337 70.556 81.2277 70.088C80.9217 69.62 80.5077 69.368 79.9857 69.368C79.7337 69.368 79.4817 69.422 79.2657 69.512C79.1577 69.566 79.0317 69.584 78.8877 69.584C78.6357 69.584 78.4197 69.512 78.2397 69.332C78.0597 69.152 77.9877 68.936 77.9877 68.648C77.9877 68.396 78.0777 68.162 78.2577 67.982C78.4377 67.802 78.6897 67.712 79.0497 67.712C79.5537 67.712 80.0217 67.874 80.4717 68.162C80.9217 68.45 81.2817 68.9 81.5697 69.494C81.8577 70.106 82.0017 70.844 82.0017 71.708C82.0017 72.698 81.8037 73.616 81.4257 74.444C81.0297 75.29 80.5257 75.956 79.8957 76.442C79.2657 76.946 78.5997 77.18 77.8977 77.18C77.0337 77.18 76.3497 76.892 75.8457 76.28ZM84.959 76.55C84.329 76.136 83.843 75.56 83.501 74.84C83.141 74.12 82.979 73.346 82.979 72.482C82.979 71.582 83.159 70.772 83.555 70.052C83.951 69.332 84.473 68.756 85.157 68.324C85.823 67.91 86.561 67.694 87.353 67.694C88.037 67.694 88.649 67.856 89.153 68.162C89.657 68.486 90.053 68.9 90.323 69.422C90.593 69.962 90.737 70.538 90.737 71.15H84.887C84.869 71.222 84.869 71.33 84.869 71.456C84.869 72.302 84.995 73.04 85.265 73.688C85.517 74.336 85.895 74.84 86.381 75.2C86.867 75.56 87.443 75.722 88.091 75.722C88.811 75.722 89.423 75.506 89.927 75.074C90.431 74.642 90.755 74.084 90.899 73.364L91.151 73.4C91.043 74.12 90.791 74.768 90.431 75.344C90.071 75.92 89.603 76.37 89.027 76.694C88.451 77.018 87.821 77.18 87.137 77.18C86.309 77.18 85.589 76.982 84.959 76.55ZM88.055 70.844C88.307 70.844 88.505 70.79 88.613 70.664C88.721 70.538 88.793 70.322 88.793 70.034C88.793 69.53 88.649 69.062 88.397 68.63C88.127 68.198 87.731 67.964 87.209 67.964C86.669 67.964 86.165 68.252 85.733 68.81C85.283 69.386 85.013 70.052 84.905 70.844H88.055ZM91.0741 76.766C91.4701 76.766 91.7761 76.658 91.9921 76.406C92.2081 76.172 92.3341 75.758 92.3341 75.182V69.836C92.3341 69.404 92.2441 69.116 92.0641 68.936C91.8841 68.756 91.5781 68.666 91.1461 68.648V68.414C92.2981 68.342 93.2881 68.108 94.1161 67.712L94.2781 67.802V69.764C94.4221 69.206 94.6921 68.72 95.0881 68.306C95.4841 67.91 95.9341 67.694 96.4741 67.694C96.8881 67.694 97.2301 67.838 97.5001 68.09C97.7521 68.36 97.8961 68.666 97.8961 69.008C97.8961 69.314 97.7881 69.566 97.6081 69.782C97.4281 69.998 97.1761 70.088 96.8701 70.088C96.6541 70.088 96.4921 70.052 96.3661 69.944C96.2401 69.854 96.1321 69.728 96.0601 69.584C95.9881 69.44 95.9161 69.296 95.8801 69.152C95.8081 69.008 95.7541 68.918 95.7001 68.846C95.6281 68.792 95.5561 68.756 95.4481 68.756C95.1601 68.756 94.9081 68.936 94.6921 69.26C94.4761 69.602 94.3321 69.998 94.2781 70.448V75.182C94.2781 75.758 94.4221 76.172 94.7101 76.406C94.9981 76.658 95.3941 76.766 95.9161 76.766V77H91.0741V76.766ZM98.236 73.418L98.47 73.364C98.758 74.282 99.172 75.092 99.712 75.794C100.252 76.514 100.954 76.874 101.854 76.874C102.412 76.874 102.862 76.73 103.186 76.442C103.51 76.154 103.69 75.776 103.708 75.326C103.708 74.894 103.546 74.516 103.24 74.228C102.916 73.94 102.412 73.67 101.692 73.418L100.612 72.986C99.856 72.698 99.298 72.356 98.902 71.924C98.506 71.492 98.326 70.952 98.326 70.304C98.326 69.836 98.452 69.386 98.74 68.99C99.01 68.594 99.388 68.288 99.874 68.054C100.36 67.838 100.9 67.712 101.476 67.712C101.944 67.712 102.484 67.82 103.078 68.018C103.402 68.126 103.618 68.162 103.726 68.162C103.978 68.162 104.176 67.982 104.284 67.604L104.536 67.586L104.77 71.114L104.518 71.15C104.374 70.682 104.158 70.214 103.87 69.728C103.582 69.242 103.222 68.828 102.808 68.486C102.376 68.162 101.926 67.982 101.44 67.982C100.954 67.982 100.558 68.126 100.27 68.414C99.982 68.702 99.838 69.062 99.838 69.458C99.838 69.854 99.982 70.214 100.288 70.502C100.594 70.79 101.08 71.06 101.728 71.276L102.79 71.708C103.6 72.014 104.194 72.374 104.59 72.788C104.986 73.202 105.184 73.706 105.184 74.3C105.184 74.894 105.022 75.398 104.734 75.83C104.428 76.262 104.032 76.604 103.546 76.82C103.06 77.054 102.538 77.162 101.98 77.162C101.656 77.162 101.35 77.144 101.098 77.09C100.828 77.036 100.522 76.964 100.18 76.856C99.802 76.748 99.55 76.694 99.424 76.694C99.28 76.694 99.154 76.748 99.064 76.82C98.974 76.892 98.884 77.018 98.812 77.198L98.542 77.216L98.236 73.418ZM108.274 76.55C107.572 76.136 107.014 75.56 106.618 74.822C106.204 74.102 106.006 73.292 106.006 72.392C106.006 71.474 106.204 70.664 106.618 69.944C107.014 69.224 107.572 68.684 108.274 68.288C108.958 67.892 109.714 67.694 110.542 67.694C111.37 67.694 112.126 67.91 112.81 68.306C113.494 68.72 114.052 69.278 114.466 69.998C114.862 70.718 115.078 71.528 115.078 72.428C115.078 73.346 114.88 74.174 114.484 74.894C114.088 75.614 113.53 76.19 112.846 76.586C112.162 76.982 111.406 77.18 110.578 77.18C109.732 77.18 108.958 76.982 108.274 76.55ZM109.102 75.722C109.606 76.478 110.218 76.838 110.902 76.838C111.586 76.838 112.108 76.514 112.486 75.848C112.846 75.2 113.044 74.336 113.044 73.274C113.044 72.932 113.008 72.5 112.954 71.996C112.792 70.808 112.468 69.854 111.964 69.134C111.46 68.414 110.884 68.036 110.218 68.036C109.516 68.036 108.976 68.378 108.598 69.044C108.22 69.728 108.04 70.592 108.04 71.636C108.04 72.068 108.058 72.446 108.112 72.788C108.256 73.994 108.598 74.966 109.102 75.722ZM120.421 65.966C120.187 65.714 120.079 65.408 120.079 65.012C120.079 64.652 120.187 64.364 120.421 64.13C120.655 63.896 120.961 63.77 121.339 63.77C121.717 63.77 122.023 63.896 122.257 64.13C122.491 64.364 122.617 64.652 122.617 65.012C122.617 65.408 122.491 65.714 122.257 65.966C122.023 66.218 121.717 66.326 121.339 66.326C120.961 66.326 120.655 66.218 120.421 65.966ZM119.269 76.766C119.665 76.766 119.971 76.658 120.187 76.406C120.403 76.172 120.529 75.758 120.529 75.182V69.836C120.529 69.404 120.421 69.116 120.241 68.936C120.061 68.756 119.755 68.666 119.341 68.648V68.414C120.493 68.342 121.483 68.108 122.311 67.712L122.473 67.802V75.182C122.473 75.776 122.581 76.19 122.797 76.424C123.013 76.658 123.319 76.766 123.733 76.766V77H119.269V76.766ZM123.752 76.766C124.148 76.766 124.454 76.658 124.67 76.406C124.886 76.172 125.012 75.758 125.012 75.182L125.066 65.822C125.066 65.39 124.958 65.084 124.778 64.904C124.598 64.724 124.292 64.634 123.878 64.634V64.4C125.03 64.328 126.02 64.094 126.848 63.698L127.01 63.788V75.182C127.01 75.758 127.118 76.172 127.334 76.406C127.55 76.658 127.874 76.766 128.27 76.766V77H123.752V76.766ZM139.533 75.272C139.245 75.848 138.867 76.316 138.435 76.658C137.985 77.018 137.481 77.18 136.923 77.18C136.059 77.18 135.375 76.892 134.871 76.28C134.367 75.686 134.007 74.768 133.809 73.526L133.161 69.674C133.053 69.098 132.891 68.702 132.657 68.468C132.405 68.234 132.099 68.108 131.703 68.108V67.874H136.059V68.108C135.393 68.108 135.069 68.468 135.069 69.17C135.069 69.386 135.069 69.566 135.105 69.674L135.627 72.986C135.789 73.958 136.041 74.678 136.365 75.146C136.689 75.632 137.175 75.866 137.805 75.866C138.417 75.866 138.975 75.596 139.443 75.02C139.281 74.588 139.155 74.102 139.065 73.526L138.417 69.674C138.309 69.098 138.147 68.702 137.931 68.468C137.697 68.234 137.391 68.108 137.031 68.108V67.874H141.315V68.108C140.649 68.108 140.325 68.468 140.325 69.188C140.325 69.404 140.325 69.566 140.361 69.674L140.901 72.986C141.045 73.958 141.297 74.696 141.639 75.164C141.963 75.632 142.449 75.866 143.061 75.866C143.565 75.866 144.051 75.704 144.501 75.362C144.951 75.038 145.311 74.57 145.599 73.994C145.869 73.418 146.013 72.77 146.013 72.086C146.013 71.294 145.851 70.628 145.527 70.124C145.203 69.62 144.789 69.368 144.249 69.368C144.033 69.368 143.781 69.422 143.529 69.512C143.421 69.566 143.277 69.584 143.133 69.584C142.881 69.584 142.665 69.512 142.485 69.332C142.305 69.17 142.233 68.954 142.233 68.684C142.233 68.396 142.323 68.162 142.503 67.982C142.683 67.802 142.935 67.712 143.295 67.712C143.799 67.712 144.285 67.874 144.753 68.162C145.221 68.45 145.599 68.9 145.887 69.494C146.175 70.106 146.337 70.844 146.337 71.708C146.337 72.698 146.139 73.616 145.761 74.444C145.383 75.29 144.879 75.956 144.249 76.442C143.619 76.946 142.953 77.18 142.251 77.18C140.973 77.18 140.073 76.55 139.533 75.272ZM149.313 76.55C148.683 76.136 148.197 75.56 147.855 74.84C147.495 74.12 147.333 73.346 147.333 72.482C147.333 71.582 147.513 70.772 147.909 70.052C148.305 69.332 148.827 68.756 149.511 68.324C150.177 67.91 150.915 67.694 151.707 67.694C152.391 67.694 153.003 67.856 153.507 68.162C154.011 68.486 154.407 68.9 154.677 69.422C154.947 69.962 155.091 70.538 155.091 71.15H149.241C149.223 71.222 149.223 71.33 149.223 71.456C149.223 72.302 149.349 73.04 149.619 73.688C149.871 74.336 150.249 74.84 150.735 75.2C151.221 75.56 151.797 75.722 152.445 75.722C153.165 75.722 153.777 75.506 154.281 75.074C154.785 74.642 155.109 74.084 155.253 73.364L155.505 73.4C155.397 74.12 155.145 74.768 154.785 75.344C154.425 75.92 153.957 76.37 153.381 76.694C152.805 77.018 152.175 77.18 151.491 77.18C150.663 77.18 149.943 76.982 149.313 76.55ZM152.409 70.844C152.661 70.844 152.859 70.79 152.967 70.664C153.075 70.538 153.147 70.322 153.147 70.034C153.147 69.53 153.003 69.062 152.751 68.63C152.481 68.198 152.085 67.964 151.563 67.964C151.023 67.964 150.519 68.252 150.087 68.81C149.637 69.386 149.367 70.052 149.259 70.844H152.409ZM158.361 76.856C157.695 76.64 157.101 76.352 156.561 75.992V65.822C156.561 65.39 156.453 65.084 156.273 64.904C156.093 64.724 155.787 64.634 155.373 64.634V64.4C156.525 64.328 157.515 64.094 158.343 63.698L158.505 63.788V69.89C158.667 69.332 159.009 68.828 159.531 68.396C160.035 67.964 160.647 67.73 161.349 67.73C162.051 67.73 162.681 67.946 163.239 68.378C163.779 68.81 164.211 69.368 164.517 70.07C164.805 70.79 164.967 71.546 164.967 72.356C164.967 73.292 164.769 74.138 164.373 74.858C163.977 75.596 163.419 76.172 162.735 76.568C162.051 76.982 161.277 77.18 160.449 77.18C159.729 77.18 159.027 77.072 158.361 76.856ZM159.009 76.01C159.351 76.622 159.873 76.91 160.557 76.91C161.277 76.91 161.871 76.55 162.303 75.812C162.735 75.092 162.951 74.138 162.951 72.968C162.951 72.104 162.825 71.348 162.609 70.7C162.393 70.07 162.087 69.584 161.709 69.26C161.313 68.936 160.881 68.756 160.395 68.756C159.927 68.756 159.531 68.936 159.189 69.26C158.829 69.584 158.613 69.998 158.505 70.502V73.166C158.505 74.462 158.667 75.398 159.009 76.01Z" fill="#1A1A1A"/>
</svg>
