<svg viewBox="0 0 293 78" fill="none" xmlns="http://www.w3.org/2000/svg">
<path d="M14.2571 20.636C15.0131 20.636 15.7411 20.356 16.4131 19.74C17.0851 19.152 17.6451 18.2 18.1211 16.912L21.8171 6.72C22.1531 5.768 22.3211 5.012 22.3211 4.424C22.3211 3.22 21.6491 2.604 20.3051 2.604V2.212C20.9771 2.212 21.7051 2.1 22.4331 1.876C23.1611 1.652 23.8611 1.316 24.4771 0.895998L24.8411 1.036L31.1411 18.284C31.4491 19.18 31.8131 19.796 32.2611 20.132C32.6811 20.468 33.2131 20.636 33.8291 20.636V21H26.3251V20.636C27.4171 20.636 27.9771 20.216 27.9771 19.376C27.9771 19.04 27.8931 18.676 27.7531 18.284L26.5771 14.952H19.5211L18.8211 16.912C18.5971 17.556 18.4851 18.116 18.4851 18.592C18.4851 19.292 18.6811 19.796 19.1291 20.132C19.5491 20.468 20.1371 20.636 20.8931 20.636V21H14.2571V20.636ZM26.4091 14.476L23.0771 5.068L19.6891 14.476H26.4091ZM32.7253 26.236C33.3413 26.236 33.8173 26.068 34.1533 25.676C34.4893 25.312 34.6853 24.668 34.6853 23.772V9.856C34.6853 9.184 34.5173 8.736 34.2373 8.456C33.9573 8.176 33.4813 8.036 32.8373 8.008V7.644C34.6293 7.532 36.1693 7.168 37.4573 6.552L37.7093 6.692V9.604C37.9613 8.876 38.4933 8.176 39.3053 7.532C40.1173 6.916 41.0973 6.58 42.2173 6.58C43.2813 6.58 44.2613 6.916 45.1293 7.532C45.9973 8.176 46.6693 9.044 47.1733 10.136C47.6773 11.256 47.9293 12.46 47.9293 13.804C47.9293 15.176 47.6213 16.436 47.0613 17.584C46.4733 18.732 45.6893 19.628 44.6813 20.3C43.6733 20.972 42.5533 21.28 41.3773 21.28C39.8933 21.28 38.6613 20.748 37.7093 19.628V23.772C37.7093 24.696 37.9053 25.34 38.3253 25.704C38.7173 26.068 39.3053 26.236 40.0613 26.236V26.6H32.7253V26.236ZM38.6333 19.208C39.2493 20.244 40.0893 20.748 41.1533 20.748C41.8253 20.748 42.4413 20.524 43.0013 20.02C43.5613 19.516 43.9813 18.816 44.2893 17.92C44.5973 17.024 44.7653 16.016 44.7653 14.84C44.7653 13.44 44.5693 12.236 44.2053 11.228C43.8413 10.22 43.3373 9.464 42.7213 8.932C42.1053 8.428 41.4053 8.148 40.6493 8.148C39.9213 8.148 39.3333 8.372 38.8293 8.82C38.3253 9.268 37.9333 9.828 37.7093 10.5V15.344C37.7093 16.912 38.0173 18.2 38.6333 19.208ZM49.8604 3.836C49.4964 3.444 49.3284 2.968 49.3284 2.352C49.3284 1.792 49.4964 1.344 49.8604 0.979999C50.2244 0.615999 50.7004 0.42 51.2884 0.42C51.8764 0.42 52.3524 0.615999 52.7164 0.979999C53.0804 1.344 53.2764 1.792 53.2764 2.352C53.2764 2.968 53.0804 3.444 52.7164 3.836C52.3524 4.228 51.8764 4.396 51.2884 4.396C50.7004 4.396 50.2244 4.228 49.8604 3.836ZM48.0684 20.636C48.6844 20.636 49.1604 20.468 49.4964 20.076C49.8324 19.712 50.0284 19.068 50.0284 18.172V9.856C50.0284 9.184 49.8604 8.736 49.5804 8.456C49.3004 8.176 48.8244 8.036 48.1804 8.008V7.644C49.9724 7.532 51.5124 7.168 52.8004 6.552L53.0524 6.692V18.172C53.0524 19.096 53.2204 19.74 53.5564 20.104C53.8924 20.468 54.3684 20.636 55.0124 20.636V21H48.0684V20.636ZM58.106 23.38C58.554 22.876 58.806 22.372 58.806 21.868C58.806 21.588 58.722 21.392 58.582 21.252C58.414 21.112 58.19 20.944 57.882 20.776C57.462 20.58 57.154 20.356 56.958 20.132C56.734 19.908 56.65 19.544 56.65 19.04C56.65 18.536 56.818 18.116 57.182 17.78C57.518 17.444 57.938 17.248 58.442 17.248C59.058 17.248 59.534 17.5 59.926 18.004C60.29 18.508 60.486 19.124 60.486 19.852C60.486 21.084 60.066 22.12 59.282 23.016C58.498 23.912 57.574 24.556 56.566 24.892L56.426 24.528C57.07 24.276 57.63 23.884 58.106 23.38ZM72.729 20.02C71.161 19.152 69.929 17.948 69.033 16.408C68.137 14.896 67.717 13.16 67.717 11.228C67.717 9.38 68.137 7.7 69.005 6.132C69.845 4.592 71.049 3.36 72.617 2.436C74.157 1.54 75.949 1.064 77.965 1.064C78.777 1.064 79.505 1.148 80.177 1.316C80.849 1.484 81.381 1.624 81.773 1.764C82.165 1.904 82.445 1.988 82.557 2.016C82.977 2.156 83.285 2.212 83.453 2.212C83.733 2.212 83.985 2.128 84.209 1.904C84.433 1.708 84.573 1.428 84.629 1.064L85.021 1.036L85.553 8.568L85.189 8.624C84.909 7.364 84.377 6.188 83.649 5.096C82.893 4.032 82.025 3.164 81.017 2.52C80.009 1.876 78.973 1.54 77.937 1.54C76.677 1.54 75.529 1.932 74.521 2.688C73.485 3.472 72.673 4.536 72.057 5.88C71.441 7.252 71.161 8.792 71.161 10.5C71.161 12.292 71.469 13.972 72.085 15.54C72.701 17.136 73.541 18.424 74.661 19.376C75.753 20.356 77.013 20.832 78.441 20.832C79.561 20.832 80.569 20.468 81.409 19.74C82.249 19.012 82.669 17.864 82.669 16.324V15.12C82.669 14.224 82.417 13.58 81.969 13.188C81.493 12.824 80.821 12.628 79.953 12.628V12.264L87.121 12.292V12.656C86.673 12.656 86.309 12.852 86.085 13.216C85.861 13.58 85.749 14.224 85.749 15.12V17.892C85.749 18.032 85.721 18.144 85.665 18.2C85.609 18.284 85.525 18.396 85.357 18.564C84.461 19.404 83.425 20.076 82.193 20.58C80.961 21.084 79.617 21.308 78.105 21.308C76.089 21.308 74.297 20.888 72.729 20.02ZM87.17 20.636C87.786 20.636 88.262 20.468 88.598 20.076C88.934 19.712 89.13 19.068 89.13 18.172L89.214 3.612C89.214 2.94 89.046 2.464 88.766 2.184C88.486 1.904 88.01 1.764 87.366 1.764V1.4C89.158 1.288 90.698 0.924 91.986 0.307999L92.238 0.447999V18.172C92.238 19.068 92.406 19.712 92.742 20.076C93.078 20.468 93.582 20.636 94.198 20.636V21H87.17V20.636ZM96.2901 3.836C95.9261 3.444 95.7581 2.968 95.7581 2.352C95.7581 1.792 95.9261 1.344 96.2901 0.979999C96.6541 0.615999 97.1301 0.42 97.7181 0.42C98.3061 0.42 98.7821 0.615999 99.1461 0.979999C99.5101 1.344 99.7061 1.792 99.7061 2.352C99.7061 2.968 99.5101 3.444 99.1461 3.836C98.7821 4.228 98.3061 4.396 97.7181 4.396C97.1301 4.396 96.6541 4.228 96.2901 3.836ZM94.4981 20.636C95.1141 20.636 95.5901 20.468 95.9261 20.076C96.2621 19.712 96.4581 19.068 96.4581 18.172V9.856C96.4581 9.184 96.2901 8.736 96.0101 8.456C95.7301 8.176 95.2541 8.036 94.6101 8.008V7.644C96.4021 7.532 97.9421 7.168 99.2301 6.552L99.4821 6.692V18.172C99.4821 19.096 99.6501 19.74 99.9861 20.104C100.322 20.468 100.798 20.636 101.442 20.636V21H94.4981V20.636ZM104.842 20.356C103.834 19.74 103.022 18.872 102.434 17.78C101.846 16.688 101.566 15.456 101.566 14.084C101.566 12.712 101.874 11.452 102.518 10.276C103.134 9.128 104.002 8.204 105.094 7.532C106.158 6.86 107.334 6.524 108.622 6.524C109.574 6.524 110.414 6.72 111.17 7.112C111.898 7.504 112.486 8.036 112.906 8.652C113.326 9.268 113.55 9.94 113.55 10.612C113.55 11.172 113.382 11.62 113.074 11.928C112.766 12.264 112.402 12.404 111.954 12.404C111.506 12.404 111.17 12.264 110.918 11.984C110.638 11.704 110.526 11.368 110.526 10.92C110.526 10.696 110.61 10.36 110.778 9.94C110.946 9.576 111.03 9.24 111.03 8.96C111.03 8.428 110.806 7.952 110.358 7.56C109.91 7.168 109.378 6.972 108.706 6.972C107.894 6.972 107.166 7.252 106.494 7.756C105.822 8.26 105.29 8.988 104.898 9.884C104.506 10.808 104.31 11.816 104.31 12.936C104.31 14.168 104.534 15.232 105.038 16.128C105.514 17.052 106.158 17.752 106.942 18.256C107.726 18.76 108.594 18.984 109.546 18.984C110.666 18.984 111.646 18.648 112.458 17.976C113.27 17.304 113.774 16.408 113.998 15.344L114.362 15.4C114.082 17.136 113.41 18.536 112.318 19.628C111.226 20.748 109.854 21.28 108.174 21.28C106.942 21.28 105.85 20.972 104.842 20.356ZM116.005 3.836C115.641 3.444 115.473 2.968 115.473 2.352C115.473 1.792 115.641 1.344 116.005 0.979999C116.369 0.615999 116.845 0.42 117.433 0.42C118.021 0.42 118.497 0.615999 118.861 0.979999C119.225 1.344 119.421 1.792 119.421 2.352C119.421 2.968 119.225 3.444 118.861 3.836C118.497 4.228 118.021 4.396 117.433 4.396C116.845 4.396 116.369 4.228 116.005 3.836ZM114.213 20.636C114.829 20.636 115.305 20.468 115.641 20.076C115.977 19.712 116.173 19.068 116.173 18.172V9.856C116.173 9.184 116.005 8.736 115.725 8.456C115.445 8.176 114.969 8.036 114.325 8.008V7.644C116.117 7.532 117.657 7.168 118.945 6.552L119.197 6.692V18.172C119.197 19.096 119.365 19.74 119.701 20.104C120.037 20.468 120.513 20.636 121.157 20.636V21H114.213V20.636ZM130.896 20.636C131.512 20.636 132.016 20.496 132.38 20.216C132.744 19.936 132.94 19.46 132.94 18.76C132.94 18.536 132.912 18.34 132.912 18.2L132.044 11.788C131.708 9.408 130.728 8.204 129.132 8.204C128.404 8.204 127.76 8.512 127.256 9.1C126.752 9.716 126.444 10.416 126.388 11.256V18.172C126.388 19.096 126.556 19.74 126.892 20.104C127.228 20.468 127.704 20.636 128.348 20.636V21H121.404V20.636C122.02 20.636 122.496 20.468 122.832 20.076C123.168 19.712 123.364 19.068 123.364 18.172V9.856C123.364 9.184 123.196 8.736 122.916 8.456C122.636 8.176 122.16 8.036 121.516 8.008V7.644C123.308 7.532 124.848 7.168 126.136 6.552L126.388 6.692V10.052C126.64 9.044 127.144 8.204 127.9 7.532C128.656 6.86 129.552 6.524 130.616 6.524C131.82 6.524 132.8 6.972 133.584 7.812C134.34 8.652 134.844 9.968 135.096 11.704L136.048 18.2C136.16 19.096 136.384 19.74 136.748 20.104C137.084 20.468 137.56 20.636 138.176 20.636V21H130.896V20.636ZM140.013 3.836C139.649 3.444 139.481 2.968 139.481 2.352C139.481 1.792 139.649 1.344 140.013 0.979999C140.377 0.615999 140.853 0.42 141.441 0.42C142.029 0.42 142.505 0.615999 142.869 0.979999C143.233 1.344 143.429 1.792 143.429 2.352C143.429 2.968 143.233 3.444 142.869 3.836C142.505 4.228 142.029 4.396 141.441 4.396C140.853 4.396 140.377 4.228 140.013 3.836ZM138.221 20.636C138.837 20.636 139.313 20.468 139.649 20.076C139.985 19.712 140.181 19.068 140.181 18.172V9.856C140.181 9.184 140.013 8.736 139.733 8.456C139.453 8.176 138.977 8.036 138.333 8.008V7.644C140.125 7.532 141.665 7.168 142.953 6.552L143.205 6.692V18.172C143.205 19.096 143.373 19.74 143.709 20.104C144.045 20.468 144.521 20.636 145.165 20.636V21H138.221V20.636ZM148.258 23.38C148.706 22.876 148.958 22.372 148.958 21.868C148.958 21.588 148.874 21.392 148.734 21.252C148.566 21.112 148.342 20.944 148.034 20.776C147.614 20.58 147.306 20.356 147.11 20.132C146.886 19.908 146.802 19.544 146.802 19.04C146.802 18.536 146.97 18.116 147.334 17.78C147.67 17.444 148.09 17.248 148.594 17.248C149.21 17.248 149.686 17.5 150.078 18.004C150.442 18.508 150.638 19.124 150.638 19.852C150.638 21.084 150.218 22.12 149.434 23.016C148.65 23.912 147.726 24.556 146.718 24.892L146.578 24.528C147.222 24.276 147.782 23.884 148.258 23.38ZM162.573 19.992C161.117 19.096 159.969 17.892 159.129 16.38C158.289 14.868 157.869 13.188 157.869 11.34C157.869 9.492 158.289 7.756 159.129 6.188C159.969 4.62 161.145 3.388 162.629 2.464C164.085 1.54 165.709 1.064 167.501 1.064C168.285 1.064 169.013 1.148 169.657 1.316C170.273 1.484 170.917 1.708 171.589 1.988C171.869 2.128 172.149 2.24 172.429 2.324C172.709 2.408 172.961 2.436 173.185 2.436C173.493 2.436 173.773 2.352 173.997 2.156C174.221 1.988 174.333 1.708 174.389 1.316L174.781 1.288L175.369 8.764L174.977 8.82C174.697 7.504 174.193 6.3 173.437 5.18C172.681 4.06 171.785 3.192 170.721 2.52C169.657 1.876 168.565 1.54 167.417 1.54C166.157 1.54 165.009 1.904 164.001 2.632C162.993 3.36 162.181 4.34 161.593 5.572C160.977 6.804 160.697 8.176 160.697 9.688C160.697 11.452 161.033 13.048 161.761 14.448C162.489 15.848 163.469 16.94 164.729 17.724C165.961 18.508 167.361 18.9 168.929 18.9C170.637 18.9 172.093 18.424 173.269 17.472C174.445 16.52 175.313 15.288 175.845 13.776L176.181 13.86C175.901 15.26 175.397 16.52 174.613 17.64C173.829 18.76 172.821 19.656 171.589 20.328C170.357 21 169.013 21.308 167.529 21.308C165.681 21.308 164.029 20.888 162.573 19.992ZM180.415 20.3C179.435 19.656 178.679 18.76 178.147 17.64C177.587 16.52 177.335 15.316 177.335 13.972C177.335 12.572 177.615 11.312 178.231 10.192C178.847 9.072 179.659 8.176 180.723 7.504C181.759 6.86 182.907 6.524 184.139 6.524C185.203 6.524 186.155 6.776 186.939 7.252C187.723 7.756 188.339 8.4 188.759 9.212C189.179 10.052 189.403 10.948 189.403 11.9H180.303C180.275 12.012 180.275 12.18 180.275 12.376C180.275 13.692 180.471 14.84 180.891 15.848C181.283 16.856 181.871 17.64 182.627 18.2C183.383 18.76 184.279 19.012 185.287 19.012C186.407 19.012 187.359 18.676 188.143 18.004C188.927 17.332 189.431 16.464 189.655 15.344L190.047 15.4C189.879 16.52 189.487 17.528 188.927 18.424C188.367 19.32 187.639 20.02 186.743 20.524C185.847 21.028 184.867 21.28 183.803 21.28C182.515 21.28 181.395 20.972 180.415 20.3ZM185.231 11.424C185.623 11.424 185.931 11.34 186.099 11.144C186.267 10.948 186.379 10.612 186.379 10.164C186.379 9.38 186.155 8.652 185.763 7.98C185.343 7.308 184.727 6.944 183.915 6.944C183.075 6.944 182.291 7.392 181.619 8.26C180.919 9.156 180.499 10.192 180.331 11.424H185.231ZM208.156 20.636C208.828 20.636 209.332 20.496 209.724 20.216C210.088 19.936 210.284 19.46 210.284 18.76C210.284 18.536 210.256 18.34 210.256 18.2L209.36 11.788C209.024 9.408 208.044 8.204 206.448 8.204C205.664 8.204 205.02 8.484 204.544 9.016C204.068 9.548 203.788 10.22 203.676 11.004C203.704 11.396 203.732 11.676 203.732 11.9V18.172C203.732 19.068 203.9 19.712 204.236 20.076C204.572 20.468 205.076 20.636 205.692 20.636V21H198.86V20.636C199.448 20.636 199.896 20.468 200.232 20.104C200.568 19.74 200.736 19.096 200.736 18.172V12.376C200.736 11.032 200.456 9.996 199.952 9.268C199.448 8.54 198.72 8.176 197.796 8.176C197.04 8.176 196.396 8.456 195.864 8.96C195.304 9.492 194.996 10.108 194.912 10.808V18.172C194.912 19.096 195.052 19.74 195.388 20.104C195.724 20.468 196.172 20.636 196.788 20.636V21H189.928V20.636C190.544 20.636 191.02 20.468 191.356 20.076C191.692 19.712 191.888 19.068 191.888 18.172V9.856C191.888 9.184 191.72 8.736 191.44 8.456C191.16 8.176 190.684 8.036 190.04 8.008V7.644C191.832 7.532 193.372 7.168 194.66 6.552L194.912 6.692V9.688C195.192 8.82 195.724 8.064 196.508 7.448C197.264 6.832 198.132 6.524 199.14 6.524C200.204 6.524 201.128 6.86 201.912 7.476C202.696 8.092 203.256 8.988 203.536 10.108C203.76 9.1 204.264 8.26 205.048 7.56C205.804 6.888 206.728 6.524 207.82 6.524C210.368 6.524 211.908 8.26 212.412 11.704L213.364 18.2C213.476 19.096 213.728 19.74 214.12 20.104C214.484 20.468 214.988 20.636 215.604 20.636V21H208.156V20.636ZM218.259 20.3C217.279 19.656 216.523 18.76 215.991 17.64C215.431 16.52 215.179 15.316 215.179 13.972C215.179 12.572 215.459 11.312 216.075 10.192C216.691 9.072 217.503 8.176 218.567 7.504C219.603 6.86 220.751 6.524 221.983 6.524C223.047 6.524 223.999 6.776 224.783 7.252C225.567 7.756 226.183 8.4 226.603 9.212C227.023 10.052 227.247 10.948 227.247 11.9H218.147C218.119 12.012 218.119 12.18 218.119 12.376C218.119 13.692 218.315 14.84 218.735 15.848C219.127 16.856 219.715 17.64 220.471 18.2C221.227 18.76 222.123 19.012 223.131 19.012C224.251 19.012 225.203 18.676 225.987 18.004C226.771 17.332 227.275 16.464 227.499 15.344L227.891 15.4C227.723 16.52 227.331 17.528 226.771 18.424C226.211 19.32 225.483 20.02 224.587 20.524C223.691 21.028 222.711 21.28 221.647 21.28C220.359 21.28 219.239 20.972 218.259 20.3ZM223.075 11.424C223.467 11.424 223.775 11.34 223.943 11.144C224.111 10.948 224.223 10.612 224.223 10.164C224.223 9.38 223.999 8.652 223.607 7.98C223.187 7.308 222.571 6.944 221.759 6.944C220.919 6.944 220.135 7.392 219.463 8.26C218.763 9.156 218.343 10.192 218.175 11.424H223.075ZM237.264 20.636C237.88 20.636 238.384 20.496 238.748 20.216C239.112 19.936 239.308 19.46 239.308 18.76C239.308 18.536 239.28 18.34 239.28 18.2L238.412 11.788C238.076 9.408 237.096 8.204 235.5 8.204C234.772 8.204 234.128 8.512 233.624 9.1C233.12 9.716 232.812 10.416 232.756 11.256V18.172C232.756 19.096 232.924 19.74 233.26 20.104C233.596 20.468 234.072 20.636 234.716 20.636V21H227.772V20.636C228.388 20.636 228.864 20.468 229.2 20.076C229.536 19.712 229.732 19.068 229.732 18.172V9.856C229.732 9.184 229.564 8.736 229.284 8.456C229.004 8.176 228.528 8.036 227.884 8.008V7.644C229.676 7.532 231.216 7.168 232.504 6.552L232.756 6.692V10.052C233.008 9.044 233.512 8.204 234.268 7.532C235.024 6.86 235.92 6.524 236.984 6.524C238.188 6.524 239.168 6.972 239.952 7.812C240.708 8.652 241.212 9.968 241.464 11.704L242.416 18.2C242.528 19.096 242.752 19.74 243.116 20.104C243.452 20.468 243.928 20.636 244.544 20.636V21H237.264V20.636ZM246.241 19.992C245.569 19.124 245.233 18.004 245.233 16.604V7.924H243.469V7.532C244.617 7.42 245.597 7.028 246.381 6.3C247.165 5.572 247.669 4.592 247.893 3.332H248.285V6.804H252.457L251.981 7.924H248.285V16.296C248.285 17.248 248.481 18.032 248.873 18.62C249.265 19.236 249.825 19.516 250.525 19.516C251.085 19.516 251.533 19.348 251.897 18.956C252.261 18.564 252.513 18.088 252.653 17.5L252.989 17.556C252.849 18.62 252.429 19.488 251.757 20.216C251.057 20.944 250.217 21.28 249.265 21.28C247.921 21.28 246.913 20.86 246.241 19.992ZM256.633 20.3C255.541 19.656 254.673 18.76 254.057 17.612C253.413 16.492 253.105 15.232 253.105 13.832C253.105 12.404 253.413 11.144 254.057 10.024C254.673 8.904 255.541 8.064 256.633 7.448C257.697 6.832 258.873 6.524 260.161 6.524C261.449 6.524 262.625 6.86 263.689 7.476C264.753 8.12 265.621 8.988 266.265 10.108C266.881 11.228 267.217 12.488 267.217 13.888C267.217 15.316 266.909 16.604 266.293 17.724C265.677 18.844 264.809 19.74 263.745 20.356C262.681 20.972 261.505 21.28 260.217 21.28C258.901 21.28 257.697 20.972 256.633 20.3ZM257.921 19.012C258.705 20.188 259.657 20.748 260.721 20.748C261.785 20.748 262.597 20.244 263.185 19.208C263.745 18.2 264.053 16.856 264.053 15.204C264.053 14.672 263.997 14 263.913 13.216C263.661 11.368 263.157 9.884 262.373 8.764C261.589 7.644 260.693 7.056 259.657 7.056C258.565 7.056 257.725 7.588 257.137 8.624C256.549 9.688 256.269 11.032 256.269 12.656C256.269 13.328 256.297 13.916 256.381 14.448C256.605 16.324 257.137 17.836 257.921 19.012ZM268.677 20.664C268.313 20.272 268.145 19.796 268.145 19.18C268.145 18.62 268.313 18.172 268.677 17.78C269.041 17.416 269.517 17.22 270.105 17.22C270.665 17.22 271.141 17.416 271.505 17.78C271.869 18.172 272.065 18.62 272.065 19.18C272.065 19.796 271.869 20.272 271.505 20.664C271.141 21.056 270.665 21.224 270.105 21.224C269.517 21.224 269.041 21.056 268.677 20.664ZM3.86385 52.352C2.89185 51.776 2.09985 51.002 1.52385 50.012C0.929852 49.04 0.641852 47.942 0.641852 46.754C0.641852 45.494 0.929852 44.36 1.50585 43.352C2.08185 42.362 2.85585 41.588 3.80985 41.03C4.76385 40.49 5.78985 40.202 6.88785 40.202C8.00385 40.202 9.02985 40.49 10.0019 41.066C10.9559 41.642 11.7119 42.434 12.2879 43.424C12.8639 44.414 13.1519 45.494 13.1519 46.682C13.1519 47.942 12.8639 49.058 12.2879 50.048C11.7119 51.038 10.9559 51.812 10.0199 52.37C9.06585 52.928 8.03985 53.198 6.94185 53.198C5.86185 53.198 4.83585 52.928 3.86385 52.352ZM3.66585 49.976C4.07985 50.84 4.60185 51.542 5.23185 52.046C5.86185 52.568 6.56385 52.82 7.31985 52.82C8.03985 52.82 8.66985 52.604 9.22785 52.136C9.78585 51.686 10.2179 51.056 10.5419 50.246C10.8479 49.436 11.0099 48.518 11.0099 47.474C11.0099 47.042 10.9739 46.628 10.9379 46.232C10.7939 45.17 10.5419 44.216 10.1459 43.352C9.74985 42.488 9.22785 41.822 8.61585 41.318C8.00385 40.814 7.30185 40.562 6.54585 40.562C6.29385 40.562 6.11385 40.58 6.00585 40.598C5.37585 40.706 4.81785 41.012 4.33185 41.498C3.84585 41.984 3.46785 42.614 3.19785 43.37C2.90985 44.144 2.78385 44.99 2.78385 45.926C2.78385 46.358 2.80185 46.772 2.85585 47.132C2.98185 48.176 3.25185 49.112 3.66585 49.976ZM15.6166 52.352C15.1846 51.794 14.9686 51.074 14.9686 50.174V44.594H13.8346V44.342C14.5726 44.27 15.2026 44.018 15.7066 43.55C16.2106 43.082 16.5346 42.452 16.6786 41.642H16.9306V43.874H19.6126L19.3066 44.594H16.9306V49.976C16.9306 50.588 17.0566 51.092 17.3086 51.47C17.5606 51.866 17.9206 52.046 18.3706 52.046C18.7306 52.046 19.0186 51.938 19.2526 51.686C19.4866 51.434 19.6486 51.128 19.7386 50.75L19.9546 50.786C19.8646 51.47 19.5946 52.028 19.1626 52.496C18.7126 52.964 18.1726 53.18 17.5606 53.18C16.6966 53.18 16.0486 52.91 15.6166 52.352ZM21.6986 52.352C21.2666 51.794 21.0506 51.074 21.0506 50.174V44.594H19.9166V44.342C20.6546 44.27 21.2846 44.018 21.7886 43.55C22.2926 43.082 22.6166 42.452 22.7606 41.642H23.0126V43.874H25.6946L25.3886 44.594H23.0126V49.976C23.0126 50.588 23.1386 51.092 23.3906 51.47C23.6426 51.866 24.0026 52.046 24.4526 52.046C24.8126 52.046 25.1006 51.938 25.3346 51.686C25.5686 51.434 25.7306 51.128 25.8206 50.75L26.0366 50.786C25.9466 51.47 25.6766 52.028 25.2446 52.496C24.7946 52.964 24.2546 53.18 23.6426 53.18C22.7786 53.18 22.1306 52.91 21.6986 52.352ZM28.3789 52.55C27.6769 52.136 27.1189 51.56 26.7229 50.822C26.3089 50.102 26.1109 49.292 26.1109 48.392C26.1109 47.474 26.3089 46.664 26.7229 45.944C27.1189 45.224 27.6769 44.684 28.3789 44.288C29.0629 43.892 29.8189 43.694 30.6469 43.694C31.4749 43.694 32.2309 43.91 32.9149 44.306C33.5989 44.72 34.1569 45.278 34.5709 45.998C34.9669 46.718 35.1829 47.528 35.1829 48.428C35.1829 49.346 34.9849 50.174 34.5889 50.894C34.1929 51.614 33.6349 52.19 32.9509 52.586C32.2669 52.982 31.5109 53.18 30.6829 53.18C29.8369 53.18 29.0629 52.982 28.3789 52.55ZM29.2069 51.722C29.7109 52.478 30.3229 52.838 31.0069 52.838C31.6909 52.838 32.2129 52.514 32.5909 51.848C32.9509 51.2 33.1489 50.336 33.1489 49.274C33.1489 48.932 33.1129 48.5 33.0589 47.996C32.8969 46.808 32.5729 45.854 32.0689 45.134C31.5649 44.414 30.9889 44.036 30.3229 44.036C29.6209 44.036 29.0809 44.378 28.7029 45.044C28.3249 45.728 28.1449 46.592 28.1449 47.636C28.1449 48.068 28.1629 48.446 28.2169 48.788C28.3609 49.994 28.7029 50.966 29.2069 51.722ZM41.5339 52.568C40.9579 52.172 40.5259 51.614 40.2019 50.894C39.8779 50.192 39.7339 49.4 39.7339 48.536C39.7339 47.672 39.9139 46.862 40.2919 46.124C40.6519 45.404 41.1739 44.81 41.8219 44.378C42.4699 43.946 43.1719 43.73 43.9639 43.73C44.8999 43.73 45.6919 44.09 46.3039 44.81V41.822C46.3039 41.39 46.2139 41.084 46.0339 40.904C45.8539 40.724 45.5479 40.634 45.1339 40.634V40.4C46.2859 40.328 47.2759 40.094 48.0859 39.698L48.2659 39.788V51.308C48.2659 51.704 48.3559 51.974 48.5359 52.118C48.7159 52.262 49.0219 52.316 49.4539 52.298V52.532C48.2659 52.676 47.2939 52.91 46.5019 53.216L46.3039 53.108V51.236C46.1239 51.722 45.7819 52.172 45.2779 52.568C44.7559 52.982 44.1439 53.18 43.4239 53.18C42.7219 53.18 42.0919 52.982 41.5339 52.568ZM42.1459 50.156C42.3799 50.804 42.7039 51.272 43.1179 51.596C43.5139 51.92 43.9639 52.082 44.4499 52.082C44.8819 52.082 45.2779 51.956 45.6019 51.704C45.9259 51.452 46.1599 51.11 46.3039 50.678V47.798C46.3039 46.79 46.1059 45.908 45.7099 45.17C45.3139 44.45 44.7739 44.072 44.1079 44.072C43.6399 44.072 43.2439 44.252 42.8839 44.576C42.5239 44.9 42.2539 45.35 42.0739 45.926C41.8759 46.502 41.7859 47.15 41.7859 47.87C41.7859 48.77 41.8939 49.526 42.1459 50.156ZM50.774 41.966C50.54 41.714 50.432 41.408 50.432 41.012C50.432 40.652 50.54 40.364 50.774 40.13C51.008 39.896 51.314 39.77 51.692 39.77C52.07 39.77 52.376 39.896 52.61 40.13C52.844 40.364 52.97 40.652 52.97 41.012C52.97 41.408 52.844 41.714 52.61 41.966C52.376 42.218 52.07 42.326 51.692 42.326C51.314 42.326 51.008 42.218 50.774 41.966ZM49.622 52.766C50.018 52.766 50.324 52.658 50.54 52.406C50.756 52.172 50.882 51.758 50.882 51.182V45.836C50.882 45.404 50.774 45.116 50.594 44.936C50.414 44.756 50.108 44.666 49.694 44.648V44.414C50.846 44.342 51.836 44.108 52.664 43.712L52.826 43.802V51.182C52.826 51.776 52.934 52.19 53.15 52.424C53.366 52.658 53.672 52.766 54.086 52.766V53H49.622V52.766ZM56.8094 52.856C56.1434 52.64 55.5494 52.352 55.0094 51.992V41.822C55.0094 41.39 54.9014 41.084 54.7214 40.904C54.5414 40.724 54.2354 40.634 53.8214 40.634V40.4C54.9734 40.328 55.9634 40.094 56.7914 39.698L56.9534 39.788V45.89C57.1154 45.332 57.4574 44.828 57.9794 44.396C58.4834 43.964 59.0954 43.73 59.7974 43.73C60.4994 43.73 61.1294 43.946 61.6874 44.378C62.2274 44.81 62.6594 45.368 62.9654 46.07C63.2534 46.79 63.4154 47.546 63.4154 48.356C63.4154 49.292 63.2174 50.138 62.8214 50.858C62.4254 51.596 61.8674 52.172 61.1834 52.568C60.4994 52.982 59.7254 53.18 58.8974 53.18C58.1774 53.18 57.4754 53.072 56.8094 52.856ZM57.4574 52.01C57.7994 52.622 58.3214 52.91 59.0054 52.91C59.7254 52.91 60.3194 52.55 60.7514 51.812C61.1834 51.092 61.3994 50.138 61.3994 48.968C61.3994 48.104 61.2734 47.348 61.0574 46.7C60.8414 46.07 60.5354 45.584 60.1574 45.26C59.7614 44.936 59.3294 44.756 58.8434 44.756C58.3754 44.756 57.9794 44.936 57.6374 45.26C57.2774 45.584 57.0614 45.998 56.9534 46.502V49.166C56.9534 50.462 57.1154 51.398 57.4574 52.01ZM70.2502 52.658C69.9622 52.334 69.7822 51.866 69.7102 51.272L69.6562 50.876C69.5842 51.272 69.4042 51.65 69.1522 51.992C68.8822 52.352 68.5402 52.64 68.1262 52.856C67.6942 53.072 67.2262 53.18 66.7042 53.18C65.9482 53.18 65.3182 52.964 64.8322 52.532C64.3462 52.1 64.1122 51.542 64.1122 50.858C64.1122 50.246 64.3102 49.742 64.7422 49.346C65.1742 48.95 65.7862 48.716 66.5782 48.644L69.3142 48.428L69.1882 47.51C69.0802 46.664 68.8282 45.998 68.4322 45.512C68.0362 45.044 67.5142 44.792 66.8662 44.792C66.3442 44.792 65.8942 44.954 65.4982 45.242C65.1022 45.53 64.8142 45.926 64.6162 46.412L64.3822 46.358C64.4902 45.926 64.7062 45.494 65.0302 45.08C65.3542 44.684 65.7502 44.342 66.2362 44.09C66.7222 43.838 67.2622 43.694 67.8562 43.694C68.7562 43.694 69.4942 43.982 70.0522 44.558C70.6102 45.134 70.9522 45.962 71.0962 47.024L71.6182 51.002C71.7082 51.686 71.9422 52.01 72.3382 52.01C72.4462 52.01 72.5542 51.974 72.6442 51.866C72.7342 51.776 72.7882 51.65 72.8242 51.488L73.0402 51.506C73.0042 51.938 72.8602 52.316 72.5722 52.64C72.2842 52.982 71.9062 53.144 71.4382 53.144C70.9342 53.144 70.5382 52.982 70.2502 52.658ZM66.3982 51.632C66.7042 51.956 67.1182 52.118 67.6582 52.118C68.1982 52.118 68.6482 51.956 69.0082 51.632C69.3502 51.308 69.5482 50.912 69.6022 50.462L69.3502 48.698L67.5862 48.842C67.0462 48.896 66.6322 49.076 66.3442 49.364C66.0562 49.652 65.9302 50.03 65.9302 50.462C65.9302 50.93 66.0742 51.308 66.3982 51.632ZM74.4681 52.352C74.0361 51.794 73.8201 51.074 73.8201 50.174V44.594H72.6861V44.342C73.4241 44.27 74.0541 44.018 74.5581 43.55C75.0621 43.082 75.3861 42.452 75.5301 41.642H75.7821V43.874H78.4641L78.1581 44.594H75.7821V49.976C75.7821 50.588 75.9081 51.092 76.1601 51.47C76.4121 51.866 76.7721 52.046 77.2221 52.046C77.5821 52.046 77.8701 51.938 78.1041 51.686C78.3381 51.434 78.5001 51.128 78.5901 50.75L78.8061 50.786C78.7161 51.47 78.4461 52.028 78.0141 52.496C77.5641 52.964 77.0241 53.18 76.4121 53.18C75.5481 53.18 74.9001 52.91 74.4681 52.352ZM80.5502 52.352C80.1182 51.794 79.9022 51.074 79.9022 50.174V44.594H78.7682V44.342C79.5062 44.27 80.1362 44.018 80.6402 43.55C81.1442 43.082 81.4682 42.452 81.6122 41.642H81.8642V43.874H84.5462L84.2402 44.594H81.8642V49.976C81.8642 50.588 81.9902 51.092 82.2422 51.47C82.4942 51.866 82.8542 52.046 83.3042 52.046C83.6642 52.046 83.9522 51.938 84.1862 51.686C84.4202 51.434 84.5822 51.128 84.6722 50.75L84.8882 50.786C84.7982 51.47 84.5282 52.028 84.0962 52.496C83.6462 52.964 83.1062 53.18 82.4942 53.18C81.6302 53.18 80.9822 52.91 80.5502 52.352ZM86.0181 41.966C85.7841 41.714 85.6761 41.408 85.6761 41.012C85.6761 40.652 85.7841 40.364 86.0181 40.13C86.2521 39.896 86.5581 39.77 86.9361 39.77C87.3141 39.77 87.6201 39.896 87.8541 40.13C88.0881 40.364 88.2141 40.652 88.2141 41.012C88.2141 41.408 88.0881 41.714 87.8541 41.966C87.6201 42.218 87.3141 42.326 86.9361 42.326C86.5581 42.326 86.2521 42.218 86.0181 41.966ZM84.8661 52.766C85.2621 52.766 85.5681 52.658 85.7841 52.406C86.0001 52.172 86.1261 51.758 86.1261 51.182V45.836C86.1261 45.404 86.0181 45.116 85.8381 44.936C85.6581 44.756 85.3521 44.666 84.9381 44.648V44.414C86.0901 44.342 87.0801 44.108 87.9081 43.712L88.0701 43.802V51.182C88.0701 51.776 88.1781 52.19 88.3941 52.424C88.6101 52.658 88.9161 52.766 89.3301 52.766V53H84.8661V52.766ZM90.9564 52.352C90.5244 51.794 90.3084 51.074 90.3084 50.174V44.594H89.1744V44.342C89.9124 44.27 90.5424 44.018 91.0464 43.55C91.5504 43.082 91.8744 42.452 92.0184 41.642H92.2704V43.874H94.9524L94.6464 44.594H92.2704V49.976C92.2704 50.588 92.3964 51.092 92.6484 51.47C92.9004 51.866 93.2604 52.046 93.7104 52.046C94.0704 52.046 94.3584 51.938 94.5924 51.686C94.8264 51.434 94.9884 51.128 95.0784 50.75L95.2944 50.786C95.2044 51.47 94.9344 52.028 94.5024 52.496C94.0524 52.964 93.5124 53.18 92.9004 53.18C92.0364 53.18 91.3884 52.91 90.9564 52.352ZM96.4244 41.966C96.1904 41.714 96.0824 41.408 96.0824 41.012C96.0824 40.652 96.1904 40.364 96.4244 40.13C96.6584 39.896 96.9644 39.77 97.3424 39.77C97.7204 39.77 98.0264 39.896 98.2604 40.13C98.4944 40.364 98.6204 40.652 98.6204 41.012C98.6204 41.408 98.4944 41.714 98.2604 41.966C98.0264 42.218 97.7204 42.326 97.3424 42.326C96.9644 42.326 96.6584 42.218 96.4244 41.966ZM95.2724 52.766C95.6684 52.766 95.9744 52.658 96.1904 52.406C96.4064 52.172 96.5324 51.758 96.5324 51.182V45.836C96.5324 45.404 96.4244 45.116 96.2444 44.936C96.0644 44.756 95.7584 44.666 95.3444 44.648V44.414C96.4964 44.342 97.4864 44.108 98.3144 43.712L98.4764 43.802V51.182C98.4764 51.776 98.5844 52.19 98.8004 52.424C99.0164 52.658 99.3224 52.766 99.7364 52.766V53H95.2724V52.766ZM104.051 49.418L104.285 49.364C104.573 50.282 104.987 51.092 105.527 51.794C106.067 52.514 106.769 52.874 107.669 52.874C108.227 52.874 108.677 52.73 109.001 52.442C109.325 52.154 109.505 51.776 109.523 51.326C109.523 50.894 109.361 50.516 109.055 50.228C108.731 49.94 108.227 49.67 107.507 49.418L106.427 48.986C105.671 48.698 105.113 48.356 104.717 47.924C104.321 47.492 104.141 46.952 104.141 46.304C104.141 45.836 104.267 45.386 104.555 44.99C104.825 44.594 105.203 44.288 105.689 44.054C106.175 43.838 106.715 43.712 107.291 43.712C107.759 43.712 108.299 43.82 108.893 44.018C109.217 44.126 109.433 44.162 109.541 44.162C109.793 44.162 109.991 43.982 110.099 43.604L110.351 43.586L110.585 47.114L110.333 47.15C110.189 46.682 109.973 46.214 109.685 45.728C109.397 45.242 109.037 44.828 108.623 44.486C108.191 44.162 107.741 43.982 107.255 43.982C106.769 43.982 106.373 44.126 106.085 44.414C105.797 44.702 105.653 45.062 105.653 45.458C105.653 45.854 105.797 46.214 106.103 46.502C106.409 46.79 106.895 47.06 107.543 47.276L108.605 47.708C109.415 48.014 110.009 48.374 110.405 48.788C110.801 49.202 110.999 49.706 110.999 50.3C110.999 50.894 110.837 51.398 110.549 51.83C110.243 52.262 109.847 52.604 109.361 52.82C108.875 53.054 108.353 53.162 107.795 53.162C107.471 53.162 107.165 53.144 106.913 53.09C106.643 53.036 106.337 52.964 105.995 52.856C105.617 52.748 105.365 52.694 105.239 52.694C105.095 52.694 104.969 52.748 104.879 52.82C104.789 52.892 104.699 53.018 104.627 53.198L104.357 53.216L104.051 49.418ZM113.931 52.766C113.481 52.478 113.139 52.064 112.887 51.524C112.635 50.984 112.509 50.336 112.509 49.598V45.836C112.509 45.404 112.401 45.116 112.221 44.936C112.041 44.756 111.735 44.666 111.321 44.648V44.414C112.473 44.342 113.463 44.108 114.291 43.712L114.453 43.802V49.4C114.453 50.228 114.597 50.894 114.921 51.362C115.227 51.848 115.695 52.082 116.325 52.082C116.865 52.082 117.279 51.902 117.585 51.524C117.891 51.146 118.071 50.696 118.125 50.192V45.836C118.125 45.404 118.017 45.116 117.837 44.936C117.657 44.756 117.351 44.666 116.937 44.648V44.414C118.089 44.342 119.079 44.108 119.907 43.712L120.069 43.802V51.308C120.069 51.704 120.159 51.974 120.339 52.118C120.519 52.262 120.843 52.316 121.275 52.298V52.532C120.105 52.676 119.115 52.91 118.305 53.216L118.125 53.108V51.056C117.927 51.632 117.603 52.136 117.153 52.568C116.685 53 116.127 53.198 115.443 53.198C114.867 53.198 114.363 53.054 113.931 52.766ZM121.235 52.766C121.631 52.766 121.937 52.658 122.153 52.406C122.369 52.172 122.495 51.758 122.495 51.182L122.549 41.822C122.549 41.39 122.441 41.084 122.261 40.904C122.081 40.724 121.775 40.634 121.361 40.634V40.4C122.513 40.328 123.503 40.094 124.331 39.698L124.493 39.788V51.182C124.493 51.758 124.601 52.172 124.817 52.406C125.033 52.658 125.357 52.766 125.753 52.766V53H121.235V52.766ZM125.77 52.766C126.166 52.766 126.472 52.658 126.688 52.406C126.904 52.172 127.03 51.758 127.03 51.182L127.084 41.822C127.084 41.39 126.976 41.084 126.796 40.904C126.616 40.724 126.31 40.634 125.896 40.634V40.4C127.048 40.328 128.038 40.094 128.866 39.698L129.028 39.788V51.182C129.028 51.758 129.136 52.172 129.352 52.406C129.568 52.658 129.892 52.766 130.288 52.766V53H125.77V52.766ZM136.59 52.658C136.302 52.334 136.122 51.866 136.05 51.272L135.996 50.876C135.924 51.272 135.744 51.65 135.492 51.992C135.222 52.352 134.88 52.64 134.466 52.856C134.034 53.072 133.566 53.18 133.044 53.18C132.288 53.18 131.658 52.964 131.172 52.532C130.686 52.1 130.452 51.542 130.452 50.858C130.452 50.246 130.65 49.742 131.082 49.346C131.514 48.95 132.126 48.716 132.918 48.644L135.654 48.428L135.528 47.51C135.42 46.664 135.168 45.998 134.772 45.512C134.376 45.044 133.854 44.792 133.206 44.792C132.684 44.792 132.234 44.954 131.838 45.242C131.442 45.53 131.154 45.926 130.956 46.412L130.722 46.358C130.83 45.926 131.046 45.494 131.37 45.08C131.694 44.684 132.09 44.342 132.576 44.09C133.062 43.838 133.602 43.694 134.196 43.694C135.096 43.694 135.834 43.982 136.392 44.558C136.95 45.134 137.292 45.962 137.436 47.024L137.958 51.002C138.048 51.686 138.282 52.01 138.678 52.01C138.786 52.01 138.894 51.974 138.984 51.866C139.074 51.776 139.128 51.65 139.164 51.488L139.38 51.506C139.344 51.938 139.2 52.316 138.912 52.64C138.624 52.982 138.246 53.144 137.778 53.144C137.274 53.144 136.878 52.982 136.59 52.658ZM132.738 51.632C133.044 51.956 133.458 52.118 133.998 52.118C134.538 52.118 134.988 51.956 135.348 51.632C135.69 51.308 135.888 50.912 135.942 50.462L135.69 48.698L133.926 48.842C133.386 48.896 132.972 49.076 132.684 49.364C132.396 49.652 132.27 50.03 132.27 50.462C132.27 50.93 132.414 51.308 132.738 51.632ZM146.036 52.856C145.37 52.64 144.776 52.352 144.236 51.992V41.822C144.236 41.39 144.128 41.084 143.948 40.904C143.768 40.724 143.462 40.634 143.048 40.634V40.4C144.2 40.328 145.19 40.094 146.018 39.698L146.18 39.788V45.89C146.342 45.332 146.684 44.828 147.206 44.396C147.71 43.964 148.322 43.73 149.024 43.73C149.726 43.73 150.356 43.946 150.914 44.378C151.454 44.81 151.886 45.368 152.192 46.07C152.48 46.79 152.642 47.546 152.642 48.356C152.642 49.292 152.444 50.138 152.048 50.858C151.652 51.596 151.094 52.172 150.41 52.568C149.726 52.982 148.952 53.18 148.124 53.18C147.404 53.18 146.702 53.072 146.036 52.856ZM146.684 52.01C147.026 52.622 147.548 52.91 148.232 52.91C148.952 52.91 149.546 52.55 149.978 51.812C150.41 51.092 150.626 50.138 150.626 48.968C150.626 48.104 150.5 47.348 150.284 46.7C150.068 46.07 149.762 45.584 149.384 45.26C148.988 44.936 148.556 44.756 148.07 44.756C147.602 44.756 147.206 44.936 146.864 45.26C146.504 45.584 146.288 45.998 146.18 46.502V49.166C146.18 50.462 146.342 51.398 146.684 52.01ZM153.887 41.966C153.653 41.714 153.545 41.408 153.545 41.012C153.545 40.652 153.653 40.364 153.887 40.13C154.121 39.896 154.427 39.77 154.805 39.77C155.183 39.77 155.489 39.896 155.723 40.13C155.957 40.364 156.083 40.652 156.083 41.012C156.083 41.408 155.957 41.714 155.723 41.966C155.489 42.218 155.183 42.326 154.805 42.326C154.427 42.326 154.121 42.218 153.887 41.966ZM152.735 52.766C153.131 52.766 153.437 52.658 153.653 52.406C153.869 52.172 153.995 51.758 153.995 51.182V45.836C153.995 45.404 153.887 45.116 153.707 44.936C153.527 44.756 153.221 44.666 152.807 44.648V44.414C153.959 44.342 154.949 44.108 155.777 43.712L155.939 43.802V51.182C155.939 51.776 156.047 52.19 156.263 52.424C156.479 52.658 156.785 52.766 157.199 52.766V53H152.735V52.766ZM159.547 52.55C158.845 52.136 158.287 51.56 157.891 50.822C157.477 50.102 157.279 49.292 157.279 48.392C157.279 47.474 157.477 46.664 157.891 45.944C158.287 45.224 158.845 44.684 159.547 44.288C160.231 43.892 160.987 43.694 161.815 43.694C162.643 43.694 163.399 43.91 164.083 44.306C164.767 44.72 165.325 45.278 165.739 45.998C166.135 46.718 166.351 47.528 166.351 48.428C166.351 49.346 166.153 50.174 165.757 50.894C165.361 51.614 164.803 52.19 164.119 52.586C163.435 52.982 162.679 53.18 161.851 53.18C161.005 53.18 160.231 52.982 159.547 52.55ZM160.375 51.722C160.879 52.478 161.491 52.838 162.175 52.838C162.859 52.838 163.381 52.514 163.759 51.848C164.119 51.2 164.317 50.336 164.317 49.274C164.317 48.932 164.281 48.5 164.227 47.996C164.065 46.808 163.741 45.854 163.237 45.134C162.733 44.414 162.157 44.036 161.491 44.036C160.789 44.036 160.249 44.378 159.871 45.044C159.493 45.728 159.313 46.592 159.313 47.636C159.313 48.068 159.331 48.446 159.385 48.788C159.529 49.994 159.871 50.966 160.375 51.722ZM169.134 52.568C168.558 52.172 168.126 51.614 167.802 50.894C167.478 50.192 167.334 49.4 167.334 48.536C167.334 47.672 167.514 46.862 167.892 46.124C168.252 45.404 168.774 44.81 169.422 44.378C170.07 43.946 170.772 43.73 171.564 43.73C172.5 43.73 173.292 44.09 173.904 44.81V41.822C173.904 41.39 173.814 41.084 173.634 40.904C173.454 40.724 173.148 40.634 172.734 40.634V40.4C173.886 40.328 174.876 40.094 175.686 39.698L175.866 39.788V51.308C175.866 51.704 175.956 51.974 176.136 52.118C176.316 52.262 176.622 52.316 177.054 52.298V52.532C175.866 52.676 174.894 52.91 174.102 53.216L173.904 53.108V51.236C173.724 51.722 173.382 52.172 172.878 52.568C172.356 52.982 171.744 53.18 171.024 53.18C170.322 53.18 169.692 52.982 169.134 52.568ZM169.746 50.156C169.98 50.804 170.304 51.272 170.718 51.596C171.114 51.92 171.564 52.082 172.05 52.082C172.482 52.082 172.878 51.956 173.202 51.704C173.526 51.452 173.76 51.11 173.904 50.678V47.798C173.904 46.79 173.706 45.908 173.31 45.17C172.914 44.45 172.374 44.072 171.708 44.072C171.24 44.072 170.844 44.252 170.484 44.576C170.124 44.9 169.854 45.35 169.674 45.926C169.476 46.502 169.386 47.15 169.386 47.87C169.386 48.77 169.494 49.526 169.746 50.156ZM178.374 41.966C178.14 41.714 178.032 41.408 178.032 41.012C178.032 40.652 178.14 40.364 178.374 40.13C178.608 39.896 178.914 39.77 179.292 39.77C179.67 39.77 179.976 39.896 180.21 40.13C180.444 40.364 180.57 40.652 180.57 41.012C180.57 41.408 180.444 41.714 180.21 41.966C179.976 42.218 179.67 42.326 179.292 42.326C178.914 42.326 178.608 42.218 178.374 41.966ZM177.222 52.766C177.618 52.766 177.924 52.658 178.14 52.406C178.356 52.172 178.482 51.758 178.482 51.182V45.836C178.482 45.404 178.374 45.116 178.194 44.936C178.014 44.756 177.708 44.666 177.294 44.648V44.414C178.446 44.342 179.436 44.108 180.264 43.712L180.426 43.802V51.182C180.426 51.776 180.534 52.19 180.75 52.424C180.966 52.658 181.272 52.766 181.686 52.766V53H177.222V52.766ZM184.265 52.28C183.761 51.686 183.401 50.768 183.203 49.526L182.573 45.674C182.465 45.098 182.303 44.702 182.069 44.468C181.817 44.234 181.511 44.108 181.115 44.108V43.874H185.507V44.108C184.805 44.108 184.463 44.468 184.463 45.188C184.463 45.404 184.463 45.566 184.499 45.674L185.039 48.986C185.183 49.958 185.435 50.696 185.777 51.182C186.101 51.686 186.587 51.92 187.235 51.92C187.703 51.92 188.153 51.758 188.603 51.398C189.053 51.038 189.413 50.57 189.701 49.958C189.971 49.364 190.115 48.716 190.115 47.996C190.115 47.204 189.953 46.556 189.647 46.088C189.341 45.62 188.927 45.368 188.405 45.368C188.153 45.368 187.901 45.422 187.685 45.512C187.577 45.566 187.451 45.584 187.307 45.584C187.055 45.584 186.839 45.512 186.659 45.332C186.479 45.152 186.407 44.936 186.407 44.648C186.407 44.396 186.497 44.162 186.677 43.982C186.857 43.802 187.109 43.712 187.469 43.712C187.973 43.712 188.441 43.874 188.891 44.162C189.341 44.45 189.701 44.9 189.989 45.494C190.277 46.106 190.421 46.844 190.421 47.708C190.421 48.698 190.223 49.616 189.845 50.444C189.449 51.29 188.945 51.956 188.315 52.442C187.685 52.946 187.019 53.18 186.317 53.18C185.453 53.18 184.769 52.892 184.265 52.28ZM193.378 52.55C192.748 52.136 192.262 51.56 191.92 50.84C191.56 50.12 191.398 49.346 191.398 48.482C191.398 47.582 191.578 46.772 191.974 46.052C192.37 45.332 192.892 44.756 193.576 44.324C194.242 43.91 194.98 43.694 195.772 43.694C196.456 43.694 197.068 43.856 197.572 44.162C198.076 44.486 198.472 44.9 198.742 45.422C199.012 45.962 199.156 46.538 199.156 47.15H193.306C193.288 47.222 193.288 47.33 193.288 47.456C193.288 48.302 193.414 49.04 193.684 49.688C193.936 50.336 194.314 50.84 194.8 51.2C195.286 51.56 195.862 51.722 196.51 51.722C197.23 51.722 197.842 51.506 198.346 51.074C198.85 50.642 199.174 50.084 199.318 49.364L199.57 49.4C199.462 50.12 199.21 50.768 198.85 51.344C198.49 51.92 198.022 52.37 197.446 52.694C196.87 53.018 196.24 53.18 195.556 53.18C194.728 53.18 194.008 52.982 193.378 52.55ZM196.474 46.844C196.726 46.844 196.924 46.79 197.032 46.664C197.14 46.538 197.212 46.322 197.212 46.034C197.212 45.53 197.068 45.062 196.816 44.63C196.546 44.198 196.15 43.964 195.628 43.964C195.088 43.964 194.584 44.252 194.152 44.81C193.702 45.386 193.432 46.052 193.324 46.844H196.474ZM199.493 52.766C199.889 52.766 200.195 52.658 200.411 52.406C200.627 52.172 200.753 51.758 200.753 51.182V45.836C200.753 45.404 200.663 45.116 200.483 44.936C200.303 44.756 199.997 44.666 199.565 44.648V44.414C200.717 44.342 201.707 44.108 202.535 43.712L202.697 43.802V45.764C202.841 45.206 203.111 44.72 203.507 44.306C203.903 43.91 204.353 43.694 204.893 43.694C205.307 43.694 205.649 43.838 205.919 44.09C206.171 44.36 206.315 44.666 206.315 45.008C206.315 45.314 206.207 45.566 206.027 45.782C205.847 45.998 205.595 46.088 205.289 46.088C205.073 46.088 204.911 46.052 204.785 45.944C204.659 45.854 204.551 45.728 204.479 45.584C204.407 45.44 204.335 45.296 204.299 45.152C204.227 45.008 204.173 44.918 204.119 44.846C204.047 44.792 203.975 44.756 203.867 44.756C203.579 44.756 203.327 44.936 203.111 45.26C202.895 45.602 202.751 45.998 202.697 46.448V51.182C202.697 51.758 202.841 52.172 203.129 52.406C203.417 52.658 203.813 52.766 204.335 52.766V53H199.493V52.766ZM206.655 49.418L206.889 49.364C207.177 50.282 207.591 51.092 208.131 51.794C208.671 52.514 209.373 52.874 210.273 52.874C210.831 52.874 211.281 52.73 211.605 52.442C211.929 52.154 212.109 51.776 212.127 51.326C212.127 50.894 211.965 50.516 211.659 50.228C211.335 49.94 210.831 49.67 210.111 49.418L209.031 48.986C208.275 48.698 207.717 48.356 207.321 47.924C206.925 47.492 206.745 46.952 206.745 46.304C206.745 45.836 206.871 45.386 207.159 44.99C207.429 44.594 207.807 44.288 208.293 44.054C208.779 43.838 209.319 43.712 209.895 43.712C210.363 43.712 210.903 43.82 211.497 44.018C211.821 44.126 212.037 44.162 212.145 44.162C212.397 44.162 212.595 43.982 212.703 43.604L212.955 43.586L213.189 47.114L212.937 47.15C212.793 46.682 212.577 46.214 212.289 45.728C212.001 45.242 211.641 44.828 211.227 44.486C210.795 44.162 210.345 43.982 209.859 43.982C209.373 43.982 208.977 44.126 208.689 44.414C208.401 44.702 208.257 45.062 208.257 45.458C208.257 45.854 208.401 46.214 208.707 46.502C209.013 46.79 209.499 47.06 210.147 47.276L211.209 47.708C212.019 48.014 212.613 48.374 213.009 48.788C213.405 49.202 213.603 49.706 213.603 50.3C213.603 50.894 213.441 51.398 213.153 51.83C212.847 52.262 212.451 52.604 211.965 52.82C211.479 53.054 210.957 53.162 210.399 53.162C210.075 53.162 209.769 53.144 209.517 53.09C209.247 53.036 208.941 52.964 208.599 52.856C208.221 52.748 207.969 52.694 207.843 52.694C207.699 52.694 207.573 52.748 207.483 52.82C207.393 52.892 207.303 53.018 207.231 53.198L206.961 53.216L206.655 49.418ZM215.077 41.966C214.843 41.714 214.735 41.408 214.735 41.012C214.735 40.652 214.843 40.364 215.077 40.13C215.311 39.896 215.617 39.77 215.995 39.77C216.373 39.77 216.679 39.896 216.913 40.13C217.147 40.364 217.273 40.652 217.273 41.012C217.273 41.408 217.147 41.714 216.913 41.966C216.679 42.218 216.373 42.326 215.995 42.326C215.617 42.326 215.311 42.218 215.077 41.966ZM213.925 52.766C214.321 52.766 214.627 52.658 214.843 52.406C215.059 52.172 215.185 51.758 215.185 51.182V45.836C215.185 45.404 215.077 45.116 214.897 44.936C214.717 44.756 214.411 44.666 213.997 44.648V44.414C215.149 44.342 216.139 44.108 216.967 43.712L217.129 43.802V51.182C217.129 51.776 217.237 52.19 217.453 52.424C217.669 52.658 217.975 52.766 218.389 52.766V53H213.925V52.766ZM220.015 52.352C219.583 51.794 219.367 51.074 219.367 50.174V44.594H218.233V44.342C218.971 44.27 219.601 44.018 220.105 43.55C220.609 43.082 220.933 42.452 221.077 41.642H221.329V43.874H224.011L223.705 44.594H221.329V49.976C221.329 50.588 221.455 51.092 221.707 51.47C221.959 51.866 222.319 52.046 222.769 52.046C223.129 52.046 223.417 51.938 223.651 51.686C223.885 51.434 224.047 51.128 224.137 50.75L224.353 50.786C224.263 51.47 223.993 52.028 223.561 52.496C223.111 52.964 222.571 53.18 221.959 53.18C221.095 53.18 220.447 52.91 220.015 52.352ZM230.897 52.658C230.609 52.334 230.429 51.866 230.357 51.272L230.303 50.876C230.231 51.272 230.051 51.65 229.799 51.992C229.529 52.352 229.187 52.64 228.773 52.856C228.341 53.072 227.873 53.18 227.351 53.18C226.595 53.18 225.965 52.964 225.479 52.532C224.993 52.1 224.759 51.542 224.759 50.858C224.759 50.246 224.957 49.742 225.389 49.346C225.821 48.95 226.433 48.716 227.225 48.644L229.961 48.428L229.835 47.51C229.727 46.664 229.475 45.998 229.079 45.512C228.683 45.044 228.161 44.792 227.513 44.792C226.991 44.792 226.541 44.954 226.145 45.242C225.749 45.53 225.461 45.926 225.263 46.412L225.029 46.358C225.137 45.926 225.353 45.494 225.677 45.08C226.001 44.684 226.397 44.342 226.883 44.09C227.369 43.838 227.909 43.694 228.503 43.694C229.403 43.694 230.141 43.982 230.699 44.558C231.257 45.134 231.599 45.962 231.743 47.024L232.265 51.002C232.355 51.686 232.589 52.01 232.985 52.01C233.093 52.01 233.201 51.974 233.291 51.866C233.381 51.776 233.435 51.65 233.471 51.488L233.687 51.506C233.651 51.938 233.507 52.316 233.219 52.64C232.931 52.982 232.553 53.144 232.085 53.144C231.581 53.144 231.185 52.982 230.897 52.658ZM227.045 51.632C227.351 51.956 227.765 52.118 228.305 52.118C228.845 52.118 229.295 51.956 229.655 51.632C229.997 51.308 230.195 50.912 230.249 50.462L229.997 48.698L228.233 48.842C227.693 48.896 227.279 49.076 226.991 49.364C226.703 49.652 226.577 50.03 226.577 50.462C226.577 50.93 226.721 51.308 227.045 51.632ZM225.641 39.734L227.855 39.752L229.223 42.74L228.971 42.848L225.641 39.734ZM240.019 52.766C239.569 52.478 239.227 52.064 238.975 51.524C238.723 50.984 238.597 50.336 238.597 49.598V45.836C238.597 45.404 238.489 45.116 238.309 44.936C238.129 44.756 237.823 44.666 237.409 44.648V44.414C238.561 44.342 239.551 44.108 240.379 43.712L240.541 43.802V49.4C240.541 50.228 240.685 50.894 241.009 51.362C241.315 51.848 241.783 52.082 242.413 52.082C242.953 52.082 243.367 51.902 243.673 51.524C243.979 51.146 244.159 50.696 244.213 50.192V45.836C244.213 45.404 244.105 45.116 243.925 44.936C243.745 44.756 243.439 44.666 243.025 44.648V44.414C244.177 44.342 245.167 44.108 245.995 43.712L246.157 43.802V51.308C246.157 51.704 246.247 51.974 246.427 52.118C246.607 52.262 246.931 52.316 247.363 52.298V52.532C246.193 52.676 245.203 52.91 244.393 53.216L244.213 53.108V51.056C244.015 51.632 243.691 52.136 243.241 52.568C242.773 53 242.215 53.198 241.531 53.198C240.955 53.198 240.451 53.054 240.019 52.766ZM247.534 52.766C247.93 52.766 248.236 52.658 248.452 52.406C248.668 52.172 248.794 51.758 248.794 51.182V45.836C248.794 45.404 248.704 45.116 248.524 44.936C248.344 44.756 248.038 44.666 247.606 44.648V44.414C248.758 44.342 249.748 44.108 250.576 43.712L250.738 43.802V45.764C250.882 45.206 251.152 44.72 251.548 44.306C251.944 43.91 252.394 43.694 252.934 43.694C253.348 43.694 253.69 43.838 253.96 44.09C254.212 44.36 254.356 44.666 254.356 45.008C254.356 45.314 254.248 45.566 254.068 45.782C253.888 45.998 253.636 46.088 253.33 46.088C253.114 46.088 252.952 46.052 252.826 45.944C252.7 45.854 252.592 45.728 252.52 45.584C252.448 45.44 252.376 45.296 252.34 45.152C252.268 45.008 252.214 44.918 252.16 44.846C252.088 44.792 252.016 44.756 251.908 44.756C251.62 44.756 251.368 44.936 251.152 45.26C250.936 45.602 250.792 45.998 250.738 46.448V51.182C250.738 51.758 250.882 52.172 251.17 52.406C251.458 52.658 251.854 52.766 252.376 52.766V53H247.534V52.766ZM257.024 52.856C256.358 52.64 255.764 52.352 255.224 51.992V41.822C255.224 41.39 255.116 41.084 254.936 40.904C254.756 40.724 254.45 40.634 254.036 40.634V40.4C255.188 40.328 256.178 40.094 257.006 39.698L257.168 39.788V45.89C257.33 45.332 257.672 44.828 258.194 44.396C258.698 43.964 259.31 43.73 260.012 43.73C260.714 43.73 261.344 43.946 261.902 44.378C262.442 44.81 262.874 45.368 263.18 46.07C263.468 46.79 263.63 47.546 263.63 48.356C263.63 49.292 263.432 50.138 263.036 50.858C262.64 51.596 262.082 52.172 261.398 52.568C260.714 52.982 259.94 53.18 259.112 53.18C258.392 53.18 257.69 53.072 257.024 52.856ZM257.672 52.01C258.014 52.622 258.536 52.91 259.22 52.91C259.94 52.91 260.534 52.55 260.966 51.812C261.398 51.092 261.614 50.138 261.614 48.968C261.614 48.104 261.488 47.348 261.272 46.7C261.056 46.07 260.75 45.584 260.372 45.26C259.976 44.936 259.544 44.756 259.058 44.756C258.59 44.756 258.194 44.936 257.852 45.26C257.492 45.584 257.276 45.998 257.168 46.502V49.166C257.168 50.462 257.33 51.398 257.672 52.01ZM270.465 52.658C270.177 52.334 269.997 51.866 269.925 51.272L269.871 50.876C269.799 51.272 269.619 51.65 269.367 51.992C269.097 52.352 268.755 52.64 268.341 52.856C267.909 53.072 267.441 53.18 266.919 53.18C266.163 53.18 265.533 52.964 265.047 52.532C264.561 52.1 264.327 51.542 264.327 50.858C264.327 50.246 264.525 49.742 264.957 49.346C265.389 48.95 266.001 48.716 266.793 48.644L269.529 48.428L269.403 47.51C269.295 46.664 269.043 45.998 268.647 45.512C268.251 45.044 267.729 44.792 267.081 44.792C266.559 44.792 266.109 44.954 265.713 45.242C265.317 45.53 265.029 45.926 264.831 46.412L264.597 46.358C264.705 45.926 264.921 45.494 265.245 45.08C265.569 44.684 265.965 44.342 266.451 44.09C266.937 43.838 267.477 43.694 268.071 43.694C268.971 43.694 269.709 43.982 270.267 44.558C270.825 45.134 271.167 45.962 271.311 47.024L271.833 51.002C271.923 51.686 272.157 52.01 272.553 52.01C272.661 52.01 272.769 51.974 272.859 51.866C272.949 51.776 273.003 51.65 273.039 51.488L273.255 51.506C273.219 51.938 273.075 52.316 272.787 52.64C272.499 52.982 272.121 53.144 271.653 53.144C271.149 53.144 270.753 52.982 270.465 52.658ZM266.613 51.632C266.919 51.956 267.333 52.118 267.873 52.118C268.413 52.118 268.863 51.956 269.223 51.632C269.565 51.308 269.763 50.912 269.817 50.462L269.565 48.698L267.801 48.842C267.261 48.896 266.847 49.076 266.559 49.364C266.271 49.652 266.145 50.03 266.145 50.462C266.145 50.93 266.289 51.308 266.613 51.632ZM279.353 52.766C279.749 52.766 280.073 52.676 280.307 52.496C280.541 52.316 280.667 52.01 280.667 51.56C280.667 51.416 280.649 51.29 280.649 51.2L280.091 47.078C279.875 45.548 279.245 44.774 278.219 44.774C277.751 44.774 277.337 44.972 277.013 45.35C276.689 45.746 276.491 46.196 276.455 46.736V51.182C276.455 51.776 276.563 52.19 276.779 52.424C276.995 52.658 277.301 52.766 277.715 52.766V53H273.251V52.766C273.647 52.766 273.953 52.658 274.169 52.406C274.385 52.172 274.511 51.758 274.511 51.182V45.836C274.511 45.404 274.403 45.116 274.223 44.936C274.043 44.756 273.737 44.666 273.323 44.648V44.414C274.475 44.342 275.465 44.108 276.293 43.712L276.455 43.802V45.962C276.617 45.314 276.941 44.774 277.427 44.342C277.913 43.91 278.489 43.694 279.173 43.694C279.947 43.694 280.577 43.982 281.081 44.522C281.567 45.062 281.891 45.908 282.053 47.024L282.665 51.2C282.737 51.776 282.881 52.19 283.115 52.424C283.331 52.658 283.637 52.766 284.033 52.766V53H279.353V52.766ZM290.1 52.658C289.812 52.334 289.632 51.866 289.56 51.272L289.506 50.876C289.434 51.272 289.254 51.65 289.002 51.992C288.732 52.352 288.39 52.64 287.976 52.856C287.544 53.072 287.076 53.18 286.554 53.18C285.798 53.18 285.168 52.964 284.682 52.532C284.196 52.1 283.962 51.542 283.962 50.858C283.962 50.246 284.16 49.742 284.592 49.346C285.024 48.95 285.636 48.716 286.428 48.644L289.164 48.428L289.038 47.51C288.93 46.664 288.678 45.998 288.282 45.512C287.886 45.044 287.364 44.792 286.716 44.792C286.194 44.792 285.744 44.954 285.348 45.242C284.952 45.53 284.664 45.926 284.466 46.412L284.232 46.358C284.34 45.926 284.556 45.494 284.88 45.08C285.204 44.684 285.6 44.342 286.086 44.09C286.572 43.838 287.112 43.694 287.706 43.694C288.606 43.694 289.344 43.982 289.902 44.558C290.46 45.134 290.802 45.962 290.946 47.024L291.468 51.002C291.558 51.686 291.792 52.01 292.188 52.01C292.296 52.01 292.404 51.974 292.494 51.866C292.584 51.776 292.638 51.65 292.674 51.488L292.89 51.506C292.854 51.938 292.71 52.316 292.422 52.64C292.134 52.982 291.756 53.144 291.288 53.144C290.784 53.144 290.388 52.982 290.1 52.658ZM286.248 51.632C286.554 51.956 286.968 52.118 287.508 52.118C288.048 52.118 288.498 51.956 288.858 51.632C289.2 51.308 289.398 50.912 289.452 50.462L289.2 48.698L287.436 48.842C286.896 48.896 286.482 49.076 286.194 49.364C285.906 49.652 285.78 50.03 285.78 50.462C285.78 50.93 285.924 51.308 286.248 51.632ZM67.168 76.28C66.664 75.686 66.304 74.768 66.106 73.526L65.476 69.674C65.368 69.098 65.206 68.702 64.972 68.468C64.72 68.234 64.414 68.108 64.018 68.108V67.874H68.41V68.108C67.708 68.108 67.366 68.468 67.366 69.188C67.366 69.404 67.366 69.566 67.402 69.674L67.942 72.986C68.086 73.958 68.338 74.696 68.68 75.182C69.004 75.686 69.49 75.92 70.138 75.92C70.606 75.92 71.056 75.758 71.506 75.398C71.956 75.038 72.316 74.57 72.604 73.958C72.874 73.364 73.018 72.716 73.018 71.996C73.018 71.204 72.856 70.556 72.55 70.088C72.244 69.62 71.83 69.368 71.308 69.368C71.056 69.368 70.804 69.422 70.588 69.512C70.48 69.566 70.354 69.584 70.21 69.584C69.958 69.584 69.742 69.512 69.562 69.332C69.382 69.152 69.31 68.936 69.31 68.648C69.31 68.396 69.4 68.162 69.58 67.982C69.76 67.802 70.012 67.712 70.372 67.712C70.876 67.712 71.344 67.874 71.794 68.162C72.244 68.45 72.604 68.9 72.892 69.494C73.18 70.106 73.324 70.844 73.324 71.708C73.324 72.698 73.126 73.616 72.748 74.444C72.352 75.29 71.848 75.956 71.218 76.442C70.588 76.946 69.922 77.18 69.22 77.18C68.356 77.18 67.672 76.892 67.168 76.28ZM74.689 65.966C74.455 65.714 74.347 65.408 74.347 65.012C74.347 64.652 74.455 64.364 74.689 64.13C74.923 63.896 75.229 63.77 75.607 63.77C75.985 63.77 76.291 63.896 76.525 64.13C76.759 64.364 76.885 64.652 76.885 65.012C76.885 65.408 76.759 65.714 76.525 65.966C76.291 66.218 75.985 66.326 75.607 66.326C75.229 66.326 74.923 66.218 74.689 65.966ZM73.537 76.766C73.933 76.766 74.239 76.658 74.455 76.406C74.671 76.172 74.797 75.758 74.797 75.182V69.836C74.797 69.404 74.689 69.116 74.509 68.936C74.329 68.756 74.023 68.666 73.609 68.648V68.414C74.761 68.342 75.751 68.108 76.579 67.712L76.741 67.802V75.182C76.741 75.776 76.849 76.19 77.065 76.424C77.281 76.658 77.587 76.766 78.001 76.766V77H73.537V76.766ZM78.5016 73.418L78.7356 73.364C79.0236 74.282 79.4376 75.092 79.9776 75.794C80.5176 76.514 81.2196 76.874 82.1196 76.874C82.6776 76.874 83.1276 76.73 83.4516 76.442C83.7756 76.154 83.9556 75.776 83.9736 75.326C83.9736 74.894 83.8116 74.516 83.5056 74.228C83.1816 73.94 82.6776 73.67 81.9576 73.418L80.8776 72.986C80.1216 72.698 79.5636 72.356 79.1676 71.924C78.7716 71.492 78.5916 70.952 78.5916 70.304C78.5916 69.836 78.7176 69.386 79.0056 68.99C79.2756 68.594 79.6536 68.288 80.1396 68.054C80.6256 67.838 81.1656 67.712 81.7416 67.712C82.2096 67.712 82.7496 67.82 83.3436 68.018C83.6676 68.126 83.8836 68.162 83.9916 68.162C84.2436 68.162 84.4416 67.982 84.5496 67.604L84.8016 67.586L85.0356 71.114L84.7836 71.15C84.6396 70.682 84.4236 70.214 84.1356 69.728C83.8476 69.242 83.4876 68.828 83.0736 68.486C82.6416 68.162 82.1916 67.982 81.7056 67.982C81.2196 67.982 80.8236 68.126 80.5356 68.414C80.2476 68.702 80.1036 69.062 80.1036 69.458C80.1036 69.854 80.2476 70.214 80.5536 70.502C80.8596 70.79 81.3456 71.06 81.9936 71.276L83.0556 71.708C83.8656 72.014 84.4596 72.374 84.8556 72.788C85.2516 73.202 85.4496 73.706 85.4496 74.3C85.4496 74.894 85.2876 75.398 84.9996 75.83C84.6936 76.262 84.2976 76.604 83.8116 76.82C83.3256 77.054 82.8036 77.162 82.2456 77.162C81.9216 77.162 81.6156 77.144 81.3636 77.09C81.0936 77.036 80.7876 76.964 80.4456 76.856C80.0676 76.748 79.8156 76.694 79.6896 76.694C79.5456 76.694 79.4196 76.748 79.3296 76.82C79.2396 76.892 79.1496 77.018 79.0776 77.198L78.8076 77.216L78.5016 73.418ZM87.5902 76.352C87.1582 75.794 86.9422 75.074 86.9422 74.174V68.594H85.8082V68.342C86.5462 68.27 87.1762 68.018 87.6802 67.55C88.1842 67.082 88.5082 66.452 88.6522 65.642H88.9042V67.874H91.5862L91.2802 68.594H88.9042V73.976C88.9042 74.588 89.0302 75.092 89.2822 75.47C89.5342 75.866 89.8942 76.046 90.3442 76.046C90.7042 76.046 90.9922 75.938 91.2262 75.686C91.4602 75.434 91.6222 75.128 91.7122 74.75L91.9282 74.786C91.8382 75.47 91.5682 76.028 91.1362 76.496C90.6862 76.964 90.1462 77.18 89.5342 77.18C88.6702 77.18 88.0222 76.91 87.5902 76.352ZM93.0581 65.966C92.8241 65.714 92.7161 65.408 92.7161 65.012C92.7161 64.652 92.8241 64.364 93.0581 64.13C93.2921 63.896 93.5981 63.77 93.9761 63.77C94.3541 63.77 94.6601 63.896 94.8941 64.13C95.1281 64.364 95.2541 64.652 95.2541 65.012C95.2541 65.408 95.1281 65.714 94.8941 65.966C94.6601 66.218 94.3541 66.326 93.9761 66.326C93.5981 66.326 93.2921 66.218 93.0581 65.966ZM91.9061 76.766C92.3021 76.766 92.6081 76.658 92.8241 76.406C93.0401 76.172 93.1661 75.758 93.1661 75.182V69.836C93.1661 69.404 93.0581 69.116 92.8781 68.936C92.6981 68.756 92.3921 68.666 91.9781 68.648V68.414C93.1301 68.342 94.1201 68.108 94.9481 67.712L95.1101 67.802V75.182C95.1101 75.776 95.2181 76.19 95.4341 76.424C95.6501 76.658 95.9561 76.766 96.3701 76.766V77H91.9061V76.766ZM106.751 76.658C106.463 76.334 106.283 75.866 106.211 75.272L106.157 74.876C106.085 75.272 105.905 75.65 105.653 75.992C105.383 76.352 105.041 76.64 104.627 76.856C104.195 77.072 103.727 77.18 103.205 77.18C102.449 77.18 101.819 76.964 101.333 76.532C100.847 76.1 100.613 75.542 100.613 74.858C100.613 74.246 100.811 73.742 101.243 73.346C101.675 72.95 102.287 72.716 103.079 72.644L105.815 72.428L105.689 71.51C105.581 70.664 105.329 69.998 104.933 69.512C104.537 69.044 104.015 68.792 103.367 68.792C102.845 68.792 102.395 68.954 101.999 69.242C101.603 69.53 101.315 69.926 101.117 70.412L100.883 70.358C100.991 69.926 101.207 69.494 101.531 69.08C101.855 68.684 102.251 68.342 102.737 68.09C103.223 67.838 103.763 67.694 104.357 67.694C105.257 67.694 105.995 67.982 106.553 68.558C107.111 69.134 107.453 69.962 107.597 71.024L108.119 75.002C108.209 75.686 108.443 76.01 108.839 76.01C108.947 76.01 109.055 75.974 109.145 75.866C109.235 75.776 109.289 75.65 109.325 75.488L109.541 75.506C109.505 75.938 109.361 76.316 109.073 76.64C108.785 76.982 108.407 77.144 107.939 77.144C107.435 77.144 107.039 76.982 106.751 76.658ZM102.899 75.632C103.205 75.956 103.619 76.118 104.159 76.118C104.699 76.118 105.149 75.956 105.509 75.632C105.851 75.308 106.049 74.912 106.103 74.462L105.851 72.698L104.087 72.842C103.547 72.896 103.133 73.076 102.845 73.364C102.557 73.652 102.431 74.03 102.431 74.462C102.431 74.93 102.575 75.308 102.899 75.632ZM110.969 76.352C110.537 75.794 110.321 75.074 110.321 74.174V68.594H109.187V68.342C109.925 68.27 110.555 68.018 111.059 67.55C111.563 67.082 111.887 66.452 112.031 65.642H112.283V67.874H114.965L114.659 68.594H112.283V73.976C112.283 74.588 112.409 75.092 112.661 75.47C112.913 75.866 113.273 76.046 113.723 76.046C114.083 76.046 114.371 75.938 114.605 75.686C114.839 75.434 115.001 75.128 115.091 74.75L115.307 74.786C115.217 75.47 114.947 76.028 114.515 76.496C114.065 76.964 113.525 77.18 112.913 77.18C112.049 77.18 111.401 76.91 110.969 76.352ZM117.051 76.352C116.619 75.794 116.403 75.074 116.403 74.174V68.594H115.269V68.342C116.007 68.27 116.637 68.018 117.141 67.55C117.645 67.082 117.969 66.452 118.113 65.642H118.365V67.874H121.047L120.741 68.594H118.365V73.976C118.365 74.588 118.491 75.092 118.743 75.47C118.995 75.866 119.355 76.046 119.805 76.046C120.165 76.046 120.453 75.938 120.687 75.686C120.921 75.434 121.083 75.128 121.173 74.75L121.389 74.786C121.299 75.47 121.029 76.028 120.597 76.496C120.147 76.964 119.607 77.18 118.995 77.18C118.131 77.18 117.483 76.91 117.051 76.352ZM121.367 76.766C121.763 76.766 122.069 76.658 122.285 76.406C122.501 76.172 122.627 75.758 122.627 75.182V69.836C122.627 69.404 122.537 69.116 122.357 68.936C122.177 68.756 121.871 68.666 121.439 68.648V68.414C122.591 68.342 123.581 68.108 124.409 67.712L124.571 67.802V69.764C124.715 69.206 124.985 68.72 125.381 68.306C125.777 67.91 126.227 67.694 126.767 67.694C127.181 67.694 127.523 67.838 127.793 68.09C128.045 68.36 128.189 68.666 128.189 69.008C128.189 69.314 128.081 69.566 127.901 69.782C127.721 69.998 127.469 70.088 127.163 70.088C126.947 70.088 126.785 70.052 126.659 69.944C126.533 69.854 126.425 69.728 126.353 69.584C126.281 69.44 126.209 69.296 126.173 69.152C126.101 69.008 126.047 68.918 125.993 68.846C125.921 68.792 125.849 68.756 125.741 68.756C125.453 68.756 125.201 68.936 124.985 69.26C124.769 69.602 124.625 69.998 124.571 70.448V75.182C124.571 75.758 124.715 76.172 125.003 76.406C125.291 76.658 125.687 76.766 126.209 76.766V77H121.367V76.766ZM134.402 76.658C134.114 76.334 133.934 75.866 133.862 75.272L133.808 74.876C133.736 75.272 133.556 75.65 133.304 75.992C133.034 76.352 132.692 76.64 132.278 76.856C131.846 77.072 131.378 77.18 130.856 77.18C130.1 77.18 129.47 76.964 128.984 76.532C128.498 76.1 128.264 75.542 128.264 74.858C128.264 74.246 128.462 73.742 128.894 73.346C129.326 72.95 129.938 72.716 130.73 72.644L133.466 72.428L133.34 71.51C133.232 70.664 132.98 69.998 132.584 69.512C132.188 69.044 131.666 68.792 131.018 68.792C130.496 68.792 130.046 68.954 129.65 69.242C129.254 69.53 128.966 69.926 128.768 70.412L128.534 70.358C128.642 69.926 128.858 69.494 129.182 69.08C129.506 68.684 129.902 68.342 130.388 68.09C130.874 67.838 131.414 67.694 132.008 67.694C132.908 67.694 133.646 67.982 134.204 68.558C134.762 69.134 135.104 69.962 135.248 71.024L135.77 75.002C135.86 75.686 136.094 76.01 136.49 76.01C136.598 76.01 136.706 75.974 136.796 75.866C136.886 75.776 136.94 75.65 136.976 75.488L137.192 75.506C137.156 75.938 137.012 76.316 136.724 76.64C136.436 76.982 136.058 77.144 135.59 77.144C135.086 77.144 134.69 76.982 134.402 76.658ZM130.55 75.632C130.856 75.956 131.27 76.118 131.81 76.118C132.35 76.118 132.8 75.956 133.16 75.632C133.502 75.308 133.7 74.912 133.754 74.462L133.502 72.698L131.738 72.842C131.198 72.896 130.784 73.076 130.496 73.364C130.208 73.652 130.082 74.03 130.082 74.462C130.082 74.93 130.226 75.308 130.55 75.632ZM139.098 76.28C138.594 75.686 138.234 74.768 138.036 73.526L137.406 69.674C137.298 69.098 137.136 68.702 136.902 68.468C136.65 68.234 136.344 68.108 135.948 68.108V67.874H140.34V68.108C139.638 68.108 139.296 68.468 139.296 69.188C139.296 69.404 139.296 69.566 139.332 69.674L139.872 72.986C140.016 73.958 140.268 74.696 140.61 75.182C140.934 75.686 141.42 75.92 142.068 75.92C142.536 75.92 142.986 75.758 143.436 75.398C143.886 75.038 144.246 74.57 144.534 73.958C144.804 73.364 144.948 72.716 144.948 71.996C144.948 71.204 144.786 70.556 144.48 70.088C144.174 69.62 143.76 69.368 143.238 69.368C142.986 69.368 142.734 69.422 142.518 69.512C142.41 69.566 142.284 69.584 142.14 69.584C141.888 69.584 141.672 69.512 141.492 69.332C141.312 69.152 141.24 68.936 141.24 68.648C141.24 68.396 141.33 68.162 141.51 67.982C141.69 67.802 141.942 67.712 142.302 67.712C142.806 67.712 143.274 67.874 143.724 68.162C144.174 68.45 144.534 68.9 144.822 69.494C145.11 70.106 145.254 70.844 145.254 71.708C145.254 72.698 145.056 73.616 144.678 74.444C144.282 75.29 143.778 75.956 143.148 76.442C142.518 76.946 141.852 77.18 141.15 77.18C140.286 77.18 139.602 76.892 139.098 76.28ZM148.211 76.55C147.581 76.136 147.095 75.56 146.753 74.84C146.393 74.12 146.231 73.346 146.231 72.482C146.231 71.582 146.411 70.772 146.807 70.052C147.203 69.332 147.725 68.756 148.409 68.324C149.075 67.91 149.813 67.694 150.605 67.694C151.289 67.694 151.901 67.856 152.405 68.162C152.909 68.486 153.305 68.9 153.575 69.422C153.845 69.962 153.989 70.538 153.989 71.15H148.139C148.121 71.222 148.121 71.33 148.121 71.456C148.121 72.302 148.247 73.04 148.517 73.688C148.769 74.336 149.147 74.84 149.633 75.2C150.119 75.56 150.695 75.722 151.343 75.722C152.063 75.722 152.675 75.506 153.179 75.074C153.683 74.642 154.007 74.084 154.151 73.364L154.403 73.4C154.295 74.12 154.043 74.768 153.683 75.344C153.323 75.92 152.855 76.37 152.279 76.694C151.703 77.018 151.073 77.18 150.389 77.18C149.561 77.18 148.841 76.982 148.211 76.55ZM151.307 70.844C151.559 70.844 151.757 70.79 151.865 70.664C151.973 70.538 152.045 70.322 152.045 70.034C152.045 69.53 151.901 69.062 151.649 68.63C151.379 68.198 150.983 67.964 150.461 67.964C149.921 67.964 149.417 68.252 148.985 68.81C148.535 69.386 148.265 70.052 148.157 70.844H151.307ZM154.326 76.766C154.722 76.766 155.028 76.658 155.244 76.406C155.46 76.172 155.586 75.758 155.586 75.182V69.836C155.586 69.404 155.496 69.116 155.316 68.936C155.136 68.756 154.83 68.666 154.398 68.648V68.414C155.55 68.342 156.54 68.108 157.368 67.712L157.53 67.802V69.764C157.674 69.206 157.944 68.72 158.34 68.306C158.736 67.91 159.186 67.694 159.726 67.694C160.14 67.694 160.482 67.838 160.752 68.09C161.004 68.36 161.148 68.666 161.148 69.008C161.148 69.314 161.04 69.566 160.86 69.782C160.68 69.998 160.428 70.088 160.122 70.088C159.906 70.088 159.744 70.052 159.618 69.944C159.492 69.854 159.384 69.728 159.312 69.584C159.24 69.44 159.168 69.296 159.132 69.152C159.06 69.008 159.006 68.918 158.952 68.846C158.88 68.792 158.808 68.756 158.7 68.756C158.412 68.756 158.16 68.936 157.944 69.26C157.728 69.602 157.584 69.998 157.53 70.448V75.182C157.53 75.758 157.674 76.172 157.962 76.406C158.25 76.658 158.646 76.766 159.168 76.766V77H154.326V76.766ZM161.488 73.418L161.722 73.364C162.01 74.282 162.424 75.092 162.964 75.794C163.504 76.514 164.206 76.874 165.106 76.874C165.664 76.874 166.114 76.73 166.438 76.442C166.762 76.154 166.942 75.776 166.96 75.326C166.96 74.894 166.798 74.516 166.492 74.228C166.168 73.94 165.664 73.67 164.944 73.418L163.864 72.986C163.108 72.698 162.55 72.356 162.154 71.924C161.758 71.492 161.578 70.952 161.578 70.304C161.578 69.836 161.704 69.386 161.992 68.99C162.262 68.594 162.64 68.288 163.126 68.054C163.612 67.838 164.152 67.712 164.728 67.712C165.196 67.712 165.736 67.82 166.33 68.018C166.654 68.126 166.87 68.162 166.978 68.162C167.23 68.162 167.428 67.982 167.536 67.604L167.788 67.586L168.022 71.114L167.77 71.15C167.626 70.682 167.41 70.214 167.122 69.728C166.834 69.242 166.474 68.828 166.06 68.486C165.628 68.162 165.178 67.982 164.692 67.982C164.206 67.982 163.81 68.126 163.522 68.414C163.234 68.702 163.09 69.062 163.09 69.458C163.09 69.854 163.234 70.214 163.54 70.502C163.846 70.79 164.332 71.06 164.98 71.276L166.042 71.708C166.852 72.014 167.446 72.374 167.842 72.788C168.238 73.202 168.436 73.706 168.436 74.3C168.436 74.894 168.274 75.398 167.986 75.83C167.68 76.262 167.284 76.604 166.798 76.82C166.312 77.054 165.79 77.162 165.232 77.162C164.908 77.162 164.602 77.144 164.35 77.09C164.08 77.036 163.774 76.964 163.432 76.856C163.054 76.748 162.802 76.694 162.676 76.694C162.532 76.694 162.406 76.748 162.316 76.82C162.226 76.892 162.136 77.018 162.064 77.198L161.794 77.216L161.488 73.418ZM171.526 76.55C170.824 76.136 170.266 75.56 169.87 74.822C169.456 74.102 169.258 73.292 169.258 72.392C169.258 71.474 169.456 70.664 169.87 69.944C170.266 69.224 170.824 68.684 171.526 68.288C172.21 67.892 172.966 67.694 173.794 67.694C174.622 67.694 175.378 67.91 176.062 68.306C176.746 68.72 177.304 69.278 177.718 69.998C178.114 70.718 178.33 71.528 178.33 72.428C178.33 73.346 178.132 74.174 177.736 74.894C177.34 75.614 176.782 76.19 176.098 76.586C175.414 76.982 174.658 77.18 173.83 77.18C172.984 77.18 172.21 76.982 171.526 76.55ZM172.354 75.722C172.858 76.478 173.47 76.838 174.154 76.838C174.838 76.838 175.36 76.514 175.738 75.848C176.098 75.2 176.296 74.336 176.296 73.274C176.296 72.932 176.26 72.5 176.206 71.996C176.044 70.808 175.72 69.854 175.216 69.134C174.712 68.414 174.136 68.036 173.47 68.036C172.768 68.036 172.228 68.378 171.85 69.044C171.472 69.728 171.292 70.592 171.292 71.636C171.292 72.068 171.31 72.446 171.364 72.788C171.508 73.994 171.85 74.966 172.354 75.722ZM183.673 65.966C183.439 65.714 183.331 65.408 183.331 65.012C183.331 64.652 183.439 64.364 183.673 64.13C183.907 63.896 184.213 63.77 184.591 63.77C184.969 63.77 185.275 63.896 185.509 64.13C185.743 64.364 185.869 64.652 185.869 65.012C185.869 65.408 185.743 65.714 185.509 65.966C185.275 66.218 184.969 66.326 184.591 66.326C184.213 66.326 183.907 66.218 183.673 65.966ZM182.521 76.766C182.917 76.766 183.223 76.658 183.439 76.406C183.655 76.172 183.781 75.758 183.781 75.182V69.836C183.781 69.404 183.673 69.116 183.493 68.936C183.313 68.756 183.007 68.666 182.593 68.648V68.414C183.745 68.342 184.735 68.108 185.563 67.712L185.725 67.802V75.182C185.725 75.776 185.833 76.19 186.049 76.424C186.265 76.658 186.571 76.766 186.985 76.766V77H182.521V76.766ZM187.004 76.766C187.4 76.766 187.706 76.658 187.922 76.406C188.138 76.172 188.264 75.758 188.264 75.182L188.318 65.822C188.318 65.39 188.21 65.084 188.03 64.904C187.85 64.724 187.544 64.634 187.13 64.634V64.4C188.282 64.328 189.272 64.094 190.1 63.698L190.262 63.788V75.182C190.262 75.758 190.37 76.172 190.586 76.406C190.802 76.658 191.126 76.766 191.522 76.766V77H187.004V76.766ZM202.785 75.272C202.497 75.848 202.119 76.316 201.687 76.658C201.237 77.018 200.733 77.18 200.175 77.18C199.311 77.18 198.627 76.892 198.123 76.28C197.619 75.686 197.259 74.768 197.061 73.526L196.413 69.674C196.305 69.098 196.143 68.702 195.909 68.468C195.657 68.234 195.351 68.108 194.955 68.108V67.874H199.311V68.108C198.645 68.108 198.321 68.468 198.321 69.17C198.321 69.386 198.321 69.566 198.357 69.674L198.879 72.986C199.041 73.958 199.293 74.678 199.617 75.146C199.941 75.632 200.427 75.866 201.057 75.866C201.669 75.866 202.227 75.596 202.695 75.02C202.533 74.588 202.407 74.102 202.317 73.526L201.669 69.674C201.561 69.098 201.399 68.702 201.183 68.468C200.949 68.234 200.643 68.108 200.283 68.108V67.874H204.567V68.108C203.901 68.108 203.577 68.468 203.577 69.188C203.577 69.404 203.577 69.566 203.613 69.674L204.153 72.986C204.297 73.958 204.549 74.696 204.891 75.164C205.215 75.632 205.701 75.866 206.313 75.866C206.817 75.866 207.303 75.704 207.753 75.362C208.203 75.038 208.563 74.57 208.851 73.994C209.121 73.418 209.265 72.77 209.265 72.086C209.265 71.294 209.103 70.628 208.779 70.124C208.455 69.62 208.041 69.368 207.501 69.368C207.285 69.368 207.033 69.422 206.781 69.512C206.673 69.566 206.529 69.584 206.385 69.584C206.133 69.584 205.917 69.512 205.737 69.332C205.557 69.17 205.485 68.954 205.485 68.684C205.485 68.396 205.575 68.162 205.755 67.982C205.935 67.802 206.187 67.712 206.547 67.712C207.051 67.712 207.537 67.874 208.005 68.162C208.473 68.45 208.851 68.9 209.139 69.494C209.427 70.106 209.589 70.844 209.589 71.708C209.589 72.698 209.391 73.616 209.013 74.444C208.635 75.29 208.131 75.956 207.501 76.442C206.871 76.946 206.205 77.18 205.503 77.18C204.225 77.18 203.325 76.55 202.785 75.272ZM212.565 76.55C211.935 76.136 211.449 75.56 211.107 74.84C210.747 74.12 210.585 73.346 210.585 72.482C210.585 71.582 210.765 70.772 211.161 70.052C211.557 69.332 212.079 68.756 212.763 68.324C213.429 67.91 214.167 67.694 214.959 67.694C215.643 67.694 216.255 67.856 216.759 68.162C217.263 68.486 217.659 68.9 217.929 69.422C218.199 69.962 218.343 70.538 218.343 71.15H212.493C212.475 71.222 212.475 71.33 212.475 71.456C212.475 72.302 212.601 73.04 212.871 73.688C213.123 74.336 213.501 74.84 213.987 75.2C214.473 75.56 215.049 75.722 215.697 75.722C216.417 75.722 217.029 75.506 217.533 75.074C218.037 74.642 218.361 74.084 218.505 73.364L218.757 73.4C218.649 74.12 218.397 74.768 218.037 75.344C217.677 75.92 217.209 76.37 216.633 76.694C216.057 77.018 215.427 77.18 214.743 77.18C213.915 77.18 213.195 76.982 212.565 76.55ZM215.661 70.844C215.913 70.844 216.111 70.79 216.219 70.664C216.327 70.538 216.399 70.322 216.399 70.034C216.399 69.53 216.255 69.062 216.003 68.63C215.733 68.198 215.337 67.964 214.814 67.964C214.275 67.964 213.771 68.252 213.339 68.81C212.889 69.386 212.619 70.052 212.511 70.844H215.661ZM221.613 76.856C220.947 76.64 220.353 76.352 219.813 75.992V65.822C219.813 65.39 219.705 65.084 219.525 64.904C219.345 64.724 219.039 64.634 218.625 64.634V64.4C219.777 64.328 220.767 64.094 221.595 63.698L221.757 63.788V69.89C221.919 69.332 222.261 68.828 222.783 68.396C223.287 67.964 223.899 67.73 224.601 67.73C225.303 67.73 225.933 67.946 226.491 68.378C227.031 68.81 227.463 69.368 227.769 70.07C228.057 70.79 228.219 71.546 228.219 72.356C228.219 73.292 228.021 74.138 227.625 74.858C227.229 75.596 226.671 76.172 225.987 76.568C225.303 76.982 224.529 77.18 223.701 77.18C222.981 77.18 222.279 77.072 221.613 76.856ZM222.261 76.01C222.603 76.622 223.125 76.91 223.809 76.91C224.529 76.91 225.123 76.55 225.555 75.812C225.987 75.092 226.203 74.138 226.203 72.968C226.203 72.104 226.077 71.348 225.861 70.7C225.645 70.07 225.339 69.584 224.961 69.26C224.565 68.936 224.133 68.756 223.647 68.756C223.179 68.756 222.783 68.936 222.441 69.26C222.081 69.584 221.865 69.998 221.757 70.502V73.166C221.757 74.462 221.919 75.398 222.261 76.01Z" fill="#1A1A1A"/>
</svg>
