<?xml version="1.0" encoding="UTF-8"?><svg id="Layer_1" xmlns="http://www.w3.org/2000/svg" xmlns:xlink="http://www.w3.org/1999/xlink" viewBox="0 0 100 100"><defs><style>.cls-1{clip-path:url(#clippath);}.cls-2{fill:none;}.cls-2,.grid{stroke-width:0px;}.grid{fill:#ec008c;}</style><clipPath id="clippath"><rect class="cls-2" width="100" height="100"/></clipPath></defs><g class="cls-1"><rect class="grid" x="-12.32" y="-36.72" width=".91" height="131.67" transform="translate(8.42 5.09) rotate(18)"/><rect class="grid" x="-8.59" y="-35.51" width=".91" height="131.67" transform="translate(8.97 4) rotate(18)"/><rect class="grid" x="-4.86" y="-34.3" width=".91" height="131.67" transform="translate(9.53 2.9) rotate(18)"/><rect class="grid" x="-1.14" y="-33.08" width=".91" height="131.67" transform="translate(10.09 1.81) rotate(18)"/><rect class="grid" x="2.59" y="-31.87" width=".91" height="131.67" transform="translate(10.64 .72) rotate(18)"/><rect class="grid" x="6.32" y="-30.66" width=".91" height="131.67" transform="translate(11.2 -.37) rotate(18)"/><rect class="grid" x="10.05" y="-29.45" width=".91" height="131.67" transform="translate(11.76 -1.46) rotate(18)"/><rect class="grid" x="13.77" y="-28.24" width=".91" height="131.67" transform="translate(12.31 -2.56) rotate(18)"/><rect class="grid" x="17.5" y="-27.03" width=".91" height="131.67" transform="translate(12.87 -3.65) rotate(18)"/><rect class="grid" x="21.23" y="-25.82" width=".91" height="131.67" transform="translate(13.43 -4.74) rotate(18)"/><rect class="grid" x="24.95" y="-24.61" width=".91" height="131.67" transform="translate(13.98 -5.83) rotate(18)"/><rect class="grid" x="28.68" y="-23.4" width=".91" height="131.67" transform="translate(14.54 -6.93) rotate(18)"/><rect class="grid" x="32.41" y="-22.19" width=".91" height="131.67" transform="translate(15.1 -8.02) rotate(18)"/><rect class="grid" x="36.13" y="-20.97" width=".91" height="131.67" transform="translate(15.65 -9.11) rotate(18)"/><rect class="grid" x="39.86" y="-19.76" width=".91" height="131.67" transform="translate(16.21 -10.2) rotate(18)"/><rect class="grid" x="43.59" y="-18.55" width=".91" height="131.67" transform="translate(16.77 -11.3) rotate(18)"/><rect class="grid" x="47.32" y="-17.34" width=".91" height="131.67" transform="translate(17.32 -12.39) rotate(18)"/><rect class="grid" x="51.04" y="-16.13" width=".91" height="131.67" transform="translate(17.88 -13.48) rotate(18)"/><rect class="grid" x="54.77" y="-14.92" width=".91" height="131.67" transform="translate(18.44 -14.57) rotate(18)"/><rect class="grid" x="58.5" y="-13.71" width=".91" height="131.67" transform="translate(18.99 -15.67) rotate(18)"/><rect class="grid" x="62.22" y="-12.5" width=".91" height="131.67" transform="translate(19.55 -16.76) rotate(18)"/><rect class="grid" x="65.95" y="-11.29" width=".91" height="131.67" transform="translate(20.11 -17.85) rotate(18)"/><rect class="grid" x="69.68" y="-10.08" width=".91" height="131.67" transform="translate(20.66 -18.94) rotate(18)"/><rect class="grid" x="73.4" y="-8.86" width=".91" height="131.67" transform="translate(21.22 -20.04) rotate(18)"/><rect class="grid" x="77.13" y="-7.65" width=".91" height="131.67" transform="translate(21.78 -21.13) rotate(18)"/><rect class="grid" x="80.86" y="-6.44" width=".91" height="131.67" transform="translate(22.33 -22.22) rotate(18)"/><rect class="grid" x="84.59" y="-5.23" width=".91" height="131.67" transform="translate(22.89 -23.31) rotate(18)"/><rect class="grid" x="88.31" y="-4.02" width=".91" height="131.67" transform="translate(23.45 -24.41) rotate(18)"/><rect class="grid" x="92.04" y="-2.81" width=".91" height="131.67" transform="translate(24 -25.5) rotate(18)"/><rect class="grid" x="95.77" y="-1.6" width=".91" height="131.67" transform="translate(24.56 -26.59) rotate(18)"/><rect class="grid" x="99.49" y="-.39" width=".91" height="131.67" transform="translate(25.12 -27.68) rotate(18)"/><rect class="grid" x="103.22" y=".82" width=".91" height="131.67" transform="translate(25.67 -28.78) rotate(18)"/><rect class="grid" x="106.95" y="2.03" width=".91" height="131.67" transform="translate(26.23 -29.87) rotate(18)"/><rect class="grid" x="110.67" y="3.24" width=".91" height="131.67" transform="translate(26.79 -30.96) rotate(18)"/><rect class="grid" x="-12.32" y="-36.72" width=".91" height="131.67" transform="translate(8.42 5.09) rotate(18)"/><rect class="grid" x="-8.59" y="-35.51" width=".91" height="131.67" transform="translate(8.97 4) rotate(18)"/><rect class="grid" x="-16.04" y="-37.93" width=".91" height="131.67" transform="translate(7.86 6.18) rotate(18)"/><rect class="grid" x="-19.77" y="-39.14" width=".91" height="131.67" transform="translate(7.3 7.27) rotate(18)"/><rect class="grid" x="-4.86" y="-34.3" width=".91" height="131.67" transform="translate(9.53 2.9) rotate(18)"/><rect class="grid" x="-1.14" y="-33.08" width=".91" height="131.67" transform="translate(10.09 1.81) rotate(18)"/><rect class="grid" x="2.59" y="-31.87" width=".91" height="131.67" transform="translate(10.64 .72) rotate(18)"/><rect class="grid" x="6.32" y="-30.66" width=".91" height="131.67" transform="translate(11.2 -.37) rotate(18)"/><rect class="grid" x="10.05" y="-29.45" width=".91" height="131.67" transform="translate(11.76 -1.46) rotate(18)"/><rect class="grid" x="13.77" y="-28.24" width=".91" height="131.67" transform="translate(12.31 -2.56) rotate(18)"/><rect class="grid" x="17.5" y="-27.03" width=".91" height="131.67" transform="translate(12.87 -3.65) rotate(18)"/><rect class="grid" x="21.23" y="-25.82" width=".91" height="131.67" transform="translate(13.43 -4.74) rotate(18)"/><rect class="grid" x="24.95" y="-24.61" width=".91" height="131.67" transform="translate(13.98 -5.83) rotate(18)"/><rect class="grid" x="28.68" y="-23.4" width=".91" height="131.67" transform="translate(14.54 -6.93) rotate(18)"/><rect class="grid" x="32.41" y="-22.19" width=".91" height="131.67" transform="translate(15.1 -8.02) rotate(18)"/><rect class="grid" x="36.13" y="-20.97" width=".91" height="131.67" transform="translate(15.65 -9.11) rotate(18)"/><rect class="grid" x="39.86" y="-19.76" width=".91" height="131.67" transform="translate(16.21 -10.2) rotate(18)"/><rect class="grid" x="43.59" y="-18.55" width=".91" height="131.67" transform="translate(16.77 -11.3) rotate(18)"/><rect class="grid" x="47.32" y="-17.34" width=".91" height="131.67" transform="translate(17.32 -12.39) rotate(18)"/><rect class="grid" x="51.04" y="-16.13" width=".91" height="131.67" transform="translate(17.88 -13.48) rotate(18)"/><rect class="grid" x="54.77" y="-14.92" width=".91" height="131.67" transform="translate(18.44 -14.57) rotate(18)"/><rect class="grid" x="58.5" y="-13.71" width=".91" height="131.67" transform="translate(18.99 -15.67) rotate(18)"/><rect class="grid" x="62.22" y="-12.5" width=".91" height="131.67" transform="translate(19.55 -16.76) rotate(18)"/><rect class="grid" x="65.95" y="-11.29" width=".91" height="131.67" transform="translate(20.11 -17.85) rotate(18)"/><rect class="grid" x="69.68" y="-10.08" width=".91" height="131.67" transform="translate(20.66 -18.94) rotate(18)"/><rect class="grid" x="73.4" y="-8.86" width=".91" height="131.67" transform="translate(21.22 -20.04) rotate(18)"/><rect class="grid" x="77.13" y="-7.65" width=".91" height="131.67" transform="translate(21.78 -21.13) rotate(18)"/><rect class="grid" x="80.86" y="-6.44" width=".91" height="131.67" transform="translate(22.33 -22.22) rotate(18)"/><rect class="grid" x="84.59" y="-5.23" width=".91" height="131.67" transform="translate(22.89 -23.31) rotate(18)"/><rect class="grid" x="88.31" y="-4.02" width=".91" height="131.67" transform="translate(23.45 -24.41) rotate(18)"/><rect class="grid" x="92.04" y="-2.81" width=".91" height="131.67" transform="translate(24 -25.5) rotate(18)"/><rect class="grid" x="95.77" y="-1.6" width=".91" height="131.67" transform="translate(24.56 -26.59) rotate(18)"/><rect class="grid" x="99.49" y="-.39" width=".91" height="131.67" transform="translate(25.12 -27.68) rotate(18)"/><rect class="grid" x="103.22" y=".82" width=".91" height="131.67" transform="translate(25.67 -28.78) rotate(18)"/><rect class="grid" x="106.95" y="2.03" width=".91" height="131.67" transform="translate(26.23 -29.87) rotate(18)"/><rect class="grid" x="114.4" y="4.46" width=".91" height="131.67" transform="translate(27.34 -32.05) rotate(18)"/><rect class="grid" x="118.13" y="5.67" width=".91" height="131.67" transform="translate(27.9 -33.15) rotate(18)"/><rect class="grid" x="110.67" y="3.24" width=".91" height="131.67" transform="translate(26.79 -30.96) rotate(18)"/><rect class="grid" x="69.16" y="-78.23" width=".91" height="131.67" transform="translate(79.34 -82.44) rotate(108)"/><rect class="grid" x="67.95" y="-74.5" width=".91" height="131.67" transform="translate(81.3 -76.41) rotate(108)"/><rect class="grid" x="66.74" y="-70.78" width=".91" height="131.67" transform="translate(83.26 -70.38) rotate(108)"/><rect class="grid" x="65.53" y="-67.05" width=".91" height="131.67" transform="translate(85.22 -64.35) rotate(108)"/><rect class="grid" x="64.32" y="-63.32" width=".91" height="131.67" transform="translate(87.18 -58.31) rotate(108)"/><rect class="grid" x="63.11" y="-59.6" width=".91" height="131.67" transform="translate(89.14 -52.28) rotate(108)"/><rect class="grid" x="61.89" y="-55.87" width=".91" height="131.67" transform="translate(91.1 -46.25) rotate(108)"/><rect class="grid" x="60.68" y="-52.14" width=".91" height="131.67" transform="translate(93.06 -40.22) rotate(108)"/><rect class="grid" x="59.47" y="-48.42" width=".91" height="131.67" transform="translate(95.02 -34.19) rotate(108)"/><rect class="grid" x="58.26" y="-44.69" width=".91" height="131.67" transform="translate(96.98 -28.16) rotate(108)"/><rect class="grid" x="57.05" y="-40.96" width=".91" height="131.67" transform="translate(98.94 -22.13) rotate(108)"/><rect class="grid" x="55.84" y="-37.23" width=".91" height="131.67" transform="translate(100.89 -16.1) rotate(108)"/><rect class="grid" x="54.63" y="-33.51" width=".91" height="131.67" transform="translate(102.85 -10.07) rotate(108)"/><rect class="grid" x="53.42" y="-29.78" width=".91" height="131.67" transform="translate(104.81 -4.04) rotate(108)"/><rect class="grid" x="52.21" y="-26.05" width=".91" height="131.67" transform="translate(106.77 1.99) rotate(108)"/><rect class="grid" x="51" y="-22.33" width=".91" height="131.67" transform="translate(108.73 8.02) rotate(108)"/><rect class="grid" x="49.78" y="-18.6" width=".91" height="131.67" transform="translate(110.69 14.05) rotate(108)"/><rect class="grid" x="48.57" y="-14.87" width=".91" height="131.67" transform="translate(112.65 20.08) rotate(108)"/><rect class="grid" x="47.36" y="-11.15" width=".91" height="131.67" transform="translate(114.61 26.11) rotate(108)"/><rect class="grid" x="46.15" y="-7.42" width=".91" height="131.67" transform="translate(116.57 32.14) rotate(108)"/><rect class="grid" x="44.94" y="-3.69" width=".91" height="131.67" transform="translate(118.53 38.17) rotate(108)"/><rect class="grid" x="43.73" y=".04" width=".91" height="131.67" transform="translate(120.49 44.2) rotate(108)"/><rect class="grid" x="42.52" y="3.76" width=".91" height="131.67" transform="translate(122.45 50.23) rotate(108)"/><rect class="grid" x="41.31" y="7.49" width=".91" height="131.67" transform="translate(124.41 56.26) rotate(108)"/><rect class="grid" x="40.1" y="11.22" width=".91" height="131.67" transform="translate(126.37 62.29) rotate(108)"/><rect class="grid" x="38.89" y="14.94" width=".91" height="131.67" transform="translate(128.33 68.32) rotate(108)"/><rect class="grid" x="37.68" y="18.67" width=".91" height="131.67" transform="translate(130.29 74.35) rotate(108)"/><rect class="grid" x="36.46" y="22.4" width=".91" height="131.67" transform="translate(132.25 80.38) rotate(108)"/><rect class="grid" x="35.25" y="26.12" width=".91" height="131.67" transform="translate(134.2 86.41) rotate(108)"/><rect class="grid" x="34.04" y="29.85" width=".91" height="131.67" transform="translate(136.16 92.45) rotate(108)"/><rect class="grid" x="32.83" y="33.58" width=".91" height="131.67" transform="translate(138.12 98.48) rotate(108)"/><rect class="grid" x="31.62" y="37.31" width=".91" height="131.67" transform="translate(140.08 104.51) rotate(108)"/><rect class="grid" x="30.41" y="41.03" width=".91" height="131.67" transform="translate(142.04 110.54) rotate(108)"/><rect class="grid" x="29.2" y="44.76" width=".91" height="131.67" transform="translate(144 116.57) rotate(108)"/><rect class="grid" x="69.16" y="-78.23" width=".91" height="131.67" transform="translate(79.34 -82.44) rotate(108)"/><rect class="grid" x="67.95" y="-74.5" width=".91" height="131.67" transform="translate(81.3 -76.41) rotate(108)"/><rect class="grid" x="70.37" y="-81.96" width=".91" height="131.67" transform="translate(77.38 -88.47) rotate(108)"/><rect class="grid" x="71.58" y="-85.69" width=".91" height="131.67" transform="translate(75.42 -94.5) rotate(108)"/><rect class="grid" x="66.74" y="-70.78" width=".91" height="131.67" transform="translate(83.26 -70.38) rotate(108)"/><rect class="grid" x="65.53" y="-67.05" width=".91" height="131.67" transform="translate(85.22 -64.35) rotate(108)"/><rect class="grid" x="64.32" y="-63.32" width=".91" height="131.67" transform="translate(87.18 -58.31) rotate(108)"/><rect class="grid" x="63.11" y="-59.6" width=".91" height="131.67" transform="translate(89.14 -52.28) rotate(108)"/><rect class="grid" x="61.89" y="-55.87" width=".91" height="131.67" transform="translate(91.1 -46.25) rotate(108)"/><rect class="grid" x="60.68" y="-52.14" width=".91" height="131.67" transform="translate(93.06 -40.22) rotate(108)"/><rect class="grid" x="59.47" y="-48.42" width=".91" height="131.67" transform="translate(95.02 -34.19) rotate(108)"/><rect class="grid" x="58.26" y="-44.69" width=".91" height="131.67" transform="translate(96.98 -28.16) rotate(108)"/><rect class="grid" x="57.05" y="-40.96" width=".91" height="131.67" transform="translate(98.94 -22.13) rotate(108)"/><rect class="grid" x="55.84" y="-37.23" width=".91" height="131.67" transform="translate(100.89 -16.1) rotate(108)"/><rect class="grid" x="54.63" y="-33.51" width=".91" height="131.67" transform="translate(102.85 -10.07) rotate(108)"/><rect class="grid" x="53.42" y="-29.78" width=".91" height="131.67" transform="translate(104.81 -4.04) rotate(108)"/><rect class="grid" x="52.21" y="-26.05" width=".91" height="131.67" transform="translate(106.77 1.99) rotate(108)"/><rect class="grid" x="51" y="-22.33" width=".91" height="131.67" transform="translate(108.73 8.02) rotate(108)"/><rect class="grid" x="49.78" y="-18.6" width=".91" height="131.67" transform="translate(110.69 14.05) rotate(108)"/><rect class="grid" x="48.57" y="-14.87" width=".91" height="131.67" transform="translate(112.65 20.08) rotate(108)"/><rect class="grid" x="47.36" y="-11.15" width=".91" height="131.67" transform="translate(114.61 26.11) rotate(108)"/><rect class="grid" x="46.15" y="-7.42" width=".91" height="131.67" transform="translate(116.57 32.14) rotate(108)"/><rect class="grid" x="44.94" y="-3.69" width=".91" height="131.67" transform="translate(118.53 38.17) rotate(108)"/><rect class="grid" x="43.73" y=".04" width=".91" height="131.67" transform="translate(120.49 44.2) rotate(108)"/><rect class="grid" x="42.52" y="3.76" width=".91" height="131.67" transform="translate(122.45 50.23) rotate(108)"/><rect class="grid" x="41.31" y="7.49" width=".91" height="131.67" transform="translate(124.41 56.26) rotate(108)"/><rect class="grid" x="40.1" y="11.22" width=".91" height="131.67" transform="translate(126.37 62.29) rotate(108)"/><rect class="grid" x="38.89" y="14.94" width=".91" height="131.67" transform="translate(128.33 68.32) rotate(108)"/><rect class="grid" x="37.68" y="18.67" width=".91" height="131.67" transform="translate(130.29 74.35) rotate(108)"/><rect class="grid" x="36.46" y="22.4" width=".91" height="131.67" transform="translate(132.25 80.38) rotate(108)"/><rect class="grid" x="35.25" y="26.12" width=".91" height="131.67" transform="translate(134.2 86.41) rotate(108)"/><rect class="grid" x="34.04" y="29.85" width=".91" height="131.67" transform="translate(136.16 92.45) rotate(108)"/><rect class="grid" x="32.83" y="33.58" width=".91" height="131.67" transform="translate(138.12 98.48) rotate(108)"/><rect class="grid" x="31.62" y="37.31" width=".91" height="131.67" transform="translate(140.08 104.51) rotate(108)"/><rect class="grid" x="30.41" y="41.03" width=".91" height="131.67" transform="translate(142.04 110.54) rotate(108)"/><rect class="grid" x="27.99" y="48.49" width=".91" height="131.67" transform="translate(145.96 122.6) rotate(108)"/><rect class="grid" x="26.78" y="52.21" width=".91" height="131.67" transform="translate(147.92 128.63) rotate(108)"/><rect class="grid" x="29.2" y="44.76" width=".91" height="131.67" transform="translate(144 116.57) rotate(108)"/></g></svg>