<svg viewBox="0 0 237 177" fill="none" xmlns="http://www.w3.org/2000/svg">
<path d="M58.043 47.168C59.771 47.168 61.435 46.528 62.971 45.12C64.507 43.776 65.787 41.6 66.875 38.656L75.323 15.36C76.091 13.184 76.475 11.456 76.475 10.112C76.475 7.36 74.939 5.952 71.867 5.952V5.056C73.403 5.056 75.067 4.8 76.731 4.288C78.395 3.776 79.995 3.008 81.403 2.048L82.235 2.368L96.635 41.792C97.339 43.84 98.171 45.248 99.195 46.016C100.155 46.784 101.371 47.168 102.779 47.168V48H85.627V47.168C88.123 47.168 89.403 46.208 89.403 44.288C89.403 43.52 89.211 42.688 88.891 41.792L86.203 34.176H70.075L68.475 38.656C67.963 40.128 67.707 41.408 67.707 42.496C67.707 44.096 68.155 45.248 69.179 46.016C70.139 46.784 71.483 47.168 73.211 47.168V48H58.043V47.168ZM85.819 33.088L78.203 11.584L70.459 33.088H85.819ZM100.256 59.968C101.664 59.968 102.752 59.584 103.52 58.688C104.288 57.856 104.736 56.384 104.736 54.336V22.528C104.736 20.992 104.352 19.968 103.712 19.328C103.072 18.688 101.984 18.368 100.512 18.304V17.472C104.608 17.216 108.128 16.384 111.072 14.976L111.648 15.296V21.952C112.224 20.288 113.44 18.688 115.296 17.216C117.152 15.808 119.392 15.04 121.952 15.04C124.384 15.04 126.624 15.808 128.608 17.216C130.592 18.688 132.128 20.672 133.28 23.168C134.432 25.728 135.008 28.48 135.008 31.552C135.008 34.688 134.304 37.568 133.024 40.192C131.68 42.816 129.888 44.864 127.584 46.4C125.28 47.936 122.72 48.64 120.032 48.64C116.64 48.64 113.824 47.424 111.648 44.864V54.336C111.648 56.448 112.096 57.92 113.056 58.752C113.952 59.584 115.296 59.968 117.024 59.968V60.8H100.256V59.968ZM113.76 43.904C115.168 46.272 117.088 47.424 119.52 47.424C121.056 47.424 122.464 46.912 123.744 45.76C125.024 44.608 125.984 43.008 126.688 40.96C127.392 38.912 127.776 36.608 127.776 33.92C127.776 30.72 127.328 27.968 126.496 25.664C125.664 23.36 124.512 21.632 123.104 20.416C121.696 19.264 120.096 18.624 118.368 18.624C116.704 18.624 115.36 19.136 114.208 20.16C113.056 21.184 112.16 22.464 111.648 24V35.072C111.648 38.656 112.352 41.6 113.76 43.904ZM139.422 8.768C138.59 7.872 138.206 6.784 138.206 5.376C138.206 4.096 138.59 3.072 139.422 2.24C140.254 1.408 141.342 0.959999 142.686 0.959999C144.03 0.959999 145.118 1.408 145.95 2.24C146.782 3.072 147.23 4.096 147.23 5.376C147.23 6.784 146.782 7.872 145.95 8.768C145.118 9.664 144.03 10.048 142.686 10.048C141.342 10.048 140.254 9.664 139.422 8.768ZM135.326 47.168C136.734 47.168 137.822 46.784 138.59 45.888C139.358 45.056 139.806 43.584 139.806 41.536V22.528C139.806 20.992 139.422 19.968 138.782 19.328C138.142 18.688 137.054 18.368 135.582 18.304V17.472C139.678 17.216 143.198 16.384 146.142 14.976L146.718 15.296V41.536C146.718 43.648 147.102 45.12 147.87 45.952C148.638 46.784 149.726 47.168 151.198 47.168V48H135.326V47.168ZM158.269 53.44C159.293 52.288 159.869 51.136 159.869 49.984C159.869 49.344 159.677 48.896 159.357 48.576C158.973 48.256 158.461 47.872 157.757 47.488C156.797 47.04 156.093 46.528 155.645 46.016C155.133 45.504 154.941 44.672 154.941 43.52C154.941 42.368 155.325 41.408 156.157 40.64C156.925 39.872 157.885 39.424 159.037 39.424C160.445 39.424 161.533 40 162.429 41.152C163.261 42.304 163.709 43.712 163.709 45.376C163.709 48.192 162.749 50.56 160.957 52.608C159.165 54.656 157.053 56.128 154.749 56.896L154.429 56.064C155.901 55.488 157.181 54.592 158.269 53.44ZM35.534 124.16C33.678 123.392 32.27 122.368 31.31 121.088C30.35 119.872 29.902 118.592 29.902 117.248C29.902 116.352 30.478 115.456 31.63 114.56C32.782 113.728 34.382 112.832 36.43 111.936C34.702 111.552 33.358 110.848 32.398 109.696C31.438 108.544 30.99 107.264 30.99 105.792C30.99 105.28 31.054 104.832 31.31 104.576C31.502 104.32 32.014 103.872 32.846 103.296L34.382 102.208L37.006 100.224C34.958 99.328 33.358 97.984 32.206 96.256C31.054 94.592 30.478 92.608 30.478 90.368C30.478 88.128 31.054 86.144 32.206 84.352C33.358 82.56 35.022 81.216 37.134 80.192C39.182 79.232 41.614 78.72 44.302 78.72C45.134 78.72 46.35 78.848 48.014 79.104C50.19 79.424 51.982 79.552 53.518 79.552H60.174L59.086 82.112L52.878 81.984C54.414 83.072 55.566 84.352 56.398 85.824C57.166 87.36 57.614 88.896 57.614 90.56C57.614 92.736 57.038 94.72 55.886 96.384C54.734 98.048 53.198 99.392 51.15 100.288C49.102 101.248 46.798 101.696 44.11 101.696C41.742 101.696 39.63 101.312 37.774 100.544C36.878 101.312 36.238 101.952 35.982 102.336C35.662 102.72 35.534 103.104 35.534 103.36C35.534 105.088 36.814 105.92 39.374 105.92H51.406C53.966 105.92 55.95 106.368 57.422 107.264C58.894 108.16 59.662 109.696 59.662 111.872C59.662 114.048 58.83 116.16 57.294 118.208C55.758 120.32 53.582 122.048 50.894 123.392C48.206 124.736 45.198 125.376 41.934 125.376C39.502 125.376 37.326 124.992 35.534 124.16ZM38.606 120.192C40.398 121.344 42.766 121.92 45.71 121.92C48.014 121.92 49.998 121.6 51.79 120.896C53.518 120.256 54.862 119.36 55.822 118.336C56.782 117.312 57.294 116.224 57.294 115.136C57.294 114.24 56.91 113.472 56.142 112.96C55.374 112.448 54.286 112.128 52.814 112.128H38.606H37.838C37.07 112.768 36.43 113.408 36.046 113.984C35.662 114.56 35.47 115.264 35.534 116.032C35.726 117.696 36.75 119.04 38.606 120.192ZM39.246 97.472C40.718 99.584 42.638 100.608 44.942 100.608C46.798 100.608 48.27 99.776 49.422 97.984C50.51 96.192 51.086 94.016 51.086 91.392C51.086 89.344 50.702 87.488 50.062 85.696C49.422 83.904 48.462 82.496 47.31 81.408C46.158 80.384 44.814 79.808 43.406 79.808C41.358 79.808 39.822 80.768 38.734 82.688C37.582 84.608 37.07 86.784 37.07 89.344C37.07 92.672 37.774 95.424 39.246 97.472ZM61.2635 111.168C62.6715 111.168 63.7595 110.784 64.5275 109.888C65.2955 109.056 65.7435 107.584 65.7435 105.536L65.9355 72.256C65.9355 70.72 65.5515 69.632 64.9115 68.992C64.2715 68.352 63.1835 68.032 61.7115 68.032V67.2C65.8075 66.944 69.3275 66.112 72.2715 64.704L72.8475 65.024V105.536C72.8475 107.584 73.2315 109.056 73.9995 109.888C74.7675 110.784 75.9195 111.168 77.3275 111.168V112H61.2635V111.168ZM82.1095 72.768C81.2775 71.872 80.8935 70.784 80.8935 69.376C80.8935 68.096 81.2775 67.072 82.1095 66.24C82.9415 65.408 84.0295 64.96 85.3735 64.96C86.7175 64.96 87.8055 65.408 88.6375 66.24C89.4695 67.072 89.9175 68.096 89.9175 69.376C89.9175 70.784 89.4695 71.872 88.6375 72.768C87.8055 73.664 86.7175 74.048 85.3735 74.048C84.0295 74.048 82.9415 73.664 82.1095 72.768ZM78.0135 111.168C79.4215 111.168 80.5095 110.784 81.2775 109.888C82.0455 109.056 82.4935 107.584 82.4935 105.536V86.528C82.4935 84.992 82.1095 83.968 81.4695 83.328C80.8295 82.688 79.7415 82.368 78.2695 82.304V81.472C82.3655 81.216 85.8855 80.384 88.8295 78.976L89.4055 79.296V105.536C89.4055 107.648 89.7895 109.12 90.5575 109.952C91.3255 110.784 92.4135 111.168 93.8855 111.168V112H78.0135V111.168ZM101.657 110.528C99.3525 109.12 97.4965 107.136 96.1525 104.64C94.8085 102.144 94.1685 99.328 94.1685 96.192C94.1685 93.056 94.8725 90.176 96.3445 87.488C97.7525 84.864 99.7365 82.752 102.233 81.216C104.665 79.68 107.353 78.912 110.297 78.912C112.473 78.912 114.393 79.36 116.121 80.256C117.785 81.152 119.129 82.368 120.089 83.776C121.049 85.184 121.561 86.72 121.561 88.256C121.561 89.536 121.177 90.56 120.473 91.264C119.769 92.032 118.937 92.352 117.913 92.352C116.889 92.352 116.121 92.032 115.545 91.392C114.905 90.752 114.649 89.984 114.649 88.96C114.649 88.448 114.841 87.68 115.225 86.72C115.609 85.888 115.801 85.12 115.801 84.48C115.801 83.264 115.289 82.176 114.265 81.28C113.241 80.384 112.025 79.936 110.489 79.936C108.633 79.936 106.969 80.576 105.433 81.728C103.897 82.88 102.681 84.544 101.785 86.592C100.889 88.704 100.441 91.008 100.441 93.568C100.441 96.384 100.953 98.816 102.105 100.864C103.193 102.976 104.665 104.576 106.457 105.728C108.249 106.88 110.233 107.392 112.409 107.392C114.969 107.392 117.209 106.624 119.065 105.088C120.921 103.552 122.073 101.504 122.585 99.072L123.417 99.2C122.777 103.168 121.241 106.368 118.745 108.864C116.249 111.424 113.113 112.64 109.273 112.64C106.457 112.64 103.961 111.936 101.657 110.528ZM127.172 72.768C126.34 71.872 125.956 70.784 125.956 69.376C125.956 68.096 126.34 67.072 127.172 66.24C128.004 65.408 129.092 64.96 130.436 64.96C131.78 64.96 132.868 65.408 133.7 66.24C134.532 67.072 134.98 68.096 134.98 69.376C134.98 70.784 134.532 71.872 133.7 72.768C132.868 73.664 131.78 74.048 130.436 74.048C129.092 74.048 128.004 73.664 127.172 72.768ZM123.076 111.168C124.484 111.168 125.572 110.784 126.34 109.888C127.108 109.056 127.556 107.584 127.556 105.536V86.528C127.556 84.992 127.172 83.968 126.532 83.328C125.892 82.688 124.804 82.368 123.332 82.304V81.472C127.428 81.216 130.948 80.384 133.892 78.976L134.468 79.296V105.536C134.468 107.648 134.852 109.12 135.62 109.952C136.388 110.784 137.476 111.168 138.948 111.168V112H123.076V111.168ZM161.21 111.168C162.618 111.168 163.77 110.848 164.602 110.208C165.434 109.568 165.882 108.48 165.882 106.88C165.882 106.368 165.818 105.92 165.818 105.6L163.834 90.944C163.066 85.504 160.826 82.752 157.178 82.752C155.514 82.752 154.042 83.456 152.89 84.8C151.738 86.208 151.034 87.808 150.906 89.728V105.536C150.906 107.648 151.29 109.12 152.058 109.952C152.826 110.784 153.914 111.168 155.385 111.168V112H139.514V111.168C140.922 111.168 142.01 110.784 142.778 109.888C143.546 109.056 143.994 107.584 143.994 105.536V86.528C143.994 84.992 143.61 83.968 142.97 83.328C142.33 82.688 141.242 82.368 139.77 82.304V81.472C143.866 81.216 147.385 80.384 150.33 78.976L150.906 79.296V86.976C151.482 84.672 152.634 82.752 154.362 81.216C156.09 79.68 158.138 78.912 160.57 78.912C163.322 78.912 165.562 79.936 167.354 81.856C169.082 83.776 170.234 86.784 170.81 90.752L172.986 105.6C173.242 107.648 173.754 109.12 174.586 109.952C175.354 110.784 176.442 111.168 177.85 111.168V112H161.21V111.168ZM182.047 72.768C181.215 71.872 180.831 70.784 180.831 69.376C180.831 68.096 181.215 67.072 182.047 66.24C182.879 65.408 183.967 64.96 185.311 64.96C186.655 64.96 187.743 65.408 188.575 66.24C189.407 67.072 189.855 68.096 189.855 69.376C189.855 70.784 189.407 71.872 188.575 72.768C187.743 73.664 186.655 74.048 185.311 74.048C183.967 74.048 182.879 73.664 182.047 72.768ZM177.951 111.168C179.359 111.168 180.447 110.784 181.215 109.888C181.983 109.056 182.431 107.584 182.431 105.536V86.528C182.431 84.992 182.047 83.968 181.407 83.328C180.767 82.688 179.679 82.368 178.207 82.304V81.472C182.303 81.216 185.823 80.384 188.767 78.976L189.343 79.296V105.536C189.343 107.648 189.727 109.12 190.495 109.952C191.263 110.784 192.351 111.168 193.823 111.168V112H177.951V111.168ZM200.894 117.44C201.918 116.288 202.494 115.136 202.494 113.984C202.494 113.344 202.302 112.896 201.982 112.576C201.598 112.256 201.086 111.872 200.382 111.488C199.422 111.04 198.718 110.528 198.27 110.016C197.758 109.504 197.566 108.672 197.566 107.52C197.566 106.368 197.95 105.408 198.782 104.64C199.55 103.872 200.51 103.424 201.662 103.424C203.07 103.424 204.158 104 205.054 105.152C205.886 106.304 206.334 107.712 206.334 109.376C206.334 112.192 205.374 114.56 203.582 116.608C201.79 118.656 199.678 120.128 197.374 120.896L197.054 120.064C198.526 119.488 199.806 118.592 200.894 117.44ZM7.5315 174.528C5.2275 173.12 3.3715 171.136 2.0275 168.64C0.6835 166.144 0.0435001 163.328 0.0435001 160.192C0.0435001 157.056 0.7475 154.176 2.2195 151.488C3.6275 148.864 5.6115 146.752 8.1075 145.216C10.5395 143.68 13.2275 142.912 16.1715 142.912C18.3475 142.912 20.2675 143.36 21.9955 144.256C23.6595 145.152 25.0035 146.368 25.9635 147.776C26.9235 149.184 27.4355 150.72 27.4355 152.256C27.4355 153.536 27.0515 154.56 26.3475 155.264C25.6435 156.032 24.8115 156.352 23.7875 156.352C22.7635 156.352 21.9955 156.032 21.4195 155.392C20.7795 154.752 20.5235 153.984 20.5235 152.96C20.5235 152.448 20.7155 151.68 21.0995 150.72C21.4835 149.888 21.6755 149.12 21.6755 148.48C21.6755 147.264 21.1635 146.176 20.1395 145.28C19.1155 144.384 17.8995 143.936 16.3635 143.936C14.5075 143.936 12.8435 144.576 11.3075 145.728C9.7715 146.88 8.5555 148.544 7.6595 150.592C6.7635 152.704 6.3155 155.008 6.3155 157.568C6.3155 160.384 6.8275 162.816 7.9795 164.864C9.0675 166.976 10.5395 168.576 12.3315 169.728C14.1235 170.88 16.1075 171.392 18.2835 171.392C20.8435 171.392 23.0835 170.624 24.9395 169.088C26.7955 167.552 27.9475 165.504 28.4595 163.072L29.2915 163.2C28.6515 167.168 27.1155 170.368 24.6195 172.864C22.1235 175.424 18.9875 176.64 15.1475 176.64C12.3315 176.64 9.8355 175.936 7.5315 174.528ZM38.5835 174.4C36.3435 172.928 34.6155 170.88 33.3995 168.32C32.1195 165.76 31.5435 163.008 31.5435 159.936C31.5435 156.736 32.1835 153.856 33.5915 151.296C34.9995 148.736 36.8555 146.688 39.2875 145.152C41.6555 143.68 44.2795 142.912 47.0955 142.912C49.5275 142.912 51.7035 143.488 53.4955 144.576C55.2875 145.728 56.6955 147.2 57.6555 149.056C58.6155 150.976 59.1275 153.024 59.1275 155.2H38.3275C38.2635 155.456 38.2635 155.84 38.2635 156.288C38.2635 159.296 38.7115 161.92 39.6715 164.224C40.5675 166.528 41.9115 168.32 43.6395 169.6C45.3675 170.88 47.4155 171.456 49.7195 171.456C52.2795 171.456 54.4555 170.688 56.2475 169.152C58.0395 167.616 59.1915 165.632 59.7035 163.072L60.5995 163.2C60.2155 165.76 59.3195 168.064 58.0395 170.112C56.7595 172.16 55.0955 173.76 53.0475 174.912C50.9995 176.064 48.7595 176.64 46.3275 176.64C43.3835 176.64 40.8235 175.936 38.5835 174.4ZM49.5915 154.112C50.4875 154.112 51.1915 153.92 51.5755 153.472C51.9595 153.024 52.2155 152.256 52.2155 151.232C52.2155 149.44 51.7035 147.776 50.8075 146.24C49.8475 144.704 48.4395 143.872 46.5835 143.872C44.6635 143.872 42.8715 144.896 41.3355 146.88C39.7355 148.928 38.7755 151.296 38.3915 154.112H49.5915ZM101.99 175.168C103.526 175.168 104.678 174.848 105.574 174.208C106.406 173.568 106.854 172.48 106.854 170.88C106.854 170.368 106.79 169.92 106.79 169.6L104.742 154.944C103.974 149.504 101.734 146.752 98.086 146.752C96.294 146.752 94.822 147.392 93.734 148.608C92.646 149.824 92.006 151.36 91.75 153.152C91.814 154.048 91.878 154.688 91.878 155.2V169.536C91.878 171.584 92.262 173.056 93.03 173.888C93.798 174.784 94.95 175.168 96.358 175.168V176H80.742V175.168C82.086 175.168 83.11 174.784 83.878 173.952C84.646 173.12 85.03 171.648 85.03 169.536V156.288C85.03 153.216 84.39 150.848 83.238 149.184C82.086 147.52 80.422 146.688 78.31 146.688C76.582 146.688 75.11 147.328 73.894 148.48C72.614 149.696 71.91 151.104 71.718 152.704V169.536C71.718 171.648 72.038 173.12 72.806 173.952C73.574 174.784 74.598 175.168 76.006 175.168V176H60.326V175.168C61.734 175.168 62.822 174.784 63.59 173.888C64.358 173.056 64.806 171.584 64.806 169.536V150.528C64.806 148.992 64.422 147.968 63.782 147.328C63.142 146.688 62.054 146.368 60.582 146.304V145.472C64.678 145.216 68.198 144.384 71.142 142.976L71.718 143.296V150.144C72.358 148.16 73.574 146.432 75.366 145.024C77.094 143.616 79.078 142.912 81.382 142.912C83.814 142.912 85.926 143.68 87.718 145.088C89.51 146.496 90.79 148.544 91.43 151.104C91.942 148.8 93.094 146.88 94.886 145.28C96.614 143.744 98.726 142.912 101.222 142.912C107.046 142.912 110.566 146.88 111.718 154.752L113.894 169.6C114.15 171.648 114.726 173.12 115.622 173.952C116.454 174.784 117.606 175.168 119.014 175.168V176H101.99V175.168ZM125.084 174.4C122.844 172.928 121.116 170.88 119.9 168.32C118.62 165.76 118.044 163.008 118.044 159.936C118.044 156.736 118.684 153.856 120.092 151.296C121.5 148.736 123.356 146.688 125.788 145.152C128.156 143.68 130.78 142.912 133.596 142.912C136.028 142.912 138.204 143.488 139.996 144.576C141.788 145.728 143.196 147.2 144.156 149.056C145.116 150.976 145.628 153.024 145.628 155.2H124.828C124.764 155.456 124.764 155.84 124.764 156.288C124.764 159.296 125.212 161.92 126.172 164.224C127.068 166.528 128.412 168.32 130.14 169.6C131.868 170.88 133.916 171.456 136.22 171.456C138.78 171.456 140.956 170.688 142.748 169.152C144.54 167.616 145.692 165.632 146.204 163.072L147.1 163.2C146.716 165.76 145.82 168.064 144.54 170.112C143.26 172.16 141.596 173.76 139.548 174.912C137.5 176.064 135.26 176.64 132.828 176.64C129.884 176.64 127.324 175.936 125.084 174.4ZM136.092 154.112C136.988 154.112 137.692 153.92 138.076 153.472C138.46 153.024 138.716 152.256 138.716 151.232C138.716 149.44 138.204 147.776 137.308 146.24C136.348 144.704 134.94 143.872 133.083 143.872C131.164 143.872 129.372 144.896 127.836 146.88C126.236 148.928 125.276 151.296 124.892 154.112H136.092ZM168.522 175.168C169.93 175.168 171.082 174.848 171.914 174.208C172.746 173.568 173.194 172.48 173.194 170.88C173.194 170.368 173.13 169.92 173.13 169.6L171.146 154.944C170.378 149.504 168.138 146.752 164.49 146.752C162.826 146.752 161.354 147.456 160.202 148.8C159.05 150.208 158.346 151.808 158.218 153.728V169.536C158.218 171.648 158.602 173.12 159.37 173.952C160.138 174.784 161.226 175.168 162.698 175.168V176H146.826V175.168C148.234 175.168 149.322 174.784 150.09 173.888C150.858 173.056 151.306 171.584 151.306 169.536V150.528C151.306 148.992 150.922 147.968 150.282 147.328C149.642 146.688 148.554 146.368 147.082 146.304V145.472C151.178 145.216 154.698 144.384 157.642 142.976L158.218 143.296V150.976C158.794 148.672 159.946 146.752 161.674 145.216C163.402 143.68 165.45 142.912 167.882 142.912C170.634 142.912 172.874 143.936 174.666 145.856C176.394 147.776 177.546 150.784 178.122 154.752L180.298 169.6C180.554 171.648 181.066 173.12 181.898 173.952C182.666 174.784 183.754 175.168 185.162 175.168V176H168.522V175.168ZM189.043 173.696C187.507 171.712 186.739 169.152 186.739 165.952V146.112H182.707V145.216C185.331 144.96 187.571 144.064 189.363 142.4C191.155 140.736 192.307 138.496 192.819 135.616H193.715V143.552H203.251L202.163 146.112H193.715V165.248C193.715 167.424 194.163 169.216 195.059 170.56C195.955 171.968 197.235 172.608 198.835 172.608C200.115 172.608 201.139 172.224 201.971 171.328C202.803 170.432 203.379 169.344 203.699 168L204.467 168.128C204.147 170.56 203.187 172.544 201.651 174.208C200.051 175.872 198.131 176.64 195.955 176.64C192.883 176.64 190.579 175.68 189.043 173.696ZM212.795 174.4C210.299 172.928 208.315 170.88 206.907 168.256C205.435 165.696 204.731 162.816 204.731 159.616C204.731 156.352 205.435 153.472 206.907 150.912C208.315 148.352 210.299 146.432 212.795 145.024C215.227 143.616 217.915 142.912 220.859 142.912C223.803 142.912 226.491 143.68 228.923 145.088C231.355 146.56 233.339 148.544 234.811 151.104C236.219 153.664 236.987 156.544 236.987 159.744C236.987 163.008 236.283 165.952 234.875 168.512C233.467 171.072 231.483 173.12 229.051 174.528C226.619 175.936 223.931 176.64 220.987 176.64C217.979 176.64 215.227 175.936 212.795 174.4ZM215.739 171.456C217.531 174.144 219.707 175.424 222.139 175.424C224.571 175.424 226.427 174.272 227.771 171.904C229.051 169.6 229.755 166.528 229.755 162.752C229.755 161.536 229.627 160 229.435 158.208C228.859 153.984 227.707 150.592 225.915 148.032C224.123 145.472 222.075 144.128 219.707 144.128C217.211 144.128 215.291 145.344 213.947 147.712C212.603 150.144 211.963 153.216 211.963 156.928C211.963 158.464 212.027 159.808 212.219 161.024C212.731 165.312 213.947 168.768 215.739 171.456Z" fill="black"/>
</svg>
