<svg viewBox="0 0 474 355" fill="none" xmlns="http://www.w3.org/2000/svg">
<path d="M128.586 93.336C132.042 93.336 135.37 92.056 138.442 89.24C141.514 86.552 144.074 82.2 146.25 76.312L163.146 29.72C164.682 25.368 165.45 21.912 165.45 19.224C165.45 13.72 162.378 10.904 156.234 10.904V9.112C159.306 9.112 162.634 8.6 165.962 7.576C169.29 6.55199 172.49 5.016 175.306 3.09599L176.97 3.73599L205.77 82.584C207.178 86.68 208.842 89.496 210.89 91.032C212.81 92.568 215.242 93.336 218.058 93.336V95H183.754V93.336C188.746 93.336 191.306 91.416 191.306 87.576C191.306 86.04 190.922 84.376 190.282 82.584L184.906 67.352H152.65L149.45 76.312C148.426 79.256 147.914 81.816 147.914 83.992C147.914 87.192 148.81 89.496 150.858 91.032C152.778 92.568 155.466 93.336 158.922 93.336V95H128.586V93.336ZM184.138 65.176L168.906 22.168L153.418 65.176H184.138ZM213.012 118.936C215.828 118.936 218.004 118.168 219.54 116.376C221.076 114.712 221.972 111.768 221.972 107.672V44.056C221.972 40.984 221.204 38.936 219.924 37.656C218.644 36.376 216.468 35.736 213.524 35.608V33.944C221.716 33.432 228.756 31.768 234.644 28.952L235.796 29.592V42.904C236.948 39.576 239.38 36.376 243.092 33.432C246.804 30.616 251.284 29.08 256.404 29.08C261.268 29.08 265.748 30.616 269.716 33.432C273.684 36.376 276.756 40.344 279.06 45.336C281.364 50.456 282.516 55.96 282.516 62.104C282.516 68.376 281.108 74.136 278.548 79.384C275.86 84.632 272.276 88.728 267.668 91.8C263.06 94.872 257.94 96.28 252.564 96.28C245.78 96.28 240.148 93.848 235.796 88.728V107.672C235.796 111.896 236.692 114.84 238.612 116.504C240.404 118.168 243.092 118.936 246.548 118.936V120.6H213.012V118.936ZM240.02 86.808C242.836 91.544 246.676 93.848 251.54 93.848C254.612 93.848 257.428 92.824 259.988 90.52C262.548 88.216 264.468 85.016 265.876 80.92C267.284 76.824 268.052 72.216 268.052 66.84C268.052 60.44 267.156 54.936 265.492 50.328C263.828 45.72 261.524 42.264 258.708 39.832C255.892 37.528 252.692 36.248 249.236 36.248C245.908 36.248 243.22 37.272 240.916 39.32C238.612 41.368 236.82 43.928 235.796 47V69.144C235.796 76.312 237.204 82.2 240.02 86.808ZM291.344 16.536C289.68 14.744 288.912 12.568 288.912 9.752C288.912 7.19199 289.68 5.144 291.344 3.48C293.008 1.81599 295.184 0.919998 297.872 0.919998C300.56 0.919998 302.736 1.81599 304.4 3.48C306.064 5.144 306.96 7.19199 306.96 9.752C306.96 12.568 306.064 14.744 304.4 16.536C302.736 18.328 300.56 19.096 297.872 19.096C295.184 19.096 293.008 18.328 291.344 16.536ZM283.152 93.336C285.968 93.336 288.144 92.568 289.68 90.776C291.216 89.112 292.112 86.168 292.112 82.072V44.056C292.112 40.984 291.344 38.936 290.064 37.656C288.784 36.376 286.608 35.736 283.664 35.608V33.944C291.856 33.432 298.896 31.768 304.784 28.952L305.936 29.592V82.072C305.936 86.296 306.704 89.24 308.24 90.904C309.776 92.568 311.952 93.336 314.896 93.336V95H283.152V93.336ZM329.038 105.88C331.086 103.576 332.238 101.272 332.238 98.968C332.238 97.688 331.854 96.792 331.214 96.152C330.446 95.512 329.422 94.744 328.014 93.976C326.094 93.08 324.686 92.056 323.79 91.032C322.766 90.008 322.382 88.344 322.382 86.04C322.382 83.736 323.15 81.816 324.814 80.28C326.35 78.744 328.27 77.848 330.574 77.848C333.39 77.848 335.566 79 337.358 81.304C339.022 83.608 339.918 86.424 339.918 89.752C339.918 95.384 337.998 100.12 334.414 104.216C330.83 108.312 326.606 111.256 321.998 112.792L321.358 111.128C324.302 109.976 326.862 108.184 329.038 105.88ZM71.068 248.32C67.356 246.784 64.54 244.736 62.62 242.176C60.7 239.744 59.804 237.184 59.804 234.496C59.804 232.704 60.956 230.912 63.26 229.12C65.564 227.456 68.764 225.664 72.86 223.872C69.404 223.104 66.716 221.696 64.796 219.392C62.876 217.088 61.98 214.528 61.98 211.584C61.98 210.56 62.108 209.664 62.62 209.152C63.004 208.64 64.028 207.744 65.692 206.592L68.764 204.416L74.012 200.448C69.916 198.656 66.716 195.968 64.412 192.512C62.108 189.184 60.956 185.216 60.956 180.736C60.956 176.256 62.108 172.288 64.412 168.704C66.716 165.12 70.044 162.432 74.268 160.384C78.364 158.464 83.228 157.44 88.604 157.44C90.268 157.44 92.7 157.696 96.028 158.208C100.38 158.848 103.964 159.104 107.036 159.104H120.348L118.172 164.224L105.756 163.968C108.828 166.144 111.132 168.704 112.796 171.648C114.332 174.72 115.228 177.792 115.228 181.12C115.228 185.472 114.076 189.44 111.772 192.768C109.468 196.096 106.396 198.784 102.3 200.576C98.204 202.496 93.596 203.392 88.22 203.392C83.484 203.392 79.26 202.624 75.548 201.088C73.756 202.624 72.476 203.904 71.964 204.672C71.324 205.44 71.068 206.208 71.068 206.72C71.068 210.176 73.628 211.84 78.748 211.84H102.812C107.932 211.84 111.9 212.736 114.844 214.528C117.788 216.32 119.324 219.392 119.324 223.744C119.324 228.096 117.66 232.32 114.588 236.416C111.516 240.64 107.164 244.096 101.788 246.784C96.412 249.472 90.396 250.752 83.868 250.752C79.004 250.752 74.652 249.984 71.068 248.32ZM77.212 240.384C80.796 242.688 85.532 243.84 91.42 243.84C96.028 243.84 99.996 243.2 103.58 241.792C107.036 240.512 109.724 238.72 111.644 236.672C113.564 234.624 114.588 232.448 114.588 230.272C114.588 228.48 113.82 226.944 112.284 225.92C110.748 224.896 108.572 224.256 105.628 224.256H77.212H75.676C74.14 225.536 72.86 226.816 72.092 227.968C71.324 229.12 70.94 230.528 71.068 232.064C71.452 235.392 73.5 238.08 77.212 240.384ZM78.492 194.944C81.436 199.168 85.276 201.216 89.884 201.216C93.596 201.216 96.54 199.552 98.844 195.968C101.02 192.384 102.172 188.032 102.172 182.784C102.172 178.688 101.404 174.976 100.124 171.392C98.844 167.808 96.924 164.992 94.62 162.816C92.316 160.768 89.628 159.616 86.812 159.616C82.716 159.616 79.644 161.536 77.468 165.376C75.164 169.216 74.14 173.568 74.14 178.688C74.14 185.344 75.548 190.848 78.492 194.944ZM122.527 222.336C125.343 222.336 127.519 221.568 129.055 219.776C130.591 218.112 131.487 215.168 131.487 211.072L131.871 144.512C131.871 141.44 131.103 139.264 129.823 137.984C128.543 136.704 126.367 136.064 123.423 136.064V134.4C131.615 133.888 138.655 132.224 144.543 129.408L145.695 130.048V211.072C145.695 215.168 146.463 218.112 147.999 219.776C149.535 221.568 151.839 222.336 154.655 222.336V224H122.527V222.336ZM164.219 145.536C162.555 143.744 161.787 141.568 161.787 138.752C161.787 136.192 162.555 134.144 164.219 132.48C165.883 130.816 168.059 129.92 170.747 129.92C173.435 129.92 175.611 130.816 177.275 132.48C178.939 134.144 179.835 136.192 179.835 138.752C179.835 141.568 178.939 143.744 177.275 145.536C175.611 147.328 173.435 148.096 170.747 148.096C168.059 148.096 165.883 147.328 164.219 145.536ZM156.027 222.336C158.843 222.336 161.019 221.568 162.555 219.776C164.091 218.112 164.987 215.168 164.987 211.072V173.056C164.987 169.984 164.219 167.936 162.939 166.656C161.659 165.376 159.483 164.736 156.539 164.608V162.944C164.731 162.432 171.771 160.768 177.659 157.952L178.811 158.592V211.072C178.811 215.296 179.579 218.24 181.115 219.904C182.651 221.568 184.827 222.336 187.771 222.336V224H156.027V222.336ZM203.313 221.056C198.705 218.24 194.993 214.272 192.305 209.28C189.617 204.288 188.337 198.656 188.337 192.384C188.337 186.112 189.745 180.352 192.689 174.976C195.505 169.728 199.473 165.504 204.465 162.432C209.329 159.36 214.705 157.824 220.593 157.824C224.945 157.824 228.785 158.72 232.241 160.512C235.569 162.304 238.257 164.736 240.177 167.552C242.097 170.368 243.121 173.44 243.121 176.512C243.121 179.072 242.353 181.12 240.945 182.528C239.537 184.064 237.873 184.704 235.825 184.704C233.777 184.704 232.241 184.064 231.089 182.784C229.809 181.504 229.297 179.968 229.297 177.92C229.297 176.896 229.681 175.36 230.449 173.44C231.217 171.776 231.601 170.24 231.601 168.96C231.601 166.528 230.577 164.352 228.529 162.56C226.481 160.768 224.049 159.872 220.977 159.872C217.265 159.872 213.937 161.152 210.865 163.456C207.793 165.76 205.361 169.088 203.569 173.184C201.777 177.408 200.881 182.016 200.881 187.136C200.881 192.768 201.905 197.632 204.209 201.728C206.385 205.952 209.329 209.152 212.913 211.456C216.497 213.76 220.465 214.784 224.817 214.784C229.937 214.784 234.417 213.248 238.129 210.176C241.841 207.104 244.145 203.008 245.169 198.144L246.833 198.4C245.553 206.336 242.481 212.736 237.489 217.728C232.497 222.848 226.225 225.28 218.545 225.28C212.913 225.28 207.921 223.872 203.313 221.056ZM254.344 145.536C252.68 143.744 251.912 141.568 251.912 138.752C251.912 136.192 252.68 134.144 254.344 132.48C256.008 130.816 258.184 129.92 260.872 129.92C263.56 129.92 265.736 130.816 267.4 132.48C269.064 134.144 269.96 136.192 269.96 138.752C269.96 141.568 269.064 143.744 267.4 145.536C265.736 147.328 263.56 148.096 260.872 148.096C258.184 148.096 256.008 147.328 254.344 145.536ZM246.152 222.336C248.968 222.336 251.144 221.568 252.68 219.776C254.216 218.112 255.112 215.168 255.112 211.072V173.056C255.112 169.984 254.344 167.936 253.064 166.656C251.784 165.376 249.608 164.736 246.664 164.608V162.944C254.856 162.432 261.896 160.768 267.784 157.952L268.936 158.592V211.072C268.936 215.296 269.704 218.24 271.24 219.904C272.776 221.568 274.952 222.336 277.896 222.336V224H246.152V222.336ZM322.419 222.336C325.235 222.336 327.539 221.696 329.203 220.416C330.867 219.136 331.763 216.96 331.763 213.76C331.763 212.736 331.635 211.84 331.635 211.2L327.667 181.888C326.131 171.008 321.651 165.504 314.355 165.504C311.027 165.504 308.083 166.912 305.779 169.6C303.475 172.416 302.067 175.616 301.811 179.456V211.072C301.811 215.296 302.579 218.24 304.115 219.904C305.651 221.568 307.827 222.336 310.771 222.336V224H279.027V222.336C281.843 222.336 284.019 221.568 285.555 219.776C287.091 218.112 287.987 215.168 287.987 211.072V173.056C287.987 169.984 287.219 167.936 285.939 166.656C284.659 165.376 282.483 164.736 279.539 164.608V162.944C287.731 162.432 294.771 160.768 300.659 157.952L301.811 158.592V173.952C302.963 169.344 305.267 165.504 308.723 162.432C312.179 159.36 316.275 157.824 321.139 157.824C326.643 157.824 331.123 159.872 334.707 163.712C338.163 167.552 340.467 173.568 341.619 181.504L345.971 211.2C346.483 215.296 347.507 218.24 349.171 219.904C350.707 221.568 352.883 222.336 355.699 222.336V224H322.419V222.336ZM364.094 145.536C362.43 143.744 361.662 141.568 361.662 138.752C361.662 136.192 362.43 134.144 364.094 132.48C365.758 130.816 367.934 129.92 370.622 129.92C373.31 129.92 375.486 130.816 377.15 132.48C378.814 134.144 379.71 136.192 379.71 138.752C379.71 141.568 378.814 143.744 377.15 145.536C375.486 147.328 373.31 148.096 370.622 148.096C367.934 148.096 365.758 147.328 364.094 145.536ZM355.902 222.336C358.718 222.336 360.894 221.568 362.43 219.776C363.966 218.112 364.862 215.168 364.862 211.072V173.056C364.862 169.984 364.094 167.936 362.814 166.656C361.534 165.376 359.358 164.736 356.414 164.608V162.944C364.606 162.432 371.646 160.768 377.534 157.952L378.686 158.592V211.072C378.686 215.296 379.454 218.24 380.99 219.904C382.526 221.568 384.702 222.336 387.646 222.336V224H355.902V222.336ZM401.788 234.88C403.836 232.576 404.988 230.272 404.988 227.968C404.988 226.688 404.604 225.792 403.964 225.152C403.196 224.512 402.172 223.744 400.764 222.976C398.844 222.08 397.436 221.056 396.54 220.032C395.516 219.008 395.132 217.344 395.132 215.04C395.132 212.736 395.9 210.816 397.564 209.28C399.1 207.744 401.02 206.848 403.324 206.848C406.14 206.848 408.316 208 410.108 210.304C411.772 212.608 412.668 215.424 412.668 218.752C412.668 224.384 410.748 229.12 407.164 233.216C403.58 237.312 399.356 240.256 394.748 241.792L394.108 240.128C397.052 238.976 399.612 237.184 401.788 234.88ZM15.063 350.056C10.455 347.24 6.743 343.272 4.055 338.28C1.367 333.288 0.0870001 327.656 0.0870001 321.384C0.0870001 315.112 1.495 309.352 4.439 303.976C7.255 298.728 11.223 294.504 16.215 291.432C21.079 288.36 26.455 286.824 32.343 286.824C36.695 286.824 40.535 287.72 43.991 289.512C47.319 291.304 50.007 293.736 51.927 296.552C53.847 299.368 54.871 302.44 54.871 305.512C54.871 308.072 54.103 310.12 52.695 311.528C51.287 313.064 49.623 313.704 47.575 313.704C45.527 313.704 43.991 313.064 42.839 311.784C41.559 310.504 41.047 308.968 41.047 306.92C41.047 305.896 41.431 304.36 42.199 302.44C42.967 300.776 43.351 299.24 43.351 297.96C43.351 295.528 42.327 293.352 40.279 291.56C38.231 289.768 35.799 288.872 32.727 288.872C29.015 288.872 25.687 290.152 22.615 292.456C19.543 294.76 17.111 298.088 15.319 302.184C13.527 306.408 12.631 311.016 12.631 316.136C12.631 321.768 13.655 326.632 15.959 330.728C18.135 334.952 21.079 338.152 24.663 340.456C28.247 342.76 32.215 343.784 36.567 343.784C41.687 343.784 46.167 342.248 49.879 339.176C53.591 336.104 55.895 332.008 56.919 327.144L58.583 327.4C57.303 335.336 54.231 341.736 49.239 346.728C44.247 351.848 37.975 354.28 30.295 354.28C24.663 354.28 19.671 352.872 15.063 350.056ZM77.167 349.8C72.687 346.856 69.231 342.76 66.799 337.64C64.239 332.52 63.087 327.016 63.087 320.872C63.087 314.472 64.367 308.712 67.183 303.592C69.999 298.472 73.711 294.376 78.575 291.304C83.311 288.36 88.559 286.824 94.191 286.824C99.055 286.824 103.407 287.976 106.991 290.152C110.575 292.456 113.391 295.4 115.311 299.112C117.231 302.952 118.255 307.048 118.255 311.4H76.655C76.527 311.912 76.527 312.68 76.527 313.576C76.527 319.592 77.423 324.84 79.343 329.448C81.135 334.056 83.823 337.64 87.279 340.2C90.735 342.76 94.831 343.912 99.439 343.912C104.559 343.912 108.911 342.376 112.495 339.304C116.079 336.232 118.383 332.264 119.407 327.144L121.199 327.4C120.431 332.52 118.639 337.128 116.079 341.224C113.519 345.32 110.191 348.52 106.095 350.824C101.999 353.128 97.519 354.28 92.655 354.28C86.767 354.28 81.647 352.872 77.167 349.8ZM99.183 309.224C100.975 309.224 102.383 308.84 103.151 307.944C103.919 307.048 104.431 305.512 104.431 303.464C104.431 299.88 103.407 296.552 101.615 293.48C99.695 290.408 96.879 288.744 93.167 288.744C89.327 288.744 85.743 290.792 82.671 294.76C79.471 298.856 77.551 303.592 76.783 309.224H99.183ZM203.98 351.336C207.052 351.336 209.356 350.696 211.148 349.416C212.812 348.136 213.708 345.96 213.708 342.76C213.708 341.736 213.58 340.84 213.58 340.2L209.484 310.888C207.948 300.008 203.468 294.504 196.172 294.504C192.588 294.504 189.644 295.784 187.468 298.216C185.292 300.648 184.012 303.72 183.5 307.304C183.628 309.096 183.756 310.376 183.756 311.4V340.072C183.756 344.168 184.524 347.112 186.06 348.776C187.596 350.568 189.9 351.336 192.716 351.336V353H161.484V351.336C164.172 351.336 166.22 350.568 167.756 348.904C169.292 347.24 170.06 344.296 170.06 340.072V313.576C170.06 307.432 168.78 302.696 166.476 299.368C164.172 296.04 160.844 294.376 156.62 294.376C153.164 294.376 150.22 295.656 147.788 297.96C145.228 300.392 143.82 303.208 143.436 306.408V340.072C143.436 344.296 144.076 347.24 145.612 348.904C147.148 350.568 149.196 351.336 152.012 351.336V353H120.652V351.336C123.468 351.336 125.644 350.568 127.18 348.776C128.716 347.112 129.612 344.168 129.612 340.072V302.056C129.612 298.984 128.844 296.936 127.564 295.656C126.284 294.376 124.108 293.736 121.164 293.608V291.944C129.356 291.432 136.396 289.768 142.284 286.952L143.436 287.592V301.288C144.716 297.32 147.148 293.864 150.732 291.048C154.188 288.232 158.156 286.824 162.764 286.824C167.628 286.824 171.852 288.36 175.436 291.176C179.02 293.992 181.58 298.088 182.86 303.208C183.884 298.6 186.188 294.76 189.772 291.56C193.228 288.488 197.452 286.824 202.444 286.824C214.092 286.824 221.132 294.76 223.436 310.504L227.788 340.2C228.3 344.296 229.452 347.24 231.244 348.904C232.908 350.568 235.212 351.336 238.028 351.336V353H203.98V351.336ZM250.167 349.8C245.687 346.856 242.231 342.76 239.799 337.64C237.239 332.52 236.087 327.016 236.087 320.872C236.087 314.472 237.367 308.712 240.183 303.592C242.999 298.472 246.711 294.376 251.575 291.304C256.311 288.36 261.559 286.824 267.191 286.824C272.055 286.824 276.407 287.976 279.991 290.152C283.575 292.456 286.391 295.4 288.311 299.112C290.231 302.952 291.255 307.048 291.255 311.4H249.655C249.527 311.912 249.527 312.68 249.527 313.576C249.527 319.592 250.423 324.84 252.343 329.448C254.135 334.056 256.823 337.64 260.279 340.2C263.735 342.76 267.831 343.912 272.439 343.912C277.559 343.912 281.911 342.376 285.495 339.304C289.079 336.232 291.383 332.264 292.407 327.144L294.199 327.4C293.431 332.52 291.639 337.128 289.079 341.224C286.519 345.32 283.191 348.52 279.095 350.824C274.999 353.128 270.519 354.28 265.655 354.28C259.767 354.28 254.647 352.872 250.167 349.8ZM272.183 309.224C273.975 309.224 275.383 308.84 276.151 307.944C276.919 307.048 277.431 305.512 277.431 303.464C277.431 299.88 276.407 296.552 274.615 293.48C272.695 290.408 269.879 288.744 266.167 288.744C262.327 288.744 258.743 290.792 255.671 294.76C252.471 298.856 250.551 303.592 249.783 309.224H272.183ZM337.044 351.336C339.86 351.336 342.164 350.696 343.828 349.416C345.492 348.136 346.388 345.96 346.388 342.76C346.388 341.736 346.26 340.84 346.26 340.2L342.292 310.888C340.756 300.008 336.276 294.504 328.98 294.504C325.652 294.504 322.708 295.912 320.404 298.6C318.1 301.416 316.692 304.616 316.436 308.456V340.072C316.436 344.296 317.204 347.24 318.74 348.904C320.276 350.568 322.452 351.336 325.396 351.336V353H293.652V351.336C296.468 351.336 298.644 350.568 300.18 348.776C301.716 347.112 302.612 344.168 302.612 340.072V302.056C302.612 298.984 301.844 296.936 300.564 295.656C299.284 294.376 297.108 293.736 294.164 293.608V291.944C302.356 291.432 309.396 289.768 315.284 286.952L316.436 287.592V302.952C317.588 298.344 319.892 294.504 323.348 291.432C326.804 288.36 330.9 286.824 335.764 286.824C341.268 286.824 345.748 288.872 349.332 292.712C352.788 296.552 355.092 302.568 356.244 310.504L360.596 340.2C361.108 344.296 362.132 347.24 363.796 348.904C365.332 350.568 367.508 351.336 370.324 351.336V353H337.044V351.336ZM378.086 348.392C375.014 344.424 373.478 339.304 373.478 332.904V293.224H365.414V291.432C370.662 290.92 375.142 289.128 378.726 285.8C382.31 282.472 384.614 277.992 385.638 272.232H387.43V288.104H406.502L404.326 293.224H387.43V331.496C387.43 335.848 388.326 339.432 390.118 342.12C391.91 344.936 394.47 346.216 397.67 346.216C400.23 346.216 402.278 345.448 403.942 343.656C405.606 341.864 406.758 339.688 407.398 337L408.934 337.256C408.294 342.12 406.374 346.088 403.302 349.416C400.102 352.744 396.262 354.28 391.91 354.28C385.766 354.28 381.158 352.36 378.086 348.392ZM425.59 349.8C420.598 346.856 416.63 342.76 413.814 337.512C410.87 332.392 409.462 326.632 409.462 320.232C409.462 313.704 410.87 307.944 413.814 302.824C416.63 297.704 420.598 293.864 425.59 291.048C430.454 288.232 435.83 286.824 441.718 286.824C447.606 286.824 452.982 288.36 457.846 291.176C462.71 294.12 466.678 298.088 469.622 303.208C472.438 308.328 473.974 314.088 473.974 320.488C473.974 327.016 472.566 332.904 469.75 338.024C466.934 343.144 462.966 347.24 458.102 350.056C453.238 352.872 447.862 354.28 441.974 354.28C435.958 354.28 430.454 352.872 425.59 349.8ZM431.478 343.912C435.062 349.288 439.414 351.848 444.278 351.848C449.142 351.848 452.854 349.544 455.542 344.808C458.102 340.2 459.51 334.056 459.51 326.504C459.51 324.072 459.254 321 458.87 317.416C457.718 308.968 455.414 302.184 451.83 297.064C448.246 291.944 444.15 289.256 439.414 289.256C434.422 289.256 430.582 291.688 427.894 296.424C425.206 301.288 423.926 307.432 423.926 314.856C423.926 317.928 424.054 320.616 424.438 323.048C425.462 331.624 427.894 338.536 431.478 343.912Z" fill="black"/>
</svg>
