<svg viewBox="0 0 196 57" fill="none" xmlns="http://www.w3.org/2000/svg">
<path fill-rule="evenodd" clip-rule="evenodd" d="M65.4025 3.57055C59.2289 2.38037 53.0553 1.19018 46.8817 0V15.8546C48.4431 15.9798 50.0039 16.105 51.5653 16.2302V37.674C56.1775 37.3172 60.7903 36.9604 65.4025 36.6036V3.57055Z" fill="#D9272A"/>
<path fill-rule="evenodd" clip-rule="evenodd" d="M46.8817 15.8546C43.765 15.6042 40.6482 15.3544 37.5315 15.1047V48.5308C35.9707 48.7534 34.4094 48.9753 32.848 49.1973V57C39.0869 55.7965 45.3264 54.5936 51.5653 53.3913V37.674C50.0039 37.7944 48.4431 37.9153 46.8817 38.0357V15.8546Z" fill="#E6E6E0"/>
<path fill-rule="evenodd" clip-rule="evenodd" d="M46.8817 15.8546V38.0357C48.4431 37.9153 50.0039 37.7944 51.5653 37.674V16.2302C50.0039 16.105 48.4431 15.9798 46.8817 15.8546Z" fill="#942427"/>
<path fill-rule="evenodd" clip-rule="evenodd" d="M18.8142 5.09454V21.5039C18.1334 21.4817 17.4524 21.4594 16.7718 21.4372V25.8611C17.4524 25.8687 18.1334 25.8761 18.8142 25.8836V42.3072C18.0899 42.3583 17.3656 42.4094 16.6412 42.4602V46.887C17.3656 46.8207 18.0899 46.7538 18.8142 46.6871V51.1961C23.4923 50.5296 28.1704 49.8637 32.8479 49.1973V14.7291C34.4093 14.8543 35.9707 14.9795 37.5315 15.1047V7.53905C31.2926 6.72442 25.0537 5.90978 18.8142 5.09454Z" fill="#188B54"/>
<path fill-rule="evenodd" clip-rule="evenodd" d="M0.333923 20.0033C1.85178 20.0595 3.37024 20.1152 4.88804 20.1708V15.4893C3.37024 15.4004 1.85178 15.3121 0.333923 15.2232V20.0033Z" fill="#188B54"/>
<path fill-rule="evenodd" clip-rule="evenodd" d="M5.81302 25.7407C7.33148 25.7577 8.84933 25.774 10.3671 25.7909V21.228C8.84933 21.1783 7.33148 21.1288 5.81302 21.0792V25.7407Z" fill="#188B54"/>
<path fill-rule="evenodd" clip-rule="evenodd" d="M11.2927 36.5903C12.8106 36.5285 14.329 36.4669 15.8468 36.4052V31.9614C14.329 31.9904 12.8106 32.0188 11.2927 32.0472V36.5903Z" fill="#188B54"/>
<path fill-rule="evenodd" clip-rule="evenodd" d="M40.1328 5.92551V2.47229C39.0045 2.31444 37.8757 2.1572 36.7475 1.99936V5.55358C37.8757 5.67756 39.0045 5.80154 40.1328 5.92551Z" fill="#D9272A"/>
<path fill-rule="evenodd" clip-rule="evenodd" d="M44.1533 10.3796V7.04494C43.0251 6.92762 41.8962 6.81029 40.768 6.69357V10.1281C41.8962 10.2115 43.0251 10.2956 44.1533 10.3796Z" fill="#D9272A"/>
<path fill-rule="evenodd" clip-rule="evenodd" d="M44.1533 18.4037V15.069C43.0251 15.0321 41.8962 14.9952 40.768 14.9583V18.3934C41.8962 18.3971 43.0251 18.4007 44.1533 18.4037Z" fill="#942427"/>
<path fill-rule="evenodd" clip-rule="evenodd" d="M45.9688 27.7891V24.5082C44.84 24.5669 43.7111 24.6256 42.5829 24.6842V28.0655C43.7111 27.9736 44.84 27.881 45.9688 27.7891Z" fill="#942427"/>
<path fill-rule="evenodd" clip-rule="evenodd" d="M48.1745 6.85503V3.63888C47.0457 3.48224 45.9174 3.325 44.7886 3.16837V6.48431C45.9174 6.60768 47.0457 6.73166 48.1745 6.85503Z" fill="#942427"/>
<path fill-rule="evenodd" clip-rule="evenodd" d="M48.1745 22.2845V19.0689C47.0457 19.0726 45.9174 19.0756 44.7886 19.0792V22.3952C45.9174 22.3583 47.0457 22.3214 48.1745 22.2845Z" fill="#D9272A"/>
<path fill-rule="evenodd" clip-rule="evenodd" d="M48.1467 33.8948V30.6787C47.0178 30.8027 45.889 30.9266 44.7601 31.0506V34.3672C45.889 34.2099 47.0178 34.0521 48.1467 33.8948Z" fill="#D9272A"/>
<path fill-rule="evenodd" clip-rule="evenodd" d="M32.848 14.7291V49.1973C34.4093 48.9753 35.9707 48.7534 37.5315 48.5308V15.1047C35.9707 14.9795 34.4093 14.8543 32.848 14.7291Z" fill="#46AE58"/>
<path fill-rule="evenodd" clip-rule="evenodd" d="M16.7718 13.7579C18.2896 13.8649 19.8081 13.9714 21.3266 14.0784V9.75307C19.8081 9.61339 18.2896 9.47372 16.7718 9.33398V13.7579Z" fill="#46AE58"/>
<path fill-rule="evenodd" clip-rule="evenodd" d="M0.398041 31.356C1.9159 31.3336 3.43436 31.3113 4.95215 31.2889V26.6086C3.43436 26.5983 1.9159 26.588 0.398041 26.5771V31.356Z" fill="#46AE58"/>
<path fill-rule="evenodd" clip-rule="evenodd" d="M16.7718 41.6213C18.2896 41.521 19.8081 41.42 21.3266 41.3196V36.9949C19.8081 37.062 18.2896 37.1297 16.7718 37.1981V41.6213Z" fill="#46AE58"/>
<path fill-rule="evenodd" clip-rule="evenodd" d="M5.81302 47.8831C7.33148 47.744 8.84933 47.6043 10.3671 47.4646V42.901C8.84933 43.008 7.33148 43.1151 5.81302 43.2215V47.8831Z" fill="#46AE58"/>
<path d="M96.6633 36.5876C96.5131 36.6735 96.3377 36.7165 96.1373 36.7165C95.894 36.7165 95.7223 36.6342 95.622 36.4695C95.5218 36.3049 95.4718 36.0509 95.4718 35.7073V29.7385C95.4718 29.0515 95.4145 28.461 95.3 27.9672C95.1855 27.4734 94.9421 27.0546 94.57 26.7111C94.298 26.4535 93.9545 26.2567 93.5394 26.1207C93.1243 25.9847 92.6233 25.9167 92.0364 25.9167C91.378 25.9167 90.7876 25.999 90.2651 26.1636C89.7427 26.3283 89.3168 26.525 88.9876 26.7541C88.7014 26.9545 88.4652 27.1692 88.2791 27.3982C88.093 27.6272 87.9999 27.9278 87.9999 28.3C87.9999 28.6292 88.0966 28.9262 88.2898 29.191C88.483 29.4558 88.7872 29.5882 89.2023 29.5882C89.5602 29.5882 89.8536 29.4844 90.0826 29.2769C90.3117 29.0694 90.4261 28.7867 90.4261 28.4288C90.4261 28.0709 90.326 27.7775 90.1256 27.5485C89.9251 27.3194 89.689 27.1764 89.417 27.1191C89.6603 26.8042 89.986 26.5966 90.3939 26.4964C90.8019 26.3963 91.1848 26.3462 91.5426 26.3462C91.9148 26.3462 92.2512 26.3998 92.5517 26.5071C92.8523 26.6146 93.0921 26.8256 93.271 27.1406C93.4499 27.4555 93.5394 27.9135 93.5394 28.5147V29.8459C93.5394 30.1751 93.3927 30.447 93.0992 30.6618C92.8058 30.8764 92.4301 31.0697 91.972 31.2415C91.514 31.4132 91.0309 31.5885 90.5228 31.7675C90.0146 31.9464 89.5315 32.1611 89.0735 32.4116C88.6154 32.6621 88.2397 32.9841 87.9463 33.3778C87.6529 33.7714 87.5061 34.2688 87.5061 34.87C87.5061 35.6429 87.7172 36.262 88.1395 36.7272C88.5617 37.1924 89.2381 37.425 90.1685 37.425C90.7983 37.425 91.4031 37.2962 91.9828 37.0385C92.5625 36.7808 93.0813 36.2727 93.5394 35.5141C93.5394 36.0151 93.661 36.4588 93.9044 36.8453C94.1477 37.2318 94.6416 37.425 95.3859 37.425C95.8439 37.425 96.2089 37.3498 96.4809 37.1996C96.7528 37.0492 97.0391 36.8596 97.3397 36.6306L97.1035 36.2656C96.9603 36.3944 96.8137 36.5017 96.6633 36.5876ZM93.5394 34.9344C93.1815 35.5213 92.7951 35.9399 92.3799 36.1904C91.9649 36.4409 91.5426 36.5662 91.1132 36.5662C90.6265 36.5662 90.2186 36.4051 89.8894 36.0831C89.5602 35.761 89.3955 35.2708 89.3955 34.6123C89.3955 33.911 89.5673 33.3706 89.9108 32.9913C90.2544 32.612 90.6659 32.3114 91.1454 32.0895C91.6249 31.8677 92.0901 31.6637 92.541 31.4776C92.9919 31.2915 93.3247 31.0411 93.5394 30.7262V34.9344Z" fill="#234095"/>
<path d="M192.611 23.9415C193.213 23.9415 193.689 23.7947 194.039 23.5013C194.39 23.2078 194.565 22.8035 194.565 22.2882C194.565 21.7729 194.39 21.3685 194.039 21.0751C193.689 20.7817 193.213 20.6349 192.611 20.6349C192.01 20.6349 191.534 20.7817 191.184 21.0751C190.833 21.3685 190.658 21.7729 190.658 22.2882C190.658 22.8035 190.833 23.2078 191.184 23.5013C191.534 23.7947 192.01 23.9415 192.611 23.9415Z" fill="#234095"/>
<path d="M101.41 35.278V20.4417C101.095 20.5419 100.748 20.6171 100.369 20.6672C99.9896 20.7173 99.5924 20.7423 99.1773 20.7423C98.7479 20.7423 98.3042 20.7208 97.8461 20.6779V21.1288C98.476 21.1288 98.9053 21.2827 99.1344 21.5904C99.3634 21.8981 99.4779 22.3741 99.4779 23.0182V35.278C99.4779 35.8791 99.3527 36.2871 99.1022 36.5017C98.8517 36.7165 98.433 36.8238 97.8461 36.8238V37.2747C98.0894 37.2604 98.4616 37.2425 98.9626 37.221C99.4636 37.1996 99.9574 37.1888 100.444 37.1888C100.945 37.1888 101.442 37.1996 101.936 37.221C102.43 37.2425 102.799 37.2604 103.042 37.2747V36.8238C102.455 36.8238 102.036 36.7165 101.786 36.5017C101.535 36.2871 101.41 35.8791 101.41 35.278Z" fill="#234095"/>
<path d="M85.6255 36.2763C85.3106 36.627 84.9384 36.8023 84.509 36.8023C84.0796 36.8023 83.7432 36.6664 83.4999 36.3944C83.2565 36.1225 83.1349 35.6501 83.1349 34.9773V26.6682H86.3126V26.2388H83.1349V22.6532C82.863 22.7534 82.5624 22.825 82.2331 22.8679C81.9039 22.9108 81.5604 22.9395 81.2026 22.9538V26.2388H79.1414V26.6682H81.2026V33.8609C81.2026 34.6195 81.2634 35.2278 81.385 35.6858C81.5067 36.1439 81.725 36.5375 82.0399 36.8668C82.2833 37.0958 82.5624 37.2711 82.8773 37.3928C83.1922 37.5145 83.5929 37.5753 84.0796 37.5753C84.9528 37.5753 85.6005 37.289 86.0227 36.7165C86.445 36.1439 86.7276 35.4425 86.8708 34.6123L86.4414 34.505C86.2123 35.3352 85.9404 35.9256 85.6255 36.2763Z" fill="#234095"/>
<path d="M106.597 23.5979C106.97 23.5979 107.292 23.4619 107.564 23.19C107.835 22.918 107.971 22.596 107.971 22.2238C107.971 21.8516 107.835 21.5296 107.564 21.2576C107.292 20.9857 106.97 20.8496 106.597 20.8496C106.225 20.8496 105.903 20.9857 105.631 21.2576C105.359 21.5296 105.223 21.8516 105.223 22.2238C105.223 22.596 105.359 22.918 105.631 23.19C105.903 23.4619 106.225 23.5979 106.597 23.5979Z" fill="#234095"/>
<path d="M75.6719 22.1379C75.1137 22.1379 74.5912 22.1307 74.1046 22.1164C73.6179 22.1021 73.2243 22.0878 72.9237 22.0735V22.5029C73.4104 22.5172 73.7789 22.5709 74.0294 22.6639C74.2799 22.757 74.4481 22.9287 74.534 23.1792C74.6199 23.4297 74.6628 23.8197 74.6628 24.3493V34.9988C74.6628 35.5141 74.6199 35.9006 74.534 36.1582C74.4481 36.4159 74.2799 36.5876 74.0294 36.6735C73.7789 36.7594 73.4104 36.8166 72.9237 36.8453V37.2747C73.2243 37.2461 73.6179 37.2282 74.1046 37.221C74.5912 37.2139 75.1137 37.2103 75.6719 37.2103C76.1729 37.2103 76.6703 37.2139 77.1642 37.221C77.658 37.2282 78.0695 37.2461 78.3987 37.2747V36.8453C77.912 36.8166 77.5434 36.7594 77.293 36.6735C77.0425 36.5876 76.8743 36.4159 76.7884 36.1582C76.7025 35.9006 76.6596 35.5141 76.6596 34.9988V24.3493C76.6596 23.8197 76.7025 23.4297 76.7884 23.1792C76.8743 22.9287 77.0425 22.757 77.293 22.6639C77.5434 22.5709 77.912 22.5172 78.3987 22.5029V22.0735C78.0695 22.0878 77.658 22.1021 77.1642 22.1164C76.6703 22.1307 76.1729 22.1379 75.6719 22.1379Z" fill="#234095"/>
<path d="M142.191 26.4535C141.403 26.0671 140.487 25.8738 139.442 25.8738C138.426 25.8738 137.521 26.0671 136.726 26.4535C135.932 26.84 135.309 27.4626 134.858 28.3214C134.408 29.1803 134.182 30.3182 134.182 31.7353C134.182 33.1523 134.408 34.2867 134.858 35.1384C135.309 35.9901 135.932 36.6091 136.726 36.9956C137.521 37.3821 138.426 37.5753 139.442 37.5753C140.487 37.5753 141.403 37.3821 142.191 36.9956C142.978 36.6091 143.593 35.9901 144.037 35.1384C144.481 34.2867 144.703 33.1523 144.703 31.7353C144.703 30.3182 144.481 29.1803 144.037 28.3214C143.593 27.4626 142.978 26.84 142.191 26.4535ZM140.892 35.8791C140.512 36.7236 140.029 37.1459 139.442 37.1459C138.87 37.1459 138.39 36.7236 138.004 35.8791C137.617 35.0346 137.424 33.6533 137.424 31.7353C137.424 29.8173 137.617 28.4324 138.004 27.5807C138.39 26.729 138.87 26.3032 139.442 26.3032C140.029 26.3032 140.512 26.729 140.892 27.5807C141.271 28.4324 141.461 29.8173 141.461 31.7353C141.461 33.6533 141.271 35.0346 140.892 35.8791Z" fill="#234095"/>
<path d="M187.639 35.278V29.5023C187.639 28.7724 187.585 28.1927 187.478 27.7632C187.371 27.3338 187.203 26.9831 186.974 26.7111C186.759 26.4535 186.462 26.2495 186.082 26.0993C185.703 25.9489 185.213 25.8738 184.612 25.8738C183.853 25.8738 183.166 26.0241 182.551 26.3247C181.935 26.6253 181.448 27.1406 181.091 27.8706V25.9382C180.647 26.0384 180.164 26.1136 179.641 26.1636C179.119 26.2137 178.557 26.2388 177.956 26.2388C177.526 26.2388 177.083 26.2173 176.625 26.1744V26.6253C177.154 26.6253 177.516 26.7791 177.709 27.0869C177.902 27.3947 177.999 27.8706 177.999 28.5147V35.278C177.999 35.8791 177.895 36.2871 177.687 36.5018C177.48 36.7165 177.126 36.8238 176.625 36.8238V37.2747C176.911 37.2604 177.34 37.2425 177.913 37.221C178.485 37.1996 179.044 37.1888 179.588 37.1888C180.117 37.1888 180.629 37.1996 181.123 37.221C181.617 37.2425 181.992 37.2604 182.25 37.2747V36.8238C181.835 36.8238 181.538 36.7165 181.359 36.5018C181.18 36.2871 181.091 35.8791 181.091 35.278V29.3091C181.091 28.5934 181.295 27.9994 181.702 27.527C182.11 27.0547 182.615 26.8185 183.216 26.8185C183.588 26.8185 183.867 26.8937 184.053 27.0439C184.24 27.1943 184.368 27.4018 184.44 27.6666C184.512 27.9314 184.547 28.2427 184.547 28.6006V35.278C184.547 35.8791 184.461 36.2871 184.29 36.5018C184.118 36.7165 183.817 36.8238 183.388 36.8238V37.2747C183.66 37.2604 184.057 37.2425 184.58 37.221C185.102 37.1996 185.635 37.1888 186.179 37.1888C186.709 37.1888 187.245 37.1996 187.789 37.221C188.333 37.2425 188.741 37.2604 189.013 37.2747V36.8238C188.512 36.8238 188.158 36.7165 187.95 36.5018C187.743 36.2871 187.639 35.8791 187.639 35.278Z" fill="#234095"/>
<path d="M194.597 36.5017C194.39 36.287 194.286 35.8791 194.286 35.2779V25.9382C193.842 26.0384 193.359 26.1136 192.837 26.1636C192.314 26.2137 191.753 26.2388 191.151 26.2388C190.722 26.2388 190.278 26.2173 189.82 26.1744V26.6253C190.35 26.6253 190.711 26.7791 190.905 27.0868C191.098 27.3946 191.194 27.8705 191.194 28.5147V35.2779C191.194 35.8791 191.091 36.287 190.883 36.5017C190.675 36.7165 190.321 36.8238 189.82 36.8238V37.2747C190.107 37.2604 190.536 37.2425 191.108 37.221C191.681 37.1996 192.246 37.1888 192.805 37.1888C193.363 37.1888 193.914 37.1996 194.458 37.221C195.002 37.2425 195.403 37.2604 195.66 37.2747V36.8238C195.159 36.8238 194.805 36.7165 194.597 36.5017Z" fill="#234095"/>
<path d="M175.41 36.5232C175.281 36.5948 175.145 36.6306 175.002 36.6306C174.83 36.6306 174.708 36.559 174.637 36.4159C174.565 36.2728 174.529 36.0294 174.529 35.6859V29.8459C174.529 29.1159 174.479 28.5111 174.379 28.0316C174.279 27.5521 174.064 27.1477 173.735 26.8185C173.377 26.4606 172.933 26.2137 172.404 26.0778C171.874 25.9418 171.28 25.8738 170.622 25.8738C169.963 25.8738 169.351 25.9382 168.786 26.0671C168.221 26.1958 167.737 26.3748 167.337 26.6038C166.965 26.8472 166.675 27.1048 166.467 27.3768C166.26 27.6487 166.156 27.9922 166.156 28.4073C166.156 28.8654 166.288 29.2554 166.553 29.5775C166.818 29.8996 167.208 30.0606 167.723 30.0606C168.181 30.0606 168.578 29.9174 168.915 29.6312C169.251 29.3449 169.419 28.9584 169.419 28.4718C169.419 28.0996 169.308 27.7668 169.087 27.4734C168.865 27.1799 168.553 26.9616 168.153 26.8185C168.339 26.6324 168.575 26.5 168.861 26.4213C169.147 26.3426 169.434 26.3032 169.72 26.3032C170.121 26.3032 170.446 26.3819 170.697 26.5394C170.947 26.6968 171.133 26.9223 171.255 27.2157C171.377 27.5091 171.438 27.8419 171.438 28.2141V29.8888C171.438 30.218 171.298 30.49 171.019 30.7047C170.74 30.9194 170.375 31.1091 169.924 31.2737C169.473 31.4383 169.001 31.6029 168.507 31.7675C168.013 31.9321 167.544 32.1396 167.1 32.3901C166.657 32.6406 166.295 32.9591 166.016 33.3456C165.737 33.732 165.598 34.233 165.598 34.8485C165.598 35.5642 165.812 36.1725 166.242 36.6735C166.671 37.1745 167.365 37.425 168.324 37.425C169.026 37.425 169.638 37.2818 170.16 36.9956C170.683 36.7093 171.123 36.2728 171.481 35.6859C171.495 36.1439 171.642 36.5483 171.921 36.899C172.2 37.2496 172.769 37.425 173.628 37.425C174.114 37.425 174.554 37.357 174.948 37.221C175.342 37.0851 175.689 36.8883 175.989 36.6306L175.775 36.2656C175.66 36.3658 175.538 36.4517 175.41 36.5232ZM171.438 35.1706C171.209 35.4998 170.976 35.7288 170.74 35.8577C170.504 35.9865 170.25 36.0509 169.978 36.0509C169.605 36.0509 169.29 35.9185 169.033 35.6537C168.775 35.3888 168.646 34.9488 168.646 34.3332C168.646 33.7607 168.754 33.3027 168.968 32.9591C169.183 32.6156 169.452 32.3329 169.774 32.111C170.096 31.8891 170.411 31.6816 170.718 31.4884C171.026 31.2951 171.266 31.0554 171.438 30.7691V35.1706Z" fill="#234095"/>
<path d="M131.915 36.3407C131.715 36.033 131.615 35.5571 131.615 34.9129V20.4632C131.171 20.5634 130.684 20.6386 130.154 20.6887C129.625 20.7387 129.067 20.7638 128.48 20.7638C128.05 20.7638 127.607 20.7423 127.149 20.6994V21.1503C127.678 21.1503 128.04 21.3041 128.233 21.6118C128.426 21.9196 128.523 22.3955 128.523 23.0397L128.522 26.6773L128.507 26.6602C128.345 26.4991 128.162 26.3655 127.959 26.2595L127.803 26.1851C127.324 25.9775 126.769 25.8738 126.139 25.8738C125.223 25.8738 124.404 26.0885 123.681 26.5179C122.958 26.9473 122.389 27.5878 121.974 28.4395C121.559 29.2912 121.352 30.3683 121.352 31.6708C121.352 33.045 121.538 34.1651 121.91 35.031C122.282 35.897 122.801 36.5375 123.466 36.9526C124.132 37.3677 124.887 37.5753 125.732 37.5753C126.504 37.5753 127.131 37.3785 127.61 36.9848C127.994 36.67 128.293 36.2383 128.507 35.6897L128.522 35.647L128.523 37.4894C128.878 37.3978 129.258 37.3291 129.663 37.2833L129.972 37.2532C130.494 37.2103 131.056 37.1888 131.657 37.1888C132.101 37.1888 132.545 37.2103 132.989 37.2532V36.8023C132.473 36.8023 132.115 36.6485 131.915 36.3407ZM128.522 34.761L128.506 34.8837C128.435 35.3066 128.278 35.6627 128.032 35.9523L127.922 36.0724C127.535 36.4588 127.098 36.6521 126.612 36.6521C126.211 36.6521 125.857 36.4946 125.549 36.1797C125.241 35.8648 125.005 35.3459 124.841 34.623C124.676 33.9003 124.594 32.9305 124.594 31.7138C124.579 29.9389 124.787 28.6256 125.216 27.7739C125.646 26.9223 126.225 26.4964 126.955 26.4964C127.299 26.4964 127.625 26.5716 127.932 26.7219C128.152 26.8292 128.341 26.9859 128.499 27.1918L128.522 27.2264V34.761Z" fill="#234095"/>
<path d="M119.825 36.5876C119.675 36.6735 119.5 36.7165 119.299 36.7165C119.056 36.7165 118.884 36.6342 118.784 36.4695C118.684 36.3049 118.634 36.0509 118.634 35.7073V29.7385C118.634 29.0515 118.576 28.461 118.462 27.9672C118.347 27.4734 118.104 27.0546 117.732 26.7111C117.46 26.4535 117.116 26.2567 116.701 26.1207C116.286 25.9847 115.785 25.9167 115.198 25.9167C114.54 25.9167 113.949 25.999 113.427 26.1636C112.904 26.3283 112.479 26.525 112.149 26.7541C111.863 26.9545 111.627 27.1692 111.441 27.3982C111.255 27.6272 111.162 27.9278 111.162 28.3C111.162 28.6292 111.258 28.9262 111.452 29.191C111.645 29.4558 111.949 29.5882 112.364 29.5882C112.722 29.5882 113.015 29.4844 113.244 29.2769C113.473 29.0694 113.588 28.7867 113.588 28.4288C113.588 28.0709 113.488 27.7775 113.287 27.5485C113.087 27.3194 112.851 27.1764 112.579 27.1191C112.822 26.8042 113.148 26.5966 113.556 26.4964C113.964 26.3963 114.347 26.3462 114.704 26.3462C115.077 26.3462 115.413 26.3998 115.714 26.5071C116.014 26.6146 116.254 26.8256 116.433 27.1406C116.612 27.4555 116.701 27.9135 116.701 28.5147V29.8459C116.701 30.1751 116.554 30.447 116.261 30.6618C115.968 30.8764 115.592 31.0697 115.134 31.2415C114.676 31.4132 114.193 31.5885 113.685 31.7675C113.176 31.9464 112.693 32.1611 112.235 32.4116C111.777 32.6621 111.402 32.9841 111.108 33.3778C110.815 33.7714 110.668 34.2688 110.668 34.87C110.668 35.6429 110.879 36.262 111.301 36.7272C111.724 37.1924 112.4 37.425 113.33 37.425C113.96 37.425 114.565 37.2962 115.145 37.0385C115.724 36.7808 116.243 36.2727 116.701 35.5141C116.701 36.0151 116.823 36.4588 117.066 36.8453C117.31 37.2318 117.803 37.425 118.548 37.425C119.006 37.425 119.371 37.3498 119.643 37.1996C119.915 37.0492 120.201 36.8596 120.502 36.6306L120.265 36.2656C120.122 36.3944 119.976 36.5017 119.825 36.5876ZM116.701 34.9344C116.343 35.5213 115.957 35.9399 115.542 36.1904C115.127 36.4409 114.704 36.5662 114.275 36.5662C113.788 36.5662 113.38 36.4051 113.051 36.0831C112.722 35.761 112.557 35.2708 112.557 34.6123C112.557 33.911 112.729 33.3706 113.073 32.9913C113.416 32.612 113.828 32.3114 114.307 32.0895C114.787 31.8677 115.252 31.6637 115.703 31.4776C116.154 31.2915 116.487 31.0411 116.701 30.7262V34.9344Z" fill="#234095"/>
<path d="M107.714 35.278V25.9811C107.399 26.0814 107.052 26.1565 106.672 26.2066C106.293 26.2567 105.896 26.2817 105.481 26.2817C105.051 26.2817 104.608 26.2602 104.15 26.2173V26.6682C104.779 26.6682 105.209 26.8221 105.438 27.1298C105.667 27.4376 105.781 27.9135 105.781 28.5576V35.278C105.781 35.8791 105.656 36.287 105.406 36.5017C105.155 36.7165 104.737 36.8238 104.15 36.8238V37.2747C104.393 37.2604 104.765 37.2425 105.266 37.221C105.767 37.1996 106.261 37.1888 106.748 37.1888C107.249 37.1888 107.746 37.1996 108.24 37.221C108.734 37.2425 109.102 37.2604 109.346 37.2747V36.8238C108.759 36.8238 108.34 36.7165 108.09 36.5017C107.839 36.287 107.714 35.8791 107.714 35.278Z" fill="#234095"/>
<path d="M163.309 35.278V29.5023C163.309 28.7867 163.259 28.2106 163.159 27.7739C163.058 27.3374 162.894 26.9831 162.665 26.7111C162.436 26.4535 162.135 26.2495 161.763 26.0993C161.391 25.9489 160.904 25.8738 160.303 25.8738C159.573 25.8738 158.89 26.0241 158.253 26.3247C157.616 26.6253 157.104 27.205 156.717 28.0638L156.742 28.011L156.731 27.9442L156.696 27.7739C156.596 27.3374 156.431 26.9831 156.202 26.7111C155.973 26.4535 155.673 26.2495 155.3 26.0993C154.928 25.9489 154.442 25.8738 153.84 25.8738C153.139 25.8738 152.495 26.0277 151.908 26.3354C151.321 26.6432 150.856 27.1549 150.512 27.8706V25.9382C150.069 26.0384 149.586 26.1136 149.063 26.1636C148.541 26.2137 147.979 26.2388 147.378 26.2388C146.948 26.2388 146.505 26.2173 146.047 26.1744V26.6253C146.576 26.6253 146.938 26.7791 147.131 27.0869C147.324 27.3947 147.421 27.8706 147.421 28.5147V35.278C147.421 35.8791 147.317 36.2871 147.109 36.5018C146.902 36.7165 146.548 36.8238 146.047 36.8238V37.2747C146.333 37.2604 146.762 37.2425 147.335 37.221C147.907 37.1996 148.466 37.1888 149.01 37.1888C149.511 37.1888 150.001 37.1996 150.48 37.221C150.96 37.2425 151.314 37.2604 151.543 37.2747V36.8238C151.171 36.8238 150.906 36.7165 150.749 36.5018C150.591 36.2871 150.512 35.8791 150.512 35.278V29.3091C150.512 28.8367 150.609 28.4109 150.802 28.0316C150.996 27.6523 151.25 27.3553 151.565 27.1406C151.879 26.9259 152.223 26.8185 152.595 26.8185C152.924 26.8185 153.171 26.8937 153.336 27.0439C153.5 27.1943 153.611 27.4018 153.669 27.6666C153.726 27.9314 153.755 28.2427 153.755 28.6006V35.278C153.755 35.8791 153.679 36.2871 153.529 36.5018C153.379 36.7165 153.11 36.8238 152.724 36.8238V37.2747C152.982 37.2604 153.361 37.2425 153.862 37.221C154.363 37.1996 154.871 37.1888 155.386 37.1888C155.887 37.1888 156.399 37.1996 156.921 37.221C157.444 37.2425 157.834 37.2604 158.092 37.2747V36.8238C157.634 36.8238 157.312 36.7165 157.125 36.5018C156.939 36.2871 156.846 35.8791 156.846 35.278V29.5023C156.846 29.4129 156.845 29.3256 156.844 29.2405L156.84 29.1175L156.857 28.9574C156.924 28.4875 157.088 28.072 157.35 27.7107L157.469 27.5592C157.884 27.0654 158.371 26.8185 158.929 26.8185C159.301 26.8185 159.577 26.8937 159.756 27.0439C159.934 27.1943 160.056 27.4018 160.121 27.6666C160.185 27.9314 160.217 28.2427 160.217 28.6006V35.278C160.217 35.8791 160.142 36.2871 159.992 36.5018C159.841 36.7165 159.573 36.8238 159.187 36.8238V37.2747C159.444 37.2604 159.824 37.2425 160.325 37.221C160.826 37.1996 161.334 37.1888 161.849 37.1888C162.379 37.1888 162.915 37.1996 163.459 37.221C164.003 37.2425 164.411 37.2604 164.683 37.2747V36.8238C164.182 36.8238 163.828 36.7165 163.62 36.5018C163.413 36.2871 163.309 35.8791 163.309 35.278Z" fill="#234095"/>
<path d="M75.8476 43.2003C77.1978 43.2003 77.8038 43.8615 77.8038 44.7705C77.8038 45.776 77.1834 46.3479 75.9781 46.3479H75.159V47.7322H74.1948V43.2003H75.8476ZM75.8956 45.5834C76.5707 45.5834 76.8463 45.3078 76.8463 44.7911C76.8463 44.4329 76.708 44.0406 75.8331 44.0406H75.159V45.5834H75.8956Z" fill="#234095"/>
<path d="M79.8532 43.2003V47.7322H78.889V43.2003H79.8532Z" fill="#234095"/>
<path d="M83.7091 43.2003L85.6508 47.7322H84.5974L84.1431 46.6782H82.2694L81.8219 47.7322H80.7675L82.7103 43.2003H83.7091ZM82.524 45.969H83.8876L83.6053 45.3145C83.4814 45.0322 83.2269 44.2125 83.2269 44.2125H83.1924C83.1924 44.2125 82.9235 45.0255 82.8063 45.3145L82.524 45.969Z" fill="#234095"/>
<path d="M89.8985 43.2003H90.8627V47.7322H89.9599L87.4803 44.7018H87.4669C87.4669 44.7018 87.5293 45.3971 87.5293 45.7419V47.7322H86.5651V43.2003H87.4803L89.9465 46.2168H89.9599C89.9599 46.2168 89.8985 45.5143 89.8985 45.2526V43.2003Z" fill="#234095"/>
<path d="M96.8793 45.4389C96.8793 46.8026 95.8873 47.8148 94.4131 47.8148C93.0014 47.8148 91.9479 46.8713 91.9479 45.4389C91.9479 44.1232 93.0081 43.1177 94.4131 43.1177C95.8114 43.1177 96.8793 44.1232 96.8793 45.4389ZM92.9668 45.4456C92.9668 46.4031 93.5939 46.94 94.4131 46.94C95.2333 46.94 95.8594 46.4031 95.8594 45.4456C95.8594 44.578 95.24 43.9921 94.4131 43.9921C93.5939 43.9921 92.9668 44.578 92.9668 45.4456Z" fill="#234095"/>
<path d="M103.267 43.2003H104.231V47.7322H103.328L100.848 44.7018H100.835C100.835 44.7018 100.897 45.3971 100.897 45.7419V47.7322H99.9332V43.2003H100.848L103.315 46.2168H103.328C103.328 46.2168 103.267 45.5143 103.267 45.2526V43.2003Z" fill="#234095"/>
<path d="M108.085 43.2003L110.027 47.7322H108.973L108.519 46.6782H106.645L106.198 47.7322H105.143L107.086 43.2003H108.085ZM106.9 45.969H108.263L107.981 45.3145C107.857 45.0322 107.603 44.2125 107.603 44.2125H107.568C107.568 44.2125 107.299 45.0255 107.182 45.3145L106.9 45.969Z" fill="#234095"/>
<path d="M112.358 46.4098C112.269 46.5198 111.876 46.8645 111.876 46.8645V46.878H114.459V47.7322H110.636V46.9884L112.71 44.5573C112.854 44.3916 113.219 44.068 113.219 44.068V44.0541H110.747V43.2003H114.459V43.9441L112.358 46.4098Z" fill="#234095"/>
<path d="M116.53 43.2003V47.7322H115.566V43.2003H116.53Z" fill="#234095"/>
<path d="M122.549 45.4389C122.549 46.8026 121.557 47.8148 120.082 47.8148C118.671 47.8148 117.617 46.8713 117.617 45.4389C117.617 44.1232 118.677 43.1177 120.082 43.1177C121.481 43.1177 122.549 44.1232 122.549 45.4389ZM118.636 45.4456C118.636 46.4031 119.263 46.94 120.082 46.94C120.903 46.94 121.529 46.4031 121.529 45.4456C121.529 44.578 120.909 43.9921 120.082 43.9921C119.263 43.9921 118.636 44.578 118.636 45.4456Z" fill="#234095"/>
<path d="M126.967 43.2003H127.931V47.7322H127.029L124.549 44.7018H124.536C124.536 44.7018 124.598 45.3971 124.598 45.7419V47.7322H123.634V43.2003H124.549L127.015 46.2168H127.029C127.029 46.2168 126.967 45.5143 126.967 45.2526V43.2003Z" fill="#234095"/>
<path d="M131.785 43.2003L133.727 47.7322H132.674L132.219 46.6782H130.346L129.898 47.7322H128.844L130.787 43.2003H131.785ZM130.6 45.969H131.964L131.682 45.3145C131.558 45.0322 131.303 44.2125 131.303 44.2125H131.269C131.269 44.2125 131 45.0255 130.883 45.3145L130.6 45.969Z" fill="#234095"/>
<path d="M135.606 43.2003V46.878H137.988V47.7322H134.641V43.2003H135.606Z" fill="#234095"/>
<path d="M139.88 45.7899V46.8919H142.435V47.7322H138.916V43.2003H142.311V44.0474H139.88V45.0461H142.022V45.7899H139.88Z" fill="#234095"/>
<path d="M75.6266 50.0842C77.6175 50.0842 78.354 51.069 78.354 52.3434C78.354 53.8584 77.4725 54.6161 75.9023 54.6161H74.1948V50.0842H75.6266ZM75.159 53.7618H75.9167C76.9145 53.7618 77.3831 53.335 77.3831 52.3434C77.3831 51.565 76.9769 50.9379 75.7784 50.9379H75.159V53.7618Z" fill="#234095"/>
<path d="M80.4112 50.0842V54.6161H79.447V50.0842H80.4112Z" fill="#234095"/>
<path d="M83.7839 50.0842H85.5126C86.7659 50.0842 87.3238 50.7041 87.3238 51.5511C87.3238 52.0606 87.1106 52.5432 86.5939 52.7909V52.8116L87.7098 54.6161H86.6285L85.5952 52.9768H84.7481V54.6161H83.7839V50.0842ZM85.4434 52.2469C86.0907 52.2469 86.3663 52.0471 86.3663 51.5718C86.3663 51.1862 86.1733 50.9106 85.4982 50.9106H84.7481V52.2469H85.4434Z" fill="#234095"/>
<path d="M89.5873 50.0842V54.6161H88.6231V50.0842H89.5873Z" fill="#234095"/>
<path d="M92.6442 50.0842C93.9945 50.0842 94.6004 50.7454 94.6004 51.6543C94.6004 52.6598 93.98 53.2317 92.7748 53.2317H91.9556V54.6161H90.9914V50.0842H92.6442ZM92.6922 52.4673C93.3673 52.4673 93.6429 52.1917 93.6429 51.675C93.6429 51.3168 93.5047 50.9245 92.6298 50.9245H91.9556V52.4673H92.6922Z" fill="#234095"/>
<path d="M95.6856 50.0842H97.4143C98.6675 50.0842 99.2255 50.7041 99.2255 51.5511C99.2255 52.0606 99.0123 52.5432 98.4956 52.7909V52.8116L99.6116 54.6161H98.5302L97.4968 52.9768H96.6498V54.6161H95.6856V50.0842ZM97.3451 52.2469C97.9924 52.2469 98.268 52.0471 98.268 51.5718C98.268 51.1862 98.075 50.9106 97.3998 50.9106H96.6498V52.2469H97.3451Z" fill="#234095"/>
<path d="M101.489 52.6738V53.7758H104.044V54.6161H100.525V50.0842H103.92V50.9312H101.489V51.93H103.631V52.6738H101.489Z" fill="#234095"/>
<path d="M104.834 54.3337L105.04 53.5415C105.399 53.7071 105.978 53.8929 106.536 53.8929C107.238 53.8929 107.541 53.6034 107.541 53.2385C107.541 53.0666 107.459 52.9287 107.3 52.8462C107.142 52.7636 106.804 52.7083 106.404 52.6598C105.957 52.6118 105.605 52.5292 105.337 52.3775C104.93 52.1504 104.779 51.7648 104.779 51.3787C104.779 50.5802 105.516 50.0016 106.611 50.0016C107.251 50.0016 107.796 50.1322 108.215 50.3252L107.995 51.0897C107.665 50.9519 107.121 50.814 106.638 50.814C105.957 50.814 105.743 51.1036 105.743 51.3787C105.743 51.5237 105.798 51.6616 105.991 51.7576C106.178 51.8402 106.473 51.8748 106.859 51.93C107.279 51.9852 107.665 52.0678 107.906 52.2056C108.299 52.426 108.484 52.777 108.484 53.2317C108.484 54.0581 107.85 54.6987 106.611 54.6987C105.887 54.6987 105.296 54.5609 104.834 54.3337Z" fill="#234095"/>
<path d="M112.029 50.0842L113.971 54.6161H112.917L112.463 53.5621H110.589L110.142 54.6161H109.087L111.03 50.0842H112.029ZM110.844 52.8529H112.208L111.925 52.1984C111.801 51.916 111.547 51.0964 111.547 51.0964H111.512C111.512 51.0964 111.243 51.9093 111.126 52.1984L110.844 52.8529Z" fill="#234095"/>
<path d="M117.818 52.6738V53.7758H120.372V54.6161H116.854V50.0842H120.249V50.9312H117.818V51.93H119.96V52.6738H117.818Z" fill="#234095"/>
<path d="M123.393 50.0842H125.121C126.375 50.0842 126.933 50.7041 126.933 51.5511C126.933 52.0606 126.719 52.5432 126.203 52.7909V52.8116L127.319 54.6161H126.237L125.204 52.9768H124.357V54.6161H123.393V50.0842ZM125.052 52.2469C125.7 52.2469 125.975 52.0471 125.975 51.5718C125.975 51.1862 125.782 50.9106 125.107 50.9106H124.357V52.2469H125.052Z" fill="#234095"/>
<path d="M129.196 52.6738V53.7758H131.751V54.6161H128.232V50.0842H131.627V50.9312H129.196V51.93H131.338V52.6738H129.196Z" fill="#234095"/>
<path d="M132.541 54.3337L132.748 53.5415C133.106 53.7071 133.685 53.8929 134.242 53.8929C134.945 53.8929 135.248 53.6034 135.248 53.2385C135.248 53.0666 135.166 52.9287 135.007 52.8462C134.849 52.7636 134.511 52.7083 134.111 52.6598C133.664 52.6118 133.312 52.5292 133.044 52.3775C132.637 52.1504 132.486 51.7648 132.486 51.3787C132.486 50.5802 133.223 50.0016 134.318 50.0016C134.958 50.0016 135.503 50.1322 135.923 50.3252L135.703 51.0897C135.372 50.9519 134.828 50.814 134.346 50.814C133.664 50.814 133.451 51.1036 133.451 51.3787C133.451 51.5237 133.505 51.6616 133.698 51.7576C133.885 51.8402 134.18 51.8748 134.567 51.93C134.986 51.9852 135.372 52.0678 135.613 52.2056C136.005 52.426 136.191 52.777 136.191 53.2317C136.191 54.0581 135.558 54.6987 134.318 54.6987C133.595 54.6987 133.003 54.5609 132.541 54.3337Z" fill="#234095"/>
<path d="M138.248 50.0842V54.6161H137.284V50.0842H138.248Z" fill="#234095"/>
<path d="M140.617 50.0842V53.7618H142.999V54.6161H139.653V50.0842H140.617Z" fill="#234095"/>
<path d="M144.891 50.0842V54.6161H143.927V50.0842H144.891Z" fill="#234095"/>
<path d="M147.26 52.6738V53.7758H149.814V54.6161H146.295V50.0842H149.69V50.9312H147.26V51.93H149.401V52.6738H147.26Z" fill="#234095"/>
<path d="M154.199 50.0842H155.163V54.6161H154.26L151.781 51.5857H151.767C151.767 51.5857 151.83 52.281 151.83 52.6257V54.6161H150.866V50.0842H151.781L154.247 53.1006H154.26C154.26 53.1006 154.199 52.3981 154.199 52.1364V50.0842Z" fill="#234095"/>
<path d="M157.984 53.2937C157.894 53.4036 157.502 53.7484 157.502 53.7484V53.7618H160.084V54.6161H156.262V53.8723L158.335 51.4412C158.479 51.2755 158.844 50.9518 158.844 50.9518V50.9379H156.372V50.0842H160.084V50.828L157.984 53.2937Z" fill="#234095"/>
<path d="M163.643 50.0842L165.585 54.6161H164.531L164.077 53.5621H162.204L161.756 54.6161H160.702L162.644 50.0842H163.643ZM162.458 52.8529H163.822L163.539 52.1984C163.416 51.916 163.161 51.0964 163.161 51.0964H163.126C163.126 51.0964 162.858 51.9093 162.74 52.1984L162.458 52.8529Z" fill="#234095"/>
</svg>
