<svg viewBox="0 0 396 68" fill="none" xmlns="http://www.w3.org/2000/svg">
<path d="M7.06 5.33L5.47 18.41C5.41 18.89 5.41 19.22 5.41 19.37C5.41 20.48 5.65 21.29 6.13 21.83C6.61 22.37 7.27 22.61 8.11 22.61V23H1.24V22.61C2.14 22.61 2.92 22.28 3.58 21.59C4.21 20.93 4.63 19.85 4.81 18.41L6.25 6.59C6.28 6.35 6.31 5.99 6.31 5.51C6.31 4.46 6.07 3.68 5.62 3.17C5.14 2.66 4.54 2.39 3.79 2.39V2H9.52L15.37 18.11L21.07 2H25.96V2.39C25.33 2.39 24.85 2.54 24.49 2.81C24.13 3.11 23.98 3.59 23.98 4.28C23.98 4.4 23.98 4.64 24.04 5L26.14 20C26.26 20.96 26.53 21.65 26.92 22.04C27.31 22.43 27.85 22.61 28.51 22.61V23H20.38V22.61C21.1 22.61 21.64 22.46 22.06 22.16C22.45 21.86 22.66 21.35 22.66 20.6C22.66 20.36 22.63 20.15 22.63 20L20.62 5.18L14.17 23.3H13.69L7.06 5.33ZM28.6103 22.61C29.2703 22.61 29.7803 22.43 30.1403 22.01C30.5003 21.62 30.7103 20.93 30.7103 19.97V5.03C30.7103 4.07 30.5003 3.41 30.1403 2.99C29.7803 2.6 29.2703 2.39 28.6103 2.39V2H43.3703L44.2403 8.21L43.8503 8.3C43.1903 4.46 41.3303 2.51 38.2703 2.51H34.1303V12.14H37.4603C38.4503 12.14 39.1703 11.9 39.6203 11.36C40.0703 10.85 40.3103 9.95 40.3103 8.66H40.7303V16.19H40.3103C40.3103 14.93 40.0703 14 39.6203 13.46C39.1403 12.92 38.4203 12.65 37.4303 12.65H34.1303V20.87C34.1303 21.47 34.2203 21.89 34.4603 22.13C34.6703 22.37 35.0903 22.49 35.7203 22.49H38.7503C40.4303 22.49 41.7503 22.04 42.7103 21.08C43.6703 20.15 44.4203 18.77 44.9603 16.94L45.2903 17.03L44.1203 23H28.6103V22.61ZM45.749 22.61C46.409 22.61 46.919 22.43 47.279 22.01C47.639 21.62 47.849 20.93 47.849 19.97V5.03C47.849 4.07 47.639 3.41 47.279 2.99C46.919 2.6 46.409 2.39 45.749 2.39V2H60.509L61.379 8.21L60.989 8.3C60.329 4.46 58.469 2.51 55.409 2.51H51.269V12.14H54.599C55.589 12.14 56.309 11.9 56.759 11.36C57.209 10.85 57.449 9.95 57.449 8.66H57.869V16.19H57.449C57.449 14.93 57.209 14 56.759 13.46C56.279 12.92 55.559 12.65 54.569 12.65H51.269V20.87C51.269 21.47 51.359 21.89 51.599 22.13C51.809 22.37 52.229 22.49 52.859 22.49H55.889C57.569 22.49 58.889 22.04 59.849 21.08C60.809 20.15 61.559 18.77 62.099 16.94L62.429 17.03L61.259 23H45.749V22.61ZM67.7491 22.61C68.4091 22.61 68.9491 22.43 69.3091 22.04C69.6691 21.65 69.8491 20.96 69.8491 19.97V2.51H68.2291C66.8491 2.51 65.7091 3.08 64.7491 4.16C63.7891 5.24 63.1891 6.62 62.9491 8.3L62.5291 8.24L63.4891 2H79.6291L80.4991 8.24L80.1091 8.3C79.8091 6.62 79.2091 5.24 78.3091 4.16C77.3791 3.08 76.2391 2.51 74.8891 2.51H73.2691V19.97C73.2691 20.96 73.4491 21.65 73.8091 22.04C74.1691 22.43 74.6791 22.61 75.3691 22.61V23H67.7491V22.61ZM87.1455 22.61C87.8055 22.61 88.3155 22.43 88.6755 22.01C89.0355 21.62 89.2455 20.93 89.2455 19.97V5.03C89.2455 4.07 89.0355 3.41 88.6755 2.99C88.3155 2.6 87.8055 2.39 87.1455 2.39V2H95.2155C97.6155 2 99.6555 2.48 101.365 3.41C103.075 4.37 104.365 5.63 105.265 7.22C106.135 8.84 106.585 10.58 106.585 12.5C106.585 14.6 106.135 16.46 105.265 18.02C104.395 19.58 103.105 20.81 101.365 21.68C99.6255 22.58 97.5255 23 95.0355 23H87.1455V22.61ZM92.7855 21.89C92.8755 22.13 93.0855 22.28 93.4155 22.34C93.7155 22.43 94.2855 22.46 95.0655 22.46C96.7455 22.46 98.1555 22.04 99.3555 21.2C100.555 20.36 101.455 19.19 102.055 17.69C102.655 16.19 102.955 14.48 102.955 12.5C102.955 10.7 102.655 9.05 102.055 7.52C101.455 6.02 100.555 4.79 99.3555 3.89C98.1555 2.99 96.7155 2.54 95.0355 2.54H92.6355V20.75C92.6355 21.29 92.6655 21.68 92.7855 21.89ZM109.567 4.61C109.177 4.19 108.997 3.68 108.997 3.02C108.997 2.42 109.177 1.94 109.567 1.55C109.957 1.16 110.467 0.95 111.097 0.95C111.727 0.95 112.237 1.16 112.627 1.55C113.017 1.94 113.227 2.42 113.227 3.02C113.227 3.68 113.017 4.19 112.627 4.61C112.237 5.03 111.727 5.21 111.097 5.21C110.467 5.21 109.957 5.03 109.567 4.61ZM107.647 22.61C108.307 22.61 108.817 22.43 109.177 22.01C109.537 21.62 109.747 20.93 109.747 19.97V11.06C109.747 10.34 109.567 9.86 109.267 9.56C108.967 9.26 108.457 9.11 107.767 9.08V8.69C109.687 8.57 111.337 8.18 112.717 7.52L112.987 7.67V19.97C112.987 20.96 113.167 21.65 113.527 22.04C113.887 22.43 114.397 22.61 115.087 22.61V23H107.647V22.61ZM118.379 28.7C117.509 28.34 116.849 27.86 116.399 27.26C115.949 26.69 115.739 26.09 115.739 25.46C115.739 25.04 116.009 24.62 116.549 24.2C117.089 23.81 117.839 23.39 118.799 22.97C117.989 22.79 117.359 22.46 116.909 21.92C116.459 21.38 116.249 20.78 116.249 20.09C116.249 19.85 116.279 19.64 116.399 19.52C116.489 19.4 116.729 19.19 117.119 18.92L117.839 18.41L119.069 17.48C118.109 17.06 117.359 16.43 116.819 15.62C116.279 14.84 116.009 13.91 116.009 12.86C116.009 11.81 116.279 10.88 116.819 10.04C117.359 9.2 118.139 8.57 119.129 8.09C120.089 7.64 121.229 7.4 122.489 7.4C122.879 7.4 123.449 7.46 124.229 7.58C125.249 7.73 126.089 7.79 126.809 7.79H129.929L129.419 8.99L126.509 8.93C127.229 9.44 127.769 10.04 128.159 10.73C128.519 11.45 128.729 12.17 128.729 12.95C128.729 13.97 128.459 14.9 127.919 15.68C127.379 16.46 126.659 17.09 125.699 17.51C124.739 17.96 123.659 18.17 122.399 18.17C121.289 18.17 120.299 17.99 119.429 17.63C119.009 17.99 118.709 18.29 118.589 18.47C118.439 18.65 118.379 18.83 118.379 18.95C118.379 19.76 118.979 20.15 120.179 20.15H125.819C127.019 20.15 127.949 20.36 128.639 20.78C129.329 21.2 129.689 21.92 129.689 22.94C129.689 23.96 129.299 24.95 128.579 25.91C127.859 26.9 126.839 27.71 125.579 28.34C124.319 28.97 122.909 29.27 121.379 29.27C120.239 29.27 119.219 29.09 118.379 28.7ZM119.819 26.84C120.659 27.38 121.769 27.65 123.149 27.65C124.229 27.65 125.159 27.5 125.999 27.17C126.809 26.87 127.439 26.45 127.889 25.97C128.339 25.49 128.579 24.98 128.579 24.47C128.579 24.05 128.399 23.69 128.039 23.45C127.679 23.21 127.169 23.06 126.479 23.06H119.819H119.459C119.099 23.36 118.799 23.66 118.619 23.93C118.439 24.2 118.349 24.53 118.379 24.89C118.469 25.67 118.949 26.3 119.819 26.84ZM120.119 16.19C120.809 17.18 121.709 17.66 122.789 17.66C123.659 17.66 124.349 17.27 124.889 16.43C125.399 15.59 125.669 14.57 125.669 13.34C125.669 12.38 125.489 11.51 125.189 10.67C124.889 9.83 124.439 9.17 123.899 8.66C123.359 8.18 122.729 7.91 122.069 7.91C121.109 7.91 120.389 8.36 119.879 9.26C119.339 10.16 119.099 11.18 119.099 12.38C119.099 13.94 119.429 15.23 120.119 16.19ZM132.36 4.61C131.97 4.19 131.79 3.68 131.79 3.02C131.79 2.42 131.97 1.94 132.36 1.55C132.75 1.16 133.26 0.95 133.89 0.95C134.52 0.95 135.03 1.16 135.42 1.55C135.81 1.94 136.02 2.42 136.02 3.02C136.02 3.68 135.81 4.19 135.42 4.61C135.03 5.03 134.52 5.21 133.89 5.21C133.26 5.21 132.75 5.03 132.36 4.61ZM130.44 22.61C131.1 22.61 131.61 22.43 131.97 22.01C132.33 21.62 132.54 20.93 132.54 19.97V11.06C132.54 10.34 132.36 9.86 132.06 9.56C131.76 9.26 131.25 9.11 130.56 9.08V8.69C132.48 8.57 134.13 8.18 135.51 7.52L135.78 7.67V19.97C135.78 20.96 135.96 21.65 136.32 22.04C136.68 22.43 137.19 22.61 137.88 22.61V23H130.44V22.61ZM140.59 21.92C139.87 20.99 139.51 19.79 139.51 18.29V8.99H137.62V8.57C138.85 8.45 139.9 8.03 140.74 7.25C141.58 6.47 142.12 5.42 142.36 4.07H142.78V7.79H147.25L146.74 8.99H142.78V17.96C142.78 18.98 142.99 19.82 143.41 20.45C143.83 21.11 144.43 21.41 145.18 21.41C145.78 21.41 146.26 21.23 146.65 20.81C147.04 20.39 147.31 19.88 147.46 19.25L147.82 19.31C147.67 20.45 147.22 21.38 146.5 22.16C145.75 22.94 144.85 23.3 143.83 23.3C142.39 23.3 141.31 22.85 140.59 21.92ZM158.727 22.43C158.247 21.89 157.947 21.11 157.827 20.12L157.737 19.46C157.617 20.12 157.317 20.75 156.897 21.32C156.447 21.92 155.877 22.4 155.187 22.76C154.467 23.12 153.687 23.3 152.817 23.3C151.557 23.3 150.507 22.94 149.697 22.22C148.887 21.5 148.497 20.57 148.497 19.43C148.497 18.41 148.827 17.57 149.547 16.91C150.267 16.25 151.287 15.86 152.607 15.74L157.167 15.38L156.957 13.85C156.777 12.44 156.357 11.33 155.697 10.52C155.037 9.74 154.167 9.32 153.087 9.32C152.217 9.32 151.467 9.59 150.807 10.07C150.147 10.55 149.667 11.21 149.337 12.02L148.947 11.93C149.127 11.21 149.487 10.49 150.027 9.8C150.567 9.14 151.227 8.57 152.037 8.15C152.847 7.73 153.747 7.49 154.737 7.49C156.237 7.49 157.467 7.97 158.397 8.93C159.327 9.89 159.897 11.27 160.137 13.04L161.007 19.67C161.157 20.81 161.547 21.35 162.207 21.35C162.387 21.35 162.567 21.29 162.717 21.11C162.867 20.96 162.957 20.75 163.017 20.48L163.377 20.51C163.317 21.23 163.077 21.86 162.597 22.4C162.117 22.97 161.487 23.24 160.707 23.24C159.867 23.24 159.207 22.97 158.727 22.43ZM152.307 20.72C152.817 21.26 153.507 21.53 154.407 21.53C155.307 21.53 156.057 21.26 156.657 20.72C157.227 20.18 157.557 19.52 157.647 18.77L157.227 15.83L154.287 16.07C153.387 16.16 152.697 16.46 152.217 16.94C151.737 17.42 151.527 18.05 151.527 18.77C151.527 19.55 151.767 20.18 152.307 20.72ZM163.37 22.61C164.03 22.61 164.54 22.43 164.9 22.01C165.26 21.62 165.47 20.93 165.47 19.97L165.56 4.37C165.56 3.65 165.38 3.14 165.08 2.84C164.78 2.54 164.27 2.39 163.58 2.39V2C165.5 1.88 167.15 1.49 168.53 0.829999L168.8 0.979999V19.97C168.8 20.93 168.98 21.62 169.34 22.01C169.7 22.43 170.24 22.61 170.9 22.61V23H163.37V22.61ZM183.192 21.92C181.632 20.96 180.402 19.67 179.502 18.05C178.602 16.43 178.152 14.63 178.152 12.65C178.152 10.67 178.602 8.81 179.502 7.13C180.402 5.45 181.662 4.13 183.252 3.14C184.812 2.15 186.552 1.64 188.472 1.64C189.312 1.64 190.092 1.73 190.782 1.91C191.442 2.09 192.132 2.33 192.852 2.63C193.152 2.78 193.452 2.9 193.752 2.99C194.052 3.08 194.322 3.11 194.562 3.11C194.892 3.11 195.192 3.02 195.432 2.81C195.672 2.63 195.792 2.33 195.852 1.91L196.272 1.88L196.902 9.89L196.482 9.95C196.182 8.54 195.642 7.25 194.832 6.05C194.022 4.85 193.062 3.92 191.922 3.2C190.782 2.51 189.612 2.15 188.382 2.15C187.032 2.15 185.802 2.54 184.722 3.32C183.642 4.1 182.772 5.15 182.142 6.47C181.482 7.79 181.182 9.26 181.182 10.88C181.182 12.77 181.542 14.48 182.322 15.98C183.102 17.48 184.152 18.65 185.502 19.49C186.822 20.33 188.322 20.75 190.002 20.75C191.832 20.75 193.392 20.24 194.652 19.22C195.912 18.2 196.842 16.88 197.412 15.26L197.772 15.35C197.472 16.85 196.932 18.2 196.092 19.4C195.252 20.6 194.172 21.56 192.852 22.28C191.532 23 190.092 23.33 188.502 23.33C186.522 23.33 184.752 22.88 183.192 21.92ZM202.289 22.61C201.539 22.13 200.969 21.44 200.549 20.54C200.129 19.64 199.919 18.56 199.919 17.33V11.06C199.919 10.34 199.739 9.86 199.439 9.56C199.139 9.26 198.629 9.11 197.939 9.08V8.69C199.859 8.57 201.509 8.18 202.889 7.52L203.159 7.67V17C203.159 18.38 203.399 19.49 203.939 20.27C204.449 21.08 205.229 21.47 206.279 21.47C207.179 21.47 207.869 21.17 208.379 20.54C208.889 19.91 209.189 19.16 209.279 18.32V11.06C209.279 10.34 209.099 9.86 208.799 9.56C208.499 9.26 207.989 9.11 207.299 9.08V8.69C209.219 8.57 210.869 8.18 212.249 7.52L212.519 7.67V20.18C212.519 20.84 212.669 21.29 212.969 21.53C213.269 21.77 213.809 21.86 214.529 21.83V22.22C212.579 22.46 210.929 22.85 209.579 23.36L209.279 23.18V19.76C208.949 20.72 208.409 21.56 207.659 22.28C206.879 23 205.949 23.33 204.809 23.33C203.849 23.33 203.009 23.09 202.289 22.61ZM214.463 22.61C215.123 22.61 215.633 22.43 215.993 22.01C216.353 21.62 216.563 20.93 216.563 19.97L216.653 4.37C216.653 3.65 216.473 3.14 216.173 2.84C215.873 2.54 215.363 2.39 214.673 2.39V2C216.593 1.88 218.243 1.49 219.623 0.829999L219.893 0.979999V19.97C219.893 20.93 220.073 21.62 220.433 22.01C220.793 22.43 221.333 22.61 221.993 22.61V23H214.463V22.61ZM224.702 21.92C223.982 20.99 223.622 19.79 223.622 18.29V8.99H221.732V8.57C222.962 8.45 224.012 8.03 224.852 7.25C225.692 6.47 226.232 5.42 226.472 4.07H226.892V7.79H231.362L230.852 8.99H226.892V17.96C226.892 18.98 227.102 19.82 227.522 20.45C227.942 21.11 228.542 21.41 229.292 21.41C229.892 21.41 230.372 21.23 230.762 20.81C231.152 20.39 231.422 19.88 231.572 19.25L231.932 19.31C231.782 20.45 231.332 21.38 230.612 22.16C229.862 22.94 228.962 23.3 227.942 23.3C226.502 23.3 225.422 22.85 224.702 21.92ZM236.156 22.61C235.406 22.13 234.836 21.44 234.416 20.54C233.996 19.64 233.786 18.56 233.786 17.33V11.06C233.786 10.34 233.606 9.86 233.306 9.56C233.006 9.26 232.496 9.11 231.806 9.08V8.69C233.726 8.57 235.376 8.18 236.756 7.52L237.026 7.67V17C237.026 18.38 237.266 19.49 237.806 20.27C238.316 21.08 239.096 21.47 240.146 21.47C241.046 21.47 241.736 21.17 242.246 20.54C242.756 19.91 243.056 19.16 243.146 18.32V11.06C243.146 10.34 242.966 9.86 242.666 9.56C242.366 9.26 241.856 9.11 241.166 9.08V8.69C243.086 8.57 244.736 8.18 246.116 7.52L246.386 7.67V20.18C246.386 20.84 246.536 21.29 246.836 21.53C247.136 21.77 247.676 21.86 248.396 21.83V22.22C246.446 22.46 244.796 22.85 243.446 23.36L243.146 23.18V19.76C242.816 20.72 242.276 21.56 241.526 22.28C240.746 23 239.816 23.33 238.676 23.33C237.716 23.33 236.876 23.09 236.156 22.61ZM248.682 22.61C249.342 22.61 249.852 22.43 250.212 22.01C250.572 21.62 250.782 20.93 250.782 19.97V11.06C250.782 10.34 250.632 9.86 250.332 9.56C250.032 9.26 249.522 9.11 248.802 9.08V8.69C250.722 8.57 252.372 8.18 253.752 7.52L254.022 7.67V10.94C254.262 10.01 254.712 9.2 255.372 8.51C256.032 7.85 256.782 7.49 257.682 7.49C258.372 7.49 258.942 7.73 259.392 8.15C259.812 8.6 260.052 9.11 260.052 9.68C260.052 10.19 259.872 10.61 259.572 10.97C259.272 11.33 258.852 11.48 258.342 11.48C257.982 11.48 257.712 11.42 257.502 11.24C257.292 11.09 257.112 10.88 256.992 10.64C256.872 10.4 256.752 10.16 256.692 9.92C256.572 9.68 256.482 9.53 256.392 9.41C256.272 9.32 256.152 9.26 255.972 9.26C255.492 9.26 255.072 9.56 254.712 10.1C254.352 10.67 254.112 11.33 254.022 12.08V19.97C254.022 20.93 254.262 21.62 254.742 22.01C255.222 22.43 255.882 22.61 256.752 22.61V23H248.682V22.61ZM263.305 22.25C262.255 21.56 261.445 20.6 260.875 19.4C260.275 18.2 260.005 16.91 260.005 15.47C260.005 13.97 260.305 12.62 260.965 11.42C261.625 10.22 262.495 9.26 263.635 8.54C264.745 7.85 265.975 7.49 267.295 7.49C268.435 7.49 269.455 7.76 270.295 8.27C271.135 8.81 271.795 9.5 272.245 10.37C272.695 11.27 272.935 12.23 272.935 13.25H263.185C263.155 13.37 263.155 13.55 263.155 13.76C263.155 15.17 263.365 16.4 263.815 17.48C264.235 18.56 264.865 19.4 265.675 20C266.485 20.6 267.445 20.87 268.525 20.87C269.725 20.87 270.745 20.51 271.585 19.79C272.425 19.07 272.965 18.14 273.205 16.94L273.625 17C273.445 18.2 273.025 19.28 272.425 20.24C271.825 21.2 271.045 21.95 270.085 22.49C269.125 23.03 268.075 23.3 266.935 23.3C265.555 23.3 264.355 22.97 263.305 22.25ZM268.465 12.74C268.885 12.74 269.215 12.65 269.395 12.44C269.575 12.23 269.695 11.87 269.695 11.39C269.695 10.55 269.455 9.77 269.035 9.05C268.585 8.33 267.925 7.94 267.055 7.94C266.155 7.94 265.315 8.42 264.595 9.35C263.845 10.31 263.395 11.42 263.215 12.74H268.465ZM286.024 21.92C284.464 20.96 283.234 19.67 282.334 18.05C281.434 16.43 280.984 14.63 280.984 12.65C280.984 10.67 281.434 8.81 282.334 7.13C283.234 5.45 284.494 4.13 286.084 3.14C287.644 2.15 289.384 1.64 291.304 1.64C292.144 1.64 292.924 1.73 293.614 1.91C294.274 2.09 294.964 2.33 295.684 2.63C295.984 2.78 296.284 2.9 296.584 2.99C296.884 3.08 297.154 3.11 297.394 3.11C297.724 3.11 298.024 3.02 298.264 2.81C298.504 2.63 298.624 2.33 298.684 1.91L299.104 1.88L299.734 9.89L299.314 9.95C299.014 8.54 298.474 7.25 297.664 6.05C296.854 4.85 295.894 3.92 294.754 3.2C293.614 2.51 292.444 2.15 291.214 2.15C289.864 2.15 288.634 2.54 287.554 3.32C286.474 4.1 285.604 5.15 284.974 6.47C284.314 7.79 284.014 9.26 284.014 10.88C284.014 12.77 284.374 14.48 285.154 15.98C285.934 17.48 286.984 18.65 288.334 19.49C289.654 20.33 291.154 20.75 292.834 20.75C294.664 20.75 296.224 20.24 297.484 19.22C298.744 18.2 299.674 16.88 300.244 15.26L300.604 15.35C300.304 16.85 299.764 18.2 298.924 19.4C298.084 20.6 297.004 21.56 295.684 22.28C294.364 23 292.924 23.33 291.334 23.33C289.354 23.33 287.584 22.88 286.024 21.92ZM305.141 22.25C304.091 21.56 303.281 20.6 302.711 19.4C302.111 18.2 301.841 16.91 301.841 15.47C301.841 13.97 302.141 12.62 302.801 11.42C303.461 10.22 304.331 9.26 305.471 8.54C306.581 7.85 307.811 7.49 309.131 7.49C310.271 7.49 311.291 7.76 312.131 8.27C312.971 8.81 313.631 9.5 314.081 10.37C314.531 11.27 314.771 12.23 314.771 13.25H305.021C304.991 13.37 304.991 13.55 304.991 13.76C304.991 15.17 305.201 16.4 305.651 17.48C306.071 18.56 306.701 19.4 307.511 20C308.321 20.6 309.281 20.87 310.361 20.87C311.561 20.87 312.581 20.51 313.421 19.79C314.261 19.07 314.801 18.14 315.041 16.94L315.461 17C315.281 18.2 314.861 19.28 314.261 20.24C313.661 21.2 312.881 21.95 311.921 22.49C310.961 23.03 309.911 23.3 308.771 23.3C307.391 23.3 306.191 22.97 305.141 22.25ZM310.301 12.74C310.721 12.74 311.051 12.65 311.231 12.44C311.411 12.23 311.531 11.87 311.531 11.39C311.531 10.55 311.291 9.77 310.871 9.05C310.421 8.33 309.761 7.94 308.891 7.94C307.991 7.94 307.151 8.42 306.431 9.35C305.681 10.31 305.231 11.42 305.051 12.74H310.301ZM325.503 22.61C326.163 22.61 326.703 22.46 327.093 22.16C327.483 21.86 327.693 21.35 327.693 20.6C327.693 20.36 327.663 20.15 327.663 20L326.733 13.13C326.373 10.58 325.323 9.29 323.613 9.29C322.833 9.29 322.143 9.62 321.603 10.25C321.063 10.91 320.733 11.66 320.673 12.56V19.97C320.673 20.96 320.853 21.65 321.213 22.04C321.573 22.43 322.083 22.61 322.772 22.61V23H315.333V22.61C315.993 22.61 316.503 22.43 316.863 22.01C317.223 21.62 317.433 20.93 317.433 19.97V11.06C317.433 10.34 317.253 9.86 316.953 9.56C316.653 9.26 316.143 9.11 315.453 9.08V8.69C317.373 8.57 319.022 8.18 320.403 7.52L320.673 7.67V11.27C320.943 10.19 321.483 9.29 322.293 8.57C323.103 7.85 324.063 7.49 325.203 7.49C326.493 7.49 327.543 7.97 328.383 8.87C329.193 9.77 329.733 11.18 330.003 13.04L331.023 20C331.143 20.96 331.383 21.65 331.773 22.04C332.133 22.43 332.643 22.61 333.303 22.61V23H325.503V22.61ZM335.122 21.92C334.402 20.99 334.042 19.79 334.042 18.29V8.99H332.152V8.57C333.382 8.45 334.432 8.03 335.272 7.25C336.112 6.47 336.652 5.42 336.892 4.07H337.312V7.79H341.782L341.272 8.99H337.312V17.96C337.312 18.98 337.522 19.82 337.942 20.45C338.362 21.11 338.962 21.41 339.712 21.41C340.312 21.41 340.792 21.23 341.182 20.81C341.572 20.39 341.842 19.88 341.992 19.25L342.352 19.31C342.202 20.45 341.752 21.38 341.032 22.16C340.282 22.94 339.382 23.3 338.362 23.3C336.922 23.3 335.842 22.85 335.122 21.92ZM345.863 22.25C344.813 21.56 344.003 20.6 343.433 19.4C342.833 18.2 342.563 16.91 342.563 15.47C342.563 13.97 342.863 12.62 343.523 11.42C344.183 10.22 345.053 9.26 346.193 8.54C347.303 7.85 348.533 7.49 349.853 7.49C350.993 7.49 352.013 7.76 352.853 8.27C353.693 8.81 354.353 9.5 354.803 10.37C355.253 11.27 355.493 12.23 355.493 13.25H345.743C345.713 13.37 345.713 13.55 345.713 13.76C345.713 15.17 345.923 16.4 346.373 17.48C346.793 18.56 347.423 19.4 348.233 20C349.043 20.6 350.003 20.87 351.083 20.87C352.283 20.87 353.303 20.51 354.143 19.79C354.983 19.07 355.523 18.14 355.763 16.94L356.183 17C356.003 18.2 355.583 19.28 354.983 20.24C354.383 21.2 353.603 21.95 352.643 22.49C351.683 23.03 350.633 23.3 349.493 23.3C348.113 23.3 346.913 22.97 345.863 22.25ZM351.023 12.74C351.443 12.74 351.773 12.65 351.953 12.44C352.133 12.23 352.253 11.87 352.253 11.39C352.253 10.55 352.013 9.77 351.593 9.05C351.143 8.33 350.483 7.94 349.613 7.94C348.713 7.94 347.873 8.42 347.153 9.35C346.403 10.31 345.953 11.42 345.773 12.74H351.023ZM356.055 22.61C356.715 22.61 357.225 22.43 357.585 22.01C357.945 21.62 358.155 20.93 358.155 19.97V11.06C358.155 10.34 358.005 9.86 357.705 9.56C357.405 9.26 356.895 9.11 356.175 9.08V8.69C358.095 8.57 359.745 8.18 361.125 7.52L361.395 7.67V10.94C361.635 10.01 362.085 9.2 362.745 8.51C363.405 7.85 364.155 7.49 365.055 7.49C365.745 7.49 366.315 7.73 366.765 8.15C367.185 8.6 367.425 9.11 367.425 9.68C367.425 10.19 367.245 10.61 366.945 10.97C366.645 11.33 366.225 11.48 365.715 11.48C365.355 11.48 365.085 11.42 364.875 11.24C364.665 11.09 364.485 10.88 364.365 10.64C364.245 10.4 364.125 10.16 364.065 9.92C363.945 9.68 363.855 9.53 363.765 9.41C363.645 9.32 363.525 9.26 363.345 9.26C362.865 9.26 362.445 9.56 362.085 10.1C361.725 10.67 361.485 11.33 361.395 12.08V19.97C361.395 20.93 361.635 21.62 362.115 22.01C362.595 22.43 363.255 22.61 364.125 22.61V23H356.055V22.61ZM5.05 55.62L3.04 45C2.86 44.04 2.53 43.38 2.11 42.99C1.66 42.6 1.09 42.39 0.37 42.39V42H8.23V42.39C7 42.39 6.4 42.99 6.4 44.13C6.4 44.37 6.43 44.67 6.49 45L8.35 54.81C8.71 56.85 9.28 58.32 10.03 59.28C10.75 60.24 11.77 60.72 13.06 60.72C14.14 60.72 15.19 60.3 16.27 59.46C17.35 58.62 18.22 57.48 18.91 56.01C19.57 54.57 19.93 52.95 19.93 51.18C19.93 49.83 19.72 48.63 19.36 47.58C18.97 46.56 18.46 45.75 17.83 45.21C17.2 44.67 16.51 44.37 15.79 44.37C15.46 44.37 15.19 44.43 14.98 44.49C14.74 44.58 14.5 44.7 14.2 44.88C13.96 45.06 13.72 45.18 13.51 45.27C13.27 45.36 13 45.39 12.7 45.39C12.19 45.39 11.77 45.21 11.41 44.85C11.05 44.49 10.87 44.07 10.87 43.56C10.87 43.02 11.05 42.57 11.47 42.21C11.86 41.85 12.46 41.67 13.24 41.67C14.47 41.67 15.64 42.03 16.78 42.72C17.89 43.44 18.79 44.49 19.51 45.93C20.2 47.37 20.56 49.14 20.56 51.21C20.56 53.25 20.17 55.23 19.42 57.09C18.64 58.95 17.59 60.45 16.27 61.59C14.95 62.73 13.48 63.3 11.89 63.3C8.29 63.3 6.01 60.75 5.05 55.62ZM23.6978 44.61C23.3078 44.19 23.1278 43.68 23.1278 43.02C23.1278 42.42 23.3078 41.94 23.6978 41.55C24.0878 41.16 24.5978 40.95 25.2278 40.95C25.8578 40.95 26.3678 41.16 26.7578 41.55C27.1478 41.94 27.3578 42.42 27.3578 43.02C27.3578 43.68 27.1478 44.19 26.7578 44.61C26.3678 45.03 25.8578 45.21 25.2278 45.21C24.5978 45.21 24.0878 45.03 23.6978 44.61ZM21.7778 62.61C22.4378 62.61 22.9478 62.43 23.3078 62.01C23.6678 61.62 23.8778 60.93 23.8778 59.97V51.06C23.8778 50.34 23.6978 49.86 23.3978 49.56C23.0978 49.26 22.5878 49.11 21.8978 49.08V48.69C23.8178 48.57 25.4678 48.18 26.8478 47.52L27.1178 47.67V59.97C27.1178 60.96 27.2978 61.65 27.6578 62.04C28.0178 62.43 28.5278 62.61 29.2178 62.61V63H21.7778V62.61ZM39.752 62.43C39.272 61.89 38.972 61.11 38.852 60.12L38.762 59.46C38.642 60.12 38.342 60.75 37.922 61.32C37.472 61.92 36.902 62.4 36.212 62.76C35.492 63.12 34.712 63.3 33.842 63.3C32.582 63.3 31.532 62.94 30.722 62.22C29.912 61.5 29.522 60.57 29.522 59.43C29.522 58.41 29.852 57.57 30.572 56.91C31.292 56.25 32.312 55.86 33.632 55.74L38.192 55.38L37.982 53.85C37.802 52.44 37.382 51.33 36.722 50.52C36.062 49.74 35.192 49.32 34.112 49.32C33.242 49.32 32.492 49.59 31.832 50.07C31.172 50.55 30.692 51.21 30.362 52.02L29.972 51.93C30.152 51.21 30.512 50.49 31.052 49.8C31.592 49.14 32.252 48.57 33.062 48.15C33.872 47.73 34.772 47.49 35.762 47.49C37.262 47.49 38.492 47.97 39.422 48.93C40.352 49.89 40.922 51.27 41.162 53.04L42.032 59.67C42.182 60.81 42.572 61.35 43.232 61.35C43.412 61.35 43.592 61.29 43.742 61.11C43.892 60.96 43.982 60.75 44.042 60.48L44.402 60.51C44.342 61.23 44.102 61.86 43.622 62.4C43.142 62.97 42.512 63.24 41.732 63.24C40.892 63.24 40.232 62.97 39.752 62.43ZM33.332 60.72C33.842 61.26 34.532 61.53 35.432 61.53C36.332 61.53 37.082 61.26 37.682 60.72C38.252 60.18 38.582 59.52 38.672 58.77L38.252 55.83L35.312 56.07C34.412 56.16 33.722 56.46 33.242 56.94C32.762 57.42 32.552 58.05 32.552 58.77C32.552 59.55 32.792 60.18 33.332 60.72ZM44.395 62.61C45.055 62.61 45.565 62.43 45.925 62.01C46.285 61.62 46.495 60.93 46.495 59.97L46.585 44.37C46.585 43.65 46.405 43.14 46.105 42.84C45.805 42.54 45.295 42.39 44.605 42.39V42C46.525 41.88 48.175 41.49 49.555 40.83L49.825 40.98V59.97C49.825 60.93 50.005 61.62 50.365 62.01C50.725 62.43 51.265 62.61 51.925 62.61V63H44.395V62.61ZM55.3555 62.25C54.3055 61.56 53.4955 60.6 52.9255 59.4C52.3255 58.2 52.0555 56.91 52.0555 55.47C52.0555 53.97 52.3555 52.62 53.0155 51.42C53.6755 50.22 54.5455 49.26 55.6855 48.54C56.7955 47.85 58.0255 47.49 59.3455 47.49C60.4855 47.49 61.5055 47.76 62.3455 48.27C63.1855 48.81 63.8455 49.5 64.2955 50.37C64.7455 51.27 64.9855 52.23 64.9855 53.25H55.2355C55.2055 53.37 55.2055 53.55 55.2055 53.76C55.2055 55.17 55.4155 56.4 55.8655 57.48C56.2855 58.56 56.9155 59.4 57.7255 60C58.5355 60.6 59.4955 60.87 60.5755 60.87C61.7755 60.87 62.7955 60.51 63.6355 59.79C64.4755 59.07 65.0155 58.14 65.2555 56.94L65.6755 57C65.4955 58.2 65.0755 59.28 64.4755 60.24C63.8755 61.2 63.0955 61.95 62.1355 62.49C61.1755 63.03 60.1255 63.3 58.9855 63.3C57.6055 63.3 56.4055 62.97 55.3555 62.25ZM60.5155 52.74C60.9355 52.74 61.2655 52.65 61.4455 52.44C61.6255 52.23 61.7455 51.87 61.7455 51.39C61.7455 50.55 61.5055 49.77 61.0855 49.05C60.6355 48.33 59.9755 47.94 59.1055 47.94C58.2055 47.94 57.3655 48.42 56.6455 49.35C55.8955 50.31 55.4455 51.42 55.2655 52.74H60.5155ZM76.0949 55.62L74.0849 45C73.9049 44.04 73.5749 43.38 73.1549 42.99C72.7049 42.6 72.1349 42.39 71.4149 42.39V42H79.2749V42.39C78.0449 42.39 77.4449 42.99 77.4449 44.13C77.4449 44.37 77.4749 44.67 77.5349 45L79.3949 54.81C79.7549 56.85 80.3249 58.32 81.0749 59.28C81.7949 60.24 82.8149 60.72 84.1049 60.72C85.1849 60.72 86.2349 60.3 87.3149 59.46C88.3949 58.62 89.2649 57.48 89.9549 56.01C90.6149 54.57 90.9749 52.95 90.9749 51.18C90.9749 49.83 90.7649 48.63 90.4049 47.58C90.0149 46.56 89.5049 45.75 88.8749 45.21C88.2449 44.67 87.5549 44.37 86.8349 44.37C86.5049 44.37 86.2349 44.43 86.0249 44.49C85.7849 44.58 85.5449 44.7 85.2449 44.88C85.0049 45.06 84.7649 45.18 84.5549 45.27C84.3149 45.36 84.0449 45.39 83.7449 45.39C83.2349 45.39 82.8149 45.21 82.4549 44.85C82.0949 44.49 81.9149 44.07 81.9149 43.56C81.9149 43.02 82.0949 42.57 82.5149 42.21C82.9049 41.85 83.5049 41.67 84.2849 41.67C85.5149 41.67 86.6849 42.03 87.8249 42.72C88.9349 43.44 89.8349 44.49 90.5549 45.93C91.2449 47.37 91.6049 49.14 91.6049 51.21C91.6049 53.25 91.2149 55.23 90.4649 57.09C89.6849 58.95 88.6349 60.45 87.3149 61.59C85.9949 62.73 84.5249 63.3 82.9349 63.3C79.3349 63.3 77.0549 60.75 76.0949 55.62ZM94.7427 44.61C94.3527 44.19 94.1727 43.68 94.1727 43.02C94.1727 42.42 94.3527 41.94 94.7427 41.55C95.1327 41.16 95.6427 40.95 96.2727 40.95C96.9027 40.95 97.4127 41.16 97.8027 41.55C98.1927 41.94 98.4027 42.42 98.4027 43.02C98.4027 43.68 98.1927 44.19 97.8027 44.61C97.4127 45.03 96.9027 45.21 96.2727 45.21C95.6427 45.21 95.1327 45.03 94.7427 44.61ZM92.8227 62.61C93.4827 62.61 93.9927 62.43 94.3527 62.01C94.7127 61.62 94.9227 60.93 94.9227 59.97V51.06C94.9227 50.34 94.7427 49.86 94.4427 49.56C94.1427 49.26 93.6327 49.11 92.9427 49.08V48.69C94.8627 48.57 96.5127 48.18 97.8927 47.52L98.1627 47.67V59.97C98.1627 60.96 98.3427 61.65 98.7027 62.04C99.0627 62.43 99.5727 62.61 100.263 62.61V63H92.8227V62.61ZM102.973 61.92C102.253 60.99 101.893 59.79 101.893 58.29V48.99H100.003V48.57C101.233 48.45 102.283 48.03 103.123 47.25C103.963 46.47 104.503 45.42 104.743 44.07H105.163V47.79H109.633L109.123 48.99H105.163V57.96C105.163 58.98 105.373 59.82 105.793 60.45C106.213 61.11 106.813 61.41 107.563 61.41C108.163 61.41 108.643 61.23 109.033 60.81C109.423 60.39 109.693 59.88 109.843 59.25L110.203 59.31C110.053 60.45 109.603 61.38 108.883 62.16C108.133 62.94 107.233 63.3 106.213 63.3C104.773 63.3 103.693 62.85 102.973 61.92ZM113.11 61.92C112.39 60.99 112.03 59.79 112.03 58.29V48.99H110.14V48.57C111.37 48.45 112.42 48.03 113.26 47.25C114.1 46.47 114.64 45.42 114.88 44.07H115.3V47.79H119.77L119.26 48.99H115.3V57.96C115.3 58.98 115.51 59.82 115.93 60.45C116.35 61.11 116.95 61.41 117.7 61.41C118.3 61.41 118.78 61.23 119.17 60.81C119.56 60.39 119.83 59.88 119.98 59.25L120.34 59.31C120.19 60.45 119.74 61.38 119.02 62.16C118.27 62.94 117.37 63.3 116.35 63.3C114.91 63.3 113.83 62.85 113.11 61.92ZM124.244 62.25C123.074 61.56 122.144 60.6 121.484 59.37C120.794 58.17 120.464 56.82 120.464 55.32C120.464 53.79 120.794 52.44 121.484 51.24C122.144 50.04 123.074 49.14 124.244 48.48C125.384 47.82 126.644 47.49 128.024 47.49C129.404 47.49 130.664 47.85 131.804 48.51C132.944 49.2 133.874 50.13 134.564 51.33C135.224 52.53 135.584 53.88 135.584 55.38C135.584 56.91 135.254 58.29 134.594 59.49C133.934 60.69 133.004 61.65 131.864 62.31C130.724 62.97 129.464 63.3 128.084 63.3C126.674 63.3 125.384 62.97 124.244 62.25ZM125.624 60.87C126.464 62.13 127.484 62.73 128.624 62.73C129.764 62.73 130.634 62.19 131.264 61.08C131.864 60 132.194 58.56 132.194 56.79C132.194 56.22 132.134 55.5 132.044 54.66C131.774 52.68 131.234 51.09 130.394 49.89C129.554 48.69 128.594 48.06 127.484 48.06C126.314 48.06 125.414 48.63 124.784 49.74C124.154 50.88 123.854 52.32 123.854 54.06C123.854 54.78 123.884 55.41 123.974 55.98C124.214 57.99 124.784 59.61 125.624 60.87ZM135.625 62.61C136.285 62.61 136.795 62.43 137.155 62.01C137.515 61.62 137.725 60.93 137.725 59.97V51.06C137.725 50.34 137.575 49.86 137.275 49.56C136.975 49.26 136.465 49.11 135.745 49.08V48.69C137.665 48.57 139.315 48.18 140.695 47.52L140.965 47.67V50.94C141.205 50.01 141.655 49.2 142.315 48.51C142.975 47.85 143.725 47.49 144.625 47.49C145.315 47.49 145.885 47.73 146.335 48.15C146.755 48.6 146.995 49.11 146.995 49.68C146.995 50.19 146.815 50.61 146.515 50.97C146.215 51.33 145.795 51.48 145.285 51.48C144.925 51.48 144.655 51.42 144.445 51.24C144.235 51.09 144.055 50.88 143.935 50.64C143.815 50.4 143.695 50.16 143.635 49.92C143.515 49.68 143.425 49.53 143.335 49.41C143.215 49.32 143.095 49.26 142.915 49.26C142.435 49.26 142.015 49.56 141.655 50.1C141.295 50.67 141.055 51.33 140.965 52.08V59.97C140.965 60.93 141.205 61.62 141.685 62.01C142.165 62.43 142.825 62.61 143.695 62.61V63H135.625V62.61ZM149.001 44.61C148.611 44.19 148.431 43.68 148.431 43.02C148.431 42.42 148.611 41.94 149.001 41.55C149.391 41.16 149.901 40.95 150.531 40.95C151.161 40.95 151.671 41.16 152.061 41.55C152.451 41.94 152.661 42.42 152.661 43.02C152.661 43.68 152.451 44.19 152.061 44.61C151.671 45.03 151.161 45.21 150.531 45.21C149.901 45.21 149.391 45.03 149.001 44.61ZM147.081 62.61C147.741 62.61 148.251 62.43 148.611 62.01C148.971 61.62 149.181 60.93 149.181 59.97V51.06C149.181 50.34 149.001 49.86 148.701 49.56C148.401 49.26 147.891 49.11 147.201 49.08V48.69C149.121 48.57 150.771 48.18 152.151 47.52L152.421 47.67V59.97C152.421 60.96 152.601 61.65 152.961 62.04C153.321 62.43 153.831 62.61 154.521 62.61V63H147.081V62.61ZM158.433 62.25C157.263 61.56 156.333 60.6 155.673 59.37C154.983 58.17 154.653 56.82 154.653 55.32C154.653 53.79 154.983 52.44 155.673 51.24C156.333 50.04 157.263 49.14 158.433 48.48C159.573 47.82 160.833 47.49 162.213 47.49C163.593 47.49 164.853 47.85 165.993 48.51C167.133 49.2 168.063 50.13 168.753 51.33C169.413 52.53 169.773 53.88 169.773 55.38C169.773 56.91 169.443 58.29 168.783 59.49C168.123 60.69 167.193 61.65 166.053 62.31C164.913 62.97 163.653 63.3 162.273 63.3C160.863 63.3 159.573 62.97 158.433 62.25ZM159.813 60.87C160.653 62.13 161.673 62.73 162.813 62.73C163.953 62.73 164.823 62.19 165.453 61.08C166.053 60 166.383 58.56 166.383 56.79C166.383 56.22 166.323 55.5 166.233 54.66C165.963 52.68 165.423 51.09 164.583 49.89C163.743 48.69 162.783 48.06 161.673 48.06C160.503 48.06 159.603 48.63 158.973 49.74C158.343 50.88 158.043 52.32 158.043 54.06C158.043 54.78 158.073 55.41 158.163 55.98C158.403 57.99 158.973 59.61 159.813 60.87ZM180.538 55.62L178.528 45C178.348 44.04 178.018 43.38 177.598 42.99C177.148 42.6 176.578 42.39 175.858 42.39V42H183.718V42.39C182.488 42.39 181.888 42.99 181.888 44.13C181.888 44.37 181.918 44.67 181.978 45L183.838 54.81C184.198 56.85 184.768 58.32 185.518 59.28C186.238 60.24 187.258 60.72 188.548 60.72C189.628 60.72 190.678 60.3 191.758 59.46C192.838 58.62 193.708 57.48 194.398 56.01C195.058 54.57 195.418 52.95 195.418 51.18C195.418 49.83 195.208 48.63 194.848 47.58C194.458 46.56 193.948 45.75 193.318 45.21C192.688 44.67 191.998 44.37 191.278 44.37C190.948 44.37 190.678 44.43 190.468 44.49C190.228 44.58 189.988 44.7 189.688 44.88C189.448 45.06 189.208 45.18 188.998 45.27C188.758 45.36 188.488 45.39 188.188 45.39C187.678 45.39 187.258 45.21 186.898 44.85C186.538 44.49 186.358 44.07 186.358 43.56C186.358 43.02 186.538 42.57 186.958 42.21C187.348 41.85 187.948 41.67 188.728 41.67C189.958 41.67 191.128 42.03 192.268 42.72C193.378 43.44 194.278 44.49 194.998 45.93C195.688 47.37 196.048 49.14 196.048 51.21C196.048 53.25 195.658 55.23 194.908 57.09C194.128 58.95 193.078 60.45 191.758 61.59C190.438 62.73 188.968 63.3 187.378 63.3C183.778 63.3 181.498 60.75 180.538 55.62ZM200.785 62.25C199.735 61.56 198.925 60.6 198.355 59.4C197.755 58.2 197.485 56.91 197.485 55.47C197.485 53.97 197.785 52.62 198.445 51.42C199.105 50.22 199.975 49.26 201.115 48.54C202.225 47.85 203.455 47.49 204.775 47.49C205.915 47.49 206.935 47.76 207.775 48.27C208.615 48.81 209.275 49.5 209.725 50.37C210.175 51.27 210.415 52.23 210.415 53.25H200.665C200.635 53.37 200.635 53.55 200.635 53.76C200.635 55.17 200.845 56.4 201.295 57.48C201.715 58.56 202.345 59.4 203.155 60C203.965 60.6 204.925 60.87 206.005 60.87C207.205 60.87 208.225 60.51 209.065 59.79C209.905 59.07 210.445 58.14 210.685 56.94L211.105 57C210.925 58.2 210.505 59.28 209.905 60.24C209.305 61.2 208.525 61.95 207.565 62.49C206.605 63.03 205.555 63.3 204.415 63.3C203.035 63.3 201.835 62.97 200.785 62.25ZM205.945 52.74C206.365 52.74 206.695 52.65 206.875 52.44C207.055 52.23 207.175 51.87 207.175 51.39C207.175 50.55 206.935 49.77 206.515 49.05C206.065 48.33 205.405 47.94 204.535 47.94C203.635 47.94 202.795 48.42 202.075 49.35C201.325 50.31 200.875 51.42 200.695 52.74H205.945ZM221.147 62.61C221.807 62.61 222.347 62.46 222.737 62.16C223.127 61.86 223.337 61.35 223.337 60.6C223.337 60.36 223.307 60.15 223.307 60L222.377 53.13C222.017 50.58 220.967 49.29 219.257 49.29C218.477 49.29 217.787 49.62 217.247 50.25C216.707 50.91 216.377 51.66 216.317 52.56V59.97C216.317 60.96 216.497 61.65 216.857 62.04C217.217 62.43 217.727 62.61 218.417 62.61V63H210.977V62.61C211.637 62.61 212.147 62.43 212.507 62.01C212.867 61.62 213.077 60.93 213.077 59.97V51.06C213.077 50.34 212.897 49.86 212.597 49.56C212.297 49.26 211.787 49.11 211.097 49.08V48.69C213.017 48.57 214.667 48.18 216.047 47.52L216.317 47.67V51.27C216.587 50.19 217.127 49.29 217.937 48.57C218.747 47.85 219.707 47.49 220.847 47.49C222.137 47.49 223.187 47.97 224.027 48.87C224.837 49.77 225.377 51.18 225.647 53.04L226.667 60C226.787 60.96 227.027 61.65 227.417 62.04C227.777 62.43 228.287 62.61 228.947 62.61V63H221.147V62.61ZM231.899 62.25C230.849 61.56 230.039 60.6 229.469 59.4C228.869 58.2 228.599 56.91 228.599 55.47C228.599 53.97 228.899 52.62 229.559 51.42C230.219 50.22 231.089 49.26 232.229 48.54C233.339 47.85 234.569 47.49 235.889 47.49C237.029 47.49 238.049 47.76 238.889 48.27C239.729 48.81 240.389 49.5 240.839 50.37C241.289 51.27 241.529 52.23 241.529 53.25H231.779C231.749 53.37 231.749 53.55 231.749 53.76C231.749 55.17 231.959 56.4 232.409 57.48C232.829 58.56 233.459 59.4 234.269 60C235.079 60.6 236.039 60.87 237.119 60.87C238.319 60.87 239.339 60.51 240.179 59.79C241.019 59.07 241.559 58.14 241.799 56.94L242.219 57C242.039 58.2 241.619 59.28 241.019 60.24C240.419 61.2 239.639 61.95 238.679 62.49C237.719 63.03 236.669 63.3 235.529 63.3C234.149 63.3 232.949 62.97 231.899 62.25ZM237.059 52.74C237.479 52.74 237.809 52.65 237.989 52.44C238.169 52.23 238.289 51.87 238.289 51.39C238.289 50.55 238.049 49.77 237.629 49.05C237.179 48.33 236.519 47.94 235.649 47.94C234.749 47.94 233.909 48.42 233.189 49.35C232.439 50.31 231.989 51.42 231.809 52.74H237.059ZM245.151 61.92C244.431 60.99 244.071 59.79 244.071 58.29V48.99H242.181V48.57C243.411 48.45 244.461 48.03 245.301 47.25C246.141 46.47 246.681 45.42 246.921 44.07H247.341V47.79H251.811L251.301 48.99H247.341V57.96C247.341 58.98 247.551 59.82 247.971 60.45C248.391 61.11 248.991 61.41 249.741 61.41C250.341 61.41 250.821 61.23 251.211 60.81C251.601 60.39 251.871 59.88 252.021 59.25L252.381 59.31C252.231 60.45 251.781 61.38 251.061 62.16C250.311 62.94 249.411 63.3 248.391 63.3C246.951 63.3 245.871 62.85 245.151 61.92ZM256.285 62.25C255.115 61.56 254.185 60.6 253.525 59.37C252.835 58.17 252.505 56.82 252.505 55.32C252.505 53.79 252.835 52.44 253.525 51.24C254.185 50.04 255.115 49.14 256.285 48.48C257.425 47.82 258.685 47.49 260.065 47.49C261.445 47.49 262.705 47.85 263.845 48.51C264.985 49.2 265.915 50.13 266.605 51.33C267.265 52.53 267.625 53.88 267.625 55.38C267.625 56.91 267.295 58.29 266.635 59.49C265.975 60.69 265.045 61.65 263.905 62.31C262.765 62.97 261.505 63.3 260.125 63.3C258.715 63.3 257.425 62.97 256.285 62.25ZM257.665 60.87C258.505 62.13 259.525 62.73 260.665 62.73C261.805 62.73 262.675 62.19 263.305 61.08C263.905 60 264.235 58.56 264.235 56.79C264.235 56.22 264.175 55.5 264.085 54.66C263.815 52.68 263.275 51.09 262.435 49.89C261.595 48.69 260.635 48.06 259.525 48.06C258.355 48.06 257.455 48.63 256.825 49.74C256.195 50.88 255.895 52.32 255.895 54.06C255.895 54.78 255.925 55.41 256.015 55.98C256.255 57.99 256.825 59.61 257.665 60.87ZM270.335 65.55C270.815 65.01 271.085 64.47 271.085 63.93C271.085 63.63 270.995 63.42 270.845 63.27C270.665 63.12 270.425 62.94 270.095 62.76C269.645 62.55 269.315 62.31 269.105 62.07C268.865 61.83 268.775 61.44 268.775 60.9C268.775 60.36 268.955 59.91 269.345 59.55C269.705 59.19 270.155 58.98 270.695 58.98C271.355 58.98 271.865 59.25 272.285 59.79C272.675 60.33 272.885 60.99 272.885 61.77C272.885 63.09 272.435 64.2 271.595 65.16C270.755 66.12 269.765 66.81 268.685 67.17L268.535 66.78C269.225 66.51 269.825 66.09 270.335 65.55ZM286.363 54.54C287.713 52.38 288.403 50.28 288.403 48.3C288.403 46.71 288.013 45.51 287.293 44.7C286.543 43.92 285.643 43.5 284.623 43.5C283.693 43.5 282.883 43.83 282.193 44.49C281.473 45.15 281.023 45.93 280.813 46.89L280.363 46.83C280.513 45.93 280.873 45.06 281.443 44.28C281.983 43.5 282.703 42.87 283.543 42.39C284.383 41.91 285.283 41.67 286.303 41.67C287.293 41.67 288.223 41.94 289.063 42.42C289.903 42.9 290.593 43.59 291.103 44.49C291.613 45.39 291.883 46.38 291.883 47.49C291.883 48.87 291.523 50.22 290.803 51.48C290.083 52.77 289.093 54.03 287.863 55.29C286.633 56.55 284.833 58.23 282.493 60.33H287.473C288.643 60.33 289.543 60.24 290.143 60.06C290.743 59.88 291.193 59.55 291.523 59.07C291.823 58.62 292.123 57.9 292.423 56.88L292.783 56.97L291.613 63H279.793V62.46C282.823 59.34 285.013 56.7 286.363 54.54ZM295.911 65.55C296.391 65.01 296.661 64.47 296.661 63.93C296.661 63.63 296.571 63.42 296.421 63.27C296.241 63.12 296.001 62.94 295.671 62.76C295.221 62.55 294.891 62.31 294.681 62.07C294.441 61.83 294.351 61.44 294.351 60.9C294.351 60.36 294.531 59.91 294.921 59.55C295.281 59.19 295.731 58.98 296.271 58.98C296.931 58.98 297.441 59.25 297.861 59.79C298.251 60.33 298.461 60.99 298.461 61.77C298.461 63.09 298.011 64.2 297.171 65.16C296.331 66.12 295.341 66.81 294.261 67.17L294.111 66.78C294.801 66.51 295.401 66.09 295.911 65.55ZM311.279 45.33L309.689 58.41C309.629 58.89 309.629 59.22 309.629 59.37C309.629 60.48 309.869 61.29 310.349 61.83C310.829 62.37 311.489 62.61 312.329 62.61V63H305.459V62.61C306.359 62.61 307.139 62.28 307.799 61.59C308.429 60.93 308.849 59.85 309.029 58.41L310.469 46.59C310.499 46.35 310.529 45.99 310.529 45.51C310.529 44.46 310.289 43.68 309.839 43.17C309.359 42.66 308.759 42.39 308.009 42.39V42H313.739L319.589 58.11L325.289 42H330.179V42.39C329.549 42.39 329.069 42.54 328.709 42.81C328.349 43.11 328.199 43.59 328.199 44.28C328.199 44.4 328.199 44.64 328.259 45L330.359 60C330.479 60.96 330.749 61.65 331.139 62.04C331.529 62.43 332.069 62.61 332.729 62.61V63H324.599V62.61C325.319 62.61 325.859 62.46 326.279 62.16C326.669 61.86 326.879 61.35 326.879 60.6C326.879 60.36 326.849 60.15 326.849 60L324.839 45.18L318.389 63.3H317.909L311.279 45.33ZM334.567 44.61C334.177 44.19 333.997 43.68 333.997 43.02C333.997 42.42 334.177 41.94 334.567 41.55C334.957 41.16 335.467 40.95 336.097 40.95C336.727 40.95 337.237 41.16 337.627 41.55C338.017 41.94 338.227 42.42 338.227 43.02C338.227 43.68 338.017 44.19 337.627 44.61C337.237 45.03 336.727 45.21 336.097 45.21C335.467 45.21 334.957 45.03 334.567 44.61ZM332.647 62.61C333.307 62.61 333.817 62.43 334.177 62.01C334.537 61.62 334.747 60.93 334.747 59.97V51.06C334.747 50.34 334.567 49.86 334.267 49.56C333.967 49.26 333.457 49.11 332.767 49.08V48.69C334.687 48.57 336.337 48.18 337.717 47.52L337.987 47.67V59.97C337.987 60.96 338.167 61.65 338.527 62.04C338.887 62.43 339.397 62.61 340.087 62.61V63H332.647V62.61ZM340.118 62.61C340.778 62.61 341.288 62.43 341.648 62.01C342.008 61.62 342.218 60.93 342.218 59.97L342.308 44.37C342.308 43.65 342.128 43.14 341.828 42.84C341.528 42.54 341.018 42.39 340.328 42.39V42C342.248 41.88 343.898 41.49 345.278 40.83L345.548 40.98V59.97C345.548 60.93 345.728 61.62 346.088 62.01C346.448 62.43 346.988 62.61 347.648 62.61V63H340.118V62.61ZM358.15 62.43C357.67 61.89 357.37 61.11 357.25 60.12L357.16 59.46C357.04 60.12 356.74 60.75 356.32 61.32C355.87 61.92 355.3 62.4 354.61 62.76C353.89 63.12 353.11 63.3 352.24 63.3C350.98 63.3 349.93 62.94 349.12 62.22C348.31 61.5 347.92 60.57 347.92 59.43C347.92 58.41 348.25 57.57 348.97 56.91C349.69 56.25 350.71 55.86 352.03 55.74L356.59 55.38L356.38 53.85C356.2 52.44 355.78 51.33 355.12 50.52C354.46 49.74 353.59 49.32 352.51 49.32C351.64 49.32 350.89 49.59 350.23 50.07C349.57 50.55 349.09 51.21 348.76 52.02L348.37 51.93C348.55 51.21 348.91 50.49 349.45 49.8C349.99 49.14 350.65 48.57 351.46 48.15C352.27 47.73 353.17 47.49 354.16 47.49C355.66 47.49 356.89 47.97 357.82 48.93C358.75 49.89 359.32 51.27 359.56 53.04L360.43 59.67C360.58 60.81 360.97 61.35 361.63 61.35C361.81 61.35 361.99 61.29 362.14 61.11C362.29 60.96 362.38 60.75 362.44 60.48L362.8 60.51C362.74 61.23 362.5 61.86 362.02 62.4C361.54 62.97 360.91 63.24 360.13 63.24C359.29 63.24 358.63 62.97 358.15 62.43ZM351.73 60.72C352.24 61.26 352.93 61.53 353.83 61.53C354.73 61.53 355.48 61.26 356.08 60.72C356.65 60.18 356.98 59.52 357.07 58.77L356.65 55.83L353.71 56.07C352.81 56.16 352.12 56.46 351.64 56.94C351.16 57.42 350.95 58.05 350.95 58.77C350.95 59.55 351.19 60.18 351.73 60.72ZM372.963 62.61C373.623 62.61 374.163 62.46 374.553 62.16C374.943 61.86 375.153 61.35 375.153 60.6C375.153 60.36 375.123 60.15 375.123 60L374.193 53.13C373.833 50.58 372.783 49.29 371.073 49.29C370.293 49.29 369.603 49.62 369.063 50.25C368.523 50.91 368.193 51.66 368.133 52.56V59.97C368.133 60.96 368.313 61.65 368.673 62.04C369.033 62.43 369.543 62.61 370.233 62.61V63H362.793V62.61C363.453 62.61 363.963 62.43 364.323 62.01C364.683 61.62 364.893 60.93 364.893 59.97V51.06C364.893 50.34 364.713 49.86 364.413 49.56C364.113 49.26 363.603 49.11 362.913 49.08V48.69C364.833 48.57 366.483 48.18 367.863 47.52L368.133 47.67V51.27C368.403 50.19 368.943 49.29 369.753 48.57C370.563 47.85 371.523 47.49 372.663 47.49C373.953 47.49 375.003 47.97 375.843 48.87C376.653 49.77 377.193 51.18 377.463 53.04L378.483 60C378.603 60.96 378.843 61.65 379.233 62.04C379.593 62.43 380.103 62.61 380.763 62.61V63H372.963V62.61ZM384.166 62.25C382.996 61.56 382.066 60.6 381.406 59.37C380.716 58.17 380.386 56.82 380.386 55.32C380.386 53.79 380.716 52.44 381.406 51.24C382.066 50.04 382.996 49.14 384.166 48.48C385.306 47.82 386.566 47.49 387.946 47.49C389.326 47.49 390.586 47.85 391.726 48.51C392.866 49.2 393.796 50.13 394.486 51.33C395.146 52.53 395.506 53.88 395.506 55.38C395.506 56.91 395.176 58.29 394.516 59.49C393.856 60.69 392.926 61.65 391.786 62.31C390.646 62.97 389.386 63.3 388.006 63.3C386.596 63.3 385.306 62.97 384.166 62.25ZM385.546 60.87C386.386 62.13 387.406 62.73 388.546 62.73C389.686 62.73 390.556 62.19 391.186 61.08C391.786 60 392.116 58.56 392.116 56.79C392.116 56.22 392.056 55.5 391.966 54.66C391.696 52.68 391.156 51.09 390.316 49.89C389.476 48.69 388.516 48.06 387.406 48.06C386.236 48.06 385.336 48.63 384.706 49.74C384.076 50.88 383.776 52.32 383.776 54.06C383.776 54.78 383.806 55.41 383.896 55.98C384.136 57.99 384.706 59.61 385.546 60.87Z" fill="black"/>
</svg>
