<svg viewBox="0 0 211 37" fill="none" xmlns="http://www.w3.org/2000/svg">
<path d="M11.357 2.576L10.509 9.552C10.477 9.808 10.477 9.984 10.477 10.064C10.477 10.656 10.605 11.088 10.861 11.376C11.117 11.664 11.469 11.792 11.917 11.792V12H8.253V11.792C8.733 11.792 9.149 11.616 9.501 11.248C9.837 10.896 10.061 10.32 10.157 9.552L10.925 3.248C10.941 3.12 10.957 2.928 10.957 2.672C10.957 2.112 10.829 1.696 10.589 1.424C10.333 1.152 10.013 1.008 9.613 1.008V0.799999H12.669L15.789 9.392L18.829 0.799999H21.437V1.008C21.101 1.008 20.845 1.088 20.653 1.232C20.461 1.392 20.381 1.648 20.381 2.016C20.381 2.08 20.381 2.208 20.413 2.4L21.533 10.4C21.597 10.912 21.741 11.28 21.949 11.488C22.157 11.696 22.445 11.792 22.797 11.792V12H18.461V11.792C18.845 11.792 19.133 11.712 19.357 11.552C19.565 11.392 19.677 11.12 19.677 10.72C19.677 10.592 19.661 10.48 19.661 10.4L18.589 2.496L15.149 12.16H14.893L11.357 2.576ZM22.8505 11.792C23.2025 11.792 23.4745 11.696 23.6665 11.472C23.8585 11.264 23.9705 10.896 23.9705 10.384V2.416C23.9705 1.904 23.8585 1.552 23.6665 1.328C23.4745 1.12 23.2025 1.008 22.8505 1.008V0.799999H30.7225L31.1865 4.112L30.9785 4.16C30.6265 2.112 29.6345 1.072 28.0025 1.072H25.7945V6.208H27.5705C28.0985 6.208 28.4825 6.08 28.7225 5.792C28.9625 5.52 29.0905 5.04 29.0905 4.352H29.3145V8.368H29.0905C29.0905 7.696 28.9625 7.2 28.7225 6.912C28.4665 6.624 28.0825 6.48 27.5545 6.48H25.7945V10.864C25.7945 11.184 25.8425 11.408 25.9705 11.536C26.0825 11.664 26.3065 11.728 26.6425 11.728H28.2585C29.1545 11.728 29.8585 11.488 30.3705 10.976C30.8825 10.48 31.2825 9.744 31.5705 8.768L31.7465 8.816L31.1225 12H22.8505V11.792ZM31.9911 11.792C32.3431 11.792 32.6151 11.696 32.8071 11.472C32.9991 11.264 33.1111 10.896 33.1111 10.384V2.416C33.1111 1.904 32.9991 1.552 32.8071 1.328C32.6151 1.12 32.3431 1.008 31.9911 1.008V0.799999H39.8631L40.3271 4.112L40.1191 4.16C39.7671 2.112 38.7751 1.072 37.1431 1.072H34.9351V6.208H36.7111C37.2391 6.208 37.6231 6.08 37.8631 5.792C38.1031 5.52 38.2311 5.04 38.2311 4.352H38.4551V8.368H38.2311C38.2311 7.696 38.1031 7.2 37.8631 6.912C37.6071 6.624 37.2231 6.48 36.6951 6.48H34.9351V10.864C34.9351 11.184 34.9831 11.408 35.1111 11.536C35.2231 11.664 35.4471 11.728 35.7831 11.728H37.3991C38.2951 11.728 38.9991 11.488 39.5111 10.976C40.0231 10.48 40.4231 9.744 40.7111 8.768L40.8871 8.816L40.2631 12H31.9911V11.792ZM43.7245 11.792C44.0765 11.792 44.3645 11.696 44.5565 11.488C44.7485 11.28 44.8445 10.912 44.8445 10.384V1.072H43.9805C43.2445 1.072 42.6365 1.376 42.1245 1.952C41.6125 2.528 41.2925 3.264 41.1645 4.16L40.9405 4.128L41.4525 0.799999H50.0605L50.5245 4.128L50.3165 4.16C50.1565 3.264 49.8365 2.528 49.3565 1.952C48.8605 1.376 48.2525 1.072 47.5325 1.072H46.6685V10.384C46.6685 10.912 46.7645 11.28 46.9565 11.488C47.1485 11.696 47.4205 11.792 47.7885 11.792V12H43.7245V11.792ZM54.0693 11.792C54.4213 11.792 54.6933 11.696 54.8853 11.472C55.0773 11.264 55.1893 10.896 55.1893 10.384V2.416C55.1893 1.904 55.0773 1.552 54.8853 1.328C54.6933 1.12 54.4213 1.008 54.0693 1.008V0.799999H58.3733C59.6533 0.799999 60.7413 1.056 61.6533 1.552C62.5653 2.064 63.2533 2.736 63.7333 3.584C64.1973 4.448 64.4373 5.376 64.4373 6.4C64.4373 7.52 64.1973 8.512 63.7333 9.344C63.2693 10.176 62.5813 10.832 61.6533 11.296C60.7253 11.776 59.6053 12 58.2773 12H54.0693V11.792ZM57.0773 11.408C57.1253 11.536 57.2373 11.616 57.4133 11.648C57.5733 11.696 57.8773 11.712 58.2933 11.712C59.1893 11.712 59.9413 11.488 60.5813 11.04C61.2213 10.592 61.7013 9.968 62.0213 9.168C62.3413 8.368 62.5013 7.456 62.5013 6.4C62.5013 5.44 62.3413 4.56 62.0213 3.744C61.7013 2.944 61.2213 2.288 60.5813 1.808C59.9413 1.328 59.1733 1.088 58.2773 1.088H56.9973V10.8C56.9973 11.088 57.0133 11.296 57.0773 11.408ZM66.0274 2.192C65.8194 1.968 65.7234 1.696 65.7234 1.344C65.7234 1.024 65.8194 0.768 66.0274 0.559999C66.2354 0.351999 66.5074 0.24 66.8434 0.24C67.1794 0.24 67.4514 0.351999 67.6594 0.559999C67.8674 0.768 67.9794 1.024 67.9794 1.344C67.9794 1.696 67.8674 1.968 67.6594 2.192C67.4514 2.416 67.1794 2.512 66.8434 2.512C66.5074 2.512 66.2354 2.416 66.0274 2.192ZM65.0034 11.792C65.3554 11.792 65.6274 11.696 65.8194 11.472C66.0114 11.264 66.1234 10.896 66.1234 10.384V5.632C66.1234 5.248 66.0274 4.992 65.8674 4.832C65.7074 4.672 65.4354 4.592 65.0674 4.576V4.368C66.0914 4.304 66.9714 4.096 67.7074 3.744L67.8514 3.824V10.384C67.8514 10.912 67.9474 11.28 68.1394 11.488C68.3314 11.696 68.6034 11.792 68.9714 11.792V12H65.0034V11.792ZM70.7273 15.04C70.2633 14.848 69.9113 14.592 69.6713 14.272C69.4313 13.968 69.3193 13.648 69.3193 13.312C69.3193 13.088 69.4633 12.864 69.7513 12.64C70.0393 12.432 70.4393 12.208 70.9513 11.984C70.5193 11.888 70.1833 11.712 69.9433 11.424C69.7033 11.136 69.5913 10.816 69.5913 10.448C69.5913 10.32 69.6073 10.208 69.6713 10.144C69.7193 10.08 69.8473 9.968 70.0553 9.824L70.4393 9.552L71.0953 9.056C70.5833 8.832 70.1833 8.496 69.8953 8.064C69.6073 7.648 69.4633 7.152 69.4633 6.592C69.4633 6.032 69.6073 5.536 69.8953 5.088C70.1833 4.64 70.5993 4.304 71.1273 4.048C71.6393 3.808 72.2473 3.68 72.9193 3.68C73.1273 3.68 73.4313 3.712 73.8473 3.776C74.3913 3.856 74.8393 3.888 75.2233 3.888H76.8873L76.6153 4.528L75.0633 4.496C75.4473 4.768 75.7353 5.088 75.9433 5.456C76.1353 5.84 76.2473 6.224 76.2473 6.64C76.2473 7.184 76.1033 7.68 75.8153 8.096C75.5273 8.512 75.1433 8.848 74.6313 9.072C74.1193 9.312 73.5433 9.424 72.8713 9.424C72.2793 9.424 71.7513 9.328 71.2873 9.136C71.0633 9.328 70.9033 9.488 70.8393 9.584C70.7593 9.68 70.7273 9.776 70.7273 9.84C70.7273 10.272 71.0473 10.48 71.6873 10.48H74.6953C75.3353 10.48 75.8313 10.592 76.1993 10.816C76.5673 11.04 76.7593 11.424 76.7593 11.968C76.7593 12.512 76.5513 13.04 76.1673 13.552C75.7833 14.08 75.2393 14.512 74.5673 14.848C73.8953 15.184 73.1432 15.344 72.3273 15.344C71.7193 15.344 71.1753 15.248 70.7273 15.04ZM71.4953 14.048C71.9433 14.336 72.5353 14.48 73.2713 14.48C73.8473 14.48 74.3433 14.4 74.7913 14.224C75.2233 14.064 75.5593 13.84 75.7993 13.584C76.0393 13.328 76.1673 13.056 76.1673 12.784C76.1673 12.56 76.0713 12.368 75.8793 12.24C75.6873 12.112 75.4153 12.032 75.0473 12.032H71.4953H71.3033C71.1113 12.192 70.9513 12.352 70.8553 12.496C70.7593 12.64 70.7113 12.816 70.7273 13.008C70.7753 13.424 71.0312 13.76 71.4953 14.048ZM71.6553 8.368C72.0233 8.896 72.5033 9.152 73.0793 9.152C73.5433 9.152 73.9113 8.944 74.1993 8.496C74.4713 8.048 74.6153 7.504 74.6153 6.848C74.6153 6.336 74.5193 5.872 74.3593 5.424C74.1993 4.976 73.9593 4.624 73.6713 4.352C73.3833 4.096 73.0473 3.952 72.6953 3.952C72.1833 3.952 71.7993 4.192 71.5273 4.672C71.2393 5.152 71.1113 5.696 71.1113 6.336C71.1113 7.168 71.2873 7.856 71.6553 8.368ZM78.1836 2.192C77.9756 1.968 77.8796 1.696 77.8796 1.344C77.8796 1.024 77.9756 0.768 78.1836 0.559999C78.3916 0.351999 78.6636 0.24 78.9996 0.24C79.3356 0.24 79.6076 0.351999 79.8156 0.559999C80.0236 0.768 80.1356 1.024 80.1356 1.344C80.1356 1.696 80.0236 1.968 79.8156 2.192C79.6076 2.416 79.3356 2.512 78.9996 2.512C78.6636 2.512 78.3916 2.416 78.1836 2.192ZM77.1596 11.792C77.5116 11.792 77.7836 11.696 77.9756 11.472C78.1676 11.264 78.2796 10.896 78.2796 10.384V5.632C78.2796 5.248 78.1836 4.992 78.0236 4.832C77.8636 4.672 77.5916 4.592 77.2236 4.576V4.368C78.2476 4.304 79.1276 4.096 79.8636 3.744L80.0076 3.824V10.384C80.0076 10.912 80.1036 11.28 80.2956 11.488C80.4876 11.696 80.7596 11.792 81.1276 11.792V12H77.1596V11.792ZM82.5733 11.424C82.1893 10.928 81.9973 10.288 81.9973 9.488V4.528H80.9893V4.304C81.6453 4.24 82.2053 4.016 82.6533 3.6C83.1013 3.184 83.3893 2.624 83.5173 1.904H83.7413V3.888H86.1253L85.8533 4.528H83.7413V9.312C83.7413 9.856 83.8533 10.304 84.0773 10.64C84.3013 10.992 84.6213 11.152 85.0213 11.152C85.3413 11.152 85.5973 11.056 85.8053 10.832C86.0133 10.608 86.1573 10.336 86.2373 10L86.4293 10.032C86.3493 10.64 86.1093 11.136 85.7253 11.552C85.3253 11.968 84.8453 12.16 84.3013 12.16C83.5333 12.16 82.9573 11.92 82.5733 11.424ZM92.2459 11.696C91.9899 11.408 91.8299 10.992 91.7659 10.464L91.7179 10.112C91.6539 10.464 91.4939 10.8 91.2699 11.104C91.0299 11.424 90.7259 11.68 90.3579 11.872C89.9739 12.064 89.5579 12.16 89.0939 12.16C88.4219 12.16 87.8619 11.968 87.4299 11.584C86.9979 11.2 86.7899 10.704 86.7899 10.096C86.7899 9.552 86.9659 9.104 87.3499 8.752C87.7339 8.4 88.2779 8.192 88.9819 8.128L91.4139 7.936L91.3019 7.12C91.2059 6.368 90.9819 5.776 90.6299 5.344C90.2779 4.928 89.8139 4.704 89.2379 4.704C88.7739 4.704 88.3739 4.848 88.0219 5.104C87.6699 5.36 87.4139 5.712 87.2379 6.144L87.0299 6.096C87.1259 5.712 87.3179 5.328 87.6059 4.96C87.8939 4.608 88.2459 4.304 88.6779 4.08C89.1099 3.856 89.5899 3.728 90.1179 3.728C90.9179 3.728 91.5739 3.984 92.0699 4.496C92.5659 5.008 92.8699 5.744 92.9979 6.688L93.4619 10.224C93.5419 10.832 93.7499 11.12 94.1019 11.12C94.1979 11.12 94.2939 11.088 94.3739 10.992C94.4539 10.912 94.5019 10.8 94.5339 10.656L94.7259 10.672C94.6939 11.056 94.5659 11.392 94.3099 11.68C94.0539 11.984 93.7179 12.128 93.3019 12.128C92.8539 12.128 92.5019 11.984 92.2459 11.696ZM88.8219 10.784C89.0939 11.072 89.4619 11.216 89.9419 11.216C90.4219 11.216 90.8219 11.072 91.1419 10.784C91.4459 10.496 91.6219 10.144 91.6699 9.744L91.4459 8.176L89.8779 8.304C89.3979 8.352 89.0299 8.512 88.7739 8.768C88.5179 9.024 88.4059 9.36 88.4059 9.744C88.4059 10.16 88.5339 10.496 88.8219 10.784ZM94.7221 11.792C95.0741 11.792 95.3461 11.696 95.5381 11.472C95.7301 11.264 95.8421 10.896 95.8421 10.384L95.8901 2.064C95.8901 1.68 95.7941 1.408 95.6341 1.248C95.4741 1.088 95.2021 1.008 94.8341 1.008V0.799999C95.8581 0.735999 96.7381 0.528 97.4741 0.176L97.6181 0.256V10.384C97.6181 10.896 97.7141 11.264 97.9061 11.472C98.0981 11.696 98.3861 11.792 98.7381 11.792V12H94.7221V11.792ZM105.294 11.424C104.462 10.912 103.806 10.224 103.326 9.36C102.846 8.496 102.606 7.536 102.606 6.48C102.606 5.424 102.846 4.432 103.326 3.536C103.806 2.64 104.478 1.936 105.326 1.408C106.158 0.879999 107.086 0.608 108.11 0.608C108.558 0.608 108.974 0.655999 109.342 0.752C109.694 0.848 110.062 0.976 110.446 1.136C110.606 1.216 110.766 1.28 110.926 1.328C111.086 1.376 111.23 1.392 111.358 1.392C111.534 1.392 111.694 1.344 111.822 1.232C111.95 1.136 112.014 0.976 112.046 0.752L112.27 0.735999L112.606 5.008L112.382 5.04C112.222 4.288 111.934 3.6 111.502 2.96C111.07 2.32 110.558 1.824 109.95 1.44C109.342 1.072 108.718 0.879999 108.062 0.879999C107.342 0.879999 106.686 1.088 106.11 1.504C105.534 1.92 105.07 2.48 104.734 3.184C104.382 3.888 104.222 4.672 104.222 5.536C104.222 6.544 104.414 7.456 104.83 8.256C105.246 9.056 105.806 9.68 106.526 10.128C107.23 10.576 108.03 10.8 108.926 10.8C109.902 10.8 110.734 10.528 111.406 9.984C112.078 9.44 112.574 8.736 112.878 7.872L113.07 7.92C112.91 8.72 112.622 9.44 112.174 10.08C111.726 10.72 111.15 11.232 110.446 11.616C109.742 12 108.974 12.176 108.126 12.176C107.07 12.176 106.126 11.936 105.294 11.424ZM115.479 11.792C115.079 11.536 114.775 11.168 114.551 10.688C114.327 10.208 114.215 9.632 114.215 8.976V5.632C114.215 5.248 114.119 4.992 113.959 4.832C113.799 4.672 113.527 4.592 113.159 4.576V4.368C114.183 4.304 115.063 4.096 115.799 3.744L115.943 3.824V8.8C115.943 9.536 116.071 10.128 116.359 10.544C116.631 10.976 117.047 11.184 117.607 11.184C118.087 11.184 118.455 11.024 118.727 10.688C118.999 10.352 119.159 9.952 119.207 9.504V5.632C119.207 5.248 119.111 4.992 118.951 4.832C118.791 4.672 118.519 4.592 118.151 4.576V4.368C119.175 4.304 120.055 4.096 120.791 3.744L120.935 3.824V10.496C120.935 10.848 121.015 11.088 121.175 11.216C121.335 11.344 121.623 11.392 122.007 11.376V11.584C120.967 11.712 120.087 11.92 119.367 12.192L119.207 12.096V10.272C119.031 10.784 118.743 11.232 118.343 11.616C117.927 12 117.431 12.176 116.823 12.176C116.311 12.176 115.863 12.048 115.479 11.792ZM121.972 11.792C122.324 11.792 122.596 11.696 122.788 11.472C122.98 11.264 123.092 10.896 123.092 10.384L123.14 2.064C123.14 1.68 123.044 1.408 122.884 1.248C122.724 1.088 122.452 1.008 122.084 1.008V0.799999C123.108 0.735999 123.988 0.528 124.724 0.176L124.868 0.256V10.384C124.868 10.896 124.964 11.264 125.156 11.472C125.348 11.696 125.636 11.792 125.988 11.792V12H121.972V11.792ZM127.433 11.424C127.049 10.928 126.857 10.288 126.857 9.488V4.528H125.849V4.304C126.505 4.24 127.065 4.016 127.513 3.6C127.961 3.184 128.249 2.624 128.377 1.904H128.601V3.888H130.985L130.713 4.528H128.601V9.312C128.601 9.856 128.713 10.304 128.937 10.64C129.161 10.992 129.481 11.152 129.881 11.152C130.201 11.152 130.457 11.056 130.665 10.832C130.873 10.608 131.017 10.336 131.097 10L131.289 10.032C131.209 10.64 130.969 11.136 130.585 11.552C130.185 11.968 129.705 12.16 129.161 12.16C128.393 12.16 127.817 11.92 127.433 11.424ZM133.542 11.792C133.142 11.536 132.838 11.168 132.614 10.688C132.39 10.208 132.278 9.632 132.278 8.976V5.632C132.278 5.248 132.182 4.992 132.022 4.832C131.862 4.672 131.59 4.592 131.222 4.576V4.368C132.246 4.304 133.126 4.096 133.862 3.744L134.006 3.824V8.8C134.006 9.536 134.134 10.128 134.422 10.544C134.694 10.976 135.11 11.184 135.67 11.184C136.15 11.184 136.518 11.024 136.79 10.688C137.062 10.352 137.222 9.952 137.27 9.504V5.632C137.27 5.248 137.174 4.992 137.014 4.832C136.854 4.672 136.582 4.592 136.214 4.576V4.368C137.238 4.304 138.118 4.096 138.854 3.744L138.998 3.824V10.496C138.998 10.848 139.078 11.088 139.238 11.216C139.398 11.344 139.686 11.392 140.07 11.376V11.584C139.03 11.712 138.15 11.92 137.43 12.192L137.27 12.096V10.272C137.094 10.784 136.806 11.232 136.406 11.616C135.99 12 135.494 12.176 134.886 12.176C134.374 12.176 133.926 12.048 133.542 11.792ZM140.222 11.792C140.574 11.792 140.846 11.696 141.038 11.472C141.23 11.264 141.342 10.896 141.342 10.384V5.632C141.342 5.248 141.262 4.992 141.102 4.832C140.942 4.672 140.67 4.592 140.286 4.576V4.368C141.31 4.304 142.19 4.096 142.926 3.744L143.07 3.824V5.568C143.198 5.072 143.438 4.64 143.79 4.272C144.142 3.92 144.542 3.728 145.022 3.728C145.39 3.728 145.694 3.856 145.934 4.08C146.158 4.32 146.286 4.592 146.286 4.896C146.286 5.168 146.19 5.392 146.03 5.584C145.87 5.776 145.646 5.856 145.374 5.856C145.182 5.856 145.038 5.824 144.926 5.728C144.814 5.648 144.718 5.536 144.654 5.408C144.59 5.28 144.526 5.152 144.494 5.024C144.43 4.896 144.382 4.816 144.334 4.752C144.27 4.704 144.206 4.672 144.11 4.672C143.854 4.672 143.63 4.832 143.438 5.12C143.246 5.424 143.118 5.776 143.07 6.176V10.384C143.07 10.896 143.198 11.264 143.454 11.472C143.71 11.696 144.062 11.792 144.526 11.792V12H140.222V11.792ZM148.021 11.6C147.461 11.232 147.029 10.72 146.725 10.08C146.405 9.44 146.261 8.752 146.261 7.984C146.261 7.184 146.421 6.464 146.773 5.824C147.125 5.184 147.589 4.672 148.197 4.288C148.789 3.92 149.445 3.728 150.149 3.728C150.757 3.728 151.301 3.872 151.749 4.144C152.197 4.432 152.549 4.8 152.789 5.264C153.029 5.744 153.157 6.256 153.157 6.8H147.957C147.941 6.864 147.941 6.96 147.941 7.072C147.941 7.824 148.053 8.48 148.293 9.056C148.517 9.632 148.853 10.08 149.285 10.4C149.717 10.72 150.229 10.864 150.805 10.864C151.445 10.864 151.989 10.672 152.437 10.288C152.885 9.904 153.173 9.408 153.301 8.768L153.525 8.8C153.429 9.44 153.205 10.016 152.885 10.528C152.565 11.04 152.149 11.44 151.637 11.728C151.125 12.016 150.565 12.16 149.957 12.16C149.221 12.16 148.581 11.984 148.021 11.6ZM150.773 6.528C150.997 6.528 151.173 6.48 151.269 6.368C151.365 6.256 151.429 6.064 151.429 5.808C151.429 5.36 151.301 4.944 151.077 4.56C150.837 4.176 150.485 3.968 150.021 3.968C149.541 3.968 149.093 4.224 148.709 4.72C148.309 5.232 148.069 5.824 147.973 6.528H150.773ZM160.138 11.424C159.306 10.912 158.65 10.224 158.17 9.36C157.69 8.496 157.45 7.536 157.45 6.48C157.45 5.424 157.69 4.432 158.17 3.536C158.65 2.64 159.322 1.936 160.17 1.408C161.002 0.879999 161.93 0.608 162.954 0.608C163.402 0.608 163.818 0.655999 164.186 0.752C164.538 0.848 164.906 0.976 165.29 1.136C165.45 1.216 165.61 1.28 165.77 1.328C165.93 1.376 166.074 1.392 166.202 1.392C166.378 1.392 166.538 1.344 166.666 1.232C166.794 1.136 166.858 0.976 166.89 0.752L167.114 0.735999L167.45 5.008L167.226 5.04C167.066 4.288 166.778 3.6 166.346 2.96C165.914 2.32 165.402 1.824 164.794 1.44C164.186 1.072 163.562 0.879999 162.906 0.879999C162.186 0.879999 161.53 1.088 160.954 1.504C160.378 1.92 159.914 2.48 159.578 3.184C159.226 3.888 159.066 4.672 159.066 5.536C159.066 6.544 159.258 7.456 159.674 8.256C160.09 9.056 160.65 9.68 161.37 10.128C162.074 10.576 162.874 10.8 163.77 10.8C164.746 10.8 165.578 10.528 166.25 9.984C166.922 9.44 167.418 8.736 167.722 7.872L167.914 7.92C167.754 8.72 167.466 9.44 167.018 10.08C166.57 10.72 165.994 11.232 165.29 11.616C164.586 12 163.818 12.176 162.97 12.176C161.914 12.176 160.97 11.936 160.138 11.424ZM170.333 11.6C169.773 11.232 169.341 10.72 169.037 10.08C168.717 9.44 168.573 8.752 168.573 7.984C168.573 7.184 168.733 6.464 169.085 5.824C169.437 5.184 169.901 4.672 170.509 4.288C171.101 3.92 171.757 3.728 172.461 3.728C173.069 3.728 173.613 3.872 174.061 4.144C174.509 4.432 174.861 4.8 175.101 5.264C175.341 5.744 175.469 6.256 175.469 6.8H170.269C170.253 6.864 170.253 6.96 170.253 7.072C170.253 7.824 170.365 8.48 170.605 9.056C170.829 9.632 171.165 10.08 171.597 10.4C172.029 10.72 172.541 10.864 173.117 10.864C173.757 10.864 174.301 10.672 174.749 10.288C175.197 9.904 175.485 9.408 175.613 8.768L175.837 8.8C175.741 9.44 175.517 10.016 175.197 10.528C174.877 11.04 174.461 11.44 173.949 11.728C173.437 12.016 172.877 12.16 172.269 12.16C171.533 12.16 170.893 11.984 170.333 11.6ZM173.085 6.528C173.309 6.528 173.485 6.48 173.581 6.368C173.677 6.256 173.741 6.064 173.741 5.808C173.741 5.36 173.613 4.944 173.389 4.56C173.149 4.176 172.797 3.968 172.333 3.968C171.853 3.968 171.405 4.224 171.021 4.72C170.621 5.232 170.381 5.824 170.285 6.528H173.085ZM181.193 11.792C181.545 11.792 181.833 11.712 182.041 11.552C182.249 11.392 182.361 11.12 182.361 10.72C182.361 10.592 182.345 10.48 182.345 10.4L181.849 6.736C181.657 5.376 181.097 4.688 180.185 4.688C179.769 4.688 179.401 4.864 179.113 5.2C178.825 5.552 178.649 5.952 178.617 6.432V10.384C178.617 10.912 178.713 11.28 178.905 11.488C179.097 11.696 179.369 11.792 179.737 11.792V12H175.769V11.792C176.121 11.792 176.393 11.696 176.585 11.472C176.777 11.264 176.889 10.896 176.889 10.384V5.632C176.889 5.248 176.793 4.992 176.633 4.832C176.473 4.672 176.201 4.592 175.833 4.576V4.368C176.857 4.304 177.737 4.096 178.473 3.744L178.617 3.824V5.744C178.761 5.168 179.049 4.688 179.481 4.304C179.913 3.92 180.425 3.728 181.033 3.728C181.721 3.728 182.281 3.984 182.729 4.464C183.161 4.944 183.449 5.696 183.593 6.688L184.137 10.4C184.201 10.912 184.329 11.28 184.537 11.488C184.729 11.696 185.001 11.792 185.353 11.792V12H181.193V11.792ZM186.323 11.424C185.939 10.928 185.747 10.288 185.747 9.488V4.528H184.739V4.304C185.395 4.24 185.955 4.016 186.403 3.6C186.851 3.184 187.139 2.624 187.267 1.904H187.491V3.888H189.875L189.603 4.528H187.491V9.312C187.491 9.856 187.603 10.304 187.827 10.64C188.051 10.992 188.371 11.152 188.771 11.152C189.091 11.152 189.347 11.056 189.555 10.832C189.763 10.608 189.907 10.336 189.987 10L190.179 10.032C190.099 10.64 189.859 11.136 189.475 11.552C189.075 11.968 188.595 12.16 188.051 12.16C187.283 12.16 186.707 11.92 186.323 11.424ZM192.052 11.6C191.492 11.232 191.06 10.72 190.756 10.08C190.436 9.44 190.292 8.752 190.292 7.984C190.292 7.184 190.452 6.464 190.804 5.824C191.156 5.184 191.62 4.672 192.228 4.288C192.82 3.92 193.476 3.728 194.18 3.728C194.788 3.728 195.332 3.872 195.78 4.144C196.228 4.432 196.58 4.8 196.82 5.264C197.06 5.744 197.188 6.256 197.188 6.8H191.988C191.972 6.864 191.972 6.96 191.972 7.072C191.972 7.824 192.084 8.48 192.324 9.056C192.548 9.632 192.884 10.08 193.316 10.4C193.748 10.72 194.26 10.864 194.836 10.864C195.476 10.864 196.02 10.672 196.468 10.288C196.916 9.904 197.204 9.408 197.332 8.768L197.556 8.8C197.46 9.44 197.236 10.016 196.916 10.528C196.596 11.04 196.18 11.44 195.668 11.728C195.156 12.016 194.596 12.16 193.988 12.16C193.252 12.16 192.612 11.984 192.052 11.6ZM194.804 6.528C195.028 6.528 195.204 6.48 195.3 6.368C195.396 6.256 195.46 6.064 195.46 5.808C195.46 5.36 195.332 4.944 195.108 4.56C194.868 4.176 194.516 3.968 194.052 3.968C193.572 3.968 193.124 4.224 192.74 4.72C192.34 5.232 192.1 5.824 192.004 6.528H194.804ZM197.488 11.792C197.84 11.792 198.112 11.696 198.304 11.472C198.496 11.264 198.608 10.896 198.608 10.384V5.632C198.608 5.248 198.528 4.992 198.368 4.832C198.208 4.672 197.936 4.592 197.552 4.576V4.368C198.576 4.304 199.456 4.096 200.192 3.744L200.336 3.824V5.568C200.464 5.072 200.704 4.64 201.056 4.272C201.408 3.92 201.808 3.728 202.288 3.728C202.656 3.728 202.96 3.856 203.2 4.08C203.424 4.32 203.552 4.592 203.552 4.896C203.552 5.168 203.456 5.392 203.296 5.584C203.136 5.776 202.912 5.856 202.64 5.856C202.448 5.856 202.304 5.824 202.192 5.728C202.08 5.648 201.984 5.536 201.92 5.408C201.856 5.28 201.792 5.152 201.76 5.024C201.696 4.896 201.648 4.816 201.6 4.752C201.536 4.704 201.472 4.672 201.376 4.672C201.12 4.672 200.896 4.832 200.704 5.12C200.512 5.424 200.384 5.776 200.336 6.176V10.384C200.336 10.896 200.464 11.264 200.72 11.472C200.976 11.696 201.328 11.792 201.792 11.792V12H197.488V11.792ZM2.73031 30.064L1.65831 24.4C1.56231 23.888 1.38631 23.536 1.16231 23.328C0.922313 23.12 0.618313 23.008 0.234312 23.008V22.8H4.42631V23.008C3.77031 23.008 3.45031 23.328 3.45031 23.936C3.45031 24.064 3.46631 24.224 3.49831 24.4L4.49031 29.632C4.68231 30.72 4.98631 31.504 5.38631 32.016C5.77031 32.528 6.31431 32.784 7.00231 32.784C7.57831 32.784 8.13831 32.56 8.71431 32.112C9.29031 31.664 9.75431 31.056 10.1223 30.272C10.4743 29.504 10.6663 28.64 10.6663 27.696C10.6663 26.976 10.5543 26.336 10.3623 25.776C10.1543 25.232 9.88231 24.8 9.54631 24.512C9.21031 24.224 8.84231 24.064 8.45831 24.064C8.28231 24.064 8.13831 24.096 8.02631 24.128C7.89831 24.176 7.77031 24.24 7.61031 24.336C7.48231 24.432 7.35431 24.496 7.24231 24.544C7.11431 24.592 6.97031 24.608 6.81031 24.608C6.53831 24.608 6.31431 24.512 6.12231 24.32C5.93031 24.128 5.83431 23.904 5.83431 23.632C5.83431 23.344 5.93031 23.104 6.15431 22.912C6.36231 22.72 6.68231 22.624 7.09831 22.624C7.75431 22.624 8.37831 22.816 8.98631 23.184C9.57831 23.568 10.0583 24.128 10.4423 24.896C10.8103 25.664 11.0023 26.608 11.0023 27.712C11.0023 28.8 10.7943 29.856 10.3943 30.848C9.97831 31.84 9.41831 32.64 8.71431 33.248C8.01031 33.856 7.22631 34.16 6.37831 34.16C4.45831 34.16 3.24231 32.8 2.73031 30.064ZM12.6758 24.192C12.4678 23.968 12.3718 23.696 12.3718 23.344C12.3718 23.024 12.4678 22.768 12.6758 22.56C12.8838 22.352 13.1558 22.24 13.4918 22.24C13.8278 22.24 14.0998 22.352 14.3078 22.56C14.5158 22.768 14.6278 23.024 14.6278 23.344C14.6278 23.696 14.5158 23.968 14.3078 24.192C14.0998 24.416 13.8278 24.512 13.4918 24.512C13.1558 24.512 12.8838 24.416 12.6758 24.192ZM11.6518 33.792C12.0038 33.792 12.2758 33.696 12.4678 33.472C12.6598 33.264 12.7718 32.896 12.7718 32.384V27.632C12.7718 27.248 12.6758 26.992 12.5158 26.832C12.3558 26.672 12.0838 26.592 11.7158 26.576V26.368C12.7398 26.304 13.6198 26.096 14.3558 25.744L14.4998 25.824V32.384C14.4998 32.912 14.5958 33.28 14.7878 33.488C14.9798 33.696 15.2518 33.792 15.6198 33.792V34H11.6518V33.792ZM21.2381 33.696C20.9821 33.408 20.8221 32.992 20.7581 32.464L20.7101 32.112C20.6461 32.464 20.4861 32.8 20.2621 33.104C20.0221 33.424 19.7181 33.68 19.3501 33.872C18.9661 34.064 18.5501 34.16 18.0861 34.16C17.4141 34.16 16.8541 33.968 16.4221 33.584C15.9901 33.2 15.7821 32.704 15.7821 32.096C15.7821 31.552 15.9581 31.104 16.3421 30.752C16.7261 30.4 17.2701 30.192 17.9741 30.128L20.4061 29.936L20.2941 29.12C20.1981 28.368 19.9741 27.776 19.6221 27.344C19.2701 26.928 18.8061 26.704 18.2301 26.704C17.7661 26.704 17.3661 26.848 17.0141 27.104C16.6621 27.36 16.4061 27.712 16.2301 28.144L16.0221 28.096C16.1181 27.712 16.3101 27.328 16.5981 26.96C16.8861 26.608 17.2381 26.304 17.6701 26.08C18.1021 25.856 18.5821 25.728 19.1101 25.728C19.9101 25.728 20.5661 25.984 21.0621 26.496C21.5581 27.008 21.8621 27.744 21.9901 28.688L22.4541 32.224C22.5341 32.832 22.7421 33.12 23.0941 33.12C23.1901 33.12 23.2861 33.088 23.3661 32.992C23.4461 32.912 23.4941 32.8 23.5261 32.656L23.7181 32.672C23.6861 33.056 23.5581 33.392 23.3021 33.68C23.0461 33.984 22.7101 34.128 22.2941 34.128C21.8461 34.128 21.4941 33.984 21.2381 33.696ZM17.8141 32.784C18.0861 33.072 18.4541 33.216 18.9341 33.216C19.4141 33.216 19.8141 33.072 20.1341 32.784C20.4381 32.496 20.6141 32.144 20.6621 31.744L20.4381 30.176L18.8701 30.304C18.3901 30.352 18.0221 30.512 17.7661 30.768C17.5101 31.024 17.3981 31.36 17.3981 31.744C17.3981 32.16 17.5261 32.496 17.8141 32.784ZM23.7143 33.792C24.0663 33.792 24.3383 33.696 24.5303 33.472C24.7223 33.264 24.8343 32.896 24.8343 32.384L24.8823 24.064C24.8823 23.68 24.7863 23.408 24.6263 23.248C24.4663 23.088 24.1943 23.008 23.8263 23.008V22.8C24.8503 22.736 25.7303 22.528 26.4663 22.176L26.6103 22.256V32.384C26.6103 32.896 26.7063 33.264 26.8983 33.472C27.0903 33.696 27.3783 33.792 27.7303 33.792V34H23.7143V33.792ZM29.5599 33.6C28.9999 33.232 28.5679 32.72 28.2639 32.08C27.9439 31.44 27.7999 30.752 27.7999 29.984C27.7999 29.184 27.9599 28.464 28.3119 27.824C28.6639 27.184 29.1279 26.672 29.7359 26.288C30.3279 25.92 30.9839 25.728 31.6879 25.728C32.2959 25.728 32.8399 25.872 33.2879 26.144C33.7359 26.432 34.0879 26.8 34.3279 27.264C34.5679 27.744 34.6959 28.256 34.6959 28.8H29.4959C29.4799 28.864 29.4799 28.96 29.4799 29.072C29.4799 29.824 29.5919 30.48 29.8319 31.056C30.0559 31.632 30.3919 32.08 30.8239 32.4C31.2559 32.72 31.7679 32.864 32.3439 32.864C32.9839 32.864 33.5279 32.672 33.9759 32.288C34.4239 31.904 34.7119 31.408 34.8399 30.768L35.0639 30.8C34.9679 31.44 34.7439 32.016 34.4239 32.528C34.1039 33.04 33.6879 33.44 33.1759 33.728C32.6639 34.016 32.1039 34.16 31.4959 34.16C30.7599 34.16 30.1199 33.984 29.5599 33.6ZM32.3119 28.528C32.5359 28.528 32.7119 28.48 32.8079 28.368C32.9039 28.256 32.9679 28.064 32.9679 27.808C32.9679 27.36 32.8399 26.944 32.6159 26.56C32.3759 26.176 32.0239 25.968 31.5599 25.968C31.0799 25.968 30.6319 26.224 30.2479 26.72C29.8479 27.232 29.6079 27.824 29.5119 28.528H32.3119ZM40.6209 30.064L39.5489 24.4C39.4529 23.888 39.2769 23.536 39.0529 23.328C38.8129 23.12 38.5089 23.008 38.1249 23.008V22.8H42.3169V23.008C41.6609 23.008 41.3409 23.328 41.3409 23.936C41.3409 24.064 41.3569 24.224 41.3889 24.4L42.3809 29.632C42.5729 30.72 42.8769 31.504 43.2769 32.016C43.6609 32.528 44.2049 32.784 44.8929 32.784C45.4689 32.784 46.0289 32.56 46.6049 32.112C47.1809 31.664 47.6449 31.056 48.0129 30.272C48.3649 29.504 48.5569 28.64 48.5569 27.696C48.5569 26.976 48.4449 26.336 48.2529 25.776C48.0449 25.232 47.7729 24.8 47.4369 24.512C47.1009 24.224 46.7329 24.064 46.3489 24.064C46.1729 24.064 46.0289 24.096 45.9169 24.128C45.7889 24.176 45.6609 24.24 45.5009 24.336C45.3729 24.432 45.2449 24.496 45.1329 24.544C45.0049 24.592 44.8609 24.608 44.7009 24.608C44.4289 24.608 44.2049 24.512 44.0129 24.32C43.8209 24.128 43.7249 23.904 43.7249 23.632C43.7249 23.344 43.8209 23.104 44.0449 22.912C44.2529 22.72 44.5729 22.624 44.9889 22.624C45.6449 22.624 46.2689 22.816 46.8769 23.184C47.4689 23.568 47.9489 24.128 48.3329 24.896C48.7009 25.664 48.8929 26.608 48.8929 27.712C48.8929 28.8 48.6849 29.856 48.2849 30.848C47.8689 31.84 47.3089 32.64 46.6049 33.248C45.9009 33.856 45.1169 34.16 44.2689 34.16C42.3489 34.16 41.1329 32.8 40.6209 30.064ZM50.5664 24.192C50.3584 23.968 50.2624 23.696 50.2624 23.344C50.2624 23.024 50.3584 22.768 50.5664 22.56C50.7744 22.352 51.0464 22.24 51.3824 22.24C51.7184 22.24 51.9904 22.352 52.1984 22.56C52.4064 22.768 52.5184 23.024 52.5184 23.344C52.5184 23.696 52.4064 23.968 52.1984 24.192C51.9904 24.416 51.7184 24.512 51.3824 24.512C51.0464 24.512 50.7744 24.416 50.5664 24.192ZM49.5424 33.792C49.8944 33.792 50.1664 33.696 50.3584 33.472C50.5504 33.264 50.6624 32.896 50.6624 32.384V27.632C50.6624 27.248 50.5664 26.992 50.4064 26.832C50.2464 26.672 49.9744 26.592 49.6064 26.576V26.368C50.6304 26.304 51.5104 26.096 52.2464 25.744L52.3904 25.824V32.384C52.3904 32.912 52.4864 33.28 52.6784 33.488C52.8704 33.696 53.1424 33.792 53.5104 33.792V34H49.5424V33.792ZM54.9561 33.424C54.5721 32.928 54.3801 32.288 54.3801 31.488V26.528H53.3721V26.304C54.0281 26.24 54.5881 26.016 55.0361 25.6C55.4841 25.184 55.7721 24.624 55.9001 23.904H56.1241V25.888H58.5081L58.2361 26.528H56.1241V31.312C56.1241 31.856 56.2361 32.304 56.4601 32.64C56.6841 32.992 57.0041 33.152 57.4041 33.152C57.7241 33.152 57.9801 33.056 58.1881 32.832C58.3961 32.608 58.5401 32.336 58.6201 32L58.8121 32.032C58.7321 32.64 58.4921 33.136 58.1081 33.552C57.7081 33.968 57.2281 34.16 56.6841 34.16C55.9161 34.16 55.3401 33.92 54.9561 33.424ZM60.3623 33.424C59.9783 32.928 59.7863 32.288 59.7863 31.488V26.528H58.7783V26.304C59.4343 26.24 59.9943 26.016 60.4423 25.6C60.8903 25.184 61.1783 24.624 61.3063 23.904H61.5303V25.888H63.9143L63.6423 26.528H61.5303V31.312C61.5303 31.856 61.6423 32.304 61.8663 32.64C62.0903 32.992 62.4103 33.152 62.8103 33.152C63.1303 33.152 63.3863 33.056 63.5943 32.832C63.8023 32.608 63.9463 32.336 64.0263 32L64.2183 32.032C64.1383 32.64 63.8983 33.136 63.5143 33.552C63.1143 33.968 62.6343 34.16 62.0903 34.16C61.3223 34.16 60.7463 33.92 60.3623 33.424ZM66.3003 33.6C65.6763 33.232 65.1803 32.72 64.8283 32.064C64.4603 31.424 64.2843 30.704 64.2843 29.904C64.2843 29.088 64.4603 28.368 64.8283 27.728C65.1803 27.088 65.6763 26.608 66.3003 26.256C66.9083 25.904 67.5803 25.728 68.3163 25.728C69.0523 25.728 69.7243 25.92 70.3323 26.272C70.9403 26.64 71.4363 27.136 71.8043 27.776C72.1563 28.416 72.3483 29.136 72.3483 29.936C72.3483 30.752 72.1723 31.488 71.8203 32.128C71.4683 32.768 70.9723 33.28 70.3643 33.632C69.7563 33.984 69.0843 34.16 68.3483 34.16C67.5963 34.16 66.9083 33.984 66.3003 33.6ZM67.0363 32.864C67.4843 33.536 68.0283 33.856 68.6363 33.856C69.2443 33.856 69.7083 33.568 70.0443 32.976C70.3643 32.4 70.5403 31.632 70.5403 30.688C70.5403 30.384 70.5083 30 70.4603 29.552C70.3163 28.496 70.0283 27.648 69.5803 27.008C69.1323 26.368 68.6203 26.032 68.0283 26.032C67.4043 26.032 66.9243 26.336 66.5883 26.928C66.2523 27.536 66.0923 28.304 66.0923 29.232C66.0923 29.616 66.1083 29.952 66.1563 30.256C66.2843 31.328 66.5883 32.192 67.0363 32.864ZM72.3706 33.792C72.7226 33.792 72.9946 33.696 73.1866 33.472C73.3786 33.264 73.4906 32.896 73.4906 32.384V27.632C73.4906 27.248 73.4106 26.992 73.2506 26.832C73.0906 26.672 72.8186 26.592 72.4346 26.576V26.368C73.4586 26.304 74.3386 26.096 75.0746 25.744L75.2186 25.824V27.568C75.3466 27.072 75.5866 26.64 75.9386 26.272C76.2906 25.92 76.6906 25.728 77.1706 25.728C77.5386 25.728 77.8426 25.856 78.0826 26.08C78.3066 26.32 78.4346 26.592 78.4346 26.896C78.4346 27.168 78.3386 27.392 78.1786 27.584C78.0186 27.776 77.7946 27.856 77.5226 27.856C77.3306 27.856 77.1866 27.824 77.0746 27.728C76.9626 27.648 76.8666 27.536 76.8026 27.408C76.7386 27.28 76.6746 27.152 76.6426 27.024C76.5786 26.896 76.5306 26.816 76.4826 26.752C76.4186 26.704 76.3546 26.672 76.2586 26.672C76.0026 26.672 75.7786 26.832 75.5866 27.12C75.3946 27.424 75.2666 27.776 75.2186 28.176V32.384C75.2186 32.896 75.3466 33.264 75.6026 33.472C75.8586 33.696 76.2106 33.792 76.6746 33.792V34H72.3706V33.792ZM79.5039 24.192C79.2959 23.968 79.1999 23.696 79.1999 23.344C79.1999 23.024 79.2959 22.768 79.5039 22.56C79.7119 22.352 79.9839 22.24 80.3199 22.24C80.6559 22.24 80.9279 22.352 81.1359 22.56C81.3439 22.768 81.4559 23.024 81.4559 23.344C81.4559 23.696 81.3439 23.968 81.1359 24.192C80.9279 24.416 80.6559 24.512 80.3199 24.512C79.9839 24.512 79.7119 24.416 79.5039 24.192ZM78.4799 33.792C78.8319 33.792 79.1039 33.696 79.2959 33.472C79.4879 33.264 79.5999 32.896 79.5999 32.384V27.632C79.5999 27.248 79.5039 26.992 79.3439 26.832C79.1839 26.672 78.9119 26.592 78.5439 26.576V26.368C79.5679 26.304 80.4479 26.096 81.1839 25.744L81.3279 25.824V32.384C81.3279 32.912 81.4239 33.28 81.6159 33.488C81.8079 33.696 82.0799 33.792 82.4479 33.792V34H78.4799V33.792ZM84.5347 33.6C83.9107 33.232 83.4147 32.72 83.0627 32.064C82.6947 31.424 82.5187 30.704 82.5187 29.904C82.5187 29.088 82.6947 28.368 83.0627 27.728C83.4147 27.088 83.9107 26.608 84.5347 26.256C85.1427 25.904 85.8147 25.728 86.5507 25.728C87.2867 25.728 87.9587 25.92 88.5667 26.272C89.1747 26.64 89.6707 27.136 90.0387 27.776C90.3907 28.416 90.5827 29.136 90.5827 29.936C90.5827 30.752 90.4067 31.488 90.0547 32.128C89.7027 32.768 89.2067 33.28 88.5987 33.632C87.9907 33.984 87.3187 34.16 86.5827 34.16C85.8307 34.16 85.1427 33.984 84.5347 33.6ZM85.2707 32.864C85.7187 33.536 86.2627 33.856 86.8707 33.856C87.4787 33.856 87.9427 33.568 88.2787 32.976C88.5987 32.4 88.7747 31.632 88.7747 30.688C88.7747 30.384 88.7427 30 88.6947 29.552C88.5507 28.496 88.2627 27.648 87.8147 27.008C87.3667 26.368 86.8547 26.032 86.2627 26.032C85.6387 26.032 85.1587 26.336 84.8227 26.928C84.4867 27.536 84.3267 28.304 84.3267 29.232C84.3267 29.616 84.3427 29.952 84.3907 30.256C84.5187 31.328 84.8227 32.192 85.2707 32.864ZM96.3241 30.064L95.2521 24.4C95.1561 23.888 94.9801 23.536 94.7561 23.328C94.5161 23.12 94.2121 23.008 93.8281 23.008V22.8H98.0201V23.008C97.3641 23.008 97.0441 23.328 97.0441 23.936C97.0441 24.064 97.0601 24.224 97.0921 24.4L98.0841 29.632C98.2761 30.72 98.5801 31.504 98.9801 32.016C99.3641 32.528 99.9081 32.784 100.596 32.784C101.172 32.784 101.732 32.56 102.308 32.112C102.884 31.664 103.348 31.056 103.716 30.272C104.068 29.504 104.26 28.64 104.26 27.696C104.26 26.976 104.148 26.336 103.956 25.776C103.748 25.232 103.476 24.8 103.14 24.512C102.804 24.224 102.436 24.064 102.052 24.064C101.876 24.064 101.732 24.096 101.62 24.128C101.492 24.176 101.364 24.24 101.204 24.336C101.076 24.432 100.948 24.496 100.836 24.544C100.708 24.592 100.564 24.608 100.404 24.608C100.132 24.608 99.9081 24.512 99.7161 24.32C99.5241 24.128 99.4281 23.904 99.4281 23.632C99.4281 23.344 99.5241 23.104 99.7481 22.912C99.9561 22.72 100.276 22.624 100.692 22.624C101.348 22.624 101.972 22.816 102.58 23.184C103.172 23.568 103.652 24.128 104.036 24.896C104.404 25.664 104.596 26.608 104.596 27.712C104.596 28.8 104.388 29.856 103.988 30.848C103.572 31.84 103.012 32.64 102.308 33.248C101.604 33.856 100.82 34.16 99.9721 34.16C98.0521 34.16 96.8361 32.8 96.3241 30.064ZM107.122 33.6C106.562 33.232 106.13 32.72 105.826 32.08C105.506 31.44 105.362 30.752 105.362 29.984C105.362 29.184 105.522 28.464 105.874 27.824C106.226 27.184 106.69 26.672 107.298 26.288C107.89 25.92 108.546 25.728 109.25 25.728C109.858 25.728 110.402 25.872 110.85 26.144C111.298 26.432 111.65 26.8 111.89 27.264C112.13 27.744 112.258 28.256 112.258 28.8H107.058C107.042 28.864 107.042 28.96 107.042 29.072C107.042 29.824 107.154 30.48 107.394 31.056C107.618 31.632 107.954 32.08 108.386 32.4C108.818 32.72 109.33 32.864 109.906 32.864C110.546 32.864 111.09 32.672 111.538 32.288C111.986 31.904 112.274 31.408 112.402 30.768L112.626 30.8C112.53 31.44 112.306 32.016 111.986 32.528C111.666 33.04 111.25 33.44 110.738 33.728C110.226 34.016 109.666 34.16 109.058 34.16C108.322 34.16 107.682 33.984 107.122 33.6ZM109.874 28.528C110.098 28.528 110.274 28.48 110.37 28.368C110.466 28.256 110.53 28.064 110.53 27.808C110.53 27.36 110.402 26.944 110.178 26.56C109.938 26.176 109.586 25.968 109.122 25.968C108.642 25.968 108.194 26.224 107.81 26.72C107.41 27.232 107.17 27.824 107.074 28.528H109.874ZM117.982 33.792C118.334 33.792 118.622 33.712 118.83 33.552C119.038 33.392 119.15 33.12 119.15 32.72C119.15 32.592 119.134 32.48 119.134 32.4L118.638 28.736C118.446 27.376 117.886 26.688 116.974 26.688C116.558 26.688 116.19 26.864 115.902 27.2C115.614 27.552 115.438 27.952 115.406 28.432V32.384C115.406 32.912 115.502 33.28 115.694 33.488C115.886 33.696 116.158 33.792 116.526 33.792V34H112.558V33.792C112.91 33.792 113.182 33.696 113.374 33.472C113.566 33.264 113.678 32.896 113.678 32.384V27.632C113.678 27.248 113.582 26.992 113.422 26.832C113.262 26.672 112.99 26.592 112.622 26.576V26.368C113.646 26.304 114.526 26.096 115.262 25.744L115.406 25.824V27.744C115.55 27.168 115.838 26.688 116.27 26.304C116.702 25.92 117.214 25.728 117.822 25.728C118.51 25.728 119.07 25.984 119.518 26.464C119.95 26.944 120.238 27.696 120.382 28.688L120.926 32.4C120.99 32.912 121.118 33.28 121.326 33.488C121.518 33.696 121.79 33.792 122.142 33.792V34H117.982V33.792ZM123.716 33.6C123.156 33.232 122.724 32.72 122.42 32.08C122.1 31.44 121.956 30.752 121.956 29.984C121.956 29.184 122.116 28.464 122.468 27.824C122.82 27.184 123.284 26.672 123.892 26.288C124.484 25.92 125.14 25.728 125.844 25.728C126.452 25.728 126.996 25.872 127.444 26.144C127.892 26.432 128.244 26.8 128.484 27.264C128.724 27.744 128.852 28.256 128.852 28.8H123.652C123.636 28.864 123.636 28.96 123.636 29.072C123.636 29.824 123.748 30.48 123.988 31.056C124.212 31.632 124.548 32.08 124.98 32.4C125.412 32.72 125.924 32.864 126.5 32.864C127.14 32.864 127.684 32.672 128.132 32.288C128.58 31.904 128.868 31.408 128.996 30.768L129.22 30.8C129.124 31.44 128.9 32.016 128.58 32.528C128.26 33.04 127.844 33.44 127.332 33.728C126.82 34.016 126.26 34.16 125.652 34.16C124.916 34.16 124.276 33.984 123.716 33.6ZM126.468 28.528C126.692 28.528 126.868 28.48 126.964 28.368C127.06 28.256 127.124 28.064 127.124 27.808C127.124 27.36 126.996 26.944 126.772 26.56C126.532 26.176 126.18 25.968 125.716 25.968C125.236 25.968 124.788 26.224 124.404 26.72C124.004 27.232 123.764 27.824 123.668 28.528H126.468ZM130.784 33.424C130.4 32.928 130.208 32.288 130.208 31.488V26.528H129.2V26.304C129.856 26.24 130.416 26.016 130.864 25.6C131.312 25.184 131.6 24.624 131.728 23.904H131.952V25.888H134.336L134.064 26.528H131.952V31.312C131.952 31.856 132.064 32.304 132.288 32.64C132.512 32.992 132.832 33.152 133.232 33.152C133.552 33.152 133.808 33.056 134.016 32.832C134.224 32.608 134.368 32.336 134.448 32L134.64 32.032C134.56 32.64 134.32 33.136 133.936 33.552C133.536 33.968 133.056 34.16 132.512 34.16C131.744 34.16 131.168 33.92 130.784 33.424ZM136.722 33.6C136.098 33.232 135.602 32.72 135.25 32.064C134.882 31.424 134.706 30.704 134.706 29.904C134.706 29.088 134.882 28.368 135.25 27.728C135.602 27.088 136.098 26.608 136.722 26.256C137.33 25.904 138.002 25.728 138.738 25.728C139.474 25.728 140.146 25.92 140.754 26.272C141.362 26.64 141.858 27.136 142.226 27.776C142.578 28.416 142.77 29.136 142.77 29.936C142.77 30.752 142.594 31.488 142.242 32.128C141.89 32.768 141.394 33.28 140.786 33.632C140.178 33.984 139.506 34.16 138.77 34.16C138.018 34.16 137.33 33.984 136.722 33.6ZM137.458 32.864C137.906 33.536 138.45 33.856 139.058 33.856C139.666 33.856 140.13 33.568 140.466 32.976C140.786 32.4 140.962 31.632 140.962 30.688C140.962 30.384 140.93 30 140.882 29.552C140.738 28.496 140.45 27.648 140.002 27.008C139.554 26.368 139.042 26.032 138.45 26.032C137.826 26.032 137.346 26.336 137.01 26.928C136.674 27.536 136.514 28.304 136.514 29.232C136.514 29.616 136.53 29.952 136.578 30.256C136.706 31.328 137.01 32.192 137.458 32.864ZM144.216 35.36C144.472 35.072 144.616 34.784 144.616 34.496C144.616 34.336 144.568 34.224 144.488 34.144C144.392 34.064 144.264 33.968 144.088 33.872C143.848 33.76 143.672 33.632 143.56 33.504C143.432 33.376 143.384 33.168 143.384 32.88C143.384 32.592 143.48 32.352 143.688 32.16C143.88 31.968 144.12 31.856 144.408 31.856C144.76 31.856 145.032 32 145.256 32.288C145.464 32.576 145.576 32.928 145.576 33.344C145.576 34.048 145.336 34.64 144.888 35.152C144.44 35.664 143.912 36.032 143.336 36.224L143.256 36.016C143.624 35.872 143.944 35.648 144.216 35.36ZM152.764 29.488C153.484 28.336 153.852 27.216 153.852 26.16C153.852 25.312 153.644 24.672 153.26 24.24C152.86 23.824 152.38 23.6 151.836 23.6C151.34 23.6 150.908 23.776 150.54 24.128C150.156 24.48 149.916 24.896 149.804 25.408L149.564 25.376C149.644 24.896 149.836 24.432 150.14 24.016C150.428 23.6 150.812 23.264 151.26 23.008C151.708 22.752 152.188 22.624 152.732 22.624C153.26 22.624 153.756 22.768 154.204 23.024C154.652 23.28 155.02 23.648 155.292 24.128C155.564 24.608 155.708 25.136 155.708 25.728C155.708 26.464 155.516 27.184 155.132 27.856C154.748 28.544 154.22 29.216 153.564 29.888C152.908 30.56 151.948 31.456 150.7 32.576H153.356C153.98 32.576 154.46 32.528 154.78 32.432C155.1 32.336 155.34 32.16 155.516 31.904C155.676 31.664 155.836 31.28 155.996 30.736L156.188 30.784L155.564 34H149.26V33.712C150.876 32.048 152.044 30.64 152.764 29.488ZM157.856 35.36C158.112 35.072 158.256 34.784 158.256 34.496C158.256 34.336 158.208 34.224 158.128 34.144C158.032 34.064 157.904 33.968 157.728 33.872C157.488 33.76 157.312 33.632 157.2 33.504C157.072 33.376 157.024 33.168 157.024 32.88C157.024 32.592 157.12 32.352 157.328 32.16C157.52 31.968 157.76 31.856 158.048 31.856C158.4 31.856 158.672 32 158.896 32.288C159.104 32.576 159.216 32.928 159.216 33.344C159.216 34.048 158.976 34.64 158.528 35.152C158.08 35.664 157.552 36.032 156.976 36.224L156.896 36.016C157.264 35.872 157.584 35.648 157.856 35.36ZM166.052 24.576L165.204 31.552C165.172 31.808 165.172 31.984 165.172 32.064C165.172 32.656 165.3 33.088 165.556 33.376C165.812 33.664 166.164 33.792 166.612 33.792V34H162.948V33.792C163.428 33.792 163.844 33.616 164.196 33.248C164.532 32.896 164.756 32.32 164.852 31.552L165.62 25.248C165.636 25.12 165.652 24.928 165.652 24.672C165.652 24.112 165.524 23.696 165.284 23.424C165.028 23.152 164.708 23.008 164.308 23.008V22.8H167.364L170.484 31.392L173.524 22.8H176.132V23.008C175.796 23.008 175.54 23.088 175.348 23.232C175.156 23.392 175.076 23.648 175.076 24.016C175.076 24.08 175.076 24.208 175.108 24.4L176.228 32.4C176.292 32.912 176.436 33.28 176.644 33.488C176.852 33.696 177.14 33.792 177.492 33.792V34H173.156V33.792C173.54 33.792 173.828 33.712 174.052 33.552C174.26 33.392 174.372 33.12 174.372 32.72C174.372 32.592 174.356 32.48 174.356 32.4L173.284 24.496L169.844 34.16H169.588L166.052 24.576ZM178.473 24.192C178.265 23.968 178.169 23.696 178.169 23.344C178.169 23.024 178.265 22.768 178.473 22.56C178.681 22.352 178.953 22.24 179.289 22.24C179.625 22.24 179.897 22.352 180.105 22.56C180.313 22.768 180.425 23.024 180.425 23.344C180.425 23.696 180.313 23.968 180.105 24.192C179.897 24.416 179.625 24.512 179.289 24.512C178.953 24.512 178.681 24.416 178.473 24.192ZM177.449 33.792C177.801 33.792 178.073 33.696 178.265 33.472C178.457 33.264 178.569 32.896 178.569 32.384V27.632C178.569 27.248 178.473 26.992 178.313 26.832C178.153 26.672 177.881 26.592 177.513 26.576V26.368C178.537 26.304 179.417 26.096 180.153 25.744L180.297 25.824V32.384C180.297 32.912 180.393 33.28 180.585 33.488C180.777 33.696 181.049 33.792 181.417 33.792V34H177.449V33.792ZM181.433 33.792C181.785 33.792 182.057 33.696 182.249 33.472C182.441 33.264 182.553 32.896 182.553 32.384L182.601 24.064C182.601 23.68 182.505 23.408 182.345 23.248C182.185 23.088 181.913 23.008 181.545 23.008V22.8C182.569 22.736 183.449 22.528 184.185 22.176L184.329 22.256V32.384C184.329 32.896 184.425 33.264 184.617 33.472C184.809 33.696 185.097 33.792 185.449 33.792V34H181.433V33.792ZM191.051 33.696C190.795 33.408 190.635 32.992 190.571 32.464L190.523 32.112C190.459 32.464 190.299 32.8 190.075 33.104C189.835 33.424 189.531 33.68 189.163 33.872C188.779 34.064 188.363 34.16 187.899 34.16C187.227 34.16 186.667 33.968 186.235 33.584C185.803 33.2 185.595 32.704 185.595 32.096C185.595 31.552 185.771 31.104 186.155 30.752C186.539 30.4 187.083 30.192 187.787 30.128L190.219 29.936L190.107 29.12C190.011 28.368 189.787 27.776 189.435 27.344C189.083 26.928 188.619 26.704 188.043 26.704C187.579 26.704 187.179 26.848 186.827 27.104C186.475 27.36 186.219 27.712 186.043 28.144L185.835 28.096C185.931 27.712 186.123 27.328 186.411 26.96C186.699 26.608 187.051 26.304 187.483 26.08C187.915 25.856 188.395 25.728 188.923 25.728C189.723 25.728 190.379 25.984 190.875 26.496C191.371 27.008 191.675 27.744 191.803 28.688L192.267 32.224C192.347 32.832 192.555 33.12 192.907 33.12C193.003 33.12 193.099 33.088 193.179 32.992C193.259 32.912 193.307 32.8 193.339 32.656L193.531 32.672C193.499 33.056 193.371 33.392 193.115 33.68C192.859 33.984 192.523 34.128 192.107 34.128C191.659 34.128 191.307 33.984 191.051 33.696ZM187.627 32.784C187.899 33.072 188.267 33.216 188.747 33.216C189.227 33.216 189.627 33.072 189.947 32.784C190.251 32.496 190.427 32.144 190.475 31.744L190.251 30.176L188.683 30.304C188.203 30.352 187.835 30.512 187.579 30.768C187.323 31.024 187.211 31.36 187.211 31.744C187.211 32.16 187.339 32.496 187.627 32.784ZM198.951 33.792C199.303 33.792 199.591 33.712 199.799 33.552C200.007 33.392 200.119 33.12 200.119 32.72C200.119 32.592 200.103 32.48 200.103 32.4L199.607 28.736C199.415 27.376 198.855 26.688 197.943 26.688C197.527 26.688 197.159 26.864 196.871 27.2C196.583 27.552 196.407 27.952 196.375 28.432V32.384C196.375 32.912 196.471 33.28 196.663 33.488C196.855 33.696 197.127 33.792 197.495 33.792V34H193.527V33.792C193.879 33.792 194.151 33.696 194.343 33.472C194.535 33.264 194.647 32.896 194.647 32.384V27.632C194.647 27.248 194.551 26.992 194.391 26.832C194.231 26.672 193.959 26.592 193.591 26.576V26.368C194.615 26.304 195.495 26.096 196.231 25.744L196.375 25.824V27.744C196.519 27.168 196.807 26.688 197.239 26.304C197.671 25.92 198.183 25.728 198.791 25.728C199.479 25.728 200.039 25.984 200.487 26.464C200.919 26.944 201.207 27.696 201.351 28.688L201.895 32.4C201.959 32.912 202.087 33.28 202.295 33.488C202.487 33.696 202.759 33.792 203.111 33.792V34H198.951V33.792ZM204.925 33.6C204.301 33.232 203.805 32.72 203.453 32.064C203.085 31.424 202.909 30.704 202.909 29.904C202.909 29.088 203.085 28.368 203.453 27.728C203.805 27.088 204.301 26.608 204.925 26.256C205.533 25.904 206.205 25.728 206.941 25.728C207.677 25.728 208.349 25.92 208.957 26.272C209.565 26.64 210.061 27.136 210.429 27.776C210.781 28.416 210.973 29.136 210.973 29.936C210.973 30.752 210.797 31.488 210.445 32.128C210.093 32.768 209.597 33.28 208.989 33.632C208.381 33.984 207.709 34.16 206.973 34.16C206.221 34.16 205.533 33.984 204.925 33.6ZM205.661 32.864C206.109 33.536 206.653 33.856 207.261 33.856C207.869 33.856 208.333 33.568 208.669 32.976C208.989 32.4 209.165 31.632 209.165 30.688C209.165 30.384 209.133 30 209.085 29.552C208.941 28.496 208.653 27.648 208.205 27.008C207.757 26.368 207.245 26.032 206.653 26.032C206.029 26.032 205.549 26.336 205.213 26.928C204.877 27.536 204.717 28.304 204.717 29.232C204.717 29.616 204.733 29.952 204.781 30.256C204.909 31.328 205.213 32.192 205.661 32.864Z" fill="black"/>
</svg>
