<svg viewBox="0 0 217 57" fill="none" xmlns="http://www.w3.org/2000/svg">
<path d="M70.1943 34.0541C69.6931 33.5781 69.4425 32.9107 69.4425 32.053V24.9061C69.4425 24.0726 69.6843 23.4227 70.1681 22.9583C70.6519 22.494 71.3232 22.2618 72.1838 22.2618H76.3233C77.7084 22.2618 78.778 22.5533 79.5308 23.1371C80.2837 23.721 80.6597 24.5671 80.6597 25.6745C80.6597 26.2224 80.4985 26.7314 80.1759 27.2016C79.8534 27.6728 79.4357 28.0273 78.9217 28.2653V28.2828C79.4949 28.5091 79.9641 28.8696 80.3284 29.364C80.6927 29.8585 80.8753 30.3918 80.8753 30.963C80.8753 32.155 80.4897 33.0866 79.7194 33.7598C78.9489 34.433 77.8882 34.7691 76.5379 34.7691H72.3092C71.4019 34.7691 70.6965 34.5311 70.1943 34.0541ZM76.3233 27.425C76.9323 27.425 77.4073 27.2764 77.7483 26.9792C78.0882 26.6809 78.2583 26.2525 78.2583 25.692C78.2583 25.1441 78.097 24.739 77.7745 24.4767C77.452 24.2154 76.9682 24.0842 76.3233 24.0842H72.5599C72.3208 24.0842 72.1333 24.162 71.9954 24.3164C71.8584 24.4709 71.7894 24.6856 71.7894 24.9595V27.425H76.3233ZM76.3233 32.9467C77.7571 32.9467 78.474 32.2978 78.474 30.999C78.474 30.4394 78.2855 30.0042 77.9095 29.6943C77.5327 29.3854 77.0042 29.23 76.3233 29.23H71.7894V32.0715C71.7894 32.3454 71.8584 32.5601 71.9954 32.7145C72.1333 32.869 72.3208 32.9467 72.5599 32.9467H76.3233Z" fill="#040404"/>
<path d="M82.5411 34.6619C82.3264 34.4715 82.2186 34.2093 82.2186 33.8761V23.1552C82.2186 22.822 82.3264 22.5598 82.5411 22.3684C82.7558 22.178 83.0424 22.0828 83.4007 22.0828C83.7476 22.0828 84.0342 22.178 84.2615 22.3684C84.4878 22.5598 84.6015 22.822 84.6015 23.1552V33.8761C84.6015 34.2093 84.4878 34.4715 84.2615 34.6619C84.0342 34.8524 83.7476 34.9485 83.4007 34.9485C83.0424 34.9485 82.7558 34.8524 82.5411 34.6619Z" fill="#040404"/>
<path d="M89.0368 34.1346C88.0275 33.5926 87.2592 32.8368 86.7336 31.8654C86.2081 30.8949 85.9457 29.7777 85.9457 28.5158C85.9457 27.253 86.2081 26.1359 86.7336 25.1654C87.2592 24.1949 88.0275 23.4381 89.0368 22.8961C90.0461 22.354 91.2497 22.083 92.6477 22.083C94.0446 22.083 95.2492 22.354 96.2585 22.8961C97.2679 23.4381 98.0352 24.1949 98.5608 25.1654C99.0864 26.1359 99.3496 27.253 99.3496 28.5158C99.3496 29.7777 99.0864 30.8949 98.5608 31.8654C98.0352 32.8368 97.2679 33.5926 96.2585 34.1346C95.2492 34.6777 94.0446 34.9478 92.6477 34.9478C91.2497 34.9478 90.0461 34.6777 89.0368 34.1346ZM95.8195 31.8479C96.5723 31.0319 96.9483 29.9215 96.9483 28.5158C96.9483 27.0976 96.5567 25.9843 95.7748 25.1741C94.9918 24.3639 93.8901 23.9588 92.4679 23.9588C91.1662 23.9588 90.1531 24.3727 89.4313 25.2003C88.7075 26.0289 88.3461 27.1335 88.3461 28.5158C88.3461 29.9215 88.7231 31.0319 89.476 31.8479C90.2278 32.6639 91.2857 33.0719 92.6477 33.0719C94.0097 33.0719 95.0666 32.6639 95.8195 31.8479Z" fill="#040404"/>
<path d="M101.459 34.0749C100.956 33.5979 100.706 32.9316 100.706 32.0738V24.9259C100.706 24.0924 100.948 23.4425 101.431 22.9782C101.915 22.5138 102.586 22.2816 103.447 22.2816H105.955C107.33 22.2816 108.518 22.5313 109.522 23.0316C110.525 23.5319 111.293 24.2536 111.825 25.194C112.356 26.1353 112.622 27.2554 112.622 28.5533C112.622 29.852 112.356 30.9683 111.825 31.9037C111.293 32.8392 110.528 33.5532 109.531 34.0477C108.534 34.5422 107.342 34.7899 105.955 34.7899H103.572C102.664 34.7899 101.96 34.5509 101.459 34.0749ZM105.777 32.949C107.27 32.949 108.381 32.5886 109.11 31.8678C109.838 31.147 110.203 30.0425 110.203 28.5533C110.203 27.065 109.835 25.9537 109.101 25.2212C108.366 24.4878 107.258 24.1215 105.777 24.1215H103.859C103.62 24.1215 103.432 24.1993 103.295 24.3547C103.158 24.5091 103.089 24.7238 103.089 24.9978V32.0738C103.089 32.3477 103.158 32.5624 103.295 32.7169C103.432 32.8713 103.62 32.949 103.859 32.949H105.777Z" fill="#040404"/>
<path d="M114.369 34.7199C114.154 34.5295 114.046 34.2673 114.046 33.934V23.2132C114.046 22.879 114.154 22.6178 114.369 22.4264C114.584 22.236 114.87 22.1407 115.229 22.1407C115.575 22.1407 115.862 22.236 116.089 22.4264C116.316 22.6178 116.429 22.879 116.429 23.2132V33.934C116.429 34.2673 116.316 34.5295 116.089 34.7199C115.862 34.9103 115.575 35.0065 115.229 35.0065C114.87 35.0065 114.584 34.9103 114.369 34.7199Z" fill="#040404"/>
<path d="M121.174 34.1394C120.624 33.5614 120.14 32.6055 119.723 31.2717L117.232 23.3739C117.184 23.2311 117.16 23.0815 117.16 22.927C117.16 22.4025 117.53 22.1402 118.271 22.1402C118.641 22.1402 118.925 22.2121 119.122 22.3549C119.32 22.4977 119.465 22.7308 119.562 23.0514L122.034 31.093C122.261 31.8196 122.471 32.3432 122.661 32.6648C122.853 32.9873 123.05 33.1476 123.253 33.1476C123.456 33.1476 123.653 32.9873 123.844 32.6648C124.035 32.3432 124.245 31.8196 124.471 31.093L126.944 23.0514C127.04 22.7308 127.186 22.4977 127.384 22.3549C127.581 22.2121 127.864 22.1402 128.234 22.1402C128.976 22.1402 129.346 22.4025 129.346 22.927C129.346 23.0815 129.321 23.2311 129.274 23.3739L126.783 31.2717C126.364 32.6055 125.881 33.5614 125.332 34.1394C124.782 34.7174 124.088 35.0059 123.253 35.0059C122.417 35.0059 121.724 34.7174 121.174 34.1394Z" fill="#040404"/>
<path d="M130.904 34.1125C130.403 33.6365 130.151 32.9692 130.151 32.1113V24.9635C130.151 24.13 130.393 23.4811 130.877 23.0157C131.362 22.5514 132.033 22.3192 132.894 22.3192H138.467C138.824 22.3192 139.099 22.3999 139.291 22.5611C139.481 22.7214 139.577 22.9506 139.577 23.2489C139.577 23.5345 139.479 23.7579 139.282 23.9182C139.085 24.0795 138.813 24.1601 138.467 24.1601H133.306C133.067 24.1601 132.878 24.2378 132.741 24.3923C132.603 24.5467 132.535 24.7614 132.535 25.0353V27.5184H137.105C137.463 27.5184 137.737 27.6 137.929 27.7603C138.119 27.9215 138.215 28.1508 138.215 28.448C138.215 28.7346 138.117 28.9571 137.92 29.1183C137.723 29.2796 137.451 29.3593 137.105 29.3593H132.535V32.1113C132.535 32.3853 132.603 32.6 132.741 32.7545C132.878 32.9099 133.067 32.9866 133.306 32.9866H138.86C139.219 32.9866 139.494 33.0672 139.685 33.2275C139.876 33.3888 139.972 33.618 139.972 33.9163C139.972 34.2019 139.873 34.4253 139.676 34.5866C139.479 34.7468 139.207 34.8275 138.86 34.8275H133.019C132.111 34.8275 131.406 34.5895 130.904 34.1125Z" fill="#040404"/>
<path d="M141.435 24.9641C141.435 24.1306 141.677 23.4807 142.161 23.0163C142.645 22.552 143.317 22.3198 144.177 22.3198H147.367C149.146 22.3198 150.491 22.6647 151.398 23.3554C152.307 24.0471 152.76 25.0768 152.76 26.4465C152.76 27.722 152.381 28.7168 151.623 29.4308C150.864 30.1457 149.845 30.5032 148.567 30.5032L151.291 33.2019C151.506 33.4156 151.614 33.6604 151.614 33.9334C151.614 34.22 151.489 34.4696 151.237 34.6843C150.975 34.8863 150.718 34.9884 150.467 34.9884C150.12 34.9884 149.803 34.8329 149.517 34.5231L145.646 30.5742H143.818V33.9334C143.818 34.2676 143.705 34.5298 143.478 34.7203C143.251 34.9107 142.964 35.0059 142.618 35.0059C142.26 35.0059 141.973 34.9107 141.758 34.7203C141.543 34.5298 141.435 34.2676 141.435 33.9334V24.9641ZM147.295 28.7342C148.084 28.7342 148.699 28.6565 149.141 28.5021C149.583 28.3476 149.896 28.1057 150.082 27.7784C150.267 27.451 150.36 27.007 150.36 26.4465C150.36 25.6373 150.111 25.0535 149.616 24.696C149.12 24.3385 148.346 24.1597 147.295 24.1597H144.588C144.349 24.1597 144.162 24.2374 144.025 24.3919C143.887 24.5473 143.818 24.7611 143.818 25.035V28.7342H147.295Z" fill="#040404"/>
<path d="M156.819 34.4252C155.791 34.0386 154.902 33.481 154.15 32.7543C153.97 32.5756 153.881 32.3735 153.881 32.1472C153.881 31.8849 154 31.6353 154.239 31.3962C154.431 31.2059 154.639 31.1106 154.867 31.1106C155.105 31.1106 155.391 31.2476 155.726 31.5216C156.288 32.0335 156.954 32.4299 157.725 32.7096C158.495 32.9894 159.293 33.1293 160.116 33.1293C160.905 33.1293 161.52 32.9952 161.962 32.7281C162.404 32.46 162.626 32.0821 162.626 31.5935C162.626 31.0815 162.387 30.6667 161.909 30.351C161.431 30.0353 160.619 29.7526 159.471 29.5029C157.667 29.1095 156.356 28.5907 155.538 27.9476C154.72 27.3046 154.311 26.4769 154.311 25.4646C154.311 24.8206 154.526 24.2465 154.956 23.7393C155.385 23.2342 155.986 22.8408 156.757 22.561C157.527 22.2803 158.408 22.1404 159.399 22.1404C160.511 22.1404 161.5 22.322 162.366 22.6854C163.232 23.0497 163.891 23.5587 164.346 24.2134C164.502 24.4631 164.579 24.6777 164.579 24.8565C164.567 25.1548 164.418 25.4102 164.13 25.6249C163.975 25.7318 163.796 25.7852 163.593 25.7852C163.223 25.7852 162.918 25.6424 162.679 25.3568C162.332 24.9401 161.87 24.6127 161.291 24.3747C160.711 24.1357 160.081 24.0172 159.399 24.0172C158.551 24.0172 157.892 24.1445 157.42 24.4009C156.948 24.6574 156.711 25.012 156.711 25.4646C156.711 25.9164 156.942 26.2894 157.402 26.5808C157.862 26.8732 158.659 27.1501 159.794 27.4114C161.048 27.7096 162.058 28.0458 162.823 28.4207C163.587 28.7967 164.146 29.2406 164.499 29.7526C164.85 30.2645 165.027 30.8785 165.027 31.5935C165.027 32.2725 164.824 32.8709 164.418 33.3887C164.011 33.9074 163.438 34.3067 162.698 34.5865C161.956 34.8652 161.097 35.0061 160.116 35.0061C158.946 35.0061 157.847 34.8128 156.819 34.4252Z" fill="#040404"/>
<path d="M166.756 34.7199C166.541 34.5295 166.434 34.2673 166.434 33.934V23.2132C166.434 22.879 166.541 22.6178 166.756 22.4264C166.971 22.236 167.257 22.1407 167.616 22.1407C167.963 22.1407 168.249 22.236 168.477 22.4264C168.704 22.6178 168.817 22.879 168.817 23.2132V33.934C168.817 34.2673 168.704 34.5295 168.477 34.7199C168.249 34.9103 167.963 35.0065 167.616 35.0065C167.257 35.0065 166.971 34.9103 166.756 34.7199Z" fill="#040404"/>
<path d="M174.623 34.7199C174.408 34.5295 174.3 34.2673 174.3 33.934V24.1594H170.842C170.495 24.1594 170.223 24.0798 170.026 23.9185C169.83 23.7582 169.731 23.5348 169.731 23.2482C169.731 22.9509 169.827 22.7217 170.017 22.5604C170.209 22.4002 170.484 22.3195 170.842 22.3195H180.143C180.501 22.3195 180.775 22.4002 180.966 22.5604C181.158 22.7217 181.253 22.9509 181.253 23.2482C181.253 23.5348 181.155 23.7582 180.958 23.9185C180.761 24.0798 180.489 24.1594 180.143 24.1594H176.683V33.934C176.683 34.2556 176.574 34.514 176.352 34.7112C176.131 34.9074 175.841 35.0065 175.483 35.0065C175.124 35.0065 174.838 34.9104 174.623 34.7199Z" fill="#040404"/>
<path d="M193.349 22.4264C193.564 22.6169 193.672 22.8791 193.672 23.2123V25.0892C193.672 26.6736 193.272 27.9627 192.471 28.9574C191.671 29.9522 190.554 30.5564 189.12 30.7711V33.9332C189.12 34.2557 189.01 34.5141 188.788 34.7113C188.568 34.9075 188.278 35.0066 187.92 35.0066C187.562 35.0066 187.275 34.9104 187.059 34.72C186.845 34.5296 186.737 34.2673 186.737 33.9332V30.7711C185.291 30.5564 184.168 29.9551 183.368 28.9662C182.567 27.9773 182.167 26.6852 182.167 25.0892V23.2123C182.167 22.8791 182.275 22.6169 182.49 22.4264C182.704 22.236 182.992 22.1409 183.35 22.1409C183.709 22.1409 183.998 22.2389 184.219 22.4352C184.44 22.6324 184.551 22.8908 184.551 23.2123V25.1426C184.551 26.3812 184.84 27.3312 185.419 27.9928C185.999 28.6534 186.833 28.9846 187.92 28.9846C189.007 28.9846 189.84 28.6534 190.419 27.9928C190.998 27.3312 191.289 26.3812 191.289 25.1426V23.2123C191.289 22.8908 191.399 22.6324 191.62 22.4352C191.841 22.2389 192.131 22.1409 192.49 22.1409C192.848 22.1409 193.135 22.236 193.349 22.4264Z" fill="#040404"/>
<path d="M82.7197 18.0596C82.5041 17.8691 82.3973 17.6078 82.3973 17.2746V11.0273C82.3973 9.30201 82.8926 7.95169 83.8845 6.97539C84.8754 6.00105 86.2548 5.51242 88.0228 5.51242C89.1817 5.51242 90.1853 5.73293 91.0333 6.17299C91.8814 6.61306 92.5303 7.25033 92.9773 8.08285C93.426 8.91537 93.6494 9.89748 93.6494 11.0273V17.2746C93.6494 17.6078 93.5426 17.8691 93.327 18.0596C93.1122 18.2499 92.8257 18.3452 92.4673 18.3452C92.1088 18.3452 91.8193 18.247 91.5978 18.0508C91.3772 17.8546 91.2666 17.5962 91.2666 17.2746V14.3651H84.7802V17.2746C84.7802 17.5962 84.6695 17.8546 84.4489 18.0508C84.2274 18.247 83.9379 18.3452 83.5795 18.3452C83.221 18.3452 82.9345 18.2499 82.7197 18.0596ZM91.2666 12.5262V10.9739C91.2666 9.78382 90.9945 8.88916 90.4514 8.28782C89.9075 7.68648 89.0983 7.38634 88.0228 7.38634C85.8614 7.38634 84.7802 8.58215 84.7802 10.9739V12.5262H91.2666Z" fill="#040404"/>
<path d="M99.3438 18.0769C99.129 17.8876 99.0212 17.6252 99.0212 17.292V7.52906H95.5628C95.217 7.52906 94.945 7.44943 94.7478 7.28816C94.5506 7.12689 94.4525 6.90442 94.4525 6.61982C94.4525 6.32158 94.5477 6.0923 94.739 5.93203C94.9294 5.77171 95.2043 5.69107 95.5628 5.69107H104.862C105.221 5.69107 105.496 5.77171 105.687 5.93203C105.878 6.0923 105.974 6.32158 105.974 6.61982C105.974 6.90442 105.876 7.12689 105.678 7.28816C105.48 7.44943 105.209 7.52906 104.862 7.52906H101.404V17.292C101.404 17.6136 101.293 17.873 101.074 18.0682C100.852 18.2654 100.563 18.3636 100.204 18.3636C99.846 18.3636 99.5593 18.2674 99.3438 18.0769Z" fill="#040404"/>
<path d="M107.21 18.0769C106.995 17.8875 106.887 17.6252 106.887 17.292V6.58288C106.887 6.25066 106.995 5.9893 107.21 5.79797C107.426 5.60752 107.711 5.51236 108.07 5.51236C108.416 5.51236 108.703 5.60752 108.93 5.79797C109.157 5.9893 109.27 6.25066 109.27 6.58288V17.292C109.27 17.6252 109.157 17.8875 108.93 18.0769C108.703 18.2674 108.416 18.3635 108.07 18.3635C107.711 18.3635 107.426 18.2674 107.21 18.0769Z" fill="#040404"/>
<path d="M113.859 17.551C112.85 17.0099 112.082 16.2541 111.557 15.2846C111.031 14.3152 110.768 13.1989 110.768 11.938C110.768 10.6761 111.031 9.5619 111.557 8.59141C112.082 7.62092 112.85 6.86613 113.859 6.32503C114.867 5.78299 116.072 5.51196 117.47 5.51196C118.867 5.51196 120.071 5.78299 121.08 6.32503C122.089 6.86613 122.857 7.62092 123.382 8.59141C123.908 9.5619 124.171 10.6761 124.171 11.938C124.171 13.1989 123.908 14.3152 123.382 15.2846C122.857 16.2541 122.089 17.0099 121.08 17.551C120.071 18.0921 118.867 18.3631 117.47 18.3631C116.072 18.3631 114.867 18.0921 113.859 17.551ZM120.641 15.2661C121.394 14.4511 121.77 13.3418 121.77 11.938C121.77 10.5217 121.378 9.40934 120.596 8.60114C119.814 7.79097 118.711 7.38684 117.29 7.38684C115.989 7.38684 114.975 7.79969 114.253 8.62639C113.53 9.45405 113.168 10.5566 113.168 11.938C113.168 13.3418 113.545 14.4511 114.298 15.2661C115.05 16.0822 116.108 16.4883 117.47 16.4883C118.831 16.4883 119.889 16.0822 120.641 15.2661Z" fill="#040404"/>
<path d="M139.014 18.038C138.799 17.8476 138.691 17.5863 138.691 17.2521V11.0058C138.691 9.2805 139.186 7.93018 140.178 6.95388C141.169 5.97859 142.549 5.48996 144.317 5.48996C145.476 5.48996 146.479 5.71142 147.327 6.15148C148.175 6.59155 148.824 7.22882 149.271 8.06133C149.72 8.89385 149.943 9.87597 149.943 11.0058V17.2521C149.943 17.5863 149.835 17.8476 149.622 18.038C149.406 18.2284 149.119 18.3237 148.761 18.3237C148.403 18.3237 148.113 18.2255 147.892 18.0293C147.671 17.8321 147.56 17.5747 147.56 17.2521V14.3436H141.074V17.2521C141.074 17.5747 140.963 17.8321 140.743 18.0293C140.521 18.2255 140.232 18.3237 139.873 18.3237C139.515 18.3237 139.228 18.2284 139.014 18.038ZM147.56 12.5047V10.9513C147.56 9.7623 147.288 8.86765 146.745 8.26536C146.201 7.66497 145.392 7.36483 144.317 7.36483C142.155 7.36483 141.074 8.56063 141.074 10.9513V12.5047H147.56Z" fill="#040404"/>
<path d="M152.524 17.4403C152.022 16.9633 151.772 16.2979 151.772 15.4411V6.55242C151.772 6.2192 151.88 5.9579 152.093 5.76745C152.309 5.57707 152.596 5.4809 152.954 5.4809C153.313 5.4809 153.601 5.57902 153.822 5.77623C154.044 5.97243 154.155 6.23088 154.155 6.55242V15.4411C154.155 15.714 154.223 15.9287 154.361 16.0832C154.498 16.2386 154.686 16.3154 154.925 16.3154H160.66C161.017 16.3154 161.292 16.395 161.483 16.5572C161.675 16.7176 161.77 16.9468 161.77 17.2431C161.77 17.5297 161.671 17.7521 161.475 17.9124C161.277 18.0727 161.005 18.1533 160.66 18.1533H154.638C153.73 18.1533 153.026 17.9163 152.524 17.4403Z" fill="#040404"/>
<path d="M71.2406 5.50308C71.8729 5.50308 72.4645 5.81395 72.8143 6.33175L77.7978 14.3209L78.1854 14.897V6.69509C78.1854 6.03641 78.7187 5.50308 79.3774 5.50308C80.035 5.50308 80.5693 6.03641 80.5693 6.69509V16.492C80.5693 17.515 79.7232 18.3446 78.6808 18.3446H78.6623C78.029 18.3446 77.4383 18.0337 77.0886 17.515L71.735 9.16158V17.1536C71.735 17.8113 71.2017 18.3446 70.544 18.3446C69.8854 18.3446 69.3521 17.8113 69.3521 17.1536V7.35661C69.3521 6.3327 70.1972 5.50308 71.2406 5.50308Z" fill="#040404"/>
<path d="M127.534 5.48132C128.167 5.48132 128.758 5.79219 129.108 6.30999L134.092 14.2991L134.48 14.8752V6.67333C134.48 6.01465 135.013 5.48132 135.671 5.48132C136.329 5.48132 136.863 6.01465 136.863 6.67333V16.4703C136.863 17.4932 136.018 18.3238 134.975 18.3238H134.957C134.323 18.3238 133.732 18.012 133.382 17.4932L128.029 9.13982L128.03 10.1384V17.1318C128.03 17.7895 127.495 18.3238 126.838 18.3238C126.179 18.3238 125.646 17.7895 125.646 17.1318V7.33485C125.646 6.31094 126.492 5.48132 127.534 5.48132Z" fill="#040404"/>
<path d="M69.7645 51.2325C69.5497 51.0431 69.442 50.7808 69.442 50.4476V41.488C69.442 40.6555 69.6839 40.0066 70.1676 39.5422C70.6514 39.0788 71.3236 38.8466 72.1834 38.8466H77.7555C78.114 38.8466 78.3889 38.9273 78.5802 39.0876C78.7707 39.2479 78.8668 39.4772 78.8668 39.7754C78.8668 40.06 78.7687 40.2825 78.5714 40.4437C78.3742 40.605 78.1022 40.6846 77.7555 40.6846H72.5952C72.3563 40.6846 72.1678 40.7624 72.0308 40.9168C71.8938 41.0722 71.8249 41.286 71.8249 41.559V44.2187H76.3945C76.753 44.2187 77.0269 44.2994 77.2183 44.4596C77.4097 44.6209 77.5048 44.8502 77.5048 45.1474C77.5048 45.4321 77.4067 45.6546 77.2095 45.8168C77.0123 45.977 76.7403 46.0577 76.3945 46.0577H71.8249V50.4476C71.8249 50.7691 71.7141 51.0275 71.4935 51.2238C71.272 51.421 70.9825 51.5191 70.6241 51.5191C70.2657 51.5191 69.9801 51.423 69.7645 51.2325Z" fill="#040404"/>
<path d="M82.4558 50.8408C81.6135 50.3892 80.9625 49.7432 80.5031 48.9038C80.0427 48.0654 79.8124 47.0746 79.8124 45.9322V39.7383C79.8124 39.406 79.9202 39.1447 80.1359 38.9533C80.3505 38.764 80.6372 38.6678 80.9956 38.6678C81.3541 38.6678 81.6436 38.7659 81.8642 38.9621C82.0846 39.1584 82.1963 39.4177 82.1963 39.7383V45.9856C82.1963 47.164 82.4762 48.0674 83.0386 48.6979C83.599 49.3303 84.4064 49.644 85.4565 49.644C86.4969 49.644 87.2993 49.3264 87.8666 48.6901C88.4339 48.0538 88.7186 47.1513 88.7186 45.9856V39.7383C88.7186 39.4177 88.8284 39.1584 89.0499 38.9621C89.2703 38.7659 89.5599 38.6678 89.9183 38.6678C90.2777 38.6678 90.5643 38.764 90.7791 38.9533C90.9937 39.1447 91.1015 39.406 91.1015 39.7383V45.9322C91.1015 47.0387 90.8655 48.0149 90.3933 48.8591C89.9213 49.7043 89.2559 50.359 88.3951 50.8224C87.5354 51.2868 86.5377 51.519 85.404 51.519C84.2801 51.519 83.298 51.2926 82.4558 50.8408Z" fill="#040404"/>
<path d="M96.9153 51.2325C96.7006 51.0431 96.5928 50.7808 96.5928 50.4476V40.6846H93.1344C92.7886 40.6846 92.5166 40.605 92.3194 40.4437C92.1222 40.2825 92.0241 40.06 92.0241 39.7754C92.0241 39.4772 92.1193 39.2479 92.3106 39.0876C92.501 38.9273 92.7759 38.8466 93.1344 38.8466H102.434C102.792 38.8466 103.067 38.9273 103.259 39.0876C103.45 39.2479 103.545 39.4772 103.545 39.7754C103.545 40.06 103.447 40.2825 103.25 40.4437C103.053 40.605 102.781 40.6846 102.434 40.6846H98.9757V50.4476C98.9757 50.7691 98.8659 51.0275 98.6444 51.2238C98.4239 51.421 98.1344 51.5191 97.776 51.5191C97.4175 51.5191 97.1309 51.423 96.9153 51.2325Z" fill="#040404"/>
<path d="M107.081 50.8408C106.239 50.3892 105.588 49.7432 105.127 48.9038C104.668 48.0654 104.438 47.0746 104.438 45.9322V39.7383C104.438 39.406 104.546 39.1447 104.761 38.9533C104.975 38.764 105.262 38.6678 105.621 38.6678C105.979 38.6678 106.268 38.7659 106.489 38.9621C106.71 39.1584 106.821 39.4177 106.821 39.7383V45.9856C106.821 47.164 107.101 48.0674 107.663 48.6979C108.224 49.3303 109.031 49.644 110.082 49.644C111.121 49.644 111.925 49.3264 112.492 48.6901C113.059 48.0538 113.344 47.1513 113.344 45.9856V39.7383C113.344 39.4177 113.454 39.1584 113.675 38.9621C113.896 38.7659 114.185 38.6678 114.544 38.6678C114.902 38.6678 115.19 38.764 115.404 38.9533C115.619 39.1447 115.727 39.406 115.727 39.7383V45.9322C115.727 47.0387 115.491 48.0149 115.019 48.8591C114.547 49.7043 113.881 50.359 113.02 50.8224C112.161 51.2868 111.163 51.519 110.029 51.519C108.905 51.519 107.923 51.2926 107.081 50.8408Z" fill="#040404"/>
<path d="M117.555 41.4882C117.555 40.6557 117.797 40.0068 118.28 39.5424C118.764 39.079 119.436 38.8468 120.296 38.8468H123.485C125.265 38.8468 126.609 39.1917 127.517 39.8814C128.425 40.5712 128.879 41.6009 128.879 42.9686C128.879 44.2432 128.5 45.236 127.741 45.95C126.983 46.664 125.965 47.0205 124.686 47.0205L127.41 49.7163C127.625 49.93 127.732 50.1738 127.732 50.4478C127.732 50.7334 127.606 50.983 127.356 51.1968C127.093 51.3998 126.836 51.5008 126.585 51.5008C126.238 51.5008 125.923 51.3454 125.636 51.0364L121.765 47.0924H119.938V50.4478C119.938 50.7809 119.824 51.0433 119.598 51.2327C119.37 51.4231 119.084 51.5183 118.737 51.5183C118.379 51.5183 118.092 51.4231 117.877 51.2327C117.663 51.0433 117.555 50.7809 117.555 50.4478V41.4882ZM123.414 45.2535C124.202 45.2535 124.817 45.1767 125.259 45.0223C125.701 44.8678 126.015 44.6259 126.2 44.2995C126.385 43.9722 126.478 43.5282 126.478 42.9686C126.478 42.1604 126.23 41.5775 125.734 41.2201C125.238 40.8626 124.465 40.6848 123.414 40.6848H120.708C120.469 40.6848 120.281 40.7615 120.144 40.917C120.007 41.0714 119.938 41.2861 119.938 41.5591V45.2535H123.414Z" fill="#040404"/>
<path d="M131.459 50.6267C130.958 50.1498 130.706 49.4834 130.706 48.6275V41.4884C130.706 40.6559 130.948 40.007 131.432 39.5426C131.916 39.0792 132.588 38.8461 133.448 38.8461H139.021C139.379 38.8461 139.654 38.9267 139.845 39.087C140.036 39.2473 140.131 39.4765 140.131 39.7748C140.131 40.0604 140.033 40.2829 139.837 40.4431C139.639 40.6044 139.368 40.684 139.021 40.684H133.861C133.622 40.684 133.433 40.7618 133.296 40.9172C133.158 41.0716 133.09 41.2863 133.09 41.5593V44.0394H137.659C138.018 44.0394 138.292 44.12 138.483 44.2813C138.674 44.4426 138.77 44.6718 138.77 44.9681C138.77 45.2537 138.671 45.4771 138.474 45.6374C138.278 45.7977 138.006 45.8784 137.659 45.8784H133.09V48.6275C133.09 48.9005 133.158 49.1152 133.296 49.2696C133.433 49.425 133.622 49.5018 133.861 49.5018H139.415C139.773 49.5018 140.048 49.5814 140.239 49.7437C140.431 49.904 140.526 50.1332 140.526 50.4296C140.526 50.7161 140.428 50.9386 140.23 51.0988C140.033 51.2591 139.762 51.3398 139.415 51.3398H133.574C132.666 51.3398 131.962 51.1028 131.459 50.6267Z" fill="#040404"/>
<path d="M149.029 50.7514C148.037 50.2395 147.28 49.5022 146.753 48.5375C146.228 47.5739 145.965 46.4324 145.965 45.1113C145.965 43.7901 146.228 42.6448 146.753 41.6753C147.28 40.7058 148.035 39.9627 149.02 39.4449C150.005 38.9271 151.167 38.6677 152.505 38.6677C153.616 38.6677 154.643 38.8581 155.587 39.2389C156.531 39.6197 157.229 40.1258 157.684 40.7563C157.827 40.9467 157.899 41.1429 157.899 41.345C157.899 41.6432 157.737 41.9094 157.415 42.1484C157.271 42.2552 157.092 42.3097 156.877 42.3097C156.699 42.3097 156.519 42.2708 156.34 42.193C156.16 42.1154 156.011 42.0056 155.891 41.8628C155.485 41.3994 155.014 41.0633 154.476 40.8544C153.939 40.6465 153.282 40.5426 152.505 40.5426C151.203 40.5426 150.188 40.9438 149.46 41.7462C148.731 42.5506 148.367 43.6716 148.367 45.1113C148.367 46.5383 148.734 47.6516 149.468 48.4482C150.203 49.2457 151.227 49.644 152.541 49.644C154.047 49.644 155.247 49.204 156.143 48.3238C156.513 47.978 156.853 47.806 157.164 47.806C157.379 47.806 157.576 47.877 157.756 48.0207C158.031 48.2578 158.168 48.5191 158.168 48.8056C158.168 49.0203 158.09 49.2282 157.934 49.4303C157.421 50.086 156.689 50.596 155.74 50.9661C154.79 51.3353 153.724 51.5189 152.541 51.5189C151.192 51.5189 150.021 51.2624 149.029 50.7514Z" fill="#040404"/>
<path d="M160.257 50.6267C159.755 50.1498 159.504 49.4834 159.504 48.6275V41.4884C159.504 40.6559 159.746 40.007 160.229 39.5426C160.713 39.0792 161.385 38.8461 162.245 38.8461H167.817C168.176 38.8461 168.452 38.9267 168.642 39.087C168.833 39.2473 168.928 39.4765 168.928 39.7748C168.928 40.0604 168.83 40.2829 168.633 40.4431C168.436 40.6044 168.164 40.684 167.817 40.684H162.658C162.418 40.684 162.231 40.7618 162.094 40.9172C161.956 41.0716 161.888 41.2863 161.888 41.5593V44.0394H166.456C166.815 44.0394 167.09 44.12 167.28 44.2813C167.471 44.4426 167.568 44.6718 167.568 44.9681C167.568 45.2537 167.469 45.4771 167.271 45.6374C167.075 45.7977 166.802 45.8784 166.456 45.8784H161.888V48.6275C161.888 48.9005 161.956 49.1152 162.094 49.2696C162.231 49.425 162.418 49.5018 162.658 49.5018H168.213C168.57 49.5018 168.845 49.5814 169.036 49.7437C169.228 49.904 169.323 50.1332 169.323 50.4296C169.323 50.7161 169.225 50.9386 169.028 51.0988C168.83 51.2591 168.558 51.3398 168.213 51.3398H162.371C161.463 51.3398 160.759 51.1028 160.257 50.6267Z" fill="#040404"/>
<path d="M187.109 51.2325C186.895 51.0431 186.787 50.7808 186.787 50.4476V40.6846H183.328C182.982 40.6846 182.711 40.605 182.513 40.4437C182.316 40.2825 182.218 40.06 182.218 39.7754C182.218 39.4772 182.313 39.2479 182.505 39.0876C182.695 38.9273 182.97 38.8466 183.328 38.8466H192.628C192.986 38.8466 193.261 38.9273 193.453 39.0876C193.643 39.2479 193.739 39.4772 193.739 39.7754C193.739 40.06 193.641 40.2825 193.444 40.4437C193.247 40.605 192.975 40.6846 192.628 40.6846H189.17V50.4476C189.17 50.7691 189.06 51.0275 188.838 51.2238C188.618 51.421 188.328 51.5191 187.97 51.5191C187.611 51.5191 187.325 51.423 187.109 51.2325Z" fill="#040404"/>
<path d="M195.405 50.6267C194.904 50.1498 194.654 49.4834 194.654 48.6275V41.4884C194.654 40.6559 194.894 40.007 195.378 39.5426C195.862 39.0792 196.534 38.8461 197.394 38.8461H202.967C203.326 38.8461 203.601 38.9267 203.791 39.087C203.982 39.2473 204.078 39.4765 204.078 39.7748C204.078 40.0604 203.979 40.2829 203.782 40.4431C203.585 40.6044 203.314 40.684 202.967 40.684H197.807C197.567 40.684 197.379 40.7618 197.242 40.9172C197.104 41.0716 197.037 41.2863 197.037 41.5593V44.0394H201.605C201.964 44.0394 202.238 44.12 202.429 44.2813C202.62 44.4426 202.716 44.6718 202.716 44.9681C202.716 45.2537 202.617 45.4771 202.421 45.6374C202.224 45.7977 201.951 45.8784 201.605 45.8784H197.037V48.6275C197.037 48.9005 197.104 49.1152 197.242 49.2696C197.379 49.425 197.567 49.5018 197.807 49.5018H203.361C203.72 49.5018 203.994 49.5814 204.186 49.7437C204.377 49.904 204.473 50.1332 204.473 50.4296C204.473 50.7161 204.374 50.9386 204.177 51.0988C203.979 51.2591 203.708 51.3398 203.361 51.3398H197.52C196.612 51.3398 195.908 51.1028 195.405 50.6267Z" fill="#040404"/>
<path d="M205.446 41.4882C205.446 40.6557 205.687 40.0068 206.171 39.5424C206.655 39.079 207.327 38.8468 208.187 38.8468H211.376C213.156 38.8468 214.5 39.1917 215.408 39.8814C216.316 40.5712 216.77 41.6009 216.77 42.9686C216.77 44.2432 216.391 45.236 215.632 45.95C214.873 46.664 213.855 47.0205 212.577 47.0205L215.3 49.7163C215.516 49.93 215.623 50.1738 215.623 50.4478C215.623 50.7334 215.497 50.983 215.246 51.1968C214.984 51.3998 214.728 51.5008 214.476 51.5008C214.129 51.5008 213.814 51.3454 213.527 51.0364L209.656 47.0924H207.829V50.4478C207.829 50.7809 207.715 51.0433 207.489 51.2327C207.261 51.4231 206.975 51.5183 206.628 51.5183C206.269 51.5183 205.983 51.4231 205.768 51.2327C205.553 51.0433 205.446 50.7809 205.446 50.4478V41.4882ZM211.304 45.2535C212.093 45.2535 212.708 45.1767 213.15 45.0223C213.592 44.8678 213.906 44.6259 214.09 44.2995C214.276 43.9722 214.369 43.5282 214.369 42.9686C214.369 42.1604 214.121 41.5775 213.625 41.2201C213.129 40.8626 212.355 40.6848 211.304 40.6848H208.599C208.36 40.6848 208.172 40.7615 208.035 40.917C207.898 41.0714 207.829 41.2861 207.829 41.5591V45.2535H211.304Z" fill="#040404"/>
<path d="M172.073 38.663C172.706 38.663 173.297 38.9739 173.647 39.4917L178.631 47.4808L179.018 48.0569V39.854C179.018 39.1963 179.552 38.663 180.21 38.663C180.869 38.663 181.402 39.1963 181.402 39.854V49.651C181.402 50.6749 180.556 51.5045 179.514 51.5045H179.495C178.862 51.5045 178.271 51.1926 177.921 50.6749L172.568 42.3215V50.3135C172.568 50.9712 172.034 51.5045 171.377 51.5045C170.718 51.5045 170.185 50.9712 170.185 50.3135V40.5165C170.185 39.4926 171.03 38.663 172.073 38.663Z" fill="#040404"/>
<mask id="mask0_1_161" style="mask-type:luminance" maskUnits="userSpaceOnUse" x="0" y="0" width="58" height="57">
<path d="M44.544 52.4519C44.6237 52.4072 44.7014 52.3567 44.7762 52.3033C44.6985 52.3538 44.6208 52.4033 44.544 52.4519ZM26.1693 55.8345C26.01 54.3385 30.3105 54.8144 29.4615 56.1434C29.2158 56.5388 28.6028 56.7263 27.9704 56.7263C27.1591 56.7263 26.315 56.4164 26.1693 55.8345ZM30.9953 56.2182C30.4864 55.5683 31.4509 55.0408 31.9609 54.9058C32.64 54.7241 34.3244 54.7241 34.2127 55.6353C34.0797 56.2522 33.0927 56.6728 32.2135 56.6728C31.7113 56.6728 31.246 56.5349 30.9953 56.2182ZM28.6066 53.9159C28.0402 53.1766 29.0874 52.6579 29.647 52.518C30.4456 52.3208 32.3991 52.5054 32.0601 53.6186C31.8328 54.2044 31.0032 54.5094 30.194 54.5094C29.5479 54.5094 28.9136 54.3151 28.6066 53.9159ZM23.4715 53.0873C23.5484 52.5267 24.1565 52.3732 24.6344 52.3072C25.5747 52.2994 26.3761 52.4684 26.8007 52.9746C26.9571 53.163 27.1835 53.4942 26.9862 53.8168C26.7609 54.2209 26.215 54.4026 25.6185 54.4026C24.6227 54.4026 23.487 53.8984 23.4715 53.0873ZM33.595 53.8051C33.0082 53.0368 34.3712 52.3654 34.8938 52.2081C35.5796 52.0138 37.1271 52.0264 36.998 52.9386C36.8601 53.6448 35.6914 54.2666 34.7151 54.2666C34.2584 54.2666 33.8436 54.1306 33.595 53.8051ZM19.0291 53.0368C18.8378 52.7929 18.6134 52.38 18.8669 52.0352C19.0331 51.8098 19.3158 51.8312 19.5985 51.7136C20.6281 51.7059 21.3257 52.0653 21.8386 52.5801C22.2602 52.9775 22.2864 53.6643 21.5898 53.8411C21.3946 53.9178 21.1907 53.9509 20.9838 53.9509C20.1725 53.9509 19.3419 53.4389 19.0291 53.0368ZM38.4959 52.4072C38.9311 51.7942 39.7781 51.4241 40.5621 51.3542C41.283 51.3435 41.7958 51.7369 41.4413 52.4315C41.1314 53.0357 40.4358 53.4195 39.6956 53.5943C39.5519 53.6283 39.4071 53.6439 39.2692 53.6439H39.2672C38.5008 53.6439 37.9179 53.1436 38.4959 52.4072ZM14.5985 51.9361C14.3265 51.3921 14.4061 50.9491 15.0812 50.8345C16.0955 50.8267 16.8396 51.3328 17.2845 51.9109C17.8713 52.789 17.4419 53.1708 16.757 53.1708C16.0061 53.1708 14.9482 52.7093 14.5985 51.9361ZM25.6748 50.7101C25.7856 48.7954 30.7953 49.6493 29.3624 51.4416C29.0487 51.8254 28.4668 52.0031 27.8557 52.0031C26.8551 52.0031 25.7768 51.5281 25.6748 50.7101ZM31.4655 51.5145C30.4106 50.6868 31.862 49.8018 32.5924 49.5842C33.4376 49.356 35.2066 49.4774 34.9929 50.612C34.8141 51.3765 33.7397 51.8992 32.7391 51.8992C32.2631 51.8992 31.8046 51.7806 31.4655 51.5145ZM20.7729 50.748C20.5252 50.4207 20.3164 49.932 20.6379 49.523C20.8517 49.251 21.1907 49.3035 21.553 49.1636C22.6118 49.1577 23.4648 49.5094 23.9301 50.1049C24.1322 50.3653 24.3333 50.8238 24.0661 51.1813C23.8068 51.5271 23.3909 51.6621 22.9392 51.6621C22.0892 51.6621 21.1071 51.1871 20.7729 50.748ZM36.6763 51.0948C36.3306 50.8258 36.4248 50.2885 36.6395 49.968C37.0689 49.3006 37.9529 48.9334 38.7552 48.8304C39.6743 48.8178 40.4193 49.2598 39.8938 50.1535C39.579 50.6887 38.5503 51.3969 37.6061 51.3969C37.2738 51.3969 36.9523 51.3085 36.6763 51.0948ZM15.8856 49.6095C15.7243 49.3414 15.636 48.8809 15.8487 48.5953C15.9885 48.4059 16.2003 48.4078 16.4422 48.3097C17.5662 48.3039 18.3288 48.8012 18.8184 49.4356C19.4703 50.4546 18.9554 50.919 18.1705 50.919C17.3826 50.919 16.3217 50.4517 15.8856 49.6095ZM41.4529 50.2905C40.8147 49.4035 42.2282 48.2621 43.0247 47.9882C43.8504 47.6792 44.8587 47.9503 44.4478 49.0033C44.1554 49.7018 43.4755 50.2215 42.7158 50.4507C42.5604 50.4983 42.3884 50.5216 42.2194 50.5216C41.9163 50.5216 41.6229 50.4459 41.4529 50.2905ZM11.69 48.471C11.4423 47.927 11.4859 47.347 12.1854 47.246C13.1733 47.245 14.0078 48.0309 14.3876 48.6565C14.8092 49.5794 14.4507 49.9612 13.866 49.9621C13.1326 49.9621 12.0416 49.3598 11.69 48.471ZM45.7603 48.2728C46.1353 47.5238 46.8541 46.9322 47.6905 46.7768C48.3433 46.7632 48.6163 47.2528 48.3832 47.8648C48.116 48.5681 47.5517 49.0897 46.8609 49.3744C46.6491 49.4667 46.4491 49.5104 46.2742 49.5104C45.6914 49.5104 45.3757 49.0305 45.7603 48.2728ZM28.558 48.3593C27.7275 47.3606 29.0971 46.5922 29.8199 46.3804C30.8662 46.1308 32.9548 46.4853 32.5924 47.8405C32.3623 48.6235 31.3315 49.1111 30.326 49.1111C29.6354 49.1111 28.9563 48.8819 28.558 48.3593ZM22.8275 48.026C22.0086 47.0711 22.7634 46.1133 23.966 46.0948C25.0336 46.09 25.905 46.428 26.3675 47.0362C27.1747 48.268 26.1411 48.9401 24.9423 48.9401C24.1486 48.9401 23.2822 48.6468 22.8275 48.026ZM34.5606 48.3719C34.2546 48.1319 34.138 47.6025 34.3497 47.1847C34.7724 46.3241 35.7408 45.9734 36.6511 45.8111C37.607 45.8005 38.6261 46.1822 38.1976 47.2334C37.8984 47.9746 36.7677 48.7498 35.6991 48.7498C35.295 48.7498 34.8987 48.6381 34.5606 48.3719ZM17.4817 47.073C17.064 46.4834 17.0232 45.5168 17.9645 45.341C19.1457 45.1535 20.2794 45.8928 20.7486 46.6767C20.9808 47.0478 21.0994 47.689 20.7117 48.0008C20.4232 48.233 20.0919 48.3281 19.7549 48.3281C18.8252 48.3281 17.8363 47.6141 17.4817 47.073ZM39.955 47.6792C39.0894 46.7156 40.5252 45.3594 41.4656 45.0311C42.4846 44.6338 43.6785 45.0495 43.1365 46.3183C42.8382 47.008 42.1592 47.5889 41.4034 47.8153C41.21 47.8735 40.9934 47.9046 40.7817 47.9046C40.4631 47.9046 40.1561 47.8337 39.955 47.6792ZM12.7546 45.6868C12.5215 45.0544 12.573 44.3909 13.3492 44.2646C14.4391 44.2578 15.329 45.0884 15.7118 45.7976C16.178 46.8904 15.7428 47.3363 15.0706 47.3363C14.2468 47.3363 13.0655 46.6651 12.7546 45.6868ZM44.5713 45.4886C44.9336 44.6513 45.6816 43.9771 46.5763 43.7935C47.4389 43.7789 47.7022 44.3996 47.405 45.1545C47.1135 45.8966 46.5578 46.462 45.8098 46.7506C45.5884 46.8341 45.3854 46.8729 45.2075 46.8729C44.547 46.8729 44.2235 46.3357 44.5713 45.4886ZM8.84359 44.524C8.64734 43.9644 8.74946 43.2679 9.35068 43.1873C10.363 43.1805 11.1139 44.1655 11.4423 44.8708C11.76 45.8646 11.4393 46.2619 10.9245 46.2629C10.2153 46.2629 9.13792 45.509 8.84359 44.524ZM48.7426 45.7111C48.3978 45.4906 48.4182 44.8864 48.5814 44.4861C48.9273 43.6497 49.4828 42.9619 50.3513 42.7414C51.0818 42.7288 51.247 43.3563 51.044 44.0159C50.8147 44.7921 49.9909 45.784 49.1322 45.784C49.003 45.784 48.8719 45.7616 48.7426 45.7111ZM25.0181 43.4593C25.5747 41.7107 28.6367 42.0206 29.3993 43.1873C29.9657 43.945 29.6343 44.7989 29.003 45.2419C28.591 45.5294 28.0655 45.6644 27.5322 45.6644C26.1925 45.6644 24.8015 44.8203 25.0181 43.4593ZM5.49015 43.3486C5.36682 42.8191 5.46978 42.2508 5.99736 42.1848C6.84737 42.2158 7.5438 43.199 7.7799 43.8673C8.03059 44.8261 7.77111 45.203 7.34765 45.203C6.70931 45.203 5.69909 44.3511 5.49015 43.3486ZM31.7376 44.7707C30.8973 43.3253 32.7187 42.2227 33.829 42.0731C35.0074 41.8846 36.5753 42.5626 36.0207 43.9421C35.7301 44.7844 34.5052 45.544 33.3618 45.544C32.743 45.544 32.1485 45.3216 31.7376 44.7707ZM19.2516 43.8061C18.6717 42.9192 18.9758 41.7204 20.2046 41.6408C21.4936 41.6359 22.5293 42.2557 22.9888 43.0629C23.3297 43.6623 23.3531 44.4162 22.8159 44.8329C22.4759 45.0981 22.097 45.205 21.7162 45.205C20.6953 45.205 19.6529 44.4308 19.2516 43.8061ZM37.914 42.9143C38.3599 42.0138 39.2973 41.3921 40.3027 41.2328C41.3548 41.2191 42.0707 41.8972 41.6385 42.9765C41.3043 43.8129 40.6592 44.4026 39.7704 44.6852C39.5353 44.7649 39.2993 44.8028 39.0769 44.8028C38.1112 44.8028 37.3778 44.0858 37.914 42.9143ZM13.9923 42.345C13.8699 41.9331 13.8359 41.3853 14.0778 41.0589C15.1512 39.9572 16.9901 41.4746 17.333 42.4199C17.777 43.707 17.232 44.2384 16.4568 44.2384C15.5311 44.2384 14.2778 43.4797 13.9923 42.345ZM43.1986 42.0614C43.5338 41.1589 44.3614 40.4265 45.2892 40.2293C46.2547 40.2157 46.6055 40.9335 46.317 41.8506C46.0537 42.688 45.4475 43.3282 44.6587 43.6448C44.4226 43.743 44.2041 43.7877 44.0108 43.7877C43.2326 43.7877 42.8392 43.061 43.1986 42.0614ZM11.1081 42.9396C10.5009 42.5743 10.0599 42.0614 9.80922 41.3435C9.59553 40.6635 9.68688 39.7989 10.4155 39.6726C11.518 39.6629 12.2796 40.7082 12.5934 41.5048C12.9431 42.4742 12.5759 43.1786 11.8803 43.1786C11.6531 43.1786 11.3917 43.1047 11.1081 42.9396ZM47.542 41.1949C47.7877 40.4653 48.2219 39.83 48.829 39.4628C49.7772 38.9246 50.498 39.6416 50.2017 40.7363C49.9861 41.5252 49.547 42.1168 48.9155 42.4937C48.6668 42.6491 48.4347 42.7201 48.2307 42.7201C47.6138 42.7201 47.2632 42.074 47.542 41.1949ZM7.34567 41.8632C6.66274 41.395 5.45815 39.4045 6.82696 38.7818C7.77208 38.7721 8.457 39.8475 8.67069 40.5887C8.93003 41.4513 8.65029 42.1459 8.06745 42.1459C7.86052 42.1459 7.61675 42.0594 7.34567 41.8632ZM51.5267 41.6777C51.146 41.5242 51.0119 40.8655 51.1673 40.342C51.4549 39.3773 51.825 38.845 52.677 38.436C53.4065 38.4224 53.6095 39.0684 53.457 39.7843C53.2948 40.5499 52.9062 41.123 52.3554 41.5048C52.2194 41.599 51.9931 41.7204 51.756 41.7214C51.6792 41.7214 51.6016 41.7078 51.5267 41.6777ZM4.15255 40.885C3.68723 40.5139 3.05194 39.4851 3.29966 38.5846C3.37638 38.2349 3.54445 38.0348 3.8932 38.0017C4.7208 38.1115 5.19783 39.048 5.37843 39.8086C5.57564 40.5926 5.31348 41.2075 4.82776 41.2075C4.6334 41.2075 4.40419 41.1103 4.15255 40.885ZM30.0424 41.4174C29.0165 41.1861 27.6828 40.1642 28.2481 38.7333C28.9641 36.734 32.4865 36.5242 33.2355 38.4603C33.73 40.0398 32.3807 41.4756 30.6486 41.4756C30.4514 41.4756 30.2484 41.4571 30.0424 41.4174ZM23.2238 41.1327C22.1008 40.7839 20.6767 39.4502 21.3675 37.891C22.2922 36.0676 25.3455 37.0595 25.8846 38.4719C26.6792 40.0699 25.4222 41.2629 24.0156 41.2629C23.7533 41.2629 23.4842 41.2211 23.2238 41.1327ZM36.2052 40.7985C35.3037 40.4207 34.9773 39.1986 35.5621 38.2252C36.0615 37.3519 36.9533 36.7408 37.9752 36.6039C39.2964 36.5912 40.2474 37.6229 39.7199 38.98C39.3779 39.8621 38.3404 40.9792 37.0766 40.9792C36.7959 40.9792 36.5034 40.9239 36.2052 40.7985ZM17.197 40.2545C16.2742 39.8523 14.9385 38.3932 15.601 36.9497C15.7962 36.5203 16.2383 36.2308 16.7152 36.1832C18.0568 36.1755 18.9475 37.1867 19.338 38.1387C19.8471 39.4841 19.138 40.4478 18.0646 40.4478C17.7935 40.4478 17.5001 40.3866 17.197 40.2545ZM42.1592 39.9699C40.4786 39.2054 41.7347 36.5019 43.1239 35.985C44.306 35.4973 45.3581 36.497 44.9802 37.8162C44.7393 38.7614 44.1982 39.4366 43.4084 39.8339C43.1967 39.9398 42.8762 40.0398 42.5652 40.0398C42.4244 40.0398 42.2855 40.0185 42.1592 39.9699ZM11.0838 35.9608C11.2654 35.6586 11.3936 35.6081 11.6443 35.5217C11.8717 35.443 12.1194 35.4264 12.3516 35.4935C13.2364 35.7509 13.8038 36.7156 14.0408 37.4947C14.2915 38.3165 14.0477 39.1869 13.4357 39.4249C13.3161 39.4618 13.1967 39.4783 13.0762 39.4783C11.7123 39.4783 10.3202 37.2771 11.0838 35.9608ZM46.279 37.211C46.521 36.224 47.1077 35.3789 48.0363 35.1312C48.9748 35.1185 49.3458 35.9967 49.138 36.9759C48.9621 37.8016 48.5153 38.4486 47.8877 38.8313C47.6361 39.0004 47.3981 39.0762 47.1853 39.0762C46.4607 39.0762 46.0216 38.2077 46.279 37.211ZM7.44571 35.1195C8.43565 34.0538 9.63442 35.7937 9.78396 36.7525C9.94914 37.4869 9.80534 38.3252 9.24005 38.5224C9.15739 38.5428 9.07486 38.5525 8.99422 38.5525C7.74304 38.5525 6.66365 36.2143 7.44571 35.1195ZM50.1657 36.5417C50.3775 35.6062 50.7875 34.7309 51.688 34.525C52.3049 34.5289 52.7217 35.2691 52.5906 35.9977C52.4419 36.8263 52.1913 37.45 51.6512 37.8784C51.4025 38.1028 51.1635 38.1999 50.9506 38.1999C50.3562 38.1999 49.9666 37.4373 50.1657 36.5417ZM4.37593 34.4754C4.44589 34.3851 4.54306 34.3433 4.64504 34.2938C4.72378 34.2559 4.81209 34.2384 4.8996 34.2481C5.73692 34.3511 6.13719 35.3847 6.29455 36.1337C6.43258 36.7962 6.26642 37.5733 5.77489 37.7298C5.71559 37.7433 5.65631 37.7501 5.59714 37.7501C4.46822 37.7501 3.61533 35.3497 4.37593 34.4754ZM53.9641 37.4325C53.4492 37.3043 53.2879 36.5252 53.4191 35.8743C53.6008 35.0437 53.9 34.2092 54.7073 34.0295C55.3397 34.0421 55.6039 34.8465 55.4737 35.5644C55.362 36.1871 54.8762 37.4539 54.1321 37.4539C54.0778 37.4539 54.0225 37.4481 53.9641 37.4325ZM24.2759 32.5326C25.058 30.0272 28.5804 30.2438 29.511 32.2479C30.4922 34.1131 29.1089 35.7771 27.4933 36.0967C27.371 36.1133 27.2485 36.121 27.1252 36.121C25.4222 36.121 23.7144 34.5677 24.2759 32.5326ZM34.0525 35.9481C32.8401 35.714 31.7677 34.6872 32.0474 33.1513C32.3301 30.5566 36.0993 29.5881 37.1087 32.0876C37.8654 34.1762 36.1537 35.9637 34.3478 35.9637C34.2487 35.9637 34.1506 35.9588 34.0525 35.9481ZM17.6546 31.9885C18.4764 29.5046 21.485 30.5284 22.0115 32.4713C22.5478 33.8576 21.8201 35.1943 20.7856 35.5518C20.5931 35.6013 20.3999 35.6246 20.2096 35.6246H20.2085C18.5717 35.6246 17.1378 33.8916 17.6546 31.9885ZM40.6369 35.3419C39.2682 35.0845 38.6959 33.5564 39.3118 32.0993C40.3416 29.4492 43.6795 30.0787 43.1365 33.1387C42.8897 34.2384 41.9504 35.3488 40.7904 35.3488C40.7399 35.3488 40.6884 35.3468 40.6369 35.3419ZM12.5196 31.7282C13.2054 29.2034 15.6233 30.373 15.9468 32.347C16.2441 33.5244 15.7603 34.6823 14.8822 34.9087C14.7898 34.9252 14.6965 34.9329 14.6062 34.9329C13.2792 34.9329 12.1786 33.2543 12.5196 31.7282ZM44.683 31.8885C45.4591 29.1325 48.3318 30.0816 47.6527 32.8541C47.2845 34.0762 46.5414 34.6406 45.874 34.6406C44.991 34.6406 44.2409 33.6487 44.683 31.8885ZM9.42456 34.0179C8.88833 33.6254 8.29572 32.5743 8.49779 31.5058C8.62989 30.8102 8.91265 30.2419 9.56154 30.0952C10.6651 30.0835 11.0712 31.1482 11.2567 32.0624C11.5171 33.1553 10.941 34.3103 10.1357 34.3103C9.91216 34.3103 9.67134 34.2209 9.42456 34.0179ZM49.7821 30.169C50.2231 29.9145 50.7506 30.036 50.9944 30.4284C51.8416 31.5796 51.2548 34.0558 49.7539 34.0558H49.7325C48.3239 33.7168 48.6698 30.8247 49.7821 30.169ZM5.62617 33.1145C5.12302 32.3082 4.88598 30.5071 5.90983 30.0194C6.03612 29.9592 6.17795 29.9378 6.31598 29.9621C7.14453 30.103 7.38256 31.1608 7.51857 31.9759C7.65364 32.9843 7.12035 33.7721 6.51415 33.7721C6.212 33.7721 5.89144 33.5759 5.62617 33.1145ZM52.2816 31.7651C52.4195 30.9365 52.5963 30.3478 53.184 30.0068C53.3444 29.9135 53.5387 29.8844 53.7115 29.9514C54.3236 30.1885 54.5946 31.1521 54.4227 31.9507C54.2672 32.6443 53.9038 33.5642 53.1229 33.572C52.5273 33.4875 52.1475 32.5743 52.2816 31.7651ZM2.77994 32.7802C2.21643 31.972 2.2175 30.5518 2.94703 29.9553C3.05779 29.8659 3.20055 29.8271 3.33941 29.8504C4.05827 29.9728 4.24779 30.7878 4.36341 31.4805C4.54402 32.414 4.10299 33.3456 3.53177 33.3456C3.29093 33.3456 3.02861 33.1795 2.77994 32.7802ZM55.2143 31.4192C55.3406 30.6528 55.5174 30.1185 56.0906 29.8125C56.147 29.7814 56.2131 29.7707 56.2771 29.7805C56.9931 29.8825 57.234 31.0531 57.0339 31.8642C56.8182 32.7453 56.383 33.162 55.9895 33.162C55.5135 33.162 55.0998 32.551 55.2143 31.4192ZM1.07211 27.1993C1.18287 26.5048 1.35482 26.0763 1.82892 25.7781C1.92794 25.7159 2.04932 25.6965 2.16305 25.7247C3.28888 26.0113 3.07238 28.8984 2.03678 29.0927C2.00571 29.0985 1.97464 29.1014 1.94345 29.1014C1.31792 29.1014 0.961356 27.8862 1.07211 27.1993ZM54.0885 28.3505C53.7242 27.3752 53.7766 26.1647 54.5295 25.6693C54.6489 25.5906 54.7928 25.5566 54.9316 25.5916C56.1362 25.8937 56.1818 28.8323 55.0288 29.1169C54.9821 29.1286 54.9374 29.1344 54.8938 29.1344C54.4683 29.1344 54.1905 28.6245 54.0885 28.3505ZM4.69754 29.1412C3.83105 29.0431 3.49784 27.8046 3.7203 26.7904C3.85727 26.1667 4.10201 25.7791 4.5984 25.5285C4.71402 25.4692 4.84815 25.4478 4.97444 25.477C6.04881 25.7218 5.89243 27.9376 5.4028 28.6721C5.27947 28.8585 5.07535 29.1452 4.75873 29.1452C4.73928 29.1452 4.71889 29.1441 4.69754 29.1412ZM51.4025 25.3924C53.3016 24.7591 53.626 28.9509 52.0096 29.1791C51.9872 29.1811 51.9668 29.182 51.9445 29.182C50.6165 29.182 50.2688 26.0977 51.4025 25.3924ZM7.76733 29.1918C6.27803 28.8799 6.29357 25.4935 7.96442 25.1574C8.97084 25.1457 9.36728 26.5145 9.16521 27.5947C9.0107 28.2718 8.6726 29.1995 7.89066 29.1995C7.85081 29.1995 7.80907 29.1966 7.76733 29.1918ZM46.9483 26.4931C47.1349 25.5984 47.2991 25.308 48.049 24.9592C50.1094 24.9368 50.3018 28.876 48.5571 29.2413C48.5183 29.2452 48.4803 29.2471 48.4434 29.2471C47.3525 29.2471 46.7404 27.6802 46.9483 26.4931ZM11.5918 29.2782C9.74612 28.9276 9.81598 24.9708 11.962 24.7737C13.1801 24.8465 13.6649 26.5815 13.2364 27.8551C12.9538 28.5292 12.5953 29.287 11.7521 29.287C11.6997 29.287 11.6462 29.284 11.5918 29.2782ZM42.2077 26.0725C42.7926 23.606 45.3474 24.4172 45.6728 26.4815C45.9828 27.7861 45.2212 29.1403 44.2254 29.3161C44.138 29.3307 44.0525 29.3384 43.969 29.3384C42.6449 29.3384 41.9047 27.4499 42.2077 26.0725ZM14.9948 25.715C16.1713 23.1883 19.2303 24.4365 18.7067 27.2246C18.3725 28.7342 17.5177 29.3686 16.6842 29.3686C15.3989 29.3686 14.1681 27.856 14.9948 25.715ZM35.872 26.6174C35.7982 25.5615 36.4335 24.5289 37.4059 24.1675C37.7653 24.0791 38.1801 24.0635 38.5571 24.1179C41.2684 24.8222 41.1664 29.0023 38.594 29.4269C38.5182 29.4337 38.4424 29.4375 38.3687 29.4375C36.8872 29.4375 35.8847 28.0736 35.872 26.6174ZM20.6749 25.85C21.5938 23.096 25.4106 23.3204 25.7613 26.2094C25.9682 27.788 24.987 29.1869 23.3482 29.4647C23.2734 29.4696 23.1986 29.4725 23.1258 29.4725C21.3636 29.4725 20.0997 27.8463 20.6749 25.85ZM29.8695 29.2908C26.5035 27.8618 28.0898 22.8094 31.8745 23.9198C34.4838 24.8941 34.5353 28.9742 31.2557 29.5007C31.1508 29.5191 31.0439 29.5279 30.9399 29.5279C30.5242 29.5279 30.1318 29.3996 29.8695 29.2908ZM55.4873 24.5016C55.1153 23.9654 54.7209 22.2906 55.4125 21.7797C56.284 21.3231 56.8231 22.5957 56.9348 23.3262C57.1087 24.1675 56.6958 25.0253 56.1732 25.0253C55.9517 25.0253 55.7107 24.8728 55.4873 24.5016ZM3.29966 24.898C2.65065 24.8494 2.42535 23.8819 2.55651 23.128C2.69051 22.3955 2.97133 21.7602 3.57943 21.4872C3.67074 21.4464 3.77178 21.4271 3.86985 21.4435C4.43716 21.5407 4.67512 22.244 4.56152 22.9425C4.44981 23.6361 4.10106 24.8999 3.35007 24.8999C3.33359 24.8999 3.31614 24.899 3.29966 24.898ZM52.4924 21.2221C52.5925 21.1473 52.7051 21.1512 52.8383 21.0987C53.7291 21.1696 54.1186 22.0925 54.2614 22.9172C54.3993 23.7041 54.1409 24.5726 53.5435 24.7115C53.5095 24.7173 53.4755 24.7192 53.4424 24.7192C52.303 24.7192 51.552 21.8642 52.4924 21.2221ZM5.4028 22.6462C5.61269 21.7699 5.97695 21.0112 6.81427 20.814C7.50502 20.8053 7.88093 21.631 7.74206 22.4354C7.60605 23.2213 7.37968 23.9003 6.86384 24.3035C6.66083 24.4851 6.4627 24.5638 6.28198 24.5638C5.61945 24.5638 5.17061 23.5166 5.4028 22.6462ZM48.6309 21.26C48.7271 20.7839 48.9554 20.5294 49.411 20.4177C50.429 20.4109 50.9779 21.5086 51.1557 22.3732C51.3354 23.2495 51.0197 24.1578 50.3629 24.3288C50.3105 24.3375 50.2581 24.3423 50.2065 24.3423C49.102 24.3423 48.3025 22.3402 48.6309 21.26ZM9.63542 24.1422C8.09075 23.7167 8.6503 20.9287 9.89567 20.2691C10.9944 19.6668 11.8056 20.7023 11.5413 21.9283C11.3888 22.7686 11.046 23.4943 10.4523 23.8954C10.2979 24.0004 10.054 24.1587 9.78396 24.1587C9.73546 24.1587 9.68594 24.1548 9.63542 24.1422ZM44.3246 20.4925C44.4741 20.0204 44.8268 19.6474 45.3261 19.6134C46.451 19.6075 47.1601 20.6557 47.405 21.5446C47.6741 22.5151 47.3554 23.6448 46.5763 23.8459C46.4957 23.8615 46.4131 23.8692 46.3325 23.8692C45.0453 23.8692 43.8933 21.9031 44.3246 20.4925ZM12.8654 21.1356C13.526 18.7381 16.8241 18.4262 16.2693 21.3833C15.8759 22.8929 14.884 23.6526 14.0554 23.6526C13.1859 23.6526 12.4972 22.8182 12.8654 21.1356ZM38.8797 21.1482C38.5406 20.1107 39.0049 18.7993 40.2154 18.7226C41.5657 18.7148 42.402 19.6532 42.7527 20.6528C43.1209 21.7029 42.7654 22.892 41.9358 23.2271C41.7172 23.3155 41.5034 23.3543 41.2985 23.3543C40.0988 23.3543 39.1439 22.0186 38.8797 21.1482ZM19.0904 23.0163C17.9004 22.6588 17.4855 21.0812 18.1869 19.8854C18.6406 19.0781 19.4974 18.4088 20.464 18.3641C21.7958 18.3534 22.777 19.3821 22.3457 20.8267C22.0581 21.7826 21.0012 23.1047 19.6801 23.1047C19.4877 23.1047 19.2915 23.0766 19.0904 23.0163ZM32.0727 19.1811C33.1189 17.1022 36.2567 18.0066 36.8493 19.8115C37.4487 21.2153 36.553 22.4539 35.4514 22.7443C35.2639 22.7861 35.0715 22.8065 34.8782 22.8065C33.1432 22.8065 31.3266 21.1851 32.0727 19.1811ZM26.6278 22.6705C25.3017 22.5277 24.0165 21.4756 24.4489 19.7746C25.1288 17.3742 28.867 17.1314 29.6714 19.4162C30.2067 21.1444 28.6115 22.6889 26.9455 22.6899C26.8396 22.6899 26.7336 22.6831 26.6278 22.6705ZM53.8408 20.3808C53.3764 19.9174 52.8897 18.9916 53.0976 18.0426C53.1549 17.6996 53.3201 17.515 53.6426 17.448C54.5091 17.4782 55.0123 18.5186 55.1774 19.2802C55.3571 20.0816 55.0006 20.7665 54.5013 20.7665C54.2954 20.7665 54.0661 20.6509 53.8408 20.3808ZM4.45076 18.8595C4.67133 18.0085 5.15802 17.2081 6.00993 17.0769C6.56467 17.1469 6.81521 17.7181 6.67825 18.4136C6.52966 19.1645 6.21494 19.831 5.70005 20.2205C5.48055 20.408 5.27944 20.4886 5.10453 20.4886C4.53723 20.4886 4.23897 19.6474 4.45076 18.8595ZM50.7593 19.762C50.1861 19.353 48.9359 17.0468 50.3513 16.5815C51.3675 16.5699 51.9853 17.6219 52.1951 18.4379C52.4235 19.3151 52.064 20.0932 51.4714 20.0932C51.2597 20.0932 51.0157 19.9942 50.7593 19.762ZM7.61861 18.0668C7.82744 17.3101 8.27345 16.6048 8.93004 16.2978C9.91702 15.8383 10.4864 16.6787 10.2173 17.6958C10.0287 18.4768 9.60811 19.1422 9.0165 19.5269C8.78443 19.695 8.56777 19.7688 8.37638 19.7688C7.73424 19.7688 7.37089 18.944 7.61861 18.0668ZM46.9844 18.945C46.28 18.5146 44.8151 16.0511 46.5394 15.5916C47.6838 15.5828 48.4191 16.6311 48.6921 17.5102C48.9923 18.5458 48.5396 19.3054 47.8499 19.3054C47.5866 19.3054 47.2884 19.1937 46.9844 18.945ZM11.4054 17.0769C12.061 14.8076 15.1308 14.353 14.5237 16.805C14.2681 17.6559 13.7562 18.266 13.0635 18.6856C12.7984 18.8518 12.5428 18.9256 12.3146 18.9256C11.5588 18.9256 11.0838 18.1106 11.4054 17.0769ZM42.5167 18.129C41.5122 17.687 39.7179 15.0719 41.8978 14.5522C43.2521 14.5434 44.0428 15.4167 44.4353 16.3716C44.852 17.5695 44.3109 18.3971 43.4377 18.3971C43.1578 18.3971 42.8449 18.3126 42.5167 18.129ZM16.0955 15.815C16.4753 14.9 17.3933 14.2705 18.3598 14.1072C19.5285 14.0946 20.2522 14.8338 19.8082 16.0122C19.4789 16.8875 18.7941 17.5005 17.9276 17.8443C17.6653 17.9473 17.4167 17.9949 17.1884 17.9949H17.1873C16.176 17.9949 15.5825 17.0507 16.0955 15.815ZM35.2163 15.9131C34.7276 15.0631 34.9559 13.9858 36.0207 13.6857C37.368 13.3709 38.798 14.2432 39.2011 15.2205C39.5538 16.0142 39.4305 16.8661 38.7805 17.2625C38.4774 17.447 38.1539 17.5248 37.8304 17.5248C36.7113 17.5248 35.5806 16.5883 35.2163 15.9131ZM22.469 17.0031C21.6783 16.6631 21.3286 15.7529 21.7638 14.8125C22.8207 12.5995 27.1427 12.924 26.1323 15.6169C25.7953 16.3862 24.6149 17.1925 23.4182 17.1925C23.0986 17.1925 22.776 17.1343 22.469 17.0031ZM50.6982 14.5152C50.5767 13.9848 50.6477 13.3961 51.1926 13.3155C52.132 13.3097 52.7644 14.319 52.9994 15.0476C53.1588 15.5401 53.1044 16.2639 52.677 16.4212C52.607 16.4377 52.538 16.4455 52.4691 16.4455C51.6249 16.4455 50.8827 15.2827 50.6982 14.5152ZM28.3716 14.2432C29.1671 12.652 32.1194 12.9308 32.8275 14.218C33.4415 15.136 33.049 16.1278 32.2826 16.5815C31.8852 16.8176 31.3908 16.9273 30.8856 16.9273C29.3061 16.9273 27.6148 15.8617 28.3716 14.2432ZM6.74051 14.6386C6.98918 13.9062 7.45736 13.2436 8.15001 12.9561C8.92911 12.618 9.46831 13.2747 9.20209 14.0946C8.97868 14.8417 8.55508 15.442 7.96442 15.8267C7.74492 15.9918 7.53702 16.0637 7.35345 16.0637C6.80749 16.0637 6.48591 15.4187 6.74051 14.6386ZM47.0212 13.5875C46.8444 12.992 46.9591 12.3334 47.5915 12.2634C48.6367 12.2576 49.3537 13.2038 49.6578 13.9586C49.8569 14.4511 49.8278 15.2079 49.411 15.4313C49.2925 15.475 49.171 15.4954 49.0506 15.4954C48.1539 15.4954 47.2466 14.3744 47.0212 13.5875ZM10.3037 13.5506C10.637 12.652 11.3568 11.9759 12.2835 11.7933C13.0859 11.7797 13.4463 12.3276 13.1752 13.1047C12.8994 13.8974 12.3564 14.5055 11.6531 14.8737C11.4103 15.0019 11.1867 15.0602 10.9895 15.0602C10.3436 15.0602 10.0016 14.4269 10.3037 13.5506ZM44.2128 14.2685C43.526 13.9207 43.014 13.3961 42.6906 12.6841C42.4234 12.007 42.5099 11.3202 43.3211 11.1861C44.5654 11.1783 45.3231 11.9536 45.7224 12.7948C46.1381 13.7886 45.736 14.4648 44.9831 14.4648C44.7539 14.4648 44.4926 14.4016 44.2128 14.2685ZM14.5615 12.3499C14.8986 11.6573 15.4348 11.155 16.1702 10.8645C16.3889 10.7781 16.6647 10.8063 16.8999 10.716C17.7284 10.7043 18.1967 11.3289 17.9024 12.1517C17.6109 12.9678 16.8619 13.571 16.0459 13.8721C15.8156 13.9596 15.5971 14.0013 15.399 14.0013C14.5965 14.0013 14.1341 13.3252 14.5615 12.3499ZM37.6167 12.04C37.1796 11.394 37.2125 10.4517 38.1733 10.2331C39.4546 10.0428 40.5894 10.7587 41.0313 11.6203C41.2781 12.0711 41.3509 12.8278 40.9333 13.1542C40.6631 13.3651 40.3591 13.4515 40.0472 13.4515C39.0544 13.4515 37.9742 12.5762 37.6167 12.04ZM19.8082 12.7579C19.4187 12.4743 19.3021 11.8593 19.5363 11.3231C19.9414 10.4177 21.0371 9.87372 22.0232 9.83779C23.0519 9.85042 23.9116 10.5255 23.3968 11.5698C23.0868 12.1993 21.8677 13.0542 20.7787 13.0542C20.4309 13.0542 20.0958 12.9678 19.8082 12.7579ZM31.8376 11.7554C30.837 10.7635 31.6822 9.58325 33.0005 9.52882C34.2283 9.52301 35.1026 9.93586 35.5621 10.6917C36.1693 12.0614 35.196 12.6064 34.0691 12.6064C33.1968 12.6064 32.23 12.279 31.8376 11.7554ZM49.3488 12.1148C48.7806 11.7942 48.3065 11.259 48.049 10.6295C47.8528 10.1496 47.9102 9.4997 48.4706 9.44237C49.4499 9.43365 50.1736 10.273 50.4747 10.9511C50.7933 11.7253 50.565 12.3159 49.9997 12.3159C49.816 12.3159 49.5965 12.2538 49.3488 12.1148ZM25.9837 12.2013C24.8005 11.5281 25.1192 10.3575 26.1198 9.75128C27.2437 9.01594 29.9288 9.41711 29.6587 11.0628C29.4732 11.8856 28.2986 12.4898 27.1835 12.4907C26.755 12.4907 26.3353 12.4014 25.9837 12.2013ZM9.38864 10.543C9.66352 9.93099 10.1463 9.3899 10.7622 9.12083C11.5986 8.75559 12.4244 9.1296 12.0125 10.135C11.7327 10.8277 11.1897 11.3542 10.5388 11.6815C10.3193 11.8001 10.1153 11.8545 9.93944 11.8545C9.37498 11.8545 9.07973 11.3056 9.38864 10.543ZM45.5368 11.0628C44.8772 10.7752 44.3702 10.2496 44.0516 9.61532C43.8087 9.05187 43.8455 8.48456 44.5713 8.36503C45.5747 8.35827 46.4966 9.10529 46.7997 9.78822C47.2029 10.6693 46.9086 11.2288 46.2461 11.2288C46.041 11.2288 45.8021 11.1754 45.5368 11.0628ZM13.3356 9.34234C13.6911 8.73128 14.1652 8.30189 14.8579 8.03086C15.6845 7.72972 16.7492 8.03086 16.3179 9.09462C16.0167 9.82901 15.3387 10.3409 14.5858 10.6295C14.3594 10.714 14.1487 10.7548 13.9612 10.7548C13.2637 10.7548 12.8965 10.2021 13.3356 9.34234ZM39.4847 8.87311C39.2944 8.58169 39.1429 8.07071 39.3867 7.72195C39.5702 7.45775 39.818 7.5034 40.1541 7.37515C41.315 7.36834 42.0873 7.95319 42.5293 8.67495C42.7527 9.03729 42.8868 9.67847 42.4924 9.97374C42.2845 10.1292 42.0445 10.1953 41.794 10.1953C40.8701 10.1953 39.7801 9.32195 39.4847 8.87311ZM17.8897 9.47931C17.5643 9.21605 17.6614 8.68758 17.8159 8.34078C18.187 7.53542 19.2138 7.02545 20.1056 7.00404C20.9294 7.00505 21.6851 7.50826 21.2188 8.3524C20.9167 8.90127 19.7743 9.77363 18.7669 9.77363C18.4512 9.77363 18.149 9.68813 17.8897 9.47931ZM34.0778 7.21489C34.2896 6.83506 34.8092 6.65238 35.2522 6.62037C36.3354 6.61355 37.0951 6.99141 37.5671 7.59856C38.1374 8.26886 37.9004 9.1519 36.8988 9.24327C36.7725 9.27143 36.6376 9.28501 36.4967 9.28501C35.2746 9.28501 33.6348 8.29513 34.0778 7.21489ZM22.8275 8.20382C22.574 7.39359 23.593 6.77678 24.1273 6.58343C24.3653 6.49698 24.6596 6.51156 24.919 6.41053C25.7457 6.40081 26.9814 6.71654 26.8007 7.59856C26.6744 8.37671 25.4106 9.03824 24.3206 9.03824C23.6659 9.03824 23.0733 8.79929 22.8275 8.20382ZM28.3841 7.70932C28.1947 6.99337 29.0253 6.51737 29.4858 6.37264C30.4591 6.09871 31.7862 6.38427 32.233 7.06624C32.8654 8.26696 31.7658 8.8236 30.5796 8.8236C29.5877 8.8236 28.5366 8.435 28.3841 7.70932ZM46.688 8.36503C46.0595 8.11832 45.4912 7.59471 45.2027 7.00404C44.9744 6.48044 45.0696 6.00059 45.6855 5.9394C46.6637 5.93258 47.4127 6.60287 47.7527 7.25082C48.1315 8.01337 47.8849 8.5001 47.2981 8.5001C47.1223 8.5001 46.9163 8.45735 46.688 8.36503ZM12.235 6.8302C12.5215 6.28519 13.0364 5.86167 13.6329 5.63043C14.3508 5.36818 15.3931 5.53526 14.9822 6.50866C14.7044 7.1799 14.0166 7.66948 13.3113 7.92017C13.1073 7.99108 12.9189 8.02505 12.7518 8.02505C12.1514 8.02505 11.8454 7.58208 12.235 6.8302ZM42.5672 7.32558C41.9105 7.09636 41.3558 6.69128 41.0197 6.1385C40.8633 5.87815 40.7623 5.44882 41.007 5.19718C41.1713 5.02915 41.3889 5.05927 41.6385 4.96209C42.6565 4.95823 43.4444 5.53135 43.8291 6.17443C44.3225 7.006 43.8894 7.44411 43.2171 7.44411C43.015 7.44411 42.7925 7.40527 42.5672 7.32558ZM16.3674 5.77907C16.7794 5.09324 17.5934 4.67067 18.4104 4.59199C19.1749 4.57841 19.8374 5.00389 19.3876 5.75482C19.0214 6.36488 18.3443 6.75537 17.5808 6.96717C17.4156 7.00701 17.2553 7.02741 17.1047 7.02741C16.3878 7.02741 15.905 6.57661 16.3674 5.77907ZM36.416 5.58092C36.2207 5.33515 35.9925 4.91258 36.2557 4.5541C36.4471 4.29375 36.7511 4.3132 37.0844 4.18204C38.1656 4.17522 38.8922 4.54343 39.3614 5.14767C39.5401 5.37885 39.7743 5.83445 39.5227 6.17443C39.3148 6.45423 38.9942 6.56303 38.6358 6.56303C37.7838 6.56303 36.7123 5.95102 36.416 5.58092ZM20.972 4.93784C21.3539 4.29375 22.1805 4.0101 22.9266 3.92264C23.6446 3.91392 24.6383 4.17232 24.3876 4.9864C24.1972 5.70134 22.9286 6.22204 21.962 6.22204C21.1537 6.22204 20.5553 5.85876 20.972 4.93784ZM31.0458 4.57841C31.1528 3.97126 31.7987 3.77696 32.3321 3.69923C33.3278 3.69146 34.1497 3.91778 34.548 4.50358C35.1221 5.49637 34.3177 5.9209 33.3366 5.9209C32.2612 5.9209 30.973 5.41283 31.0458 4.57841ZM26.0955 5.37014C25.2464 4.69788 26.4461 3.8838 27.0106 3.71281C27.8897 3.44178 29.8452 3.73225 29.5722 4.85133C29.376 5.50028 28.5095 5.80338 27.6518 5.80338C27.0504 5.80338 26.453 5.65379 26.0955 5.37014ZM38.2355 3.3165C37.606 2.64715 38.0238 2.0604 38.9281 2.06627C39.8219 2.17507 40.4601 2.42664 40.8837 2.99496C41.0411 3.20574 41.2733 3.58651 41.045 3.89839C40.8701 4.13639 40.6019 4.22865 40.2979 4.22865C39.5158 4.22865 38.4968 3.61373 38.2355 3.3165ZM19.2643 3.58847C18.6182 2.87542 20.0006 2.0604 20.5018 1.90594C21.1333 1.72913 22.5769 1.70293 22.4078 2.59859C22.2222 3.3194 21.0886 3.86631 20.1736 3.86631C19.8121 3.86631 19.4858 3.78081 19.2643 3.58847ZM33.632 2.87056C33.4804 2.72097 33.1947 2.43732 33.3219 2.10315C33.4948 1.65146 33.8913 1.68935 34.3497 1.50957C35.3018 1.50086 35.9575 1.735 36.416 2.21485C36.6064 2.41401 36.8328 2.78803 36.6015 3.11828C36.3947 3.41557 36.0119 3.52823 35.5864 3.52823C34.8326 3.52823 33.9398 3.17562 33.632 2.87056ZM23.8057 2.88319C23.2657 2.15271 24.5178 1.56691 25.0181 1.42313C25.7661 1.23665 27.44 1.429 27.1107 2.42469C26.9144 2.93762 25.8973 3.33494 25.0151 3.33494C24.5062 3.33494 24.0418 3.20283 23.8057 2.88319ZM28.5328 2.43732C28.2569 1.55624 29.4431 1.31433 30.0424 1.25023C30.8293 1.24152 31.317 1.46202 31.7376 1.80686C32.4332 2.74137 31.4161 3.18439 30.3445 3.18439C29.5286 3.18439 28.6824 2.92891 28.5328 2.43732ZM26.281 0.185525C25.8964 0.129197 25.4174 0.300136 25.0181 0.308911C24.3537 1.19877 22.9499 1.46783 21.962 0.92869C20.432 1.37457 18.9505 1.84961 17.5196 2.51214C17.5177 2.52572 17.8461 2.67436 17.9276 2.87056C18.0461 3.15813 17.8586 3.44374 17.7411 3.61278C17.3515 4.38215 14.7218 5.51 14.9443 3.84882C14.3304 4.15097 11.6617 6.01031 10.9468 6.62037C11.2995 7.16437 11.0721 7.53933 10.7739 7.94442C10.4446 8.42237 9.27594 9.57838 8.5221 8.91004C8.2841 9.09658 7.57395 9.84846 7.45739 10.1098C8.38317 9.85332 8.57941 10.5702 8.26173 11.3105C7.99456 11.9332 7.5157 12.5073 6.91342 12.7948C6.29844 13.0892 5.89632 12.7579 5.92252 12.1071C5.91671 12.1041 5.91766 12.1051 5.90983 12.1022C5.43585 12.7502 4.92676 13.4486 4.56152 14.1821C5.83405 13.2854 6.08959 14.4356 5.68736 15.5052C5.36398 16.5786 3.5697 17.8745 3.63385 15.9131C3.35494 16.5543 2.87705 17.2877 2.7051 17.9687C4.32448 17.447 3.56674 20.4235 2.81682 20.8627C2.50885 21.1026 1.96396 21.1871 1.81431 20.7276C1.80162 20.7189 1.79 20.7111 1.77743 20.7033C1.7045 20.7869 1.44217 21.837 1.43055 22.0148C2.24558 22.7851 1.7842 24.7863 0.873947 25.1817C0.737931 25.5168 0.813703 26.1551 0.750617 26.5679C0.599066 27.5442 0.682542 28.6449 0.688353 29.6862C1.81727 29.8854 2.08731 32.6355 1.05954 32.9541C0.996336 33.096 1.09056 33.3476 1.12163 33.4981L1.38098 34.8465C1.39651 34.8456 1.39167 34.8456 1.4072 34.8445C1.65492 32.9551 2.87513 33.9304 3.22578 35.0942C3.5998 36.4465 3.03926 38.0154 1.80551 36.4115C1.79673 36.4154 1.79878 36.4144 1.79 36.4183C3.05197 40.7742 5.39118 44.8154 8.47259 48.0377C6.76865 45.6101 9.47414 45.6577 10.4155 47.6414C10.5417 47.8891 10.703 48.3097 10.5388 48.6312C10.1696 49.3569 9.06605 48.5574 8.76876 48.3476C8.76496 48.3515 8.76106 48.3554 8.75714 48.3593C9.38279 48.9372 9.95014 49.6066 10.6379 50.1049C11.4122 48.9858 14.0612 51.2085 13.2491 52.0837C13.3784 52.3013 13.933 52.5578 14.1652 52.7035C14.8636 53.1416 16.9532 54.3287 17.2718 54.3734C17.9314 53.1387 20.7903 54.5793 20.3407 55.5742C20.4776 55.7101 21.9969 56.1171 22.2961 56.156C22.298 56.1502 22.2971 56.1512 22.2991 56.1463C20.6418 54.9777 22.1427 54.3297 23.558 54.6707C24.7606 55.0078 25.7409 56.2095 23.8174 56.4776C27.7566 57.3004 32.0106 57.1109 35.909 56.192C35.91 56.1774 35.9099 56.1783 35.9109 56.1638C35.4038 55.9307 35.3484 55.5567 35.6613 55.1535C36.0013 54.7027 36.6112 54.4793 37.2709 54.3482C38.1772 54.1908 39.0458 54.5629 38.5318 55.4138L39.8073 54.9427C40.2056 54.1092 41.0128 53.6934 41.9358 53.5574C42.2223 53.5127 42.6779 53.5943 42.6779 53.5943C42.6779 53.5943 43.5658 53.0727 44.544 52.4519C44.3526 52.5627 44.1487 52.6521 43.9408 52.7152C43.5823 52.8269 43.0859 52.8114 42.8391 52.6171C42.1893 51.8351 43.6134 50.7461 44.3246 50.5129C45.1435 50.2118 46.0284 50.5741 45.5126 51.5028C45.3455 51.8108 45.0861 52.0847 44.7762 52.3033C45.4281 51.8856 46.0915 51.4378 46.5394 51.0822C46.7978 50.7606 46.9494 50.2827 47.3068 50.0301C47.6643 49.6959 48.1112 49.4531 48.5931 49.3375C48.731 49.2578 49.5004 48.4952 49.5586 48.3593C48.6795 47.4218 50.7972 45.1224 51.688 45.8724C51.8454 45.8315 52.4506 44.9524 52.541 44.7717C52.5099 44.7494 52.4856 44.7542 52.4573 44.7572C52.4399 44.7601 52.4186 44.763 52.3933 44.7581C52.2291 44.7358 52.064 44.6231 51.9969 44.4988C51.5443 43.6517 52.5827 42.3383 53.049 42.0235C53.2084 41.9167 53.4347 41.7321 53.7426 41.7894C53.9962 41.837 54.0049 42.0215 54.1622 42.1478C54.3653 41.9244 54.7481 41.158 54.8306 40.8238C53.3424 40.6936 54.8966 36.9293 56.0313 37.8667L56.45 36.7389C56.45 36.7389 56.4267 36.6446 56.3791 36.5378C56.2655 36.2823 56.1839 36.0122 56.1781 35.7324C56.1635 34.9087 56.5199 33.9926 57.2068 33.6215C57.4506 32.1032 57.6964 30.6955 57.6643 29.0548C56.9329 29.1772 56.722 28.3942 56.6006 27.7433C56.4296 26.8972 56.7473 25.7771 57.5284 25.8131C57.5954 25.5479 56.9941 22.1848 56.7123 21.1599C56.4511 20.8772 56.2324 20.5644 56.0935 20.1953C55.9186 19.7484 55.875 19.1762 55.9197 18.673L55.363 17.2994C54.3449 17.0332 53.6533 15.7276 53.8534 14.6629C53.8738 14.6027 53.9398 14.4414 53.9398 14.4414L53.3326 13.4136C53.3326 13.4136 52.9004 13.2767 52.7517 13.1912C52.0824 12.7812 51.6171 12.145 51.4403 11.359C51.3986 11.156 51.4277 10.7295 51.4277 10.7295C51.4277 10.7295 50.7351 9.91161 50.3882 9.50356C50.0153 9.30446 49.6247 9.04215 49.3614 8.71183C49.0399 8.16688 48.1355 7.27608 48.1355 7.27608C48.1355 7.27608 46.1722 5.57214 45.0668 4.89995C44.0497 5.54303 42.1194 4.30928 42.2573 3.22904C42.0902 3.02603 41.4306 2.79384 41.1558 2.67342C40.3804 2.33047 39.5965 1.98172 38.7552 1.68253C38.4783 1.5844 38.2025 1.48532 37.9266 1.38625C37.4652 1.4523 36.9222 1.42799 36.5403 1.31243C36.1003 1.18614 35.8254 0.931596 35.4873 0.729528C35.3212 0.630452 34.272 0.432297 34.0155 0.433246C33.4871 1.31919 30.9594 1.09186 30.8108 0.0864471C30.666 0.00290472 30.3232 0.00581077 30.0132 0.00972404C29.8433 0.0106727 29.6839 0.0126292 29.5722 0C29.3896 1.13752 26.4714 1.23369 26.281 0.185525Z" fill="white"/>
</mask>
<g mask="url(#mask0_1_161)">
<path d="M57.6964 6.10352e-05H0.598877V57.3004H57.6964V6.10352e-05Z" fill="url(#paint0_linear_1_161)"/>
</g>
<mask id="mask1_1_161" style="mask-type:luminance" maskUnits="userSpaceOnUse" x="0" y="0" width="58" height="57">
<path d="M44.544 52.4519C44.6237 52.4072 44.7014 52.3567 44.7762 52.3033C44.6985 52.3538 44.6208 52.4033 44.544 52.4519ZM26.1693 55.8345C26.01 54.3385 30.3105 54.8144 29.4615 56.1434C29.2158 56.5388 28.6028 56.7263 27.9704 56.7263C27.1591 56.7263 26.315 56.4164 26.1693 55.8345ZM30.9953 56.2182C30.4864 55.5683 31.4509 55.0408 31.9609 54.9058C32.64 54.7241 34.3244 54.7241 34.2127 55.6353C34.0797 56.2522 33.0927 56.6728 32.2135 56.6728C31.7113 56.6728 31.246 56.5349 30.9953 56.2182ZM28.6066 53.9159C28.0402 53.1766 29.0874 52.6579 29.647 52.518C30.4456 52.3208 32.3991 52.5054 32.0601 53.6186C31.8328 54.2044 31.0032 54.5094 30.194 54.5094C29.5479 54.5094 28.9136 54.3151 28.6066 53.9159ZM23.4715 53.0873C23.5484 52.5267 24.1565 52.3732 24.6344 52.3072C25.5747 52.2994 26.3761 52.4684 26.8007 52.9746C26.9571 53.163 27.1835 53.4942 26.9862 53.8168C26.7609 54.2209 26.215 54.4026 25.6185 54.4026C24.6227 54.4026 23.487 53.8984 23.4715 53.0873ZM33.595 53.8051C33.0082 53.0368 34.3712 52.3654 34.8938 52.2081C35.5796 52.0138 37.1271 52.0264 36.998 52.9386C36.8601 53.6448 35.6914 54.2666 34.7151 54.2666C34.2584 54.2666 33.8436 54.1306 33.595 53.8051ZM19.0291 53.0368C18.8378 52.7929 18.6134 52.38 18.8669 52.0352C19.0331 51.8098 19.3158 51.8312 19.5985 51.7136C20.6281 51.7059 21.3257 52.0653 21.8386 52.5801C22.2602 52.9775 22.2864 53.6643 21.5898 53.8411C21.3946 53.9178 21.1907 53.9509 20.9838 53.9509C20.1725 53.9509 19.3419 53.4389 19.0291 53.0368ZM38.4959 52.4072C38.9311 51.7942 39.7781 51.4241 40.5621 51.3542C41.283 51.3435 41.7958 51.7369 41.4413 52.4315C41.1314 53.0357 40.4358 53.4195 39.6956 53.5943C39.5519 53.6283 39.4071 53.6439 39.2692 53.6439H39.2672C38.5008 53.6439 37.9179 53.1436 38.4959 52.4072ZM14.5985 51.9361C14.3265 51.3921 14.4061 50.9491 15.0812 50.8345C16.0955 50.8267 16.8396 51.3328 17.2845 51.9109C17.8713 52.789 17.4419 53.1708 16.757 53.1708C16.0061 53.1708 14.9482 52.7093 14.5985 51.9361ZM25.6748 50.7101C25.7856 48.7954 30.7953 49.6493 29.3624 51.4416C29.0487 51.8254 28.4668 52.0031 27.8557 52.0031C26.8551 52.0031 25.7768 51.5281 25.6748 50.7101ZM31.4655 51.5145C30.4106 50.6868 31.862 49.8018 32.5924 49.5842C33.4376 49.356 35.2066 49.4774 34.9929 50.612C34.8141 51.3765 33.7397 51.8992 32.7391 51.8992C32.2631 51.8992 31.8046 51.7806 31.4655 51.5145ZM20.7729 50.748C20.5252 50.4207 20.3164 49.932 20.6379 49.523C20.8517 49.251 21.1907 49.3035 21.553 49.1636C22.6118 49.1577 23.4648 49.5094 23.9301 50.1049C24.1322 50.3653 24.3333 50.8238 24.0661 51.1813C23.8068 51.5271 23.3909 51.6621 22.9392 51.6621C22.0892 51.6621 21.1071 51.1871 20.7729 50.748ZM36.6763 51.0948C36.3306 50.8258 36.4248 50.2885 36.6395 49.968C37.0689 49.3006 37.9529 48.9334 38.7552 48.8304C39.6743 48.8178 40.4193 49.2598 39.8938 50.1535C39.579 50.6887 38.5503 51.3969 37.6061 51.3969C37.2738 51.3969 36.9523 51.3085 36.6763 51.0948ZM15.8856 49.6095C15.7243 49.3414 15.636 48.8809 15.8487 48.5953C15.9885 48.4059 16.2003 48.4078 16.4422 48.3097C17.5662 48.3039 18.3288 48.8012 18.8184 49.4356C19.4703 50.4546 18.9554 50.919 18.1705 50.919C17.3826 50.919 16.3217 50.4517 15.8856 49.6095ZM41.4529 50.2905C40.8147 49.4035 42.2282 48.2621 43.0247 47.9882C43.8504 47.6792 44.8587 47.9503 44.4478 49.0033C44.1554 49.7018 43.4755 50.2215 42.7158 50.4507C42.5604 50.4983 42.3884 50.5216 42.2194 50.5216C41.9163 50.5216 41.6229 50.4459 41.4529 50.2905ZM11.69 48.471C11.4423 47.927 11.4859 47.347 12.1854 47.246C13.1733 47.245 14.0078 48.0309 14.3876 48.6565C14.8092 49.5794 14.4507 49.9612 13.866 49.9621C13.1326 49.9621 12.0416 49.3598 11.69 48.471ZM45.7603 48.2728C46.1353 47.5238 46.8541 46.9322 47.6905 46.7768C48.3433 46.7632 48.6163 47.2528 48.3832 47.8648C48.116 48.5681 47.5517 49.0897 46.8609 49.3744C46.6491 49.4667 46.4491 49.5104 46.2742 49.5104C45.6914 49.5104 45.3757 49.0305 45.7603 48.2728ZM28.558 48.3593C27.7275 47.3606 29.0971 46.5922 29.8199 46.3804C30.8662 46.1308 32.9548 46.4853 32.5924 47.8405C32.3623 48.6235 31.3315 49.1111 30.326 49.1111C29.6354 49.1111 28.9563 48.8819 28.558 48.3593ZM22.8275 48.026C22.0086 47.0711 22.7634 46.1133 23.966 46.0948C25.0336 46.09 25.905 46.428 26.3675 47.0362C27.1747 48.268 26.1411 48.9401 24.9423 48.9401C24.1486 48.9401 23.2822 48.6468 22.8275 48.026ZM34.5606 48.3719C34.2546 48.1319 34.138 47.6025 34.3497 47.1847C34.7724 46.3241 35.7408 45.9734 36.6511 45.8111C37.607 45.8005 38.6261 46.1822 38.1976 47.2334C37.8984 47.9746 36.7677 48.7498 35.6991 48.7498C35.295 48.7498 34.8987 48.6381 34.5606 48.3719ZM17.4817 47.073C17.064 46.4834 17.0232 45.5168 17.9645 45.341C19.1457 45.1535 20.2794 45.8928 20.7486 46.6767C20.9808 47.0478 21.0994 47.689 20.7117 48.0008C20.4232 48.233 20.0919 48.3281 19.7549 48.3281C18.8252 48.3281 17.8363 47.6141 17.4817 47.073ZM39.955 47.6792C39.0894 46.7156 40.5252 45.3594 41.4656 45.0311C42.4846 44.6338 43.6785 45.0495 43.1365 46.3183C42.8382 47.008 42.1592 47.5889 41.4034 47.8153C41.21 47.8735 40.9934 47.9046 40.7817 47.9046C40.4631 47.9046 40.1561 47.8337 39.955 47.6792ZM12.7546 45.6868C12.5215 45.0544 12.573 44.3909 13.3492 44.2646C14.4391 44.2578 15.329 45.0884 15.7118 45.7976C16.178 46.8904 15.7428 47.3363 15.0706 47.3363C14.2468 47.3363 13.0655 46.6651 12.7546 45.6868ZM44.5713 45.4886C44.9336 44.6513 45.6816 43.9771 46.5763 43.7935C47.4389 43.7789 47.7022 44.3996 47.405 45.1545C47.1135 45.8966 46.5578 46.462 45.8098 46.7506C45.5884 46.8341 45.3854 46.8729 45.2075 46.8729C44.547 46.8729 44.2235 46.3357 44.5713 45.4886ZM8.84359 44.524C8.64734 43.9644 8.74946 43.2679 9.35068 43.1873C10.363 43.1805 11.1139 44.1655 11.4423 44.8708C11.76 45.8646 11.4393 46.2619 10.9245 46.2629C10.2153 46.2629 9.13792 45.509 8.84359 44.524ZM48.7426 45.7111C48.3978 45.4906 48.4182 44.8864 48.5814 44.4861C48.9273 43.6497 49.4828 42.9619 50.3513 42.7414C51.0818 42.7288 51.247 43.3563 51.044 44.0159C50.8147 44.7921 49.9909 45.784 49.1322 45.784C49.003 45.784 48.8719 45.7616 48.7426 45.7111ZM25.0181 43.4593C25.5747 41.7107 28.6367 42.0206 29.3993 43.1873C29.9657 43.945 29.6343 44.7989 29.003 45.2419C28.591 45.5294 28.0655 45.6644 27.5322 45.6644C26.1925 45.6644 24.8015 44.8203 25.0181 43.4593ZM5.49015 43.3486C5.36682 42.8191 5.46978 42.2508 5.99736 42.1848C6.84737 42.2158 7.5438 43.199 7.7799 43.8673C8.03059 44.8261 7.77111 45.203 7.34765 45.203C6.70931 45.203 5.69909 44.3511 5.49015 43.3486ZM31.7376 44.7707C30.8973 43.3253 32.7187 42.2227 33.829 42.0731C35.0074 41.8846 36.5753 42.5626 36.0207 43.9421C35.7301 44.7844 34.5052 45.544 33.3618 45.544C32.743 45.544 32.1485 45.3216 31.7376 44.7707ZM19.2516 43.8061C18.6717 42.9192 18.9758 41.7204 20.2046 41.6408C21.4936 41.6359 22.5293 42.2557 22.9888 43.0629C23.3297 43.6623 23.3531 44.4162 22.8159 44.8329C22.4759 45.0981 22.097 45.205 21.7162 45.205C20.6953 45.205 19.6529 44.4308 19.2516 43.8061ZM37.914 42.9143C38.3599 42.0138 39.2973 41.3921 40.3027 41.2328C41.3548 41.2191 42.0707 41.8972 41.6385 42.9765C41.3043 43.8129 40.6592 44.4026 39.7704 44.6852C39.5353 44.7649 39.2993 44.8028 39.0769 44.8028C38.1112 44.8028 37.3778 44.0858 37.914 42.9143ZM13.9923 42.345C13.8699 41.9331 13.8359 41.3853 14.0778 41.0589C15.1512 39.9572 16.9901 41.4746 17.333 42.4199C17.777 43.707 17.232 44.2384 16.4568 44.2384C15.5311 44.2384 14.2778 43.4797 13.9923 42.345ZM43.1986 42.0614C43.5338 41.1589 44.3614 40.4265 45.2892 40.2293C46.2547 40.2157 46.6055 40.9335 46.317 41.8506C46.0537 42.688 45.4475 43.3282 44.6587 43.6448C44.4226 43.743 44.2041 43.7877 44.0108 43.7877C43.2326 43.7877 42.8392 43.061 43.1986 42.0614ZM11.1081 42.9396C10.5009 42.5743 10.0599 42.0614 9.80922 41.3435C9.59553 40.6635 9.68688 39.7989 10.4155 39.6726C11.518 39.6629 12.2796 40.7082 12.5934 41.5048C12.9431 42.4742 12.5759 43.1786 11.8803 43.1786C11.6531 43.1786 11.3917 43.1047 11.1081 42.9396ZM47.542 41.1949C47.7877 40.4653 48.2219 39.83 48.829 39.4628C49.7772 38.9246 50.498 39.6416 50.2017 40.7363C49.9861 41.5252 49.547 42.1168 48.9155 42.4937C48.6668 42.6491 48.4347 42.7201 48.2307 42.7201C47.6138 42.7201 47.2632 42.074 47.542 41.1949ZM7.34567 41.8632C6.66274 41.395 5.45815 39.4045 6.82696 38.7818C7.77208 38.7721 8.457 39.8475 8.67069 40.5887C8.93003 41.4513 8.65029 42.1459 8.06745 42.1459C7.86052 42.1459 7.61675 42.0594 7.34567 41.8632ZM51.5267 41.6777C51.146 41.5242 51.0119 40.8655 51.1673 40.342C51.4549 39.3773 51.825 38.845 52.677 38.436C53.4065 38.4224 53.6095 39.0684 53.457 39.7843C53.2948 40.5499 52.9062 41.123 52.3554 41.5048C52.2194 41.599 51.9931 41.7204 51.756 41.7214C51.6792 41.7214 51.6016 41.7078 51.5267 41.6777ZM4.15255 40.885C3.68723 40.5139 3.05194 39.4851 3.29966 38.5846C3.37638 38.2349 3.54445 38.0348 3.8932 38.0017C4.7208 38.1115 5.19783 39.048 5.37843 39.8086C5.57564 40.5926 5.31348 41.2075 4.82776 41.2075C4.6334 41.2075 4.40419 41.1103 4.15255 40.885ZM30.0424 41.4174C29.0165 41.1861 27.6828 40.1642 28.2481 38.7333C28.9641 36.734 32.4865 36.5242 33.2355 38.4603C33.73 40.0398 32.3807 41.4756 30.6486 41.4756C30.4514 41.4756 30.2484 41.4571 30.0424 41.4174ZM23.2238 41.1327C22.1008 40.7839 20.6767 39.4502 21.3675 37.891C22.2922 36.0676 25.3455 37.0595 25.8846 38.4719C26.6792 40.0699 25.4222 41.2629 24.0156 41.2629C23.7533 41.2629 23.4842 41.2211 23.2238 41.1327ZM36.2052 40.7985C35.3037 40.4207 34.9773 39.1986 35.5621 38.2252C36.0615 37.3519 36.9533 36.7408 37.9752 36.6039C39.2964 36.5912 40.2474 37.6229 39.7199 38.98C39.3779 39.8621 38.3404 40.9792 37.0766 40.9792C36.7959 40.9792 36.5034 40.9239 36.2052 40.7985ZM17.197 40.2545C16.2742 39.8523 14.9385 38.3932 15.601 36.9497C15.7962 36.5203 16.2383 36.2308 16.7152 36.1832C18.0568 36.1755 18.9475 37.1867 19.338 38.1387C19.8471 39.4841 19.138 40.4478 18.0646 40.4478C17.7935 40.4478 17.5001 40.3866 17.197 40.2545ZM42.1592 39.9699C40.4786 39.2054 41.7347 36.5019 43.1239 35.985C44.306 35.4973 45.3581 36.497 44.9802 37.8162C44.7393 38.7614 44.1982 39.4366 43.4084 39.8339C43.1967 39.9398 42.8762 40.0398 42.5652 40.0398C42.4244 40.0398 42.2855 40.0185 42.1592 39.9699ZM11.0838 35.9608C11.2654 35.6586 11.3936 35.6081 11.6443 35.5217C11.8717 35.443 12.1194 35.4264 12.3516 35.4935C13.2364 35.7509 13.8038 36.7156 14.0408 37.4947C14.2915 38.3165 14.0477 39.1869 13.4357 39.4249C13.3161 39.4618 13.1967 39.4783 13.0762 39.4783C11.7123 39.4783 10.3202 37.2771 11.0838 35.9608ZM46.279 37.211C46.521 36.224 47.1077 35.3789 48.0363 35.1312C48.9748 35.1185 49.3458 35.9967 49.138 36.9759C48.9621 37.8016 48.5153 38.4486 47.8877 38.8313C47.6361 39.0004 47.3981 39.0762 47.1853 39.0762C46.4607 39.0762 46.0216 38.2077 46.279 37.211ZM7.44571 35.1195C8.43565 34.0538 9.63442 35.7937 9.78396 36.7525C9.94914 37.4869 9.80534 38.3252 9.24005 38.5224C9.15739 38.5428 9.07486 38.5525 8.99422 38.5525C7.74304 38.5525 6.66365 36.2143 7.44571 35.1195ZM50.1657 36.5417C50.3775 35.6062 50.7875 34.7309 51.688 34.525C52.3049 34.5289 52.7217 35.2691 52.5906 35.9977C52.4419 36.8263 52.1913 37.45 51.6512 37.8784C51.4025 38.1028 51.1635 38.1999 50.9506 38.1999C50.3562 38.1999 49.9666 37.4373 50.1657 36.5417ZM4.37593 34.4754C4.44589 34.3851 4.54306 34.3433 4.64504 34.2938C4.72378 34.2559 4.81209 34.2384 4.8996 34.2481C5.73692 34.3511 6.13719 35.3847 6.29455 36.1337C6.43258 36.7962 6.26642 37.5733 5.77489 37.7298C5.71559 37.7433 5.65631 37.7501 5.59714 37.7501C4.46822 37.7501 3.61533 35.3497 4.37593 34.4754ZM53.9641 37.4325C53.4492 37.3043 53.2879 36.5252 53.4191 35.8743C53.6008 35.0437 53.9 34.2092 54.7073 34.0295C55.3397 34.0421 55.6039 34.8465 55.4737 35.5644C55.362 36.1871 54.8762 37.4539 54.1321 37.4539C54.0778 37.4539 54.0225 37.4481 53.9641 37.4325ZM24.2759 32.5326C25.058 30.0272 28.5804 30.2438 29.511 32.2479C30.4922 34.1131 29.1089 35.7771 27.4933 36.0967C27.371 36.1133 27.2485 36.121 27.1252 36.121C25.4222 36.121 23.7144 34.5677 24.2759 32.5326ZM34.0525 35.9481C32.8401 35.714 31.7677 34.6872 32.0474 33.1513C32.3301 30.5566 36.0993 29.5881 37.1087 32.0876C37.8654 34.1762 36.1537 35.9637 34.3478 35.9637C34.2487 35.9637 34.1506 35.9588 34.0525 35.9481ZM17.6546 31.9885C18.4764 29.5046 21.485 30.5284 22.0115 32.4713C22.5478 33.8576 21.8201 35.1943 20.7856 35.5518C20.5931 35.6013 20.3999 35.6246 20.2096 35.6246H20.2085C18.5717 35.6246 17.1378 33.8916 17.6546 31.9885ZM40.6369 35.3419C39.2682 35.0845 38.6959 33.5564 39.3118 32.0993C40.3416 29.4492 43.6795 30.0787 43.1365 33.1387C42.8897 34.2384 41.9504 35.3488 40.7904 35.3488C40.7399 35.3488 40.6884 35.3468 40.6369 35.3419ZM12.5196 31.7282C13.2054 29.2034 15.6233 30.373 15.9468 32.347C16.2441 33.5244 15.7603 34.6823 14.8822 34.9087C14.7898 34.9252 14.6965 34.9329 14.6062 34.9329C13.2792 34.9329 12.1786 33.2543 12.5196 31.7282ZM44.683 31.8885C45.4591 29.1325 48.3318 30.0816 47.6527 32.8541C47.2845 34.0762 46.5414 34.6406 45.874 34.6406C44.991 34.6406 44.2409 33.6487 44.683 31.8885ZM9.42456 34.0179C8.88833 33.6254 8.29572 32.5743 8.49779 31.5058C8.62989 30.8102 8.91265 30.2419 9.56154 30.0952C10.6651 30.0835 11.0712 31.1482 11.2567 32.0624C11.5171 33.1553 10.941 34.3103 10.1357 34.3103C9.91216 34.3103 9.67134 34.2209 9.42456 34.0179ZM49.7821 30.169C50.2231 29.9145 50.7506 30.036 50.9944 30.4284C51.8416 31.5796 51.2548 34.0558 49.7539 34.0558H49.7325C48.3239 33.7168 48.6698 30.8247 49.7821 30.169ZM5.62617 33.1145C5.12302 32.3082 4.88598 30.5071 5.90983 30.0194C6.03612 29.9592 6.17795 29.9378 6.31598 29.9621C7.14453 30.103 7.38256 31.1608 7.51857 31.9759C7.65364 32.9843 7.12035 33.7721 6.51415 33.7721C6.212 33.7721 5.89144 33.5759 5.62617 33.1145ZM52.2816 31.7651C52.4195 30.9365 52.5963 30.3478 53.184 30.0068C53.3444 29.9135 53.5387 29.8844 53.7115 29.9514C54.3236 30.1885 54.5946 31.1521 54.4227 31.9507C54.2672 32.6443 53.9038 33.5642 53.1229 33.572C52.5273 33.4875 52.1475 32.5743 52.2816 31.7651ZM2.77994 32.7802C2.21643 31.972 2.2175 30.5518 2.94703 29.9553C3.05779 29.8659 3.20055 29.8271 3.33941 29.8504C4.05827 29.9728 4.24779 30.7878 4.36341 31.4805C4.54402 32.414 4.10299 33.3456 3.53177 33.3456C3.29093 33.3456 3.02861 33.1795 2.77994 32.7802ZM55.2143 31.4192C55.3406 30.6528 55.5174 30.1185 56.0906 29.8125C56.147 29.7814 56.2131 29.7707 56.2771 29.7805C56.9931 29.8825 57.234 31.0531 57.0339 31.8642C56.8182 32.7453 56.383 33.162 55.9895 33.162C55.5135 33.162 55.0998 32.551 55.2143 31.4192ZM1.07211 27.1993C1.18287 26.5048 1.35482 26.0763 1.82892 25.7781C1.92794 25.7159 2.04932 25.6965 2.16305 25.7247C3.28888 26.0113 3.07238 28.8984 2.03678 29.0927C2.00571 29.0985 1.97464 29.1014 1.94345 29.1014C1.31792 29.1014 0.961356 27.8862 1.07211 27.1993ZM54.0885 28.3505C53.7242 27.3752 53.7766 26.1647 54.5295 25.6693C54.6489 25.5906 54.7928 25.5566 54.9316 25.5916C56.1362 25.8937 56.1818 28.8323 55.0288 29.1169C54.9821 29.1286 54.9374 29.1344 54.8938 29.1344C54.4683 29.1344 54.1905 28.6245 54.0885 28.3505ZM4.69754 29.1412C3.83105 29.0431 3.49784 27.8046 3.7203 26.7904C3.85727 26.1667 4.10201 25.7791 4.5984 25.5285C4.71402 25.4692 4.84815 25.4478 4.97444 25.477C6.04881 25.7218 5.89243 27.9376 5.4028 28.6721C5.27947 28.8585 5.07535 29.1452 4.75873 29.1452C4.73928 29.1452 4.71889 29.1441 4.69754 29.1412ZM51.4025 25.3924C53.3016 24.7591 53.626 28.9509 52.0096 29.1791C51.9872 29.1811 51.9668 29.182 51.9445 29.182C50.6165 29.182 50.2688 26.0977 51.4025 25.3924ZM7.76733 29.1918C6.27803 28.8799 6.29357 25.4935 7.96442 25.1574C8.97084 25.1457 9.36728 26.5145 9.16521 27.5947C9.0107 28.2718 8.6726 29.1995 7.89066 29.1995C7.85081 29.1995 7.80907 29.1966 7.76733 29.1918ZM46.9483 26.4931C47.1349 25.5984 47.2991 25.308 48.049 24.9592C50.1094 24.9368 50.3018 28.876 48.5571 29.2413C48.5183 29.2452 48.4803 29.2471 48.4434 29.2471C47.3525 29.2471 46.7404 27.6802 46.9483 26.4931ZM11.5918 29.2782C9.74612 28.9276 9.81598 24.9708 11.962 24.7737C13.1801 24.8465 13.6649 26.5815 13.2364 27.8551C12.9538 28.5292 12.5953 29.287 11.7521 29.287C11.6997 29.287 11.6462 29.284 11.5918 29.2782ZM42.2077 26.0725C42.7926 23.606 45.3474 24.4172 45.6728 26.4815C45.9828 27.7861 45.2212 29.1403 44.2254 29.3161C44.138 29.3307 44.0525 29.3384 43.969 29.3384C42.6449 29.3384 41.9047 27.4499 42.2077 26.0725ZM14.9948 25.715C16.1713 23.1883 19.2303 24.4365 18.7067 27.2246C18.3725 28.7342 17.5177 29.3686 16.6842 29.3686C15.3989 29.3686 14.1681 27.856 14.9948 25.715ZM35.872 26.6174C35.7982 25.5615 36.4335 24.5289 37.4059 24.1675C37.7653 24.0791 38.1801 24.0635 38.5571 24.1179C41.2684 24.8222 41.1664 29.0023 38.594 29.4269C38.5182 29.4337 38.4424 29.4375 38.3687 29.4375C36.8872 29.4375 35.8847 28.0736 35.872 26.6174ZM20.6749 25.85C21.5938 23.096 25.4106 23.3204 25.7613 26.2094C25.9682 27.788 24.987 29.1869 23.3482 29.4647C23.2734 29.4696 23.1986 29.4725 23.1258 29.4725C21.3636 29.4725 20.0997 27.8463 20.6749 25.85ZM29.8695 29.2908C26.5035 27.8618 28.0898 22.8094 31.8745 23.9198C34.4838 24.8941 34.5353 28.9742 31.2557 29.5007C31.1508 29.5191 31.0439 29.5279 30.9399 29.5279C30.5242 29.5279 30.1318 29.3996 29.8695 29.2908ZM55.4873 24.5016C55.1153 23.9654 54.7209 22.2906 55.4125 21.7797C56.284 21.3231 56.8231 22.5957 56.9348 23.3262C57.1087 24.1675 56.6958 25.0253 56.1732 25.0253C55.9517 25.0253 55.7107 24.8728 55.4873 24.5016ZM3.29966 24.898C2.65065 24.8494 2.42535 23.8819 2.55651 23.128C2.69051 22.3955 2.97133 21.7602 3.57943 21.4872C3.67074 21.4464 3.77178 21.4271 3.86985 21.4435C4.43716 21.5407 4.67512 22.244 4.56152 22.9425C4.44981 23.6361 4.10106 24.8999 3.35007 24.8999C3.33359 24.8999 3.31614 24.899 3.29966 24.898ZM52.4924 21.2221C52.5925 21.1473 52.7051 21.1512 52.8383 21.0987C53.7291 21.1696 54.1186 22.0925 54.2614 22.9172C54.3993 23.7041 54.1409 24.5726 53.5435 24.7115C53.5095 24.7173 53.4755 24.7192 53.4424 24.7192C52.303 24.7192 51.552 21.8642 52.4924 21.2221ZM5.4028 22.6462C5.61269 21.7699 5.97695 21.0112 6.81427 20.814C7.50502 20.8053 7.88093 21.631 7.74206 22.4354C7.60605 23.2213 7.37968 23.9003 6.86384 24.3035C6.66083 24.4851 6.4627 24.5638 6.28198 24.5638C5.61945 24.5638 5.17061 23.5166 5.4028 22.6462ZM48.6309 21.26C48.7271 20.7839 48.9554 20.5294 49.411 20.4177C50.429 20.4109 50.9779 21.5086 51.1557 22.3732C51.3354 23.2495 51.0197 24.1578 50.3629 24.3288C50.3105 24.3375 50.2581 24.3423 50.2065 24.3423C49.102 24.3423 48.3025 22.3402 48.6309 21.26ZM9.63542 24.1422C8.09075 23.7167 8.6503 20.9287 9.89567 20.2691C10.9944 19.6668 11.8056 20.7023 11.5413 21.9283C11.3888 22.7686 11.046 23.4943 10.4523 23.8954C10.2979 24.0004 10.054 24.1587 9.78396 24.1587C9.73546 24.1587 9.68594 24.1548 9.63542 24.1422ZM44.3246 20.4925C44.4741 20.0204 44.8268 19.6474 45.3261 19.6134C46.451 19.6075 47.1601 20.6557 47.405 21.5446C47.6741 22.5151 47.3554 23.6448 46.5763 23.8459C46.4957 23.8615 46.4131 23.8692 46.3325 23.8692C45.0453 23.8692 43.8933 21.9031 44.3246 20.4925ZM12.8654 21.1356C13.526 18.7381 16.8241 18.4262 16.2693 21.3833C15.8759 22.8929 14.884 23.6526 14.0554 23.6526C13.1859 23.6526 12.4972 22.8182 12.8654 21.1356ZM38.8797 21.1482C38.5406 20.1107 39.0049 18.7993 40.2154 18.7226C41.5657 18.7148 42.402 19.6532 42.7527 20.6528C43.1209 21.7029 42.7654 22.892 41.9358 23.2271C41.7172 23.3155 41.5034 23.3543 41.2985 23.3543C40.0988 23.3543 39.1439 22.0186 38.8797 21.1482ZM19.0904 23.0163C17.9004 22.6588 17.4855 21.0812 18.1869 19.8854C18.6406 19.0781 19.4974 18.4088 20.464 18.3641C21.7958 18.3534 22.777 19.3821 22.3457 20.8267C22.0581 21.7826 21.0012 23.1047 19.6801 23.1047C19.4877 23.1047 19.2915 23.0766 19.0904 23.0163ZM32.0727 19.1811C33.1189 17.1022 36.2567 18.0066 36.8493 19.8115C37.4487 21.2153 36.553 22.4539 35.4514 22.7443C35.2639 22.7861 35.0715 22.8065 34.8782 22.8065C33.1432 22.8065 31.3266 21.1851 32.0727 19.1811ZM26.6278 22.6705C25.3017 22.5277 24.0165 21.4756 24.4489 19.7746C25.1288 17.3742 28.867 17.1314 29.6714 19.4162C30.2067 21.1444 28.6115 22.6889 26.9455 22.6899C26.8396 22.6899 26.7336 22.6831 26.6278 22.6705ZM53.8408 20.3808C53.3764 19.9174 52.8897 18.9916 53.0976 18.0426C53.1549 17.6996 53.3201 17.515 53.6426 17.448C54.5091 17.4782 55.0123 18.5186 55.1774 19.2802C55.3571 20.0816 55.0006 20.7665 54.5013 20.7665C54.2954 20.7665 54.0661 20.6509 53.8408 20.3808ZM4.45076 18.8595C4.67133 18.0085 5.15802 17.2081 6.00993 17.0769C6.56467 17.1469 6.81521 17.7181 6.67825 18.4136C6.52966 19.1645 6.21494 19.831 5.70005 20.2205C5.48055 20.408 5.27944 20.4886 5.10453 20.4886C4.53723 20.4886 4.23897 19.6474 4.45076 18.8595ZM50.7593 19.762C50.1861 19.353 48.9359 17.0468 50.3513 16.5815C51.3675 16.5699 51.9853 17.6219 52.1951 18.4379C52.4235 19.3151 52.064 20.0932 51.4714 20.0932C51.2597 20.0932 51.0157 19.9942 50.7593 19.762ZM7.61861 18.0668C7.82744 17.3101 8.27345 16.6048 8.93004 16.2978C9.91702 15.8383 10.4864 16.6787 10.2173 17.6958C10.0287 18.4768 9.60811 19.1422 9.0165 19.5269C8.78443 19.695 8.56777 19.7688 8.37638 19.7688C7.73424 19.7688 7.37089 18.944 7.61861 18.0668ZM46.9844 18.945C46.28 18.5146 44.8151 16.0511 46.5394 15.5916C47.6838 15.5828 48.4191 16.6311 48.6921 17.5102C48.9923 18.5458 48.5396 19.3054 47.8499 19.3054C47.5866 19.3054 47.2884 19.1937 46.9844 18.945ZM11.4054 17.0769C12.061 14.8076 15.1308 14.353 14.5237 16.805C14.2681 17.6559 13.7562 18.266 13.0635 18.6856C12.7984 18.8518 12.5428 18.9256 12.3146 18.9256C11.5588 18.9256 11.0838 18.1106 11.4054 17.0769ZM42.5167 18.129C41.5122 17.687 39.7179 15.0719 41.8978 14.5522C43.2521 14.5434 44.0428 15.4167 44.4353 16.3716C44.852 17.5695 44.3109 18.3971 43.4377 18.3971C43.1578 18.3971 42.8449 18.3126 42.5167 18.129ZM16.0955 15.815C16.4753 14.9 17.3933 14.2705 18.3598 14.1072C19.5285 14.0946 20.2522 14.8338 19.8082 16.0122C19.4789 16.8875 18.7941 17.5005 17.9276 17.8443C17.6653 17.9473 17.4167 17.9949 17.1884 17.9949H17.1873C16.176 17.9949 15.5825 17.0507 16.0955 15.815ZM35.2163 15.9131C34.7276 15.0631 34.9559 13.9858 36.0207 13.6857C37.368 13.3709 38.798 14.2432 39.2011 15.2205C39.5538 16.0142 39.4305 16.8661 38.7805 17.2625C38.4774 17.447 38.1539 17.5248 37.8304 17.5248C36.7113 17.5248 35.5806 16.5883 35.2163 15.9131ZM22.469 17.0031C21.6783 16.6631 21.3286 15.7529 21.7638 14.8125C22.8207 12.5995 27.1427 12.924 26.1323 15.6169C25.7953 16.3862 24.6149 17.1925 23.4182 17.1925C23.0986 17.1925 22.776 17.1343 22.469 17.0031ZM50.6982 14.5152C50.5767 13.9848 50.6477 13.3961 51.1926 13.3155C52.132 13.3097 52.7644 14.319 52.9994 15.0476C53.1588 15.5401 53.1044 16.2639 52.677 16.4212C52.607 16.4377 52.538 16.4455 52.4691 16.4455C51.6249 16.4455 50.8827 15.2827 50.6982 14.5152ZM28.3716 14.2432C29.1671 12.652 32.1194 12.9308 32.8275 14.218C33.4415 15.136 33.049 16.1278 32.2826 16.5815C31.8852 16.8176 31.3908 16.9273 30.8856 16.9273C29.3061 16.9273 27.6148 15.8617 28.3716 14.2432ZM6.74051 14.6386C6.98918 13.9062 7.45736 13.2436 8.15001 12.9561C8.92911 12.618 9.46831 13.2747 9.20209 14.0946C8.97868 14.8417 8.55508 15.442 7.96442 15.8267C7.74492 15.9918 7.53702 16.0637 7.35345 16.0637C6.80749 16.0637 6.48591 15.4187 6.74051 14.6386ZM47.0212 13.5875C46.8444 12.992 46.9591 12.3334 47.5915 12.2634C48.6367 12.2576 49.3537 13.2038 49.6578 13.9586C49.8569 14.4511 49.8278 15.2079 49.411 15.4313C49.2925 15.475 49.171 15.4954 49.0506 15.4954C48.1539 15.4954 47.2466 14.3744 47.0212 13.5875ZM10.3037 13.5506C10.637 12.652 11.3568 11.9759 12.2835 11.7933C13.0859 11.7797 13.4463 12.3276 13.1752 13.1047C12.8994 13.8974 12.3564 14.5055 11.6531 14.8737C11.4103 15.0019 11.1867 15.0602 10.9895 15.0602C10.3436 15.0602 10.0016 14.4269 10.3037 13.5506ZM44.2128 14.2685C43.526 13.9207 43.014 13.3961 42.6906 12.6841C42.4234 12.007 42.5099 11.3202 43.3211 11.1861C44.5654 11.1783 45.3231 11.9536 45.7224 12.7948C46.1381 13.7886 45.736 14.4648 44.9831 14.4648C44.7539 14.4648 44.4926 14.4016 44.2128 14.2685ZM14.5615 12.3499C14.8986 11.6573 15.4348 11.155 16.1702 10.8645C16.3889 10.7781 16.6647 10.8063 16.8999 10.716C17.7284 10.7043 18.1967 11.3289 17.9024 12.1517C17.6109 12.9678 16.8619 13.571 16.0459 13.8721C15.8156 13.9596 15.5971 14.0013 15.399 14.0013C14.5965 14.0013 14.1341 13.3252 14.5615 12.3499ZM37.6167 12.04C37.1796 11.394 37.2125 10.4517 38.1733 10.2331C39.4546 10.0428 40.5894 10.7587 41.0313 11.6203C41.2781 12.0711 41.3509 12.8278 40.9333 13.1542C40.6631 13.3651 40.3591 13.4515 40.0472 13.4515C39.0544 13.4515 37.9742 12.5762 37.6167 12.04ZM19.8082 12.7579C19.4187 12.4743 19.3021 11.8593 19.5363 11.3231C19.9414 10.4177 21.0371 9.87372 22.0232 9.83779C23.0519 9.85042 23.9116 10.5255 23.3968 11.5698C23.0868 12.1993 21.8677 13.0542 20.7787 13.0542C20.4309 13.0542 20.0958 12.9678 19.8082 12.7579ZM31.8376 11.7554C30.837 10.7635 31.6822 9.58325 33.0005 9.52882C34.2283 9.52301 35.1026 9.93586 35.5621 10.6917C36.1693 12.0614 35.196 12.6064 34.0691 12.6064C33.1968 12.6064 32.23 12.279 31.8376 11.7554ZM49.3488 12.1148C48.7806 11.7942 48.3065 11.259 48.049 10.6295C47.8528 10.1496 47.9102 9.4997 48.4706 9.44237C49.4499 9.43365 50.1736 10.273 50.4747 10.9511C50.7933 11.7253 50.565 12.3159 49.9997 12.3159C49.816 12.3159 49.5965 12.2538 49.3488 12.1148ZM25.9837 12.2013C24.8005 11.5281 25.1192 10.3575 26.1198 9.75128C27.2437 9.01594 29.9288 9.41711 29.6587 11.0628C29.4732 11.8856 28.2986 12.4898 27.1835 12.4907C26.755 12.4907 26.3353 12.4014 25.9837 12.2013ZM9.38864 10.543C9.66352 9.93099 10.1463 9.3899 10.7622 9.12083C11.5986 8.75559 12.4244 9.1296 12.0125 10.135C11.7327 10.8277 11.1897 11.3542 10.5388 11.6815C10.3193 11.8001 10.1153 11.8545 9.93944 11.8545C9.37498 11.8545 9.07973 11.3056 9.38864 10.543ZM45.5368 11.0628C44.8772 10.7752 44.3702 10.2496 44.0516 9.61532C43.8087 9.05187 43.8455 8.48456 44.5713 8.36503C45.5747 8.35827 46.4966 9.10529 46.7997 9.78822C47.2029 10.6693 46.9086 11.2288 46.2461 11.2288C46.041 11.2288 45.8021 11.1754 45.5368 11.0628ZM13.3356 9.34234C13.6911 8.73128 14.1652 8.30189 14.8579 8.03086C15.6845 7.72972 16.7492 8.03086 16.3179 9.09462C16.0167 9.82901 15.3387 10.3409 14.5858 10.6295C14.3594 10.714 14.1487 10.7548 13.9612 10.7548C13.2637 10.7548 12.8965 10.2021 13.3356 9.34234ZM39.4847 8.87311C39.2944 8.58169 39.1429 8.07071 39.3867 7.72195C39.5702 7.45775 39.818 7.5034 40.1541 7.37515C41.315 7.36834 42.0873 7.95319 42.5293 8.67495C42.7527 9.03729 42.8868 9.67847 42.4924 9.97374C42.2845 10.1292 42.0445 10.1953 41.794 10.1953C40.8701 10.1953 39.7801 9.32195 39.4847 8.87311ZM17.8897 9.47931C17.5643 9.21605 17.6614 8.68758 17.8159 8.34078C18.187 7.53542 19.2138 7.02545 20.1056 7.00404C20.9294 7.00505 21.6851 7.50826 21.2188 8.3524C20.9167 8.90127 19.7743 9.77363 18.7669 9.77363C18.4512 9.77363 18.149 9.68813 17.8897 9.47931ZM34.0778 7.21489C34.2896 6.83506 34.8092 6.65238 35.2522 6.62037C36.3354 6.61355 37.0951 6.99141 37.5671 7.59856C38.1374 8.26886 37.9004 9.1519 36.8988 9.24327C36.7725 9.27143 36.6376 9.28501 36.4967 9.28501C35.2746 9.28501 33.6348 8.29513 34.0778 7.21489ZM22.8275 8.20382C22.574 7.39359 23.593 6.77678 24.1273 6.58343C24.3653 6.49698 24.6596 6.51156 24.919 6.41053C25.7457 6.40081 26.9814 6.71654 26.8007 7.59856C26.6744 8.37671 25.4106 9.03824 24.3206 9.03824C23.6659 9.03824 23.0733 8.79929 22.8275 8.20382ZM28.3841 7.70932C28.1947 6.99337 29.0253 6.51737 29.4858 6.37264C30.4591 6.09871 31.7862 6.38427 32.233 7.06624C32.8654 8.26696 31.7658 8.8236 30.5796 8.8236C29.5877 8.8236 28.5366 8.435 28.3841 7.70932ZM46.688 8.36503C46.0595 8.11832 45.4912 7.59471 45.2027 7.00404C44.9744 6.48044 45.0696 6.00059 45.6855 5.9394C46.6637 5.93258 47.4127 6.60287 47.7527 7.25082C48.1315 8.01337 47.8849 8.5001 47.2981 8.5001C47.1223 8.5001 46.9163 8.45735 46.688 8.36503ZM12.235 6.8302C12.5215 6.28519 13.0364 5.86167 13.6329 5.63043C14.3508 5.36818 15.3931 5.53526 14.9822 6.50866C14.7044 7.1799 14.0166 7.66948 13.3113 7.92017C13.1073 7.99108 12.9189 8.02505 12.7518 8.02505C12.1514 8.02505 11.8454 7.58208 12.235 6.8302ZM42.5672 7.32558C41.9105 7.09636 41.3558 6.69128 41.0197 6.1385C40.8633 5.87815 40.7623 5.44882 41.007 5.19718C41.1713 5.02915 41.3889 5.05927 41.6385 4.96209C42.6565 4.95823 43.4444 5.53135 43.8291 6.17443C44.3225 7.006 43.8894 7.44411 43.2171 7.44411C43.015 7.44411 42.7925 7.40527 42.5672 7.32558ZM16.3674 5.77907C16.7794 5.09324 17.5934 4.67067 18.4104 4.59199C19.1749 4.57841 19.8374 5.00389 19.3876 5.75482C19.0214 6.36488 18.3443 6.75537 17.5808 6.96717C17.4156 7.00701 17.2553 7.02741 17.1047 7.02741C16.3878 7.02741 15.905 6.57661 16.3674 5.77907ZM36.416 5.58092C36.2207 5.33515 35.9925 4.91258 36.2557 4.5541C36.4471 4.29375 36.7511 4.3132 37.0844 4.18204C38.1656 4.17522 38.8922 4.54343 39.3614 5.14767C39.5401 5.37885 39.7743 5.83445 39.5227 6.17443C39.3148 6.45423 38.9942 6.56303 38.6358 6.56303C37.7838 6.56303 36.7123 5.95102 36.416 5.58092ZM20.972 4.93784C21.3539 4.29375 22.1805 4.0101 22.9266 3.92264C23.6446 3.91392 24.6383 4.17232 24.3876 4.9864C24.1972 5.70134 22.9286 6.22204 21.962 6.22204C21.1537 6.22204 20.5553 5.85876 20.972 4.93784ZM31.0458 4.57841C31.1528 3.97126 31.7987 3.77696 32.3321 3.69923C33.3278 3.69146 34.1497 3.91778 34.548 4.50358C35.1221 5.49637 34.3177 5.9209 33.3366 5.9209C32.2612 5.9209 30.973 5.41283 31.0458 4.57841ZM26.0955 5.37014C25.2464 4.69788 26.4461 3.8838 27.0106 3.71281C27.8897 3.44178 29.8452 3.73225 29.5722 4.85133C29.376 5.50028 28.5095 5.80338 27.6518 5.80338C27.0504 5.80338 26.453 5.65379 26.0955 5.37014ZM38.2355 3.3165C37.606 2.64715 38.0238 2.0604 38.9281 2.06627C39.8219 2.17507 40.4601 2.42664 40.8837 2.99496C41.0411 3.20574 41.2733 3.58651 41.045 3.89839C40.8701 4.13639 40.6019 4.22865 40.2979 4.22865C39.5158 4.22865 38.4968 3.61373 38.2355 3.3165ZM19.2643 3.58847C18.6182 2.87542 20.0006 2.0604 20.5018 1.90594C21.1333 1.72913 22.5769 1.70293 22.4078 2.59859C22.2222 3.3194 21.0886 3.86631 20.1736 3.86631C19.8121 3.86631 19.4858 3.78081 19.2643 3.58847ZM33.632 2.87056C33.4804 2.72097 33.1947 2.43732 33.3219 2.10315C33.4948 1.65146 33.8913 1.68935 34.3497 1.50957C35.3018 1.50086 35.9575 1.735 36.416 2.21485C36.6064 2.41401 36.8328 2.78803 36.6015 3.11828C36.3947 3.41557 36.0119 3.52823 35.5864 3.52823C34.8326 3.52823 33.9398 3.17562 33.632 2.87056ZM23.8057 2.88319C23.2657 2.15271 24.5178 1.56691 25.0181 1.42313C25.7661 1.23665 27.44 1.429 27.1107 2.42469C26.9144 2.93762 25.8973 3.33494 25.0151 3.33494C24.5062 3.33494 24.0418 3.20283 23.8057 2.88319ZM28.5328 2.43732C28.2569 1.55624 29.4431 1.31433 30.0424 1.25023C30.8293 1.24152 31.317 1.46202 31.7376 1.80686C32.4332 2.74137 31.4161 3.18439 30.3445 3.18439C29.5286 3.18439 28.6824 2.92891 28.5328 2.43732ZM26.281 0.185525C25.8964 0.129197 25.4174 0.300136 25.0181 0.308911C24.3537 1.19877 22.9499 1.46783 21.962 0.92869C20.432 1.37457 18.9505 1.84961 17.5196 2.51214C17.5177 2.52572 17.8461 2.67436 17.9276 2.87056C18.0461 3.15813 17.8586 3.44374 17.7411 3.61278C17.3515 4.38215 14.7218 5.51 14.9443 3.84882C14.3304 4.15097 11.6617 6.01031 10.9468 6.62037C11.2995 7.16437 11.0721 7.53933 10.7739 7.94442C10.4446 8.42237 9.27594 9.57838 8.5221 8.91004C8.2841 9.09658 7.57395 9.84846 7.45739 10.1098C8.38317 9.85332 8.57941 10.5702 8.26173 11.3105C7.99456 11.9332 7.5157 12.5073 6.91342 12.7948C6.29844 13.0892 5.89632 12.7579 5.92252 12.1071C5.91671 12.1041 5.91766 12.1051 5.90983 12.1022C5.43585 12.7502 4.92676 13.4486 4.56152 14.1821C5.83405 13.2854 6.08959 14.4356 5.68736 15.5052C5.36398 16.5786 3.5697 17.8745 3.63385 15.9131C3.35494 16.5543 2.87705 17.2877 2.7051 17.9687C4.32448 17.447 3.56674 20.4235 2.81682 20.8627C2.50885 21.1026 1.96396 21.1871 1.81431 20.7276C1.80162 20.7189 1.79 20.7111 1.77743 20.7033C1.7045 20.7869 1.44217 21.837 1.43055 22.0148C2.24558 22.7851 1.7842 24.7863 0.873947 25.1817C0.737931 25.5168 0.813703 26.1551 0.750617 26.5679C0.599066 27.5442 0.682542 28.6449 0.688353 29.6862C1.81727 29.8854 2.08731 32.6355 1.05954 32.9541C0.996336 33.096 1.09056 33.3476 1.12163 33.4981L1.38098 34.8465C1.39651 34.8456 1.39167 34.8456 1.4072 34.8445C1.65492 32.9551 2.87513 33.9304 3.22578 35.0942C3.5998 36.4465 3.03926 38.0154 1.80551 36.4115C1.79673 36.4154 1.79878 36.4144 1.79 36.4183C3.05197 40.7742 5.39118 44.8154 8.47259 48.0377C6.76865 45.6101 9.47414 45.6577 10.4155 47.6414C10.5417 47.8891 10.703 48.3097 10.5388 48.6312C10.1696 49.3569 9.06605 48.5574 8.76876 48.3476C8.76496 48.3515 8.76106 48.3554 8.75714 48.3593C9.38279 48.9372 9.95014 49.6066 10.6379 50.1049C11.4122 48.9858 14.0612 51.2085 13.2491 52.0837C13.3784 52.3013 13.933 52.5578 14.1652 52.7035C14.8636 53.1416 16.9532 54.3287 17.2718 54.3734C17.9314 53.1387 20.7903 54.5793 20.3407 55.5742C20.4776 55.7101 21.9969 56.1171 22.2961 56.156C22.298 56.1502 22.2971 56.1512 22.2991 56.1463C20.6418 54.9777 22.1427 54.3297 23.558 54.6707C24.7606 55.0078 25.7409 56.2095 23.8174 56.4776C27.7566 57.3004 32.0106 57.1109 35.909 56.192C35.91 56.1774 35.9099 56.1783 35.9109 56.1638C35.4038 55.9307 35.3484 55.5567 35.6613 55.1535C36.0013 54.7027 36.6112 54.4793 37.2709 54.3482C38.1772 54.1908 39.0458 54.5629 38.5318 55.4138L39.8073 54.9427C40.2056 54.1092 41.0128 53.6934 41.9358 53.5574C42.2223 53.5127 42.6779 53.5943 42.6779 53.5943C42.6779 53.5943 43.5658 53.0727 44.544 52.4519C44.3526 52.5627 44.1487 52.6521 43.9408 52.7152C43.5823 52.8269 43.0859 52.8114 42.8391 52.6171C42.1893 51.8351 43.6134 50.7461 44.3246 50.5129C45.1435 50.2118 46.0284 50.5741 45.5126 51.5028C45.3455 51.8108 45.0861 52.0847 44.7762 52.3033C45.4281 51.8856 46.0915 51.4378 46.5394 51.0822C46.7978 50.7606 46.9494 50.2827 47.3068 50.0301C47.6643 49.6959 48.1112 49.4531 48.5931 49.3375C48.731 49.2578 49.5004 48.4952 49.5586 48.3593C48.6795 47.4218 50.7972 45.1224 51.688 45.8724C51.8454 45.8315 52.4506 44.9524 52.541 44.7717C52.5099 44.7494 52.4856 44.7542 52.4573 44.7572C52.4399 44.7601 52.4186 44.763 52.3933 44.7581C52.2291 44.7358 52.064 44.6231 51.9969 44.4988C51.5443 43.6517 52.5827 42.3383 53.049 42.0235C53.2084 41.9167 53.4347 41.7321 53.7426 41.7894C53.9962 41.837 54.0049 42.0215 54.1622 42.1478C54.3653 41.9244 54.7481 41.158 54.8306 40.8238C53.3424 40.6936 54.8966 36.9293 56.0313 37.8667L56.45 36.7389C56.45 36.7389 56.4267 36.6446 56.3791 36.5378C56.2655 36.2823 56.1839 36.0122 56.1781 35.7324C56.1635 34.9087 56.5199 33.9926 57.2068 33.6215C57.4506 32.1032 57.6964 30.6955 57.6643 29.0548C56.9329 29.1772 56.722 28.3942 56.6006 27.7433C56.4296 26.8972 56.7473 25.7771 57.5284 25.8131C57.5954 25.5479 56.9941 22.1848 56.7123 21.1599C56.4511 20.8772 56.2324 20.5644 56.0935 20.1953C55.9186 19.7484 55.875 19.1762 55.9197 18.673L55.363 17.2994C54.3449 17.0332 53.6533 15.7276 53.8534 14.6629C53.8738 14.6027 53.9398 14.4414 53.9398 14.4414L53.3326 13.4136C53.3326 13.4136 52.9004 13.2767 52.7517 13.1912C52.0824 12.7812 51.6171 12.145 51.4403 11.359C51.3986 11.156 51.4277 10.7295 51.4277 10.7295C51.4277 10.7295 50.7351 9.91161 50.3882 9.50356C50.0153 9.30446 49.6247 9.04215 49.3614 8.71183C49.0399 8.16688 48.1355 7.27608 48.1355 7.27608C48.1355 7.27608 46.1722 5.57214 45.0668 4.89995C44.0497 5.54303 42.1194 4.30928 42.2573 3.22904C42.0902 3.02603 41.4306 2.79384 41.1558 2.67342C40.3804 2.33047 39.5965 1.98172 38.7552 1.68253C38.4783 1.5844 38.2025 1.48532 37.9266 1.38625C37.4652 1.4523 36.9222 1.42799 36.5403 1.31243C36.1003 1.18614 35.8254 0.931596 35.4873 0.729528C35.3212 0.630452 34.272 0.432297 34.0155 0.433246C33.4871 1.31919 30.9594 1.09186 30.8108 0.0864471C30.666 0.00290472 30.3232 0.00581077 30.0132 0.00972404C29.8433 0.0106727 29.6839 0.0126292 29.5722 0C29.3896 1.13752 26.4714 1.23369 26.281 0.185525Z" fill="white"/>
</mask>
<g mask="url(#mask1_1_161)">
<path d="M57.6963 0H0.598999V57.3004H57.6963V0Z" fill="url(#paint1_linear_1_161)"/>
</g>
<defs>
<linearGradient id="paint0_linear_1_161" x1="0.660422" y1="28.6502" x2="57.6676" y2="28.6502" gradientUnits="userSpaceOnUse">
<stop stop-color="#F395AD"/>
<stop offset="0.101025" stop-color="#EC94AC"/>
<stop offset="0.23684" stop-color="#DB92A9"/>
<stop offset="0.392434" stop-color="#BF8EA4"/>
<stop offset="0.562766" stop-color="#988A9E"/>
<stop offset="0.745169" stop-color="#668495"/>
<stop offset="0.934781" stop-color="#297C8B"/>
<stop offset="1" stop-color="#137A88"/>
</linearGradient>
<linearGradient id="paint1_linear_1_161" x1="-2.57645" y1="28.6502" x2="58.9465" y2="28.6502" gradientUnits="userSpaceOnUse">
<stop stop-color="#F395AD"/>
<stop offset="0.101025" stop-color="#EC94AC"/>
<stop offset="0.23684" stop-color="#DB92A9"/>
<stop offset="0.392434" stop-color="#BF8EA4"/>
<stop offset="0.562766" stop-color="#988A9E"/>
<stop offset="0.745169" stop-color="#668495"/>
<stop offset="0.934781" stop-color="#297C8B"/>
<stop offset="1" stop-color="#137A88"/>
</linearGradient>
</defs>
</svg>
