<svg viewBox="0 0 263 57" fill="none" xmlns="http://www.w3.org/2000/svg">
<path d="M0 56.8334H85.2508V0.00357056H0V56.8334ZM21.0471 27.5738L23.2989 27.5787L23.989 25.4234L24.6782 27.5738H26.9291L25.1032 28.8869L25.7866 31.009L23.989 29.697L22.1896 31.009L22.8739 28.8869L21.0471 27.5738ZM28.286 40.3349L26.4875 39.0199L24.688 40.3349L25.3733 38.2108L23.5475 36.8988L25.7983 36.9017L26.4875 34.7484L27.1767 36.8988H29.4275L27.6017 38.2108L28.286 40.3349ZM27.6017 19.5902L28.286 21.7133L26.4875 20.4002L24.688 21.7133L25.3733 19.5902L23.5475 18.2772L25.7983 18.2801L26.4875 16.1267L27.1767 18.2772H29.4275L27.6017 19.5902ZM32.6083 11.4535L33.2975 9.30023L33.9867 11.4506H36.2394L34.4127 12.7637L35.097 14.8868L33.2985 13.5737L31.4999 14.8868L32.1833 12.7637L30.3575 11.4506L32.6083 11.4535ZM35.1106 47.1585L33.3131 45.8464L31.5145 47.1585L32.1969 45.0354L30.3711 43.7224L32.6239 43.7253L33.3121 41.5749L34.0013 43.7224H36.2531L34.4273 45.0354L35.1106 47.1585ZM41.9187 8.95223L42.6079 6.80183L43.297 8.95027H45.5498L43.7221 10.2633L44.4074 12.3855L42.6079 11.0734L40.8093 12.3855L41.4936 10.2633L39.6678 8.95027L41.9187 8.95223ZM44.4083 49.6316L42.6108 48.3185L40.8113 49.6316L41.4946 47.5085L39.6688 46.1954L41.9206 46.1984L42.6088 44.045L43.298 46.1954H45.5508L43.723 47.5085L44.4083 49.6316ZM53.707 47.1585L51.9075 45.8464L50.109 47.1585L50.7923 45.0354L48.9675 43.7224L51.2174 43.7253L51.9075 41.5749L52.5957 43.7224H54.8485L53.0208 45.0354L53.707 47.1585ZM53.049 12.7656L53.7324 14.8887L51.9358 13.5737L50.1353 14.8887L50.8187 12.7656L48.9938 11.4506L51.2456 11.4555L51.9339 9.30219L52.6221 11.4506H54.8768L53.049 12.7656ZM58.042 18.2538L58.7322 16.1005L59.4223 18.2518H61.6722L59.8454 19.5619L60.5307 21.6851L58.7322 20.372L56.9336 21.6851L57.6189 19.5619L55.7921 18.2518L58.042 18.2538ZM60.5307 40.3349L58.7322 39.0199L56.9336 40.3349L57.6189 38.2108L55.7921 36.8988L58.042 36.9017L58.7322 34.7484L59.4233 36.8988H61.6722L59.8454 38.2108L60.5307 40.3349ZM63.0018 30.9836L61.2033 29.6686L59.4067 30.9836L60.09 28.8606L58.2633 27.5485L60.5151 27.5504L61.2033 25.3971L61.8934 27.5485H64.1452L62.3185 28.8606L63.0018 30.9836Z" fill="#1B4692"/>
<path d="M95.8047 12.6948V0H104.508V2.14749H98.3684V5.15275H103.668V7.30023H98.3684V12.6948H95.8047Z" fill="#1B4692"/>
<path d="M106.604 0.00012207H109.038V2.25191H106.604V0.00012207ZM106.604 3.49867H109.038V12.695H106.604V3.49867Z" fill="#1B4692"/>
<path d="M119.897 12.6948H117.464V8.00119C117.464 7.00884 117.411 6.36645 117.308 6.07497C117.203 5.7835 117.035 5.55634 116.801 5.39551C116.567 5.23368 116.285 5.15277 115.956 5.15277C115.534 5.15277 115.156 5.26783 114.822 5.49886C114.487 5.72989 114.257 6.03594 114.134 6.41714C114.009 6.79828 113.947 7.50207 113.947 8.52952V12.6948H111.514V3.49857H113.774V4.84963C114.576 3.81051 115.587 3.29092 116.805 3.29092C117.342 3.29092 117.833 3.38743 118.278 3.58139C118.722 3.77446 119.058 4.02107 119.286 4.3213C119.514 4.62152 119.672 4.96172 119.762 5.34286C119.852 5.72406 119.897 6.26994 119.897 6.97957V12.6948Z" fill="#1B4692"/>
<path d="M124.183 6.30465L121.975 5.90596C122.223 5.01696 122.65 4.35892 123.256 3.93197C123.863 3.50502 124.763 3.29059 125.959 3.29059C127.044 3.29059 127.852 3.41922 128.383 3.67661C128.914 3.93298 129.288 4.2595 129.505 4.65432C129.721 5.0501 129.83 5.77632 129.83 6.83299L129.803 9.6726C129.803 10.4807 129.842 11.0773 129.92 11.4604C129.998 11.8444 130.143 12.2558 130.358 12.6945H127.95C127.887 12.5336 127.809 12.2938 127.716 11.976C127.676 11.8318 127.647 11.7363 127.629 11.6904C127.214 12.094 126.77 12.3972 126.296 12.5999C125.823 12.8017 125.317 12.9031 124.781 12.9031C123.834 12.9031 123.088 12.6457 122.542 12.132C121.996 11.6183 121.724 10.969 121.724 10.1834C121.724 9.6638 121.848 9.20079 122.095 8.7933C122.344 8.38681 122.692 8.07487 123.139 7.85848C123.587 7.64209 124.232 7.45295 125.074 7.29117C126.212 7.07764 127.001 6.8788 127.439 6.69358V6.45185C127.439 5.98396 127.323 5.65054 127.093 5.4517C126.862 5.25185 126.427 5.15243 125.785 5.15243C125.352 5.15243 125.014 5.23823 124.772 5.40785C124.53 5.57843 124.334 5.87669 124.183 6.30465ZM127.439 8.27859C127.127 8.38295 126.634 8.5067 125.959 8.65098C125.283 8.79526 124.841 8.93663 124.634 9.07502C124.316 9.30021 124.157 9.5858 124.157 9.93285C124.157 10.273 124.284 10.5674 124.538 10.816C124.792 11.0636 125.115 11.1884 125.508 11.1884C125.947 11.1884 126.365 11.0441 126.764 10.7556C127.058 10.5353 127.251 10.2672 127.344 9.94944C127.407 9.7418 127.439 9.34698 127.439 8.76307V8.27859Z" fill="#1B4692"/>
<path d="M140.594 12.6948H138.16V8.00119C138.16 7.00884 138.108 6.36645 138.005 6.07497C137.9 5.7835 137.732 5.55634 137.498 5.39551C137.264 5.23368 136.983 5.15277 136.653 5.15277C136.232 5.15277 135.854 5.26783 135.519 5.49886C135.184 5.72989 134.954 6.03594 134.831 6.41714C134.707 6.79828 134.644 7.50207 134.644 8.52952V12.6948H132.211V3.49857H134.471V4.84963C135.273 3.81051 136.284 3.29092 137.501 3.29092C138.039 3.29092 138.529 3.38743 138.974 3.58139C139.419 3.77446 139.755 4.02107 139.983 4.3213C140.211 4.62152 140.369 4.96172 140.459 5.34286C140.549 5.72406 140.594 6.26994 140.594 6.97957V12.6948Z" fill="#1B4692"/>
<path d="M142.083 12.6948V10.7988L145.529 6.84114C146.096 6.19482 146.514 5.73569 146.786 5.46468C146.503 5.48128 146.13 5.493 145.669 5.49883L142.422 5.51638V3.49854H150.024V5.22199L146.508 9.27422L145.27 10.6165C145.945 10.5765 146.364 10.5561 146.525 10.5561H150.293V12.6948H142.083Z" fill="#1B4692"/>
<path d="M151.929 0.00012207H154.363V2.25191H151.929V0.00012207ZM151.929 3.49867H154.363V12.695H151.929V3.49867Z" fill="#1B4692"/>
<path d="M158.676 6.30465L156.467 5.90596C156.715 5.01696 157.142 4.35892 157.749 3.93197C158.355 3.50502 159.256 3.29059 160.451 3.29059C161.536 3.29059 162.344 3.41922 162.875 3.67661C163.406 3.93298 163.78 4.2595 163.996 4.65432C164.214 5.0501 164.322 5.77632 164.322 6.83299L164.295 9.6726C164.295 10.4807 164.334 11.0773 164.412 11.4604C164.49 11.8444 164.636 12.2558 164.85 12.6945H162.442C162.379 12.5336 162.301 12.2938 162.208 11.976C162.168 11.8318 162.139 11.7363 162.122 11.6904C161.706 12.094 161.262 12.3972 160.788 12.5999C160.315 12.8017 159.809 12.9031 159.272 12.9031C158.326 12.9031 157.58 12.6457 157.034 12.132C156.488 11.6183 156.216 10.969 156.216 10.1834C156.216 9.6638 156.34 9.20079 156.588 8.7933C156.836 8.38681 157.184 8.07487 157.632 7.85848C158.079 7.64209 158.724 7.45295 159.568 7.29117C160.704 7.07764 161.493 6.8788 161.932 6.69358V6.45185C161.932 5.98396 161.816 5.65054 161.585 5.4517C161.354 5.25185 160.919 5.15243 160.277 5.15243C159.844 5.15243 159.506 5.23823 159.264 5.40785C159.022 5.57843 158.826 5.87669 158.676 6.30465ZM161.932 8.27859C161.62 8.38295 161.126 8.5067 160.451 8.65098C159.775 8.79526 159.334 8.93663 159.126 9.07502C158.808 9.30021 158.649 9.5858 158.649 9.93285C158.649 10.273 158.776 10.5674 159.031 10.816C159.284 11.0636 159.608 11.1884 160 11.1884C160.439 11.1884 160.858 11.0441 161.256 10.7556C161.55 10.5353 161.743 10.2672 161.836 9.94944C161.899 9.7418 161.932 9.34698 161.932 8.76307V8.27859Z" fill="#1B4692"/>
<path d="M170.938 3.49867V5.43857H169.275V9.14477C169.275 9.89532 169.29 10.332 169.323 10.4558C169.354 10.5806 169.427 10.683 169.539 10.7639C169.651 10.8448 169.789 10.8848 169.95 10.8848C170.176 10.8848 170.502 10.8068 170.929 10.6508L171.137 12.539C170.571 12.7817 169.93 12.9026 169.214 12.9026C168.776 12.9026 168.38 12.8285 168.028 12.6823C167.676 12.5341 167.418 12.344 167.253 12.1101C167.088 11.8762 166.974 11.5603 166.911 11.1626C166.858 10.8789 166.833 10.3077 166.833 9.4479V5.43857H165.716V3.49867H166.833V1.67193L169.275 0.251617V3.49867H170.938Z" fill="#1B4692"/>
<path d="M172.063 7.96722C172.063 7.15913 172.263 6.37639 172.66 5.61994C173.059 4.86445 173.623 4.28637 174.354 3.8887C175.084 3.49001 175.9 3.29111 176.8 3.29111C178.191 3.29111 179.332 3.74245 180.221 4.64609C181.11 5.54974 181.555 6.69125 181.555 8.07057C181.555 9.46256 181.105 10.6158 180.208 11.5301C179.31 12.4455 178.18 12.9027 176.817 12.9027C175.975 12.9027 175.171 12.7126 174.406 12.3315C173.641 11.9503 173.059 11.3917 172.66 10.6557C172.263 9.9198 172.063 9.02294 172.063 7.96722ZM174.557 8.09687C174.557 9.00932 174.774 9.70727 175.207 10.1927C175.639 10.6772 176.174 10.9199 176.809 10.9199C177.444 10.9199 177.976 10.6772 178.407 10.1927C178.837 9.70727 179.052 9.00348 179.052 8.07937C179.052 7.17865 178.837 6.48652 178.407 6.00108C177.976 5.5166 177.444 5.27385 176.809 5.27385C176.174 5.27385 175.639 5.5166 175.207 6.00108C174.774 6.48652 174.557 7.18448 174.557 8.09687Z" fill="#1B4692"/>
<path d="M104.205 33.9753H101.944V32.6243C101.569 33.1497 101.127 33.5406 100.616 33.7979C100.104 34.0543 99.5893 34.183 99.0697 34.183C98.013 34.183 97.1084 33.758 96.3549 32.906C95.6013 32.055 95.2251 30.8667 95.2251 29.3431C95.2251 27.7844 95.5916 26.599 96.3246 25.788C97.0577 24.977 97.9838 24.5715 99.1048 24.5715C100.131 24.5715 101.021 24.9984 101.772 25.8533V21.2815H104.205V33.9753ZM97.7099 29.1783C97.7099 30.16 97.8453 30.8697 98.1173 31.3083C98.5092 31.9439 99.058 32.2607 99.7628 32.2607C100.322 32.2607 100.799 32.0228 101.191 31.5472C101.584 31.0705 101.781 30.3589 101.781 29.4123C101.781 28.3556 101.59 27.5953 101.208 27.1303C100.827 26.6663 100.34 26.4333 99.7452 26.4333C99.1681 26.4333 98.6847 26.6624 98.2947 27.1215C97.9048 27.5807 97.7099 28.2659 97.7099 29.1783Z" fill="#1B4692"/>
<path d="M108.422 27.5852L106.214 27.1865C106.462 26.2975 106.889 25.6395 107.495 25.2125C108.102 24.7856 109.003 24.5712 110.198 24.5712C111.283 24.5712 112.091 24.6998 112.622 24.9572C113.153 25.2136 113.527 25.5401 113.743 25.9359C113.96 26.3307 114.069 27.0569 114.069 28.1136L114.042 30.9532C114.042 31.7613 114.081 32.3578 114.159 32.7419C114.237 33.125 114.382 33.5364 114.597 33.976H112.189C112.126 33.8142 112.048 33.5744 111.955 33.2566C111.915 33.1123 111.886 33.0168 111.868 32.971C111.453 33.3755 111.009 33.6777 110.535 33.8805C110.062 34.0823 109.556 34.1836 109.02 34.1836C108.073 34.1836 107.327 33.9263 106.781 33.4126C106.236 32.8989 105.963 32.2496 105.963 31.464C105.963 30.9454 106.087 30.4814 106.335 30.0749C106.583 29.6674 106.931 29.3554 107.378 29.1391C107.826 28.9227 108.471 28.7335 109.314 28.5718C110.451 28.3592 111.24 28.1594 111.678 27.9742V27.7324C111.678 27.2645 111.562 26.9311 111.332 26.7323C111.101 26.5334 110.665 26.433 110.024 26.433C109.591 26.433 109.254 26.5188 109.011 26.6884C108.769 26.859 108.573 27.1583 108.422 27.5852ZM111.678 29.5592C111.366 29.6635 110.873 29.7873 110.198 29.9316C109.522 30.0758 109.081 30.2172 108.873 30.3556C108.555 30.5808 108.396 30.8664 108.396 31.2134C108.396 31.5536 108.523 31.848 108.777 32.0966C109.031 32.3442 109.354 32.469 109.747 32.469C110.186 32.469 110.604 32.3247 111.003 32.0352C111.297 31.8168 111.49 31.5478 111.583 31.23C111.646 31.0224 111.678 30.6276 111.678 30.0437V29.5592Z" fill="#1B4692"/>
<path d="M118.9 21.281H116.467V33.9758H118.9V21.281Z" fill="#1B4692"/>
<path d="M123.827 21.281H121.394V33.9758H123.827V21.281Z" fill="#1B4692"/>
<path d="M126.305 25.7923L125.846 23.4285V21.281H128.495V23.4285L128.098 25.7923H126.305Z" fill="#1B4692"/>
<path d="M130.539 21.2811H133.103V28.1564C133.103 29.2472 133.134 29.9549 133.198 30.2775C133.308 30.7971 133.569 31.2143 133.981 31.5292C134.395 31.8441 134.959 32.001 135.674 32.001C136.402 32.001 136.95 31.8528 137.32 31.5555C137.689 31.2582 137.912 30.8927 137.987 30.4598C138.062 30.0271 138.1 29.3086 138.1 28.3036V21.2811H140.663V27.9488C140.663 29.4724 140.593 30.5496 140.455 31.1783C140.316 31.808 140.061 32.3383 139.689 32.7721C139.316 33.2049 138.818 33.55 138.194 33.8064C137.571 34.0637 136.757 34.1914 135.752 34.1914C134.541 34.1914 133.621 34.052 132.995 33.7722C132.368 33.4915 131.874 33.1279 131.509 32.6814C131.145 32.234 130.906 31.7641 130.791 31.2738C130.623 30.5466 130.539 29.4724 130.539 28.0531V21.2811Z" fill="#1B4692"/>
<path d="M151.713 33.9756H149.279V29.282C149.279 28.2897 149.227 27.6473 149.123 27.3558C149.02 27.0643 148.851 26.8372 148.617 26.6754C148.383 26.5145 148.101 26.4336 147.773 26.4336C147.351 26.4336 146.973 26.5487 146.638 26.7797C146.304 27.0107 146.074 27.3168 145.95 27.698C145.825 28.0781 145.764 28.7829 145.764 29.8103V33.9756H143.331V24.7794H145.59V26.1305C146.393 25.0913 147.403 24.5717 148.621 24.5717C149.158 24.5717 149.648 24.6682 150.093 24.8613C150.538 25.0553 150.875 25.3019 151.102 25.6021C151.33 25.9023 151.489 26.2425 151.579 26.6237C151.668 27.0049 151.713 27.5508 151.713 28.2604V33.9756Z" fill="#1B4692"/>
<path d="M154.181 21.281H156.614V23.5328H154.181V21.281ZM154.181 24.7795H156.614V33.9758H154.181V24.7795Z" fill="#1B4692"/>
<path d="M158.545 29.2478C158.545 28.4397 158.745 27.6569 159.142 26.9014C159.541 26.145 160.106 25.5669 160.836 25.1692C161.566 24.7706 162.382 24.5717 163.282 24.5717C164.673 24.5717 165.814 25.023 166.703 25.9266C167.592 26.8303 168.037 27.9718 168.037 29.3521C168.037 30.7431 167.587 31.8963 166.69 32.8107C165.793 33.7261 164.662 34.1832 163.3 34.1832C162.457 34.1832 161.653 33.9931 160.888 33.612C160.123 33.2308 159.541 32.6722 159.142 31.9363C158.745 31.2003 158.545 30.3045 158.545 29.2478ZM161.039 29.3774C161.039 30.2899 161.256 30.9878 161.689 31.4733C162.121 31.9577 162.656 32.2005 163.291 32.2005C163.926 32.2005 164.458 31.9577 164.889 31.4733C165.319 30.9878 165.534 30.284 165.534 29.3599C165.534 28.4601 165.319 27.7671 164.889 27.2826C164.458 26.7971 163.926 26.5544 163.291 26.5544C162.656 26.5544 162.121 26.7971 161.689 27.2826C161.256 27.7671 161.039 28.465 161.039 29.3774Z" fill="#1B4692"/>
<path d="M178.307 33.9756H175.874V29.282C175.874 28.2897 175.822 27.6473 175.718 27.3558C175.614 27.0643 175.445 26.8372 175.211 26.6754C174.977 26.5145 174.697 26.4336 174.367 26.4336C173.946 26.4336 173.568 26.5487 173.232 26.7797C172.898 27.0107 172.668 27.3168 172.544 27.698C172.42 28.0781 172.358 28.7829 172.358 29.8103V33.9756H169.925V24.7794H172.185V26.1305C172.987 25.0913 173.998 24.5717 175.215 24.5717C175.752 24.5717 176.243 24.6682 176.688 24.8613C177.133 25.0553 177.469 25.3019 177.697 25.6021C177.924 25.9023 178.083 26.2425 178.173 26.6237C178.262 27.0049 178.307 27.5508 178.307 28.2604V33.9756Z" fill="#1B4692"/>
<path d="M186.101 31.0489L188.525 31.4554C188.214 32.3445 187.722 33.022 187.049 33.4859C186.377 33.9509 185.535 34.1829 184.525 34.1829C182.926 34.1829 181.742 33.6614 180.975 32.6154C180.368 31.7791 180.065 30.7224 180.065 29.4464C180.065 27.9228 180.463 26.7296 181.26 25.8659C182.057 25.0032 183.065 24.5714 184.282 24.5714C185.651 24.5714 186.73 25.0237 187.521 25.9263C188.312 26.83 188.69 28.2142 188.656 30.079H182.56C182.576 30.8003 182.773 31.3619 183.148 31.7635C183.524 32.1641 183.991 32.3649 184.551 32.3649C184.931 32.3649 185.252 32.2606 185.512 32.053C185.772 31.8453 185.969 31.51 186.101 31.0489ZM186.24 28.5895C186.222 27.8857 186.041 27.3496 185.694 26.9831C185.348 26.6165 184.926 26.4333 184.43 26.4333C183.898 26.4333 183.46 26.6273 183.113 27.0133C182.767 27.4003 182.597 27.9257 182.603 28.5895H186.24Z" fill="#1B4692"/>
<path d="M200.892 31.0489L203.316 31.4554C203.005 32.3445 202.513 33.022 201.841 33.4859C201.168 33.9509 200.326 34.1829 199.316 34.1829C197.717 34.1829 196.533 33.6614 195.766 32.6154C195.159 31.7791 194.856 30.7224 194.856 29.4464C194.856 27.9228 195.254 26.7296 196.051 25.8659C196.848 25.0032 197.856 24.5714 199.073 24.5714C200.442 24.5714 201.521 25.0237 202.312 25.9263C203.103 26.83 203.481 28.2142 203.447 30.079H197.351C197.367 30.8003 197.564 31.3619 197.939 31.7635C198.315 32.1641 198.782 32.3649 199.342 32.3649C199.723 32.3649 200.043 32.2606 200.303 32.053C200.563 31.8453 200.759 31.51 200.892 31.0489ZM201.03 28.5895C201.013 27.8857 200.832 27.3496 200.485 26.9831C200.139 26.6165 199.717 26.4333 199.221 26.4333C198.689 26.4333 198.25 26.6273 197.904 27.0133C197.558 27.4003 197.388 27.9257 197.393 28.5895H201.03Z" fill="#1B4692"/>
<path d="M211.483 33.9756V32.5983C211.148 33.0896 210.708 33.4756 210.162 33.7593C209.617 34.042 209.041 34.1833 208.435 34.1833C207.817 34.1833 207.263 34.0478 206.772 33.7759C206.281 33.5048 205.926 33.1237 205.706 32.6334C205.487 32.1431 205.378 31.4646 205.378 30.598V24.7794H207.811V29.0051C207.811 30.2987 207.856 31.0903 207.945 31.3827C208.035 31.6732 208.198 31.9042 208.435 32.0748C208.672 32.2454 208.972 32.3302 209.335 32.3302C209.751 32.3302 210.123 32.2161 210.453 31.9881C210.782 31.76 211.006 31.4772 211.128 31.14C211.249 30.8017 211.309 29.9751 211.309 28.6591V24.7794H213.742V33.9756H211.483Z" fill="#1B4692"/>
<path d="M218.593 33.9756H216.159V24.7794H218.419V26.0866C218.806 25.4696 219.154 25.0621 219.463 24.8661C219.772 24.6692 220.122 24.5717 220.515 24.5717C221.07 24.5717 221.604 24.7248 222.118 25.0309L221.364 27.152C220.954 26.8869 220.572 26.7533 220.221 26.7533C219.879 26.7533 219.591 26.8479 219.355 27.035C219.118 27.2232 218.932 27.5615 218.796 28.0527C218.661 28.5431 218.593 29.5705 218.593 31.1351V33.9756Z" fill="#1B4692"/>
<path d="M222.602 29.2478C222.602 28.4397 222.801 27.6569 223.199 26.9014C223.598 26.145 224.162 25.5669 224.892 25.1692C225.622 24.7706 226.438 24.5717 227.339 24.5717C228.73 24.5717 229.871 25.023 230.76 25.9266C231.649 26.8303 232.093 27.9718 232.093 29.3521C232.093 30.7431 231.644 31.8963 230.747 32.8107C229.848 33.7261 228.718 34.1832 227.356 34.1832C226.513 34.1832 225.709 33.9931 224.945 33.612C224.18 33.2308 223.598 32.6722 223.199 31.9363C222.801 31.2003 222.602 30.3045 222.602 29.2478ZM225.096 29.3774C225.096 30.2899 225.312 30.9878 225.745 31.4733C226.178 31.9577 226.712 32.2005 227.348 32.2005C227.982 32.2005 228.515 31.9577 228.946 31.4733C229.375 30.9878 229.591 30.284 229.591 29.3599C229.591 28.4601 229.375 27.7671 228.946 27.2826C228.515 26.7971 227.982 26.5544 227.348 26.5544C226.712 26.5544 226.178 26.7971 225.745 27.2826C225.312 27.7671 225.096 28.465 225.096 29.3774Z" fill="#1B4692"/>
<path d="M233.929 24.7796H236.198V26.1306C236.493 25.6686 236.891 25.2933 237.393 25.0047C237.895 24.7162 238.452 24.5709 239.064 24.5709C240.133 24.5709 241.039 24.9901 241.784 25.8274C242.529 26.6648 242.901 27.8307 242.901 29.325C242.901 30.8613 242.526 32.0545 241.775 32.9065C241.024 33.7575 240.115 34.1835 239.048 34.1835C238.539 34.1835 238.079 34.0821 237.666 33.8803C237.253 33.6775 236.818 33.3315 236.362 32.8411V37.4734H233.929V24.7796ZM236.337 29.2217C236.337 30.255 236.541 31.0183 236.952 31.5116C237.361 32.0057 237.861 32.2524 238.45 32.2524C239.015 32.2524 239.485 32.0262 239.862 31.573C240.236 31.1197 240.424 30.3759 240.424 29.3426C240.424 28.3785 240.23 27.663 239.844 27.1951C239.457 26.7282 238.977 26.4942 238.406 26.4942C237.812 26.4942 237.318 26.7233 236.925 27.1824C236.533 27.6416 236.337 28.321 236.337 29.2217Z" fill="#1B4692"/>
<path d="M250.158 31.0489L252.582 31.4554C252.27 32.3445 251.778 33.022 251.106 33.4859C250.434 33.9509 249.592 34.1829 248.582 34.1829C246.982 34.1829 245.799 33.6614 245.032 32.6154C244.425 31.7791 244.122 30.7224 244.122 29.4464C244.122 27.9228 244.52 26.7296 245.317 25.8659C246.114 25.0032 247.121 24.5714 248.339 24.5714C249.708 24.5714 250.787 25.0237 251.578 25.9263C252.369 26.83 252.747 28.2142 252.713 30.079H246.617C246.633 30.8003 246.83 31.3619 247.205 31.7635C247.581 32.1641 248.048 32.3649 248.608 32.3649C248.988 32.3649 249.309 32.2606 249.569 32.053C249.829 31.8453 250.024 31.51 250.158 31.0489ZM250.297 28.5895C250.279 27.8857 250.098 27.3496 249.751 26.9831C249.405 26.6165 248.983 26.4333 248.486 26.4333C247.955 26.4333 247.517 26.6273 247.17 27.0133C246.824 27.4003 246.654 27.9257 246.659 28.5895H250.297Z" fill="#1B4692"/>
<path d="M256.514 27.5852L254.306 27.1865C254.554 26.2975 254.981 25.6395 255.587 25.2125C256.194 24.7856 257.094 24.5712 258.29 24.5712C259.375 24.5712 260.183 24.6998 260.714 24.9572C261.245 25.2136 261.62 25.5401 261.835 25.9359C262.052 26.3307 262.161 27.0569 262.161 28.1136L262.134 30.9532C262.134 31.7613 262.173 32.3578 262.251 32.7419C262.329 33.125 262.474 33.5364 262.689 33.976H260.281C260.218 33.8142 260.14 33.5744 260.047 33.2566C260.007 33.1123 259.978 33.0168 259.96 32.971C259.545 33.3755 259.101 33.6777 258.628 33.8805C258.154 34.0823 257.649 34.1836 257.112 34.1836C256.164 34.1836 255.419 33.9263 254.873 33.4126C254.328 32.8989 254.055 32.2496 254.055 31.464C254.055 30.9454 254.179 30.4814 254.427 30.0749C254.675 29.6674 255.023 29.3554 255.47 29.1391C255.918 28.9227 256.563 28.7335 257.406 28.5718C258.543 28.3592 259.332 28.1594 259.77 27.9742V27.7324C259.77 27.2645 259.655 26.9311 259.424 26.7323C259.193 26.5334 258.756 26.433 258.116 26.433C257.683 26.433 257.346 26.5188 257.103 26.6884C256.86 26.859 256.665 27.1583 256.514 27.5852ZM259.77 29.5592C259.458 29.6635 258.965 29.7873 258.29 29.9316C257.614 30.0758 257.172 30.2172 256.965 30.3556C256.647 30.5808 256.488 30.8664 256.488 31.2134C256.488 31.5536 256.615 31.848 256.869 32.0966C257.123 32.3442 257.446 32.469 257.839 32.469C258.278 32.469 258.696 32.3247 259.095 32.0352C259.389 31.8168 259.582 31.5478 259.675 31.23C259.738 31.0224 259.77 30.6276 259.77 30.0437V29.5592Z" fill="#1B4692"/>
<path d="M95.7907 56.8129V45.8398H97.2805L103.045 54.455V45.8398H104.437V56.8129H102.947L97.1834 48.1902V56.8129H95.7907Z" fill="#1B4692"/>
<path d="M112.147 54.2531L113.54 54.4254C113.32 55.2384 112.913 55.87 112.319 56.3189C111.725 56.7682 110.967 56.9924 110.043 56.9924C108.881 56.9924 107.959 56.6344 107.278 55.9186C106.596 55.2027 106.256 54.1984 106.256 52.9056C106.256 51.5686 106.6 50.5305 107.289 49.7918C107.978 49.0536 108.871 48.6842 109.969 48.6842C111.032 48.6842 111.9 49.0459 112.574 49.7694C113.247 50.4929 113.584 51.511 113.584 52.8233C113.584 52.9033 113.582 53.0232 113.577 53.1827H107.648C107.698 54.0561 107.945 54.7248 108.389 55.1889C108.834 55.653 109.387 55.8848 110.051 55.8848C110.545 55.8848 110.967 55.7553 111.316 55.4954C111.666 55.236 111.942 54.8219 112.147 54.2531ZM107.723 52.0751H112.162C112.102 51.4063 111.933 50.9046 111.653 50.5705C111.224 50.0517 110.667 49.7918 109.983 49.7918C109.365 49.7918 108.844 49.9993 108.423 50.4134C108.001 50.8275 107.768 51.3816 107.723 52.0751Z" fill="#1B4692"/>
<path d="M114.333 56.8129L117.237 52.681L114.55 48.8636H116.234L117.454 50.7276C117.683 51.0822 117.868 51.3787 118.008 51.6181C118.227 51.2892 118.43 50.997 118.614 50.7428L119.954 48.8636H121.564L118.816 52.6063L121.773 56.8129H120.119L118.487 54.3431L118.053 53.6767L115.964 56.8129H114.333Z" fill="#1B4692"/>
<path d="M125.838 55.6078L126.033 56.7982C125.654 56.8777 125.314 56.9177 125.015 56.9177C124.526 56.9177 124.146 56.8401 123.877 56.6859C123.607 56.5312 123.418 56.328 123.308 56.0757C123.198 55.8239 123.143 55.2937 123.143 54.485V49.9118H122.155V48.8637H123.143V46.8955L124.483 46.0869V48.8637H125.838V49.9118H124.483V54.5602C124.483 54.9443 124.507 55.1913 124.555 55.3008C124.602 55.4108 124.679 55.4983 124.786 55.5631C124.894 55.6278 125.047 55.6602 125.247 55.6602C125.397 55.6602 125.594 55.643 125.838 55.6078Z" fill="#1B4692"/>
<path d="M132.463 52.5092V51.2216L137.111 51.214V55.286C136.398 55.8548 135.662 56.2827 134.903 56.5697C134.144 56.8567 133.366 57 132.568 57C131.49 57 130.51 56.7691 129.63 56.3079C128.749 55.8462 128.084 55.1789 127.635 54.3055C127.185 53.4321 126.961 52.4568 126.961 51.3787C126.961 50.3111 127.184 49.3144 127.631 48.3886C128.077 47.4629 128.72 46.7755 129.558 46.3262C130.397 45.8774 131.363 45.6527 132.455 45.6527C133.249 45.6527 133.966 45.7812 134.607 46.0383C135.249 46.2953 135.752 46.6532 136.116 47.1125C136.48 47.5714 136.757 48.1702 136.947 48.9089L135.636 49.2682C135.472 48.7094 135.267 48.2701 135.023 47.9507C134.778 47.6313 134.429 47.3757 133.975 47.1834C133.521 46.9916 133.017 46.8955 132.463 46.8955C131.799 46.8955 131.225 46.9964 130.741 47.1982C130.257 47.4005 129.867 47.6661 129.57 47.9955C129.273 48.3248 129.042 48.6866 128.877 49.0807C128.598 49.7594 128.458 50.4958 128.458 51.2892C128.458 52.2669 128.626 53.0856 128.963 53.7443C129.3 54.4026 129.79 54.8919 130.434 55.2113C131.078 55.5307 131.761 55.6901 132.485 55.6901C133.114 55.6901 133.728 55.5692 134.327 55.3269C134.925 55.0851 135.379 54.8272 135.689 54.5525V52.5092H132.463Z" fill="#1B4692"/>
<path d="M144.522 54.2531L145.915 54.4254C145.695 55.2384 145.288 55.87 144.694 56.3189C144.1 56.7682 143.342 56.9924 142.419 56.9924C141.256 56.9924 140.334 56.6344 139.653 55.9186C138.972 55.2027 138.631 54.1984 138.631 52.9056C138.631 51.5686 138.975 50.5305 139.664 49.7918C140.353 49.0536 141.246 48.6842 142.344 48.6842C143.407 48.6842 144.275 49.0459 144.949 49.7694C145.622 50.4929 145.959 51.511 145.959 52.8233C145.959 52.9033 145.957 53.0232 145.952 53.1827H140.024C140.073 54.0561 140.32 54.7248 140.765 55.1889C141.209 55.653 141.762 55.8848 142.426 55.8848C142.92 55.8848 143.342 55.7553 143.691 55.4954C144.041 55.236 144.317 54.8219 144.522 54.2531ZM140.098 52.0751H144.537C144.477 51.4063 144.308 50.9046 144.028 50.5705C143.599 50.0517 143.043 49.7918 142.359 49.7918C141.74 49.7918 141.22 49.9993 140.798 50.4134C140.376 50.8275 140.143 51.3816 140.098 52.0751Z" fill="#1B4692"/>
<path d="M147.606 56.8129V48.8636H148.819V49.9941C149.403 49.1207 150.246 48.6842 151.349 48.6842C151.828 48.6842 152.268 48.7704 152.67 48.9427C153.072 49.1145 153.372 49.3406 153.572 49.62C153.771 49.8994 153.911 50.2311 153.991 50.6152C154.041 50.8651 154.066 51.3016 154.066 51.9251V56.8129H152.718V51.9775C152.718 51.4287 152.666 51.0184 152.561 50.7461C152.457 50.4744 152.271 50.2573 152.004 50.095C151.737 49.9332 151.424 49.8518 151.064 49.8518C150.49 49.8518 149.995 50.0341 149.578 50.3982C149.162 50.7628 148.953 51.4534 148.953 52.4715V56.8129H147.606Z" fill="#1B4692"/>
<path d="M161.574 54.2531L162.967 54.4254C162.747 55.2384 162.34 55.87 161.746 56.3189C161.152 56.7682 160.394 56.9924 159.471 56.9924C158.308 56.9924 157.386 56.6344 156.705 55.9186C156.024 55.2027 155.683 54.1984 155.683 52.9056C155.683 51.5686 156.027 50.5305 156.716 49.7918C157.405 49.0536 158.298 48.6842 159.396 48.6842C160.459 48.6842 161.327 49.0459 162.001 49.7694C162.674 50.4929 163.011 51.511 163.011 52.8233C163.011 52.9033 163.009 53.0232 163.004 53.1827H157.076C157.125 54.0561 157.372 54.7248 157.817 55.1889C158.261 55.653 158.814 55.8848 159.478 55.8848C159.972 55.8848 160.394 55.7553 160.743 55.4954C161.093 55.236 161.369 54.8219 161.574 54.2531ZM157.15 52.0751H161.589C161.529 51.4063 161.36 50.9046 161.08 50.5705C160.651 50.0517 160.095 49.7918 159.411 49.7918C158.792 49.7918 158.272 49.9993 157.85 50.4134C157.428 50.8275 157.195 51.3816 157.15 52.0751Z" fill="#1B4692"/>
<path d="M164.644 56.8129V48.8636H165.856V50.0688C166.165 49.5053 166.451 49.1335 166.713 48.9536C166.975 48.7742 167.263 48.6842 167.578 48.6842C168.032 48.6842 168.493 48.8289 168.963 49.1183L168.499 50.3682C168.169 50.1735 167.84 50.0764 167.51 50.0764C167.216 50.0764 166.952 50.165 166.717 50.342C166.482 50.5191 166.315 50.7652 166.215 51.0793C166.066 51.5586 165.991 52.0822 165.991 52.6515V56.8129H164.644Z" fill="#1B4692"/>
<path d="M174.951 55.8324C174.452 56.2565 173.971 56.5559 173.51 56.7306C173.048 56.9053 172.553 56.9924 172.024 56.9924C171.151 56.9924 170.479 56.7791 170.01 56.3527C169.541 55.9262 169.307 55.3807 169.307 54.7172C169.307 54.3279 169.395 53.9723 169.572 53.6505C169.749 53.3288 169.982 53.0703 170.269 52.8757C170.555 52.681 170.878 52.5339 171.238 52.4344C171.502 52.3645 171.902 52.2969 172.436 52.2321C173.524 52.1022 174.325 51.9475 174.839 51.7681C174.843 51.5834 174.846 51.4663 174.846 51.4163C174.846 50.8675 174.719 50.4805 174.464 50.2559C174.12 49.9517 173.608 49.7994 172.929 49.7994C172.296 49.7994 171.828 49.9108 171.526 50.1326C171.224 50.3549 171.001 50.7476 170.856 51.3116L169.539 51.1317C169.659 50.5681 169.856 50.1126 170.13 49.7656C170.404 49.4191 170.801 49.1521 171.32 48.965C171.839 48.778 172.441 48.6842 173.124 48.6842C173.803 48.6842 174.355 48.7642 174.779 48.9236C175.203 49.0835 175.515 49.2844 175.714 49.5262C175.914 49.7685 176.054 50.0741 176.134 50.4434C176.179 50.6728 176.201 51.0869 176.201 51.6857V53.4821C176.201 54.7348 176.229 55.5268 176.287 55.8586C176.344 56.1904 176.458 56.5088 176.627 56.8129H175.22C175.08 56.5335 174.991 56.2065 174.951 55.8324ZM174.839 52.8233C174.349 53.0232 173.616 53.1927 172.638 53.3326C172.084 53.4121 171.692 53.502 171.463 53.602C171.233 53.702 171.056 53.8476 170.931 54.0399C170.806 54.2317 170.744 54.4454 170.744 54.6796C170.744 55.039 170.88 55.3384 171.152 55.5778C171.424 55.8172 171.822 55.9371 172.346 55.9371C172.865 55.9371 173.326 55.8239 173.731 55.5968C174.135 55.3698 174.432 55.059 174.622 54.6649C174.766 54.3602 174.839 53.9114 174.839 53.3174V52.8233Z" fill="#1B4692"/>
<path d="M181.232 55.6078L181.426 56.7982C181.047 56.8777 180.707 56.9177 180.408 56.9177C179.919 56.9177 179.539 56.8401 179.27 56.6859C179.001 56.5312 178.811 56.328 178.701 56.0757C178.591 55.8239 178.537 55.2937 178.537 54.485V49.9118H177.548V48.8637H178.537V46.8955L179.876 46.0869V48.8637H181.232V49.9118H179.876V54.5602C179.876 54.9443 179.9 55.1913 179.948 55.3008C179.995 55.4108 180.073 55.4983 180.18 55.5631C180.287 55.6278 180.44 55.6602 180.64 55.6602C180.79 55.6602 180.987 55.643 181.232 55.6078Z" fill="#1B4692"/>
<path d="M182.556 47.3891V45.8398H183.904V47.3891H182.556ZM182.556 56.8129V48.8637H183.904V56.8129H182.556Z" fill="#1B4692"/>
<path d="M185.453 52.8385C185.453 51.3663 185.862 50.2759 186.681 49.5676C187.365 48.9788 188.198 48.6842 189.181 48.6842C190.274 48.6842 191.167 49.0421 191.861 49.7585C192.555 50.4744 192.901 51.4639 192.901 52.7262C192.901 53.7491 192.748 54.5539 192.441 55.1399C192.134 55.7263 191.687 56.1818 191.101 56.5059C190.515 56.8305 189.874 56.9924 189.181 56.9924C188.068 56.9924 187.168 56.6359 186.483 55.9224C185.796 55.2089 185.453 54.1808 185.453 52.8385ZM186.838 52.8385C186.838 53.8562 187.06 54.6187 187.504 55.1251C187.949 55.6316 188.507 55.8848 189.181 55.8848C189.85 55.8848 190.406 55.6301 190.85 55.1213C191.294 54.6125 191.517 53.8367 191.517 52.7933C191.517 51.8104 191.293 51.0655 190.847 50.5591C190.4 50.0526 189.845 49.7994 189.181 49.7994C188.507 49.7994 187.949 50.0517 187.504 50.5553C187.06 51.0593 186.838 51.8204 186.838 52.8385Z" fill="#1B4692"/>
<path d="M194.481 56.8129V48.8636H195.694V49.9941C196.278 49.1207 197.121 48.6842 198.224 48.6842C198.703 48.6842 199.143 48.7704 199.545 48.9427C199.947 49.1145 200.247 49.3406 200.447 49.62C200.646 49.8994 200.786 50.2311 200.866 50.6152C200.916 50.8651 200.941 51.3016 200.941 51.9251V56.8129H199.593V51.9775C199.593 51.4287 199.541 51.0184 199.436 50.7461C199.332 50.4744 199.146 50.2573 198.879 50.095C198.612 49.9332 198.299 49.8518 197.939 49.8518C197.365 49.8518 196.87 50.0341 196.453 50.3982C196.037 50.7628 195.828 51.4534 195.828 52.4715V56.8129H194.481Z" fill="#1B4692"/>
<path d="M203.209 56.8129V45.8398H211.144V47.1349H204.662V50.4958H210.732V51.7828H204.662V55.5178H211.399V56.8129H203.209Z" fill="#1B4692"/>
<path d="M220.606 45.8398H222.058V52.1798C222.058 53.2826 221.933 54.1584 221.684 54.8072C221.434 55.4559 220.984 55.9833 220.332 56.3903C219.681 56.7968 218.826 57 217.768 57C216.741 57 215.9 56.8229 215.246 56.4688C214.592 56.1142 214.126 55.6016 213.846 54.9305C213.566 54.2593 213.427 53.3426 213.427 52.1798V45.8398H214.879V52.1722C214.879 53.1256 214.968 53.8276 215.145 54.2793C215.322 54.731 215.626 55.079 216.058 55.3236C216.49 55.5678 217.017 55.6901 217.641 55.6901C218.709 55.6901 219.47 55.4483 219.924 54.9643C220.379 54.4802 220.606 53.5497 220.606 52.1722V45.8398Z" fill="#1B4692"/>
</svg>
