<svg viewBox="0 0 190 37" fill="none" xmlns="http://www.w3.org/2000/svg">
<path d="M0.717688 11.792C1.06969 11.792 1.35769 11.696 1.54969 11.488C1.74169 11.28 1.83769 10.912 1.83769 10.384V2.416C1.83769 1.904 1.72569 1.552 1.53369 1.328C1.34169 1.12 1.06969 1.008 0.717688 1.008V0.799999H4.81369V1.008C4.44569 1.008 4.17369 1.12 3.98169 1.328C3.78969 1.536 3.69369 1.904 3.69369 2.416L3.70969 10.384C3.70969 10.912 3.80569 11.28 3.99769 11.488C4.18969 11.696 4.46169 11.792 4.82969 11.792V12H0.717688V11.792ZM10.4508 11.792C10.8028 11.792 11.0908 11.712 11.2988 11.552C11.5068 11.392 11.6188 11.12 11.6188 10.72C11.6188 10.592 11.6028 10.48 11.6028 10.4L11.1068 6.736C10.9148 5.376 10.3548 4.688 9.44281 4.688C9.02681 4.688 8.65881 4.864 8.37081 5.2C8.08281 5.552 7.90681 5.952 7.87481 6.432V10.384C7.87481 10.912 7.97081 11.28 8.16281 11.488C8.35481 11.696 8.62681 11.792 8.99481 11.792V12H5.02681V11.792C5.37881 11.792 5.65081 11.696 5.84281 11.472C6.03481 11.264 6.14681 10.896 6.14681 10.384V5.632C6.14681 5.248 6.05081 4.992 5.89081 4.832C5.73081 4.672 5.45881 4.592 5.09081 4.576V4.368C6.11481 4.304 6.99481 4.096 7.73081 3.744L7.87481 3.824V5.744C8.01881 5.168 8.30681 4.688 8.73881 4.304C9.17081 3.92 9.68281 3.728 10.2908 3.728C10.9788 3.728 11.5388 3.984 11.9868 4.464C12.4188 4.944 12.7068 5.696 12.8508 6.688L13.3948 10.4C13.4588 10.912 13.5868 11.28 13.7948 11.488C13.9868 11.696 14.2588 11.792 14.6108 11.792V12H10.4508V11.792ZM20.0037 11.696C19.7477 11.408 19.5877 10.992 19.5237 10.464L19.4757 10.112C19.4117 10.464 19.2517 10.8 19.0277 11.104C18.7877 11.424 18.4837 11.68 18.1157 11.872C17.7317 12.064 17.3157 12.16 16.8517 12.16C16.1797 12.16 15.6197 11.968 15.1877 11.584C14.7557 11.2 14.5477 10.704 14.5477 10.096C14.5477 9.552 14.7237 9.104 15.1077 8.752C15.4917 8.4 16.0357 8.192 16.7397 8.128L19.1717 7.936L19.0597 7.12C18.9637 6.368 18.7397 5.776 18.3877 5.344C18.0357 4.928 17.5717 4.704 16.9957 4.704C16.5317 4.704 16.1317 4.848 15.7797 5.104C15.4277 5.36 15.1717 5.712 14.9957 6.144L14.7877 6.096C14.8837 5.712 15.0757 5.328 15.3637 4.96C15.6517 4.608 16.0037 4.304 16.4357 4.08C16.8677 3.856 17.3477 3.728 17.8757 3.728C18.6757 3.728 19.3317 3.984 19.8277 4.496C20.3237 5.008 20.6277 5.744 20.7557 6.688L21.2197 10.224C21.2997 10.832 21.5077 11.12 21.8597 11.12C21.9557 11.12 22.0517 11.088 22.1317 10.992C22.2117 10.912 22.2597 10.8 22.2917 10.656L22.4837 10.672C22.4517 11.056 22.3237 11.392 22.0677 11.68C21.8117 11.984 21.4757 12.128 21.0597 12.128C20.6117 12.128 20.2597 11.984 20.0037 11.696ZM16.5797 10.784C16.8517 11.072 17.2197 11.216 17.6997 11.216C18.1797 11.216 18.5797 11.072 18.8997 10.784C19.2037 10.496 19.3797 10.144 19.4277 9.744L19.2037 8.176L17.6357 8.304C17.1557 8.352 16.7877 8.512 16.5317 8.768C16.2757 9.024 16.1637 9.36 16.1637 9.744C16.1637 10.16 16.2917 10.496 16.5797 10.784ZM24.3464 11.792C23.9464 11.536 23.6424 11.168 23.4184 10.688C23.1944 10.208 23.0824 9.632 23.0824 8.976V5.632C23.0824 5.248 22.9864 4.992 22.8264 4.832C22.6664 4.672 22.3944 4.592 22.0264 4.576V4.368C23.0504 4.304 23.9304 4.096 24.6664 3.744L24.8104 3.824V8.8C24.8104 9.536 24.9384 10.128 25.2264 10.544C25.4984 10.976 25.9144 11.184 26.4744 11.184C26.9544 11.184 27.3224 11.024 27.5944 10.688C27.8664 10.352 28.0264 9.952 28.0744 9.504V5.632C28.0744 5.248 27.9784 4.992 27.8184 4.832C27.6584 4.672 27.3864 4.592 27.0184 4.576V4.368C28.0424 4.304 28.9224 4.096 29.6584 3.744L29.8024 3.824V10.496C29.8024 10.848 29.8824 11.088 30.0424 11.216C30.2024 11.344 30.4904 11.392 30.8744 11.376V11.584C29.8344 11.712 28.9544 11.92 28.2344 12.192L28.0744 12.096V10.272C27.8984 10.784 27.6104 11.232 27.2104 11.616C26.7944 12 26.2984 12.176 25.6904 12.176C25.1784 12.176 24.7304 12.048 24.3464 11.792ZM32.6257 15.04C32.1617 14.848 31.8097 14.592 31.5697 14.272C31.3297 13.968 31.2177 13.648 31.2177 13.312C31.2177 13.088 31.3617 12.864 31.6497 12.64C31.9377 12.432 32.3377 12.208 32.8497 11.984C32.4177 11.888 32.0817 11.712 31.8417 11.424C31.6017 11.136 31.4897 10.816 31.4897 10.448C31.4897 10.32 31.5057 10.208 31.5697 10.144C31.6177 10.08 31.7457 9.968 31.9537 9.824L32.3377 9.552L32.9937 9.056C32.4817 8.832 32.0817 8.496 31.7937 8.064C31.5057 7.648 31.3617 7.152 31.3617 6.592C31.3617 6.032 31.5057 5.536 31.7937 5.088C32.0817 4.64 32.4977 4.304 33.0257 4.048C33.5377 3.808 34.1457 3.68 34.8177 3.68C35.0257 3.68 35.3297 3.712 35.7457 3.776C36.2897 3.856 36.7377 3.888 37.1217 3.888H38.7857L38.5137 4.528L36.9617 4.496C37.3457 4.768 37.6337 5.088 37.8417 5.456C38.0337 5.84 38.1457 6.224 38.1457 6.64C38.1457 7.184 38.0017 7.68 37.7137 8.096C37.4257 8.512 37.0417 8.848 36.5297 9.072C36.0177 9.312 35.4417 9.424 34.7697 9.424C34.1777 9.424 33.6497 9.328 33.1857 9.136C32.9617 9.328 32.8017 9.488 32.7377 9.584C32.6577 9.68 32.6257 9.776 32.6257 9.84C32.6257 10.272 32.9457 10.48 33.5857 10.48H36.5937C37.2337 10.48 37.7297 10.592 38.0977 10.816C38.4657 11.04 38.6577 11.424 38.6577 11.968C38.6577 12.512 38.4497 13.04 38.0657 13.552C37.6817 14.08 37.1377 14.512 36.4657 14.848C35.7937 15.184 35.0417 15.344 34.2257 15.344C33.6177 15.344 33.0737 15.248 32.6257 15.04ZM33.3937 14.048C33.8417 14.336 34.4337 14.48 35.1697 14.48C35.7457 14.48 36.2417 14.4 36.6897 14.224C37.1217 14.064 37.4577 13.84 37.6977 13.584C37.9377 13.328 38.0657 13.056 38.0657 12.784C38.0657 12.56 37.9697 12.368 37.7777 12.24C37.5857 12.112 37.3137 12.032 36.9457 12.032H33.3937H33.2017C33.0097 12.192 32.8497 12.352 32.7537 12.496C32.6577 12.64 32.6097 12.816 32.6257 13.008C32.6737 13.424 32.9297 13.76 33.3937 14.048ZM33.5537 8.368C33.9217 8.896 34.4017 9.152 34.9777 9.152C35.4417 9.152 35.8097 8.944 36.0977 8.496C36.3697 8.048 36.5137 7.504 36.5137 6.848C36.5137 6.336 36.4177 5.872 36.2577 5.424C36.0977 4.976 35.8577 4.624 35.5697 4.352C35.2817 4.096 34.9457 3.952 34.5937 3.952C34.0817 3.952 33.6977 4.192 33.4257 4.672C33.1377 5.152 33.0097 5.696 33.0097 6.336C33.0097 7.168 33.1857 7.856 33.5537 8.368ZM41.2058 11.792C40.8058 11.536 40.5018 11.168 40.2778 10.688C40.0538 10.208 39.9418 9.632 39.9418 8.976V5.632C39.9418 5.248 39.8458 4.992 39.6858 4.832C39.5258 4.672 39.2538 4.592 38.8858 4.576V4.368C39.9098 4.304 40.7898 4.096 41.5258 3.744L41.6698 3.824V8.8C41.6698 9.536 41.7978 10.128 42.0858 10.544C42.3578 10.976 42.7738 11.184 43.3338 11.184C43.8138 11.184 44.1818 11.024 44.4538 10.688C44.7258 10.352 44.8858 9.952 44.9338 9.504V5.632C44.9338 5.248 44.8378 4.992 44.6778 4.832C44.5178 4.672 44.2458 4.592 43.8778 4.576V4.368C44.9018 4.304 45.7818 4.096 46.5178 3.744L46.6618 3.824V10.496C46.6618 10.848 46.7418 11.088 46.9018 11.216C47.0618 11.344 47.3498 11.392 47.7338 11.376V11.584C46.6938 11.712 45.8138 11.92 45.0938 12.192L44.9338 12.096V10.272C44.7578 10.784 44.4698 11.232 44.0698 11.616C43.6538 12 43.1578 12.176 42.5498 12.176C42.0378 12.176 41.5898 12.048 41.2058 11.792ZM47.8862 11.792C48.2382 11.792 48.5102 11.696 48.7022 11.472C48.8942 11.264 49.0062 10.896 49.0062 10.384V5.632C49.0062 5.248 48.9262 4.992 48.7662 4.832C48.6062 4.672 48.3342 4.592 47.9502 4.576V4.368C48.9742 4.304 49.8542 4.096 50.5902 3.744L50.7342 3.824V5.568C50.8622 5.072 51.1022 4.64 51.4542 4.272C51.8062 3.92 52.2062 3.728 52.6862 3.728C53.0542 3.728 53.3582 3.856 53.5982 4.08C53.8222 4.32 53.9502 4.592 53.9502 4.896C53.9502 5.168 53.8542 5.392 53.6942 5.584C53.5342 5.776 53.3102 5.856 53.0382 5.856C52.8462 5.856 52.7022 5.824 52.5902 5.728C52.4782 5.648 52.3822 5.536 52.3182 5.408C52.2542 5.28 52.1902 5.152 52.1582 5.024C52.0942 4.896 52.0462 4.816 51.9982 4.752C51.9342 4.704 51.8702 4.672 51.7742 4.672C51.5182 4.672 51.2942 4.832 51.1022 5.12C50.9102 5.424 50.7822 5.776 50.7342 6.176V10.384C50.7342 10.896 50.8622 11.264 51.1182 11.472C51.3742 11.696 51.7262 11.792 52.1902 11.792V12H47.8862V11.792ZM59.4724 11.696C59.2164 11.408 59.0564 10.992 58.9924 10.464L58.9444 10.112C58.8804 10.464 58.7204 10.8 58.4964 11.104C58.2564 11.424 57.9524 11.68 57.5844 11.872C57.2004 12.064 56.7844 12.16 56.3204 12.16C55.6484 12.16 55.0884 11.968 54.6564 11.584C54.2244 11.2 54.0164 10.704 54.0164 10.096C54.0164 9.552 54.1924 9.104 54.5764 8.752C54.9604 8.4 55.5044 8.192 56.2084 8.128L58.6404 7.936L58.5284 7.12C58.4324 6.368 58.2084 5.776 57.8564 5.344C57.5044 4.928 57.0404 4.704 56.4644 4.704C56.0004 4.704 55.6004 4.848 55.2484 5.104C54.8964 5.36 54.6404 5.712 54.4644 6.144L54.2564 6.096C54.3524 5.712 54.5444 5.328 54.8324 4.96C55.1204 4.608 55.4724 4.304 55.9044 4.08C56.3364 3.856 56.8164 3.728 57.3444 3.728C58.1444 3.728 58.8004 3.984 59.2964 4.496C59.7924 5.008 60.0964 5.744 60.2244 6.688L60.6884 10.224C60.7684 10.832 60.9764 11.12 61.3284 11.12C61.4244 11.12 61.5204 11.088 61.6004 10.992C61.6804 10.912 61.7284 10.8 61.7604 10.656L61.9524 10.672C61.9204 11.056 61.7924 11.392 61.5364 11.68C61.2804 11.984 60.9444 12.128 60.5284 12.128C60.0804 12.128 59.7284 11.984 59.4724 11.696ZM56.0484 10.784C56.3204 11.072 56.6884 11.216 57.1684 11.216C57.6484 11.216 58.0484 11.072 58.3684 10.784C58.6724 10.496 58.8484 10.144 58.8964 9.744L58.6724 8.176L57.1044 8.304C56.6244 8.352 56.2564 8.512 56.0004 8.768C55.7444 9.024 55.6324 9.36 55.6324 9.744C55.6324 10.16 55.7604 10.496 56.0484 10.784ZM66.4793 4.096H64.7993C64.4153 4.096 64.0473 4.24 63.6953 4.528C63.3433 4.816 63.0393 5.168 62.7833 5.584C62.5273 6 62.3513 6.416 62.2713 6.8L62.0633 6.768L62.5593 3.888H68.5753L64.0633 11.792H65.7113C66.1113 11.792 66.5113 11.664 66.8953 11.408C67.2793 11.152 67.6313 10.8 67.9193 10.368C68.2073 9.936 68.3993 9.472 68.5113 8.976L68.7353 9.008L68.2393 12H61.9833L66.4793 4.096ZM70.0196 2.192C69.8116 1.968 69.7156 1.696 69.7156 1.344C69.7156 1.024 69.8116 0.768 70.0196 0.559999C70.2276 0.351999 70.4996 0.24 70.8356 0.24C71.1716 0.24 71.4436 0.351999 71.6516 0.559999C71.8596 0.768 71.9716 1.024 71.9716 1.344C71.9716 1.696 71.8596 1.968 71.6516 2.192C71.4436 2.416 71.1716 2.512 70.8356 2.512C70.4996 2.512 70.2276 2.416 70.0196 2.192ZM68.9956 11.792C69.3476 11.792 69.6196 11.696 69.8116 11.472C70.0036 11.264 70.1156 10.896 70.1156 10.384V5.632C70.1156 5.248 70.0196 4.992 69.8596 4.832C69.6996 4.672 69.4276 4.592 69.0596 4.576V4.368C70.0836 4.304 70.9636 4.096 71.6996 3.744L71.8436 3.824V10.384C71.8436 10.912 71.9396 11.28 72.1316 11.488C72.3236 11.696 72.5956 11.792 72.9636 11.792V12H68.9956V11.792ZM75.0503 11.6C74.4263 11.232 73.9303 10.72 73.5783 10.064C73.2103 9.424 73.0343 8.704 73.0343 7.904C73.0343 7.088 73.2103 6.368 73.5783 5.728C73.9303 5.088 74.4263 4.608 75.0503 4.256C75.6583 3.904 76.3303 3.728 77.0663 3.728C77.8023 3.728 78.4743 3.92 79.0823 4.272C79.6903 4.64 80.1863 5.136 80.5543 5.776C80.9063 6.416 81.0983 7.136 81.0983 7.936C81.0983 8.752 80.9223 9.488 80.5703 10.128C80.2183 10.768 79.7223 11.28 79.1143 11.632C78.5063 11.984 77.8343 12.16 77.0983 12.16C76.3463 12.16 75.6583 11.984 75.0503 11.6ZM75.7863 10.864C76.2343 11.536 76.7783 11.856 77.3863 11.856C77.9943 11.856 78.4583 11.568 78.7943 10.976C79.1143 10.4 79.2903 9.632 79.2903 8.688C79.2903 8.384 79.2583 8 79.2103 7.552C79.0663 6.496 78.7783 5.648 78.3303 5.008C77.8823 4.368 77.3703 4.032 76.7783 4.032C76.1543 4.032 75.6743 4.336 75.3383 4.928C75.0023 5.536 74.8423 6.304 74.8423 7.232C74.8423 7.616 74.8583 7.952 74.9063 8.256C75.0343 9.328 75.3383 10.192 75.7863 10.864ZM86.5446 11.792C86.8966 11.792 87.1846 11.712 87.3926 11.552C87.6006 11.392 87.7126 11.12 87.7126 10.72C87.7126 10.592 87.6966 10.48 87.6966 10.4L87.2006 6.736C87.0086 5.376 86.4486 4.688 85.5366 4.688C85.1206 4.688 84.7526 4.864 84.4646 5.2C84.1766 5.552 84.0006 5.952 83.9686 6.432V10.384C83.9686 10.912 84.0646 11.28 84.2566 11.488C84.4486 11.696 84.7206 11.792 85.0886 11.792V12H81.1206V11.792C81.4726 11.792 81.7446 11.696 81.9366 11.472C82.1286 11.264 82.2406 10.896 82.2406 10.384V5.632C82.2406 5.248 82.1446 4.992 81.9846 4.832C81.8246 4.672 81.5526 4.592 81.1846 4.576V4.368C82.2086 4.304 83.0886 4.096 83.8246 3.744L83.9686 3.824V5.744C84.1126 5.168 84.4006 4.688 84.8326 4.304C85.2646 3.92 85.7766 3.728 86.3846 3.728C87.0726 3.728 87.6326 3.984 88.0806 4.464C88.5126 4.944 88.8006 5.696 88.9446 6.688L89.4886 10.4C89.5526 10.912 89.6806 11.28 89.8886 11.488C90.0806 11.696 90.3526 11.792 90.7046 11.792V12H86.5446V11.792ZM92.2787 11.6C91.7187 11.232 91.2867 10.72 90.9827 10.08C90.6627 9.44 90.5187 8.752 90.5187 7.984C90.5187 7.184 90.6787 6.464 91.0307 5.824C91.3827 5.184 91.8467 4.672 92.4547 4.288C93.0467 3.92 93.7027 3.728 94.4067 3.728C95.0147 3.728 95.5587 3.872 96.0067 4.144C96.4547 4.432 96.8067 4.8 97.0467 5.264C97.2867 5.744 97.4147 6.256 97.4147 6.8H92.2147C92.1987 6.864 92.1987 6.96 92.1987 7.072C92.1987 7.824 92.3107 8.48 92.5507 9.056C92.7747 9.632 93.1107 10.08 93.5427 10.4C93.9747 10.72 94.4867 10.864 95.0627 10.864C95.7027 10.864 96.2467 10.672 96.6947 10.288C97.1427 9.904 97.4307 9.408 97.5587 8.768L97.7827 8.8C97.6867 9.44 97.4627 10.016 97.1427 10.528C96.8227 11.04 96.4067 11.44 95.8947 11.728C95.3827 12.016 94.8227 12.16 94.2147 12.16C93.4787 12.16 92.8387 11.984 92.2787 11.6ZM95.0307 6.528C95.2547 6.528 95.4307 6.48 95.5267 6.368C95.6227 6.256 95.6867 6.064 95.6867 5.808C95.6867 5.36 95.5587 4.944 95.3347 4.56C95.0947 4.176 94.7427 3.968 94.2787 3.968C93.7987 3.968 93.3507 4.224 92.9667 4.72C92.5667 5.232 92.3267 5.824 92.2307 6.528H95.0307ZM103.244 11.616C102.732 11.264 102.348 10.768 102.06 10.128C101.772 9.504 101.644 8.8 101.644 8.032C101.644 7.264 101.804 6.544 102.14 5.888C102.46 5.248 102.924 4.72 103.5 4.336C104.076 3.952 104.7 3.76 105.404 3.76C106.236 3.76 106.94 4.08 107.484 4.72V2.064C107.484 1.68 107.404 1.408 107.244 1.248C107.084 1.088 106.812 1.008 106.444 1.008V0.799999C107.468 0.735999 108.348 0.528 109.068 0.176L109.228 0.256V10.496C109.228 10.848 109.308 11.088 109.468 11.216C109.628 11.344 109.9 11.392 110.284 11.376V11.584C109.228 11.712 108.364 11.92 107.66 12.192L107.484 12.096V10.432C107.324 10.864 107.02 11.264 106.572 11.616C106.108 11.984 105.564 12.16 104.924 12.16C104.3 12.16 103.74 11.984 103.244 11.616ZM103.788 9.472C103.996 10.048 104.284 10.464 104.652 10.752C105.004 11.04 105.404 11.184 105.836 11.184C106.22 11.184 106.572 11.072 106.86 10.848C107.148 10.624 107.356 10.32 107.484 9.936V7.376C107.484 6.48 107.308 5.696 106.956 5.04C106.604 4.4 106.124 4.064 105.532 4.064C105.116 4.064 104.764 4.224 104.444 4.512C104.124 4.8 103.884 5.2 103.724 5.712C103.548 6.224 103.468 6.8 103.468 7.44C103.468 8.24 103.564 8.912 103.788 9.472ZM112.201 11.6C111.641 11.232 111.209 10.72 110.905 10.08C110.585 9.44 110.441 8.752 110.441 7.984C110.441 7.184 110.601 6.464 110.953 5.824C111.305 5.184 111.769 4.672 112.377 4.288C112.969 3.92 113.625 3.728 114.329 3.728C114.937 3.728 115.481 3.872 115.929 4.144C116.377 4.432 116.729 4.8 116.969 5.264C117.209 5.744 117.337 6.256 117.337 6.8H112.137C112.121 6.864 112.121 6.96 112.121 7.072C112.121 7.824 112.233 8.48 112.473 9.056C112.697 9.632 113.033 10.08 113.465 10.4C113.897 10.72 114.409 10.864 114.985 10.864C115.625 10.864 116.169 10.672 116.617 10.288C117.065 9.904 117.353 9.408 117.481 8.768L117.705 8.8C117.609 9.44 117.385 10.016 117.065 10.528C116.745 11.04 116.329 11.44 115.817 11.728C115.305 12.016 114.745 12.16 114.137 12.16C113.401 12.16 112.761 11.984 112.201 11.6ZM114.953 6.528C115.177 6.528 115.353 6.48 115.449 6.368C115.545 6.256 115.609 6.064 115.609 5.808C115.609 5.36 115.481 4.944 115.257 4.56C115.017 4.176 114.665 3.968 114.201 3.968C113.721 3.968 113.273 4.224 112.889 4.72C112.489 5.232 112.249 5.824 112.153 6.528H114.953ZM117.589 11.792C117.941 11.792 118.213 11.696 118.405 11.472C118.597 11.264 118.709 10.896 118.709 10.384L118.757 2.064C118.757 1.68 118.661 1.408 118.501 1.248C118.341 1.088 118.069 1.008 117.701 1.008V0.799999C118.725 0.735999 119.605 0.528 120.341 0.176L120.485 0.256V10.384C120.485 10.896 120.581 11.264 120.773 11.472C120.965 11.696 121.253 11.792 121.605 11.792V12H117.589V11.792ZM121.621 11.792C121.973 11.792 122.245 11.696 122.437 11.472C122.629 11.264 122.741 10.896 122.741 10.384L122.789 2.064C122.789 1.68 122.693 1.408 122.533 1.248C122.373 1.088 122.101 1.008 121.733 1.008V0.799999C122.757 0.735999 123.637 0.528 124.373 0.176L124.517 0.256V10.384C124.517 10.896 124.613 11.264 124.805 11.472C124.997 11.696 125.285 11.792 125.637 11.792V12H121.621V11.792ZM131.238 11.696C130.982 11.408 130.822 10.992 130.758 10.464L130.71 10.112C130.646 10.464 130.486 10.8 130.262 11.104C130.022 11.424 129.718 11.68 129.35 11.872C128.966 12.064 128.55 12.16 128.086 12.16C127.414 12.16 126.854 11.968 126.422 11.584C125.99 11.2 125.782 10.704 125.782 10.096C125.782 9.552 125.958 9.104 126.342 8.752C126.726 8.4 127.27 8.192 127.974 8.128L130.406 7.936L130.294 7.12C130.198 6.368 129.974 5.776 129.622 5.344C129.27 4.928 128.806 4.704 128.23 4.704C127.766 4.704 127.366 4.848 127.014 5.104C126.662 5.36 126.406 5.712 126.23 6.144L126.022 6.096C126.118 5.712 126.31 5.328 126.598 4.96C126.886 4.608 127.238 4.304 127.67 4.08C128.102 3.856 128.582 3.728 129.11 3.728C129.91 3.728 130.566 3.984 131.062 4.496C131.558 5.008 131.862 5.744 131.99 6.688L132.454 10.224C132.534 10.832 132.742 11.12 133.094 11.12C133.19 11.12 133.286 11.088 133.366 10.992C133.446 10.912 133.494 10.8 133.526 10.656L133.718 10.672C133.686 11.056 133.558 11.392 133.302 11.68C133.046 11.984 132.71 12.128 132.294 12.128C131.846 12.128 131.494 11.984 131.238 11.696ZM127.814 10.784C128.086 11.072 128.454 11.216 128.934 11.216C129.414 11.216 129.814 11.072 130.134 10.784C130.438 10.496 130.614 10.144 130.662 9.744L130.438 8.176L128.87 8.304C128.39 8.352 128.022 8.512 127.766 8.768C127.51 9.024 127.398 9.36 127.398 9.744C127.398 10.16 127.526 10.496 127.814 10.784ZM147.458 11.792C147.842 11.792 148.13 11.712 148.354 11.552C148.562 11.392 148.674 11.12 148.674 10.72C148.674 10.592 148.658 10.48 148.658 10.4L148.146 6.736C147.954 5.376 147.394 4.688 146.482 4.688C146.034 4.688 145.666 4.848 145.394 5.152C145.122 5.456 144.962 5.84 144.898 6.288C144.914 6.512 144.93 6.672 144.93 6.8V10.384C144.93 10.896 145.026 11.264 145.218 11.472C145.41 11.696 145.698 11.792 146.05 11.792V12H142.146V11.792C142.482 11.792 142.738 11.696 142.93 11.488C143.122 11.28 143.218 10.912 143.218 10.384V7.072C143.218 6.304 143.058 5.712 142.77 5.296C142.482 4.88 142.066 4.672 141.538 4.672C141.106 4.672 140.738 4.832 140.434 5.12C140.114 5.424 139.938 5.776 139.89 6.176V10.384C139.89 10.912 139.97 11.28 140.162 11.488C140.354 11.696 140.61 11.792 140.962 11.792V12H137.042V11.792C137.394 11.792 137.666 11.696 137.858 11.472C138.05 11.264 138.162 10.896 138.162 10.384V5.632C138.162 5.248 138.066 4.992 137.906 4.832C137.746 4.672 137.474 4.592 137.106 4.576V4.368C138.13 4.304 139.01 4.096 139.746 3.744L139.89 3.824V5.536C140.05 5.04 140.354 4.608 140.802 4.256C141.234 3.904 141.73 3.728 142.306 3.728C142.914 3.728 143.442 3.92 143.89 4.272C144.338 4.624 144.658 5.136 144.818 5.776C144.946 5.2 145.234 4.72 145.682 4.32C146.114 3.936 146.642 3.728 147.266 3.728C148.722 3.728 149.602 4.72 149.89 6.688L150.434 10.4C150.498 10.912 150.642 11.28 150.866 11.488C151.074 11.696 151.362 11.792 151.714 11.792V12H147.458V11.792ZM153.472 11.6C152.848 11.232 152.352 10.72 152 10.064C151.632 9.424 151.456 8.704 151.456 7.904C151.456 7.088 151.632 6.368 152 5.728C152.352 5.088 152.848 4.608 153.472 4.256C154.08 3.904 154.752 3.728 155.488 3.728C156.224 3.728 156.896 3.92 157.504 4.272C158.112 4.64 158.608 5.136 158.976 5.776C159.328 6.416 159.52 7.136 159.52 7.936C159.52 8.752 159.344 9.488 158.992 10.128C158.64 10.768 158.144 11.28 157.536 11.632C156.928 11.984 156.256 12.16 155.52 12.16C154.768 12.16 154.08 11.984 153.472 11.6ZM154.208 10.864C154.656 11.536 155.2 11.856 155.808 11.856C156.416 11.856 156.88 11.568 157.216 10.976C157.536 10.4 157.712 9.632 157.712 8.688C157.712 8.384 157.68 8 157.632 7.552C157.488 6.496 157.2 5.648 156.752 5.008C156.304 4.368 155.792 4.032 155.2 4.032C154.576 4.032 154.096 4.336 153.76 4.928C153.424 5.536 153.264 6.304 153.264 7.232C153.264 7.616 153.28 7.952 153.328 8.256C153.456 9.328 153.76 10.192 154.208 10.864ZM160.33 8.816L160.538 8.768C160.794 9.584 161.162 10.304 161.642 10.928C162.122 11.568 162.746 11.888 163.546 11.888C164.042 11.888 164.442 11.76 164.73 11.504C165.018 11.248 165.178 10.912 165.194 10.512C165.194 10.128 165.05 9.792 164.778 9.536C164.49 9.28 164.042 9.04 163.402 8.816L162.442 8.432C161.77 8.176 161.274 7.872 160.922 7.488C160.57 7.104 160.41 6.624 160.41 6.048C160.41 5.632 160.522 5.232 160.778 4.88C161.018 4.528 161.354 4.256 161.786 4.048C162.218 3.856 162.698 3.744 163.21 3.744C163.626 3.744 164.106 3.84 164.634 4.016C164.922 4.112 165.114 4.144 165.21 4.144C165.434 4.144 165.61 3.984 165.706 3.648L165.93 3.632L166.138 6.768L165.914 6.8C165.786 6.384 165.594 5.968 165.338 5.536C165.082 5.104 164.762 4.736 164.394 4.432C164.01 4.144 163.61 3.984 163.178 3.984C162.746 3.984 162.394 4.112 162.138 4.368C161.882 4.624 161.754 4.944 161.754 5.296C161.754 5.648 161.882 5.968 162.154 6.224C162.426 6.48 162.858 6.72 163.434 6.912L164.378 7.296C165.098 7.568 165.626 7.888 165.978 8.256C166.33 8.624 166.506 9.072 166.506 9.6C166.506 10.128 166.362 10.576 166.106 10.96C165.834 11.344 165.482 11.648 165.05 11.84C164.618 12.048 164.154 12.144 163.658 12.144C163.37 12.144 163.098 12.128 162.874 12.08C162.634 12.032 162.362 11.968 162.058 11.872C161.722 11.776 161.498 11.728 161.386 11.728C161.258 11.728 161.146 11.776 161.066 11.84C160.986 11.904 160.906 12.016 160.842 12.176L160.602 12.192L160.33 8.816ZM168.409 11.424C168.025 10.928 167.833 10.288 167.833 9.488V4.528H166.825V4.304C167.481 4.24 168.041 4.016 168.489 3.6C168.937 3.184 169.225 2.624 169.353 1.904H169.577V3.888H171.961L171.689 4.528H169.577V9.312C169.577 9.856 169.689 10.304 169.913 10.64C170.137 10.992 170.457 11.152 170.857 11.152C171.177 11.152 171.433 11.056 171.641 10.832C171.849 10.608 171.993 10.336 172.073 10L172.265 10.032C172.185 10.64 171.945 11.136 171.561 11.552C171.161 11.968 170.681 12.16 170.137 12.16C169.369 12.16 168.793 11.92 168.409 11.424ZM172.246 11.792C172.598 11.792 172.87 11.696 173.062 11.472C173.254 11.264 173.366 10.896 173.366 10.384V5.632C173.366 5.248 173.286 4.992 173.126 4.832C172.966 4.672 172.694 4.592 172.31 4.576V4.368C173.334 4.304 174.214 4.096 174.95 3.744L175.094 3.824V5.568C175.222 5.072 175.462 4.64 175.814 4.272C176.166 3.92 176.566 3.728 177.046 3.728C177.414 3.728 177.718 3.856 177.958 4.08C178.182 4.32 178.31 4.592 178.31 4.896C178.31 5.168 178.214 5.392 178.054 5.584C177.894 5.776 177.67 5.856 177.398 5.856C177.206 5.856 177.062 5.824 176.95 5.728C176.838 5.648 176.742 5.536 176.678 5.408C176.614 5.28 176.55 5.152 176.518 5.024C176.454 4.896 176.406 4.816 176.358 4.752C176.294 4.704 176.23 4.672 176.134 4.672C175.878 4.672 175.654 4.832 175.462 5.12C175.27 5.424 175.142 5.776 175.094 6.176V10.384C175.094 10.896 175.222 11.264 175.478 11.472C175.734 11.696 176.086 11.792 176.55 11.792V12H172.246V11.792ZM183.832 11.696C183.576 11.408 183.416 10.992 183.352 10.464L183.304 10.112C183.24 10.464 183.08 10.8 182.856 11.104C182.616 11.424 182.312 11.68 181.944 11.872C181.56 12.064 181.144 12.16 180.68 12.16C180.008 12.16 179.448 11.968 179.016 11.584C178.584 11.2 178.376 10.704 178.376 10.096C178.376 9.552 178.552 9.104 178.936 8.752C179.32 8.4 179.864 8.192 180.568 8.128L183 7.936L182.888 7.12C182.792 6.368 182.568 5.776 182.216 5.344C181.864 4.928 181.4 4.704 180.824 4.704C180.36 4.704 179.96 4.848 179.608 5.104C179.256 5.36 179 5.712 178.824 6.144L178.616 6.096C178.712 5.712 178.904 5.328 179.192 4.96C179.48 4.608 179.832 4.304 180.264 4.08C180.696 3.856 181.176 3.728 181.704 3.728C182.504 3.728 183.16 3.984 183.656 4.496C184.152 5.008 184.456 5.744 184.584 6.688L185.048 10.224C185.128 10.832 185.336 11.12 185.688 11.12C185.784 11.12 185.88 11.088 185.96 10.992C186.04 10.912 186.088 10.8 186.12 10.656L186.312 10.672C186.28 11.056 186.152 11.392 185.896 11.68C185.64 11.984 185.304 12.128 184.888 12.128C184.44 12.128 184.088 11.984 183.832 11.696ZM180.408 10.784C180.68 11.072 181.048 11.216 181.528 11.216C182.008 11.216 182.408 11.072 182.728 10.784C183.032 10.496 183.208 10.144 183.256 9.744L183.032 8.176L181.464 8.304C180.984 8.352 180.616 8.512 180.36 8.768C180.104 9.024 179.992 9.36 179.992 9.744C179.992 10.16 180.12 10.496 180.408 10.784ZM187.151 11.808C186.943 11.584 186.847 11.312 186.847 10.96C186.847 10.64 186.943 10.384 187.151 10.16C187.359 9.952 187.631 9.84 187.967 9.84C188.287 9.84 188.559 9.952 188.767 10.16C188.975 10.384 189.087 10.64 189.087 10.96C189.087 11.312 188.975 11.584 188.767 11.808C188.559 12.032 188.287 12.128 187.967 12.128C187.631 12.128 187.359 12.032 187.151 11.808ZM187.151 6.656C186.943 6.432 186.847 6.16 186.847 5.808C186.847 5.488 186.943 5.232 187.151 5.008C187.359 4.8 187.631 4.688 187.967 4.688C188.287 4.688 188.559 4.8 188.767 5.008C188.975 5.232 189.087 5.488 189.087 5.808C189.087 6.16 188.975 6.432 188.767 6.656C188.559 6.88 188.287 6.976 187.967 6.976C187.631 6.976 187.359 6.88 187.151 6.656ZM13.7715 29.488C14.4915 28.336 14.8595 27.216 14.8595 26.16C14.8595 25.312 14.6515 24.672 14.2675 24.24C13.8675 23.824 13.3875 23.6 12.8435 23.6C12.3475 23.6 11.9155 23.776 11.5475 24.128C11.1635 24.48 10.9235 24.896 10.8115 25.408L10.5715 25.376C10.6515 24.896 10.8435 24.432 11.1475 24.016C11.4355 23.6 11.8195 23.264 12.2675 23.008C12.7155 22.752 13.1955 22.624 13.7395 22.624C14.2675 22.624 14.7635 22.768 15.2115 23.024C15.6595 23.28 16.0275 23.648 16.2995 24.128C16.5715 24.608 16.7155 25.136 16.7155 25.728C16.7155 26.464 16.5235 27.184 16.1395 27.856C15.7555 28.544 15.2275 29.216 14.5715 29.888C13.9155 30.56 12.9555 31.456 11.7075 32.576H14.3635C14.9875 32.576 15.4675 32.528 15.7875 32.432C16.1075 32.336 16.3475 32.16 16.5235 31.904C16.6835 31.664 16.8435 31.28 17.0035 30.736L17.1955 30.784L16.5715 34H10.2675V33.712C11.8835 32.048 13.0515 30.64 13.7715 29.488ZM17.6393 33.792C18.1353 33.792 18.5193 33.696 18.7913 33.488C19.0633 33.28 19.2073 32.912 19.2073 32.384V25.68C19.2073 25.344 19.1273 25.104 18.9993 24.944C18.8553 24.784 18.6153 24.704 18.2953 24.704H17.2713V24.48C18.1033 24.464 18.8553 24.288 19.5113 23.968C20.1513 23.648 20.5673 23.152 20.7593 22.48H21.0153V32.384C21.0153 32.912 21.1432 33.28 21.4153 33.488C21.6873 33.696 22.0713 33.792 22.5833 33.792V34H17.6393V33.792ZM26.1128 33.792C26.4648 33.792 26.7368 33.696 26.9288 33.472C27.1208 33.264 27.2328 32.896 27.2328 32.384V26.528H26.1128V26.304C26.4967 26.272 26.7848 26.16 26.9768 25.968C27.1688 25.792 27.3288 25.456 27.4408 24.976C27.6328 24.176 28.0008 23.504 28.5768 22.944C29.1368 22.384 29.8088 22.096 30.6088 22.096C31.0248 22.096 31.3928 22.192 31.7448 22.352C32.0808 22.528 32.3208 22.768 32.4488 23.088C32.4968 23.232 32.5288 23.376 32.5288 23.504C32.5288 23.696 32.4648 23.872 32.3688 24.016C32.2728 24.16 32.1128 24.256 31.9208 24.288C31.8888 24.304 31.8248 24.304 31.7608 24.304C31.5048 24.304 31.2808 24.208 31.1208 24C30.9608 23.808 30.8808 23.536 30.8808 23.2C30.8648 22.912 30.8168 22.704 30.7368 22.56C30.6408 22.432 30.5128 22.352 30.3208 22.352C30.0648 22.352 29.8248 22.496 29.6168 22.768C29.4088 23.04 29.2488 23.424 29.1368 23.904C29.0088 24.384 28.9608 24.928 28.9608 25.536V25.888H30.9928L30.7368 26.528H28.9608V32.384C28.9608 32.912 29.0728 33.28 29.3128 33.488C29.5368 33.696 29.8728 33.792 30.3048 33.792V34H26.1128V33.792ZM32.474 33.6C31.914 33.232 31.482 32.72 31.178 32.08C30.858 31.44 30.714 30.752 30.714 29.984C30.714 29.184 30.874 28.464 31.226 27.824C31.578 27.184 32.042 26.672 32.65 26.288C33.242 25.92 33.898 25.728 34.602 25.728C35.21 25.728 35.754 25.872 36.202 26.144C36.65 26.432 37.002 26.8 37.242 27.264C37.482 27.744 37.61 28.256 37.61 28.8H32.41C32.394 28.864 32.394 28.96 32.394 29.072C32.394 29.824 32.506 30.48 32.746 31.056C32.97 31.632 33.306 32.08 33.738 32.4C34.17 32.72 34.682 32.864 35.258 32.864C35.898 32.864 36.442 32.672 36.89 32.288C37.338 31.904 37.626 31.408 37.754 30.768L37.978 30.8C37.882 31.44 37.658 32.016 37.338 32.528C37.018 33.04 36.602 33.44 36.09 33.728C35.578 34.016 35.018 34.16 34.41 34.16C33.674 34.16 33.034 33.984 32.474 33.6ZM35.226 28.528C35.45 28.528 35.626 28.48 35.722 28.368C35.818 28.256 35.882 28.064 35.882 27.808C35.882 27.36 35.754 26.944 35.53 26.56C35.29 26.176 34.938 25.968 34.474 25.968C33.994 25.968 33.546 26.224 33.162 26.72C32.762 27.232 32.522 27.824 32.426 28.528H35.226ZM40.5173 33.872C39.9253 33.68 39.3973 33.424 38.9173 33.104V24.064C38.9173 23.68 38.8213 23.408 38.6613 23.248C38.5013 23.088 38.2293 23.008 37.8613 23.008V22.8C38.8853 22.736 39.7653 22.528 40.5013 22.176L40.6453 22.256V27.68C40.7893 27.184 41.0933 26.736 41.5573 26.352C42.0052 25.968 42.5493 25.76 43.1733 25.76C43.7973 25.76 44.3573 25.952 44.8533 26.336C45.3333 26.72 45.7173 27.216 45.9893 27.84C46.2453 28.48 46.3893 29.152 46.3893 29.872C46.3893 30.704 46.2133 31.456 45.8612 32.096C45.5093 32.752 45.0133 33.264 44.4053 33.616C43.7973 33.984 43.1093 34.16 42.3733 34.16C41.7333 34.16 41.1093 34.064 40.5173 33.872ZM41.0933 33.12C41.3973 33.664 41.8613 33.92 42.4693 33.92C43.1093 33.92 43.6373 33.6 44.0213 32.944C44.4053 32.304 44.5973 31.456 44.5973 30.416C44.5973 29.648 44.4853 28.976 44.2933 28.4C44.1013 27.84 43.8293 27.408 43.4933 27.12C43.1413 26.832 42.7573 26.672 42.3253 26.672C41.9093 26.672 41.5573 26.832 41.2533 27.12C40.9333 27.408 40.7413 27.776 40.6453 28.224V30.592C40.6453 31.744 40.7893 32.576 41.0933 33.12ZM49.0641 33.872C48.4721 33.68 47.9441 33.424 47.4641 33.104V24.064C47.4641 23.68 47.3681 23.408 47.2081 23.248C47.0481 23.088 46.7761 23.008 46.4081 23.008V22.8C47.4321 22.736 48.3121 22.528 49.0481 22.176L49.1921 22.256V27.68C49.3361 27.184 49.6401 26.736 50.1041 26.352C50.5521 25.968 51.0961 25.76 51.7201 25.76C52.3441 25.76 52.9041 25.952 53.4001 26.336C53.8801 26.72 54.2641 27.216 54.5361 27.84C54.7921 28.48 54.9361 29.152 54.9361 29.872C54.9361 30.704 54.7601 31.456 54.4081 32.096C54.0561 32.752 53.5601 33.264 52.9521 33.616C52.3441 33.984 51.6561 34.16 50.9201 34.16C50.2801 34.16 49.6561 34.064 49.0641 33.872ZM49.6401 33.12C49.9441 33.664 50.4081 33.92 51.0161 33.92C51.6561 33.92 52.1841 33.6 52.5681 32.944C52.9521 32.304 53.1441 31.456 53.1441 30.416C53.1441 29.648 53.0321 28.976 52.8401 28.4C52.6481 27.84 52.3761 27.408 52.0401 27.12C51.6881 26.832 51.3041 26.672 50.8721 26.672C50.4561 26.672 50.1041 26.832 49.8001 27.12C49.4801 27.408 49.2881 27.776 49.1921 28.224V30.592C49.1921 31.744 49.3361 32.576 49.6401 33.12ZM55.019 33.792C55.371 33.792 55.643 33.696 55.835 33.472C56.027 33.264 56.139 32.896 56.139 32.384V27.632C56.139 27.248 56.059 26.992 55.899 26.832C55.739 26.672 55.467 26.592 55.083 26.576V26.368C56.107 26.304 56.987 26.096 57.723 25.744L57.867 25.824V27.568C57.995 27.072 58.235 26.64 58.587 26.272C58.939 25.92 59.339 25.728 59.819 25.728C60.187 25.728 60.491 25.856 60.731 26.08C60.955 26.32 61.083 26.592 61.083 26.896C61.083 27.168 60.987 27.392 60.827 27.584C60.667 27.776 60.443 27.856 60.171 27.856C59.979 27.856 59.835 27.824 59.723 27.728C59.611 27.648 59.515 27.536 59.451 27.408C59.387 27.28 59.323 27.152 59.291 27.024C59.227 26.896 59.179 26.816 59.131 26.752C59.067 26.704 59.003 26.672 58.907 26.672C58.651 26.672 58.427 26.832 58.235 27.12C58.043 27.424 57.915 27.776 57.867 28.176V32.384C57.867 32.896 57.995 33.264 58.251 33.472C58.507 33.696 58.859 33.792 59.323 33.792V34H55.019V33.792ZM66.6053 33.696C66.3493 33.408 66.1893 32.992 66.1253 32.464L66.0773 32.112C66.0133 32.464 65.8533 32.8 65.6293 33.104C65.3893 33.424 65.0853 33.68 64.7173 33.872C64.3333 34.064 63.9173 34.16 63.4533 34.16C62.7812 34.16 62.2213 33.968 61.7893 33.584C61.3573 33.2 61.1493 32.704 61.1493 32.096C61.1493 31.552 61.3253 31.104 61.7093 30.752C62.0933 30.4 62.6373 30.192 63.3413 30.128L65.7733 29.936L65.6613 29.12C65.5653 28.368 65.3413 27.776 64.9893 27.344C64.6373 26.928 64.1733 26.704 63.5973 26.704C63.1332 26.704 62.7333 26.848 62.3813 27.104C62.0293 27.36 61.7733 27.712 61.5973 28.144L61.3893 28.096C61.4853 27.712 61.6773 27.328 61.9653 26.96C62.2533 26.608 62.6053 26.304 63.0373 26.08C63.4693 25.856 63.9493 25.728 64.4773 25.728C65.2773 25.728 65.9333 25.984 66.4293 26.496C66.9253 27.008 67.2293 27.744 67.3573 28.688L67.8213 32.224C67.9013 32.832 68.1093 33.12 68.4613 33.12C68.5573 33.12 68.6533 33.088 68.7333 32.992C68.8133 32.912 68.8612 32.8 68.8933 32.656L69.0853 32.672C69.0533 33.056 68.9253 33.392 68.6693 33.68C68.4133 33.984 68.0773 34.128 67.6613 34.128C67.2133 34.128 66.8613 33.984 66.6053 33.696ZM63.1813 32.784C63.4533 33.072 63.8213 33.216 64.3013 33.216C64.7812 33.216 65.1813 33.072 65.5013 32.784C65.8053 32.496 65.9813 32.144 66.0293 31.744L65.8053 30.176L64.2373 30.304C63.7573 30.352 63.3893 30.512 63.1332 30.768C62.8773 31.024 62.7653 31.36 62.7653 31.744C62.7653 32.16 62.8932 32.496 63.1813 32.784ZM70.1055 24.192C69.8975 23.968 69.8015 23.696 69.8015 23.344C69.8015 23.024 69.8975 22.768 70.1055 22.56C70.3135 22.352 70.5855 22.24 70.9215 22.24C71.2575 22.24 71.5295 22.352 71.7375 22.56C71.9455 22.768 72.0575 23.024 72.0575 23.344C72.0575 23.696 71.9455 23.968 71.7375 24.192C71.5295 24.416 71.2575 24.512 70.9215 24.512C70.5855 24.512 70.3135 24.416 70.1055 24.192ZM69.0815 33.792C69.4335 33.792 69.7055 33.696 69.8975 33.472C70.0895 33.264 70.2015 32.896 70.2015 32.384V27.632C70.2015 27.248 70.1055 26.992 69.9455 26.832C69.7855 26.672 69.5135 26.592 69.1455 26.576V26.368C70.1695 26.304 71.0495 26.096 71.7855 25.744L71.9295 25.824V32.384C71.9295 32.912 72.0255 33.28 72.2175 33.488C72.4095 33.696 72.6815 33.792 73.0495 33.792V34H69.0815V33.792ZM75.1363 33.6C74.5123 33.232 74.0163 32.72 73.6643 32.064C73.2963 31.424 73.1203 30.704 73.1203 29.904C73.1203 29.088 73.2963 28.368 73.6643 27.728C74.0163 27.088 74.5123 26.608 75.1363 26.256C75.7443 25.904 76.4163 25.728 77.1523 25.728C77.8883 25.728 78.5603 25.92 79.1683 26.272C79.7763 26.64 80.2723 27.136 80.6403 27.776C80.9923 28.416 81.1843 29.136 81.1843 29.936C81.1843 30.752 81.0083 31.488 80.6562 32.128C80.3043 32.768 79.8083 33.28 79.2003 33.632C78.5923 33.984 77.9203 34.16 77.1843 34.16C76.4323 34.16 75.7443 33.984 75.1363 33.6ZM75.8723 32.864C76.3203 33.536 76.8643 33.856 77.4723 33.856C78.0803 33.856 78.5443 33.568 78.8803 32.976C79.2003 32.4 79.3763 31.632 79.3763 30.688C79.3763 30.384 79.3443 30 79.2963 29.552C79.1523 28.496 78.8643 27.648 78.4163 27.008C77.9683 26.368 77.4563 26.032 76.8643 26.032C76.2403 26.032 75.7603 26.336 75.4243 26.928C75.0883 27.536 74.9283 28.304 74.9283 29.232C74.9283 29.616 74.9443 29.952 74.9923 30.256C75.1203 31.328 75.4243 32.192 75.8723 32.864ZM88.3496 29.488C89.0696 28.336 89.4376 27.216 89.4376 26.16C89.4376 25.312 89.2296 24.672 88.8456 24.24C88.4456 23.824 87.9656 23.6 87.4216 23.6C86.9256 23.6 86.4936 23.776 86.1256 24.128C85.7416 24.48 85.5016 24.896 85.3896 25.408L85.1496 25.376C85.2296 24.896 85.4216 24.432 85.7256 24.016C86.0136 23.6 86.3976 23.264 86.8456 23.008C87.2936 22.752 87.7736 22.624 88.3176 22.624C88.8456 22.624 89.3416 22.768 89.7896 23.024C90.2376 23.28 90.6056 23.648 90.8776 24.128C91.1496 24.608 91.2936 25.136 91.2936 25.728C91.2936 26.464 91.1016 27.184 90.7176 27.856C90.3336 28.544 89.8056 29.216 89.1496 29.888C88.4936 30.56 87.5336 31.456 86.2856 32.576H88.9416C89.5656 32.576 90.0456 32.528 90.3656 32.432C90.6856 32.336 90.9256 32.16 91.1016 31.904C91.2616 31.664 91.4216 31.28 91.5816 30.736L91.7736 30.784L91.1496 34H84.8456V33.712C86.4616 32.048 87.6296 30.64 88.3496 29.488ZM94.4986 33.456C93.8586 32.992 93.3626 32.32 92.9946 31.44C92.6266 30.56 92.4506 29.536 92.4506 28.352C92.4506 27.168 92.6266 26.128 93.0106 25.264C93.3786 24.4 93.8746 23.76 94.4826 23.312C95.0906 22.864 95.7626 22.64 96.4826 22.64C97.1866 22.64 97.8586 22.88 98.4666 23.328C99.0746 23.776 99.5706 24.448 99.9386 25.312C100.291 26.176 100.483 27.2 100.483 28.384C100.483 29.584 100.291 30.624 99.9386 31.488C99.5866 32.352 99.1066 33.024 98.5146 33.472C97.9226 33.936 97.2826 34.16 96.5946 34.16C95.8266 34.16 95.1226 33.936 94.4986 33.456ZM95.2826 32.56C95.6986 33.424 96.2106 33.84 96.8346 33.84C96.8986 33.84 96.9786 33.84 97.0906 33.808C97.5866 33.712 97.9706 33.248 98.2266 32.4C98.4826 31.552 98.6266 30.512 98.6266 29.296C98.6266 28.688 98.5946 28.08 98.5306 27.472C98.3706 26.112 98.0986 25.024 97.7146 24.208C97.3146 23.392 96.8026 22.976 96.1946 22.976C96.1146 22.976 96.0186 22.992 95.8906 23.008C95.3786 23.12 94.9786 23.6 94.7226 24.432C94.4666 25.264 94.3386 26.288 94.3386 27.488C94.3386 28.096 94.3706 28.688 94.4346 29.28C94.5786 30.624 94.8666 31.712 95.2826 32.56ZM104.115 29.488C104.835 28.336 105.203 27.216 105.203 26.16C105.203 25.312 104.995 24.672 104.611 24.24C104.211 23.824 103.731 23.6 103.187 23.6C102.691 23.6 102.259 23.776 101.891 24.128C101.507 24.48 101.267 24.896 101.155 25.408L100.915 25.376C100.995 24.896 101.187 24.432 101.491 24.016C101.779 23.6 102.163 23.264 102.611 23.008C103.059 22.752 103.539 22.624 104.083 22.624C104.611 22.624 105.107 22.768 105.555 23.024C106.003 23.28 106.371 23.648 106.643 24.128C106.915 24.608 107.059 25.136 107.059 25.728C107.059 26.464 106.867 27.184 106.483 27.856C106.099 28.544 105.571 29.216 104.915 29.888C104.259 30.56 103.299 31.456 102.051 32.576H104.707C105.331 32.576 105.811 32.528 106.131 32.432C106.451 32.336 106.691 32.16 106.867 31.904C107.027 31.664 107.187 31.28 107.347 30.736L107.539 30.784L106.915 34H100.611V33.712C102.227 32.048 103.395 30.64 104.115 29.488ZM110.604 33.792C111.02 33.792 111.356 33.696 111.596 33.472C111.82 33.264 111.948 32.896 111.948 32.384V31.376H107.66V31.072L113.484 22.544H113.756V30.304H115.228V31.376H113.756V32.384C113.756 32.912 113.868 33.28 114.108 33.488C114.332 33.696 114.668 33.792 115.1 33.792V34H110.604V33.792ZM111.948 30.304V25.168L108.604 30.304H111.948ZM116.989 35.36C117.245 35.072 117.389 34.784 117.389 34.496C117.389 34.336 117.341 34.224 117.261 34.144C117.165 34.064 117.037 33.968 116.861 33.872C116.621 33.76 116.445 33.632 116.333 33.504C116.205 33.376 116.157 33.168 116.157 32.88C116.157 32.592 116.253 32.352 116.461 32.16C116.653 31.968 116.893 31.856 117.181 31.856C117.533 31.856 117.805 32 118.029 32.288C118.237 32.576 118.349 32.928 118.349 33.344C118.349 34.048 118.109 34.64 117.661 35.152C117.213 35.664 116.685 36.032 116.109 36.224L116.029 36.016C116.397 35.872 116.717 35.648 116.989 35.36ZM124.433 33.6C123.809 33.232 123.313 32.72 122.961 32.064C122.593 31.424 122.417 30.704 122.417 29.904C122.417 29.088 122.593 28.368 122.961 27.728C123.313 27.088 123.809 26.608 124.433 26.256C125.041 25.904 125.713 25.728 126.449 25.728C127.185 25.728 127.857 25.92 128.465 26.272C129.073 26.64 129.569 27.136 129.937 27.776C130.289 28.416 130.481 29.136 130.481 29.936C130.481 30.752 130.305 31.488 129.953 32.128C129.601 32.768 129.105 33.28 128.497 33.632C127.889 33.984 127.217 34.16 126.481 34.16C125.729 34.16 125.041 33.984 124.433 33.6ZM125.169 32.864C125.617 33.536 126.161 33.856 126.769 33.856C127.377 33.856 127.841 33.568 128.177 32.976C128.497 32.4 128.673 31.632 128.673 30.688C128.673 30.384 128.641 30 128.593 29.552C128.449 28.496 128.161 27.648 127.713 27.008C127.265 26.368 126.753 26.032 126.161 26.032C125.537 26.032 125.057 26.336 124.721 26.928C124.385 27.536 124.225 28.304 124.225 29.232C124.225 29.616 124.241 29.952 124.289 30.256C124.417 31.328 124.721 32.192 125.169 32.864ZM130.503 33.792C130.855 33.792 131.127 33.696 131.319 33.472C131.511 33.264 131.623 32.896 131.623 32.384V27.632C131.623 27.248 131.543 26.992 131.383 26.832C131.223 26.672 130.951 26.592 130.567 26.576V26.368C131.591 26.304 132.471 26.096 133.207 25.744L133.351 25.824V27.568C133.479 27.072 133.719 26.64 134.071 26.272C134.423 25.92 134.823 25.728 135.303 25.728C135.671 25.728 135.975 25.856 136.215 26.08C136.439 26.32 136.567 26.592 136.567 26.896C136.567 27.168 136.471 27.392 136.311 27.584C136.151 27.776 135.927 27.856 135.655 27.856C135.463 27.856 135.319 27.824 135.207 27.728C135.095 27.648 134.999 27.536 134.935 27.408C134.871 27.28 134.807 27.152 134.775 27.024C134.711 26.896 134.663 26.816 134.615 26.752C134.551 26.704 134.487 26.672 134.391 26.672C134.135 26.672 133.911 26.832 133.719 27.12C133.527 27.424 133.399 27.776 133.351 28.176V32.384C133.351 32.896 133.479 33.264 133.735 33.472C133.991 33.696 134.343 33.792 134.807 33.792V34H130.503V33.792ZM138.302 33.6C137.742 33.232 137.31 32.72 137.006 32.08C136.686 31.44 136.542 30.752 136.542 29.984C136.542 29.184 136.702 28.464 137.054 27.824C137.406 27.184 137.87 26.672 138.478 26.288C139.07 25.92 139.726 25.728 140.43 25.728C141.038 25.728 141.582 25.872 142.03 26.144C142.478 26.432 142.83 26.8 143.07 27.264C143.31 27.744 143.438 28.256 143.438 28.8H138.238C138.222 28.864 138.222 28.96 138.222 29.072C138.222 29.824 138.334 30.48 138.574 31.056C138.798 31.632 139.134 32.08 139.566 32.4C139.998 32.72 140.51 32.864 141.086 32.864C141.726 32.864 142.27 32.672 142.718 32.288C143.166 31.904 143.454 31.408 143.582 30.768L143.806 30.8C143.71 31.44 143.486 32.016 143.166 32.528C142.846 33.04 142.43 33.44 141.918 33.728C141.406 34.016 140.846 34.16 140.238 34.16C139.502 34.16 138.862 33.984 138.302 33.6ZM141.054 28.528C141.278 28.528 141.454 28.48 141.55 28.368C141.646 28.256 141.71 28.064 141.71 27.808C141.71 27.36 141.582 26.944 141.358 26.56C141.118 26.176 140.766 25.968 140.302 25.968C139.822 25.968 139.374 26.224 138.99 26.72C138.59 27.232 138.35 27.824 138.254 28.528H141.054ZM147.811 33.792C148.307 33.792 148.691 33.696 148.963 33.488C149.235 33.28 149.379 32.912 149.379 32.384V25.68C149.379 25.344 149.299 25.104 149.171 24.944C149.027 24.784 148.787 24.704 148.467 24.704H147.443V24.48C148.275 24.464 149.027 24.288 149.683 23.968C150.323 23.648 150.739 23.152 150.931 22.48H151.187V32.384C151.187 32.912 151.315 33.28 151.587 33.488C151.859 33.696 152.243 33.792 152.755 33.792V34H147.811V33.792ZM154.747 33.776C154.555 33.568 154.475 33.248 154.475 32.8C154.475 31.856 154.795 30.72 155.435 29.408C156.075 28.096 156.875 26.656 157.835 25.088C158.091 24.64 158.267 24.352 158.347 24.224H155.323C154.683 24.224 154.187 24.288 153.835 24.4C153.483 24.528 153.227 24.72 153.051 24.976C152.859 25.248 152.715 25.632 152.603 26.128L152.379 26.096L153.003 22.8H159.467V23.072C158.507 24.544 157.739 25.952 157.179 27.264C156.619 28.576 156.347 29.936 156.347 31.344C156.347 31.824 156.363 32.224 156.427 32.576C156.443 32.752 156.459 32.864 156.459 32.912C156.459 33.296 156.363 33.584 156.171 33.792C155.979 34 155.739 34.096 155.483 34.096C155.163 34.096 154.923 34 154.747 33.776ZM159.143 33.808C158.935 33.584 158.839 33.312 158.839 32.96C158.839 32.64 158.935 32.384 159.143 32.16C159.351 31.952 159.623 31.84 159.959 31.84C160.279 31.84 160.551 31.952 160.759 32.16C160.967 32.384 161.079 32.64 161.079 32.96C161.079 33.312 160.967 33.584 160.759 33.808C160.551 34.032 160.279 34.128 159.959 34.128C159.623 34.128 159.351 34.032 159.143 33.808ZM159.143 28.656C158.935 28.432 158.839 28.16 158.839 27.808C158.839 27.488 158.935 27.232 159.143 27.008C159.351 26.8 159.623 26.688 159.959 26.688C160.279 26.688 160.551 26.8 160.759 27.008C160.967 27.232 161.079 27.488 161.079 27.808C161.079 28.16 160.967 28.432 160.759 28.656C160.551 28.88 160.279 28.976 159.959 28.976C159.623 28.976 159.351 28.88 159.143 28.656ZM164.233 33.456C163.593 32.992 163.097 32.32 162.729 31.44C162.361 30.56 162.185 29.536 162.185 28.352C162.185 27.168 162.361 26.128 162.745 25.264C163.113 24.4 163.609 23.76 164.217 23.312C164.825 22.864 165.497 22.64 166.217 22.64C166.921 22.64 167.593 22.88 168.201 23.328C168.809 23.776 169.305 24.448 169.673 25.312C170.025 26.176 170.217 27.2 170.217 28.384C170.217 29.584 170.025 30.624 169.673 31.488C169.321 32.352 168.841 33.024 168.249 33.472C167.657 33.936 167.017 34.16 166.329 34.16C165.561 34.16 164.857 33.936 164.233 33.456ZM165.017 32.56C165.433 33.424 165.945 33.84 166.569 33.84C166.633 33.84 166.713 33.84 166.825 33.808C167.321 33.712 167.705 33.248 167.961 32.4C168.217 31.552 168.361 30.512 168.361 29.296C168.361 28.688 168.329 28.08 168.265 27.472C168.105 26.112 167.833 25.024 167.449 24.208C167.049 23.392 166.537 22.976 165.929 22.976C165.849 22.976 165.753 22.992 165.625 23.008C165.113 23.12 164.713 23.6 164.457 24.432C164.201 25.264 164.073 26.288 164.073 27.488C164.073 28.096 164.105 28.688 164.169 29.28C164.313 30.624 164.601 31.712 165.017 32.56ZM173.264 33.456C172.624 32.992 172.128 32.32 171.76 31.44C171.392 30.56 171.216 29.536 171.216 28.352C171.216 27.168 171.392 26.128 171.776 25.264C172.144 24.4 172.64 23.76 173.248 23.312C173.856 22.864 174.528 22.64 175.248 22.64C175.952 22.64 176.624 22.88 177.232 23.328C177.84 23.776 178.336 24.448 178.704 25.312C179.056 26.176 179.248 27.2 179.248 28.384C179.248 29.584 179.056 30.624 178.704 31.488C178.352 32.352 177.872 33.024 177.28 33.472C176.688 33.936 176.048 34.16 175.36 34.16C174.592 34.16 173.888 33.936 173.264 33.456ZM174.048 32.56C174.464 33.424 174.976 33.84 175.6 33.84C175.664 33.84 175.744 33.84 175.856 33.808C176.352 33.712 176.736 33.248 176.992 32.4C177.248 31.552 177.392 30.512 177.392 29.296C177.392 28.688 177.36 28.08 177.296 27.472C177.136 26.112 176.864 25.024 176.48 24.208C176.08 23.392 175.568 22.976 174.96 22.976C174.88 22.976 174.784 22.992 174.656 23.008C174.144 23.12 173.744 23.6 173.488 24.432C173.232 25.264 173.104 26.288 173.104 27.488C173.104 28.096 173.136 28.688 173.2 29.28C173.344 30.624 173.632 31.712 174.048 32.56Z" fill="black"/>
</svg>
