<svg viewBox="0 0 213 39" fill="none" xmlns="http://www.w3.org/2000/svg">
<path d="M0.932398 13.766C1.3284 13.766 1.6524 13.658 1.8684 13.424C2.0844 13.19 2.1924 12.776 2.1924 12.182V3.218C2.1924 2.642 2.0664 2.246 1.8504 1.994C1.6344 1.76 1.3284 1.634 0.932398 1.634V1.4H5.5404V1.634C5.1264 1.634 4.8204 1.76 4.6044 1.994C4.3884 2.228 4.2804 2.642 4.2804 3.218L4.2984 12.182C4.2984 12.776 4.4064 13.19 4.6224 13.424C4.8384 13.658 5.1444 13.766 5.5584 13.766V14H0.932398V13.766ZM11.8822 13.766C12.2782 13.766 12.6022 13.676 12.8362 13.496C13.0702 13.316 13.1962 13.01 13.1962 12.56C13.1962 12.416 13.1782 12.29 13.1782 12.2L12.6202 8.078C12.4042 6.548 11.7742 5.774 10.7482 5.774C10.2802 5.774 9.86616 5.972 9.54216 6.35C9.21816 6.746 9.02016 7.196 8.98416 7.736V12.182C8.98416 12.776 9.09216 13.19 9.30816 13.424C9.52416 13.658 9.83016 13.766 10.2442 13.766V14H5.78016V13.766C6.17616 13.766 6.48216 13.658 6.69816 13.406C6.91416 13.172 7.04016 12.758 7.04016 12.182V6.836C7.04016 6.404 6.93216 6.116 6.75216 5.936C6.57216 5.756 6.26616 5.666 5.85216 5.648V5.414C7.00416 5.342 7.99416 5.108 8.82216 4.712L8.98416 4.802V6.962C9.14616 6.314 9.47016 5.774 9.95616 5.342C10.4422 4.91 11.0182 4.694 11.7022 4.694C12.4762 4.694 13.1062 4.982 13.6102 5.522C14.0962 6.062 14.4202 6.908 14.5822 8.024L15.1942 12.2C15.2662 12.776 15.4102 13.19 15.6442 13.424C15.8602 13.658 16.1662 13.766 16.5622 13.766V14H11.8822V13.766ZM22.6291 13.658C22.3411 13.334 22.1611 12.866 22.0891 12.272L22.0351 11.876C21.9631 12.272 21.7831 12.65 21.5311 12.992C21.2611 13.352 20.9191 13.64 20.5051 13.856C20.0731 14.072 19.6051 14.18 19.0831 14.18C18.3271 14.18 17.6971 13.964 17.2111 13.532C16.7251 13.1 16.4911 12.542 16.4911 11.858C16.4911 11.246 16.6891 10.742 17.1211 10.346C17.5531 9.95 18.1651 9.716 18.9571 9.644L21.6931 9.428L21.5671 8.51C21.4591 7.664 21.2071 6.998 20.8111 6.512C20.4151 6.044 19.8931 5.792 19.2451 5.792C18.7231 5.792 18.2731 5.954 17.8771 6.242C17.4811 6.53 17.1931 6.926 16.9951 7.412L16.7611 7.358C16.8691 6.926 17.0851 6.494 17.4091 6.08C17.7331 5.684 18.1291 5.342 18.6151 5.09C19.1011 4.838 19.6411 4.694 20.2351 4.694C21.1351 4.694 21.8731 4.982 22.4311 5.558C22.9891 6.134 23.3311 6.962 23.4751 8.024L23.9971 12.002C24.0871 12.686 24.3211 13.01 24.7171 13.01C24.8251 13.01 24.9331 12.974 25.0231 12.866C25.1131 12.776 25.1671 12.65 25.2031 12.488L25.4191 12.506C25.3831 12.938 25.2391 13.316 24.9511 13.64C24.6631 13.982 24.2851 14.144 23.8171 14.144C23.3131 14.144 22.9171 13.982 22.6291 13.658ZM18.7771 12.632C19.0831 12.956 19.4971 13.118 20.0371 13.118C20.5771 13.118 21.0271 12.956 21.3871 12.632C21.7291 12.308 21.9271 11.912 21.9811 11.462L21.7291 9.698L19.9651 9.842C19.4251 9.896 19.0111 10.076 18.7231 10.364C18.4351 10.652 18.3091 11.03 18.3091 11.462C18.3091 11.93 18.4531 12.308 18.7771 12.632ZM27.5147 13.766C27.0647 13.478 26.7227 13.064 26.4707 12.524C26.2187 11.984 26.0927 11.336 26.0927 10.598V6.836C26.0927 6.404 25.9847 6.116 25.8047 5.936C25.6247 5.756 25.3187 5.666 24.9047 5.648V5.414C26.0567 5.342 27.0467 5.108 27.8747 4.712L28.0367 4.802V10.4C28.0367 11.228 28.1807 11.894 28.5047 12.362C28.8107 12.848 29.2787 13.082 29.9087 13.082C30.4487 13.082 30.8627 12.902 31.1687 12.524C31.4747 12.146 31.6547 11.696 31.7087 11.192V6.836C31.7087 6.404 31.6007 6.116 31.4207 5.936C31.2407 5.756 30.9347 5.666 30.5207 5.648V5.414C31.6727 5.342 32.6627 5.108 33.4907 4.712L33.6527 4.802V12.308C33.6527 12.704 33.7427 12.974 33.9227 13.118C34.1027 13.262 34.4267 13.316 34.8587 13.298V13.532C33.6887 13.676 32.6987 13.91 31.8887 14.216L31.7087 14.108V12.056C31.5107 12.632 31.1867 13.136 30.7367 13.568C30.2687 14 29.7107 14.198 29.0267 14.198C28.4507 14.198 27.9467 14.054 27.5147 13.766ZM36.8289 17.42C36.3069 17.204 35.9109 16.916 35.6409 16.556C35.3709 16.214 35.2449 15.854 35.2449 15.476C35.2449 15.224 35.4069 14.972 35.7309 14.72C36.0549 14.486 36.5049 14.234 37.0809 13.982C36.5949 13.874 36.2169 13.676 35.9469 13.352C35.6769 13.028 35.5509 12.668 35.5509 12.254C35.5509 12.11 35.5689 11.984 35.6409 11.912C35.6949 11.84 35.8389 11.714 36.0729 11.552L36.5049 11.246L37.2429 10.688C36.6669 10.436 36.2169 10.058 35.8929 9.572C35.5689 9.104 35.4069 8.546 35.4069 7.916C35.4069 7.286 35.5689 6.728 35.8929 6.224C36.2169 5.72 36.6849 5.342 37.2789 5.054C37.8549 4.784 38.5389 4.64 39.2949 4.64C39.5289 4.64 39.8709 4.676 40.3389 4.748C40.9509 4.838 41.4549 4.874 41.8869 4.874H43.7589L43.4529 5.594L41.7069 5.558C42.1389 5.864 42.4629 6.224 42.6969 6.638C42.9129 7.07 43.0389 7.502 43.0389 7.97C43.0389 8.582 42.8769 9.14 42.5529 9.608C42.2289 10.076 41.7969 10.454 41.2209 10.706C40.6449 10.976 39.9969 11.102 39.2409 11.102C38.5749 11.102 37.9809 10.994 37.4589 10.778C37.2069 10.994 37.0269 11.174 36.9549 11.282C36.8649 11.39 36.8289 11.498 36.8289 11.57C36.8289 12.056 37.1889 12.29 37.9089 12.29H41.2929C42.0129 12.29 42.5709 12.416 42.9849 12.668C43.3989 12.92 43.6149 13.352 43.6149 13.964C43.6149 14.576 43.3809 15.17 42.9489 15.746C42.5169 16.34 41.9049 16.826 41.1489 17.204C40.3929 17.582 39.5469 17.762 38.6289 17.762C37.9449 17.762 37.3329 17.654 36.8289 17.42ZM37.6929 16.304C38.1969 16.628 38.8629 16.79 39.6909 16.79C40.3389 16.79 40.8969 16.7 41.4009 16.502C41.8869 16.322 42.2649 16.07 42.5349 15.782C42.8049 15.494 42.9489 15.188 42.9489 14.882C42.9489 14.63 42.8409 14.414 42.6249 14.27C42.4089 14.126 42.1029 14.036 41.6889 14.036H37.6929H37.4769C37.2609 14.216 37.0809 14.396 36.9729 14.558C36.8649 14.72 36.8109 14.918 36.8289 15.134C36.8829 15.602 37.1709 15.98 37.6929 16.304ZM37.8729 9.914C38.2869 10.508 38.8269 10.796 39.4749 10.796C39.9969 10.796 40.4109 10.562 40.7349 10.058C41.0409 9.554 41.2029 8.942 41.2029 8.204C41.2029 7.628 41.0949 7.106 40.9149 6.602C40.7349 6.098 40.4649 5.702 40.1409 5.396C39.8169 5.108 39.4389 4.946 39.0429 4.946C38.4669 4.946 38.0349 5.216 37.7289 5.756C37.4049 6.296 37.2609 6.908 37.2609 7.628C37.2609 8.564 37.4589 9.338 37.8729 9.914ZM46.4815 13.766C46.0315 13.478 45.6895 13.064 45.4375 12.524C45.1855 11.984 45.0595 11.336 45.0595 10.598V6.836C45.0595 6.404 44.9515 6.116 44.7715 5.936C44.5915 5.756 44.2855 5.666 43.8715 5.648V5.414C45.0235 5.342 46.0135 5.108 46.8415 4.712L47.0035 4.802V10.4C47.0035 11.228 47.1475 11.894 47.4715 12.362C47.7775 12.848 48.2455 13.082 48.8755 13.082C49.4155 13.082 49.8295 12.902 50.1355 12.524C50.4415 12.146 50.6215 11.696 50.6755 11.192V6.836C50.6755 6.404 50.5675 6.116 50.3875 5.936C50.2075 5.756 49.9015 5.666 49.4875 5.648V5.414C50.6395 5.342 51.6295 5.108 52.4575 4.712L52.6195 4.802V12.308C52.6195 12.704 52.7095 12.974 52.8895 13.118C53.0695 13.262 53.3935 13.316 53.8255 13.298V13.532C52.6555 13.676 51.6655 13.91 50.8555 14.216L50.6755 14.108V12.056C50.4775 12.632 50.1535 13.136 49.7035 13.568C49.2355 14 48.6775 14.198 47.9935 14.198C47.4175 14.198 46.9135 14.054 46.4815 13.766ZM53.997 13.766C54.393 13.766 54.699 13.658 54.915 13.406C55.131 13.172 55.257 12.758 55.257 12.182V6.836C55.257 6.404 55.167 6.116 54.987 5.936C54.807 5.756 54.501 5.666 54.069 5.648V5.414C55.221 5.342 56.211 5.108 57.039 4.712L57.201 4.802V6.764C57.345 6.206 57.615 5.72 58.011 5.306C58.407 4.91 58.857 4.694 59.397 4.694C59.811 4.694 60.153 4.838 60.423 5.09C60.675 5.36 60.819 5.666 60.819 6.008C60.819 6.314 60.711 6.566 60.531 6.782C60.351 6.998 60.099 7.088 59.793 7.088C59.577 7.088 59.415 7.052 59.289 6.944C59.163 6.854 59.055 6.728 58.983 6.584C58.911 6.44 58.839 6.296 58.803 6.152C58.731 6.008 58.677 5.918 58.623 5.846C58.551 5.792 58.479 5.756 58.371 5.756C58.083 5.756 57.831 5.936 57.615 6.26C57.399 6.602 57.255 6.998 57.201 7.448V12.182C57.201 12.758 57.345 13.172 57.633 13.406C57.921 13.658 58.317 13.766 58.839 13.766V14H53.997V13.766ZM67.0315 13.658C66.7435 13.334 66.5635 12.866 66.4915 12.272L66.4375 11.876C66.3655 12.272 66.1855 12.65 65.9335 12.992C65.6635 13.352 65.3215 13.64 64.9075 13.856C64.4755 14.072 64.0075 14.18 63.4855 14.18C62.7295 14.18 62.0995 13.964 61.6135 13.532C61.1275 13.1 60.8935 12.542 60.8935 11.858C60.8935 11.246 61.0915 10.742 61.5235 10.346C61.9555 9.95 62.5675 9.716 63.3595 9.644L66.0955 9.428L65.9695 8.51C65.8615 7.664 65.6095 6.998 65.2135 6.512C64.8175 6.044 64.2955 5.792 63.6475 5.792C63.1255 5.792 62.6755 5.954 62.2795 6.242C61.8835 6.53 61.5955 6.926 61.3975 7.412L61.1635 7.358C61.2715 6.926 61.4875 6.494 61.8115 6.08C62.1355 5.684 62.5315 5.342 63.0175 5.09C63.5035 4.838 64.0435 4.694 64.6375 4.694C65.5375 4.694 66.2755 4.982 66.8335 5.558C67.3915 6.134 67.7335 6.962 67.8775 8.024L68.3995 12.002C68.4895 12.686 68.7235 13.01 69.1195 13.01C69.2275 13.01 69.3355 12.974 69.4255 12.866C69.5155 12.776 69.5695 12.65 69.6055 12.488L69.8215 12.506C69.7855 12.938 69.6415 13.316 69.3535 13.64C69.0655 13.982 68.6875 14.144 68.2195 14.144C67.7155 14.144 67.3195 13.982 67.0315 13.658ZM63.1795 12.632C63.4855 12.956 63.8995 13.118 64.4395 13.118C64.9795 13.118 65.4295 12.956 65.7895 12.632C66.1315 12.308 66.3295 11.912 66.3835 11.462L66.1315 9.698L64.3675 9.842C63.8275 9.896 63.4135 10.076 63.1255 10.364C62.8375 10.652 62.7115 11.03 62.7115 11.462C62.7115 11.93 62.8555 12.308 63.1795 12.632ZM74.9142 5.108H73.0242C72.5922 5.108 72.1782 5.27 71.7822 5.594C71.3862 5.918 71.0442 6.314 70.7562 6.782C70.4682 7.25 70.2702 7.718 70.1802 8.15L69.9462 8.114L70.5042 4.874H77.2722L72.1962 13.766H74.0502C74.5002 13.766 74.9502 13.622 75.3822 13.334C75.8142 13.046 76.2102 12.65 76.5342 12.164C76.8582 11.678 77.0742 11.156 77.2002 10.598L77.4522 10.634L76.8942 14H69.8562L74.9142 5.108ZM78.897 2.966C78.663 2.714 78.555 2.408 78.555 2.012C78.555 1.652 78.663 1.364 78.897 1.13C79.131 0.895999 79.437 0.77 79.815 0.77C80.193 0.77 80.499 0.895999 80.733 1.13C80.967 1.364 81.093 1.652 81.093 2.012C81.093 2.408 80.967 2.714 80.733 2.966C80.499 3.218 80.193 3.326 79.815 3.326C79.437 3.326 79.131 3.218 78.897 2.966ZM77.745 13.766C78.141 13.766 78.447 13.658 78.663 13.406C78.879 13.172 79.005 12.758 79.005 12.182V6.836C79.005 6.404 78.897 6.116 78.717 5.936C78.537 5.756 78.231 5.666 77.817 5.648V5.414C78.969 5.342 79.959 5.108 80.787 4.712L80.949 4.802V12.182C80.949 12.776 81.057 13.19 81.273 13.424C81.489 13.658 81.795 13.766 82.209 13.766V14H77.745V13.766ZM84.5566 13.55C83.8546 13.136 83.2966 12.56 82.9006 11.822C82.4866 11.102 82.2886 10.292 82.2886 9.392C82.2886 8.474 82.4866 7.664 82.9006 6.944C83.2966 6.224 83.8546 5.684 84.5566 5.288C85.2406 4.892 85.9966 4.694 86.8246 4.694C87.6526 4.694 88.4086 4.91 89.0926 5.306C89.7766 5.72 90.3346 6.278 90.7486 6.998C91.1446 7.718 91.3606 8.528 91.3606 9.428C91.3606 10.346 91.1626 11.174 90.7666 11.894C90.3706 12.614 89.8126 13.19 89.1286 13.586C88.4446 13.982 87.6886 14.18 86.8606 14.18C86.0146 14.18 85.2406 13.982 84.5566 13.55ZM85.3846 12.722C85.8886 13.478 86.5006 13.838 87.1846 13.838C87.8686 13.838 88.3906 13.514 88.7686 12.848C89.1286 12.2 89.3266 11.336 89.3266 10.274C89.3266 9.932 89.2906 9.5 89.2366 8.996C89.0746 7.808 88.7506 6.854 88.2466 6.134C87.7426 5.414 87.1666 5.036 86.5006 5.036C85.7986 5.036 85.2586 5.378 84.8806 6.044C84.5026 6.728 84.3226 7.592 84.3226 8.636C84.3226 9.068 84.3406 9.446 84.3946 9.788C84.5386 10.994 84.8806 11.966 85.3846 12.722ZM97.4876 13.766C97.8836 13.766 98.2076 13.676 98.4416 13.496C98.6756 13.316 98.8016 13.01 98.8016 12.56C98.8016 12.416 98.7836 12.29 98.7836 12.2L98.2256 8.078C98.0096 6.548 97.3796 5.774 96.3536 5.774C95.8856 5.774 95.4716 5.972 95.1476 6.35C94.8236 6.746 94.6256 7.196 94.5896 7.736V12.182C94.5896 12.776 94.6976 13.19 94.9136 13.424C95.1296 13.658 95.4356 13.766 95.8496 13.766V14H91.3856V13.766C91.7816 13.766 92.0876 13.658 92.3036 13.406C92.5196 13.172 92.6456 12.758 92.6456 12.182V6.836C92.6456 6.404 92.5376 6.116 92.3576 5.936C92.1776 5.756 91.8716 5.666 91.4576 5.648V5.414C92.6096 5.342 93.5996 5.108 94.4276 4.712L94.5896 4.802V6.962C94.7516 6.314 95.0756 5.774 95.5616 5.342C96.0476 4.91 96.6236 4.694 97.3076 4.694C98.0816 4.694 98.7116 4.982 99.2156 5.522C99.7016 6.062 100.026 6.908 100.188 8.024L100.8 12.2C100.872 12.776 101.016 13.19 101.25 13.424C101.466 13.658 101.772 13.766 102.168 13.766V14H97.4876V13.766ZM103.939 13.55C103.309 13.136 102.823 12.56 102.481 11.84C102.121 11.12 101.959 10.346 101.959 9.482C101.959 8.582 102.139 7.772 102.535 7.052C102.931 6.332 103.453 5.756 104.137 5.324C104.803 4.91 105.541 4.694 106.333 4.694C107.017 4.694 107.629 4.856 108.133 5.162C108.637 5.486 109.033 5.9 109.303 6.422C109.573 6.962 109.717 7.538 109.717 8.15H103.867C103.849 8.222 103.849 8.33 103.849 8.456C103.849 9.302 103.975 10.04 104.245 10.688C104.497 11.336 104.875 11.84 105.361 12.2C105.847 12.56 106.423 12.722 107.071 12.722C107.791 12.722 108.403 12.506 108.907 12.074C109.411 11.642 109.735 11.084 109.879 10.364L110.131 10.4C110.023 11.12 109.771 11.768 109.411 12.344C109.051 12.92 108.583 13.37 108.007 13.694C107.431 14.018 106.801 14.18 106.117 14.18C105.289 14.18 104.569 13.982 103.939 13.55ZM107.035 7.844C107.287 7.844 107.485 7.79 107.593 7.664C107.701 7.538 107.773 7.322 107.773 7.034C107.773 6.53 107.629 6.062 107.377 5.63C107.107 5.198 106.711 4.964 106.189 4.964C105.649 4.964 105.145 5.252 104.713 5.81C104.263 6.386 103.993 7.052 103.885 7.844H107.035ZM116.274 13.568C115.698 13.172 115.266 12.614 114.942 11.894C114.618 11.192 114.474 10.4 114.474 9.536C114.474 8.672 114.654 7.862 115.032 7.124C115.392 6.404 115.914 5.81 116.562 5.378C117.21 4.946 117.912 4.73 118.704 4.73C119.64 4.73 120.432 5.09 121.044 5.81V2.822C121.044 2.39 120.954 2.084 120.774 1.904C120.594 1.724 120.288 1.634 119.874 1.634V1.4C121.026 1.328 122.016 1.094 122.826 0.698L123.006 0.788V12.308C123.006 12.704 123.096 12.974 123.276 13.118C123.456 13.262 123.762 13.316 124.194 13.298V13.532C123.006 13.676 122.034 13.91 121.242 14.216L121.044 14.108V12.236C120.864 12.722 120.522 13.172 120.018 13.568C119.496 13.982 118.884 14.18 118.164 14.18C117.462 14.18 116.832 13.982 116.274 13.568ZM116.886 11.156C117.12 11.804 117.444 12.272 117.858 12.596C118.254 12.92 118.704 13.082 119.19 13.082C119.622 13.082 120.018 12.956 120.342 12.704C120.666 12.452 120.9 12.11 121.044 11.678V8.798C121.044 7.79 120.846 6.908 120.45 6.17C120.054 5.45 119.514 5.072 118.848 5.072C118.38 5.072 117.984 5.252 117.624 5.576C117.264 5.9 116.994 6.35 116.814 6.926C116.616 7.502 116.526 8.15 116.526 8.87C116.526 9.77 116.634 10.526 116.886 11.156ZM126.351 13.55C125.721 13.136 125.235 12.56 124.893 11.84C124.533 11.12 124.371 10.346 124.371 9.482C124.371 8.582 124.551 7.772 124.947 7.052C125.343 6.332 125.865 5.756 126.549 5.324C127.215 4.91 127.953 4.694 128.745 4.694C129.429 4.694 130.041 4.856 130.545 5.162C131.049 5.486 131.445 5.9 131.715 6.422C131.985 6.962 132.129 7.538 132.129 8.15H126.279C126.261 8.222 126.261 8.33 126.261 8.456C126.261 9.302 126.387 10.04 126.657 10.688C126.909 11.336 127.287 11.84 127.773 12.2C128.259 12.56 128.835 12.722 129.483 12.722C130.203 12.722 130.815 12.506 131.319 12.074C131.823 11.642 132.147 11.084 132.291 10.364L132.543 10.4C132.435 11.12 132.183 11.768 131.823 12.344C131.463 12.92 130.995 13.37 130.419 13.694C129.843 14.018 129.213 14.18 128.529 14.18C127.701 14.18 126.981 13.982 126.351 13.55ZM129.447 7.844C129.699 7.844 129.897 7.79 130.005 7.664C130.113 7.538 130.185 7.322 130.185 7.034C130.185 6.53 130.041 6.062 129.789 5.63C129.519 5.198 129.123 4.964 128.601 4.964C128.061 4.964 127.557 5.252 127.125 5.81C126.675 6.386 126.405 7.052 126.297 7.844H129.447ZM132.413 13.766C132.809 13.766 133.115 13.658 133.331 13.406C133.547 13.172 133.673 12.758 133.673 12.182L133.727 2.822C133.727 2.39 133.619 2.084 133.439 1.904C133.259 1.724 132.953 1.634 132.539 1.634V1.4C133.691 1.328 134.681 1.094 135.509 0.698L135.671 0.788V12.182C135.671 12.758 135.779 13.172 135.995 13.406C136.211 13.658 136.535 13.766 136.931 13.766V14H132.413V13.766ZM136.948 13.766C137.344 13.766 137.65 13.658 137.866 13.406C138.082 13.172 138.208 12.758 138.208 12.182L138.262 2.822C138.262 2.39 138.154 2.084 137.974 1.904C137.794 1.724 137.488 1.634 137.074 1.634V1.4C138.226 1.328 139.216 1.094 140.044 0.698L140.206 0.788V12.182C140.206 12.758 140.314 13.172 140.53 13.406C140.746 13.658 141.07 13.766 141.466 13.766V14H136.948V13.766ZM147.768 13.658C147.48 13.334 147.3 12.866 147.228 12.272L147.174 11.876C147.102 12.272 146.922 12.65 146.67 12.992C146.4 13.352 146.058 13.64 145.644 13.856C145.212 14.072 144.744 14.18 144.222 14.18C143.466 14.18 142.836 13.964 142.35 13.532C141.864 13.1 141.63 12.542 141.63 11.858C141.63 11.246 141.828 10.742 142.26 10.346C142.692 9.95 143.304 9.716 144.096 9.644L146.832 9.428L146.706 8.51C146.598 7.664 146.346 6.998 145.95 6.512C145.554 6.044 145.032 5.792 144.384 5.792C143.862 5.792 143.412 5.954 143.016 6.242C142.62 6.53 142.332 6.926 142.134 7.412L141.9 7.358C142.008 6.926 142.224 6.494 142.548 6.08C142.872 5.684 143.268 5.342 143.754 5.09C144.24 4.838 144.78 4.694 145.374 4.694C146.274 4.694 147.012 4.982 147.57 5.558C148.128 6.134 148.47 6.962 148.614 8.024L149.136 12.002C149.226 12.686 149.46 13.01 149.856 13.01C149.964 13.01 150.072 12.974 150.162 12.866C150.252 12.776 150.306 12.65 150.342 12.488L150.558 12.506C150.522 12.938 150.378 13.316 150.09 13.64C149.802 13.982 149.424 14.144 148.956 14.144C148.452 14.144 148.056 13.982 147.768 13.658ZM143.916 12.632C144.222 12.956 144.636 13.118 145.176 13.118C145.716 13.118 146.166 12.956 146.526 12.632C146.868 12.308 147.066 11.912 147.12 11.462L146.868 9.698L145.104 9.842C144.564 9.896 144.15 10.076 143.862 10.364C143.574 10.652 143.448 11.03 143.448 11.462C143.448 11.93 143.592 12.308 143.916 12.632ZM166.016 13.766C166.448 13.766 166.772 13.676 167.024 13.496C167.258 13.316 167.384 13.01 167.384 12.56C167.384 12.416 167.366 12.29 167.366 12.2L166.79 8.078C166.574 6.548 165.944 5.774 164.918 5.774C164.414 5.774 164 5.954 163.694 6.296C163.388 6.638 163.208 7.07 163.136 7.574C163.154 7.826 163.172 8.006 163.172 8.15V12.182C163.172 12.758 163.28 13.172 163.496 13.406C163.712 13.658 164.036 13.766 164.432 13.766V14H160.04V13.766C160.418 13.766 160.706 13.658 160.922 13.424C161.138 13.19 161.246 12.776 161.246 12.182V8.456C161.246 7.592 161.066 6.926 160.742 6.458C160.418 5.99 159.95 5.756 159.356 5.756C158.87 5.756 158.456 5.936 158.114 6.26C157.754 6.602 157.556 6.998 157.502 7.448V12.182C157.502 12.776 157.592 13.19 157.808 13.424C158.024 13.658 158.312 13.766 158.708 13.766V14H154.298V13.766C154.694 13.766 155 13.658 155.216 13.406C155.432 13.172 155.558 12.758 155.558 12.182V6.836C155.558 6.404 155.45 6.116 155.27 5.936C155.09 5.756 154.784 5.666 154.37 5.648V5.414C155.522 5.342 156.512 5.108 157.34 4.712L157.502 4.802V6.728C157.682 6.17 158.024 5.684 158.528 5.288C159.014 4.892 159.572 4.694 160.22 4.694C160.904 4.694 161.498 4.91 162.002 5.306C162.506 5.702 162.866 6.278 163.046 6.998C163.19 6.35 163.514 5.81 164.018 5.36C164.504 4.928 165.098 4.694 165.8 4.694C167.438 4.694 168.428 5.81 168.752 8.024L169.364 12.2C169.436 12.776 169.598 13.19 169.85 13.424C170.084 13.658 170.408 13.766 170.804 13.766V14H166.016V13.766ZM172.781 13.55C172.079 13.136 171.521 12.56 171.125 11.822C170.711 11.102 170.513 10.292 170.513 9.392C170.513 8.474 170.711 7.664 171.125 6.944C171.521 6.224 172.079 5.684 172.781 5.288C173.465 4.892 174.221 4.694 175.049 4.694C175.877 4.694 176.633 4.91 177.317 5.306C178.001 5.72 178.559 6.278 178.973 6.998C179.369 7.718 179.585 8.528 179.585 9.428C179.585 10.346 179.387 11.174 178.991 11.894C178.595 12.614 178.037 13.19 177.353 13.586C176.669 13.982 175.913 14.18 175.085 14.18C174.239 14.18 173.465 13.982 172.781 13.55ZM173.609 12.722C174.113 13.478 174.725 13.838 175.409 13.838C176.093 13.838 176.615 13.514 176.993 12.848C177.353 12.2 177.551 11.336 177.551 10.274C177.551 9.932 177.515 9.5 177.461 8.996C177.299 7.808 176.975 6.854 176.471 6.134C175.967 5.414 175.391 5.036 174.725 5.036C174.023 5.036 173.483 5.378 173.105 6.044C172.727 6.728 172.547 7.592 172.547 8.636C172.547 9.068 172.565 9.446 172.619 9.788C172.763 10.994 173.105 11.966 173.609 12.722ZM180.497 10.418L180.731 10.364C181.019 11.282 181.433 12.092 181.973 12.794C182.513 13.514 183.215 13.874 184.115 13.874C184.673 13.874 185.123 13.73 185.447 13.442C185.771 13.154 185.951 12.776 185.969 12.326C185.969 11.894 185.807 11.516 185.501 11.228C185.177 10.94 184.673 10.67 183.953 10.418L182.873 9.986C182.117 9.698 181.559 9.356 181.163 8.924C180.767 8.492 180.587 7.952 180.587 7.304C180.587 6.836 180.713 6.386 181.001 5.99C181.271 5.594 181.649 5.288 182.135 5.054C182.621 4.838 183.161 4.712 183.737 4.712C184.205 4.712 184.745 4.82 185.339 5.018C185.663 5.126 185.879 5.162 185.987 5.162C186.239 5.162 186.437 4.982 186.545 4.604L186.797 4.586L187.031 8.114L186.779 8.15C186.635 7.682 186.419 7.214 186.131 6.728C185.843 6.242 185.483 5.828 185.069 5.486C184.637 5.162 184.187 4.982 183.701 4.982C183.215 4.982 182.819 5.126 182.531 5.414C182.243 5.702 182.099 6.062 182.099 6.458C182.099 6.854 182.243 7.214 182.549 7.502C182.855 7.79 183.341 8.06 183.989 8.276L185.051 8.708C185.861 9.014 186.455 9.374 186.851 9.788C187.247 10.202 187.445 10.706 187.445 11.3C187.445 11.894 187.283 12.398 186.995 12.83C186.689 13.262 186.293 13.604 185.807 13.82C185.321 14.054 184.799 14.162 184.241 14.162C183.917 14.162 183.611 14.144 183.359 14.09C183.089 14.036 182.783 13.964 182.441 13.856C182.063 13.748 181.811 13.694 181.685 13.694C181.541 13.694 181.415 13.748 181.325 13.82C181.235 13.892 181.145 14.018 181.073 14.198L180.803 14.216L180.497 10.418ZM189.585 13.352C189.153 12.794 188.937 12.074 188.937 11.174V5.594H187.803V5.342C188.541 5.27 189.171 5.018 189.675 4.55C190.179 4.082 190.503 3.452 190.647 2.642H190.899V4.874H193.581L193.275 5.594H190.899V10.976C190.899 11.588 191.025 12.092 191.277 12.47C191.529 12.866 191.889 13.046 192.339 13.046C192.699 13.046 192.987 12.938 193.221 12.686C193.455 12.434 193.617 12.128 193.707 11.75L193.923 11.786C193.833 12.47 193.563 13.028 193.131 13.496C192.681 13.964 192.141 14.18 191.529 14.18C190.665 14.18 190.017 13.91 189.585 13.352ZM193.901 13.766C194.297 13.766 194.603 13.658 194.819 13.406C195.035 13.172 195.161 12.758 195.161 12.182V6.836C195.161 6.404 195.071 6.116 194.891 5.936C194.711 5.756 194.405 5.666 193.973 5.648V5.414C195.125 5.342 196.115 5.108 196.943 4.712L197.105 4.802V6.764C197.249 6.206 197.519 5.72 197.915 5.306C198.311 4.91 198.761 4.694 199.301 4.694C199.715 4.694 200.057 4.838 200.327 5.09C200.579 5.36 200.723 5.666 200.723 6.008C200.723 6.314 200.615 6.566 200.435 6.782C200.255 6.998 200.003 7.088 199.697 7.088C199.481 7.088 199.319 7.052 199.193 6.944C199.067 6.854 198.959 6.728 198.887 6.584C198.815 6.44 198.743 6.296 198.707 6.152C198.635 6.008 198.581 5.918 198.527 5.846C198.455 5.792 198.383 5.756 198.275 5.756C197.987 5.756 197.735 5.936 197.519 6.26C197.303 6.602 197.159 6.998 197.105 7.448V12.182C197.105 12.758 197.249 13.172 197.537 13.406C197.825 13.658 198.221 13.766 198.743 13.766V14H193.901V13.766ZM206.936 13.658C206.648 13.334 206.468 12.866 206.396 12.272L206.342 11.876C206.27 12.272 206.09 12.65 205.838 12.992C205.568 13.352 205.226 13.64 204.812 13.856C204.38 14.072 203.912 14.18 203.39 14.18C202.634 14.18 202.004 13.964 201.518 13.532C201.032 13.1 200.798 12.542 200.798 11.858C200.798 11.246 200.996 10.742 201.428 10.346C201.86 9.95 202.472 9.716 203.264 9.644L206 9.428L205.874 8.51C205.766 7.664 205.514 6.998 205.118 6.512C204.722 6.044 204.2 5.792 203.552 5.792C203.03 5.792 202.58 5.954 202.184 6.242C201.788 6.53 201.5 6.926 201.302 7.412L201.068 7.358C201.176 6.926 201.392 6.494 201.716 6.08C202.04 5.684 202.436 5.342 202.922 5.09C203.408 4.838 203.948 4.694 204.542 4.694C205.442 4.694 206.18 4.982 206.738 5.558C207.296 6.134 207.638 6.962 207.782 8.024L208.304 12.002C208.394 12.686 208.628 13.01 209.024 13.01C209.132 13.01 209.24 12.974 209.33 12.866C209.42 12.776 209.474 12.65 209.51 12.488L209.726 12.506C209.69 12.938 209.546 13.316 209.258 13.64C208.97 13.982 208.592 14.144 208.124 14.144C207.62 14.144 207.224 13.982 206.936 13.658ZM203.084 12.632C203.39 12.956 203.804 13.118 204.344 13.118C204.884 13.118 205.334 12.956 205.694 12.632C206.036 12.308 206.234 11.912 206.288 11.462L206.036 9.698L204.272 9.842C203.732 9.896 203.318 10.076 203.03 10.364C202.742 10.652 202.616 11.03 202.616 11.462C202.616 11.93 202.76 12.308 203.084 12.632ZM210.67 13.784C210.436 13.532 210.328 13.226 210.328 12.83C210.328 12.47 210.436 12.182 210.67 11.93C210.904 11.696 211.21 11.57 211.588 11.57C211.948 11.57 212.254 11.696 212.488 11.93C212.722 12.182 212.848 12.47 212.848 12.83C212.848 13.226 212.722 13.532 212.488 13.784C212.254 14.036 211.948 14.144 211.588 14.144C211.21 14.144 210.904 14.036 210.67 13.784ZM210.67 7.988C210.436 7.736 210.328 7.43 210.328 7.034C210.328 6.674 210.436 6.386 210.67 6.134C210.904 5.9 211.21 5.774 211.588 5.774C211.948 5.774 212.254 5.9 212.488 6.134C212.722 6.386 212.848 6.674 212.848 7.034C212.848 7.43 212.722 7.736 212.488 7.988C212.254 8.24 211.948 8.348 211.588 8.348C211.21 8.348 210.904 8.24 210.67 7.988ZM15.6179 30.924C16.4279 29.628 16.8419 28.368 16.8419 27.18C16.8419 26.226 16.6079 25.506 16.1759 25.02C15.7259 24.552 15.1859 24.3 14.5739 24.3C14.0159 24.3 13.5299 24.498 13.1159 24.894C12.6839 25.29 12.4139 25.758 12.2879 26.334L12.0179 26.298C12.1079 25.758 12.3239 25.236 12.6659 24.768C12.9899 24.3 13.4219 23.922 13.9259 23.634C14.4299 23.346 14.9699 23.202 15.5819 23.202C16.1759 23.202 16.7339 23.364 17.2379 23.652C17.7419 23.94 18.1559 24.354 18.4619 24.894C18.7679 25.434 18.9299 26.028 18.9299 26.694C18.9299 27.522 18.7139 28.332 18.2819 29.088C17.8499 29.862 17.2559 30.618 16.5179 31.374C15.7799 32.13 14.6999 33.138 13.2959 34.398H16.2839C16.9859 34.398 17.5259 34.344 17.8859 34.236C18.2459 34.128 18.5159 33.93 18.7139 33.642C18.8939 33.372 19.0739 32.94 19.2539 32.328L19.4699 32.382L18.7679 36H11.6759V35.676C13.4939 33.804 14.8079 32.22 15.6179 30.924ZM19.9692 35.766C20.5272 35.766 20.9592 35.658 21.2652 35.424C21.5712 35.19 21.7332 34.776 21.7332 34.182V26.64C21.7332 26.262 21.6432 25.992 21.4992 25.812C21.3372 25.632 21.0672 25.542 20.7072 25.542H19.5552V25.29C20.4912 25.272 21.3372 25.074 22.0752 24.714C22.7952 24.354 23.2632 23.796 23.4792 23.04H23.7672V34.182C23.7672 34.776 23.9112 35.19 24.2172 35.424C24.5232 35.658 24.9552 35.766 25.5312 35.766V36H19.9692V35.766ZM29.5018 35.766C29.8978 35.766 30.2038 35.658 30.4198 35.406C30.6358 35.172 30.7618 34.758 30.7618 34.182V27.594H29.5018V27.342C29.9338 27.306 30.2578 27.18 30.4738 26.964C30.6898 26.766 30.8698 26.388 30.9958 25.848C31.2118 24.948 31.6258 24.192 32.2738 23.562C32.9038 22.932 33.6598 22.608 34.5598 22.608C35.0278 22.608 35.4418 22.716 35.8378 22.896C36.2158 23.094 36.4858 23.364 36.6298 23.724C36.6838 23.886 36.7198 24.048 36.7198 24.192C36.7198 24.408 36.6478 24.606 36.5398 24.768C36.4318 24.93 36.2518 25.038 36.0358 25.074C35.9998 25.092 35.9278 25.092 35.8558 25.092C35.5678 25.092 35.3158 24.984 35.1358 24.75C34.9558 24.534 34.8658 24.228 34.8658 23.85C34.8478 23.526 34.7938 23.292 34.7038 23.13C34.5958 22.986 34.4518 22.896 34.2358 22.896C33.9478 22.896 33.6778 23.058 33.4438 23.364C33.2098 23.67 33.0298 24.102 32.9038 24.642C32.7598 25.182 32.7058 25.794 32.7058 26.478V26.874H34.9918L34.7038 27.594H32.7058V34.182C32.7058 34.776 32.8318 35.19 33.1018 35.424C33.3538 35.658 33.7318 35.766 34.2178 35.766V36H29.5018V35.766ZM36.6583 35.55C36.0283 35.136 35.5423 34.56 35.2003 33.84C34.8403 33.12 34.6783 32.346 34.6783 31.482C34.6783 30.582 34.8583 29.772 35.2543 29.052C35.6503 28.332 36.1723 27.756 36.8563 27.324C37.5223 26.91 38.2603 26.694 39.0523 26.694C39.7363 26.694 40.3483 26.856 40.8523 27.162C41.3563 27.486 41.7523 27.9 42.0223 28.422C42.2923 28.962 42.4363 29.538 42.4363 30.15H36.5863C36.5683 30.222 36.5683 30.33 36.5683 30.456C36.5683 31.302 36.6943 32.04 36.9643 32.688C37.2163 33.336 37.5943 33.84 38.0803 34.2C38.5663 34.56 39.1423 34.722 39.7903 34.722C40.5103 34.722 41.1223 34.506 41.6263 34.074C42.1303 33.642 42.4543 33.084 42.5983 32.364L42.8503 32.4C42.7423 33.12 42.4903 33.768 42.1303 34.344C41.7703 34.92 41.3023 35.37 40.7263 35.694C40.1503 36.018 39.5203 36.18 38.8363 36.18C38.0083 36.18 37.2883 35.982 36.6583 35.55ZM39.7543 29.844C40.0063 29.844 40.2043 29.79 40.3123 29.664C40.4203 29.538 40.4923 29.322 40.4923 29.034C40.4923 28.53 40.3483 28.062 40.0963 27.63C39.8263 27.198 39.4303 26.964 38.9082 26.964C38.3683 26.964 37.8643 27.252 37.4323 27.81C36.9823 28.386 36.7123 29.052 36.6043 29.844H39.7543ZM45.7069 35.856C45.0409 35.64 44.4469 35.352 43.9069 34.992V24.822C43.9069 24.39 43.7989 24.084 43.6189 23.904C43.4389 23.724 43.1329 23.634 42.7189 23.634V23.4C43.8709 23.328 44.8609 23.094 45.6889 22.698L45.8509 22.788V28.89C46.0129 28.332 46.3549 27.828 46.8769 27.396C47.3809 26.964 47.9929 26.73 48.6949 26.73C49.3969 26.73 50.0269 26.946 50.5849 27.378C51.1249 27.81 51.5569 28.368 51.8629 29.07C52.1509 29.79 52.3129 30.546 52.3129 31.356C52.3129 32.292 52.1149 33.138 51.7189 33.858C51.3229 34.596 50.7649 35.172 50.0809 35.568C49.3969 35.982 48.6229 36.18 47.7949 36.18C47.0749 36.18 46.3729 36.072 45.7069 35.856ZM46.3549 35.01C46.6969 35.622 47.2189 35.91 47.9029 35.91C48.6229 35.91 49.2169 35.55 49.6489 34.812C50.0809 34.092 50.2969 33.138 50.2969 31.968C50.2969 31.104 50.1709 30.348 49.9549 29.7C49.7389 29.07 49.4329 28.584 49.0549 28.26C48.6589 27.936 48.2269 27.756 47.7409 27.756C47.2729 27.756 46.8769 27.936 46.5349 28.26C46.1749 28.584 45.9589 28.998 45.8509 29.502V32.166C45.8509 33.462 46.0129 34.398 46.3549 35.01ZM55.3221 35.856C54.6561 35.64 54.0621 35.352 53.5221 34.992V24.822C53.5221 24.39 53.4141 24.084 53.2341 23.904C53.0541 23.724 52.7481 23.634 52.3341 23.634V23.4C53.4861 23.328 54.4761 23.094 55.3041 22.698L55.4661 22.788V28.89C55.6281 28.332 55.9701 27.828 56.4921 27.396C56.9961 26.964 57.6081 26.73 58.3101 26.73C59.0121 26.73 59.6421 26.946 60.2001 27.378C60.7401 27.81 61.1721 28.368 61.4781 29.07C61.7661 29.79 61.9281 30.546 61.9281 31.356C61.9281 32.292 61.7301 33.138 61.3341 33.858C60.9381 34.596 60.3801 35.172 59.6961 35.568C59.0121 35.982 58.2381 36.18 57.4101 36.18C56.6901 36.18 55.9881 36.072 55.3221 35.856ZM55.9701 35.01C56.3121 35.622 56.8341 35.91 57.5181 35.91C58.2381 35.91 58.8321 35.55 59.2641 34.812C59.6961 34.092 59.9121 33.138 59.9121 31.968C59.9121 31.104 59.7861 30.348 59.5701 29.7C59.3541 29.07 59.0481 28.584 58.6701 28.26C58.2741 27.936 57.8421 27.756 57.3561 27.756C56.8881 27.756 56.4921 27.936 56.1501 28.26C55.7901 28.584 55.5741 28.998 55.4661 29.502V32.166C55.4661 33.462 55.6281 34.398 55.9701 35.01ZM62.0214 35.766C62.4174 35.766 62.7234 35.658 62.9394 35.406C63.1554 35.172 63.2814 34.758 63.2814 34.182V28.836C63.2814 28.404 63.1914 28.116 63.0114 27.936C62.8314 27.756 62.5254 27.666 62.0934 27.648V27.414C63.2454 27.342 64.2354 27.108 65.0634 26.712L65.2254 26.802V28.764C65.3694 28.206 65.6394 27.72 66.0354 27.306C66.4314 26.91 66.8814 26.694 67.4214 26.694C67.8354 26.694 68.1774 26.838 68.4474 27.09C68.6994 27.36 68.8434 27.666 68.8434 28.008C68.8434 28.314 68.7354 28.566 68.5554 28.782C68.3754 28.998 68.1234 29.088 67.8174 29.088C67.6014 29.088 67.4394 29.052 67.3134 28.944C67.1874 28.854 67.0794 28.728 67.0074 28.584C66.9354 28.44 66.8634 28.296 66.8274 28.152C66.7554 28.008 66.7014 27.918 66.6474 27.846C66.5754 27.792 66.5034 27.756 66.3954 27.756C66.1074 27.756 65.8554 27.936 65.6394 28.26C65.4234 28.602 65.2794 28.998 65.2254 29.448V34.182C65.2254 34.758 65.3694 35.172 65.6574 35.406C65.9454 35.658 66.3414 35.766 66.8634 35.766V36H62.0214V35.766ZM75.0559 35.658C74.7679 35.334 74.5879 34.866 74.5159 34.272L74.4619 33.876C74.3899 34.272 74.2099 34.65 73.9579 34.992C73.6879 35.352 73.3459 35.64 72.9319 35.856C72.4999 36.072 72.0319 36.18 71.5099 36.18C70.7539 36.18 70.1239 35.964 69.6379 35.532C69.1519 35.1 68.9179 34.542 68.9179 33.858C68.9179 33.246 69.1159 32.742 69.5479 32.346C69.9799 31.95 70.5919 31.716 71.3839 31.644L74.1199 31.428L73.9939 30.51C73.8859 29.664 73.6339 28.998 73.2379 28.512C72.8419 28.044 72.3199 27.792 71.6719 27.792C71.1499 27.792 70.6999 27.954 70.3039 28.242C69.9079 28.53 69.6199 28.926 69.4219 29.412L69.1879 29.358C69.2959 28.926 69.5119 28.494 69.8359 28.08C70.1599 27.684 70.5559 27.342 71.0419 27.09C71.5279 26.838 72.0679 26.694 72.6619 26.694C73.5619 26.694 74.2999 26.982 74.8579 27.558C75.4159 28.134 75.7579 28.962 75.9019 30.024L76.4239 34.002C76.5139 34.686 76.7479 35.01 77.1439 35.01C77.2519 35.01 77.3599 34.974 77.4499 34.866C77.5399 34.776 77.5939 34.65 77.6299 34.488L77.8459 34.506C77.8099 34.938 77.6659 35.316 77.3779 35.64C77.0899 35.982 76.7119 36.144 76.2439 36.144C75.7399 36.144 75.3439 35.982 75.0559 35.658ZM71.2039 34.632C71.5099 34.956 71.9239 35.118 72.4639 35.118C73.0039 35.118 73.4539 34.956 73.8139 34.632C74.1559 34.308 74.3539 33.912 74.4079 33.462L74.1559 31.698L72.3919 31.842C71.8519 31.896 71.4379 32.076 71.1499 32.364C70.8619 32.652 70.7359 33.03 70.7359 33.462C70.7359 33.93 70.8799 34.308 71.2039 34.632ZM78.9937 24.966C78.7597 24.714 78.6517 24.408 78.6517 24.012C78.6517 23.652 78.7597 23.364 78.9937 23.13C79.2277 22.896 79.5337 22.77 79.9117 22.77C80.2897 22.77 80.5957 22.896 80.8297 23.13C81.0637 23.364 81.1897 23.652 81.1897 24.012C81.1897 24.408 81.0637 24.714 80.8297 24.966C80.5957 25.218 80.2897 25.326 79.9117 25.326C79.5337 25.326 79.2277 25.218 78.9937 24.966ZM77.8417 35.766C78.2377 35.766 78.5437 35.658 78.7597 35.406C78.9757 35.172 79.1017 34.758 79.1017 34.182V28.836C79.1017 28.404 78.9937 28.116 78.8137 27.936C78.6337 27.756 78.3277 27.666 77.9137 27.648V27.414C79.0657 27.342 80.0557 27.108 80.8837 26.712L81.0457 26.802V34.182C81.0457 34.776 81.1537 35.19 81.3697 35.424C81.5857 35.658 81.8917 35.766 82.3057 35.766V36H77.8417V35.766ZM84.6533 35.55C83.9513 35.136 83.3933 34.56 82.9973 33.822C82.5833 33.102 82.3853 32.292 82.3853 31.392C82.3853 30.474 82.5833 29.664 82.9973 28.944C83.3933 28.224 83.9513 27.684 84.6533 27.288C85.3373 26.892 86.0933 26.694 86.9213 26.694C87.7493 26.694 88.5053 26.91 89.1893 27.306C89.8733 27.72 90.4313 28.278 90.8453 28.998C91.2413 29.718 91.4573 30.528 91.4573 31.428C91.4573 32.346 91.2593 33.174 90.8633 33.894C90.4673 34.614 89.9093 35.19 89.2253 35.586C88.5413 35.982 87.7853 36.18 86.9573 36.18C86.1113 36.18 85.3373 35.982 84.6533 35.55ZM85.4813 34.722C85.9853 35.478 86.5973 35.838 87.2813 35.838C87.9653 35.838 88.4873 35.514 88.8653 34.848C89.2253 34.2 89.4233 33.336 89.4233 32.274C89.4233 31.932 89.3873 31.5 89.3333 30.996C89.1713 29.808 88.8473 28.854 88.3433 28.134C87.8393 27.414 87.2633 27.036 86.5973 27.036C85.8953 27.036 85.3553 27.378 84.9773 28.044C84.5993 28.728 84.4193 29.592 84.4193 30.636C84.4193 31.068 84.4373 31.446 84.4913 31.788C84.6353 32.994 84.9773 33.966 85.4813 34.722ZM99.5183 30.924C100.328 29.628 100.742 28.368 100.742 27.18C100.742 26.226 100.508 25.506 100.076 25.02C99.6263 24.552 99.0863 24.3 98.4743 24.3C97.9163 24.3 97.4303 24.498 97.0163 24.894C96.5843 25.29 96.3143 25.758 96.1883 26.334L95.9183 26.298C96.0083 25.758 96.2243 25.236 96.5663 24.768C96.8903 24.3 97.3223 23.922 97.8263 23.634C98.3303 23.346 98.8703 23.202 99.4823 23.202C100.076 23.202 100.634 23.364 101.138 23.652C101.642 23.94 102.056 24.354 102.362 24.894C102.668 25.434 102.83 26.028 102.83 26.694C102.83 27.522 102.614 28.332 102.182 29.088C101.75 29.862 101.156 30.618 100.418 31.374C99.6803 32.13 98.6003 33.138 97.1963 34.398H100.184C100.886 34.398 101.426 34.344 101.786 34.236C102.146 34.128 102.416 33.93 102.614 33.642C102.794 33.372 102.974 32.94 103.154 32.328L103.37 32.382L102.668 36H95.5763V35.676C97.3943 33.804 98.7083 32.22 99.5183 30.924ZM106.436 35.388C105.716 34.866 105.158 34.11 104.744 33.12C104.33 32.13 104.132 30.978 104.132 29.646C104.132 28.314 104.33 27.144 104.762 26.172C105.176 25.2 105.734 24.48 106.418 23.976C107.102 23.472 107.858 23.22 108.668 23.22C109.46 23.22 110.216 23.49 110.9 23.994C111.584 24.498 112.142 25.254 112.556 26.226C112.952 27.198 113.168 28.35 113.168 29.682C113.168 31.032 112.952 32.202 112.556 33.174C112.16 34.146 111.62 34.902 110.954 35.406C110.288 35.928 109.568 36.18 108.794 36.18C107.93 36.18 107.138 35.928 106.436 35.388ZM107.318 34.38C107.786 35.352 108.362 35.82 109.064 35.82C109.136 35.82 109.226 35.82 109.352 35.784C109.91 35.676 110.342 35.154 110.63 34.2C110.918 33.246 111.08 32.076 111.08 30.708C111.08 30.024 111.044 29.34 110.972 28.656C110.792 27.126 110.486 25.902 110.054 24.984C109.604 24.066 109.028 23.598 108.344 23.598C108.254 23.598 108.146 23.616 108.002 23.634C107.426 23.76 106.976 24.3 106.688 25.236C106.4 26.172 106.256 27.324 106.256 28.674C106.256 29.358 106.292 30.024 106.364 30.69C106.526 32.202 106.85 33.426 107.318 34.38ZM117.255 30.924C118.065 29.628 118.479 28.368 118.479 27.18C118.479 26.226 118.245 25.506 117.813 25.02C117.363 24.552 116.823 24.3 116.211 24.3C115.653 24.3 115.167 24.498 114.753 24.894C114.321 25.29 114.051 25.758 113.925 26.334L113.655 26.298C113.745 25.758 113.961 25.236 114.303 24.768C114.627 24.3 115.059 23.922 115.563 23.634C116.067 23.346 116.607 23.202 117.219 23.202C117.813 23.202 118.371 23.364 118.875 23.652C119.379 23.94 119.793 24.354 120.099 24.894C120.405 25.434 120.567 26.028 120.567 26.694C120.567 27.522 120.351 28.332 119.919 29.088C119.487 29.862 118.893 30.618 118.155 31.374C117.417 32.13 116.337 33.138 114.933 34.398H117.921C118.623 34.398 119.163 34.344 119.523 34.236C119.883 34.128 120.153 33.93 120.351 33.642C120.531 33.372 120.711 32.94 120.891 32.328L121.107 32.382L120.405 36H113.313V35.676C115.131 33.804 116.445 32.22 117.255 30.924ZM124.555 35.766C125.023 35.766 125.401 35.658 125.671 35.406C125.923 35.172 126.067 34.758 126.067 34.182V33.048H121.243V32.706L127.795 23.112H128.101V31.842H129.757V33.048H128.101V34.182C128.101 34.776 128.227 35.19 128.497 35.424C128.749 35.658 129.127 35.766 129.613 35.766V36H124.555V35.766ZM126.067 31.842V26.064L122.305 31.842H126.067ZM131.738 37.53C132.026 37.206 132.188 36.882 132.188 36.558C132.188 36.378 132.134 36.252 132.044 36.162C131.936 36.072 131.792 35.964 131.594 35.856C131.324 35.73 131.126 35.586 131 35.442C130.856 35.298 130.802 35.064 130.802 34.74C130.802 34.416 130.91 34.146 131.144 33.93C131.36 33.714 131.63 33.588 131.954 33.588C132.35 33.588 132.656 33.75 132.908 34.074C133.142 34.398 133.268 34.794 133.268 35.262C133.268 36.054 132.998 36.72 132.494 37.296C131.99 37.872 131.396 38.286 130.748 38.502L130.658 38.268C131.072 38.106 131.432 37.854 131.738 37.53ZM140.112 35.55C139.41 35.136 138.852 34.56 138.456 33.822C138.042 33.102 137.844 32.292 137.844 31.392C137.844 30.474 138.042 29.664 138.456 28.944C138.852 28.224 139.41 27.684 140.112 27.288C140.796 26.892 141.552 26.694 142.38 26.694C143.208 26.694 143.964 26.91 144.648 27.306C145.332 27.72 145.89 28.278 146.304 28.998C146.7 29.718 146.916 30.528 146.916 31.428C146.916 32.346 146.718 33.174 146.322 33.894C145.926 34.614 145.368 35.19 144.684 35.586C144 35.982 143.244 36.18 142.416 36.18C141.57 36.18 140.796 35.982 140.112 35.55ZM140.94 34.722C141.444 35.478 142.056 35.838 142.74 35.838C143.424 35.838 143.946 35.514 144.324 34.848C144.684 34.2 144.882 33.336 144.882 32.274C144.882 31.932 144.846 31.5 144.792 30.996C144.63 29.808 144.306 28.854 143.802 28.134C143.298 27.414 142.722 27.036 142.056 27.036C141.354 27.036 140.814 27.378 140.436 28.044C140.058 28.728 139.878 29.592 139.878 30.636C139.878 31.068 139.896 31.446 139.95 31.788C140.094 32.994 140.436 33.966 140.94 34.722ZM146.941 35.766C147.337 35.766 147.643 35.658 147.859 35.406C148.075 35.172 148.201 34.758 148.201 34.182V28.836C148.201 28.404 148.111 28.116 147.931 27.936C147.751 27.756 147.445 27.666 147.013 27.648V27.414C148.165 27.342 149.155 27.108 149.983 26.712L150.145 26.802V28.764C150.289 28.206 150.559 27.72 150.955 27.306C151.351 26.91 151.801 26.694 152.341 26.694C152.755 26.694 153.097 26.838 153.367 27.09C153.619 27.36 153.763 27.666 153.763 28.008C153.763 28.314 153.655 28.566 153.475 28.782C153.295 28.998 153.043 29.088 152.737 29.088C152.521 29.088 152.359 29.052 152.233 28.944C152.107 28.854 151.999 28.728 151.927 28.584C151.855 28.44 151.783 28.296 151.747 28.152C151.675 28.008 151.621 27.918 151.567 27.846C151.495 27.792 151.423 27.756 151.315 27.756C151.027 27.756 150.775 27.936 150.559 28.26C150.343 28.602 150.199 28.998 150.145 29.448V34.182C150.145 34.758 150.289 35.172 150.577 35.406C150.865 35.658 151.261 35.766 151.783 35.766V36H146.941V35.766ZM155.715 35.55C155.085 35.136 154.599 34.56 154.257 33.84C153.897 33.12 153.735 32.346 153.735 31.482C153.735 30.582 153.915 29.772 154.311 29.052C154.707 28.332 155.229 27.756 155.913 27.324C156.579 26.91 157.317 26.694 158.109 26.694C158.793 26.694 159.405 26.856 159.909 27.162C160.413 27.486 160.809 27.9 161.079 28.422C161.349 28.962 161.493 29.538 161.493 30.15H155.643C155.625 30.222 155.625 30.33 155.625 30.456C155.625 31.302 155.751 32.04 156.021 32.688C156.273 33.336 156.651 33.84 157.137 34.2C157.623 34.56 158.199 34.722 158.847 34.722C159.567 34.722 160.179 34.506 160.683 34.074C161.187 33.642 161.511 33.084 161.655 32.364L161.907 32.4C161.799 33.12 161.547 33.768 161.187 34.344C160.827 34.92 160.359 35.37 159.783 35.694C159.207 36.018 158.577 36.18 157.893 36.18C157.065 36.18 156.345 35.982 155.715 35.55ZM158.811 29.844C159.063 29.844 159.261 29.79 159.369 29.664C159.477 29.538 159.549 29.322 159.549 29.034C159.549 28.53 159.405 28.062 159.153 27.63C158.883 27.198 158.487 26.964 157.965 26.964C157.425 26.964 156.921 27.252 156.489 27.81C156.039 28.386 155.769 29.052 155.661 29.844H158.811ZM166.413 35.766C166.971 35.766 167.403 35.658 167.709 35.424C168.015 35.19 168.177 34.776 168.177 34.182V26.64C168.177 26.262 168.087 25.992 167.943 25.812C167.781 25.632 167.511 25.542 167.151 25.542H165.999V25.29C166.935 25.272 167.781 25.074 168.519 24.714C169.239 24.354 169.707 23.796 169.923 23.04H170.211V34.182C170.211 34.776 170.355 35.19 170.661 35.424C170.967 35.658 171.399 35.766 171.975 35.766V36H166.413V35.766ZM174.215 35.748C173.999 35.514 173.909 35.154 173.909 34.65C173.909 33.588 174.269 32.31 174.989 30.834C175.709 29.358 176.609 27.738 177.689 25.974C177.977 25.47 178.175 25.146 178.265 25.002H174.863C174.143 25.002 173.585 25.074 173.189 25.2C172.793 25.344 172.505 25.56 172.307 25.848C172.091 26.154 171.929 26.586 171.803 27.144L171.551 27.108L172.253 23.4H179.525V23.706C178.445 25.362 177.581 26.946 176.951 28.422C176.321 29.898 176.015 31.428 176.015 33.012C176.015 33.552 176.033 34.002 176.105 34.398C176.123 34.596 176.141 34.722 176.141 34.776C176.141 35.208 176.033 35.532 175.817 35.766C175.601 36 175.331 36.108 175.043 36.108C174.683 36.108 174.413 36 174.215 35.748ZM179.161 35.784C178.927 35.532 178.819 35.226 178.819 34.83C178.819 34.47 178.927 34.182 179.161 33.93C179.395 33.696 179.701 33.57 180.079 33.57C180.439 33.57 180.745 33.696 180.979 33.93C181.213 34.182 181.339 34.47 181.339 34.83C181.339 35.226 181.213 35.532 180.979 35.784C180.745 36.036 180.439 36.144 180.079 36.144C179.701 36.144 179.395 36.036 179.161 35.784ZM179.161 29.988C178.927 29.736 178.819 29.43 178.819 29.034C178.819 28.674 178.927 28.386 179.161 28.134C179.395 27.9 179.701 27.774 180.079 27.774C180.439 27.774 180.745 27.9 180.979 28.134C181.213 28.386 181.339 28.674 181.339 29.034C181.339 29.43 181.213 29.736 180.979 29.988C180.745 30.24 180.439 30.348 180.079 30.348C179.701 30.348 179.395 30.24 179.161 29.988ZM184.887 35.388C184.167 34.866 183.609 34.11 183.195 33.12C182.781 32.13 182.583 30.978 182.583 29.646C182.583 28.314 182.781 27.144 183.213 26.172C183.627 25.2 184.185 24.48 184.869 23.976C185.553 23.472 186.309 23.22 187.119 23.22C187.911 23.22 188.667 23.49 189.351 23.994C190.035 24.498 190.593 25.254 191.007 26.226C191.403 27.198 191.619 28.35 191.619 29.682C191.619 31.032 191.403 32.202 191.007 33.174C190.611 34.146 190.071 34.902 189.405 35.406C188.739 35.928 188.019 36.18 187.245 36.18C186.381 36.18 185.589 35.928 184.887 35.388ZM185.769 34.38C186.237 35.352 186.813 35.82 187.515 35.82C187.587 35.82 187.677 35.82 187.803 35.784C188.361 35.676 188.793 35.154 189.081 34.2C189.369 33.246 189.531 32.076 189.531 30.708C189.531 30.024 189.495 29.34 189.423 28.656C189.243 27.126 188.937 25.902 188.505 24.984C188.055 24.066 187.479 23.598 186.795 23.598C186.705 23.598 186.597 23.616 186.453 23.634C185.877 23.76 185.427 24.3 185.139 25.236C184.851 26.172 184.707 27.324 184.707 28.674C184.707 29.358 184.743 30.024 184.815 30.69C184.977 32.202 185.301 33.426 185.769 34.38ZM195.047 35.388C194.327 34.866 193.769 34.11 193.355 33.12C192.941 32.13 192.743 30.978 192.743 29.646C192.743 28.314 192.941 27.144 193.373 26.172C193.787 25.2 194.345 24.48 195.029 23.976C195.713 23.472 196.469 23.22 197.279 23.22C198.071 23.22 198.827 23.49 199.511 23.994C200.195 24.498 200.753 25.254 201.167 26.226C201.563 27.198 201.779 28.35 201.779 29.682C201.779 31.032 201.563 32.202 201.167 33.174C200.771 34.146 200.231 34.902 199.565 35.406C198.899 35.928 198.179 36.18 197.405 36.18C196.541 36.18 195.749 35.928 195.047 35.388ZM195.929 34.38C196.397 35.352 196.973 35.82 197.675 35.82C197.747 35.82 197.837 35.82 197.963 35.784C198.521 35.676 198.953 35.154 199.241 34.2C199.529 33.246 199.691 32.076 199.691 30.708C199.691 30.024 199.655 29.34 199.583 28.656C199.403 27.126 199.097 25.902 198.665 24.984C198.215 24.066 197.639 23.598 196.955 23.598C196.865 23.598 196.757 23.616 196.613 23.634C196.037 23.76 195.587 24.3 195.299 25.236C195.011 26.172 194.867 27.324 194.867 28.674C194.867 29.358 194.903 30.024 194.975 30.69C195.137 32.202 195.461 33.426 195.929 34.38Z" fill="black"/>
</svg>
