<svg viewBox="0 0 190 37" fill="none" xmlns="http://www.w3.org/2000/svg">
<path d="M0.717688 11.792C1.06969 11.792 1.35769 11.696 1.54969 11.488C1.74169 11.28 1.83769 10.912 1.83769 10.384V2.416C1.83769 1.904 1.72569 1.552 1.53369 1.328C1.34169 1.12 1.06969 1.008 0.717688 1.008V0.799999H4.81369V1.008C4.44569 1.008 4.17369 1.12 3.98169 1.328C3.78969 1.536 3.69369 1.904 3.69369 2.416L3.70969 10.384C3.70969 10.912 3.80569 11.28 3.99769 11.488C4.18969 11.696 4.46169 11.792 4.82969 11.792V12H0.717688V11.792ZM10.4508 11.792C10.8028 11.792 11.0908 11.712 11.2988 11.552C11.5068 11.392 11.6188 11.12 11.6188 10.72C11.6188 10.592 11.6028 10.48 11.6028 10.4L11.1068 6.736C10.9148 5.376 10.3548 4.688 9.44281 4.688C9.02681 4.688 8.65881 4.864 8.37081 5.2C8.08281 5.552 7.90681 5.952 7.87481 6.432V10.384C7.87481 10.912 7.97081 11.28 8.16281 11.488C8.35481 11.696 8.62681 11.792 8.99481 11.792V12H5.02681V11.792C5.37881 11.792 5.65081 11.696 5.84281 11.472C6.03481 11.264 6.14681 10.896 6.14681 10.384V5.632C6.14681 5.248 6.05081 4.992 5.89081 4.832C5.73081 4.672 5.45881 4.592 5.09081 4.576V4.368C6.11481 4.304 6.99481 4.096 7.73081 3.744L7.87481 3.824V5.744C8.01881 5.168 8.30681 4.688 8.73881 4.304C9.17081 3.92 9.68281 3.728 10.2908 3.728C10.9788 3.728 11.5388 3.984 11.9868 4.464C12.4188 4.944 12.7068 5.696 12.8508 6.688L13.3948 10.4C13.4588 10.912 13.5868 11.28 13.7948 11.488C13.9868 11.696 14.2588 11.792 14.6108 11.792V12H10.4508V11.792ZM20.0037 11.696C19.7477 11.408 19.5877 10.992 19.5237 10.464L19.4757 10.112C19.4117 10.464 19.2517 10.8 19.0277 11.104C18.7877 11.424 18.4837 11.68 18.1157 11.872C17.7317 12.064 17.3157 12.16 16.8517 12.16C16.1797 12.16 15.6197 11.968 15.1877 11.584C14.7557 11.2 14.5477 10.704 14.5477 10.096C14.5477 9.552 14.7237 9.104 15.1077 8.752C15.4917 8.4 16.0357 8.192 16.7397 8.128L19.1717 7.936L19.0597 7.12C18.9637 6.368 18.7397 5.776 18.3877 5.344C18.0357 4.928 17.5717 4.704 16.9957 4.704C16.5317 4.704 16.1317 4.848 15.7797 5.104C15.4277 5.36 15.1717 5.712 14.9957 6.144L14.7877 6.096C14.8837 5.712 15.0757 5.328 15.3637 4.96C15.6517 4.608 16.0037 4.304 16.4357 4.08C16.8677 3.856 17.3477 3.728 17.8757 3.728C18.6757 3.728 19.3317 3.984 19.8277 4.496C20.3237 5.008 20.6277 5.744 20.7557 6.688L21.2197 10.224C21.2997 10.832 21.5077 11.12 21.8597 11.12C21.9557 11.12 22.0517 11.088 22.1317 10.992C22.2117 10.912 22.2597 10.8 22.2917 10.656L22.4837 10.672C22.4517 11.056 22.3237 11.392 22.0677 11.68C21.8117 11.984 21.4757 12.128 21.0597 12.128C20.6117 12.128 20.2597 11.984 20.0037 11.696ZM16.5797 10.784C16.8517 11.072 17.2197 11.216 17.6997 11.216C18.1797 11.216 18.5797 11.072 18.8997 10.784C19.2037 10.496 19.3797 10.144 19.4277 9.744L19.2037 8.176L17.6357 8.304C17.1557 8.352 16.7877 8.512 16.5317 8.768C16.2757 9.024 16.1637 9.36 16.1637 9.744C16.1637 10.16 16.2917 10.496 16.5797 10.784ZM24.3464 11.792C23.9464 11.536 23.6424 11.168 23.4184 10.688C23.1944 10.208 23.0824 9.632 23.0824 8.976V5.632C23.0824 5.248 22.9864 4.992 22.8264 4.832C22.6664 4.672 22.3944 4.592 22.0264 4.576V4.368C23.0504 4.304 23.9304 4.096 24.6664 3.744L24.8104 3.824V8.8C24.8104 9.536 24.9384 10.128 25.2264 10.544C25.4984 10.976 25.9144 11.184 26.4744 11.184C26.9544 11.184 27.3224 11.024 27.5944 10.688C27.8664 10.352 28.0264 9.952 28.0744 9.504V5.632C28.0744 5.248 27.9784 4.992 27.8184 4.832C27.6584 4.672 27.3864 4.592 27.0184 4.576V4.368C28.0424 4.304 28.9224 4.096 29.6584 3.744L29.8024 3.824V10.496C29.8024 10.848 29.8824 11.088 30.0424 11.216C30.2024 11.344 30.4904 11.392 30.8744 11.376V11.584C29.8344 11.712 28.9544 11.92 28.2344 12.192L28.0744 12.096V10.272C27.8984 10.784 27.6104 11.232 27.2104 11.616C26.7944 12 26.2984 12.176 25.6904 12.176C25.1784 12.176 24.7304 12.048 24.3464 11.792ZM32.6257 15.04C32.1617 14.848 31.8097 14.592 31.5697 14.272C31.3297 13.968 31.2177 13.648 31.2177 13.312C31.2177 13.088 31.3617 12.864 31.6497 12.64C31.9377 12.432 32.3377 12.208 32.8497 11.984C32.4177 11.888 32.0817 11.712 31.8417 11.424C31.6017 11.136 31.4897 10.816 31.4897 10.448C31.4897 10.32 31.5057 10.208 31.5697 10.144C31.6177 10.08 31.7457 9.968 31.9537 9.824L32.3377 9.552L32.9937 9.056C32.4817 8.832 32.0817 8.496 31.7937 8.064C31.5057 7.648 31.3617 7.152 31.3617 6.592C31.3617 6.032 31.5057 5.536 31.7937 5.088C32.0817 4.64 32.4977 4.304 33.0257 4.048C33.5377 3.808 34.1457 3.68 34.8177 3.68C35.0257 3.68 35.3297 3.712 35.7457 3.776C36.2897 3.856 36.7377 3.888 37.1217 3.888H38.7857L38.5137 4.528L36.9617 4.496C37.3457 4.768 37.6337 5.088 37.8417 5.456C38.0337 5.84 38.1457 6.224 38.1457 6.64C38.1457 7.184 38.0017 7.68 37.7137 8.096C37.4257 8.512 37.0417 8.848 36.5297 9.072C36.0177 9.312 35.4417 9.424 34.7697 9.424C34.1777 9.424 33.6497 9.328 33.1857 9.136C32.9617 9.328 32.8017 9.488 32.7377 9.584C32.6577 9.68 32.6257 9.776 32.6257 9.84C32.6257 10.272 32.9457 10.48 33.5857 10.48H36.5937C37.2337 10.48 37.7297 10.592 38.0977 10.816C38.4657 11.04 38.6577 11.424 38.6577 11.968C38.6577 12.512 38.4497 13.04 38.0657 13.552C37.6817 14.08 37.1377 14.512 36.4657 14.848C35.7937 15.184 35.0417 15.344 34.2257 15.344C33.6177 15.344 33.0737 15.248 32.6257 15.04ZM33.3937 14.048C33.8417 14.336 34.4337 14.48 35.1697 14.48C35.7457 14.48 36.2417 14.4 36.6897 14.224C37.1217 14.064 37.4577 13.84 37.6977 13.584C37.9377 13.328 38.0657 13.056 38.0657 12.784C38.0657 12.56 37.9697 12.368 37.7777 12.24C37.5857 12.112 37.3137 12.032 36.9457 12.032H33.3937H33.2017C33.0097 12.192 32.8497 12.352 32.7537 12.496C32.6577 12.64 32.6097 12.816 32.6257 13.008C32.6737 13.424 32.9297 13.76 33.3937 14.048ZM33.5537 8.368C33.9217 8.896 34.4017 9.152 34.9777 9.152C35.4417 9.152 35.8097 8.944 36.0977 8.496C36.3697 8.048 36.5137 7.504 36.5137 6.848C36.5137 6.336 36.4177 5.872 36.2577 5.424C36.0977 4.976 35.8577 4.624 35.5697 4.352C35.2817 4.096 34.9457 3.952 34.5937 3.952C34.0817 3.952 33.6977 4.192 33.4257 4.672C33.1377 5.152 33.0097 5.696 33.0097 6.336C33.0097 7.168 33.1857 7.856 33.5537 8.368ZM41.2058 11.792C40.8058 11.536 40.5018 11.168 40.2778 10.688C40.0538 10.208 39.9418 9.632 39.9418 8.976V5.632C39.9418 5.248 39.8458 4.992 39.6858 4.832C39.5258 4.672 39.2538 4.592 38.8858 4.576V4.368C39.9098 4.304 40.7898 4.096 41.5258 3.744L41.6698 3.824V8.8C41.6698 9.536 41.7978 10.128 42.0858 10.544C42.3578 10.976 42.7738 11.184 43.3338 11.184C43.8138 11.184 44.1818 11.024 44.4538 10.688C44.7258 10.352 44.8858 9.952 44.9338 9.504V5.632C44.9338 5.248 44.8378 4.992 44.6778 4.832C44.5178 4.672 44.2458 4.592 43.8778 4.576V4.368C44.9018 4.304 45.7818 4.096 46.5178 3.744L46.6618 3.824V10.496C46.6618 10.848 46.7418 11.088 46.9018 11.216C47.0618 11.344 47.3498 11.392 47.7338 11.376V11.584C46.6938 11.712 45.8138 11.92 45.0938 12.192L44.9338 12.096V10.272C44.7578 10.784 44.4698 11.232 44.0698 11.616C43.6538 12 43.1578 12.176 42.5498 12.176C42.0378 12.176 41.5898 12.048 41.2058 11.792ZM47.8862 11.792C48.2382 11.792 48.5102 11.696 48.7022 11.472C48.8942 11.264 49.0062 10.896 49.0062 10.384V5.632C49.0062 5.248 48.9262 4.992 48.7662 4.832C48.6062 4.672 48.3342 4.592 47.9502 4.576V4.368C48.9742 4.304 49.8542 4.096 50.5902 3.744L50.7342 3.824V5.568C50.8622 5.072 51.1022 4.64 51.4542 4.272C51.8062 3.92 52.2062 3.728 52.6862 3.728C53.0542 3.728 53.3582 3.856 53.5982 4.08C53.8222 4.32 53.9502 4.592 53.9502 4.896C53.9502 5.168 53.8542 5.392 53.6942 5.584C53.5342 5.776 53.3102 5.856 53.0382 5.856C52.8462 5.856 52.7022 5.824 52.5902 5.728C52.4782 5.648 52.3822 5.536 52.3182 5.408C52.2542 5.28 52.1902 5.152 52.1582 5.024C52.0942 4.896 52.0462 4.816 51.9982 4.752C51.9342 4.704 51.8702 4.672 51.7742 4.672C51.5182 4.672 51.2942 4.832 51.1022 5.12C50.9102 5.424 50.7822 5.776 50.7342 6.176V10.384C50.7342 10.896 50.8622 11.264 51.1182 11.472C51.3742 11.696 51.7262 11.792 52.1902 11.792V12H47.8862V11.792ZM59.4724 11.696C59.2164 11.408 59.0564 10.992 58.9924 10.464L58.9444 10.112C58.8804 10.464 58.7204 10.8 58.4964 11.104C58.2564 11.424 57.9524 11.68 57.5844 11.872C57.2004 12.064 56.7844 12.16 56.3204 12.16C55.6484 12.16 55.0884 11.968 54.6564 11.584C54.2244 11.2 54.0164 10.704 54.0164 10.096C54.0164 9.552 54.1924 9.104 54.5764 8.752C54.9604 8.4 55.5044 8.192 56.2084 8.128L58.6404 7.936L58.5284 7.12C58.4324 6.368 58.2084 5.776 57.8564 5.344C57.5044 4.928 57.0404 4.704 56.4644 4.704C56.0004 4.704 55.6004 4.848 55.2484 5.104C54.8964 5.36 54.6404 5.712 54.4644 6.144L54.2564 6.096C54.3524 5.712 54.5444 5.328 54.8324 4.96C55.1204 4.608 55.4724 4.304 55.9044 4.08C56.3364 3.856 56.8164 3.728 57.3444 3.728C58.1444 3.728 58.8004 3.984 59.2964 4.496C59.7924 5.008 60.0964 5.744 60.2244 6.688L60.6884 10.224C60.7684 10.832 60.9764 11.12 61.3284 11.12C61.4244 11.12 61.5204 11.088 61.6004 10.992C61.6804 10.912 61.7284 10.8 61.7604 10.656L61.9524 10.672C61.9204 11.056 61.7924 11.392 61.5364 11.68C61.2804 11.984 60.9444 12.128 60.5284 12.128C60.0804 12.128 59.7284 11.984 59.4724 11.696ZM56.0484 10.784C56.3204 11.072 56.6884 11.216 57.1684 11.216C57.6484 11.216 58.0484 11.072 58.3684 10.784C58.6724 10.496 58.8484 10.144 58.8964 9.744L58.6724 8.176L57.1044 8.304C56.6244 8.352 56.2564 8.512 56.0004 8.768C55.7444 9.024 55.6324 9.36 55.6324 9.744C55.6324 10.16 55.7604 10.496 56.0484 10.784ZM66.4793 4.096H64.7993C64.4153 4.096 64.0473 4.24 63.6953 4.528C63.3433 4.816 63.0393 5.168 62.7833 5.584C62.5273 6 62.3513 6.416 62.2713 6.8L62.0633 6.768L62.5593 3.888H68.5753L64.0633 11.792H65.7113C66.1113 11.792 66.5113 11.664 66.8953 11.408C67.2793 11.152 67.6313 10.8 67.9193 10.368C68.2073 9.936 68.3993 9.472 68.5113 8.976L68.7353 9.008L68.2393 12H61.9833L66.4793 4.096ZM70.0196 2.192C69.8116 1.968 69.7156 1.696 69.7156 1.344C69.7156 1.024 69.8116 0.768 70.0196 0.559999C70.2276 0.351999 70.4996 0.24 70.8356 0.24C71.1716 0.24 71.4436 0.351999 71.6516 0.559999C71.8596 0.768 71.9716 1.024 71.9716 1.344C71.9716 1.696 71.8596 1.968 71.6516 2.192C71.4436 2.416 71.1716 2.512 70.8356 2.512C70.4996 2.512 70.2276 2.416 70.0196 2.192ZM68.9956 11.792C69.3476 11.792 69.6196 11.696 69.8116 11.472C70.0036 11.264 70.1156 10.896 70.1156 10.384V5.632C70.1156 5.248 70.0196 4.992 69.8596 4.832C69.6996 4.672 69.4276 4.592 69.0596 4.576V4.368C70.0836 4.304 70.9636 4.096 71.6996 3.744L71.8436 3.824V10.384C71.8436 10.912 71.9396 11.28 72.1316 11.488C72.3236 11.696 72.5956 11.792 72.9636 11.792V12H68.9956V11.792ZM75.0503 11.6C74.4263 11.232 73.9303 10.72 73.5783 10.064C73.2103 9.424 73.0343 8.704 73.0343 7.904C73.0343 7.088 73.2103 6.368 73.5783 5.728C73.9303 5.088 74.4263 4.608 75.0503 4.256C75.6583 3.904 76.3303 3.728 77.0663 3.728C77.8023 3.728 78.4743 3.92 79.0823 4.272C79.6903 4.64 80.1863 5.136 80.5543 5.776C80.9063 6.416 81.0983 7.136 81.0983 7.936C81.0983 8.752 80.9223 9.488 80.5703 10.128C80.2183 10.768 79.7223 11.28 79.1143 11.632C78.5063 11.984 77.8343 12.16 77.0983 12.16C76.3463 12.16 75.6583 11.984 75.0503 11.6ZM75.7863 10.864C76.2343 11.536 76.7783 11.856 77.3863 11.856C77.9943 11.856 78.4583 11.568 78.7943 10.976C79.1143 10.4 79.2903 9.632 79.2903 8.688C79.2903 8.384 79.2583 8 79.2103 7.552C79.0663 6.496 78.7783 5.648 78.3303 5.008C77.8823 4.368 77.3703 4.032 76.7783 4.032C76.1543 4.032 75.6743 4.336 75.3383 4.928C75.0023 5.536 74.8423 6.304 74.8423 7.232C74.8423 7.616 74.8583 7.952 74.9063 8.256C75.0343 9.328 75.3383 10.192 75.7863 10.864ZM86.5446 11.792C86.8966 11.792 87.1846 11.712 87.3926 11.552C87.6006 11.392 87.7126 11.12 87.7126 10.72C87.7126 10.592 87.6966 10.48 87.6966 10.4L87.2006 6.736C87.0086 5.376 86.4486 4.688 85.5366 4.688C85.1206 4.688 84.7526 4.864 84.4646 5.2C84.1766 5.552 84.0006 5.952 83.9686 6.432V10.384C83.9686 10.912 84.0646 11.28 84.2566 11.488C84.4486 11.696 84.7206 11.792 85.0886 11.792V12H81.1206V11.792C81.4726 11.792 81.7446 11.696 81.9366 11.472C82.1286 11.264 82.2406 10.896 82.2406 10.384V5.632C82.2406 5.248 82.1446 4.992 81.9846 4.832C81.8246 4.672 81.5526 4.592 81.1846 4.576V4.368C82.2086 4.304 83.0886 4.096 83.8246 3.744L83.9686 3.824V5.744C84.1126 5.168 84.4006 4.688 84.8326 4.304C85.2646 3.92 85.7766 3.728 86.3846 3.728C87.0726 3.728 87.6326 3.984 88.0806 4.464C88.5126 4.944 88.8006 5.696 88.9446 6.688L89.4886 10.4C89.5526 10.912 89.6806 11.28 89.8886 11.488C90.0806 11.696 90.3526 11.792 90.7046 11.792V12H86.5446V11.792ZM92.2787 11.6C91.7187 11.232 91.2867 10.72 90.9827 10.08C90.6627 9.44 90.5187 8.752 90.5187 7.984C90.5187 7.184 90.6787 6.464 91.0307 5.824C91.3827 5.184 91.8467 4.672 92.4547 4.288C93.0467 3.92 93.7027 3.728 94.4067 3.728C95.0147 3.728 95.5587 3.872 96.0067 4.144C96.4547 4.432 96.8067 4.8 97.0467 5.264C97.2867 5.744 97.4147 6.256 97.4147 6.8H92.2147C92.1987 6.864 92.1987 6.96 92.1987 7.072C92.1987 7.824 92.3107 8.48 92.5507 9.056C92.7747 9.632 93.1107 10.08 93.5427 10.4C93.9747 10.72 94.4867 10.864 95.0627 10.864C95.7027 10.864 96.2467 10.672 96.6947 10.288C97.1427 9.904 97.4307 9.408 97.5587 8.768L97.7827 8.8C97.6867 9.44 97.4627 10.016 97.1427 10.528C96.8227 11.04 96.4067 11.44 95.8947 11.728C95.3827 12.016 94.8227 12.16 94.2147 12.16C93.4787 12.16 92.8387 11.984 92.2787 11.6ZM95.0307 6.528C95.2547 6.528 95.4307 6.48 95.5267 6.368C95.6227 6.256 95.6867 6.064 95.6867 5.808C95.6867 5.36 95.5587 4.944 95.3347 4.56C95.0947 4.176 94.7427 3.968 94.2787 3.968C93.7987 3.968 93.3507 4.224 92.9667 4.72C92.5667 5.232 92.3267 5.824 92.2307 6.528H95.0307ZM103.244 11.616C102.732 11.264 102.348 10.768 102.06 10.128C101.772 9.504 101.644 8.8 101.644 8.032C101.644 7.264 101.804 6.544 102.14 5.888C102.46 5.248 102.924 4.72 103.5 4.336C104.076 3.952 104.7 3.76 105.404 3.76C106.236 3.76 106.94 4.08 107.484 4.72V2.064C107.484 1.68 107.404 1.408 107.244 1.248C107.084 1.088 106.812 1.008 106.444 1.008V0.799999C107.468 0.735999 108.348 0.528 109.068 0.176L109.228 0.256V10.496C109.228 10.848 109.308 11.088 109.468 11.216C109.628 11.344 109.9 11.392 110.284 11.376V11.584C109.228 11.712 108.364 11.92 107.66 12.192L107.484 12.096V10.432C107.324 10.864 107.02 11.264 106.572 11.616C106.108 11.984 105.564 12.16 104.924 12.16C104.3 12.16 103.74 11.984 103.244 11.616ZM103.788 9.472C103.996 10.048 104.284 10.464 104.652 10.752C105.004 11.04 105.404 11.184 105.836 11.184C106.22 11.184 106.572 11.072 106.86 10.848C107.148 10.624 107.356 10.32 107.484 9.936V7.376C107.484 6.48 107.308 5.696 106.956 5.04C106.604 4.4 106.124 4.064 105.532 4.064C105.116 4.064 104.764 4.224 104.444 4.512C104.124 4.8 103.884 5.2 103.724 5.712C103.548 6.224 103.468 6.8 103.468 7.44C103.468 8.24 103.564 8.912 103.788 9.472ZM112.201 11.6C111.641 11.232 111.209 10.72 110.905 10.08C110.585 9.44 110.441 8.752 110.441 7.984C110.441 7.184 110.601 6.464 110.953 5.824C111.305 5.184 111.769 4.672 112.377 4.288C112.969 3.92 113.625 3.728 114.329 3.728C114.937 3.728 115.481 3.872 115.929 4.144C116.377 4.432 116.729 4.8 116.969 5.264C117.209 5.744 117.337 6.256 117.337 6.8H112.137C112.121 6.864 112.121 6.96 112.121 7.072C112.121 7.824 112.233 8.48 112.473 9.056C112.697 9.632 113.033 10.08 113.465 10.4C113.897 10.72 114.409 10.864 114.985 10.864C115.625 10.864 116.169 10.672 116.617 10.288C117.065 9.904 117.353 9.408 117.481 8.768L117.705 8.8C117.609 9.44 117.385 10.016 117.065 10.528C116.745 11.04 116.329 11.44 115.817 11.728C115.305 12.016 114.745 12.16 114.137 12.16C113.401 12.16 112.761 11.984 112.201 11.6ZM114.953 6.528C115.177 6.528 115.353 6.48 115.449 6.368C115.545 6.256 115.609 6.064 115.609 5.808C115.609 5.36 115.481 4.944 115.257 4.56C115.017 4.176 114.665 3.968 114.201 3.968C113.721 3.968 113.273 4.224 112.889 4.72C112.489 5.232 112.249 5.824 112.153 6.528H114.953ZM117.589 11.792C117.941 11.792 118.213 11.696 118.405 11.472C118.597 11.264 118.709 10.896 118.709 10.384L118.757 2.064C118.757 1.68 118.661 1.408 118.501 1.248C118.341 1.088 118.069 1.008 117.701 1.008V0.799999C118.725 0.735999 119.605 0.528 120.341 0.176L120.485 0.256V10.384C120.485 10.896 120.581 11.264 120.773 11.472C120.965 11.696 121.253 11.792 121.605 11.792V12H117.589V11.792ZM121.621 11.792C121.973 11.792 122.245 11.696 122.437 11.472C122.629 11.264 122.741 10.896 122.741 10.384L122.789 2.064C122.789 1.68 122.693 1.408 122.533 1.248C122.373 1.088 122.101 1.008 121.733 1.008V0.799999C122.757 0.735999 123.637 0.528 124.373 0.176L124.517 0.256V10.384C124.517 10.896 124.613 11.264 124.805 11.472C124.997 11.696 125.285 11.792 125.637 11.792V12H121.621V11.792ZM131.238 11.696C130.982 11.408 130.822 10.992 130.758 10.464L130.71 10.112C130.646 10.464 130.486 10.8 130.262 11.104C130.022 11.424 129.718 11.68 129.35 11.872C128.966 12.064 128.55 12.16 128.086 12.16C127.414 12.16 126.854 11.968 126.422 11.584C125.99 11.2 125.782 10.704 125.782 10.096C125.782 9.552 125.958 9.104 126.342 8.752C126.726 8.4 127.27 8.192 127.974 8.128L130.406 7.936L130.294 7.12C130.198 6.368 129.974 5.776 129.622 5.344C129.27 4.928 128.806 4.704 128.23 4.704C127.766 4.704 127.366 4.848 127.014 5.104C126.662 5.36 126.406 5.712 126.23 6.144L126.022 6.096C126.118 5.712 126.31 5.328 126.598 4.96C126.886 4.608 127.238 4.304 127.67 4.08C128.102 3.856 128.582 3.728 129.11 3.728C129.91 3.728 130.566 3.984 131.062 4.496C131.558 5.008 131.862 5.744 131.99 6.688L132.454 10.224C132.534 10.832 132.742 11.12 133.094 11.12C133.19 11.12 133.286 11.088 133.366 10.992C133.446 10.912 133.494 10.8 133.526 10.656L133.718 10.672C133.686 11.056 133.558 11.392 133.302 11.68C133.046 11.984 132.71 12.128 132.294 12.128C131.846 12.128 131.494 11.984 131.238 11.696ZM127.814 10.784C128.086 11.072 128.454 11.216 128.934 11.216C129.414 11.216 129.814 11.072 130.134 10.784C130.438 10.496 130.614 10.144 130.662 9.744L130.438 8.176L128.87 8.304C128.39 8.352 128.022 8.512 127.766 8.768C127.51 9.024 127.398 9.36 127.398 9.744C127.398 10.16 127.526 10.496 127.814 10.784ZM147.458 11.792C147.842 11.792 148.13 11.712 148.354 11.552C148.562 11.392 148.674 11.12 148.674 10.72C148.674 10.592 148.658 10.48 148.658 10.4L148.146 6.736C147.954 5.376 147.394 4.688 146.482 4.688C146.034 4.688 145.666 4.848 145.394 5.152C145.122 5.456 144.962 5.84 144.898 6.288C144.914 6.512 144.93 6.672 144.93 6.8V10.384C144.93 10.896 145.026 11.264 145.218 11.472C145.41 11.696 145.698 11.792 146.05 11.792V12H142.146V11.792C142.482 11.792 142.738 11.696 142.93 11.488C143.122 11.28 143.218 10.912 143.218 10.384V7.072C143.218 6.304 143.058 5.712 142.77 5.296C142.482 4.88 142.066 4.672 141.538 4.672C141.106 4.672 140.738 4.832 140.434 5.12C140.114 5.424 139.938 5.776 139.89 6.176V10.384C139.89 10.912 139.97 11.28 140.162 11.488C140.354 11.696 140.61 11.792 140.962 11.792V12H137.042V11.792C137.394 11.792 137.666 11.696 137.858 11.472C138.05 11.264 138.162 10.896 138.162 10.384V5.632C138.162 5.248 138.066 4.992 137.906 4.832C137.746 4.672 137.474 4.592 137.106 4.576V4.368C138.13 4.304 139.01 4.096 139.746 3.744L139.89 3.824V5.536C140.05 5.04 140.354 4.608 140.802 4.256C141.234 3.904 141.73 3.728 142.306 3.728C142.914 3.728 143.442 3.92 143.89 4.272C144.338 4.624 144.658 5.136 144.818 5.776C144.946 5.2 145.234 4.72 145.682 4.32C146.114 3.936 146.642 3.728 147.266 3.728C148.722 3.728 149.602 4.72 149.89 6.688L150.434 10.4C150.498 10.912 150.642 11.28 150.866 11.488C151.074 11.696 151.362 11.792 151.714 11.792V12H147.458V11.792ZM153.472 11.6C152.848 11.232 152.352 10.72 152 10.064C151.632 9.424 151.456 8.704 151.456 7.904C151.456 7.088 151.632 6.368 152 5.728C152.352 5.088 152.848 4.608 153.472 4.256C154.08 3.904 154.752 3.728 155.488 3.728C156.224 3.728 156.896 3.92 157.504 4.272C158.112 4.64 158.608 5.136 158.976 5.776C159.328 6.416 159.52 7.136 159.52 7.936C159.52 8.752 159.344 9.488 158.992 10.128C158.64 10.768 158.144 11.28 157.536 11.632C156.928 11.984 156.256 12.16 155.52 12.16C154.768 12.16 154.08 11.984 153.472 11.6ZM154.208 10.864C154.656 11.536 155.2 11.856 155.808 11.856C156.416 11.856 156.88 11.568 157.216 10.976C157.536 10.4 157.712 9.632 157.712 8.688C157.712 8.384 157.68 8 157.632 7.552C157.488 6.496 157.2 5.648 156.752 5.008C156.304 4.368 155.792 4.032 155.2 4.032C154.576 4.032 154.096 4.336 153.76 4.928C153.424 5.536 153.264 6.304 153.264 7.232C153.264 7.616 153.28 7.952 153.328 8.256C153.456 9.328 153.76 10.192 154.208 10.864ZM160.33 8.816L160.538 8.768C160.794 9.584 161.162 10.304 161.642 10.928C162.122 11.568 162.746 11.888 163.546 11.888C164.042 11.888 164.442 11.76 164.73 11.504C165.018 11.248 165.178 10.912 165.194 10.512C165.194 10.128 165.05 9.792 164.778 9.536C164.49 9.28 164.042 9.04 163.402 8.816L162.442 8.432C161.77 8.176 161.274 7.872 160.922 7.488C160.57 7.104 160.41 6.624 160.41 6.048C160.41 5.632 160.522 5.232 160.778 4.88C161.018 4.528 161.354 4.256 161.786 4.048C162.218 3.856 162.698 3.744 163.21 3.744C163.626 3.744 164.106 3.84 164.634 4.016C164.922 4.112 165.114 4.144 165.21 4.144C165.434 4.144 165.61 3.984 165.706 3.648L165.93 3.632L166.138 6.768L165.914 6.8C165.786 6.384 165.594 5.968 165.338 5.536C165.082 5.104 164.762 4.736 164.394 4.432C164.01 4.144 163.61 3.984 163.178 3.984C162.746 3.984 162.394 4.112 162.138 4.368C161.882 4.624 161.754 4.944 161.754 5.296C161.754 5.648 161.882 5.968 162.154 6.224C162.426 6.48 162.858 6.72 163.434 6.912L164.378 7.296C165.098 7.568 165.626 7.888 165.978 8.256C166.33 8.624 166.506 9.072 166.506 9.6C166.506 10.128 166.362 10.576 166.106 10.96C165.834 11.344 165.482 11.648 165.05 11.84C164.618 12.048 164.154 12.144 163.658 12.144C163.37 12.144 163.098 12.128 162.874 12.08C162.634 12.032 162.362 11.968 162.058 11.872C161.722 11.776 161.498 11.728 161.386 11.728C161.258 11.728 161.146 11.776 161.066 11.84C160.986 11.904 160.906 12.016 160.842 12.176L160.602 12.192L160.33 8.816ZM168.409 11.424C168.025 10.928 167.833 10.288 167.833 9.488V4.528H166.825V4.304C167.481 4.24 168.041 4.016 168.489 3.6C168.937 3.184 169.225 2.624 169.353 1.904H169.577V3.888H171.961L171.689 4.528H169.577V9.312C169.577 9.856 169.689 10.304 169.913 10.64C170.137 10.992 170.457 11.152 170.857 11.152C171.177 11.152 171.433 11.056 171.641 10.832C171.849 10.608 171.993 10.336 172.073 10L172.265 10.032C172.185 10.64 171.945 11.136 171.561 11.552C171.161 11.968 170.681 12.16 170.137 12.16C169.369 12.16 168.793 11.92 168.409 11.424ZM172.246 11.792C172.598 11.792 172.87 11.696 173.062 11.472C173.254 11.264 173.366 10.896 173.366 10.384V5.632C173.366 5.248 173.286 4.992 173.126 4.832C172.966 4.672 172.694 4.592 172.31 4.576V4.368C173.334 4.304 174.214 4.096 174.95 3.744L175.094 3.824V5.568C175.222 5.072 175.462 4.64 175.814 4.272C176.166 3.92 176.566 3.728 177.046 3.728C177.414 3.728 177.718 3.856 177.958 4.08C178.182 4.32 178.31 4.592 178.31 4.896C178.31 5.168 178.214 5.392 178.054 5.584C177.894 5.776 177.67 5.856 177.398 5.856C177.206 5.856 177.062 5.824 176.95 5.728C176.838 5.648 176.742 5.536 176.678 5.408C176.614 5.28 176.55 5.152 176.518 5.024C176.454 4.896 176.406 4.816 176.358 4.752C176.294 4.704 176.23 4.672 176.134 4.672C175.878 4.672 175.654 4.832 175.462 5.12C175.27 5.424 175.142 5.776 175.094 6.176V10.384C175.094 10.896 175.222 11.264 175.478 11.472C175.734 11.696 176.086 11.792 176.55 11.792V12H172.246V11.792ZM183.832 11.696C183.576 11.408 183.416 10.992 183.352 10.464L183.304 10.112C183.24 10.464 183.08 10.8 182.856 11.104C182.616 11.424 182.312 11.68 181.944 11.872C181.56 12.064 181.144 12.16 180.68 12.16C180.008 12.16 179.448 11.968 179.016 11.584C178.584 11.2 178.376 10.704 178.376 10.096C178.376 9.552 178.552 9.104 178.936 8.752C179.32 8.4 179.864 8.192 180.568 8.128L183 7.936L182.888 7.12C182.792 6.368 182.568 5.776 182.216 5.344C181.864 4.928 181.4 4.704 180.824 4.704C180.36 4.704 179.96 4.848 179.608 5.104C179.256 5.36 179 5.712 178.824 6.144L178.616 6.096C178.712 5.712 178.904 5.328 179.192 4.96C179.48 4.608 179.832 4.304 180.264 4.08C180.696 3.856 181.176 3.728 181.704 3.728C182.504 3.728 183.16 3.984 183.656 4.496C184.152 5.008 184.456 5.744 184.584 6.688L185.048 10.224C185.128 10.832 185.336 11.12 185.688 11.12C185.784 11.12 185.88 11.088 185.96 10.992C186.04 10.912 186.088 10.8 186.12 10.656L186.312 10.672C186.28 11.056 186.152 11.392 185.896 11.68C185.64 11.984 185.304 12.128 184.888 12.128C184.44 12.128 184.088 11.984 183.832 11.696ZM180.408 10.784C180.68 11.072 181.048 11.216 181.528 11.216C182.008 11.216 182.408 11.072 182.728 10.784C183.032 10.496 183.208 10.144 183.256 9.744L183.032 8.176L181.464 8.304C180.984 8.352 180.616 8.512 180.36 8.768C180.104 9.024 179.992 9.36 179.992 9.744C179.992 10.16 180.12 10.496 180.408 10.784ZM187.151 11.808C186.943 11.584 186.847 11.312 186.847 10.96C186.847 10.64 186.943 10.384 187.151 10.16C187.359 9.952 187.631 9.84 187.967 9.84C188.287 9.84 188.559 9.952 188.767 10.16C188.975 10.384 189.087 10.64 189.087 10.96C189.087 11.312 188.975 11.584 188.767 11.808C188.559 12.032 188.287 12.128 187.967 12.128C187.631 12.128 187.359 12.032 187.151 11.808ZM187.151 6.656C186.943 6.432 186.847 6.16 186.847 5.808C186.847 5.488 186.943 5.232 187.151 5.008C187.359 4.8 187.631 4.688 187.967 4.688C188.287 4.688 188.559 4.8 188.767 5.008C188.975 5.232 189.087 5.488 189.087 5.808C189.087 6.16 188.975 6.432 188.767 6.656C188.559 6.88 188.287 6.976 187.967 6.976C187.631 6.976 187.359 6.88 187.151 6.656ZM13.8418 29.488C14.5618 28.336 14.9298 27.216 14.9298 26.16C14.9298 25.312 14.7218 24.672 14.3378 24.24C13.9378 23.824 13.4578 23.6 12.9138 23.6C12.4178 23.6 11.9858 23.776 11.6178 24.128C11.2338 24.48 10.9938 24.896 10.8818 25.408L10.6418 25.376C10.7218 24.896 10.9138 24.432 11.2178 24.016C11.5058 23.6 11.8898 23.264 12.3378 23.008C12.7858 22.752 13.2658 22.624 13.8098 22.624C14.3378 22.624 14.8338 22.768 15.2818 23.024C15.7298 23.28 16.0978 23.648 16.3698 24.128C16.6418 24.608 16.7858 25.136 16.7858 25.728C16.7858 26.464 16.5938 27.184 16.2098 27.856C15.8258 28.544 15.2978 29.216 14.6418 29.888C13.9858 30.56 13.0258 31.456 11.7778 32.576H14.4338C15.0578 32.576 15.5378 32.528 15.8578 32.432C16.1778 32.336 16.4178 32.16 16.5938 31.904C16.7538 31.664 16.9138 31.28 17.0738 30.736L17.2658 30.784L16.6418 34H10.3378V33.712C11.9538 32.048 13.1218 30.64 13.8418 29.488ZM17.7096 33.792C18.2056 33.792 18.5896 33.696 18.8616 33.488C19.1336 33.28 19.2776 32.912 19.2776 32.384V25.68C19.2776 25.344 19.1976 25.104 19.0696 24.944C18.9256 24.784 18.6856 24.704 18.3656 24.704H17.3416V24.48C18.1736 24.464 18.9256 24.288 19.5816 23.968C20.2216 23.648 20.6376 23.152 20.8296 22.48H21.0856V32.384C21.0856 32.912 21.2136 33.28 21.4856 33.488C21.7576 33.696 22.1416 33.792 22.6536 33.792V34H17.7096V33.792ZM26.1831 33.792C26.5351 33.792 26.8071 33.696 26.9991 33.472C27.1911 33.264 27.3031 32.896 27.3031 32.384V26.528H26.1831V26.304C26.5671 26.272 26.8551 26.16 27.0471 25.968C27.2391 25.792 27.3991 25.456 27.5111 24.976C27.7031 24.176 28.0711 23.504 28.6471 22.944C29.2071 22.384 29.8791 22.096 30.6791 22.096C31.0951 22.096 31.4631 22.192 31.8151 22.352C32.1511 22.528 32.3911 22.768 32.5191 23.088C32.5671 23.232 32.5991 23.376 32.5991 23.504C32.5991 23.696 32.5351 23.872 32.4391 24.016C32.3431 24.16 32.1831 24.256 31.9911 24.288C31.9591 24.304 31.8951 24.304 31.8311 24.304C31.5751 24.304 31.3511 24.208 31.1911 24C31.0311 23.808 30.9511 23.536 30.9511 23.2C30.9351 22.912 30.8871 22.704 30.8071 22.56C30.7111 22.432 30.5831 22.352 30.3911 22.352C30.1351 22.352 29.8951 22.496 29.6871 22.768C29.4791 23.04 29.3191 23.424 29.2071 23.904C29.0791 24.384 29.0311 24.928 29.0311 25.536V25.888H31.0631L30.8071 26.528H29.0311V32.384C29.0311 32.912 29.1431 33.28 29.3831 33.488C29.6071 33.696 29.9431 33.792 30.3751 33.792V34H26.1831V33.792ZM32.5443 33.6C31.9843 33.232 31.5523 32.72 31.2483 32.08C30.9283 31.44 30.7843 30.752 30.7843 29.984C30.7843 29.184 30.9443 28.464 31.2963 27.824C31.6483 27.184 32.1123 26.672 32.7203 26.288C33.3123 25.92 33.9683 25.728 34.6723 25.728C35.2803 25.728 35.8243 25.872 36.2723 26.144C36.7203 26.432 37.0723 26.8 37.3123 27.264C37.5523 27.744 37.6803 28.256 37.6803 28.8H32.4803C32.4643 28.864 32.4643 28.96 32.4643 29.072C32.4643 29.824 32.5763 30.48 32.8163 31.056C33.0403 31.632 33.3763 32.08 33.8083 32.4C34.2403 32.72 34.7523 32.864 35.3283 32.864C35.9683 32.864 36.5123 32.672 36.9603 32.288C37.4083 31.904 37.6963 31.408 37.8243 30.768L38.0483 30.8C37.9523 31.44 37.7283 32.016 37.4083 32.528C37.0883 33.04 36.6723 33.44 36.1603 33.728C35.6483 34.016 35.0883 34.16 34.4803 34.16C33.7443 34.16 33.1043 33.984 32.5443 33.6ZM35.2963 28.528C35.5203 28.528 35.6963 28.48 35.7923 28.368C35.8883 28.256 35.9523 28.064 35.9523 27.808C35.9523 27.36 35.8243 26.944 35.6003 26.56C35.3603 26.176 35.0083 25.968 34.5443 25.968C34.0643 25.968 33.6163 26.224 33.2323 26.72C32.8323 27.232 32.5923 27.824 32.4963 28.528H35.2963ZM40.5876 33.872C39.9956 33.68 39.4676 33.424 38.9876 33.104V24.064C38.9876 23.68 38.8916 23.408 38.7316 23.248C38.5716 23.088 38.2996 23.008 37.9316 23.008V22.8C38.9556 22.736 39.8356 22.528 40.5716 22.176L40.7156 22.256V27.68C40.8596 27.184 41.1636 26.736 41.6276 26.352C42.0756 25.968 42.6196 25.76 43.2436 25.76C43.8676 25.76 44.4276 25.952 44.9236 26.336C45.4036 26.72 45.7876 27.216 46.0596 27.84C46.3156 28.48 46.4596 29.152 46.4596 29.872C46.4596 30.704 46.2836 31.456 45.9316 32.096C45.5796 32.752 45.0836 33.264 44.4756 33.616C43.8676 33.984 43.1796 34.16 42.4436 34.16C41.8036 34.16 41.1796 34.064 40.5876 33.872ZM41.1636 33.12C41.4676 33.664 41.9316 33.92 42.5396 33.92C43.1796 33.92 43.7076 33.6 44.0916 32.944C44.4756 32.304 44.6676 31.456 44.6676 30.416C44.6676 29.648 44.5556 28.976 44.3636 28.4C44.1716 27.84 43.8996 27.408 43.5636 27.12C43.2116 26.832 42.8276 26.672 42.3956 26.672C41.9796 26.672 41.6276 26.832 41.3236 27.12C41.0036 27.408 40.8116 27.776 40.7156 28.224V30.592C40.7156 31.744 40.8596 32.576 41.1636 33.12ZM49.1344 33.872C48.5424 33.68 48.0144 33.424 47.5344 33.104V24.064C47.5344 23.68 47.4384 23.408 47.2784 23.248C47.1184 23.088 46.8464 23.008 46.4784 23.008V22.8C47.5024 22.736 48.3824 22.528 49.1184 22.176L49.2624 22.256V27.68C49.4064 27.184 49.7104 26.736 50.1744 26.352C50.6224 25.968 51.1664 25.76 51.7904 25.76C52.4144 25.76 52.9744 25.952 53.4704 26.336C53.9504 26.72 54.3344 27.216 54.6064 27.84C54.8624 28.48 55.0064 29.152 55.0064 29.872C55.0064 30.704 54.8304 31.456 54.4784 32.096C54.1264 32.752 53.6304 33.264 53.0224 33.616C52.4144 33.984 51.7264 34.16 50.9904 34.16C50.3504 34.16 49.7264 34.064 49.1344 33.872ZM49.7104 33.12C50.0144 33.664 50.4784 33.92 51.0864 33.92C51.7264 33.92 52.2544 33.6 52.6384 32.944C53.0224 32.304 53.2144 31.456 53.2144 30.416C53.2144 29.648 53.1024 28.976 52.9104 28.4C52.7184 27.84 52.4464 27.408 52.1104 27.12C51.7584 26.832 51.3744 26.672 50.9424 26.672C50.5264 26.672 50.1744 26.832 49.8704 27.12C49.5504 27.408 49.3584 27.776 49.2624 28.224V30.592C49.2624 31.744 49.4064 32.576 49.7104 33.12ZM55.0893 33.792C55.4413 33.792 55.7133 33.696 55.9053 33.472C56.0973 33.264 56.2093 32.896 56.2093 32.384V27.632C56.2093 27.248 56.1293 26.992 55.9693 26.832C55.8093 26.672 55.5373 26.592 55.1533 26.576V26.368C56.1773 26.304 57.0573 26.096 57.7933 25.744L57.9373 25.824V27.568C58.0653 27.072 58.3053 26.64 58.6573 26.272C59.0093 25.92 59.4093 25.728 59.8893 25.728C60.2573 25.728 60.5613 25.856 60.8013 26.08C61.0253 26.32 61.1533 26.592 61.1533 26.896C61.1533 27.168 61.0573 27.392 60.8973 27.584C60.7373 27.776 60.5133 27.856 60.2413 27.856C60.0493 27.856 59.9053 27.824 59.7933 27.728C59.6813 27.648 59.5853 27.536 59.5213 27.408C59.4573 27.28 59.3933 27.152 59.3613 27.024C59.2973 26.896 59.2493 26.816 59.2013 26.752C59.1373 26.704 59.0733 26.672 58.9773 26.672C58.7213 26.672 58.4973 26.832 58.3053 27.12C58.1133 27.424 57.9853 27.776 57.9373 28.176V32.384C57.9373 32.896 58.0653 33.264 58.3213 33.472C58.5773 33.696 58.9293 33.792 59.3933 33.792V34H55.0893V33.792ZM66.6756 33.696C66.4196 33.408 66.2596 32.992 66.1956 32.464L66.1476 32.112C66.0836 32.464 65.9236 32.8 65.6996 33.104C65.4596 33.424 65.1556 33.68 64.7876 33.872C64.4036 34.064 63.9876 34.16 63.5236 34.16C62.8516 34.16 62.2916 33.968 61.8596 33.584C61.4276 33.2 61.2196 32.704 61.2196 32.096C61.2196 31.552 61.3956 31.104 61.7796 30.752C62.1636 30.4 62.7076 30.192 63.4116 30.128L65.8436 29.936L65.7316 29.12C65.6356 28.368 65.4116 27.776 65.0596 27.344C64.7076 26.928 64.2436 26.704 63.6676 26.704C63.2036 26.704 62.8036 26.848 62.4516 27.104C62.0996 27.36 61.8436 27.712 61.6676 28.144L61.4596 28.096C61.5556 27.712 61.7476 27.328 62.0356 26.96C62.3236 26.608 62.6756 26.304 63.1076 26.08C63.5396 25.856 64.0196 25.728 64.5476 25.728C65.3476 25.728 66.0036 25.984 66.4996 26.496C66.9956 27.008 67.2996 27.744 67.4276 28.688L67.8916 32.224C67.9716 32.832 68.1796 33.12 68.5316 33.12C68.6276 33.12 68.7236 33.088 68.8036 32.992C68.8836 32.912 68.9316 32.8 68.9636 32.656L69.1556 32.672C69.1236 33.056 68.9956 33.392 68.7396 33.68C68.4836 33.984 68.1476 34.128 67.7316 34.128C67.2836 34.128 66.9316 33.984 66.6756 33.696ZM63.2516 32.784C63.5236 33.072 63.8916 33.216 64.3716 33.216C64.8516 33.216 65.2516 33.072 65.5716 32.784C65.8756 32.496 66.0516 32.144 66.0996 31.744L65.8756 30.176L64.3076 30.304C63.8276 30.352 63.4596 30.512 63.2036 30.768C62.9476 31.024 62.8356 31.36 62.8356 31.744C62.8356 32.16 62.9636 32.496 63.2516 32.784ZM70.1758 24.192C69.9678 23.968 69.8718 23.696 69.8718 23.344C69.8718 23.024 69.9678 22.768 70.1758 22.56C70.3838 22.352 70.6558 22.24 70.9918 22.24C71.3278 22.24 71.5998 22.352 71.8078 22.56C72.0158 22.768 72.1278 23.024 72.1278 23.344C72.1278 23.696 72.0158 23.968 71.8078 24.192C71.5998 24.416 71.3278 24.512 70.9918 24.512C70.6558 24.512 70.3838 24.416 70.1758 24.192ZM69.1518 33.792C69.5038 33.792 69.7758 33.696 69.9678 33.472C70.1598 33.264 70.2718 32.896 70.2718 32.384V27.632C70.2718 27.248 70.1758 26.992 70.0158 26.832C69.8558 26.672 69.5838 26.592 69.2158 26.576V26.368C70.2398 26.304 71.1198 26.096 71.8558 25.744L71.9998 25.824V32.384C71.9998 32.912 72.0958 33.28 72.2878 33.488C72.4798 33.696 72.7518 33.792 73.1198 33.792V34H69.1518V33.792ZM75.2066 33.6C74.5826 33.232 74.0866 32.72 73.7346 32.064C73.3666 31.424 73.1906 30.704 73.1906 29.904C73.1906 29.088 73.3666 28.368 73.7346 27.728C74.0866 27.088 74.5826 26.608 75.2066 26.256C75.8146 25.904 76.4866 25.728 77.2226 25.728C77.9586 25.728 78.6306 25.92 79.2386 26.272C79.8466 26.64 80.3426 27.136 80.7106 27.776C81.0626 28.416 81.2546 29.136 81.2546 29.936C81.2546 30.752 81.0786 31.488 80.7266 32.128C80.3746 32.768 79.8786 33.28 79.2706 33.632C78.6626 33.984 77.9906 34.16 77.2546 34.16C76.5026 34.16 75.8146 33.984 75.2066 33.6ZM75.9426 32.864C76.3906 33.536 76.9346 33.856 77.5426 33.856C78.1506 33.856 78.6146 33.568 78.9506 32.976C79.2706 32.4 79.4466 31.632 79.4466 30.688C79.4466 30.384 79.4146 30 79.3666 29.552C79.2226 28.496 78.9346 27.648 78.4866 27.008C78.0386 26.368 77.5266 26.032 76.9346 26.032C76.3106 26.032 75.8306 26.336 75.4946 26.928C75.1586 27.536 74.9986 28.304 74.9986 29.232C74.9986 29.616 75.0146 29.952 75.0626 30.256C75.1906 31.328 75.4946 32.192 75.9426 32.864ZM88.4199 29.488C89.1399 28.336 89.5079 27.216 89.5079 26.16C89.5079 25.312 89.2999 24.672 88.9159 24.24C88.5159 23.824 88.0359 23.6 87.4919 23.6C86.9959 23.6 86.5639 23.776 86.1959 24.128C85.8119 24.48 85.5719 24.896 85.4599 25.408L85.2199 25.376C85.2999 24.896 85.4919 24.432 85.7959 24.016C86.0839 23.6 86.4679 23.264 86.9159 23.008C87.3639 22.752 87.8439 22.624 88.3879 22.624C88.9159 22.624 89.4119 22.768 89.8599 23.024C90.3079 23.28 90.6759 23.648 90.9479 24.128C91.2199 24.608 91.3639 25.136 91.3639 25.728C91.3639 26.464 91.1719 27.184 90.7879 27.856C90.4039 28.544 89.8759 29.216 89.2199 29.888C88.5639 30.56 87.6039 31.456 86.3559 32.576H89.0119C89.6359 32.576 90.1159 32.528 90.4359 32.432C90.7559 32.336 90.9959 32.16 91.1719 31.904C91.3319 31.664 91.4919 31.28 91.6519 30.736L91.8439 30.784L91.2199 34H84.9159V33.712C86.5319 32.048 87.6999 30.64 88.4199 29.488ZM94.5689 33.456C93.9289 32.992 93.4329 32.32 93.0649 31.44C92.6969 30.56 92.5209 29.536 92.5209 28.352C92.5209 27.168 92.6969 26.128 93.0809 25.264C93.4489 24.4 93.9449 23.76 94.5529 23.312C95.1609 22.864 95.8329 22.64 96.5529 22.64C97.2569 22.64 97.9289 22.88 98.5369 23.328C99.1449 23.776 99.6409 24.448 100.009 25.312C100.361 26.176 100.553 27.2 100.553 28.384C100.553 29.584 100.361 30.624 100.009 31.488C99.6569 32.352 99.1769 33.024 98.5849 33.472C97.9929 33.936 97.3529 34.16 96.6649 34.16C95.8969 34.16 95.1929 33.936 94.5689 33.456ZM95.3529 32.56C95.7689 33.424 96.2809 33.84 96.9049 33.84C96.9689 33.84 97.0489 33.84 97.1609 33.808C97.6569 33.712 98.0409 33.248 98.2969 32.4C98.5529 31.552 98.6969 30.512 98.6969 29.296C98.6969 28.688 98.6649 28.08 98.6009 27.472C98.4409 26.112 98.1689 25.024 97.7849 24.208C97.3849 23.392 96.8729 22.976 96.2649 22.976C96.1849 22.976 96.0889 22.992 95.9609 23.008C95.4489 23.12 95.0489 23.6 94.7929 24.432C94.5369 25.264 94.4089 26.288 94.4089 27.488C94.4089 28.096 94.4409 28.688 94.5049 29.28C94.6489 30.624 94.9369 31.712 95.3529 32.56ZM104.186 29.488C104.906 28.336 105.274 27.216 105.274 26.16C105.274 25.312 105.066 24.672 104.682 24.24C104.282 23.824 103.802 23.6 103.258 23.6C102.762 23.6 102.33 23.776 101.962 24.128C101.578 24.48 101.338 24.896 101.226 25.408L100.986 25.376C101.066 24.896 101.258 24.432 101.562 24.016C101.85 23.6 102.234 23.264 102.682 23.008C103.13 22.752 103.61 22.624 104.154 22.624C104.682 22.624 105.178 22.768 105.626 23.024C106.074 23.28 106.442 23.648 106.714 24.128C106.986 24.608 107.13 25.136 107.13 25.728C107.13 26.464 106.938 27.184 106.554 27.856C106.17 28.544 105.642 29.216 104.986 29.888C104.33 30.56 103.37 31.456 102.122 32.576H104.778C105.402 32.576 105.882 32.528 106.202 32.432C106.522 32.336 106.762 32.16 106.938 31.904C107.098 31.664 107.258 31.28 107.418 30.736L107.61 30.784L106.986 34H100.682V33.712C102.298 32.048 103.466 30.64 104.186 29.488ZM110.674 33.792C111.09 33.792 111.426 33.696 111.666 33.472C111.89 33.264 112.018 32.896 112.018 32.384V31.376H107.73V31.072L113.554 22.544H113.826V30.304H115.298V31.376H113.826V32.384C113.826 32.912 113.938 33.28 114.178 33.488C114.402 33.696 114.738 33.792 115.17 33.792V34H110.674V33.792ZM112.018 30.304V25.168L108.674 30.304H112.018ZM117.059 35.36C117.315 35.072 117.459 34.784 117.459 34.496C117.459 34.336 117.411 34.224 117.331 34.144C117.235 34.064 117.107 33.968 116.931 33.872C116.691 33.76 116.515 33.632 116.403 33.504C116.275 33.376 116.227 33.168 116.227 32.88C116.227 32.592 116.323 32.352 116.531 32.16C116.723 31.968 116.963 31.856 117.251 31.856C117.603 31.856 117.875 32 118.099 32.288C118.307 32.576 118.419 32.928 118.419 33.344C118.419 34.048 118.179 34.64 117.731 35.152C117.283 35.664 116.755 36.032 116.179 36.224L116.099 36.016C116.467 35.872 116.787 35.648 117.059 35.36ZM124.503 33.6C123.879 33.232 123.383 32.72 123.031 32.064C122.663 31.424 122.487 30.704 122.487 29.904C122.487 29.088 122.663 28.368 123.031 27.728C123.383 27.088 123.879 26.608 124.503 26.256C125.111 25.904 125.783 25.728 126.519 25.728C127.255 25.728 127.927 25.92 128.535 26.272C129.143 26.64 129.639 27.136 130.007 27.776C130.359 28.416 130.551 29.136 130.551 29.936C130.551 30.752 130.375 31.488 130.023 32.128C129.671 32.768 129.175 33.28 128.567 33.632C127.959 33.984 127.287 34.16 126.551 34.16C125.799 34.16 125.111 33.984 124.503 33.6ZM125.239 32.864C125.687 33.536 126.231 33.856 126.839 33.856C127.447 33.856 127.911 33.568 128.247 32.976C128.567 32.4 128.743 31.632 128.743 30.688C128.743 30.384 128.711 30 128.663 29.552C128.519 28.496 128.231 27.648 127.783 27.008C127.335 26.368 126.823 26.032 126.231 26.032C125.607 26.032 125.127 26.336 124.791 26.928C124.455 27.536 124.295 28.304 124.295 29.232C124.295 29.616 124.311 29.952 124.359 30.256C124.487 31.328 124.791 32.192 125.239 32.864ZM130.574 33.792C130.926 33.792 131.198 33.696 131.39 33.472C131.582 33.264 131.694 32.896 131.694 32.384V27.632C131.694 27.248 131.614 26.992 131.454 26.832C131.294 26.672 131.022 26.592 130.638 26.576V26.368C131.662 26.304 132.542 26.096 133.278 25.744L133.422 25.824V27.568C133.55 27.072 133.79 26.64 134.142 26.272C134.494 25.92 134.894 25.728 135.374 25.728C135.742 25.728 136.046 25.856 136.286 26.08C136.51 26.32 136.638 26.592 136.638 26.896C136.638 27.168 136.542 27.392 136.382 27.584C136.222 27.776 135.998 27.856 135.726 27.856C135.534 27.856 135.39 27.824 135.278 27.728C135.166 27.648 135.07 27.536 135.006 27.408C134.942 27.28 134.878 27.152 134.846 27.024C134.782 26.896 134.734 26.816 134.686 26.752C134.622 26.704 134.558 26.672 134.462 26.672C134.206 26.672 133.982 26.832 133.79 27.12C133.598 27.424 133.47 27.776 133.422 28.176V32.384C133.422 32.896 133.55 33.264 133.806 33.472C134.062 33.696 134.414 33.792 134.878 33.792V34H130.574V33.792ZM138.372 33.6C137.812 33.232 137.38 32.72 137.076 32.08C136.756 31.44 136.612 30.752 136.612 29.984C136.612 29.184 136.772 28.464 137.124 27.824C137.476 27.184 137.94 26.672 138.548 26.288C139.14 25.92 139.796 25.728 140.5 25.728C141.108 25.728 141.652 25.872 142.1 26.144C142.548 26.432 142.9 26.8 143.14 27.264C143.38 27.744 143.508 28.256 143.508 28.8H138.308C138.292 28.864 138.292 28.96 138.292 29.072C138.292 29.824 138.404 30.48 138.644 31.056C138.868 31.632 139.204 32.08 139.636 32.4C140.068 32.72 140.58 32.864 141.156 32.864C141.796 32.864 142.34 32.672 142.788 32.288C143.236 31.904 143.524 31.408 143.652 30.768L143.876 30.8C143.78 31.44 143.556 32.016 143.236 32.528C142.916 33.04 142.5 33.44 141.988 33.728C141.476 34.016 140.916 34.16 140.308 34.16C139.572 34.16 138.932 33.984 138.372 33.6ZM141.124 28.528C141.348 28.528 141.524 28.48 141.62 28.368C141.716 28.256 141.78 28.064 141.78 27.808C141.78 27.36 141.652 26.944 141.428 26.56C141.188 26.176 140.836 25.968 140.372 25.968C139.892 25.968 139.444 26.224 139.06 26.72C138.66 27.232 138.42 27.824 138.324 28.528H141.124ZM147.881 33.792C148.377 33.792 148.761 33.696 149.033 33.488C149.305 33.28 149.449 32.912 149.449 32.384V25.68C149.449 25.344 149.369 25.104 149.241 24.944C149.097 24.784 148.857 24.704 148.537 24.704H147.513V24.48C148.345 24.464 149.097 24.288 149.753 23.968C150.393 23.648 150.809 23.152 151.001 22.48H151.257V32.384C151.257 32.912 151.385 33.28 151.657 33.488C151.929 33.696 152.313 33.792 152.825 33.792V34H147.881V33.792ZM154.507 33.776C153.979 33.52 153.579 33.168 153.291 32.736C153.003 32.32 152.859 31.856 152.859 31.36C152.859 30.688 153.083 30.096 153.563 29.616C154.027 29.136 154.635 28.752 155.387 28.496C154.683 28.112 154.155 27.68 153.819 27.2C153.467 26.736 153.307 26.208 153.307 25.6C153.307 25.104 153.435 24.624 153.707 24.176C153.979 23.728 154.363 23.36 154.859 23.072C155.339 22.784 155.899 22.64 156.523 22.64C157.083 22.64 157.595 22.768 158.075 22.992C158.555 23.232 158.923 23.552 159.211 23.952C159.483 24.352 159.627 24.784 159.627 25.248C159.627 25.888 159.419 26.4 159.003 26.816C158.587 27.232 158.075 27.52 157.435 27.68L157.755 27.856C158.539 28.304 159.131 28.784 159.531 29.296C159.915 29.808 160.123 30.384 160.123 30.992C160.123 31.568 159.947 32.112 159.611 32.592C159.275 33.072 158.811 33.456 158.235 33.744C157.659 34.032 157.019 34.16 156.347 34.16C155.643 34.16 155.035 34.032 154.507 33.776ZM154.843 32.368C155.035 32.816 155.291 33.184 155.643 33.456C155.979 33.728 156.363 33.856 156.779 33.856C157.291 33.856 157.707 33.664 158.027 33.264C158.347 32.88 158.523 32.4 158.523 31.824C158.523 31.264 158.363 30.784 158.075 30.368C157.787 29.968 157.371 29.616 156.827 29.296L155.739 28.704C155.371 28.976 155.083 29.28 154.875 29.632C154.651 29.984 154.555 30.416 154.555 30.944C154.555 31.456 154.651 31.92 154.843 32.368ZM155.307 26.192C155.595 26.56 156.027 26.912 156.635 27.232L157.083 27.488C157.403 27.264 157.659 26.96 157.819 26.608C157.979 26.256 158.059 25.872 158.059 25.44C158.059 24.976 157.979 24.544 157.835 24.16C157.675 23.776 157.483 23.472 157.227 23.248C156.971 23.024 156.683 22.912 156.379 22.912C155.931 22.912 155.579 23.104 155.307 23.472C155.019 23.856 154.891 24.288 154.891 24.8C154.891 25.36 155.019 25.824 155.307 26.192ZM161.245 33.808C161.037 33.584 160.941 33.312 160.941 32.96C160.941 32.64 161.037 32.384 161.245 32.16C161.453 31.952 161.725 31.84 162.061 31.84C162.381 31.84 162.653 31.952 162.861 32.16C163.069 32.384 163.181 32.64 163.181 32.96C163.181 33.312 163.069 33.584 162.861 33.808C162.653 34.032 162.381 34.128 162.061 34.128C161.725 34.128 161.453 34.032 161.245 33.808ZM161.245 28.656C161.037 28.432 160.941 28.16 160.941 27.808C160.941 27.488 161.037 27.232 161.245 27.008C161.453 26.8 161.725 26.688 162.061 26.688C162.381 26.688 162.653 26.8 162.861 27.008C163.069 27.232 163.181 27.488 163.181 27.808C163.181 28.16 163.069 28.432 162.861 28.656C162.653 28.88 162.381 28.976 162.061 28.976C161.725 28.976 161.453 28.88 161.245 28.656ZM165.157 33.824C164.693 33.632 164.325 33.344 164.053 32.976C163.765 32.624 163.637 32.208 163.637 31.76C163.637 31.472 163.717 31.232 163.909 31.04C164.085 30.848 164.309 30.752 164.565 30.752C164.789 30.752 164.981 30.848 165.141 31.008C165.285 31.184 165.365 31.376 165.365 31.6C165.365 31.776 165.301 31.984 165.205 32.208C165.077 32.432 165.029 32.624 165.029 32.816C165.029 33.12 165.157 33.36 165.413 33.552C165.669 33.744 165.989 33.824 166.373 33.824C166.757 33.824 167.109 33.696 167.429 33.408C167.749 33.136 167.989 32.784 168.181 32.336C168.357 31.888 168.453 31.424 168.453 30.928C168.453 30.064 168.197 29.36 167.701 28.816C167.205 28.272 166.549 27.984 165.733 27.984V27.76C166.405 27.696 166.933 27.472 167.349 27.088C167.749 26.704 167.957 26.192 167.957 25.536C167.957 24.896 167.781 24.4 167.429 24.048C167.077 23.696 166.661 23.52 166.165 23.52C165.781 23.52 165.413 23.648 165.077 23.904C164.725 24.16 164.469 24.544 164.309 25.04L164.069 24.976C164.229 24.288 164.581 23.712 165.109 23.264C165.637 22.816 166.277 22.576 167.029 22.576C167.461 22.576 167.877 22.688 168.261 22.88C168.645 23.072 168.965 23.36 169.205 23.728C169.445 24.096 169.573 24.528 169.573 25.008C169.573 25.392 169.477 25.744 169.301 26.096C169.109 26.448 168.869 26.736 168.549 26.96C168.229 27.184 167.877 27.328 167.509 27.36C168.037 27.424 168.517 27.6 168.965 27.888C169.397 28.176 169.733 28.56 169.989 29.024C170.245 29.504 170.373 30.032 170.373 30.608C170.373 31.312 170.197 31.92 169.845 32.448C169.493 32.992 169.013 33.392 168.437 33.68C167.861 33.968 167.253 34.112 166.613 34.112C166.101 34.112 165.605 34.016 165.157 33.824ZM173.194 33.456C172.554 32.992 172.058 32.32 171.69 31.44C171.322 30.56 171.146 29.536 171.146 28.352C171.146 27.168 171.322 26.128 171.706 25.264C172.074 24.4 172.57 23.76 173.178 23.312C173.786 22.864 174.458 22.64 175.178 22.64C175.882 22.64 176.554 22.88 177.162 23.328C177.77 23.776 178.266 24.448 178.634 25.312C178.986 26.176 179.178 27.2 179.178 28.384C179.178 29.584 178.986 30.624 178.634 31.488C178.282 32.352 177.802 33.024 177.21 33.472C176.618 33.936 175.978 34.16 175.29 34.16C174.522 34.16 173.818 33.936 173.194 33.456ZM173.978 32.56C174.394 33.424 174.906 33.84 175.53 33.84C175.594 33.84 175.674 33.84 175.786 33.808C176.282 33.712 176.666 33.248 176.922 32.4C177.178 31.552 177.322 30.512 177.322 29.296C177.322 28.688 177.29 28.08 177.226 27.472C177.066 26.112 176.794 25.024 176.41 24.208C176.01 23.392 175.498 22.976 174.89 22.976C174.81 22.976 174.714 22.992 174.586 23.008C174.074 23.12 173.674 23.6 173.418 24.432C173.162 25.264 173.034 26.288 173.034 27.488C173.034 28.096 173.066 28.688 173.13 29.28C173.274 30.624 173.562 31.712 173.978 32.56Z" fill="black"/>
</svg>
