<svg viewBox="0 0 170 38" fill="none" xmlns="http://www.w3.org/2000/svg">
<path d="M18.5224 11.792C18.8744 11.792 19.1464 11.696 19.3384 11.472C19.5304 11.264 19.6424 10.896 19.6424 10.384V2.416C19.6424 1.904 19.5304 1.552 19.3384 1.328C19.1464 1.12 18.8744 1.008 18.5224 1.008V0.799999H26.3944L26.8584 4.112L26.6504 4.16C26.2984 2.112 25.3064 1.072 23.6744 1.072H21.4664V6.208H23.2424C23.7704 6.208 24.1544 6.08 24.3944 5.792C24.6344 5.52 24.7624 5.04 24.7624 4.352H24.9864V8.368H24.7624C24.7624 7.696 24.6344 7.2 24.3944 6.912C24.1384 6.624 23.7544 6.48 23.2264 6.48H21.4664V10.864C21.4664 11.184 21.5144 11.408 21.6424 11.536C21.7544 11.664 21.9784 11.728 22.3144 11.728H23.9304C24.8264 11.728 25.5304 11.488 26.0424 10.976C26.5544 10.48 26.9544 9.744 27.2424 8.768L27.4184 8.816L26.7944 12H18.5224V11.792ZM31.871 11.792C32.095 11.792 32.271 11.76 32.415 11.664C32.559 11.584 32.639 11.456 32.639 11.264C32.639 11.072 32.543 10.832 32.367 10.544L31.039 8.448L30.255 9.68C29.935 10.208 29.775 10.64 29.775 10.992C29.775 11.248 29.855 11.456 30.015 11.584C30.175 11.728 30.399 11.792 30.703 11.792V12H27.247V11.792C27.647 11.792 28.079 11.616 28.559 11.232C29.039 10.864 29.471 10.352 29.887 9.712L30.863 8.176L29.071 5.344C28.767 4.88 28.495 4.56 28.255 4.368C27.999 4.192 27.711 4.096 27.391 4.096V3.888H31.567V4.096C31.343 4.096 31.151 4.144 31.007 4.224C30.847 4.32 30.783 4.448 30.783 4.624C30.783 4.816 30.863 5.056 31.055 5.344L32.191 7.152L32.799 6.08C33.103 5.568 33.263 5.136 33.263 4.784C33.263 4.336 32.975 4.096 32.399 4.096V3.888H35.775V4.096C35.359 4.096 34.911 4.272 34.431 4.624C33.935 4.976 33.503 5.472 33.151 6.08L32.367 7.424L34.351 10.544C34.639 11.024 34.911 11.344 35.167 11.52C35.423 11.712 35.743 11.792 36.095 11.792V12H31.871V11.792ZM41.4263 11.792C41.8103 11.792 42.0983 11.712 42.3223 11.552C42.5303 11.392 42.6423 11.12 42.6423 10.72C42.6423 10.592 42.6263 10.48 42.6263 10.4L42.1303 6.736C41.9383 5.376 41.3783 4.688 40.4663 4.688C40.0503 4.688 39.6983 4.864 39.4103 5.2C39.1223 5.552 38.9463 5.952 38.8983 6.432V10.384C38.8983 10.912 38.9943 11.28 39.1863 11.488C39.3783 11.696 39.6503 11.792 40.0182 11.792V12H36.0503V11.792C36.4023 11.792 36.6743 11.696 36.8663 11.472C37.0583 11.264 37.1703 10.896 37.1703 10.384V2.064C37.1703 1.68 37.0743 1.408 36.9143 1.248C36.7543 1.088 36.4823 1.008 36.1143 1.008V0.799999C37.1383 0.735999 38.0182 0.528 38.7543 0.176L38.8983 0.256V5.744C39.0423 5.168 39.3303 4.688 39.7623 4.304C40.1943 3.92 40.7063 3.728 41.3143 3.728C42.0023 3.728 42.5623 3.984 43.0103 4.464C43.4423 4.944 43.7303 5.696 43.8743 6.688L44.4183 10.4C44.4823 10.912 44.6103 11.28 44.8343 11.488C45.0423 11.696 45.3303 11.792 45.6823 11.792V12H41.4263V11.792ZM46.7305 2.192C46.5225 1.968 46.4265 1.696 46.4265 1.344C46.4265 1.024 46.5225 0.768 46.7305 0.559999C46.9385 0.351999 47.2105 0.24 47.5465 0.24C47.8825 0.24 48.1545 0.351999 48.3625 0.559999C48.5705 0.768 48.6825 1.024 48.6825 1.344C48.6825 1.696 48.5705 1.968 48.3625 2.192C48.1545 2.416 47.8825 2.512 47.5465 2.512C47.2105 2.512 46.9385 2.416 46.7305 2.192ZM45.7065 11.792C46.0585 11.792 46.3305 11.696 46.5225 11.472C46.7145 11.264 46.8265 10.896 46.8265 10.384V5.632C46.8265 5.248 46.7305 4.992 46.5705 4.832C46.4105 4.672 46.1385 4.592 45.7705 4.576V4.368C46.7945 4.304 47.6745 4.096 48.4105 3.744L48.5545 3.824V10.384C48.5545 10.912 48.6505 11.28 48.8425 11.488C49.0345 11.696 49.3065 11.792 49.6745 11.792V12H45.7065V11.792ZM52.0954 11.872C51.5034 11.68 50.9754 11.424 50.4954 11.104V2.064C50.4954 1.68 50.3994 1.408 50.2394 1.248C50.0794 1.088 49.8074 1.008 49.4394 1.008V0.799999C50.4634 0.735999 51.3434 0.528 52.0794 0.176L52.2234 0.256V5.68C52.3674 5.184 52.6714 4.736 53.1354 4.352C53.5834 3.968 54.1274 3.76 54.7514 3.76C55.3754 3.76 55.9354 3.952 56.4314 4.336C56.9114 4.72 57.2954 5.216 57.5674 5.84C57.8234 6.48 57.9674 7.152 57.9674 7.872C57.9674 8.704 57.7914 9.456 57.4394 10.096C57.0874 10.752 56.5914 11.264 55.9834 11.616C55.3754 11.984 54.6874 12.16 53.9514 12.16C53.3114 12.16 52.6874 12.064 52.0954 11.872ZM52.6714 11.12C52.9754 11.664 53.4394 11.92 54.0474 11.92C54.6874 11.92 55.2154 11.6 55.5994 10.944C55.9834 10.304 56.1754 9.456 56.1754 8.416C56.1754 7.648 56.0634 6.976 55.8714 6.4C55.6794 5.84 55.4074 5.408 55.0714 5.12C54.7194 4.832 54.3354 4.672 53.9034 4.672C53.4874 4.672 53.1354 4.832 52.8314 5.12C52.5114 5.408 52.3194 5.776 52.2234 6.224V8.592C52.2234 9.744 52.3674 10.576 52.6714 11.12ZM59.0743 2.192C58.8663 1.968 58.7703 1.696 58.7703 1.344C58.7703 1.024 58.8663 0.768 59.0743 0.559999C59.2823 0.351999 59.5543 0.24 59.8903 0.24C60.2263 0.24 60.4983 0.351999 60.7063 0.559999C60.9143 0.768 61.0263 1.024 61.0263 1.344C61.0263 1.696 60.9143 1.968 60.7063 2.192C60.4983 2.416 60.2263 2.512 59.8903 2.512C59.5543 2.512 59.2823 2.416 59.0743 2.192ZM58.0503 11.792C58.4023 11.792 58.6743 11.696 58.8663 11.472C59.0583 11.264 59.1703 10.896 59.1703 10.384V5.632C59.1703 5.248 59.0743 4.992 58.9143 4.832C58.7543 4.672 58.4823 4.592 58.1143 4.576V4.368C59.1383 4.304 60.0182 4.096 60.7543 3.744L60.8983 3.824V10.384C60.8983 10.912 60.9943 11.28 61.1863 11.488C61.3783 11.696 61.6503 11.792 62.0182 11.792V12H58.0503V11.792ZM63.4639 11.424C63.0799 10.928 62.8879 10.288 62.8879 9.488V4.528H61.8799V4.304C62.5359 4.24 63.0959 4.016 63.5439 3.6C63.9919 3.184 64.2799 2.624 64.4079 1.904H64.6319V3.888H67.0159L66.7439 4.528H64.6319V9.312C64.6319 9.856 64.7439 10.304 64.9679 10.64C65.1919 10.992 65.5119 11.152 65.9119 11.152C66.2319 11.152 66.4879 11.056 66.6959 10.832C66.9039 10.608 67.0479 10.336 67.1279 10L67.3199 10.032C67.2399 10.64 66.9999 11.136 66.6159 11.552C66.2159 11.968 65.7359 12.16 65.1919 12.16C64.4239 12.16 63.8479 11.92 63.4639 11.424ZM68.3243 2.192C68.1163 1.968 68.0203 1.696 68.0203 1.344C68.0203 1.024 68.1163 0.768 68.3243 0.559999C68.5323 0.351999 68.8043 0.24 69.1403 0.24C69.4763 0.24 69.7483 0.351999 69.9563 0.559999C70.1643 0.768 70.2763 1.024 70.2763 1.344C70.2763 1.696 70.1643 1.968 69.9563 2.192C69.7483 2.416 69.4763 2.512 69.1403 2.512C68.8043 2.512 68.5323 2.416 68.3243 2.192ZM67.3003 11.792C67.6523 11.792 67.9243 11.696 68.1163 11.472C68.3083 11.264 68.4203 10.896 68.4203 10.384V5.632C68.4203 5.248 68.3243 4.992 68.1643 4.832C68.0043 4.672 67.7323 4.592 67.3643 4.576V4.368C68.3883 4.304 69.2682 4.096 70.0043 3.744L70.1483 3.824V10.384C70.1483 10.912 70.2443 11.28 70.4363 11.488C70.6283 11.696 70.9003 11.792 71.2682 11.792V12H67.3003V11.792ZM73.355 11.6C72.731 11.232 72.235 10.72 71.883 10.064C71.515 9.424 71.339 8.704 71.339 7.904C71.339 7.088 71.515 6.368 71.883 5.728C72.235 5.088 72.731 4.608 73.355 4.256C73.963 3.904 74.635 3.728 75.371 3.728C76.107 3.728 76.779 3.92 77.387 4.272C77.995 4.64 78.491 5.136 78.859 5.776C79.211 6.416 79.403 7.136 79.403 7.936C79.403 8.752 79.227 9.488 78.875 10.128C78.523 10.768 78.027 11.28 77.419 11.632C76.811 11.984 76.139 12.16 75.403 12.16C74.651 12.16 73.963 11.984 73.355 11.6ZM74.091 10.864C74.539 11.536 75.083 11.856 75.691 11.856C76.299 11.856 76.763 11.568 77.099 10.976C77.419 10.4 77.595 9.632 77.595 8.688C77.595 8.384 77.563 8 77.515 7.552C77.371 6.496 77.083 5.648 76.635 5.008C76.187 4.368 75.675 4.032 75.083 4.032C74.459 4.032 73.979 4.336 73.643 4.928C73.307 5.536 73.147 6.304 73.147 7.232C73.147 7.616 73.163 7.952 73.211 8.256C73.339 9.328 73.643 10.192 74.091 10.864ZM84.8493 11.792C85.2013 11.792 85.4893 11.712 85.6973 11.552C85.9053 11.392 86.0173 11.12 86.0173 10.72C86.0173 10.592 86.0013 10.48 86.0013 10.4L85.5053 6.736C85.3133 5.376 84.7533 4.688 83.8413 4.688C83.4253 4.688 83.0573 4.864 82.7693 5.2C82.4813 5.552 82.3053 5.952 82.2733 6.432V10.384C82.2733 10.912 82.3693 11.28 82.5613 11.488C82.7533 11.696 83.0253 11.792 83.3932 11.792V12H79.4253V11.792C79.7773 11.792 80.0493 11.696 80.2413 11.472C80.4333 11.264 80.5453 10.896 80.5453 10.384V5.632C80.5453 5.248 80.4493 4.992 80.2893 4.832C80.1293 4.672 79.8573 4.592 79.4893 4.576V4.368C80.5133 4.304 81.3932 4.096 82.1293 3.744L82.2733 3.824V5.744C82.4173 5.168 82.7053 4.688 83.1373 4.304C83.5693 3.92 84.0813 3.728 84.6893 3.728C85.3773 3.728 85.9373 3.984 86.3853 4.464C86.8173 4.944 87.1053 5.696 87.2493 6.688L87.7933 10.4C87.8573 10.912 87.9853 11.28 88.1933 11.488C88.3853 11.696 88.6573 11.792 89.0093 11.792V12H84.8493V11.792ZM94.5894 11.6C93.9654 11.232 93.4694 10.72 93.1174 10.064C92.7494 9.424 92.5734 8.704 92.5734 7.904C92.5734 7.088 92.7494 6.368 93.1174 5.728C93.4694 5.088 93.9654 4.608 94.5894 4.256C95.1974 3.904 95.8694 3.728 96.6054 3.728C97.3414 3.728 98.0134 3.92 98.6214 4.272C99.2294 4.64 99.7254 5.136 100.093 5.776C100.445 6.416 100.637 7.136 100.637 7.936C100.637 8.752 100.461 9.488 100.109 10.128C99.7574 10.768 99.2614 11.28 98.6534 11.632C98.0454 11.984 97.3734 12.16 96.6374 12.16C95.8854 12.16 95.1974 11.984 94.5894 11.6ZM95.3254 10.864C95.7734 11.536 96.3174 11.856 96.9254 11.856C97.5334 11.856 97.9974 11.568 98.3334 10.976C98.6534 10.4 98.8294 9.632 98.8294 8.688C98.8294 8.384 98.7974 8 98.7494 7.552C98.6054 6.496 98.3174 5.648 97.8694 5.008C97.4214 4.368 96.9094 4.032 96.3174 4.032C95.6934 4.032 95.2134 4.336 94.8774 4.928C94.5414 5.536 94.3814 6.304 94.3814 7.232C94.3814 7.616 94.3974 7.952 94.4454 8.256C94.5734 9.328 94.8774 10.192 95.3254 10.864ZM100.611 14.992C100.963 14.992 101.235 14.896 101.427 14.672C101.619 14.464 101.731 14.096 101.731 13.584V5.632C101.731 5.248 101.635 4.992 101.475 4.832C101.315 4.672 101.043 4.592 100.675 4.576V4.368C101.699 4.304 102.579 4.096 103.315 3.744L103.459 3.824V5.488C103.603 5.072 103.907 4.672 104.371 4.304C104.835 3.952 105.395 3.76 106.035 3.76C106.643 3.76 107.203 3.952 107.699 4.304C108.195 4.672 108.579 5.168 108.867 5.792C109.155 6.432 109.299 7.12 109.299 7.888C109.299 8.672 109.123 9.392 108.803 10.048C108.467 10.704 108.019 11.216 107.443 11.6C106.867 11.984 106.227 12.16 105.555 12.16C104.707 12.16 104.003 11.856 103.459 11.216V13.584C103.459 14.112 103.571 14.48 103.811 14.688C104.035 14.896 104.371 14.992 104.803 14.992V15.2H100.611V14.992ZM103.987 10.976C104.339 11.568 104.819 11.856 105.427 11.856C105.811 11.856 106.163 11.728 106.483 11.44C106.803 11.152 107.043 10.752 107.219 10.24C107.395 9.728 107.491 9.152 107.491 8.48C107.491 7.68 107.379 6.992 107.171 6.416C106.963 5.84 106.675 5.408 106.323 5.104C105.971 4.816 105.571 4.656 105.139 4.656C104.723 4.656 104.387 4.784 104.099 5.04C103.811 5.296 103.587 5.616 103.459 6V8.768C103.459 9.664 103.635 10.4 103.987 10.976ZM111.943 11.6C111.383 11.232 110.951 10.72 110.647 10.08C110.327 9.44 110.183 8.752 110.183 7.984C110.183 7.184 110.343 6.464 110.695 5.824C111.047 5.184 111.511 4.672 112.119 4.288C112.711 3.92 113.367 3.728 114.071 3.728C114.679 3.728 115.223 3.872 115.671 4.144C116.119 4.432 116.471 4.8 116.711 5.264C116.951 5.744 117.079 6.256 117.079 6.8H111.879C111.863 6.864 111.863 6.96 111.863 7.072C111.863 7.824 111.975 8.48 112.215 9.056C112.439 9.632 112.775 10.08 113.207 10.4C113.639 10.72 114.151 10.864 114.727 10.864C115.367 10.864 115.911 10.672 116.359 10.288C116.807 9.904 117.095 9.408 117.223 8.768L117.447 8.8C117.351 9.44 117.127 10.016 116.807 10.528C116.487 11.04 116.071 11.44 115.559 11.728C115.047 12.016 114.487 12.16 113.879 12.16C113.143 12.16 112.503 11.984 111.943 11.6ZM114.695 6.528C114.919 6.528 115.095 6.48 115.191 6.368C115.287 6.256 115.351 6.064 115.351 5.808C115.351 5.36 115.223 4.944 114.999 4.56C114.759 4.176 114.407 3.968 113.943 3.968C113.463 3.968 113.015 4.224 112.631 4.72C112.231 5.232 111.991 5.824 111.895 6.528H114.695ZM122.802 11.792C123.154 11.792 123.442 11.712 123.65 11.552C123.858 11.392 123.97 11.12 123.97 10.72C123.97 10.592 123.954 10.48 123.954 10.4L123.458 6.736C123.266 5.376 122.706 4.688 121.794 4.688C121.378 4.688 121.01 4.864 120.722 5.2C120.434 5.552 120.258 5.952 120.226 6.432V10.384C120.226 10.912 120.322 11.28 120.514 11.488C120.706 11.696 120.978 11.792 121.346 11.792V12H117.378V11.792C117.73 11.792 118.002 11.696 118.194 11.472C118.386 11.264 118.498 10.896 118.498 10.384V5.632C118.498 5.248 118.402 4.992 118.242 4.832C118.082 4.672 117.81 4.592 117.442 4.576V4.368C118.466 4.304 119.346 4.096 120.082 3.744L120.226 3.824V5.744C120.37 5.168 120.658 4.688 121.09 4.304C121.522 3.92 122.034 3.728 122.642 3.728C123.33 3.728 123.89 3.984 124.338 4.464C124.77 4.944 125.058 5.696 125.202 6.688L125.746 10.4C125.81 10.912 125.938 11.28 126.146 11.488C126.338 11.696 126.61 11.792 126.962 11.792V12H122.802V11.792ZM128.012 2.192C127.804 1.968 127.708 1.696 127.708 1.344C127.708 1.024 127.804 0.768 128.012 0.559999C128.22 0.351999 128.492 0.24 128.828 0.24C129.164 0.24 129.436 0.351999 129.644 0.559999C129.852 0.768 129.964 1.024 129.964 1.344C129.964 1.696 129.852 1.968 129.644 2.192C129.436 2.416 129.164 2.512 128.828 2.512C128.492 2.512 128.22 2.416 128.012 2.192ZM126.988 11.792C127.34 11.792 127.612 11.696 127.804 11.472C127.996 11.264 128.108 10.896 128.108 10.384V5.632C128.108 5.248 128.012 4.992 127.852 4.832C127.692 4.672 127.42 4.592 127.052 4.576V4.368C128.076 4.304 128.956 4.096 129.692 3.744L129.836 3.824V10.384C129.836 10.912 129.932 11.28 130.124 11.488C130.316 11.696 130.588 11.792 130.956 11.792V12H126.988V11.792ZM136.521 11.792C136.873 11.792 137.161 11.712 137.369 11.552C137.577 11.392 137.689 11.12 137.689 10.72C137.689 10.592 137.673 10.48 137.673 10.4L137.177 6.736C136.985 5.376 136.425 4.688 135.513 4.688C135.097 4.688 134.729 4.864 134.441 5.2C134.153 5.552 133.977 5.952 133.945 6.432V10.384C133.945 10.912 134.041 11.28 134.233 11.488C134.425 11.696 134.697 11.792 135.065 11.792V12H131.097V11.792C131.449 11.792 131.721 11.696 131.913 11.472C132.105 11.264 132.217 10.896 132.217 10.384V5.632C132.217 5.248 132.121 4.992 131.961 4.832C131.801 4.672 131.529 4.592 131.161 4.576V4.368C132.185 4.304 133.065 4.096 133.801 3.744L133.945 3.824V5.744C134.089 5.168 134.377 4.688 134.809 4.304C135.241 3.92 135.753 3.728 136.361 3.728C137.049 3.728 137.609 3.984 138.057 4.464C138.489 4.944 138.777 5.696 138.921 6.688L139.465 10.4C139.529 10.912 139.657 11.28 139.865 11.488C140.057 11.696 140.329 11.792 140.681 11.792V12H136.521V11.792ZM142.118 15.04C141.654 14.848 141.302 14.592 141.062 14.272C140.822 13.968 140.71 13.648 140.71 13.312C140.71 13.088 140.854 12.864 141.142 12.64C141.43 12.432 141.83 12.208 142.342 11.984C141.91 11.888 141.574 11.712 141.334 11.424C141.094 11.136 140.982 10.816 140.982 10.448C140.982 10.32 140.998 10.208 141.062 10.144C141.11 10.08 141.238 9.968 141.446 9.824L141.83 9.552L142.486 9.056C141.974 8.832 141.574 8.496 141.286 8.064C140.998 7.648 140.854 7.152 140.854 6.592C140.854 6.032 140.998 5.536 141.286 5.088C141.574 4.64 141.99 4.304 142.518 4.048C143.03 3.808 143.638 3.68 144.31 3.68C144.518 3.68 144.822 3.712 145.238 3.776C145.782 3.856 146.23 3.888 146.614 3.888H148.278L148.006 4.528L146.454 4.496C146.838 4.768 147.126 5.088 147.334 5.456C147.526 5.84 147.638 6.224 147.638 6.64C147.638 7.184 147.494 7.68 147.206 8.096C146.918 8.512 146.534 8.848 146.022 9.072C145.51 9.312 144.934 9.424 144.262 9.424C143.67 9.424 143.142 9.328 142.678 9.136C142.454 9.328 142.294 9.488 142.23 9.584C142.15 9.68 142.118 9.776 142.118 9.84C142.118 10.272 142.438 10.48 143.078 10.48H146.086C146.726 10.48 147.222 10.592 147.59 10.816C147.958 11.04 148.15 11.424 148.15 11.968C148.15 12.512 147.942 13.04 147.558 13.552C147.174 14.08 146.63 14.512 145.958 14.848C145.286 15.184 144.534 15.344 143.718 15.344C143.11 15.344 142.566 15.248 142.118 15.04ZM142.886 14.048C143.334 14.336 143.926 14.48 144.662 14.48C145.238 14.48 145.734 14.4 146.182 14.224C146.614 14.064 146.95 13.84 147.19 13.584C147.43 13.328 147.558 13.056 147.558 12.784C147.558 12.56 147.462 12.368 147.27 12.24C147.078 12.112 146.806 12.032 146.438 12.032H142.886H142.694C142.502 12.192 142.342 12.352 142.246 12.496C142.15 12.64 142.102 12.816 142.118 13.008C142.166 13.424 142.422 13.76 142.886 14.048ZM143.046 8.368C143.414 8.896 143.894 9.152 144.47 9.152C144.934 9.152 145.302 8.944 145.59 8.496C145.862 8.048 146.006 7.504 146.006 6.848C146.006 6.336 145.91 5.872 145.75 5.424C145.59 4.976 145.35 4.624 145.062 4.352C144.774 4.096 144.438 3.952 144.086 3.952C143.574 3.952 143.19 4.192 142.918 4.672C142.63 5.152 142.502 5.696 142.502 6.336C142.502 7.168 142.678 7.856 143.046 8.368ZM149.347 11.808C149.139 11.584 149.043 11.312 149.043 10.96C149.043 10.64 149.139 10.384 149.347 10.16C149.555 9.952 149.827 9.84 150.163 9.84C150.483 9.84 150.755 9.952 150.963 10.16C151.171 10.384 151.283 10.64 151.283 10.96C151.283 11.312 151.171 11.584 150.963 11.808C150.755 12.032 150.483 12.128 150.163 12.128C149.827 12.128 149.555 12.032 149.347 11.808ZM149.347 6.656C149.139 6.432 149.043 6.16 149.043 5.808C149.043 5.488 149.139 5.232 149.347 5.008C149.555 4.8 149.827 4.688 150.163 4.688C150.483 4.688 150.755 4.8 150.963 5.008C151.171 5.232 151.283 5.488 151.283 5.808C151.283 6.16 151.171 6.432 150.963 6.656C150.755 6.88 150.483 6.976 150.163 6.976C149.827 6.976 149.555 6.88 149.347 6.656ZM0.038 33.792C0.39 33.792 0.662 33.696 0.854 33.472C1.046 33.264 1.158 32.896 1.158 32.384V24.416C1.158 23.904 1.062 23.536 0.87 23.328C0.678 23.12 0.39 23.008 0.038 23.008V22.8H7.878L8.342 26.112L8.15 26.16C7.782 24.112 6.79 23.072 5.174 23.072H2.982V28.384H4.726C5.27 28.384 5.654 28.256 5.894 27.968C6.134 27.696 6.262 27.216 6.262 26.528H6.47V30.544H6.262C6.262 29.872 6.134 29.376 5.894 29.088C5.638 28.8 5.254 28.656 4.71 28.656H2.982V32.384C2.982 32.912 3.094 33.28 3.334 33.488C3.558 33.696 3.894 33.792 4.326 33.792V34H0.038V33.792ZM9.77088 33.6C9.21088 33.232 8.77888 32.72 8.47488 32.08C8.15488 31.44 8.01088 30.752 8.01088 29.984C8.01088 29.184 8.17088 28.464 8.52288 27.824C8.87488 27.184 9.33888 26.672 9.94688 26.288C10.5389 25.92 11.1949 25.728 11.8989 25.728C12.5069 25.728 13.0509 25.872 13.4989 26.144C13.9469 26.432 14.2989 26.8 14.5389 27.264C14.7789 27.744 14.9069 28.256 14.9069 28.8H9.70688C9.69088 28.864 9.69088 28.96 9.69088 29.072C9.69088 29.824 9.80288 30.48 10.0429 31.056C10.2669 31.632 10.6029 32.08 11.0349 32.4C11.4669 32.72 11.9789 32.864 12.5549 32.864C13.1949 32.864 13.7389 32.672 14.1869 32.288C14.6349 31.904 14.9229 31.408 15.0509 30.768L15.2749 30.8C15.1789 31.44 14.9549 32.016 14.6349 32.528C14.3149 33.04 13.8989 33.44 13.3869 33.728C12.8749 34.016 12.3149 34.16 11.7069 34.16C10.9709 34.16 10.3309 33.984 9.77088 33.6ZM12.5229 28.528C12.7469 28.528 12.9229 28.48 13.0189 28.368C13.1149 28.256 13.1789 28.064 13.1789 27.808C13.1789 27.36 13.0509 26.944 12.8269 26.56C12.5869 26.176 12.2349 25.968 11.7709 25.968C11.2909 25.968 10.8429 26.224 10.4589 26.72C10.0589 27.232 9.81888 27.824 9.72288 28.528H12.5229ZM17.8141 33.872C17.2221 33.68 16.6941 33.424 16.2141 33.104V24.064C16.2141 23.68 16.1181 23.408 15.9581 23.248C15.7981 23.088 15.5261 23.008 15.1581 23.008V22.8C16.1821 22.736 17.0621 22.528 17.7981 22.176L17.9421 22.256V27.68C18.0861 27.184 18.3901 26.736 18.8541 26.352C19.3021 25.968 19.8461 25.76 20.4701 25.76C21.0941 25.76 21.6541 25.952 22.1501 26.336C22.6301 26.72 23.0141 27.216 23.2861 27.84C23.5421 28.48 23.6861 29.152 23.6861 29.872C23.6861 30.704 23.5101 31.456 23.1581 32.096C22.8061 32.752 22.3101 33.264 21.7021 33.616C21.0941 33.984 20.4061 34.16 19.6701 34.16C19.0301 34.16 18.4061 34.064 17.8141 33.872ZM18.3901 33.12C18.6941 33.664 19.1581 33.92 19.7661 33.92C20.4061 33.92 20.9341 33.6 21.3181 32.944C21.7021 32.304 21.8941 31.456 21.8941 30.416C21.8941 29.648 21.7821 28.976 21.5901 28.4C21.3981 27.84 21.1261 27.408 20.7901 27.12C20.4381 26.832 20.0541 26.672 19.6221 26.672C19.2061 26.672 18.8541 26.832 18.5501 27.12C18.2301 27.408 18.0381 27.776 17.9421 28.224V30.592C17.9421 31.744 18.0861 32.576 18.3901 33.12ZM23.769 33.792C24.121 33.792 24.393 33.696 24.585 33.472C24.777 33.264 24.889 32.896 24.889 32.384V27.632C24.889 27.248 24.809 26.992 24.649 26.832C24.489 26.672 24.217 26.592 23.833 26.576V26.368C24.857 26.304 25.737 26.096 26.473 25.744L26.617 25.824V27.568C26.745 27.072 26.985 26.64 27.337 26.272C27.689 25.92 28.089 25.728 28.569 25.728C28.937 25.728 29.241 25.856 29.481 26.08C29.705 26.32 29.833 26.592 29.833 26.896C29.833 27.168 29.737 27.392 29.577 27.584C29.417 27.776 29.193 27.856 28.921 27.856C28.729 27.856 28.585 27.824 28.473 27.728C28.361 27.648 28.265 27.536 28.201 27.408C28.137 27.28 28.073 27.152 28.041 27.024C27.977 26.896 27.929 26.816 27.881 26.752C27.817 26.704 27.753 26.672 27.657 26.672C27.401 26.672 27.177 26.832 26.985 27.12C26.793 27.424 26.665 27.776 26.617 28.176V32.384C26.617 32.896 26.745 33.264 27.001 33.472C27.257 33.696 27.609 33.792 28.073 33.792V34H23.769V33.792ZM32.2293 33.792C31.8293 33.536 31.5253 33.168 31.3013 32.688C31.0773 32.208 30.9653 31.632 30.9653 30.976V27.632C30.9653 27.248 30.8693 26.992 30.7093 26.832C30.5493 26.672 30.2773 26.592 29.9093 26.576V26.368C30.9333 26.304 31.8133 26.096 32.5493 25.744L32.6933 25.824V30.8C32.6933 31.536 32.8213 32.128 33.1093 32.544C33.3813 32.976 33.7973 33.184 34.3573 33.184C34.8373 33.184 35.2053 33.024 35.4773 32.688C35.7493 32.352 35.9093 31.952 35.9573 31.504V27.632C35.9573 27.248 35.8613 26.992 35.7013 26.832C35.5413 26.672 35.2693 26.592 34.9013 26.576V26.368C35.9253 26.304 36.8053 26.096 37.5413 25.744L37.6853 25.824V32.496C37.6853 32.848 37.7653 33.088 37.9253 33.216C38.0853 33.344 38.3733 33.392 38.7573 33.376V33.584C37.7173 33.712 36.8373 33.92 36.1173 34.192L35.9573 34.096V32.272C35.7813 32.784 35.4933 33.232 35.0933 33.616C34.6773 34 34.1813 34.176 33.5733 34.176C33.0613 34.176 32.6133 34.048 32.2293 33.792ZM44.4959 33.696C44.2399 33.408 44.0799 32.992 44.0159 32.464L43.9679 32.112C43.9039 32.464 43.7439 32.8 43.5199 33.104C43.2799 33.424 42.9759 33.68 42.6079 33.872C42.2239 34.064 41.8079 34.16 41.3439 34.16C40.6719 34.16 40.1119 33.968 39.6799 33.584C39.2479 33.2 39.0399 32.704 39.0399 32.096C39.0399 31.552 39.2159 31.104 39.5999 30.752C39.9839 30.4 40.5279 30.192 41.2319 30.128L43.6639 29.936L43.5519 29.12C43.4559 28.368 43.2319 27.776 42.8799 27.344C42.5279 26.928 42.0639 26.704 41.4879 26.704C41.0239 26.704 40.6239 26.848 40.2719 27.104C39.9199 27.36 39.6639 27.712 39.4879 28.144L39.2799 28.096C39.3759 27.712 39.5679 27.328 39.8559 26.96C40.1439 26.608 40.4959 26.304 40.9279 26.08C41.3599 25.856 41.8399 25.728 42.3679 25.728C43.1679 25.728 43.8239 25.984 44.3199 26.496C44.8159 27.008 45.1199 27.744 45.2479 28.688L45.7119 32.224C45.7919 32.832 45.9999 33.12 46.3519 33.12C46.4479 33.12 46.5439 33.088 46.6239 32.992C46.7039 32.912 46.7519 32.8 46.7839 32.656L46.9759 32.672C46.9439 33.056 46.8159 33.392 46.5599 33.68C46.3039 33.984 45.9679 34.128 45.5519 34.128C45.1039 34.128 44.7519 33.984 44.4959 33.696ZM41.0719 32.784C41.3439 33.072 41.7119 33.216 42.1919 33.216C42.6719 33.216 43.0719 33.072 43.3919 32.784C43.6959 32.496 43.8719 32.144 43.9199 31.744L43.6959 30.176L42.1279 30.304C41.6479 30.352 41.2799 30.512 41.0239 30.768C40.7679 31.024 40.6559 31.36 40.6559 31.744C40.6559 32.16 40.7839 32.496 41.0719 32.784ZM46.9721 33.792C47.3241 33.792 47.5961 33.696 47.7881 33.472C47.9801 33.264 48.0921 32.896 48.0921 32.384V27.632C48.0921 27.248 48.0121 26.992 47.8521 26.832C47.6921 26.672 47.4201 26.592 47.0361 26.576V26.368C48.0601 26.304 48.9401 26.096 49.6761 25.744L49.8201 25.824V27.568C49.9481 27.072 50.1881 26.64 50.5401 26.272C50.8921 25.92 51.2921 25.728 51.7721 25.728C52.1401 25.728 52.4441 25.856 52.6841 26.08C52.9081 26.32 53.0361 26.592 53.0361 26.896C53.0361 27.168 52.9401 27.392 52.7801 27.584C52.6201 27.776 52.3961 27.856 52.1241 27.856C51.9321 27.856 51.7881 27.824 51.6761 27.728C51.5641 27.648 51.4681 27.536 51.4041 27.408C51.3401 27.28 51.2761 27.152 51.2441 27.024C51.1801 26.896 51.1321 26.816 51.0841 26.752C51.0201 26.704 50.9561 26.672 50.8601 26.672C50.6041 26.672 50.3801 26.832 50.1881 27.12C49.9961 27.424 49.8681 27.776 49.8201 28.176V32.384C49.8201 32.896 49.9481 33.264 50.2041 33.472C50.4601 33.696 50.8121 33.792 51.2761 33.792V34H46.9721V33.792ZM55.5764 37.04C55.1604 36.848 54.8244 36.576 54.6004 36.256C54.3764 35.936 54.2644 35.584 54.2644 35.216C54.2644 34.96 54.3444 34.768 54.5044 34.608C54.6644 34.448 54.8564 34.368 55.0964 34.368C55.3364 34.368 55.5444 34.464 55.7044 34.64C55.8644 34.816 55.9604 35.024 55.9604 35.28C55.9604 35.408 55.9444 35.52 55.9124 35.648C55.8964 35.696 55.8804 35.76 55.8804 35.824C55.8644 35.904 55.8644 35.968 55.8644 36.032C55.8644 36.352 55.9764 36.608 56.2164 36.8C56.4404 36.992 56.7284 37.072 57.0644 37.072C58.4564 37.072 59.1604 35.824 59.1604 33.296V32.048C58.9844 32.56 58.6964 33.008 58.2964 33.392C57.8804 33.776 57.3844 33.952 56.7764 33.952C56.2644 33.952 55.8164 33.824 55.4324 33.568C55.0324 33.312 54.7284 32.944 54.5044 32.464C54.2804 31.984 54.1684 31.408 54.1684 30.752V27.632C54.1684 27.248 54.0724 26.992 53.9124 26.832C53.7524 26.672 53.4804 26.592 53.1124 26.576V26.368C54.1364 26.304 55.0164 26.096 55.7524 25.744L55.8964 25.824V30.576C55.8964 31.312 56.0244 31.904 56.3124 32.32C56.5844 32.752 57.0004 32.96 57.5604 32.96C58.0404 32.96 58.4084 32.8 58.6804 32.464C58.9524 32.128 59.1124 31.728 59.1604 31.28V27.632C59.1604 27.248 59.0644 26.992 58.9044 26.832C58.7444 26.672 58.4724 26.592 58.1044 26.576V26.368C59.1284 26.304 60.0084 26.096 60.7444 25.744L60.8884 25.824V33.104C60.8884 34.016 60.6964 34.784 60.3444 35.424C59.9764 36.064 59.4964 36.544 58.9204 36.864C58.3444 37.184 57.7204 37.328 57.0484 37.328C56.4884 37.328 55.9924 37.232 55.5764 37.04ZM68.5684 29.488C69.2884 28.336 69.6564 27.216 69.6564 26.16C69.6564 25.312 69.4484 24.672 69.0644 24.24C68.6644 23.824 68.1844 23.6 67.6404 23.6C67.1444 23.6 66.7124 23.776 66.3444 24.128C65.9604 24.48 65.7204 24.896 65.6084 25.408L65.3684 25.376C65.4484 24.896 65.6404 24.432 65.9444 24.016C66.2324 23.6 66.6164 23.264 67.0644 23.008C67.5124 22.752 67.9924 22.624 68.5364 22.624C69.0644 22.624 69.5604 22.768 70.0084 23.024C70.4564 23.28 70.8244 23.648 71.0964 24.128C71.3684 24.608 71.5124 25.136 71.5124 25.728C71.5124 26.464 71.3204 27.184 70.9364 27.856C70.5524 28.544 70.0244 29.216 69.3684 29.888C68.7124 30.56 67.7524 31.456 66.5044 32.576H69.1604C69.7844 32.576 70.2644 32.528 70.5844 32.432C70.9044 32.336 71.1444 32.16 71.3204 31.904C71.4804 31.664 71.6404 31.28 71.8004 30.736L71.9924 30.784L71.3684 34H65.0644V33.712C66.6804 32.048 67.8484 30.64 68.5684 29.488ZM72.4361 33.792C72.9321 33.792 73.3161 33.696 73.5881 33.488C73.8601 33.28 74.0041 32.912 74.0041 32.384V25.68C74.0041 25.344 73.9241 25.104 73.7961 24.944C73.6521 24.784 73.4121 24.704 73.0921 24.704H72.0681V24.48C72.9001 24.464 73.6521 24.288 74.3081 23.968C74.9481 23.648 75.3641 23.152 75.5561 22.48H75.8121V32.384C75.8121 32.912 75.9401 33.28 76.2121 33.488C76.4841 33.696 76.8681 33.792 77.3801 33.792V34H72.4361V33.792ZM78.9579 35.36C79.2139 35.072 79.3579 34.784 79.3579 34.496C79.3579 34.336 79.3099 34.224 79.2299 34.144C79.1339 34.064 79.0059 33.968 78.8299 33.872C78.5899 33.76 78.4139 33.632 78.3019 33.504C78.1739 33.376 78.1259 33.168 78.1259 32.88C78.1259 32.592 78.2219 32.352 78.4299 32.16C78.6219 31.968 78.8619 31.856 79.1499 31.856C79.5019 31.856 79.7739 32 79.9979 32.288C80.2059 32.576 80.3179 32.928 80.3179 33.344C80.3179 34.048 80.0779 34.64 79.6299 35.152C79.1819 35.664 78.6539 36.032 78.0779 36.224L77.9979 36.016C78.3659 35.872 78.6859 35.648 78.9579 35.36ZM87.5059 29.488C88.2259 28.336 88.5939 27.216 88.5939 26.16C88.5939 25.312 88.3859 24.672 88.0019 24.24C87.6019 23.824 87.1219 23.6 86.5779 23.6C86.0819 23.6 85.6499 23.776 85.2819 24.128C84.8979 24.48 84.6579 24.896 84.5459 25.408L84.3059 25.376C84.3859 24.896 84.5779 24.432 84.8819 24.016C85.1699 23.6 85.5539 23.264 86.0019 23.008C86.4499 22.752 86.9299 22.624 87.4739 22.624C88.0019 22.624 88.4979 22.768 88.9459 23.024C89.3939 23.28 89.7619 23.648 90.0339 24.128C90.3059 24.608 90.4499 25.136 90.4499 25.728C90.4499 26.464 90.2579 27.184 89.8739 27.856C89.4899 28.544 88.9619 29.216 88.3059 29.888C87.6499 30.56 86.6899 31.456 85.4419 32.576H88.0979C88.7219 32.576 89.2019 32.528 89.5219 32.432C89.8419 32.336 90.0819 32.16 90.2579 31.904C90.4179 31.664 90.5779 31.28 90.7379 30.736L90.9299 30.784L90.3059 34H84.0019V33.712C85.6179 32.048 86.7859 30.64 87.5059 29.488ZM93.6549 33.456C93.0149 32.992 92.5189 32.32 92.1509 31.44C91.7829 30.56 91.6069 29.536 91.6069 28.352C91.6069 27.168 91.7829 26.128 92.1669 25.264C92.5349 24.4 93.0309 23.76 93.6389 23.312C94.2469 22.864 94.9189 22.64 95.6389 22.64C96.3429 22.64 97.0149 22.88 97.6229 23.328C98.2309 23.776 98.7269 24.448 99.0949 25.312C99.4469 26.176 99.6389 27.2 99.6389 28.384C99.6389 29.584 99.4469 30.624 99.0949 31.488C98.7429 32.352 98.2629 33.024 97.6709 33.472C97.0789 33.936 96.4389 34.16 95.7509 34.16C94.9829 34.16 94.2789 33.936 93.6549 33.456ZM94.4389 32.56C94.8549 33.424 95.3669 33.84 95.9909 33.84C96.0549 33.84 96.1349 33.84 96.2469 33.808C96.7429 33.712 97.1269 33.248 97.3829 32.4C97.6389 31.552 97.7829 30.512 97.7829 29.296C97.7829 28.688 97.7509 28.08 97.6869 27.472C97.5269 26.112 97.2549 25.024 96.8709 24.208C96.4709 23.392 95.9589 22.976 95.3509 22.976C95.2709 22.976 95.1749 22.992 95.0469 23.008C94.5349 23.12 94.1349 23.6 93.8789 24.432C93.6229 25.264 93.4949 26.288 93.4949 27.488C93.4949 28.096 93.5269 28.688 93.5909 29.28C93.7349 30.624 94.0229 31.712 94.4389 32.56ZM103.272 29.488C103.992 28.336 104.36 27.216 104.36 26.16C104.36 25.312 104.152 24.672 103.768 24.24C103.368 23.824 102.888 23.6 102.344 23.6C101.848 23.6 101.416 23.776 101.048 24.128C100.664 24.48 100.424 24.896 100.312 25.408L100.072 25.376C100.152 24.896 100.344 24.432 100.648 24.016C100.936 23.6 101.32 23.264 101.768 23.008C102.216 22.752 102.696 22.624 103.24 22.624C103.768 22.624 104.264 22.768 104.712 23.024C105.16 23.28 105.528 23.648 105.8 24.128C106.072 24.608 106.216 25.136 106.216 25.728C106.216 26.464 106.024 27.184 105.64 27.856C105.256 28.544 104.728 29.216 104.072 29.888C103.416 30.56 102.456 31.456 101.208 32.576H103.864C104.488 32.576 104.968 32.528 105.288 32.432C105.608 32.336 105.848 32.16 106.024 31.904C106.184 31.664 106.344 31.28 106.504 30.736L106.696 30.784L106.072 34H99.7675V33.712C101.384 32.048 102.552 30.64 103.272 29.488ZM109.76 33.792C110.176 33.792 110.512 33.696 110.752 33.472C110.976 33.264 111.104 32.896 111.104 32.384V31.376H106.816V31.072L112.64 22.544H112.912V30.304H114.384V31.376H112.912V32.384C112.912 32.912 113.024 33.28 113.264 33.488C113.488 33.696 113.824 33.792 114.256 33.792V34H109.76V33.792ZM111.104 30.304V25.168L107.76 30.304H111.104ZM116.145 35.36C116.401 35.072 116.545 34.784 116.545 34.496C116.545 34.336 116.497 34.224 116.417 34.144C116.321 34.064 116.193 33.968 116.017 33.872C115.777 33.76 115.601 33.632 115.489 33.504C115.361 33.376 115.313 33.168 115.313 32.88C115.313 32.592 115.409 32.352 115.617 32.16C115.809 31.968 116.049 31.856 116.337 31.856C116.689 31.856 116.961 32 117.185 32.288C117.393 32.576 117.505 32.928 117.505 33.344C117.505 34.048 117.265 34.64 116.817 35.152C116.369 35.664 115.841 36.032 115.265 36.224L115.185 36.016C115.553 35.872 115.873 35.648 116.145 35.36ZM126.933 33.696C126.677 33.408 126.517 32.992 126.453 32.464L126.405 32.112C126.341 32.464 126.181 32.8 125.957 33.104C125.717 33.424 125.413 33.68 125.045 33.872C124.661 34.064 124.245 34.16 123.781 34.16C123.109 34.16 122.549 33.968 122.117 33.584C121.685 33.2 121.477 32.704 121.477 32.096C121.477 31.552 121.653 31.104 122.037 30.752C122.421 30.4 122.965 30.192 123.669 30.128L126.101 29.936L125.989 29.12C125.893 28.368 125.669 27.776 125.317 27.344C124.965 26.928 124.501 26.704 123.925 26.704C123.461 26.704 123.061 26.848 122.709 27.104C122.357 27.36 122.101 27.712 121.925 28.144L121.717 28.096C121.813 27.712 122.005 27.328 122.293 26.96C122.581 26.608 122.933 26.304 123.365 26.08C123.797 25.856 124.277 25.728 124.805 25.728C125.605 25.728 126.261 25.984 126.757 26.496C127.253 27.008 127.557 27.744 127.685 28.688L128.149 32.224C128.229 32.832 128.437 33.12 128.789 33.12C128.885 33.12 128.981 33.088 129.061 32.992C129.141 32.912 129.189 32.8 129.221 32.656L129.413 32.672C129.381 33.056 129.253 33.392 128.997 33.68C128.741 33.984 128.405 34.128 127.989 34.128C127.541 34.128 127.189 33.984 126.933 33.696ZM123.509 32.784C123.781 33.072 124.149 33.216 124.629 33.216C125.109 33.216 125.509 33.072 125.829 32.784C126.133 32.496 126.309 32.144 126.357 31.744L126.133 30.176L124.565 30.304C124.085 30.352 123.717 30.512 123.461 30.768C123.205 31.024 123.093 31.36 123.093 31.744C123.093 32.16 123.221 32.496 123.509 32.784ZM130.683 33.424C130.299 32.928 130.107 32.288 130.107 31.488V26.528H129.099V26.304C129.755 26.24 130.315 26.016 130.763 25.6C131.211 25.184 131.499 24.624 131.627 23.904H131.851V25.888H134.235L133.963 26.528H131.851V31.312C131.851 31.856 131.963 32.304 132.187 32.64C132.411 32.992 132.731 33.152 133.131 33.152C133.451 33.152 133.707 33.056 133.915 32.832C134.123 32.608 134.267 32.336 134.347 32L134.539 32.032C134.459 32.64 134.219 33.136 133.835 33.552C133.435 33.968 132.955 34.16 132.411 34.16C131.643 34.16 131.067 33.92 130.683 33.424ZM138.389 33.792C138.885 33.792 139.269 33.696 139.541 33.488C139.813 33.28 139.957 32.912 139.957 32.384V25.68C139.957 25.344 139.877 25.104 139.749 24.944C139.605 24.784 139.365 24.704 139.045 24.704H138.021V24.48C138.853 24.464 139.605 24.288 140.261 23.968C140.901 23.648 141.317 23.152 141.509 22.48H141.765V32.384C141.765 32.912 141.893 33.28 142.165 33.488C142.437 33.696 142.821 33.792 143.333 33.792V34H138.389V33.792ZM145.015 33.776C144.487 33.52 144.087 33.168 143.799 32.736C143.511 32.32 143.367 31.856 143.367 31.36C143.367 30.688 143.591 30.096 144.071 29.616C144.535 29.136 145.143 28.752 145.895 28.496C145.191 28.112 144.663 27.68 144.327 27.2C143.975 26.736 143.815 26.208 143.815 25.6C143.815 25.104 143.943 24.624 144.215 24.176C144.487 23.728 144.871 23.36 145.367 23.072C145.847 22.784 146.407 22.64 147.031 22.64C147.591 22.64 148.103 22.768 148.583 22.992C149.063 23.232 149.431 23.552 149.719 23.952C149.991 24.352 150.135 24.784 150.135 25.248C150.135 25.888 149.927 26.4 149.511 26.816C149.095 27.232 148.583 27.52 147.943 27.68L148.263 27.856C149.047 28.304 149.639 28.784 150.039 29.296C150.423 29.808 150.631 30.384 150.631 30.992C150.631 31.568 150.455 32.112 150.119 32.592C149.783 33.072 149.319 33.456 148.743 33.744C148.167 34.032 147.527 34.16 146.855 34.16C146.151 34.16 145.543 34.032 145.015 33.776ZM145.351 32.368C145.543 32.816 145.799 33.184 146.151 33.456C146.487 33.728 146.871 33.856 147.287 33.856C147.799 33.856 148.215 33.664 148.535 33.264C148.855 32.88 149.031 32.4 149.031 31.824C149.031 31.264 148.871 30.784 148.583 30.368C148.295 29.968 147.879 29.616 147.335 29.296L146.247 28.704C145.879 28.976 145.591 29.28 145.383 29.632C145.159 29.984 145.063 30.416 145.063 30.944C145.063 31.456 145.159 31.92 145.351 32.368ZM145.815 26.192C146.103 26.56 146.535 26.912 147.143 27.232L147.591 27.488C147.911 27.264 148.167 26.96 148.327 26.608C148.487 26.256 148.567 25.872 148.567 25.44C148.567 24.976 148.487 24.544 148.343 24.16C148.183 23.776 147.991 23.472 147.735 23.248C147.479 23.024 147.191 22.912 146.887 22.912C146.439 22.912 146.087 23.104 145.815 23.472C145.527 23.856 145.399 24.288 145.399 24.8C145.399 25.36 145.527 25.824 145.815 26.192ZM151.753 33.808C151.545 33.584 151.449 33.312 151.449 32.96C151.449 32.64 151.545 32.384 151.753 32.16C151.961 31.952 152.233 31.84 152.569 31.84C152.889 31.84 153.161 31.952 153.369 32.16C153.577 32.384 153.689 32.64 153.689 32.96C153.689 33.312 153.577 33.584 153.369 33.808C153.161 34.032 152.889 34.128 152.569 34.128C152.233 34.128 151.961 34.032 151.753 33.808ZM151.753 28.656C151.545 28.432 151.449 28.16 151.449 27.808C151.449 27.488 151.545 27.232 151.753 27.008C151.961 26.8 152.233 26.688 152.569 26.688C152.889 26.688 153.161 26.8 153.369 27.008C153.577 27.232 153.689 27.488 153.689 27.808C153.689 28.16 153.577 28.432 153.369 28.656C153.161 28.88 152.889 28.976 152.569 28.976C152.233 28.976 151.961 28.88 151.753 28.656ZM155.664 33.824C155.2 33.632 154.832 33.344 154.56 32.976C154.272 32.624 154.144 32.208 154.144 31.76C154.144 31.472 154.224 31.232 154.416 31.04C154.592 30.848 154.816 30.752 155.072 30.752C155.296 30.752 155.488 30.848 155.648 31.008C155.792 31.184 155.872 31.376 155.872 31.6C155.872 31.776 155.808 31.984 155.712 32.208C155.584 32.432 155.536 32.624 155.536 32.816C155.536 33.12 155.664 33.36 155.92 33.552C156.176 33.744 156.496 33.824 156.88 33.824C157.264 33.824 157.616 33.696 157.936 33.408C158.256 33.136 158.496 32.784 158.688 32.336C158.864 31.888 158.96 31.424 158.96 30.928C158.96 30.064 158.704 29.36 158.208 28.816C157.712 28.272 157.056 27.984 156.24 27.984V27.76C156.912 27.696 157.44 27.472 157.856 27.088C158.256 26.704 158.464 26.192 158.464 25.536C158.464 24.896 158.288 24.4 157.936 24.048C157.584 23.696 157.168 23.52 156.672 23.52C156.288 23.52 155.92 23.648 155.584 23.904C155.232 24.16 154.976 24.544 154.816 25.04L154.576 24.976C154.736 24.288 155.088 23.712 155.616 23.264C156.144 22.816 156.784 22.576 157.536 22.576C157.968 22.576 158.384 22.688 158.768 22.88C159.152 23.072 159.472 23.36 159.712 23.728C159.952 24.096 160.08 24.528 160.08 25.008C160.08 25.392 159.984 25.744 159.808 26.096C159.616 26.448 159.376 26.736 159.056 26.96C158.736 27.184 158.384 27.328 158.016 27.36C158.544 27.424 159.024 27.6 159.472 27.888C159.904 28.176 160.24 28.56 160.496 29.024C160.752 29.504 160.88 30.032 160.88 30.608C160.88 31.312 160.704 31.92 160.352 32.448C160 32.992 159.52 33.392 158.944 33.68C158.368 33.968 157.76 34.112 157.12 34.112C156.608 34.112 156.112 34.016 155.664 33.824ZM163.702 33.456C163.062 32.992 162.566 32.32 162.198 31.44C161.83 30.56 161.654 29.536 161.654 28.352C161.654 27.168 161.83 26.128 162.214 25.264C162.582 24.4 163.078 23.76 163.686 23.312C164.294 22.864 164.966 22.64 165.686 22.64C166.39 22.64 167.062 22.88 167.67 23.328C168.278 23.776 168.774 24.448 169.142 25.312C169.494 26.176 169.686 27.2 169.686 28.384C169.686 29.584 169.494 30.624 169.142 31.488C168.79 32.352 168.31 33.024 167.718 33.472C167.126 33.936 166.486 34.16 165.798 34.16C165.03 34.16 164.326 33.936 163.702 33.456ZM164.486 32.56C164.902 33.424 165.414 33.84 166.038 33.84C166.102 33.84 166.182 33.84 166.294 33.808C166.79 33.712 167.174 33.248 167.43 32.4C167.686 31.552 167.83 30.512 167.83 29.296C167.83 28.688 167.798 28.08 167.734 27.472C167.574 26.112 167.302 25.024 166.918 24.208C166.518 23.392 166.006 22.976 165.398 22.976C165.318 22.976 165.222 22.992 165.094 23.008C164.582 23.12 164.182 23.6 163.926 24.432C163.67 25.264 163.542 26.288 163.542 27.488C163.542 28.096 163.574 28.688 163.638 29.28C163.782 30.624 164.07 31.712 164.486 32.56Z" fill="black"/>
</svg>
