<svg viewBox="0 0 194 38" fill="none" xmlns="http://www.w3.org/2000/svg">
<path d="M30.5224 11.792C30.8744 11.792 31.1464 11.696 31.3384 11.472C31.5304 11.264 31.6424 10.896 31.6424 10.384V2.416C31.6424 1.904 31.5304 1.552 31.3384 1.328C31.1464 1.12 30.8744 1.008 30.5224 1.008V0.799999H38.3944L38.8584 4.112L38.6504 4.16C38.2984 2.112 37.3064 1.072 35.6744 1.072H33.4664V6.208H35.2424C35.7704 6.208 36.1544 6.08 36.3944 5.792C36.6344 5.52 36.7624 5.04 36.7624 4.352H36.9864V8.368H36.7624C36.7624 7.696 36.6344 7.2 36.3944 6.912C36.1384 6.624 35.7544 6.48 35.2264 6.48H33.4664V10.864C33.4664 11.184 33.5144 11.408 33.6424 11.536C33.7544 11.664 33.9784 11.728 34.3144 11.728H35.9304C36.8264 11.728 37.5304 11.488 38.0424 10.976C38.5544 10.48 38.9544 9.744 39.2424 8.768L39.4184 8.816L38.7944 12H30.5224V11.792ZM43.871 11.792C44.095 11.792 44.271 11.76 44.415 11.664C44.559 11.584 44.639 11.456 44.639 11.264C44.639 11.072 44.543 10.832 44.367 10.544L43.039 8.448L42.255 9.68C41.935 10.208 41.775 10.64 41.775 10.992C41.775 11.248 41.855 11.456 42.015 11.584C42.175 11.728 42.399 11.792 42.703 11.792V12H39.247V11.792C39.647 11.792 40.079 11.616 40.559 11.232C41.039 10.864 41.471 10.352 41.887 9.712L42.863 8.176L41.071 5.344C40.767 4.88 40.495 4.56 40.255 4.368C39.999 4.192 39.711 4.096 39.391 4.096V3.888H43.567V4.096C43.343 4.096 43.151 4.144 43.007 4.224C42.847 4.32 42.783 4.448 42.783 4.624C42.783 4.816 42.863 5.056 43.055 5.344L44.191 7.152L44.799 6.08C45.103 5.568 45.263 5.136 45.263 4.784C45.263 4.336 44.975 4.096 44.399 4.096V3.888H47.775V4.096C47.359 4.096 46.911 4.272 46.431 4.624C45.935 4.976 45.503 5.472 45.151 6.08L44.367 7.424L46.351 10.544C46.639 11.024 46.911 11.344 47.167 11.52C47.423 11.712 47.743 11.792 48.095 11.792V12H43.871V11.792ZM53.4263 11.792C53.8103 11.792 54.0983 11.712 54.3223 11.552C54.5303 11.392 54.6423 11.12 54.6423 10.72C54.6423 10.592 54.6263 10.48 54.6263 10.4L54.1303 6.736C53.9383 5.376 53.3783 4.688 52.4663 4.688C52.0503 4.688 51.6983 4.864 51.4103 5.2C51.1223 5.552 50.9463 5.952 50.8983 6.432V10.384C50.8983 10.912 50.9943 11.28 51.1863 11.488C51.3783 11.696 51.6503 11.792 52.0182 11.792V12H48.0503V11.792C48.4023 11.792 48.6743 11.696 48.8663 11.472C49.0583 11.264 49.1703 10.896 49.1703 10.384V2.064C49.1703 1.68 49.0743 1.408 48.9143 1.248C48.7543 1.088 48.4823 1.008 48.1143 1.008V0.799999C49.1383 0.735999 50.0182 0.528 50.7543 0.176L50.8983 0.256V5.744C51.0423 5.168 51.3303 4.688 51.7623 4.304C52.1943 3.92 52.7063 3.728 53.3143 3.728C54.0023 3.728 54.5623 3.984 55.0103 4.464C55.4423 4.944 55.7303 5.696 55.8743 6.688L56.4183 10.4C56.4823 10.912 56.6103 11.28 56.8343 11.488C57.0423 11.696 57.3303 11.792 57.6823 11.792V12H53.4263V11.792ZM58.7305 2.192C58.5225 1.968 58.4265 1.696 58.4265 1.344C58.4265 1.024 58.5225 0.768 58.7305 0.559999C58.9385 0.351999 59.2105 0.24 59.5465 0.24C59.8825 0.24 60.1545 0.351999 60.3625 0.559999C60.5705 0.768 60.6825 1.024 60.6825 1.344C60.6825 1.696 60.5705 1.968 60.3625 2.192C60.1545 2.416 59.8825 2.512 59.5465 2.512C59.2105 2.512 58.9385 2.416 58.7305 2.192ZM57.7065 11.792C58.0585 11.792 58.3305 11.696 58.5225 11.472C58.7145 11.264 58.8265 10.896 58.8265 10.384V5.632C58.8265 5.248 58.7305 4.992 58.5705 4.832C58.4105 4.672 58.1385 4.592 57.7705 4.576V4.368C58.7945 4.304 59.6745 4.096 60.4105 3.744L60.5545 3.824V10.384C60.5545 10.912 60.6505 11.28 60.8425 11.488C61.0345 11.696 61.3065 11.792 61.6745 11.792V12H57.7065V11.792ZM64.0954 11.872C63.5034 11.68 62.9754 11.424 62.4954 11.104V2.064C62.4954 1.68 62.3994 1.408 62.2394 1.248C62.0794 1.088 61.8074 1.008 61.4394 1.008V0.799999C62.4634 0.735999 63.3434 0.528 64.0794 0.176L64.2234 0.256V5.68C64.3674 5.184 64.6714 4.736 65.1354 4.352C65.5834 3.968 66.1274 3.76 66.7514 3.76C67.3754 3.76 67.9354 3.952 68.4314 4.336C68.9114 4.72 69.2954 5.216 69.5674 5.84C69.8234 6.48 69.9674 7.152 69.9674 7.872C69.9674 8.704 69.7914 9.456 69.4394 10.096C69.0874 10.752 68.5914 11.264 67.9834 11.616C67.3754 11.984 66.6874 12.16 65.9514 12.16C65.3114 12.16 64.6874 12.064 64.0954 11.872ZM64.6714 11.12C64.9754 11.664 65.4394 11.92 66.0474 11.92C66.6874 11.92 67.2154 11.6 67.5994 10.944C67.9834 10.304 68.1754 9.456 68.1754 8.416C68.1754 7.648 68.0634 6.976 67.8714 6.4C67.6794 5.84 67.4074 5.408 67.0714 5.12C66.7194 4.832 66.3354 4.672 65.9034 4.672C65.4874 4.672 65.1354 4.832 64.8314 5.12C64.5114 5.408 64.3194 5.776 64.2234 6.224V8.592C64.2234 9.744 64.3674 10.576 64.6714 11.12ZM71.0743 2.192C70.8663 1.968 70.7703 1.696 70.7703 1.344C70.7703 1.024 70.8663 0.768 71.0743 0.559999C71.2823 0.351999 71.5543 0.24 71.8903 0.24C72.2263 0.24 72.4983 0.351999 72.7063 0.559999C72.9143 0.768 73.0263 1.024 73.0263 1.344C73.0263 1.696 72.9143 1.968 72.7063 2.192C72.4983 2.416 72.2263 2.512 71.8903 2.512C71.5543 2.512 71.2823 2.416 71.0743 2.192ZM70.0503 11.792C70.4023 11.792 70.6743 11.696 70.8663 11.472C71.0583 11.264 71.1703 10.896 71.1703 10.384V5.632C71.1703 5.248 71.0743 4.992 70.9143 4.832C70.7543 4.672 70.4823 4.592 70.1143 4.576V4.368C71.1383 4.304 72.0182 4.096 72.7543 3.744L72.8983 3.824V10.384C72.8983 10.912 72.9943 11.28 73.1863 11.488C73.3783 11.696 73.6503 11.792 74.0182 11.792V12H70.0503V11.792ZM75.4639 11.424C75.0799 10.928 74.8879 10.288 74.8879 9.488V4.528H73.8799V4.304C74.5359 4.24 75.0959 4.016 75.5439 3.6C75.9919 3.184 76.2799 2.624 76.4079 1.904H76.6319V3.888H79.0159L78.7439 4.528H76.6319V9.312C76.6319 9.856 76.7439 10.304 76.9679 10.64C77.1919 10.992 77.5119 11.152 77.9119 11.152C78.2319 11.152 78.4879 11.056 78.6959 10.832C78.9039 10.608 79.0479 10.336 79.1279 10L79.3199 10.032C79.2399 10.64 78.9999 11.136 78.6159 11.552C78.2159 11.968 77.7359 12.16 77.1919 12.16C76.4239 12.16 75.8479 11.92 75.4639 11.424ZM80.3243 2.192C80.1163 1.968 80.0203 1.696 80.0203 1.344C80.0203 1.024 80.1163 0.768 80.3243 0.559999C80.5323 0.351999 80.8043 0.24 81.1403 0.24C81.4763 0.24 81.7483 0.351999 81.9563 0.559999C82.1643 0.768 82.2763 1.024 82.2763 1.344C82.2763 1.696 82.1643 1.968 81.9563 2.192C81.7483 2.416 81.4763 2.512 81.1403 2.512C80.8043 2.512 80.5323 2.416 80.3243 2.192ZM79.3003 11.792C79.6523 11.792 79.9243 11.696 80.1163 11.472C80.3083 11.264 80.4203 10.896 80.4203 10.384V5.632C80.4203 5.248 80.3243 4.992 80.1643 4.832C80.0043 4.672 79.7323 4.592 79.3643 4.576V4.368C80.3883 4.304 81.2682 4.096 82.0043 3.744L82.1483 3.824V10.384C82.1483 10.912 82.2443 11.28 82.4363 11.488C82.6283 11.696 82.9003 11.792 83.2682 11.792V12H79.3003V11.792ZM85.355 11.6C84.731 11.232 84.235 10.72 83.883 10.064C83.515 9.424 83.339 8.704 83.339 7.904C83.339 7.088 83.515 6.368 83.883 5.728C84.235 5.088 84.731 4.608 85.355 4.256C85.963 3.904 86.635 3.728 87.371 3.728C88.107 3.728 88.779 3.92 89.387 4.272C89.995 4.64 90.491 5.136 90.859 5.776C91.211 6.416 91.403 7.136 91.403 7.936C91.403 8.752 91.227 9.488 90.875 10.128C90.523 10.768 90.027 11.28 89.419 11.632C88.811 11.984 88.139 12.16 87.403 12.16C86.651 12.16 85.963 11.984 85.355 11.6ZM86.091 10.864C86.539 11.536 87.083 11.856 87.691 11.856C88.299 11.856 88.763 11.568 89.099 10.976C89.419 10.4 89.595 9.632 89.595 8.688C89.595 8.384 89.563 8 89.515 7.552C89.371 6.496 89.083 5.648 88.635 5.008C88.187 4.368 87.675 4.032 87.083 4.032C86.459 4.032 85.979 4.336 85.643 4.928C85.307 5.536 85.147 6.304 85.147 7.232C85.147 7.616 85.163 7.952 85.211 8.256C85.339 9.328 85.643 10.192 86.091 10.864ZM96.8493 11.792C97.2013 11.792 97.4893 11.712 97.6973 11.552C97.9053 11.392 98.0173 11.12 98.0173 10.72C98.0173 10.592 98.0013 10.48 98.0013 10.4L97.5053 6.736C97.3133 5.376 96.7533 4.688 95.8413 4.688C95.4253 4.688 95.0573 4.864 94.7693 5.2C94.4813 5.552 94.3053 5.952 94.2733 6.432V10.384C94.2733 10.912 94.3693 11.28 94.5613 11.488C94.7533 11.696 95.0253 11.792 95.3932 11.792V12H91.4253V11.792C91.7773 11.792 92.0493 11.696 92.2413 11.472C92.4333 11.264 92.5453 10.896 92.5453 10.384V5.632C92.5453 5.248 92.4493 4.992 92.2893 4.832C92.1293 4.672 91.8573 4.592 91.4893 4.576V4.368C92.5133 4.304 93.3932 4.096 94.1293 3.744L94.2733 3.824V5.744C94.4173 5.168 94.7053 4.688 95.1373 4.304C95.5693 3.92 96.0813 3.728 96.6893 3.728C97.3773 3.728 97.9373 3.984 98.3853 4.464C98.8173 4.944 99.1053 5.696 99.2493 6.688L99.7933 10.4C99.8573 10.912 99.9853 11.28 100.193 11.488C100.385 11.696 100.657 11.792 101.009 11.792V12H96.8493V11.792ZM106.589 11.6C105.965 11.232 105.469 10.72 105.117 10.064C104.749 9.424 104.573 8.704 104.573 7.904C104.573 7.088 104.749 6.368 105.117 5.728C105.469 5.088 105.965 4.608 106.589 4.256C107.197 3.904 107.869 3.728 108.605 3.728C109.341 3.728 110.013 3.92 110.621 4.272C111.229 4.64 111.725 5.136 112.093 5.776C112.445 6.416 112.637 7.136 112.637 7.936C112.637 8.752 112.461 9.488 112.109 10.128C111.757 10.768 111.261 11.28 110.653 11.632C110.045 11.984 109.373 12.16 108.637 12.16C107.885 12.16 107.197 11.984 106.589 11.6ZM107.325 10.864C107.773 11.536 108.317 11.856 108.925 11.856C109.533 11.856 109.997 11.568 110.333 10.976C110.653 10.4 110.829 9.632 110.829 8.688C110.829 8.384 110.797 8 110.749 7.552C110.605 6.496 110.317 5.648 109.869 5.008C109.421 4.368 108.909 4.032 108.317 4.032C107.693 4.032 107.213 4.336 106.877 4.928C106.541 5.536 106.381 6.304 106.381 7.232C106.381 7.616 106.397 7.952 106.445 8.256C106.573 9.328 106.877 10.192 107.325 10.864ZM112.611 14.992C112.963 14.992 113.235 14.896 113.427 14.672C113.619 14.464 113.731 14.096 113.731 13.584V5.632C113.731 5.248 113.635 4.992 113.475 4.832C113.315 4.672 113.043 4.592 112.675 4.576V4.368C113.699 4.304 114.579 4.096 115.315 3.744L115.459 3.824V5.488C115.603 5.072 115.907 4.672 116.371 4.304C116.835 3.952 117.395 3.76 118.035 3.76C118.643 3.76 119.203 3.952 119.699 4.304C120.195 4.672 120.579 5.168 120.867 5.792C121.155 6.432 121.299 7.12 121.299 7.888C121.299 8.672 121.123 9.392 120.803 10.048C120.467 10.704 120.019 11.216 119.443 11.6C118.867 11.984 118.227 12.16 117.555 12.16C116.707 12.16 116.003 11.856 115.459 11.216V13.584C115.459 14.112 115.571 14.48 115.811 14.688C116.035 14.896 116.371 14.992 116.803 14.992V15.2H112.611V14.992ZM115.987 10.976C116.339 11.568 116.819 11.856 117.427 11.856C117.811 11.856 118.163 11.728 118.483 11.44C118.803 11.152 119.043 10.752 119.219 10.24C119.395 9.728 119.491 9.152 119.491 8.48C119.491 7.68 119.379 6.992 119.171 6.416C118.963 5.84 118.675 5.408 118.323 5.104C117.971 4.816 117.571 4.656 117.139 4.656C116.723 4.656 116.387 4.784 116.099 5.04C115.811 5.296 115.587 5.616 115.459 6V8.768C115.459 9.664 115.635 10.4 115.987 10.976ZM123.943 11.6C123.383 11.232 122.951 10.72 122.647 10.08C122.327 9.44 122.183 8.752 122.183 7.984C122.183 7.184 122.343 6.464 122.695 5.824C123.047 5.184 123.511 4.672 124.119 4.288C124.711 3.92 125.367 3.728 126.071 3.728C126.679 3.728 127.223 3.872 127.671 4.144C128.119 4.432 128.471 4.8 128.711 5.264C128.951 5.744 129.079 6.256 129.079 6.8H123.879C123.863 6.864 123.863 6.96 123.863 7.072C123.863 7.824 123.975 8.48 124.215 9.056C124.439 9.632 124.775 10.08 125.207 10.4C125.639 10.72 126.151 10.864 126.727 10.864C127.367 10.864 127.911 10.672 128.359 10.288C128.807 9.904 129.095 9.408 129.223 8.768L129.447 8.8C129.351 9.44 129.127 10.016 128.807 10.528C128.487 11.04 128.071 11.44 127.559 11.728C127.047 12.016 126.487 12.16 125.879 12.16C125.143 12.16 124.503 11.984 123.943 11.6ZM126.695 6.528C126.919 6.528 127.095 6.48 127.191 6.368C127.287 6.256 127.351 6.064 127.351 5.808C127.351 5.36 127.223 4.944 126.999 4.56C126.759 4.176 126.407 3.968 125.943 3.968C125.463 3.968 125.015 4.224 124.631 4.72C124.231 5.232 123.991 5.824 123.895 6.528H126.695ZM134.802 11.792C135.154 11.792 135.442 11.712 135.65 11.552C135.858 11.392 135.97 11.12 135.97 10.72C135.97 10.592 135.954 10.48 135.954 10.4L135.458 6.736C135.266 5.376 134.706 4.688 133.794 4.688C133.378 4.688 133.01 4.864 132.722 5.2C132.434 5.552 132.258 5.952 132.226 6.432V10.384C132.226 10.912 132.322 11.28 132.514 11.488C132.706 11.696 132.978 11.792 133.346 11.792V12H129.378V11.792C129.73 11.792 130.002 11.696 130.194 11.472C130.386 11.264 130.498 10.896 130.498 10.384V5.632C130.498 5.248 130.402 4.992 130.242 4.832C130.082 4.672 129.81 4.592 129.442 4.576V4.368C130.466 4.304 131.346 4.096 132.082 3.744L132.226 3.824V5.744C132.37 5.168 132.658 4.688 133.09 4.304C133.522 3.92 134.034 3.728 134.642 3.728C135.33 3.728 135.89 3.984 136.338 4.464C136.77 4.944 137.058 5.696 137.202 6.688L137.746 10.4C137.81 10.912 137.938 11.28 138.146 11.488C138.338 11.696 138.61 11.792 138.962 11.792V12H134.802V11.792ZM140.012 2.192C139.804 1.968 139.708 1.696 139.708 1.344C139.708 1.024 139.804 0.768 140.012 0.559999C140.22 0.351999 140.492 0.24 140.828 0.24C141.164 0.24 141.436 0.351999 141.644 0.559999C141.852 0.768 141.964 1.024 141.964 1.344C141.964 1.696 141.852 1.968 141.644 2.192C141.436 2.416 141.164 2.512 140.828 2.512C140.492 2.512 140.22 2.416 140.012 2.192ZM138.988 11.792C139.34 11.792 139.612 11.696 139.804 11.472C139.996 11.264 140.108 10.896 140.108 10.384V5.632C140.108 5.248 140.012 4.992 139.852 4.832C139.692 4.672 139.42 4.592 139.052 4.576V4.368C140.076 4.304 140.956 4.096 141.692 3.744L141.836 3.824V10.384C141.836 10.912 141.932 11.28 142.124 11.488C142.316 11.696 142.588 11.792 142.956 11.792V12H138.988V11.792ZM148.521 11.792C148.873 11.792 149.161 11.712 149.369 11.552C149.577 11.392 149.689 11.12 149.689 10.72C149.689 10.592 149.673 10.48 149.673 10.4L149.177 6.736C148.985 5.376 148.425 4.688 147.513 4.688C147.097 4.688 146.729 4.864 146.441 5.2C146.153 5.552 145.977 5.952 145.945 6.432V10.384C145.945 10.912 146.041 11.28 146.233 11.488C146.425 11.696 146.697 11.792 147.065 11.792V12H143.097V11.792C143.449 11.792 143.721 11.696 143.913 11.472C144.105 11.264 144.217 10.896 144.217 10.384V5.632C144.217 5.248 144.121 4.992 143.961 4.832C143.801 4.672 143.529 4.592 143.161 4.576V4.368C144.185 4.304 145.065 4.096 145.801 3.744L145.945 3.824V5.744C146.089 5.168 146.377 4.688 146.809 4.304C147.241 3.92 147.753 3.728 148.361 3.728C149.049 3.728 149.609 3.984 150.057 4.464C150.489 4.944 150.777 5.696 150.921 6.688L151.465 10.4C151.529 10.912 151.657 11.28 151.865 11.488C152.057 11.696 152.329 11.792 152.681 11.792V12H148.521V11.792ZM154.118 15.04C153.654 14.848 153.302 14.592 153.062 14.272C152.822 13.968 152.71 13.648 152.71 13.312C152.71 13.088 152.854 12.864 153.142 12.64C153.43 12.432 153.83 12.208 154.342 11.984C153.91 11.888 153.574 11.712 153.334 11.424C153.094 11.136 152.982 10.816 152.982 10.448C152.982 10.32 152.998 10.208 153.062 10.144C153.11 10.08 153.238 9.968 153.446 9.824L153.83 9.552L154.486 9.056C153.974 8.832 153.574 8.496 153.286 8.064C152.998 7.648 152.854 7.152 152.854 6.592C152.854 6.032 152.998 5.536 153.286 5.088C153.574 4.64 153.99 4.304 154.518 4.048C155.03 3.808 155.638 3.68 156.31 3.68C156.518 3.68 156.822 3.712 157.238 3.776C157.782 3.856 158.23 3.888 158.614 3.888H160.278L160.006 4.528L158.454 4.496C158.838 4.768 159.126 5.088 159.334 5.456C159.526 5.84 159.638 6.224 159.638 6.64C159.638 7.184 159.494 7.68 159.206 8.096C158.918 8.512 158.534 8.848 158.022 9.072C157.51 9.312 156.934 9.424 156.262 9.424C155.67 9.424 155.142 9.328 154.678 9.136C154.454 9.328 154.294 9.488 154.23 9.584C154.15 9.68 154.118 9.776 154.118 9.84C154.118 10.272 154.438 10.48 155.078 10.48H158.086C158.726 10.48 159.222 10.592 159.59 10.816C159.958 11.04 160.15 11.424 160.15 11.968C160.15 12.512 159.942 13.04 159.558 13.552C159.174 14.08 158.63 14.512 157.958 14.848C157.286 15.184 156.534 15.344 155.718 15.344C155.11 15.344 154.566 15.248 154.118 15.04ZM154.886 14.048C155.334 14.336 155.926 14.48 156.662 14.48C157.238 14.48 157.734 14.4 158.182 14.224C158.614 14.064 158.95 13.84 159.19 13.584C159.43 13.328 159.558 13.056 159.558 12.784C159.558 12.56 159.462 12.368 159.27 12.24C159.078 12.112 158.806 12.032 158.438 12.032H154.886H154.694C154.502 12.192 154.342 12.352 154.246 12.496C154.15 12.64 154.102 12.816 154.118 13.008C154.166 13.424 154.422 13.76 154.886 14.048ZM155.046 8.368C155.414 8.896 155.894 9.152 156.47 9.152C156.934 9.152 157.302 8.944 157.59 8.496C157.862 8.048 158.006 7.504 158.006 6.848C158.006 6.336 157.91 5.872 157.75 5.424C157.59 4.976 157.35 4.624 157.062 4.352C156.774 4.096 156.438 3.952 156.086 3.952C155.574 3.952 155.19 4.192 154.918 4.672C154.63 5.152 154.502 5.696 154.502 6.336C154.502 7.168 154.678 7.856 155.046 8.368ZM161.347 11.808C161.139 11.584 161.043 11.312 161.043 10.96C161.043 10.64 161.139 10.384 161.347 10.16C161.555 9.952 161.827 9.84 162.163 9.84C162.483 9.84 162.755 9.952 162.963 10.16C163.171 10.384 163.283 10.64 163.283 10.96C163.283 11.312 163.171 11.584 162.963 11.808C162.755 12.032 162.483 12.128 162.163 12.128C161.827 12.128 161.555 12.032 161.347 11.808ZM161.347 6.656C161.139 6.432 161.043 6.16 161.043 5.808C161.043 5.488 161.139 5.232 161.347 5.008C161.555 4.8 161.827 4.688 162.163 4.688C162.483 4.688 162.755 4.8 162.963 5.008C163.171 5.232 163.283 5.488 163.283 5.808C163.283 6.16 163.171 6.432 162.963 6.656C162.755 6.88 162.483 6.976 162.163 6.976C161.827 6.976 161.555 6.88 161.347 6.656ZM0.8505 33.792C1.2025 33.792 1.4745 33.696 1.6665 33.472C1.8585 33.264 1.9705 32.896 1.9705 32.384V24.416C1.9705 23.904 1.8745 23.536 1.6825 23.328C1.4905 23.12 1.2025 23.008 0.8505 23.008V22.8H8.6905L9.1545 26.112L8.9625 26.16C8.5945 24.112 7.6025 23.072 5.9865 23.072H3.7945V28.384H5.5385C6.0825 28.384 6.4665 28.256 6.7065 27.968C6.9465 27.696 7.0745 27.216 7.0745 26.528H7.2825V30.544H7.0745C7.0745 29.872 6.9465 29.376 6.7065 29.088C6.4505 28.8 6.0665 28.656 5.5225 28.656H3.7945V32.384C3.7945 32.912 3.9065 33.28 4.1465 33.488C4.3705 33.696 4.7065 33.792 5.1385 33.792V34H0.8505V33.792ZM10.5834 33.6C10.0234 33.232 9.59138 32.72 9.28738 32.08C8.96738 31.44 8.82338 30.752 8.82338 29.984C8.82338 29.184 8.98338 28.464 9.33538 27.824C9.68738 27.184 10.1514 26.672 10.7594 26.288C11.3514 25.92 12.0074 25.728 12.7114 25.728C13.3194 25.728 13.8634 25.872 14.3114 26.144C14.7594 26.432 15.1114 26.8 15.3514 27.264C15.5914 27.744 15.7194 28.256 15.7194 28.8H10.5194C10.5034 28.864 10.5034 28.96 10.5034 29.072C10.5034 29.824 10.6154 30.48 10.8554 31.056C11.0794 31.632 11.4154 32.08 11.8474 32.4C12.2794 32.72 12.7914 32.864 13.3674 32.864C14.0074 32.864 14.5514 32.672 14.9994 32.288C15.4474 31.904 15.7354 31.408 15.8634 30.768L16.0874 30.8C15.9914 31.44 15.7674 32.016 15.4474 32.528C15.1274 33.04 14.7114 33.44 14.1994 33.728C13.6874 34.016 13.1274 34.16 12.5194 34.16C11.7834 34.16 11.1434 33.984 10.5834 33.6ZM13.3354 28.528C13.5594 28.528 13.7354 28.48 13.8314 28.368C13.9274 28.256 13.9914 28.064 13.9914 27.808C13.9914 27.36 13.8634 26.944 13.6394 26.56C13.3994 26.176 13.0474 25.968 12.5834 25.968C12.1034 25.968 11.6554 26.224 11.2714 26.72C10.8714 27.232 10.6314 27.824 10.5354 28.528H13.3354ZM18.6266 33.872C18.0346 33.68 17.5066 33.424 17.0266 33.104V24.064C17.0266 23.68 16.9306 23.408 16.7706 23.248C16.6106 23.088 16.3386 23.008 15.9706 23.008V22.8C16.9946 22.736 17.8746 22.528 18.6106 22.176L18.7546 22.256V27.68C18.8986 27.184 19.2026 26.736 19.6666 26.352C20.1146 25.968 20.6586 25.76 21.2826 25.76C21.9066 25.76 22.4666 25.952 22.9626 26.336C23.4426 26.72 23.8266 27.216 24.0986 27.84C24.3546 28.48 24.4986 29.152 24.4986 29.872C24.4986 30.704 24.3226 31.456 23.9706 32.096C23.6186 32.752 23.1226 33.264 22.5146 33.616C21.9066 33.984 21.2186 34.16 20.4826 34.16C19.8426 34.16 19.2186 34.064 18.6266 33.872ZM19.2026 33.12C19.5066 33.664 19.9706 33.92 20.5786 33.92C21.2186 33.92 21.7466 33.6 22.1306 32.944C22.5146 32.304 22.7066 31.456 22.7066 30.416C22.7066 29.648 22.5946 28.976 22.4026 28.4C22.2106 27.84 21.9386 27.408 21.6026 27.12C21.2506 26.832 20.8666 26.672 20.4346 26.672C20.0186 26.672 19.6666 26.832 19.3626 27.12C19.0426 27.408 18.8506 27.776 18.7546 28.224V30.592C18.7546 31.744 18.8986 32.576 19.2026 33.12ZM24.5815 33.792C24.9335 33.792 25.2055 33.696 25.3975 33.472C25.5895 33.264 25.7015 32.896 25.7015 32.384V27.632C25.7015 27.248 25.6215 26.992 25.4615 26.832C25.3015 26.672 25.0295 26.592 24.6455 26.576V26.368C25.6695 26.304 26.5495 26.096 27.2855 25.744L27.4295 25.824V27.568C27.5575 27.072 27.7975 26.64 28.1495 26.272C28.5015 25.92 28.9015 25.728 29.3815 25.728C29.7495 25.728 30.0535 25.856 30.2935 26.08C30.5175 26.32 30.6455 26.592 30.6455 26.896C30.6455 27.168 30.5495 27.392 30.3895 27.584C30.2295 27.776 30.0055 27.856 29.7335 27.856C29.5415 27.856 29.3975 27.824 29.2855 27.728C29.1735 27.648 29.0775 27.536 29.0135 27.408C28.9495 27.28 28.8855 27.152 28.8535 27.024C28.7895 26.896 28.7415 26.816 28.6935 26.752C28.6295 26.704 28.5655 26.672 28.4695 26.672C28.2135 26.672 27.9895 26.832 27.7975 27.12C27.6055 27.424 27.4775 27.776 27.4295 28.176V32.384C27.4295 32.896 27.5575 33.264 27.8135 33.472C28.0695 33.696 28.4215 33.792 28.8855 33.792V34H24.5815V33.792ZM33.0418 33.792C32.6418 33.536 32.3378 33.168 32.1138 32.688C31.8898 32.208 31.7778 31.632 31.7778 30.976V27.632C31.7778 27.248 31.6818 26.992 31.5218 26.832C31.3618 26.672 31.0898 26.592 30.7218 26.576V26.368C31.7458 26.304 32.6258 26.096 33.3618 25.744L33.5058 25.824V30.8C33.5058 31.536 33.6338 32.128 33.9218 32.544C34.1938 32.976 34.6098 33.184 35.1698 33.184C35.6498 33.184 36.0178 33.024 36.2898 32.688C36.5618 32.352 36.7218 31.952 36.7698 31.504V27.632C36.7698 27.248 36.6738 26.992 36.5138 26.832C36.3538 26.672 36.0818 26.592 35.7138 26.576V26.368C36.7378 26.304 37.6178 26.096 38.3538 25.744L38.4978 25.824V32.496C38.4978 32.848 38.5778 33.088 38.7378 33.216C38.8978 33.344 39.1858 33.392 39.5698 33.376V33.584C38.5298 33.712 37.6498 33.92 36.9298 34.192L36.7698 34.096V32.272C36.5938 32.784 36.3058 33.232 35.9058 33.616C35.4898 34 34.9938 34.176 34.3858 34.176C33.8738 34.176 33.4258 34.048 33.0418 33.792ZM45.3084 33.696C45.0524 33.408 44.8924 32.992 44.8284 32.464L44.7804 32.112C44.7164 32.464 44.5564 32.8 44.3324 33.104C44.0924 33.424 43.7884 33.68 43.4204 33.872C43.0364 34.064 42.6204 34.16 42.1564 34.16C41.4844 34.16 40.9244 33.968 40.4924 33.584C40.0604 33.2 39.8524 32.704 39.8524 32.096C39.8524 31.552 40.0284 31.104 40.4124 30.752C40.7964 30.4 41.3404 30.192 42.0444 30.128L44.4764 29.936L44.3644 29.12C44.2684 28.368 44.0444 27.776 43.6924 27.344C43.3404 26.928 42.8764 26.704 42.3004 26.704C41.8364 26.704 41.4364 26.848 41.0844 27.104C40.7324 27.36 40.4764 27.712 40.3004 28.144L40.0924 28.096C40.1884 27.712 40.3804 27.328 40.6684 26.96C40.9564 26.608 41.3084 26.304 41.7404 26.08C42.1724 25.856 42.6524 25.728 43.1804 25.728C43.9804 25.728 44.6364 25.984 45.1324 26.496C45.6284 27.008 45.9324 27.744 46.0604 28.688L46.5244 32.224C46.6044 32.832 46.8124 33.12 47.1644 33.12C47.2604 33.12 47.3564 33.088 47.4364 32.992C47.5164 32.912 47.5644 32.8 47.5964 32.656L47.7884 32.672C47.7564 33.056 47.6284 33.392 47.3724 33.68C47.1164 33.984 46.7804 34.128 46.3644 34.128C45.9164 34.128 45.5644 33.984 45.3084 33.696ZM41.8844 32.784C42.1564 33.072 42.5244 33.216 43.0044 33.216C43.4844 33.216 43.8844 33.072 44.2044 32.784C44.5084 32.496 44.6844 32.144 44.7324 31.744L44.5084 30.176L42.9404 30.304C42.4604 30.352 42.0924 30.512 41.8364 30.768C41.5804 31.024 41.4684 31.36 41.4684 31.744C41.4684 32.16 41.5964 32.496 41.8844 32.784ZM47.7846 33.792C48.1366 33.792 48.4086 33.696 48.6006 33.472C48.7926 33.264 48.9046 32.896 48.9046 32.384V27.632C48.9046 27.248 48.8246 26.992 48.6646 26.832C48.5046 26.672 48.2326 26.592 47.8486 26.576V26.368C48.8726 26.304 49.7526 26.096 50.4886 25.744L50.6326 25.824V27.568C50.7606 27.072 51.0006 26.64 51.3526 26.272C51.7046 25.92 52.1046 25.728 52.5846 25.728C52.9526 25.728 53.2566 25.856 53.4966 26.08C53.7206 26.32 53.8486 26.592 53.8486 26.896C53.8486 27.168 53.7526 27.392 53.5926 27.584C53.4326 27.776 53.2086 27.856 52.9366 27.856C52.7446 27.856 52.6006 27.824 52.4886 27.728C52.3766 27.648 52.2806 27.536 52.2166 27.408C52.1526 27.28 52.0886 27.152 52.0566 27.024C51.9926 26.896 51.9446 26.816 51.8966 26.752C51.8326 26.704 51.7686 26.672 51.6726 26.672C51.4166 26.672 51.1926 26.832 51.0006 27.12C50.8086 27.424 50.6806 27.776 50.6326 28.176V32.384C50.6326 32.896 50.7606 33.264 51.0166 33.472C51.2726 33.696 51.6246 33.792 52.0886 33.792V34H47.7846V33.792ZM56.3889 37.04C55.9729 36.848 55.6369 36.576 55.4129 36.256C55.1889 35.936 55.0769 35.584 55.0769 35.216C55.0769 34.96 55.1569 34.768 55.3169 34.608C55.4769 34.448 55.6689 34.368 55.9089 34.368C56.1489 34.368 56.3569 34.464 56.5169 34.64C56.6769 34.816 56.7729 35.024 56.7729 35.28C56.7729 35.408 56.7569 35.52 56.7249 35.648C56.7089 35.696 56.6929 35.76 56.6929 35.824C56.6769 35.904 56.6769 35.968 56.6769 36.032C56.6769 36.352 56.7889 36.608 57.0289 36.8C57.2529 36.992 57.5409 37.072 57.8769 37.072C59.2689 37.072 59.9729 35.824 59.9729 33.296V32.048C59.7969 32.56 59.5089 33.008 59.1089 33.392C58.6929 33.776 58.1969 33.952 57.5889 33.952C57.0769 33.952 56.6289 33.824 56.2449 33.568C55.8449 33.312 55.5409 32.944 55.3169 32.464C55.0929 31.984 54.9809 31.408 54.9809 30.752V27.632C54.9809 27.248 54.8849 26.992 54.7249 26.832C54.5649 26.672 54.2929 26.592 53.9249 26.576V26.368C54.9489 26.304 55.8289 26.096 56.5649 25.744L56.7089 25.824V30.576C56.7089 31.312 56.8369 31.904 57.1249 32.32C57.3969 32.752 57.8129 32.96 58.3729 32.96C58.8529 32.96 59.2209 32.8 59.4929 32.464C59.7649 32.128 59.9249 31.728 59.9729 31.28V27.632C59.9729 27.248 59.8769 26.992 59.7169 26.832C59.5569 26.672 59.2849 26.592 58.9169 26.576V26.368C59.9409 26.304 60.8209 26.096 61.5569 25.744L61.7009 25.824V33.104C61.7009 34.016 61.5089 34.784 61.1569 35.424C60.7889 36.064 60.3089 36.544 59.7329 36.864C59.1569 37.184 58.5329 37.328 57.8609 37.328C57.3009 37.328 56.8049 37.232 56.3889 37.04ZM69.3809 29.488C70.1009 28.336 70.4689 27.216 70.4689 26.16C70.4689 25.312 70.2609 24.672 69.8769 24.24C69.4769 23.824 68.9969 23.6 68.4529 23.6C67.9569 23.6 67.5249 23.776 67.1569 24.128C66.7729 24.48 66.5329 24.896 66.4209 25.408L66.1809 25.376C66.2609 24.896 66.4529 24.432 66.7569 24.016C67.0449 23.6 67.4289 23.264 67.8769 23.008C68.3249 22.752 68.8049 22.624 69.3489 22.624C69.8769 22.624 70.3729 22.768 70.8209 23.024C71.2689 23.28 71.6369 23.648 71.9089 24.128C72.1809 24.608 72.3249 25.136 72.3249 25.728C72.3249 26.464 72.1329 27.184 71.7489 27.856C71.3649 28.544 70.8369 29.216 70.1809 29.888C69.5249 30.56 68.5649 31.456 67.3169 32.576H69.9729C70.5969 32.576 71.0769 32.528 71.3969 32.432C71.7169 32.336 71.9569 32.16 72.1329 31.904C72.2929 31.664 72.4529 31.28 72.6129 30.736L72.8049 30.784L72.1809 34H65.8769V33.712C67.4929 32.048 68.6609 30.64 69.3809 29.488ZM73.2486 33.792C73.7446 33.792 74.1286 33.696 74.4006 33.488C74.6726 33.28 74.8166 32.912 74.8166 32.384V25.68C74.8166 25.344 74.7366 25.104 74.6086 24.944C74.4646 24.784 74.2246 24.704 73.9046 24.704H72.8806V24.48C73.7126 24.464 74.4646 24.288 75.1206 23.968C75.7606 23.648 76.1766 23.152 76.3686 22.48H76.6246V32.384C76.6246 32.912 76.7526 33.28 77.0246 33.488C77.2966 33.696 77.6806 33.792 78.1926 33.792V34H73.2486V33.792ZM79.7704 35.36C80.0264 35.072 80.1704 34.784 80.1704 34.496C80.1704 34.336 80.1224 34.224 80.0424 34.144C79.9464 34.064 79.8184 33.968 79.6424 33.872C79.4024 33.76 79.2264 33.632 79.1144 33.504C78.9864 33.376 78.9384 33.168 78.9384 32.88C78.9384 32.592 79.0344 32.352 79.2424 32.16C79.4344 31.968 79.6744 31.856 79.9624 31.856C80.3144 31.856 80.5864 32 80.8104 32.288C81.0184 32.576 81.1304 32.928 81.1304 33.344C81.1304 34.048 80.8904 34.64 80.4424 35.152C79.9944 35.664 79.4664 36.032 78.8904 36.224L78.8104 36.016C79.1784 35.872 79.4984 35.648 79.7704 35.36ZM88.3184 29.488C89.0384 28.336 89.4064 27.216 89.4064 26.16C89.4064 25.312 89.1984 24.672 88.8144 24.24C88.4144 23.824 87.9344 23.6 87.3904 23.6C86.8944 23.6 86.4624 23.776 86.0944 24.128C85.7104 24.48 85.4704 24.896 85.3584 25.408L85.1184 25.376C85.1984 24.896 85.3904 24.432 85.6944 24.016C85.9824 23.6 86.3664 23.264 86.8144 23.008C87.2624 22.752 87.7424 22.624 88.2864 22.624C88.8144 22.624 89.3104 22.768 89.7584 23.024C90.2064 23.28 90.5744 23.648 90.8464 24.128C91.1184 24.608 91.2624 25.136 91.2624 25.728C91.2624 26.464 91.0704 27.184 90.6864 27.856C90.3024 28.544 89.7744 29.216 89.1184 29.888C88.4624 30.56 87.5024 31.456 86.2544 32.576H88.9104C89.5344 32.576 90.0144 32.528 90.3344 32.432C90.6544 32.336 90.8944 32.16 91.0704 31.904C91.2304 31.664 91.3904 31.28 91.5504 30.736L91.7424 30.784L91.1184 34H84.8144V33.712C86.4304 32.048 87.5984 30.64 88.3184 29.488ZM94.4674 33.456C93.8274 32.992 93.3314 32.32 92.9634 31.44C92.5954 30.56 92.4194 29.536 92.4194 28.352C92.4194 27.168 92.5954 26.128 92.9794 25.264C93.3474 24.4 93.8434 23.76 94.4514 23.312C95.0594 22.864 95.7314 22.64 96.4514 22.64C97.1554 22.64 97.8274 22.88 98.4354 23.328C99.0434 23.776 99.5394 24.448 99.9074 25.312C100.259 26.176 100.451 27.2 100.451 28.384C100.451 29.584 100.259 30.624 99.9074 31.488C99.5554 32.352 99.0754 33.024 98.4834 33.472C97.8914 33.936 97.2514 34.16 96.5634 34.16C95.7954 34.16 95.0914 33.936 94.4674 33.456ZM95.2514 32.56C95.6674 33.424 96.1794 33.84 96.8034 33.84C96.8674 33.84 96.9474 33.84 97.0594 33.808C97.5554 33.712 97.9394 33.248 98.1954 32.4C98.4514 31.552 98.5954 30.512 98.5954 29.296C98.5954 28.688 98.5634 28.08 98.4994 27.472C98.3394 26.112 98.0674 25.024 97.6834 24.208C97.2834 23.392 96.7714 22.976 96.1634 22.976C96.0834 22.976 95.9874 22.992 95.8594 23.008C95.3474 23.12 94.9474 23.6 94.6914 24.432C94.4354 25.264 94.3074 26.288 94.3074 27.488C94.3074 28.096 94.3394 28.688 94.4034 29.28C94.5474 30.624 94.8354 31.712 95.2514 32.56ZM104.084 29.488C104.804 28.336 105.172 27.216 105.172 26.16C105.172 25.312 104.964 24.672 104.58 24.24C104.18 23.824 103.7 23.6 103.156 23.6C102.66 23.6 102.228 23.776 101.86 24.128C101.476 24.48 101.236 24.896 101.124 25.408L100.884 25.376C100.964 24.896 101.156 24.432 101.46 24.016C101.748 23.6 102.132 23.264 102.58 23.008C103.028 22.752 103.508 22.624 104.052 22.624C104.58 22.624 105.076 22.768 105.524 23.024C105.972 23.28 106.34 23.648 106.612 24.128C106.884 24.608 107.028 25.136 107.028 25.728C107.028 26.464 106.836 27.184 106.452 27.856C106.068 28.544 105.54 29.216 104.884 29.888C104.228 30.56 103.268 31.456 102.02 32.576H104.676C105.3 32.576 105.78 32.528 106.1 32.432C106.42 32.336 106.66 32.16 106.836 31.904C106.996 31.664 107.156 31.28 107.316 30.736L107.508 30.784L106.884 34H100.58V33.712C102.196 32.048 103.364 30.64 104.084 29.488ZM110.573 33.792C110.989 33.792 111.325 33.696 111.565 33.472C111.789 33.264 111.917 32.896 111.917 32.384V31.376H107.629V31.072L113.453 22.544H113.725V30.304H115.197V31.376H113.725V32.384C113.725 32.912 113.837 33.28 114.077 33.488C114.301 33.696 114.637 33.792 115.069 33.792V34H110.573V33.792ZM111.917 30.304V25.168L108.573 30.304H111.917ZM116.958 35.36C117.214 35.072 117.358 34.784 117.358 34.496C117.358 34.336 117.31 34.224 117.23 34.144C117.134 34.064 117.006 33.968 116.83 33.872C116.59 33.76 116.414 33.632 116.302 33.504C116.174 33.376 116.126 33.168 116.126 32.88C116.126 32.592 116.222 32.352 116.43 32.16C116.622 31.968 116.862 31.856 117.15 31.856C117.502 31.856 117.774 32 117.998 32.288C118.206 32.576 118.318 32.928 118.318 33.344C118.318 34.048 118.078 34.64 117.63 35.152C117.182 35.664 116.654 36.032 116.078 36.224L115.998 36.016C116.366 35.872 116.686 35.648 116.958 35.36ZM127.746 33.696C127.49 33.408 127.33 32.992 127.266 32.464L127.218 32.112C127.154 32.464 126.994 32.8 126.77 33.104C126.53 33.424 126.226 33.68 125.858 33.872C125.474 34.064 125.058 34.16 124.594 34.16C123.922 34.16 123.362 33.968 122.93 33.584C122.498 33.2 122.29 32.704 122.29 32.096C122.29 31.552 122.466 31.104 122.85 30.752C123.234 30.4 123.778 30.192 124.482 30.128L126.914 29.936L126.802 29.12C126.706 28.368 126.482 27.776 126.13 27.344C125.778 26.928 125.314 26.704 124.738 26.704C124.274 26.704 123.874 26.848 123.522 27.104C123.17 27.36 122.914 27.712 122.738 28.144L122.53 28.096C122.626 27.712 122.818 27.328 123.106 26.96C123.394 26.608 123.746 26.304 124.178 26.08C124.61 25.856 125.09 25.728 125.618 25.728C126.418 25.728 127.074 25.984 127.57 26.496C128.066 27.008 128.37 27.744 128.498 28.688L128.962 32.224C129.042 32.832 129.25 33.12 129.602 33.12C129.698 33.12 129.794 33.088 129.874 32.992C129.954 32.912 130.002 32.8 130.034 32.656L130.226 32.672C130.194 33.056 130.066 33.392 129.81 33.68C129.554 33.984 129.218 34.128 128.802 34.128C128.354 34.128 128.002 33.984 127.746 33.696ZM124.322 32.784C124.594 33.072 124.962 33.216 125.442 33.216C125.922 33.216 126.322 33.072 126.642 32.784C126.946 32.496 127.122 32.144 127.17 31.744L126.946 30.176L125.378 30.304C124.898 30.352 124.53 30.512 124.274 30.768C124.018 31.024 123.906 31.36 123.906 31.744C123.906 32.16 124.034 32.496 124.322 32.784ZM131.495 33.424C131.111 32.928 130.919 32.288 130.919 31.488V26.528H129.911V26.304C130.567 26.24 131.127 26.016 131.575 25.6C132.023 25.184 132.311 24.624 132.439 23.904H132.663V25.888H135.047L134.775 26.528H132.663V31.312C132.663 31.856 132.775 32.304 132.999 32.64C133.223 32.992 133.543 33.152 133.943 33.152C134.263 33.152 134.519 33.056 134.727 32.832C134.935 32.608 135.079 32.336 135.159 32L135.351 32.032C135.271 32.64 135.031 33.136 134.647 33.552C134.247 33.968 133.767 34.16 133.223 34.16C132.455 34.16 131.879 33.92 131.495 33.424ZM140.226 33.792C139.762 33.6 139.394 33.312 139.138 32.96C138.882 32.608 138.754 32.208 138.754 31.76C138.754 31.472 138.834 31.232 139.01 31.04C139.186 30.848 139.41 30.752 139.682 30.752C139.906 30.752 140.098 30.848 140.258 31.008C140.402 31.184 140.482 31.392 140.482 31.616C140.482 31.776 140.418 31.968 140.322 32.192C140.194 32.432 140.146 32.64 140.146 32.816C140.146 33.12 140.258 33.36 140.514 33.536C140.754 33.728 141.058 33.808 141.41 33.808C141.794 33.808 142.178 33.664 142.53 33.376C142.882 33.088 143.17 32.688 143.394 32.176C143.618 31.664 143.73 31.12 143.73 30.512C143.73 29.536 143.49 28.752 143.01 28.16C142.53 27.584 141.89 27.28 141.09 27.28C140.754 27.28 140.45 27.36 140.162 27.488C139.874 27.616 139.634 27.84 139.458 28.144L139.266 28.048C139.506 27.6 139.698 26.896 139.858 25.936C140.002 24.976 140.114 23.936 140.194 22.8H143.266H143.922C144.418 22.8 144.754 22.768 144.914 22.704C145.074 22.64 145.186 22.48 145.25 22.224L145.474 22.24L145.154 24.224H140.402C140.274 25.52 140.114 26.48 139.954 27.088C140.162 26.976 140.418 26.88 140.738 26.8C141.058 26.736 141.394 26.688 141.762 26.688C142.498 26.688 143.154 26.848 143.746 27.136C144.322 27.424 144.786 27.84 145.138 28.384C145.474 28.928 145.65 29.552 145.65 30.256C145.65 31.056 145.458 31.744 145.074 32.32C144.69 32.896 144.194 33.344 143.602 33.648C142.994 33.952 142.386 34.096 141.746 34.096C141.186 34.096 140.674 34 140.226 33.792ZM146.847 33.808C146.639 33.584 146.543 33.312 146.543 32.96C146.543 32.64 146.639 32.384 146.847 32.16C147.055 31.952 147.327 31.84 147.663 31.84C147.983 31.84 148.255 31.952 148.463 32.16C148.671 32.384 148.783 32.64 148.783 32.96C148.783 33.312 148.671 33.584 148.463 33.808C148.255 34.032 147.983 34.128 147.663 34.128C147.327 34.128 147.055 34.032 146.847 33.808ZM146.847 28.656C146.639 28.432 146.543 28.16 146.543 27.808C146.543 27.488 146.639 27.232 146.847 27.008C147.055 26.8 147.327 26.688 147.663 26.688C147.983 26.688 148.255 26.8 148.463 27.008C148.671 27.232 148.783 27.488 148.783 27.808C148.783 28.16 148.671 28.432 148.463 28.656C148.255 28.88 147.983 28.976 147.663 28.976C147.327 28.976 147.055 28.88 146.847 28.656ZM151.936 33.456C151.296 32.992 150.8 32.32 150.432 31.44C150.064 30.56 149.888 29.536 149.888 28.352C149.888 27.168 150.064 26.128 150.448 25.264C150.816 24.4 151.312 23.76 151.92 23.312C152.528 22.864 153.2 22.64 153.92 22.64C154.624 22.64 155.296 22.88 155.904 23.328C156.512 23.776 157.008 24.448 157.376 25.312C157.728 26.176 157.92 27.2 157.92 28.384C157.92 29.584 157.728 30.624 157.376 31.488C157.024 32.352 156.544 33.024 155.952 33.472C155.36 33.936 154.72 34.16 154.032 34.16C153.264 34.16 152.56 33.936 151.936 33.456ZM152.72 32.56C153.136 33.424 153.648 33.84 154.272 33.84C154.336 33.84 154.416 33.84 154.528 33.808C155.024 33.712 155.408 33.248 155.664 32.4C155.92 31.552 156.064 30.512 156.064 29.296C156.064 28.688 156.032 28.08 155.968 27.472C155.808 26.112 155.536 25.024 155.152 24.208C154.752 23.392 154.24 22.976 153.632 22.976C153.552 22.976 153.456 22.992 153.328 23.008C152.816 23.12 152.416 23.6 152.16 24.432C151.904 25.264 151.776 26.288 151.776 27.488C151.776 28.096 151.808 28.688 151.872 29.28C152.016 30.624 152.304 31.712 152.72 32.56ZM160.967 33.456C160.327 32.992 159.831 32.32 159.463 31.44C159.095 30.56 158.919 29.536 158.919 28.352C158.919 27.168 159.095 26.128 159.479 25.264C159.847 24.4 160.343 23.76 160.951 23.312C161.559 22.864 162.231 22.64 162.951 22.64C163.655 22.64 164.327 22.88 164.935 23.328C165.543 23.776 166.039 24.448 166.407 25.312C166.759 26.176 166.951 27.2 166.951 28.384C166.951 29.584 166.759 30.624 166.407 31.488C166.055 32.352 165.575 33.024 164.983 33.472C164.391 33.936 163.751 34.16 163.063 34.16C162.295 34.16 161.591 33.936 160.967 33.456ZM161.751 32.56C162.167 33.424 162.679 33.84 163.303 33.84C163.367 33.84 163.447 33.84 163.559 33.808C164.055 33.712 164.439 33.248 164.695 32.4C164.951 31.552 165.095 30.512 165.095 29.296C165.095 28.688 165.063 28.08 164.999 27.472C164.839 26.112 164.567 25.024 164.183 24.208C163.783 23.392 163.271 22.976 162.663 22.976C162.583 22.976 162.487 22.992 162.359 23.008C161.847 23.12 161.447 23.6 161.191 24.432C160.935 25.264 160.807 26.288 160.807 27.488C160.807 28.096 160.839 28.688 160.903 29.28C161.047 30.624 161.335 31.712 161.751 32.56ZM170.929 33.792C171.281 33.792 171.553 33.696 171.745 33.472C171.937 33.264 172.049 32.896 172.049 32.384V24.416C172.049 23.904 171.937 23.552 171.745 23.328C171.553 23.12 171.281 23.008 170.929 23.008V22.8H175.873C176.753 22.8 177.489 22.976 178.065 23.296C178.641 23.616 179.057 24.048 179.313 24.56C179.569 25.072 179.697 25.632 179.697 26.224C179.697 26.832 179.553 27.392 179.297 27.904C179.041 28.432 178.625 28.864 178.049 29.2C177.473 29.536 176.753 29.696 175.873 29.696H173.857V32.384C173.857 32.912 173.985 33.28 174.257 33.488C174.529 33.696 174.913 33.792 175.425 33.792V34H170.929V33.792ZM175.425 29.424C175.953 29.424 176.401 29.28 176.769 28.992C177.137 28.704 177.409 28.32 177.585 27.84C177.761 27.376 177.857 26.88 177.857 26.336C177.857 25.44 177.649 24.672 177.249 24.032C176.833 23.392 176.225 23.072 175.409 23.072H173.857V29.424H175.425ZM181.873 24.576L181.025 31.552C180.993 31.808 180.993 31.984 180.993 32.064C180.993 32.656 181.121 33.088 181.377 33.376C181.633 33.664 181.985 33.792 182.433 33.792V34H178.769V33.792C179.249 33.792 179.665 33.616 180.017 33.248C180.353 32.896 180.577 32.32 180.673 31.552L181.441 25.248C181.457 25.12 181.473 24.928 181.473 24.672C181.473 24.112 181.345 23.696 181.105 23.424C180.849 23.152 180.529 23.008 180.129 23.008V22.8H183.185L186.305 31.392L189.345 22.8H191.953V23.008C191.617 23.008 191.361 23.088 191.169 23.232C190.977 23.392 190.897 23.648 190.897 24.016C190.897 24.08 190.897 24.208 190.929 24.4L192.049 32.4C192.113 32.912 192.257 33.28 192.465 33.488C192.673 33.696 192.961 33.792 193.313 33.792V34H188.977V33.792C189.361 33.792 189.649 33.712 189.873 33.552C190.081 33.392 190.193 33.12 190.193 32.72C190.193 32.592 190.177 32.48 190.177 32.4L189.105 24.496L185.665 34.16H185.409L181.873 24.576Z" fill="black"/>
</svg>
