<svg viewBox="0 0 368 70" fill="none" xmlns="http://www.w3.org/2000/svg">
<path d="M118.169 23V22.61C119.369 22.61 120.269 22.04 120.269 19.97V5.03C120.269 2.96 119.369 2.39 118.169 2.39V2H132.929L133.799 8.21L133.409 8.3C132.749 4.43 130.889 2.51 127.829 2.51H123.689V12.14H127.019C128.969 12.14 129.869 11.27 129.869 8.66H130.289V16.19H129.869C129.869 13.58 128.969 12.65 126.989 12.65H123.689V20.87C123.689 21.98 123.989 22.49 125.279 22.49H128.309C131.819 22.49 133.529 20.33 134.519 16.94L134.849 17.03L133.679 23H118.169ZM143.198 23V22.61C144.338 22.61 145.238 22.04 144.128 20.27L141.638 16.34L140.168 18.65C138.638 21.11 139.178 22.61 141.008 22.61V23H134.528V22.61C136.028 22.61 137.948 21.14 139.478 18.71L141.308 15.83L137.948 10.52C136.838 8.75 136.028 8.18 134.798 8.18V7.79H142.628V8.18C141.458 8.18 140.558 8.75 141.668 10.52L143.798 13.91L144.938 11.9C146.348 9.5 146.048 8.18 144.188 8.18V7.79H150.518V8.18C149.078 8.18 147.038 9.47 145.598 11.9L144.128 14.42L147.848 20.27C148.958 22.04 149.828 22.61 151.118 22.61V23H143.198ZM161.114 23V22.61C162.584 22.61 163.634 22.04 163.364 20L162.434 13.13C162.104 10.76 161.144 9.29 159.314 9.29C157.754 9.29 156.554 10.79 156.374 12.56V19.97C156.374 22.04 157.244 22.61 158.474 22.61V23H151.034V22.61C152.234 22.61 153.134 22.04 153.134 19.97V4.37C153.134 2.9 152.534 2.39 151.154 2.39V2C152.744 1.88 154.544 1.55 156.104 0.829999L156.374 0.979999V11.27C156.914 9.2 158.594 7.49 160.904 7.49C163.424 7.49 165.164 9.2 165.704 13.04L166.724 20C166.994 22.04 167.864 22.61 169.094 22.61V23H161.114ZM172.589 5.21C171.329 5.21 170.489 4.31 170.489 3.02C170.489 1.82 171.329 0.95 172.589 0.95C173.879 0.95 174.719 1.82 174.719 3.02C174.719 4.31 173.879 5.21 172.589 5.21ZM169.139 23V22.61C170.339 22.61 171.239 22.04 171.239 19.97V11.06C171.239 9.59 170.639 9.11 169.259 9.08V8.69C170.849 8.57 172.649 8.24 174.209 7.52L174.479 7.67V19.97C174.479 22.04 175.349 22.61 176.579 22.61V23H169.139ZM184.598 23.3C182.048 23.3 179.768 22.4 178.118 21.32V4.37C178.118 2.9 177.518 2.39 176.138 2.39V2C177.758 1.88 179.558 1.55 181.088 0.829999L181.358 0.979999V11.15C181.868 9.44 183.608 7.55 186.098 7.55C189.758 7.55 192.128 11.24 192.128 15.26C192.128 20 188.858 23.3 184.598 23.3ZM181.358 16.61C181.358 20.96 182.558 22.85 184.778 22.85C187.238 22.85 188.768 20.12 188.768 16.28C188.768 11.81 186.938 9.26 184.508 9.26C182.978 9.26 181.718 10.49 181.358 12.17V16.61ZM195.734 5.21C194.474 5.21 193.634 4.31 193.634 3.02C193.634 1.82 194.474 0.95 195.734 0.95C197.024 0.95 197.864 1.82 197.864 3.02C197.864 4.31 197.024 5.21 195.734 5.21ZM192.284 23V22.61C193.484 22.61 194.384 22.04 194.384 19.97V11.06C194.384 9.59 193.784 9.11 192.404 9.08V8.69C193.994 8.57 195.794 8.24 197.354 7.52L197.624 7.67V19.97C197.624 22.04 198.494 22.61 199.724 22.61V23H192.284ZM205.674 23.3C202.734 23.3 201.354 21.11 201.354 18.29V8.99H199.464V8.57C201.864 8.33 203.724 6.8 204.204 4.07H204.624V7.79H209.094L208.584 8.99H204.624V17.96C204.624 19.97 205.524 21.41 207.024 21.41C208.314 21.41 209.064 20.36 209.304 19.25L209.664 19.31C209.394 21.47 207.834 23.3 205.674 23.3ZM213.077 5.21C211.817 5.21 210.977 4.31 210.977 3.02C210.977 1.82 211.817 0.95 213.077 0.95C214.367 0.95 215.207 1.82 215.207 3.02C215.207 4.31 214.367 5.21 213.077 5.21ZM209.627 23V22.61C210.827 22.61 211.727 22.04 211.727 19.97V11.06C211.727 9.59 211.127 9.11 209.747 9.08V8.69C211.337 8.57 213.137 8.24 214.697 7.52L214.967 7.67V19.97C214.967 22.04 215.837 22.61 217.067 22.61V23H209.627ZM224.82 23.3C220.56 23.3 217.2 19.82 217.2 15.32C217.2 10.58 220.68 7.49 224.76 7.49C228.9 7.49 232.32 10.79 232.32 15.38C232.32 20.06 228.99 23.3 224.82 23.3ZM220.71 15.98C221.25 20.15 223.26 23.03 225.75 22.7C228.27 22.37 229.35 18.89 228.78 14.66C228.24 10.49 226.23 7.73 223.8 8.09C221.28 8.45 220.2 11.9 220.71 15.98ZM242.532 23V22.61C243.942 22.61 244.962 22.04 244.692 20L243.762 13.13C243.432 10.76 242.472 9.29 240.642 9.29C239.052 9.29 237.852 10.79 237.702 12.56V19.97C237.702 22.04 238.572 22.61 239.802 22.61V23H232.362V22.61C233.562 22.61 234.462 22.04 234.462 19.97V11.06C234.462 9.59 233.862 9.11 232.482 9.08V8.69C234.072 8.57 235.872 8.24 237.432 7.52L237.702 7.67V11.27C238.242 9.2 239.922 7.49 242.232 7.49C244.752 7.49 246.492 9.2 247.032 13.04L248.052 20C248.322 22.04 249.162 22.61 250.332 22.61V23H242.532ZM264.635 23.3C260.375 23.3 257.015 19.82 257.015 15.32C257.015 10.58 260.495 7.49 264.575 7.49C268.715 7.49 272.135 10.79 272.135 15.38C272.135 20.06 268.805 23.3 264.635 23.3ZM260.525 15.98C261.065 20.15 263.075 23.03 265.565 22.7C268.085 22.37 269.165 18.89 268.595 14.66C268.055 10.49 266.045 7.73 263.615 8.09C261.095 8.45 260.015 11.9 260.525 15.98ZM272.085 29V28.61C273.285 28.61 274.185 28.04 274.185 25.97V11.06C274.185 9.59 273.585 9.11 272.205 9.08V8.69C273.795 8.57 275.595 8.24 277.155 7.52L277.425 7.67V10.79C277.905 9.44 279.615 7.55 282.255 7.55C285.795 7.55 288.375 10.94 288.375 15.29C288.375 19.76 285.285 23.3 281.355 23.3C279.555 23.3 278.295 22.52 277.425 21.53V25.97C277.425 28.04 278.475 28.61 279.945 28.61V29H272.085ZM277.425 16.94C277.425 20.15 278.805 22.73 281.115 22.73C283.365 22.73 284.985 20.21 284.985 16.4C284.985 11.72 282.975 9.23 280.575 9.23C278.985 9.23 277.905 10.34 277.425 11.75V16.94ZM296.962 23.3C292.762 23.3 290.032 19.73 290.032 15.47C290.032 10.91 293.302 7.49 297.322 7.49C300.892 7.49 302.962 10.16 302.962 13.25H293.212C293.182 13.43 293.182 13.58 293.182 13.76C293.182 18.02 295.282 20.9 298.612 20.87C301.102 20.87 302.752 19.19 303.232 16.94L303.652 17C303.112 20.57 300.502 23.3 296.962 23.3ZM293.242 12.74H298.492C299.392 12.74 299.722 12.32 299.722 11.39C299.722 9.98 299.002 7.94 297.082 7.94C295.252 7.94 293.602 10.13 293.242 12.74ZM313.694 23V22.61C315.104 22.61 316.124 22.04 315.854 20L314.924 13.13C314.594 10.76 313.634 9.29 311.804 9.29C310.214 9.29 309.014 10.79 308.864 12.56V19.97C308.864 22.04 309.734 22.61 310.964 22.61V23H303.524V22.61C304.724 22.61 305.624 22.04 305.624 19.97V11.06C305.624 9.59 305.024 9.11 303.644 9.08V8.69C305.234 8.57 307.034 8.24 308.594 7.52L308.864 7.67V11.27C309.404 9.2 311.084 7.49 313.394 7.49C315.914 7.49 317.654 9.2 318.194 13.04L319.214 20C319.484 22.04 320.324 22.61 321.494 22.61V23H313.694ZM324.991 5.21C323.731 5.21 322.891 4.31 322.891 3.02C322.891 1.82 323.731 0.95 324.991 0.95C326.281 0.95 327.121 1.82 327.121 3.02C327.121 4.31 326.281 5.21 324.991 5.21ZM321.541 23V22.61C322.741 22.61 323.641 22.04 323.641 19.97V11.06C323.641 9.59 323.041 9.11 321.661 9.08V8.69C323.251 8.57 325.051 8.24 326.611 7.52L326.881 7.67V19.97C326.881 22.04 327.751 22.61 328.981 22.61V23H321.541ZM339.417 23V22.61C340.827 22.61 341.847 22.04 341.577 20L340.647 13.13C340.317 10.76 339.357 9.29 337.527 9.29C335.937 9.29 334.737 10.79 334.587 12.56V19.97C334.587 22.04 335.457 22.61 336.687 22.61V23H329.247V22.61C330.447 22.61 331.347 22.04 331.347 19.97V11.06C331.347 9.59 330.747 9.11 329.367 9.08V8.69C330.957 8.57 332.757 8.24 334.317 7.52L334.587 7.67V11.27C335.127 9.2 336.807 7.49 339.117 7.49C341.637 7.49 343.377 9.2 343.917 13.04L344.937 20C345.207 22.04 346.047 22.61 347.217 22.61V23H339.417ZM353.15 29.27C349.4 29.36 347.27 27.26 347.27 25.46C347.27 24.5 348.83 23.66 350.33 22.97C348.71 22.61 347.78 21.44 347.78 20.09C347.78 19.37 348.08 19.37 349.37 18.41L350.6 17.48C348.71 16.61 347.54 14.96 347.54 12.86C347.54 9.65 350.21 7.4 354.02 7.4C355.49 7.4 356.21 7.79 358.34 7.79H361.46L360.95 8.99L358.04 8.93C359.51 9.95 360.26 11.42 360.26 12.95C360.26 16.04 357.74 18.17 353.93 18.17C352.82 18.17 351.83 17.99 350.96 17.63C349.97 18.5 349.88 18.74 349.91 19.04C349.94 19.73 350.45 20.15 351.71 20.15H357.35C359.51 20.15 361.22 20.75 361.22 22.94C361.22 25.85 357.86 29.21 353.15 29.27ZM349.91 24.89C350.09 26.33 351.83 27.65 354.68 27.65C358.07 27.65 360.11 25.91 360.11 24.47C360.11 23.6 359.45 23.06 358.01 23.06H351.35H350.99C350.45 23.51 349.85 24.05 349.91 24.89ZM350.63 12.83C350.81 15.74 352.31 17.72 354.41 17.66C356.33 17.6 357.35 15.32 357.17 12.77C356.99 10.07 355.49 7.82 353.48 7.91C351.47 7.97 350.48 10.55 350.63 12.83ZM364.994 23.24C363.734 23.24 362.894 22.31 362.894 21.05C362.894 19.85 363.734 18.95 364.994 18.95C366.254 18.95 367.094 19.85 367.094 21.05C367.094 22.31 366.254 23.24 364.994 23.24ZM362.894 11.39C362.894 10.19 363.734 9.29 364.994 9.29C366.254 9.29 367.094 10.19 367.094 11.39C367.094 12.65 366.254 13.58 364.994 13.58C363.734 13.58 362.894 12.65 362.894 11.39ZM0.248984 63V62.61C1.44898 62.61 2.34898 62.04 2.34898 59.97V45.03C2.34898 42.96 1.47898 42.39 0.248984 42.39V42H14.949L15.819 48.21L15.459 48.3C14.769 44.43 12.909 42.51 9.87898 42.51H5.76898V52.47H9.03898C11.019 52.47 11.919 51.6 11.919 48.99H12.309V56.52H11.919C11.919 53.91 11.019 52.98 9.00898 52.98H5.76898V59.97C5.76898 62.04 6.81898 62.61 8.28898 62.61V63H0.248984ZM22.1281 63.3C17.9281 63.3 15.1981 59.73 15.1981 55.47C15.1981 50.91 18.4681 47.49 22.4881 47.49C26.0581 47.49 28.1281 50.16 28.1281 53.25H18.3781C18.3481 53.43 18.3481 53.58 18.3481 53.76C18.3481 58.02 20.4481 60.9 23.7781 60.87C26.2681 60.87 27.9181 59.19 28.3981 56.94L28.8181 57C28.2781 60.57 25.6681 63.3 22.1281 63.3ZM18.4081 52.74H23.6581C24.5581 52.74 24.8881 52.32 24.8881 51.39C24.8881 49.98 24.1681 47.94 22.2481 47.94C20.4181 47.94 18.7681 50.13 18.4081 52.74ZM37.0592 63.3C34.5092 63.3 32.2292 62.4 30.5792 61.32V44.37C30.5792 42.9 29.9792 42.39 28.5992 42.39V42C30.2192 41.88 32.0192 41.55 33.5492 40.83L33.8192 40.98V51.15C34.3292 49.44 36.0692 47.55 38.5592 47.55C42.2192 47.55 44.5892 51.24 44.5892 55.26C44.5892 60 41.3192 63.3 37.0592 63.3ZM33.8192 56.61C33.8192 60.96 35.0192 62.85 37.2392 62.85C39.6992 62.85 41.2292 60.12 41.2292 56.28C41.2292 51.81 39.3992 49.26 36.9692 49.26C35.4392 49.26 34.1792 50.49 33.8192 52.17V56.61ZM44.7446 63V62.61C45.9446 62.61 46.8446 62.04 46.8446 59.97V51.06C46.8446 49.59 46.2746 49.11 44.8646 49.08V48.69C46.4846 48.57 48.2846 48.24 49.8146 47.52L50.0846 47.67V50.94C50.5646 49.23 51.8546 47.49 53.7446 47.49C55.2146 47.49 56.1146 48.57 56.1146 49.68C56.1146 50.61 55.4846 51.48 54.4046 51.48C53.2946 51.48 53.0246 50.55 52.7546 49.92C52.5746 49.47 52.4246 49.26 52.0346 49.26C51.1046 49.26 50.2646 50.61 50.0846 52.08V59.97C50.0846 62.04 51.2546 62.61 52.8146 62.61V63H44.7446ZM63.1276 63.33C60.3376 63.33 58.2376 61.08 58.2376 57.33V51.06C58.2376 49.59 57.6376 49.11 56.2576 49.08V48.69C57.8476 48.57 59.6476 48.24 61.2076 47.52L61.4776 47.67V57C61.4776 59.64 62.4676 61.47 64.5976 61.47C66.5476 61.47 67.4476 59.76 67.5976 58.32V51.06C67.5976 49.59 66.9976 49.11 65.6176 49.08V48.69C67.2376 48.57 69.0376 48.24 70.5676 47.52L70.8376 47.67V60.18C70.8376 61.56 71.4976 61.86 72.8476 61.83V62.22C71.3776 62.4 69.4576 62.76 67.8976 63.36L67.5976 63.18V59.76C67.0576 61.41 65.6176 63.33 63.1276 63.33ZM85.5875 63.24C83.8475 63.24 82.9475 62.01 82.7075 60.12L82.6175 59.46C82.2575 61.35 80.4575 63.3 77.6975 63.3C75.1475 63.3 73.3775 61.65 73.3775 59.43C73.3775 57.42 74.8175 55.98 77.4875 55.74L82.0475 55.38L81.8375 53.85C81.4775 51.12 80.2475 49.32 77.9675 49.32C76.1975 49.32 74.8775 50.43 74.2175 52.02L73.8275 51.93C74.3975 49.8 76.5575 47.49 79.6175 47.49C82.6475 47.49 84.5675 49.47 85.0175 53.04L85.8875 59.67C86.0675 60.96 86.5775 61.35 87.0875 61.35C87.5075 61.35 87.8075 60.99 87.8975 60.48L88.2575 60.51C88.1975 61.8 87.2675 63.24 85.5875 63.24ZM76.4075 58.77C76.4075 60.21 77.4575 61.53 79.2875 61.53C81.2075 61.53 82.3775 60.15 82.5275 58.77L82.1075 55.83L79.1675 56.07C77.3375 56.25 76.4075 57.33 76.4075 58.77ZM88.2505 63V62.61C89.4505 62.61 90.3505 62.04 90.3505 59.97V51.06C90.3505 49.59 89.7805 49.11 88.3705 49.08V48.69C89.9905 48.57 91.7905 48.24 93.3205 47.52L93.5905 47.67V50.94C94.0705 49.23 95.3605 47.49 97.2505 47.49C98.7205 47.49 99.6205 48.57 99.6205 49.68C99.6205 50.61 98.9905 51.48 97.9105 51.48C96.8005 51.48 96.5305 50.55 96.2605 49.92C96.0805 49.47 95.9305 49.26 95.5405 49.26C94.6105 49.26 93.7705 50.61 93.5905 52.08V59.97C93.5905 62.04 94.7605 62.61 96.3205 62.61V63H88.2505ZM107.143 69.24C104.083 69.24 102.163 67.5 101.953 65.64C101.773 64.56 102.433 63.78 103.303 63.69C104.233 63.6 104.953 64.23 105.073 65.1C105.193 65.82 104.833 66.33 104.953 67.11C105.133 68.19 106.093 68.79 107.233 68.76C109.663 68.73 111.103 66.57 111.103 61.68V59.34C110.563 60.99 109.123 62.91 106.633 62.91C103.843 62.91 101.743 60.66 101.743 56.91V51.06C101.743 49.59 101.143 49.11 99.7634 49.08V48.69C101.353 48.57 103.153 48.24 104.713 47.52L104.983 47.67V56.58C104.983 59.22 105.973 61.05 108.103 61.05C110.053 61.05 110.953 59.34 111.103 57.9V51.06C111.103 49.59 110.503 49.11 109.123 49.08V48.69C110.743 48.57 112.543 48.24 114.073 47.52L114.343 47.67V61.32C114.343 66.69 110.743 69.24 107.143 69.24ZM122.173 62.46C128.083 56.4 130.783 52.38 130.783 48.3C130.783 44.88 128.863 43.5 127.003 43.5C125.083 43.5 123.613 45.06 123.193 46.89L122.743 46.83C123.223 44.04 125.683 41.61 128.803 41.67C131.713 41.73 134.263 44.04 134.263 47.49C134.263 51.81 130.663 55.14 124.873 60.33H129.853C133.333 60.33 133.993 59.67 134.803 56.88L135.163 56.97L133.993 63H122.173V62.46ZM135.995 63V62.61C137.705 62.61 138.935 62.04 138.935 59.97V47.4C138.935 46.14 138.485 45.57 137.225 45.57H135.305V45.15C138.095 45.09 141.095 44.1 141.845 41.4H142.325V59.97C142.325 62.04 143.555 62.61 145.265 62.61V63H135.995ZM146.424 66.78C147.774 66.24 148.914 65.04 148.974 63.99C149.034 62.49 146.724 63.06 146.664 60.96C146.634 59.82 147.534 58.98 148.584 58.98C149.964 58.98 150.774 60.27 150.774 61.77C150.774 64.59 148.494 66.51 146.574 67.17L146.424 66.78ZM157.681 62.46C163.591 56.4 166.291 52.38 166.291 48.3C166.291 44.88 164.371 43.5 162.511 43.5C160.591 43.5 159.121 45.06 158.701 46.89L158.251 46.83C158.731 44.04 161.191 41.61 164.311 41.67C167.221 41.73 169.771 44.04 169.771 47.49C169.771 51.81 166.171 55.14 160.381 60.33H165.361C168.841 60.33 169.501 59.67 170.311 56.88L170.671 56.97L169.501 63H157.681V62.46ZM179.711 63.3C175.451 63.3 171.941 59.22 171.941 52.41C171.941 45.42 175.571 41.7 179.501 41.7C183.461 41.7 187.001 45.57 187.001 52.47C187.001 59.43 183.521 63.3 179.711 63.3ZM175.661 54.15C176.201 59.16 177.941 63.18 180.641 62.64C183.131 62.13 183.941 56.19 183.341 50.76C182.771 45.54 181.121 41.79 178.391 42.39C175.841 42.93 175.091 48.78 175.661 54.15ZM187.242 62.46C193.152 56.4 195.852 52.38 195.852 48.3C195.852 44.88 193.932 43.5 192.072 43.5C190.152 43.5 188.682 45.06 188.262 46.89L187.812 46.83C188.292 44.04 190.752 41.61 193.872 41.67C196.782 41.73 199.332 44.04 199.332 47.49C199.332 51.81 195.732 55.14 189.942 60.33H194.922C198.402 60.33 199.062 59.67 199.872 56.88L200.232 56.97L199.062 63H187.242V62.46ZM205.978 63V62.61C207.418 62.61 208.498 62.04 208.498 59.97V58.08H200.458V57.51L211.378 41.52H211.888V56.07H214.648V58.08H211.888V59.97C211.888 62.04 212.938 62.61 214.408 62.61V63H205.978ZM202.228 56.07H208.498V46.44L202.228 56.07ZM216.15 66.78C217.5 66.24 218.64 65.04 218.7 63.99C218.76 62.49 216.45 63.06 216.39 60.96C216.36 59.82 217.26 58.98 218.31 58.98C219.69 58.98 220.5 60.27 220.5 61.77C220.5 64.59 218.22 66.51 216.3 67.17L216.15 66.78ZM240.158 63.24C238.418 63.24 237.518 62.01 237.278 60.12L237.188 59.46C236.828 61.35 235.028 63.3 232.268 63.3C229.718 63.3 227.948 61.65 227.948 59.43C227.948 57.42 229.388 55.98 232.058 55.74L236.618 55.38L236.408 53.85C236.048 51.12 234.818 49.32 232.538 49.32C230.768 49.32 229.448 50.43 228.788 52.02L228.398 51.93C228.968 49.8 231.128 47.49 234.188 47.49C237.218 47.49 239.138 49.47 239.588 53.04L240.458 59.67C240.638 60.96 241.148 61.35 241.658 61.35C242.078 61.35 242.378 60.99 242.468 60.48L242.828 60.51C242.768 61.8 241.838 63.24 240.158 63.24ZM230.978 58.77C230.978 60.21 232.028 61.53 233.858 61.53C235.778 61.53 236.948 60.15 237.098 58.77L236.678 55.83L233.738 56.07C231.908 56.25 230.978 57.33 230.978 58.77ZM248.448 63.3C245.508 63.3 244.128 61.11 244.128 58.29V48.99H242.238V48.57C244.638 48.33 246.498 46.8 246.978 44.07H247.398V47.79H251.868L251.358 48.99H247.398V57.96C247.398 59.97 248.298 61.41 249.798 61.41C251.088 61.41 251.838 60.36 252.078 59.25L252.438 59.31C252.168 61.47 250.608 63.3 248.448 63.3ZM259.658 63V62.61C261.368 62.61 262.598 62.04 262.598 59.97V47.4C262.598 46.14 262.148 45.57 260.888 45.57H258.968V45.15C261.758 45.09 264.758 44.1 265.508 41.4H265.988V59.97C265.988 62.04 267.218 62.61 268.928 62.61V63H259.658ZM275.411 63.3C271.451 63.24 268.991 60.72 268.991 58.05C268.991 55.32 271.181 53.55 273.731 52.68C271.061 51.18 269.801 49.47 269.831 47.16C269.861 44.43 272.321 41.64 275.981 41.7C279.191 41.76 281.681 43.95 281.681 46.59C281.681 49.11 279.761 50.55 277.571 51.15L278.171 51.48C281.081 53.13 282.611 54.99 282.611 57.36C282.611 60.69 279.401 63.36 275.411 63.3ZM272.171 57.27C272.171 60.09 273.911 62.73 276.281 62.73C278.261 62.76 279.581 61.02 279.611 59.01C279.641 56.7 278.381 55.26 276.431 54.18L274.391 53.07C273.281 53.88 272.171 55.05 272.171 57.27ZM272.801 45.66C272.771 47.91 273.941 49.11 276.071 50.31L276.911 50.79C278.201 49.89 278.741 48.48 278.741 46.95C278.741 44.28 277.391 42.24 275.621 42.21C273.971 42.18 272.801 43.8 272.801 45.66ZM286.244 63.24C284.984 63.24 284.144 62.31 284.144 61.05C284.144 59.85 284.984 58.95 286.244 58.95C287.504 58.95 288.344 59.85 288.344 61.05C288.344 62.31 287.504 63.24 286.244 63.24ZM284.144 51.39C284.144 50.19 284.984 49.29 286.244 49.29C287.504 49.29 288.344 50.19 288.344 51.39C288.344 52.65 287.504 53.58 286.244 53.58C284.984 53.58 284.144 52.65 284.144 51.39ZM294.778 63.21C291.928 63.21 289.198 61.44 289.198 58.8C289.198 57.72 289.978 56.91 290.938 56.91C291.868 56.91 292.438 57.72 292.438 58.5C292.438 59.4 291.868 59.82 291.808 60.69C291.748 61.92 292.918 62.67 294.328 62.67C296.578 62.64 298.228 59.97 298.228 57.24C298.228 54.03 296.248 51.72 293.128 51.72V51.3C295.588 51.06 297.298 49.62 297.298 47.13C297.298 44.61 295.678 43.35 293.938 43.35C292.618 43.35 291.148 44.22 290.458 46.2L290.008 46.08C290.608 43.53 292.708 41.52 295.678 41.58C298.078 41.64 300.358 43.38 300.328 46.2C300.328 48.3 298.588 50.28 296.458 50.55C299.428 50.91 301.828 53.25 301.828 56.58C301.858 60.66 298.378 63.21 294.778 63.21ZM311.049 63.3C306.789 63.3 303.279 59.22 303.279 52.41C303.279 45.42 306.909 41.7 310.839 41.7C314.799 41.7 318.339 45.57 318.339 52.47C318.339 59.43 314.859 63.3 311.049 63.3ZM306.999 54.15C307.539 59.16 309.279 63.18 311.979 62.64C314.469 62.13 315.279 56.19 314.679 50.76C314.109 45.54 312.459 41.79 309.729 42.39C307.179 42.93 306.429 48.78 306.999 54.15ZM325.796 63V62.61C326.996 62.61 327.896 62.04 327.896 59.97V45.03C327.896 42.96 326.996 42.39 325.796 42.39V42H335.066C340.346 42 342.236 45.3 342.236 48.42C342.236 51.51 340.346 54.93 335.066 54.93H331.286V59.97C331.286 62.04 332.516 62.61 334.226 62.61V63H325.796ZM331.286 54.42H334.226C337.436 54.42 338.846 51.39 338.786 48.45C338.726 45.51 337.466 42.51 334.196 42.51H331.286V54.42ZM352.946 63.3L346.316 45.33L344.726 58.41C344.366 61.44 345.656 62.61 347.366 62.61V63H340.496V62.61C342.206 62.61 343.676 61.47 344.066 58.41L345.506 46.59C345.896 43.56 344.696 42.39 343.046 42.39V42H348.776L354.626 58.11L360.326 42H365.216V42.39C363.926 42.39 362.996 42.96 363.296 45L365.396 60C365.696 62.04 366.536 62.61 367.766 62.61V63H359.636V62.61C361.106 62.61 362.156 62.04 361.886 60L359.876 45.18L353.426 63.3H352.946Z" fill="black"/>
</svg>
