<svg viewBox="0 0 355 68" fill="none" xmlns="http://www.w3.org/2000/svg">
<path d="M0.901328 22.61C1.56133 22.61 2.10133 22.43 2.46133 22.04C2.82133 21.65 3.00133 20.96 3.00133 19.97V5.03C3.00133 4.07 2.79133 3.41 2.43133 2.99C2.07133 2.6 1.56133 2.39 0.901328 2.39V2H8.58133V2.39C7.89133 2.39 7.38133 2.6 7.02133 2.99C6.66133 3.38 6.48133 4.07 6.48133 5.03L6.51133 19.97C6.51133 20.96 6.69133 21.65 7.05133 22.04C7.41133 22.43 7.92133 22.61 8.61133 22.61V23H0.901328V22.61ZM19.1509 22.61C19.8109 22.61 20.3509 22.46 20.7409 22.16C21.1309 21.86 21.3409 21.35 21.3409 20.6C21.3409 20.36 21.3109 20.15 21.3109 20L20.3809 13.13C20.0209 10.58 18.9709 9.29 17.2609 9.29C16.4809 9.29 15.7909 9.62 15.2509 10.25C14.7109 10.91 14.3809 11.66 14.3209 12.56V19.97C14.3209 20.96 14.5009 21.65 14.8609 22.04C15.2209 22.43 15.7309 22.61 16.4209 22.61V23H8.98094V22.61C9.64094 22.61 10.1509 22.43 10.5109 22.01C10.8709 21.62 11.0809 20.93 11.0809 19.97V11.06C11.0809 10.34 10.9009 9.86 10.6009 9.56C10.3009 9.26 9.79094 9.11 9.10094 9.08V8.69C11.0209 8.57 12.6709 8.18 14.0509 7.52L14.3209 7.67V11.27C14.5909 10.19 15.1309 9.29 15.9409 8.57C16.7509 7.85 17.7109 7.49 18.8509 7.49C20.1409 7.49 21.1909 7.97 22.0309 8.87C22.8409 9.77 23.3809 11.18 23.6509 13.04L24.6709 20C24.7909 20.96 25.0309 21.65 25.4209 22.04C25.7809 22.43 26.2909 22.61 26.9509 22.61V23H19.1509V22.61ZM37.0626 22.43C36.5826 21.89 36.2826 21.11 36.1626 20.12L36.0726 19.46C35.9526 20.12 35.6526 20.75 35.2326 21.32C34.7826 21.92 34.2126 22.4 33.5226 22.76C32.8026 23.12 32.0226 23.3 31.1526 23.3C29.8926 23.3 28.8426 22.94 28.0326 22.22C27.2226 21.5 26.8326 20.57 26.8326 19.43C26.8326 18.41 27.1626 17.57 27.8826 16.91C28.6026 16.25 29.6226 15.86 30.9426 15.74L35.5026 15.38L35.2926 13.85C35.1126 12.44 34.6926 11.33 34.0326 10.52C33.3726 9.74 32.5026 9.32 31.4226 9.32C30.5526 9.32 29.8026 9.59 29.1426 10.07C28.4826 10.55 28.0026 11.21 27.6726 12.02L27.2826 11.93C27.4626 11.21 27.8226 10.49 28.3626 9.8C28.9026 9.14 29.5626 8.57 30.3726 8.15C31.1826 7.73 32.0826 7.49 33.0726 7.49C34.5726 7.49 35.8026 7.97 36.7326 8.93C37.6626 9.89 38.2326 11.27 38.4726 13.04L39.3426 19.67C39.4926 20.81 39.8826 21.35 40.5426 21.35C40.7226 21.35 40.9026 21.29 41.0526 21.11C41.2026 20.96 41.2926 20.75 41.3526 20.48L41.7126 20.51C41.6526 21.23 41.4126 21.86 40.9326 22.4C40.4526 22.97 39.8226 23.24 39.0426 23.24C38.2026 23.24 37.5426 22.97 37.0626 22.43ZM30.6426 20.72C31.1526 21.26 31.8426 21.53 32.7426 21.53C33.6426 21.53 34.3926 21.26 34.9926 20.72C35.5626 20.18 35.8926 19.52 35.9826 18.77L35.5626 15.83L32.6226 16.07C31.7226 16.16 31.0326 16.46 30.5526 16.94C30.0726 17.42 29.8626 18.05 29.8626 18.77C29.8626 19.55 30.1026 20.18 30.6426 20.72ZM45.2052 22.61C44.4552 22.13 43.8852 21.44 43.4652 20.54C43.0452 19.64 42.8352 18.56 42.8352 17.33V11.06C42.8352 10.34 42.6552 9.86 42.3552 9.56C42.0552 9.26 41.5452 9.11 40.8552 9.08V8.69C42.7752 8.57 44.4252 8.18 45.8052 7.52L46.0752 7.67V17C46.0752 18.38 46.3152 19.49 46.8552 20.27C47.3652 21.08 48.1452 21.47 49.1952 21.47C50.0952 21.47 50.7852 21.17 51.2952 20.54C51.8052 19.91 52.1052 19.16 52.1952 18.32V11.06C52.1952 10.34 52.0152 9.86 51.7152 9.56C51.4152 9.26 50.9052 9.11 50.2152 9.08V8.69C52.1352 8.57 53.7852 8.18 55.1652 7.52L55.4352 7.67V20.18C55.4352 20.84 55.5852 21.29 55.8852 21.53C56.1852 21.77 56.7252 21.86 57.4452 21.83V22.22C55.4952 22.46 53.8452 22.85 52.4952 23.36L52.1952 23.18V19.76C51.8652 20.72 51.3252 21.56 50.5752 22.28C49.7952 23 48.8652 23.33 47.7252 23.33C46.7652 23.33 45.9252 23.09 45.2052 22.61ZM60.7288 28.7C59.8588 28.34 59.1988 27.86 58.7488 27.26C58.2988 26.69 58.0888 26.09 58.0888 25.46C58.0888 25.04 58.3588 24.62 58.8988 24.2C59.4388 23.81 60.1888 23.39 61.1488 22.97C60.3388 22.79 59.7088 22.46 59.2588 21.92C58.8088 21.38 58.5988 20.78 58.5988 20.09C58.5988 19.85 58.6288 19.64 58.7488 19.52C58.8388 19.4 59.0788 19.19 59.4688 18.92L60.1888 18.41L61.4188 17.48C60.4588 17.06 59.7088 16.43 59.1688 15.62C58.6288 14.84 58.3588 13.91 58.3588 12.86C58.3588 11.81 58.6288 10.88 59.1688 10.04C59.7088 9.2 60.4888 8.57 61.4788 8.09C62.4388 7.64 63.5788 7.4 64.8388 7.4C65.2288 7.4 65.7988 7.46 66.5788 7.58C67.5988 7.73 68.4388 7.79 69.1588 7.79H72.2788L71.7688 8.99L68.8588 8.93C69.5788 9.44 70.1188 10.04 70.5088 10.73C70.8688 11.45 71.0788 12.17 71.0788 12.95C71.0788 13.97 70.8088 14.9 70.2688 15.68C69.7288 16.46 69.0088 17.09 68.0488 17.51C67.0888 17.96 66.0088 18.17 64.7488 18.17C63.6388 18.17 62.6488 17.99 61.7788 17.63C61.3588 17.99 61.0588 18.29 60.9388 18.47C60.7888 18.65 60.7288 18.83 60.7288 18.95C60.7288 19.76 61.3288 20.15 62.5288 20.15H68.1688C69.3688 20.15 70.2988 20.36 70.9888 20.78C71.6788 21.2 72.0388 21.92 72.0388 22.94C72.0388 23.96 71.6488 24.95 70.9288 25.91C70.2088 26.9 69.1888 27.71 67.9288 28.34C66.6688 28.97 65.2588 29.27 63.7288 29.27C62.5888 29.27 61.5688 29.09 60.7288 28.7ZM62.1688 26.84C63.0088 27.38 64.1188 27.65 65.4988 27.65C66.5788 27.65 67.5088 27.5 68.3488 27.17C69.1588 26.87 69.7888 26.45 70.2388 25.97C70.6888 25.49 70.9288 24.98 70.9288 24.47C70.9288 24.05 70.7488 23.69 70.3888 23.45C70.0288 23.21 69.5188 23.06 68.8288 23.06H62.1688H61.8088C61.4488 23.36 61.1488 23.66 60.9688 23.93C60.7888 24.2 60.6988 24.53 60.7288 24.89C60.8188 25.67 61.2988 26.3 62.1688 26.84ZM62.4688 16.19C63.1588 17.18 64.0588 17.66 65.1388 17.66C66.0088 17.66 66.6988 17.27 67.2388 16.43C67.7488 15.59 68.0188 14.57 68.0188 13.34C68.0188 12.38 67.8388 11.51 67.5388 10.67C67.2388 9.83 66.7888 9.17 66.2488 8.66C65.7088 8.18 65.0788 7.91 64.4188 7.91C63.4588 7.91 62.7388 8.36 62.2288 9.26C61.6888 10.16 61.4488 11.18 61.4488 12.38C61.4488 13.94 61.7788 15.23 62.4688 16.19ZM76.8166 22.61C76.0666 22.13 75.4966 21.44 75.0766 20.54C74.6566 19.64 74.4466 18.56 74.4466 17.33V11.06C74.4466 10.34 74.2666 9.86 73.9666 9.56C73.6666 9.26 73.1566 9.11 72.4666 9.08V8.69C74.3866 8.57 76.0366 8.18 77.4166 7.52L77.6866 7.67V17C77.6866 18.38 77.9266 19.49 78.4666 20.27C78.9766 21.08 79.7566 21.47 80.8066 21.47C81.7066 21.47 82.3966 21.17 82.9066 20.54C83.4166 19.91 83.7166 19.16 83.8066 18.32V11.06C83.8066 10.34 83.6266 9.86 83.3266 9.56C83.0266 9.26 82.5166 9.11 81.8266 9.08V8.69C83.7466 8.57 85.3966 8.18 86.7766 7.52L87.0466 7.67V20.18C87.0466 20.84 87.1966 21.29 87.4966 21.53C87.7966 21.77 88.3366 21.86 89.0566 21.83V22.22C87.1066 22.46 85.4566 22.85 84.1066 23.36L83.8066 23.18V19.76C83.4766 20.72 82.9366 21.56 82.1866 22.28C81.4066 23 80.4766 23.33 79.3366 23.33C78.3766 23.33 77.5366 23.09 76.8166 22.61ZM89.3423 22.61C90.0023 22.61 90.5123 22.43 90.8723 22.01C91.2323 21.62 91.4423 20.93 91.4423 19.97V11.06C91.4423 10.34 91.2923 9.86 90.9923 9.56C90.6923 9.26 90.1823 9.11 89.4623 9.08V8.69C91.3823 8.57 93.0323 8.18 94.4123 7.52L94.6823 7.67V10.94C94.9223 10.01 95.3723 9.2 96.0323 8.51C96.6923 7.85 97.4423 7.49 98.3423 7.49C99.0323 7.49 99.6023 7.73 100.052 8.15C100.472 8.6 100.712 9.11 100.712 9.68C100.712 10.19 100.532 10.61 100.232 10.97C99.9323 11.33 99.5123 11.48 99.0023 11.48C98.6423 11.48 98.3723 11.42 98.1623 11.24C97.9523 11.09 97.7723 10.88 97.6523 10.64C97.5323 10.4 97.4123 10.16 97.3523 9.92C97.2323 9.68 97.1423 9.53 97.0523 9.41C96.9323 9.32 96.8123 9.26 96.6323 9.26C96.1523 9.26 95.7323 9.56 95.3723 10.1C95.0123 10.67 94.7723 11.33 94.6823 12.08V19.97C94.6823 20.93 94.9223 21.62 95.4023 22.01C95.8823 22.43 96.5423 22.61 97.4123 22.61V23H89.3423V22.61ZM111.066 22.43C110.586 21.89 110.286 21.11 110.166 20.12L110.076 19.46C109.956 20.12 109.656 20.75 109.236 21.32C108.786 21.92 108.216 22.4 107.526 22.76C106.806 23.12 106.026 23.3 105.156 23.3C103.896 23.3 102.846 22.94 102.036 22.22C101.226 21.5 100.836 20.57 100.836 19.43C100.836 18.41 101.166 17.57 101.886 16.91C102.606 16.25 103.626 15.86 104.946 15.74L109.506 15.38L109.296 13.85C109.116 12.44 108.696 11.33 108.036 10.52C107.376 9.74 106.506 9.32 105.426 9.32C104.556 9.32 103.806 9.59 103.146 10.07C102.486 10.55 102.006 11.21 101.676 12.02L101.286 11.93C101.466 11.21 101.826 10.49 102.366 9.8C102.906 9.14 103.566 8.57 104.376 8.15C105.186 7.73 106.086 7.49 107.076 7.49C108.576 7.49 109.806 7.97 110.736 8.93C111.666 9.89 112.236 11.27 112.476 13.04L113.346 19.67C113.496 20.81 113.886 21.35 114.546 21.35C114.726 21.35 114.906 21.29 115.056 21.11C115.206 20.96 115.296 20.75 115.356 20.48L115.716 20.51C115.656 21.23 115.416 21.86 114.936 22.4C114.456 22.97 113.826 23.24 113.046 23.24C112.206 23.24 111.546 22.97 111.066 22.43ZM104.646 20.72C105.156 21.26 105.846 21.53 106.746 21.53C107.646 21.53 108.396 21.26 108.996 20.72C109.566 20.18 109.896 19.52 109.986 18.77L109.566 15.83L106.626 16.07C105.726 16.16 105.036 16.46 104.556 16.94C104.076 17.42 103.866 18.05 103.866 18.77C103.866 19.55 104.106 20.18 104.646 20.72ZM124.204 8.18H121.054C120.334 8.18 119.644 8.45 118.984 8.99C118.324 9.53 117.754 10.19 117.274 10.97C116.794 11.75 116.464 12.53 116.314 13.25L115.924 13.19L116.854 7.79H128.134L119.674 22.61H122.764C123.514 22.61 124.264 22.37 124.984 21.89C125.704 21.41 126.364 20.75 126.904 19.94C127.444 19.13 127.804 18.26 128.014 17.33L128.434 17.39L127.504 23H115.774L124.204 8.18ZM130.842 4.61C130.452 4.19 130.272 3.68 130.272 3.02C130.272 2.42 130.452 1.94 130.842 1.55C131.232 1.16 131.742 0.95 132.372 0.95C133.002 0.95 133.512 1.16 133.902 1.55C134.292 1.94 134.502 2.42 134.502 3.02C134.502 3.68 134.292 4.19 133.902 4.61C133.512 5.03 133.002 5.21 132.372 5.21C131.742 5.21 131.232 5.03 130.842 4.61ZM128.922 22.61C129.582 22.61 130.092 22.43 130.452 22.01C130.812 21.62 131.022 20.93 131.022 19.97V11.06C131.022 10.34 130.842 9.86 130.542 9.56C130.242 9.26 129.732 9.11 129.042 9.08V8.69C130.962 8.57 132.612 8.18 133.992 7.52L134.262 7.67V19.97C134.262 20.96 134.442 21.65 134.802 22.04C135.162 22.43 135.672 22.61 136.362 22.61V23H128.922V22.61ZM140.275 22.25C139.105 21.56 138.175 20.6 137.515 19.37C136.825 18.17 136.495 16.82 136.495 15.32C136.495 13.79 136.825 12.44 137.515 11.24C138.175 10.04 139.105 9.14 140.275 8.48C141.415 7.82 142.675 7.49 144.055 7.49C145.435 7.49 146.695 7.85 147.835 8.51C148.975 9.2 149.905 10.13 150.595 11.33C151.255 12.53 151.615 13.88 151.615 15.38C151.615 16.91 151.285 18.29 150.625 19.49C149.965 20.69 149.035 21.65 147.895 22.31C146.755 22.97 145.495 23.3 144.115 23.3C142.705 23.3 141.415 22.97 140.275 22.25ZM141.655 20.87C142.495 22.13 143.515 22.73 144.655 22.73C145.795 22.73 146.665 22.19 147.295 21.08C147.895 20 148.225 18.56 148.225 16.79C148.225 16.22 148.165 15.5 148.075 14.66C147.805 12.68 147.265 11.09 146.425 9.89C145.585 8.69 144.625 8.06 143.515 8.06C142.345 8.06 141.445 8.63 140.815 9.74C140.185 10.88 139.885 12.32 139.885 14.06C139.885 14.78 139.915 15.41 140.005 15.98C140.245 17.99 140.815 19.61 141.655 20.87ZM161.827 22.61C162.487 22.61 163.027 22.46 163.417 22.16C163.807 21.86 164.017 21.35 164.017 20.6C164.017 20.36 163.987 20.15 163.987 20L163.057 13.13C162.697 10.58 161.647 9.29 159.937 9.29C159.157 9.29 158.467 9.62 157.927 10.25C157.387 10.91 157.057 11.66 156.997 12.56V19.97C156.997 20.96 157.177 21.65 157.537 22.04C157.897 22.43 158.407 22.61 159.097 22.61V23H151.657V22.61C152.317 22.61 152.827 22.43 153.187 22.01C153.547 21.62 153.757 20.93 153.757 19.97V11.06C153.757 10.34 153.577 9.86 153.277 9.56C152.977 9.26 152.467 9.11 151.777 9.08V8.69C153.697 8.57 155.347 8.18 156.727 7.52L156.997 7.67V11.27C157.267 10.19 157.807 9.29 158.617 8.57C159.427 7.85 160.387 7.49 161.527 7.49C162.817 7.49 163.867 7.97 164.707 8.87C165.517 9.77 166.057 11.18 166.327 13.04L167.347 20C167.467 20.96 167.707 21.65 168.097 22.04C168.457 22.43 168.967 22.61 169.627 22.61V23H161.827V22.61ZM172.578 22.25C171.528 21.56 170.718 20.6 170.148 19.4C169.548 18.2 169.278 16.91 169.278 15.47C169.278 13.97 169.578 12.62 170.238 11.42C170.898 10.22 171.768 9.26 172.908 8.54C174.018 7.85 175.248 7.49 176.568 7.49C177.708 7.49 178.728 7.76 179.568 8.27C180.408 8.81 181.068 9.5 181.518 10.37C181.968 11.27 182.208 12.23 182.208 13.25H172.458C172.428 13.37 172.428 13.55 172.428 13.76C172.428 15.17 172.638 16.4 173.088 17.48C173.508 18.56 174.138 19.4 174.948 20C175.758 20.6 176.718 20.87 177.798 20.87C178.998 20.87 180.018 20.51 180.858 19.79C181.698 19.07 182.238 18.14 182.478 16.94L182.898 17C182.718 18.2 182.298 19.28 181.698 20.24C181.098 21.2 180.318 21.95 179.358 22.49C178.398 23.03 177.348 23.3 176.208 23.3C174.828 23.3 173.628 22.97 172.578 22.25ZM177.738 12.74C178.158 12.74 178.488 12.65 178.668 12.44C178.848 12.23 178.968 11.87 178.968 11.39C178.968 10.55 178.728 9.77 178.308 9.05C177.858 8.33 177.198 7.94 176.328 7.94C175.428 7.94 174.588 8.42 173.868 9.35C173.118 10.31 172.668 11.42 172.488 12.74H177.738ZM193.138 22.28C192.178 21.62 191.458 20.69 190.918 19.49C190.378 18.32 190.138 17 190.138 15.56C190.138 14.12 190.438 12.77 191.068 11.54C191.668 10.34 192.538 9.35 193.618 8.63C194.698 7.91 195.868 7.55 197.188 7.55C198.748 7.55 200.068 8.15 201.088 9.35V4.37C201.088 3.65 200.938 3.14 200.638 2.84C200.338 2.54 199.828 2.39 199.138 2.39V2C201.058 1.88 202.708 1.49 204.058 0.829999L204.358 0.979999V20.18C204.358 20.84 204.508 21.29 204.808 21.53C205.108 21.77 205.618 21.86 206.338 21.83V22.22C204.358 22.46 202.738 22.85 201.418 23.36L201.088 23.18V20.06C200.788 20.87 200.218 21.62 199.378 22.28C198.508 22.97 197.488 23.3 196.288 23.3C195.118 23.3 194.068 22.97 193.138 22.28ZM194.158 18.26C194.548 19.34 195.088 20.12 195.778 20.66C196.438 21.2 197.188 21.47 197.998 21.47C198.718 21.47 199.378 21.26 199.918 20.84C200.458 20.42 200.848 19.85 201.088 19.13V14.33C201.088 12.65 200.758 11.18 200.098 9.95C199.438 8.75 198.538 8.12 197.428 8.12C196.648 8.12 195.988 8.42 195.388 8.96C194.788 9.5 194.338 10.25 194.038 11.21C193.708 12.17 193.558 13.25 193.558 14.45C193.558 15.95 193.738 17.21 194.158 18.26ZM209.932 22.25C208.882 21.56 208.072 20.6 207.502 19.4C206.902 18.2 206.632 16.91 206.632 15.47C206.632 13.97 206.932 12.62 207.592 11.42C208.252 10.22 209.122 9.26 210.262 8.54C211.372 7.85 212.602 7.49 213.922 7.49C215.062 7.49 216.082 7.76 216.922 8.27C217.762 8.81 218.422 9.5 218.872 10.37C219.322 11.27 219.562 12.23 219.562 13.25H209.812C209.782 13.37 209.782 13.55 209.782 13.76C209.782 15.17 209.992 16.4 210.442 17.48C210.862 18.56 211.492 19.4 212.302 20C213.112 20.6 214.072 20.87 215.152 20.87C216.352 20.87 217.372 20.51 218.212 19.79C219.052 19.07 219.592 18.14 219.832 16.94L220.252 17C220.072 18.2 219.652 19.28 219.052 20.24C218.452 21.2 217.672 21.95 216.712 22.49C215.752 23.03 214.702 23.3 213.562 23.3C212.182 23.3 210.982 22.97 209.932 22.25ZM215.092 12.74C215.512 12.74 215.842 12.65 216.022 12.44C216.202 12.23 216.322 11.87 216.322 11.39C216.322 10.55 216.082 9.77 215.662 9.05C215.212 8.33 214.552 7.94 213.682 7.94C212.782 7.94 211.942 8.42 211.222 9.35C210.472 10.31 210.022 11.42 209.842 12.74H215.092ZM220.036 22.61C220.696 22.61 221.206 22.43 221.566 22.01C221.926 21.62 222.136 20.93 222.136 19.97L222.226 4.37C222.226 3.65 222.046 3.14 221.746 2.84C221.446 2.54 220.936 2.39 220.246 2.39V2C222.166 1.88 223.816 1.49 225.196 0.829999L225.466 0.979999V19.97C225.466 20.93 225.646 21.62 226.006 22.01C226.366 22.43 226.906 22.61 227.566 22.61V23H220.036V22.61ZM227.594 22.61C228.254 22.61 228.764 22.43 229.124 22.01C229.484 21.62 229.694 20.93 229.694 19.97L229.784 4.37C229.784 3.65 229.604 3.14 229.304 2.84C229.004 2.54 228.494 2.39 227.804 2.39V2C229.724 1.88 231.374 1.49 232.754 0.829999L233.024 0.979999V19.97C233.024 20.93 233.204 21.62 233.564 22.01C233.924 22.43 234.464 22.61 235.124 22.61V23H227.594V22.61ZM245.627 22.43C245.147 21.89 244.847 21.11 244.727 20.12L244.637 19.46C244.517 20.12 244.217 20.75 243.797 21.32C243.347 21.92 242.777 22.4 242.087 22.76C241.367 23.12 240.587 23.3 239.717 23.3C238.457 23.3 237.407 22.94 236.597 22.22C235.787 21.5 235.397 20.57 235.397 19.43C235.397 18.41 235.727 17.57 236.447 16.91C237.167 16.25 238.187 15.86 239.507 15.74L244.067 15.38L243.857 13.85C243.677 12.44 243.257 11.33 242.597 10.52C241.937 9.74 241.067 9.32 239.987 9.32C239.117 9.32 238.367 9.59 237.707 10.07C237.047 10.55 236.567 11.21 236.237 12.02L235.847 11.93C236.027 11.21 236.387 10.49 236.927 9.8C237.467 9.14 238.127 8.57 238.937 8.15C239.747 7.73 240.647 7.49 241.637 7.49C243.137 7.49 244.367 7.97 245.297 8.93C246.227 9.89 246.797 11.27 247.037 13.04L247.907 19.67C248.057 20.81 248.447 21.35 249.107 21.35C249.287 21.35 249.467 21.29 249.617 21.11C249.767 20.96 249.857 20.75 249.917 20.48L250.277 20.51C250.217 21.23 249.977 21.86 249.497 22.4C249.017 22.97 248.387 23.24 247.607 23.24C246.767 23.24 246.107 22.97 245.627 22.43ZM239.207 20.72C239.717 21.26 240.407 21.53 241.307 21.53C242.207 21.53 242.957 21.26 243.557 20.72C244.127 20.18 244.457 19.52 244.547 18.77L244.127 15.83L241.187 16.07C240.287 16.16 239.597 16.46 239.117 16.94C238.637 17.42 238.427 18.05 238.427 18.77C238.427 19.55 238.667 20.18 239.207 20.72ZM276.04 22.61C276.76 22.61 277.3 22.46 277.72 22.16C278.11 21.86 278.32 21.35 278.32 20.6C278.32 20.36 278.29 20.15 278.29 20L277.33 13.13C276.97 10.58 275.92 9.29 274.21 9.29C273.37 9.29 272.68 9.59 272.17 10.16C271.66 10.73 271.36 11.45 271.24 12.29C271.27 12.71 271.3 13.01 271.3 13.25V19.97C271.3 20.93 271.48 21.62 271.84 22.01C272.2 22.43 272.74 22.61 273.4 22.61V23H266.08V22.61C266.71 22.61 267.19 22.43 267.55 22.04C267.91 21.65 268.09 20.96 268.09 19.97V13.76C268.09 12.32 267.79 11.21 267.25 10.43C266.71 9.65 265.93 9.26 264.94 9.26C264.13 9.26 263.44 9.56 262.87 10.1C262.27 10.67 261.94 11.33 261.85 12.08V19.97C261.85 20.96 262 21.65 262.36 22.04C262.72 22.43 263.2 22.61 263.86 22.61V23H256.51V22.61C257.17 22.61 257.68 22.43 258.04 22.01C258.4 21.62 258.61 20.93 258.61 19.97V11.06C258.61 10.34 258.43 9.86 258.13 9.56C257.83 9.26 257.32 9.11 256.63 9.08V8.69C258.55 8.57 260.2 8.18 261.58 7.52L261.85 7.67V10.88C262.15 9.95 262.72 9.14 263.56 8.48C264.37 7.82 265.3 7.49 266.38 7.49C267.52 7.49 268.51 7.85 269.35 8.51C270.19 9.17 270.79 10.13 271.09 11.33C271.33 10.25 271.87 9.35 272.71 8.6C273.52 7.88 274.51 7.49 275.68 7.49C278.41 7.49 280.06 9.35 280.6 13.04L281.62 20C281.74 20.96 282.01 21.65 282.43 22.04C282.82 22.43 283.36 22.61 284.02 22.61V23H276.04V22.61ZM287.316 22.25C286.146 21.56 285.216 20.6 284.556 19.37C283.866 18.17 283.536 16.82 283.536 15.32C283.536 13.79 283.866 12.44 284.556 11.24C285.216 10.04 286.146 9.14 287.316 8.48C288.456 7.82 289.716 7.49 291.096 7.49C292.476 7.49 293.736 7.85 294.876 8.51C296.016 9.2 296.946 10.13 297.636 11.33C298.296 12.53 298.656 13.88 298.656 15.38C298.656 16.91 298.326 18.29 297.666 19.49C297.006 20.69 296.076 21.65 294.936 22.31C293.796 22.97 292.536 23.3 291.156 23.3C289.746 23.3 288.456 22.97 287.316 22.25ZM288.696 20.87C289.536 22.13 290.556 22.73 291.696 22.73C292.836 22.73 293.706 22.19 294.336 21.08C294.936 20 295.266 18.56 295.266 16.79C295.266 16.22 295.206 15.5 295.116 14.66C294.846 12.68 294.306 11.09 293.466 9.89C292.626 8.69 291.666 8.06 290.556 8.06C289.386 8.06 288.486 8.63 287.856 9.74C287.226 10.88 286.926 12.32 286.926 14.06C286.926 14.78 286.956 15.41 287.046 15.98C287.286 17.99 287.856 19.61 288.696 20.87ZM300.175 17.03L300.565 16.94C301.045 18.47 301.735 19.82 302.635 20.99C303.535 22.19 304.705 22.79 306.205 22.79C307.135 22.79 307.885 22.55 308.425 22.07C308.965 21.59 309.265 20.96 309.295 20.21C309.295 19.49 309.025 18.86 308.515 18.38C307.975 17.9 307.135 17.45 305.935 17.03L304.135 16.31C302.875 15.83 301.945 15.26 301.285 14.54C300.625 13.82 300.325 12.92 300.325 11.84C300.325 11.06 300.535 10.31 301.015 9.65C301.465 8.99 302.095 8.48 302.905 8.09C303.715 7.73 304.615 7.52 305.575 7.52C306.355 7.52 307.255 7.7 308.245 8.03C308.785 8.21 309.145 8.27 309.325 8.27C309.745 8.27 310.075 7.97 310.255 7.34L310.675 7.31L311.065 13.19L310.645 13.25C310.405 12.47 310.045 11.69 309.565 10.88C309.085 10.07 308.485 9.38 307.795 8.81C307.075 8.27 306.325 7.97 305.515 7.97C304.705 7.97 304.045 8.21 303.565 8.69C303.085 9.17 302.845 9.77 302.845 10.43C302.845 11.09 303.085 11.69 303.595 12.17C304.105 12.65 304.915 13.1 305.995 13.46L307.765 14.18C309.115 14.69 310.105 15.29 310.765 15.98C311.425 16.67 311.755 17.51 311.755 18.5C311.755 19.49 311.485 20.33 311.005 21.05C310.495 21.77 309.835 22.34 309.025 22.7C308.215 23.09 307.345 23.27 306.415 23.27C305.875 23.27 305.365 23.24 304.945 23.15C304.495 23.06 303.985 22.94 303.415 22.76C302.785 22.58 302.365 22.49 302.155 22.49C301.915 22.49 301.705 22.58 301.555 22.7C301.405 22.82 301.255 23.03 301.135 23.33L300.685 23.36L300.175 17.03ZM315.323 21.92C314.603 20.99 314.243 19.79 314.243 18.29V8.99H312.353V8.57C313.583 8.45 314.633 8.03 315.473 7.25C316.313 6.47 316.853 5.42 317.093 4.07H317.513V7.79H321.983L321.473 8.99H317.513V17.96C317.513 18.98 317.723 19.82 318.143 20.45C318.563 21.11 319.163 21.41 319.913 21.41C320.513 21.41 320.993 21.23 321.383 20.81C321.773 20.39 322.043 19.88 322.193 19.25L322.553 19.31C322.403 20.45 321.953 21.38 321.233 22.16C320.483 22.94 319.583 23.3 318.563 23.3C317.123 23.3 316.043 22.85 315.323 21.92ZM322.516 22.61C323.176 22.61 323.686 22.43 324.046 22.01C324.406 21.62 324.616 20.93 324.616 19.97V11.06C324.616 10.34 324.466 9.86 324.166 9.56C323.866 9.26 323.356 9.11 322.636 9.08V8.69C324.556 8.57 326.206 8.18 327.586 7.52L327.856 7.67V10.94C328.096 10.01 328.546 9.2 329.206 8.51C329.866 7.85 330.616 7.49 331.516 7.49C332.206 7.49 332.776 7.73 333.226 8.15C333.646 8.6 333.886 9.11 333.886 9.68C333.886 10.19 333.706 10.61 333.406 10.97C333.106 11.33 332.686 11.48 332.176 11.48C331.816 11.48 331.546 11.42 331.336 11.24C331.126 11.09 330.946 10.88 330.826 10.64C330.706 10.4 330.586 10.16 330.526 9.92C330.406 9.68 330.316 9.53 330.226 9.41C330.106 9.32 329.986 9.26 329.806 9.26C329.326 9.26 328.906 9.56 328.546 10.1C328.186 10.67 327.946 11.33 327.856 12.08V19.97C327.856 20.93 328.096 21.62 328.576 22.01C329.056 22.43 329.716 22.61 330.586 22.61V23H322.516V22.61ZM344.24 22.43C343.76 21.89 343.46 21.11 343.34 20.12L343.25 19.46C343.13 20.12 342.83 20.75 342.41 21.32C341.96 21.92 341.39 22.4 340.7 22.76C339.98 23.12 339.2 23.3 338.33 23.3C337.07 23.3 336.02 22.94 335.21 22.22C334.4 21.5 334.01 20.57 334.01 19.43C334.01 18.41 334.34 17.57 335.06 16.91C335.78 16.25 336.8 15.86 338.12 15.74L342.68 15.38L342.47 13.85C342.29 12.44 341.87 11.33 341.21 10.52C340.55 9.74 339.68 9.32 338.6 9.32C337.73 9.32 336.98 9.59 336.32 10.07C335.66 10.55 335.18 11.21 334.85 12.02L334.46 11.93C334.64 11.21 335 10.49 335.54 9.8C336.08 9.14 336.74 8.57 337.55 8.15C338.36 7.73 339.26 7.49 340.25 7.49C341.75 7.49 342.98 7.97 343.91 8.93C344.84 9.89 345.41 11.27 345.65 13.04L346.52 19.67C346.67 20.81 347.06 21.35 347.72 21.35C347.9 21.35 348.08 21.29 348.23 21.11C348.38 20.96 348.47 20.75 348.53 20.48L348.89 20.51C348.83 21.23 348.59 21.86 348.11 22.4C347.63 22.97 347 23.24 346.22 23.24C345.38 23.24 344.72 22.97 344.24 22.43ZM337.82 20.72C338.33 21.26 339.02 21.53 339.92 21.53C340.82 21.53 341.57 21.26 342.17 20.72C342.74 20.18 343.07 19.52 343.16 18.77L342.74 15.83L339.8 16.07C338.9 16.16 338.21 16.46 337.73 16.94C337.25 17.42 337.04 18.05 337.04 18.77C337.04 19.55 337.28 20.18 337.82 20.72ZM350.464 22.64C350.074 22.22 349.894 21.71 349.894 21.05C349.894 20.45 350.074 19.97 350.464 19.55C350.854 19.16 351.364 18.95 351.994 18.95C352.594 18.95 353.104 19.16 353.494 19.55C353.884 19.97 354.094 20.45 354.094 21.05C354.094 21.71 353.884 22.22 353.494 22.64C353.104 23.06 352.594 23.24 351.994 23.24C351.364 23.24 350.854 23.06 350.464 22.64ZM350.464 12.98C350.074 12.56 349.894 12.05 349.894 11.39C349.894 10.79 350.074 10.31 350.464 9.89C350.854 9.5 351.364 9.29 351.994 9.29C352.594 9.29 353.104 9.5 353.494 9.89C353.884 10.31 354.094 10.79 354.094 11.39C354.094 12.05 353.884 12.56 353.494 12.98C353.104 13.4 352.594 13.58 351.994 13.58C351.364 13.58 350.854 13.4 350.464 12.98ZM43.9368 54.54C45.2868 52.38 45.9768 50.28 45.9768 48.3C45.9768 46.71 45.5868 45.51 44.8668 44.7C44.1168 43.92 43.2168 43.5 42.1968 43.5C41.2668 43.5 40.4568 43.83 39.7668 44.49C39.0468 45.15 38.5968 45.93 38.3868 46.89L37.9368 46.83C38.0868 45.93 38.4468 45.06 39.0168 44.28C39.5568 43.5 40.2768 42.87 41.1168 42.39C41.9568 41.91 42.8568 41.67 43.8768 41.67C44.8668 41.67 45.7968 41.94 46.6368 42.42C47.4768 42.9 48.1668 43.59 48.6768 44.49C49.1868 45.39 49.4568 46.38 49.4568 47.49C49.4568 48.87 49.0968 50.22 48.3768 51.48C47.6568 52.77 46.6668 54.03 45.4368 55.29C44.2068 56.55 42.4068 58.23 40.0668 60.33H45.0468C46.2168 60.33 47.1168 60.24 47.7168 60.06C48.3168 59.88 48.7668 59.55 49.0968 59.07C49.3968 58.62 49.6968 57.9 49.9968 56.88L50.3568 56.97L49.1868 63H37.3668V62.46C40.3968 59.34 42.5868 56.7 43.9368 54.54ZM51.1888 62.61C52.1188 62.61 52.8388 62.43 53.3488 62.04C53.8588 61.65 54.1288 60.96 54.1288 59.97V47.4C54.1288 46.77 53.9788 46.32 53.7388 46.02C53.4688 45.72 53.0188 45.57 52.4188 45.57H50.4988V45.15C52.0588 45.12 53.4688 44.79 54.6988 44.19C55.8988 43.59 56.6788 42.66 57.0388 41.4H57.5188V59.97C57.5188 60.96 57.7588 61.65 58.2688 62.04C58.7788 62.43 59.4988 62.61 60.4588 62.61V63H51.1888V62.61ZM67.0766 62.61C67.7366 62.61 68.2466 62.43 68.6066 62.01C68.9666 61.62 69.1766 60.93 69.1766 59.97V48.99H67.0766V48.57C67.7966 48.51 68.3366 48.3 68.6966 47.94C69.0566 47.61 69.3566 46.98 69.5666 46.08C69.9266 44.58 70.6166 43.32 71.6966 42.27C72.7466 41.22 74.0066 40.68 75.5066 40.68C76.2866 40.68 76.9766 40.86 77.6366 41.16C78.2666 41.49 78.7166 41.94 78.9566 42.54C79.0466 42.81 79.1066 43.08 79.1066 43.32C79.1066 43.68 78.9866 44.01 78.8066 44.28C78.6266 44.55 78.3266 44.73 77.9666 44.79C77.9066 44.82 77.7866 44.82 77.6666 44.82C77.1866 44.82 76.7666 44.64 76.4666 44.25C76.1666 43.89 76.0166 43.38 76.0166 42.75C75.9866 42.21 75.8966 41.82 75.7466 41.55C75.5666 41.31 75.3266 41.16 74.9666 41.16C74.4866 41.16 74.0366 41.43 73.6466 41.94C73.2566 42.45 72.9566 43.17 72.7466 44.07C72.5066 44.97 72.4166 45.99 72.4166 47.13V47.79H76.2266L75.7466 48.99H72.4166V59.97C72.4166 60.96 72.6266 61.65 73.0766 62.04C73.4966 62.43 74.1266 62.61 74.9366 62.61V63H67.0766V62.61ZM79.004 62.25C77.954 61.56 77.144 60.6 76.574 59.4C75.974 58.2 75.704 56.91 75.704 55.47C75.704 53.97 76.004 52.62 76.664 51.42C77.324 50.22 78.194 49.26 79.334 48.54C80.444 47.85 81.674 47.49 82.994 47.49C84.134 47.49 85.154 47.76 85.994 48.27C86.834 48.81 87.494 49.5 87.944 50.37C88.394 51.27 88.634 52.23 88.634 53.25H78.884C78.854 53.37 78.854 53.55 78.854 53.76C78.854 55.17 79.064 56.4 79.514 57.48C79.934 58.56 80.564 59.4 81.374 60C82.184 60.6 83.144 60.87 84.224 60.87C85.424 60.87 86.444 60.51 87.284 59.79C88.124 59.07 88.664 58.14 88.904 56.94L89.324 57C89.144 58.2 88.724 59.28 88.124 60.24C87.524 61.2 86.744 61.95 85.784 62.49C84.824 63.03 83.774 63.3 82.634 63.3C81.254 63.3 80.054 62.97 79.004 62.25ZM84.164 52.74C84.584 52.74 84.914 52.65 85.094 52.44C85.274 52.23 85.394 51.87 85.394 51.39C85.394 50.55 85.154 49.77 84.734 49.05C84.284 48.33 83.624 47.94 82.754 47.94C81.854 47.94 81.014 48.42 80.294 49.35C79.544 50.31 79.094 51.42 78.914 52.74H84.164ZM94.0851 62.76C92.9751 62.4 91.9851 61.92 91.0851 61.32V44.37C91.0851 43.65 90.9051 43.14 90.6051 42.84C90.3051 42.54 89.7951 42.39 89.1051 42.39V42C91.0251 41.88 92.6751 41.49 94.0551 40.83L94.3251 40.98V51.15C94.5951 50.22 95.1651 49.38 96.0351 48.66C96.8751 47.94 97.8951 47.55 99.0651 47.55C100.235 47.55 101.285 47.91 102.215 48.63C103.115 49.35 103.835 50.28 104.345 51.45C104.825 52.65 105.095 53.91 105.095 55.26C105.095 56.82 104.765 58.23 104.105 59.43C103.445 60.66 102.515 61.62 101.375 62.28C100.235 62.97 98.9451 63.3 97.5651 63.3C96.3651 63.3 95.1951 63.12 94.0851 62.76ZM95.1651 61.35C95.7351 62.37 96.6051 62.85 97.7451 62.85C98.9451 62.85 99.9351 62.25 100.655 61.02C101.375 59.82 101.735 58.23 101.735 56.28C101.735 54.84 101.525 53.58 101.165 52.5C100.805 51.45 100.295 50.64 99.6651 50.1C99.0051 49.56 98.2851 49.26 97.4751 49.26C96.6951 49.26 96.0351 49.56 95.4651 50.1C94.8651 50.64 94.5051 51.33 94.3251 52.17V56.61C94.3251 58.77 94.5951 60.33 95.1651 61.35ZM110.11 62.76C109 62.4 108.01 61.92 107.11 61.32V44.37C107.11 43.65 106.93 43.14 106.63 42.84C106.33 42.54 105.82 42.39 105.13 42.39V42C107.05 41.88 108.7 41.49 110.08 40.83L110.35 40.98V51.15C110.62 50.22 111.19 49.38 112.06 48.66C112.9 47.94 113.92 47.55 115.09 47.55C116.26 47.55 117.31 47.91 118.24 48.63C119.14 49.35 119.86 50.28 120.37 51.45C120.85 52.65 121.12 53.91 121.12 55.26C121.12 56.82 120.79 58.23 120.13 59.43C119.47 60.66 118.54 61.62 117.4 62.28C116.26 62.97 114.97 63.3 113.59 63.3C112.39 63.3 111.22 63.12 110.11 62.76ZM111.19 61.35C111.76 62.37 112.63 62.85 113.77 62.85C114.97 62.85 115.96 62.25 116.68 61.02C117.4 59.82 117.76 58.23 117.76 56.28C117.76 54.84 117.55 53.58 117.19 52.5C116.83 51.45 116.32 50.64 115.69 50.1C115.03 49.56 114.31 49.26 113.5 49.26C112.72 49.26 112.06 49.56 111.49 50.1C110.89 50.64 110.53 51.33 110.35 52.17V56.61C110.35 58.77 110.62 60.33 111.19 61.35ZM121.276 62.61C121.936 62.61 122.446 62.43 122.806 62.01C123.166 61.62 123.376 60.93 123.376 59.97V51.06C123.376 50.34 123.226 49.86 122.926 49.56C122.626 49.26 122.116 49.11 121.396 49.08V48.69C123.316 48.57 124.966 48.18 126.346 47.52L126.616 47.67V50.94C126.856 50.01 127.306 49.2 127.966 48.51C128.626 47.85 129.376 47.49 130.276 47.49C130.966 47.49 131.536 47.73 131.986 48.15C132.406 48.6 132.646 49.11 132.646 49.68C132.646 50.19 132.466 50.61 132.166 50.97C131.866 51.33 131.446 51.48 130.936 51.48C130.576 51.48 130.306 51.42 130.096 51.24C129.886 51.09 129.706 50.88 129.586 50.64C129.466 50.4 129.346 50.16 129.286 49.92C129.166 49.68 129.076 49.53 128.986 49.41C128.866 49.32 128.746 49.26 128.566 49.26C128.086 49.26 127.666 49.56 127.306 50.1C126.946 50.67 126.706 51.33 126.616 52.08V59.97C126.616 60.93 126.856 61.62 127.336 62.01C127.816 62.43 128.476 62.61 129.346 62.61V63H121.276V62.61ZM143 62.43C142.52 61.89 142.22 61.11 142.1 60.12L142.01 59.46C141.89 60.12 141.59 60.75 141.17 61.32C140.72 61.92 140.15 62.4 139.46 62.76C138.74 63.12 137.96 63.3 137.09 63.3C135.83 63.3 134.78 62.94 133.97 62.22C133.16 61.5 132.77 60.57 132.77 59.43C132.77 58.41 133.1 57.57 133.82 56.91C134.54 56.25 135.56 55.86 136.88 55.74L141.44 55.38L141.23 53.85C141.05 52.44 140.63 51.33 139.97 50.52C139.31 49.74 138.44 49.32 137.36 49.32C136.49 49.32 135.74 49.59 135.08 50.07C134.42 50.55 133.94 51.21 133.61 52.02L133.22 51.93C133.4 51.21 133.76 50.49 134.3 49.8C134.84 49.14 135.5 48.57 136.31 48.15C137.12 47.73 138.02 47.49 139.01 47.49C140.51 47.49 141.74 47.97 142.67 48.93C143.6 49.89 144.17 51.27 144.41 53.04L145.28 59.67C145.43 60.81 145.82 61.35 146.48 61.35C146.66 61.35 146.84 61.29 146.99 61.11C147.14 60.96 147.23 60.75 147.29 60.48L147.65 60.51C147.59 61.23 147.35 61.86 146.87 62.4C146.39 62.97 145.76 63.24 144.98 63.24C144.14 63.24 143.48 62.97 143 62.43ZM136.58 60.72C137.09 61.26 137.78 61.53 138.68 61.53C139.58 61.53 140.33 61.26 140.93 60.72C141.5 60.18 141.83 59.52 141.92 58.77L141.5 55.83L138.56 56.07C137.66 56.16 136.97 56.46 136.49 56.94C136.01 57.42 135.8 58.05 135.8 58.77C135.8 59.55 136.04 60.18 136.58 60.72ZM149.563 44.61C149.173 44.19 148.993 43.68 148.993 43.02C148.993 42.42 149.173 41.94 149.563 41.55C149.953 41.16 150.463 40.95 151.093 40.95C151.723 40.95 152.233 41.16 152.623 41.55C153.013 41.94 153.223 42.42 153.223 43.02C153.223 43.68 153.013 44.19 152.623 44.61C152.233 45.03 151.723 45.21 151.093 45.21C150.463 45.21 149.953 45.03 149.563 44.61ZM147.643 62.61C148.303 62.61 148.813 62.43 149.173 62.01C149.533 61.62 149.743 60.93 149.743 59.97V51.06C149.743 50.34 149.563 49.86 149.263 49.56C148.963 49.26 148.453 49.11 147.763 49.08V48.69C149.683 48.57 151.333 48.18 152.713 47.52L152.983 47.67V59.97C152.983 60.96 153.163 61.65 153.523 62.04C153.883 62.43 154.393 62.61 155.083 62.61V63H147.643V62.61ZM158.996 62.25C157.826 61.56 156.896 60.6 156.236 59.37C155.546 58.17 155.216 56.82 155.216 55.32C155.216 53.79 155.546 52.44 156.236 51.24C156.896 50.04 157.826 49.14 158.996 48.48C160.136 47.82 161.396 47.49 162.776 47.49C164.156 47.49 165.416 47.85 166.556 48.51C167.696 49.2 168.626 50.13 169.316 51.33C169.976 52.53 170.336 53.88 170.336 55.38C170.336 56.91 170.006 58.29 169.346 59.49C168.686 60.69 167.756 61.65 166.616 62.31C165.476 62.97 164.216 63.3 162.836 63.3C161.426 63.3 160.136 62.97 158.996 62.25ZM160.376 60.87C161.216 62.13 162.236 62.73 163.376 62.73C164.516 62.73 165.386 62.19 166.016 61.08C166.616 60 166.946 58.56 166.946 56.79C166.946 56.22 166.886 55.5 166.796 54.66C166.526 52.68 165.986 51.09 165.146 49.89C164.306 48.69 163.346 48.06 162.236 48.06C161.066 48.06 160.166 48.63 159.536 49.74C158.906 50.88 158.606 52.32 158.606 54.06C158.606 54.78 158.636 55.41 158.726 55.98C158.966 57.99 159.536 59.61 160.376 60.87ZM183.771 54.54C185.121 52.38 185.811 50.28 185.811 48.3C185.811 46.71 185.421 45.51 184.701 44.7C183.951 43.92 183.051 43.5 182.031 43.5C181.101 43.5 180.291 43.83 179.601 44.49C178.881 45.15 178.431 45.93 178.221 46.89L177.771 46.83C177.921 45.93 178.281 45.06 178.851 44.28C179.391 43.5 180.111 42.87 180.951 42.39C181.791 41.91 182.691 41.67 183.711 41.67C184.701 41.67 185.631 41.94 186.471 42.42C187.311 42.9 188.001 43.59 188.511 44.49C189.021 45.39 189.291 46.38 189.291 47.49C189.291 48.87 188.931 50.22 188.211 51.48C187.491 52.77 186.501 54.03 185.271 55.29C184.041 56.55 182.241 58.23 179.901 60.33H184.881C186.051 60.33 186.951 60.24 187.551 60.06C188.151 59.88 188.601 59.55 188.931 59.07C189.231 58.62 189.531 57.9 189.831 56.88L190.191 56.97L189.021 63H177.201V62.46C180.231 59.34 182.421 56.7 183.771 54.54ZM195.3 61.98C194.1 61.11 193.17 59.85 192.48 58.2C191.79 56.55 191.46 54.63 191.46 52.41C191.46 50.19 191.79 48.24 192.51 46.62C193.2 45 194.13 43.8 195.27 42.96C196.41 42.12 197.67 41.7 199.02 41.7C200.34 41.7 201.6 42.15 202.74 42.99C203.88 43.83 204.81 45.09 205.5 46.71C206.16 48.33 206.52 50.25 206.52 52.47C206.52 54.72 206.16 56.67 205.5 58.29C204.84 59.91 203.94 61.17 202.83 62.01C201.72 62.88 200.52 63.3 199.23 63.3C197.79 63.3 196.47 62.88 195.3 61.98ZM196.77 60.3C197.55 61.92 198.51 62.7 199.68 62.7C199.8 62.7 199.95 62.7 200.16 62.64C201.09 62.46 201.81 61.59 202.29 60C202.77 58.41 203.04 56.46 203.04 54.18C203.04 53.04 202.98 51.9 202.86 50.76C202.56 48.21 202.05 46.17 201.33 44.64C200.58 43.11 199.62 42.33 198.48 42.33C198.33 42.33 198.15 42.36 197.91 42.39C196.95 42.6 196.2 43.5 195.72 45.06C195.24 46.62 195 48.54 195 50.79C195 51.93 195.06 53.04 195.18 54.15C195.45 56.67 195.99 58.71 196.77 60.3ZM213.331 54.54C214.681 52.38 215.371 50.28 215.371 48.3C215.371 46.71 214.981 45.51 214.261 44.7C213.511 43.92 212.611 43.5 211.591 43.5C210.661 43.5 209.851 43.83 209.161 44.49C208.441 45.15 207.991 45.93 207.781 46.89L207.331 46.83C207.481 45.93 207.841 45.06 208.411 44.28C208.951 43.5 209.671 42.87 210.511 42.39C211.351 41.91 212.251 41.67 213.271 41.67C214.261 41.67 215.191 41.94 216.031 42.42C216.871 42.9 217.561 43.59 218.071 44.49C218.581 45.39 218.851 46.38 218.851 47.49C218.851 48.87 218.491 50.22 217.771 51.48C217.051 52.77 216.061 54.03 214.831 55.29C213.601 56.55 211.801 58.23 209.461 60.33H214.441C215.611 60.33 216.511 60.24 217.111 60.06C217.711 59.88 218.161 59.55 218.491 59.07C218.791 58.62 219.091 57.9 219.391 56.88L219.751 56.97L218.581 63H206.761V62.46C209.791 59.34 211.981 56.7 213.331 54.54ZM225.498 62.61C226.278 62.61 226.908 62.43 227.358 62.01C227.778 61.62 228.018 60.93 228.018 59.97V58.08H219.978V57.51L230.898 41.52H231.408V56.07H234.168V58.08H231.408V59.97C231.408 60.96 231.618 61.65 232.068 62.04C232.488 62.43 233.118 62.61 233.928 62.61V63H225.498V62.61ZM228.018 56.07V46.44L221.748 56.07H228.018ZM237.47 65.55C237.95 65.01 238.22 64.47 238.22 63.93C238.22 63.63 238.13 63.42 237.98 63.27C237.8 63.12 237.56 62.94 237.23 62.76C236.78 62.55 236.45 62.31 236.24 62.07C236 61.83 235.91 61.44 235.91 60.9C235.91 60.36 236.09 59.91 236.48 59.55C236.84 59.19 237.29 58.98 237.83 58.98C238.49 58.98 239 59.25 239.42 59.79C239.81 60.33 240.02 60.99 240.02 61.77C240.02 63.09 239.57 64.2 238.73 65.16C237.89 66.12 236.9 66.81 235.82 67.17L235.67 66.78C236.36 66.51 236.96 66.09 237.47 65.55ZM251.427 62.25C250.257 61.56 249.327 60.6 248.667 59.37C247.977 58.17 247.647 56.82 247.647 55.32C247.647 53.79 247.977 52.44 248.667 51.24C249.327 50.04 250.257 49.14 251.427 48.48C252.567 47.82 253.827 47.49 255.207 47.49C256.587 47.49 257.847 47.85 258.987 48.51C260.127 49.2 261.057 50.13 261.747 51.33C262.407 52.53 262.767 53.88 262.767 55.38C262.767 56.91 262.437 58.29 261.777 59.49C261.117 60.69 260.187 61.65 259.047 62.31C257.907 62.97 256.647 63.3 255.267 63.3C253.857 63.3 252.567 62.97 251.427 62.25ZM252.807 60.87C253.647 62.13 254.667 62.73 255.807 62.73C256.947 62.73 257.817 62.19 258.447 61.08C259.047 60 259.377 58.56 259.377 56.79C259.377 56.22 259.317 55.5 259.227 54.66C258.957 52.68 258.417 51.09 257.577 49.89C256.737 48.69 255.777 48.06 254.667 48.06C253.497 48.06 252.597 48.63 251.967 49.74C251.337 50.88 251.037 52.32 251.037 54.06C251.037 54.78 251.067 55.41 251.157 55.98C251.397 57.99 251.967 59.61 252.807 60.87ZM262.809 62.61C263.469 62.61 263.979 62.43 264.339 62.01C264.699 61.62 264.909 60.93 264.909 59.97V51.06C264.909 50.34 264.759 49.86 264.459 49.56C264.159 49.26 263.649 49.11 262.929 49.08V48.69C264.849 48.57 266.499 48.18 267.879 47.52L268.149 47.67V50.94C268.389 50.01 268.839 49.2 269.499 48.51C270.159 47.85 270.909 47.49 271.809 47.49C272.499 47.49 273.069 47.73 273.519 48.15C273.939 48.6 274.179 49.11 274.179 49.68C274.179 50.19 273.999 50.61 273.699 50.97C273.399 51.33 272.979 51.48 272.469 51.48C272.109 51.48 271.839 51.42 271.629 51.24C271.419 51.09 271.239 50.88 271.119 50.64C270.999 50.4 270.879 50.16 270.819 49.92C270.699 49.68 270.609 49.53 270.519 49.41C270.399 49.32 270.279 49.26 270.099 49.26C269.619 49.26 269.199 49.56 268.839 50.1C268.479 50.67 268.239 51.33 268.149 52.08V59.97C268.149 60.93 268.389 61.62 268.869 62.01C269.349 62.43 270.009 62.61 270.879 62.61V63H262.809V62.61ZM277.432 62.25C276.382 61.56 275.572 60.6 275.002 59.4C274.402 58.2 274.132 56.91 274.132 55.47C274.132 53.97 274.432 52.62 275.092 51.42C275.752 50.22 276.622 49.26 277.762 48.54C278.872 47.85 280.102 47.49 281.422 47.49C282.562 47.49 283.582 47.76 284.422 48.27C285.262 48.81 285.922 49.5 286.372 50.37C286.822 51.27 287.062 52.23 287.062 53.25H277.312C277.282 53.37 277.282 53.55 277.282 53.76C277.282 55.17 277.492 56.4 277.942 57.48C278.362 58.56 278.992 59.4 279.802 60C280.612 60.6 281.572 60.87 282.652 60.87C283.852 60.87 284.872 60.51 285.712 59.79C286.552 59.07 287.092 58.14 287.332 56.94L287.752 57C287.572 58.2 287.152 59.28 286.552 60.24C285.952 61.2 285.172 61.95 284.212 62.49C283.252 63.03 282.202 63.3 281.062 63.3C279.682 63.3 278.482 62.97 277.432 62.25ZM282.592 52.74C283.012 52.74 283.342 52.65 283.522 52.44C283.702 52.23 283.822 51.87 283.822 51.39C283.822 50.55 283.582 49.77 283.162 49.05C282.712 48.33 282.052 47.94 281.182 47.94C280.282 47.94 279.442 48.42 278.722 49.35C277.972 50.31 277.522 51.42 277.342 52.74H282.592ZM295.261 62.61C296.191 62.61 296.911 62.43 297.421 62.04C297.931 61.65 298.201 60.96 298.201 59.97V47.4C298.201 46.77 298.051 46.32 297.811 46.02C297.541 45.72 297.091 45.57 296.491 45.57H294.571V45.15C296.131 45.12 297.541 44.79 298.771 44.19C299.971 43.59 300.751 42.66 301.111 41.4H301.591V59.97C301.591 60.96 301.831 61.65 302.341 62.04C302.851 62.43 303.571 62.61 304.531 62.61V63H295.261V62.61ZM307.684 62.58C306.694 62.1 305.944 61.44 305.404 60.63C304.864 59.85 304.594 58.98 304.594 58.05C304.594 56.79 305.014 55.68 305.914 54.78C306.784 53.88 307.924 53.16 309.334 52.68C308.014 51.96 307.024 51.15 306.394 50.25C305.734 49.38 305.434 48.39 305.434 47.25C305.434 46.32 305.674 45.42 306.184 44.58C306.694 43.74 307.414 43.05 308.344 42.51C309.244 41.97 310.294 41.7 311.464 41.7C312.514 41.7 313.474 41.94 314.374 42.36C315.274 42.81 315.964 43.41 316.504 44.16C317.014 44.91 317.284 45.72 317.284 46.59C317.284 47.79 316.894 48.75 316.114 49.53C315.334 50.31 314.374 50.85 313.174 51.15L313.774 51.48C315.244 52.32 316.354 53.22 317.104 54.18C317.824 55.14 318.214 56.22 318.214 57.36C318.214 58.44 317.884 59.46 317.254 60.36C316.624 61.26 315.754 61.98 314.674 62.52C313.594 63.06 312.394 63.3 311.134 63.3C309.814 63.3 308.674 63.06 307.684 62.58ZM308.314 59.94C308.674 60.78 309.154 61.47 309.814 61.98C310.444 62.49 311.164 62.73 311.944 62.73C312.904 62.73 313.684 62.37 314.284 61.62C314.884 60.9 315.214 60 315.214 58.92C315.214 57.87 314.914 56.97 314.374 56.19C313.834 55.44 313.054 54.78 312.034 54.18L309.994 53.07C309.304 53.58 308.764 54.15 308.374 54.81C307.954 55.47 307.774 56.28 307.774 57.27C307.774 58.23 307.954 59.1 308.314 59.94ZM309.184 48.36C309.724 49.05 310.534 49.71 311.674 50.31L312.514 50.79C313.114 50.37 313.594 49.8 313.894 49.14C314.194 48.48 314.344 47.76 314.344 46.95C314.344 46.08 314.194 45.27 313.924 44.55C313.624 43.83 313.264 43.26 312.784 42.84C312.304 42.42 311.764 42.21 311.194 42.21C310.354 42.21 309.694 42.57 309.184 43.26C308.644 43.98 308.404 44.79 308.404 45.75C308.404 46.8 308.644 47.67 309.184 48.36ZM320.318 62.64C319.928 62.22 319.748 61.71 319.748 61.05C319.748 60.45 319.928 59.97 320.318 59.55C320.708 59.16 321.218 58.95 321.848 58.95C322.448 58.95 322.958 59.16 323.348 59.55C323.738 59.97 323.948 60.45 323.948 61.05C323.948 61.71 323.738 62.22 323.348 62.64C322.958 63.06 322.448 63.24 321.848 63.24C321.218 63.24 320.708 63.06 320.318 62.64ZM320.318 52.98C319.928 52.56 319.748 52.05 319.748 51.39C319.748 50.79 319.928 50.31 320.318 49.89C320.708 49.5 321.218 49.29 321.848 49.29C322.448 49.29 322.958 49.5 323.348 49.89C323.738 50.31 323.948 50.79 323.948 51.39C323.948 52.05 323.738 52.56 323.348 52.98C322.958 53.4 322.448 53.58 321.848 53.58C321.218 53.58 320.708 53.4 320.318 52.98ZM327.652 62.67C326.782 62.31 326.092 61.77 325.582 61.08C325.042 60.42 324.802 59.64 324.802 58.8C324.802 58.26 324.952 57.81 325.312 57.45C325.642 57.09 326.062 56.91 326.542 56.91C326.962 56.91 327.322 57.09 327.622 57.39C327.892 57.72 328.042 58.08 328.042 58.5C328.042 58.83 327.922 59.22 327.742 59.64C327.502 60.06 327.412 60.42 327.412 60.78C327.412 61.35 327.652 61.8 328.132 62.16C328.612 62.52 329.212 62.67 329.932 62.67C330.652 62.67 331.312 62.43 331.912 61.89C332.512 61.38 332.962 60.72 333.322 59.88C333.652 59.04 333.832 58.17 333.832 57.24C333.832 55.62 333.352 54.3 332.422 53.28C331.492 52.26 330.262 51.72 328.732 51.72V51.3C329.992 51.18 330.982 50.76 331.762 50.04C332.512 49.32 332.902 48.36 332.902 47.13C332.902 45.93 332.572 45 331.912 44.34C331.252 43.68 330.472 43.35 329.542 43.35C328.822 43.35 328.132 43.59 327.502 44.07C326.842 44.55 326.362 45.27 326.062 46.2L325.612 46.08C325.912 44.79 326.572 43.71 327.562 42.87C328.552 42.03 329.752 41.58 331.162 41.58C331.972 41.58 332.752 41.79 333.472 42.15C334.192 42.51 334.792 43.05 335.242 43.74C335.692 44.43 335.932 45.24 335.932 46.14C335.932 46.86 335.752 47.52 335.422 48.18C335.062 48.84 334.612 49.38 334.012 49.8C333.412 50.22 332.752 50.49 332.062 50.55C333.052 50.67 333.952 51 334.792 51.54C335.602 52.08 336.232 52.8 336.712 53.67C337.192 54.57 337.432 55.56 337.432 56.64C337.432 57.96 337.102 59.1 336.442 60.09C335.782 61.11 334.882 61.86 333.802 62.4C332.722 62.94 331.582 63.21 330.382 63.21C329.422 63.21 328.492 63.03 327.652 62.67ZM342.722 61.98C341.522 61.11 340.592 59.85 339.902 58.2C339.212 56.55 338.882 54.63 338.882 52.41C338.882 50.19 339.212 48.24 339.932 46.62C340.622 45 341.552 43.8 342.692 42.96C343.832 42.12 345.092 41.7 346.442 41.7C347.762 41.7 349.022 42.15 350.162 42.99C351.302 43.83 352.232 45.09 352.922 46.71C353.582 48.33 353.942 50.25 353.942 52.47C353.942 54.72 353.582 56.67 352.922 58.29C352.262 59.91 351.362 61.17 350.252 62.01C349.142 62.88 347.942 63.3 346.652 63.3C345.212 63.3 343.892 62.88 342.722 61.98ZM344.192 60.3C344.972 61.92 345.932 62.7 347.102 62.7C347.222 62.7 347.372 62.7 347.582 62.64C348.512 62.46 349.232 61.59 349.712 60C350.192 58.41 350.462 56.46 350.462 54.18C350.462 53.04 350.402 51.9 350.282 50.76C349.982 48.21 349.472 46.17 348.752 44.64C348.002 43.11 347.042 42.33 345.902 42.33C345.752 42.33 345.572 42.36 345.332 42.39C344.372 42.6 343.622 43.5 343.142 45.06C342.662 46.62 342.422 48.54 342.422 50.79C342.422 51.93 342.482 53.04 342.602 54.15C342.872 56.67 343.412 58.71 344.192 60.3Z" fill="black"/>
</svg>
