<svg viewBox="0 0 218 40" fill="none" xmlns="http://www.w3.org/2000/svg">
<path d="M34.2127 13.766C34.6087 13.766 34.9147 13.658 35.1307 13.406C35.3467 13.172 35.4727 12.758 35.4727 12.182V3.218C35.4727 2.642 35.3467 2.246 35.1307 1.994C34.9147 1.76 34.6087 1.634 34.2127 1.634V1.4H43.0687L43.5907 5.126L43.3567 5.18C42.9607 2.876 41.8447 1.706 40.0087 1.706H37.5247V7.484H39.5227C40.1167 7.484 40.5487 7.34 40.8187 7.016C41.0887 6.71 41.2327 6.17 41.2327 5.396H41.4847V9.914H41.2327C41.2327 9.158 41.0887 8.6 40.8187 8.276C40.5307 7.952 40.0987 7.79 39.5047 7.79H37.5247V12.722C37.5247 13.082 37.5787 13.334 37.7227 13.478C37.8487 13.622 38.1007 13.694 38.4787 13.694H40.2967C41.3047 13.694 42.0967 13.424 42.6727 12.848C43.2487 12.29 43.6987 11.462 44.0227 10.364L44.2207 10.418L43.5187 14H34.2127V13.766ZM49.2299 13.766C49.4819 13.766 49.6799 13.73 49.8419 13.622C50.0039 13.532 50.0939 13.388 50.0939 13.172C50.0939 12.956 49.9859 12.686 49.7879 12.362L48.2939 10.004L47.4119 11.39C47.0519 11.984 46.8719 12.47 46.8719 12.866C46.8719 13.154 46.9619 13.388 47.1419 13.532C47.3219 13.694 47.5739 13.766 47.9159 13.766V14H44.0279V13.766C44.4779 13.766 44.9639 13.568 45.5039 13.136C46.0439 12.722 46.5299 12.146 46.9979 11.426L48.0959 9.698L46.0799 6.512C45.7379 5.99 45.4319 5.63 45.1619 5.414C44.8739 5.216 44.5499 5.108 44.1899 5.108V4.874H48.8879V5.108C48.6359 5.108 48.4199 5.162 48.2579 5.252C48.0779 5.36 48.0059 5.504 48.0059 5.702C48.0059 5.918 48.0959 6.188 48.3119 6.512L49.5899 8.546L50.2739 7.34C50.6159 6.764 50.7959 6.278 50.7959 5.882C50.7959 5.378 50.4719 5.108 49.8239 5.108V4.874H53.6219V5.108C53.1539 5.108 52.6499 5.306 52.1099 5.702C51.5519 6.098 51.0659 6.656 50.6699 7.34L49.7879 8.852L52.0199 12.362C52.3439 12.902 52.6499 13.262 52.9379 13.46C53.2259 13.676 53.5859 13.766 53.9819 13.766V14H49.2299V13.766ZM59.9795 13.766C60.4115 13.766 60.7355 13.676 60.9875 13.496C61.2215 13.316 61.3475 13.01 61.3475 12.56C61.3475 12.416 61.3295 12.29 61.3295 12.2L60.7715 8.078C60.5555 6.548 59.9255 5.774 58.8995 5.774C58.4315 5.774 58.0355 5.972 57.7115 6.35C57.3875 6.746 57.1895 7.196 57.1355 7.736V12.182C57.1355 12.776 57.2435 13.19 57.4595 13.424C57.6755 13.658 57.9815 13.766 58.3955 13.766V14H53.9315V13.766C54.3275 13.766 54.6335 13.658 54.8495 13.406C55.0655 13.172 55.1915 12.758 55.1915 12.182V2.822C55.1915 2.39 55.0835 2.084 54.9035 1.904C54.7235 1.724 54.4175 1.634 54.0035 1.634V1.4C55.1555 1.328 56.1455 1.094 56.9735 0.698L57.1355 0.788V6.962C57.2975 6.314 57.6215 5.774 58.1075 5.342C58.5935 4.91 59.1695 4.694 59.8535 4.694C60.6275 4.694 61.2575 4.982 61.7615 5.522C62.2475 6.062 62.5715 6.908 62.7335 8.024L63.3455 12.2C63.4175 12.776 63.5615 13.19 63.8135 13.424C64.0475 13.658 64.3715 13.766 64.7675 13.766V14H59.9795V13.766ZM65.9468 2.966C65.7128 2.714 65.6048 2.408 65.6048 2.012C65.6048 1.652 65.7128 1.364 65.9468 1.13C66.1808 0.895999 66.4868 0.77 66.8648 0.77C67.2428 0.77 67.5488 0.895999 67.7828 1.13C68.0168 1.364 68.1428 1.652 68.1428 2.012C68.1428 2.408 68.0168 2.714 67.7828 2.966C67.5488 3.218 67.2428 3.326 66.8648 3.326C66.4868 3.326 66.1808 3.218 65.9468 2.966ZM64.7948 13.766C65.1908 13.766 65.4968 13.658 65.7128 13.406C65.9288 13.172 66.0548 12.758 66.0548 12.182V6.836C66.0548 6.404 65.9468 6.116 65.7668 5.936C65.5868 5.756 65.2808 5.666 64.8668 5.648V5.414C66.0188 5.342 67.0088 5.108 67.8368 4.712L67.9988 4.802V12.182C67.9988 12.776 68.1068 13.19 68.3228 13.424C68.5388 13.658 68.8448 13.766 69.2588 13.766V14H64.7948V13.766ZM71.9823 13.856C71.3163 13.64 70.7223 13.352 70.1823 12.992V2.822C70.1823 2.39 70.0743 2.084 69.8943 1.904C69.7143 1.724 69.4083 1.634 68.9943 1.634V1.4C70.1463 1.328 71.1363 1.094 71.9643 0.698L72.1263 0.788V6.89C72.2883 6.332 72.6303 5.828 73.1523 5.396C73.6563 4.964 74.2683 4.73 74.9703 4.73C75.6723 4.73 76.3023 4.946 76.8603 5.378C77.4003 5.81 77.8323 6.368 78.1383 7.07C78.4263 7.79 78.5883 8.546 78.5883 9.356C78.5883 10.292 78.3903 11.138 77.9943 11.858C77.5983 12.596 77.0403 13.172 76.3563 13.568C75.6723 13.982 74.8983 14.18 74.0703 14.18C73.3503 14.18 72.6483 14.072 71.9823 13.856ZM72.6303 13.01C72.9723 13.622 73.4943 13.91 74.1783 13.91C74.8983 13.91 75.4923 13.55 75.9243 12.812C76.3563 12.092 76.5723 11.138 76.5723 9.968C76.5723 9.104 76.4463 8.348 76.2303 7.7C76.0143 7.07 75.7083 6.584 75.3303 6.26C74.9343 5.936 74.5023 5.756 74.0163 5.756C73.5483 5.756 73.1523 5.936 72.8103 6.26C72.4503 6.584 72.2343 6.998 72.1263 7.502V10.166C72.1263 11.462 72.2883 12.398 72.6303 13.01ZM79.8335 2.966C79.5995 2.714 79.4915 2.408 79.4915 2.012C79.4915 1.652 79.5995 1.364 79.8335 1.13C80.0675 0.895999 80.3735 0.77 80.7515 0.77C81.1295 0.77 81.4355 0.895999 81.6695 1.13C81.9035 1.364 82.0295 1.652 82.0295 2.012C82.0295 2.408 81.9035 2.714 81.6695 2.966C81.4355 3.218 81.1295 3.326 80.7515 3.326C80.3735 3.326 80.0675 3.218 79.8335 2.966ZM78.6815 13.766C79.0775 13.766 79.3835 13.658 79.5995 13.406C79.8155 13.172 79.9415 12.758 79.9415 12.182V6.836C79.9415 6.404 79.8335 6.116 79.6535 5.936C79.4735 5.756 79.1675 5.666 78.7535 5.648V5.414C79.9055 5.342 80.8955 5.108 81.7235 4.712L81.8855 4.802V12.182C81.8855 12.776 81.9935 13.19 82.2095 13.424C82.4255 13.658 82.7315 13.766 83.1455 13.766V14H78.6815V13.766ZM84.7719 13.352C84.3399 12.794 84.1239 12.074 84.1239 11.174V5.594H82.9899V5.342C83.7279 5.27 84.3579 5.018 84.8619 4.55C85.3659 4.082 85.6899 3.452 85.8339 2.642H86.0859V4.874H88.7679L88.4619 5.594H86.0859V10.976C86.0859 11.588 86.2119 12.092 86.4639 12.47C86.7159 12.866 87.0759 13.046 87.5259 13.046C87.8859 13.046 88.1739 12.938 88.4079 12.686C88.6419 12.434 88.8039 12.128 88.8939 11.75L89.1099 11.786C89.0199 12.47 88.7499 13.028 88.3179 13.496C87.8679 13.964 87.3279 14.18 86.7159 14.18C85.8519 14.18 85.2039 13.91 84.7719 13.352ZM90.2398 2.966C90.0058 2.714 89.8978 2.408 89.8978 2.012C89.8978 1.652 90.0058 1.364 90.2398 1.13C90.4738 0.895999 90.7798 0.77 91.1578 0.77C91.5358 0.77 91.8418 0.895999 92.0758 1.13C92.3098 1.364 92.4358 1.652 92.4358 2.012C92.4358 2.408 92.3098 2.714 92.0758 2.966C91.8418 3.218 91.5358 3.326 91.1578 3.326C90.7798 3.326 90.4738 3.218 90.2398 2.966ZM89.0878 13.766C89.4838 13.766 89.7898 13.658 90.0058 13.406C90.2218 13.172 90.3478 12.758 90.3478 12.182V6.836C90.3478 6.404 90.2398 6.116 90.0598 5.936C89.8798 5.756 89.5738 5.666 89.1598 5.648V5.414C90.3118 5.342 91.3018 5.108 92.1298 4.712L92.2918 4.802V12.182C92.2918 12.776 92.3998 13.19 92.6158 13.424C92.8318 13.658 93.1378 13.766 93.5518 13.766V14H89.0878V13.766ZM95.8994 13.55C95.1974 13.136 94.6394 12.56 94.2434 11.822C93.8294 11.102 93.6314 10.292 93.6314 9.392C93.6314 8.474 93.8294 7.664 94.2434 6.944C94.6394 6.224 95.1974 5.684 95.8994 5.288C96.5834 4.892 97.3394 4.694 98.1674 4.694C98.9954 4.694 99.7514 4.91 100.435 5.306C101.119 5.72 101.677 6.278 102.091 6.998C102.487 7.718 102.703 8.528 102.703 9.428C102.703 10.346 102.505 11.174 102.109 11.894C101.713 12.614 101.155 13.19 100.471 13.586C99.7874 13.982 99.0314 14.18 98.2034 14.18C97.3574 14.18 96.5834 13.982 95.8994 13.55ZM96.7274 12.722C97.2314 13.478 97.8434 13.838 98.5274 13.838C99.2114 13.838 99.7334 13.514 100.111 12.848C100.471 12.2 100.669 11.336 100.669 10.274C100.669 9.932 100.633 9.5 100.579 8.996C100.417 7.808 100.093 6.854 99.5894 6.134C99.0854 5.414 98.5094 5.036 97.8434 5.036C97.1414 5.036 96.6014 5.378 96.2234 6.044C95.8454 6.728 95.6654 7.592 95.6654 8.636C95.6654 9.068 95.6834 9.446 95.7374 9.788C95.8814 10.994 96.2234 11.966 96.7274 12.722ZM108.83 13.766C109.226 13.766 109.55 13.676 109.784 13.496C110.018 13.316 110.144 13.01 110.144 12.56C110.144 12.416 110.126 12.29 110.126 12.2L109.568 8.078C109.352 6.548 108.722 5.774 107.696 5.774C107.228 5.774 106.814 5.972 106.49 6.35C106.166 6.746 105.968 7.196 105.932 7.736V12.182C105.932 12.776 106.04 13.19 106.256 13.424C106.472 13.658 106.778 13.766 107.192 13.766V14H102.728V13.766C103.124 13.766 103.43 13.658 103.646 13.406C103.862 13.172 103.988 12.758 103.988 12.182V6.836C103.988 6.404 103.88 6.116 103.7 5.936C103.52 5.756 103.214 5.666 102.8 5.648V5.414C103.952 5.342 104.942 5.108 105.77 4.712L105.932 4.802V6.962C106.094 6.314 106.418 5.774 106.904 5.342C107.39 4.91 107.966 4.694 108.65 4.694C109.424 4.694 110.054 4.982 110.558 5.522C111.044 6.062 111.368 6.908 111.53 8.024L112.142 12.2C112.214 12.776 112.358 13.19 112.592 13.424C112.808 13.658 113.114 13.766 113.51 13.766V14H108.83V13.766ZM119.788 13.55C119.086 13.136 118.528 12.56 118.132 11.822C117.718 11.102 117.52 10.292 117.52 9.392C117.52 8.474 117.718 7.664 118.132 6.944C118.528 6.224 119.086 5.684 119.788 5.288C120.472 4.892 121.228 4.694 122.056 4.694C122.884 4.694 123.64 4.91 124.324 5.306C125.008 5.72 125.566 6.278 125.98 6.998C126.376 7.718 126.592 8.528 126.592 9.428C126.592 10.346 126.394 11.174 125.998 11.894C125.602 12.614 125.044 13.19 124.36 13.586C123.676 13.982 122.92 14.18 122.092 14.18C121.246 14.18 120.472 13.982 119.788 13.55ZM120.616 12.722C121.12 13.478 121.732 13.838 122.416 13.838C123.1 13.838 123.622 13.514 124 12.848C124.36 12.2 124.558 11.336 124.558 10.274C124.558 9.932 124.522 9.5 124.468 8.996C124.306 7.808 123.982 6.854 123.478 6.134C122.974 5.414 122.398 5.036 121.732 5.036C121.03 5.036 120.49 5.378 120.112 6.044C119.734 6.728 119.554 7.592 119.554 8.636C119.554 9.068 119.572 9.446 119.626 9.788C119.77 10.994 120.112 11.966 120.616 12.722ZM126.562 17.366C126.958 17.366 127.264 17.258 127.48 17.006C127.696 16.772 127.822 16.358 127.822 15.782V6.836C127.822 6.404 127.714 6.116 127.534 5.936C127.354 5.756 127.048 5.666 126.634 5.648V5.414C127.786 5.342 128.776 5.108 129.604 4.712L129.766 4.802V6.674C129.928 6.206 130.27 5.756 130.792 5.342C131.314 4.946 131.944 4.73 132.664 4.73C133.348 4.73 133.978 4.946 134.536 5.342C135.094 5.756 135.526 6.314 135.85 7.016C136.174 7.736 136.336 8.51 136.336 9.374C136.336 10.256 136.138 11.066 135.778 11.804C135.4 12.542 134.896 13.118 134.248 13.55C133.6 13.982 132.88 14.18 132.124 14.18C131.17 14.18 130.378 13.838 129.766 13.118V15.782C129.766 16.376 129.892 16.79 130.162 17.024C130.414 17.258 130.792 17.366 131.278 17.366V17.6H126.562V17.366ZM130.36 12.848C130.756 13.514 131.296 13.838 131.98 13.838C132.412 13.838 132.808 13.694 133.168 13.37C133.528 13.046 133.798 12.596 133.996 12.02C134.194 11.444 134.302 10.796 134.302 10.04C134.302 9.14 134.176 8.366 133.942 7.718C133.708 7.07 133.384 6.584 132.988 6.242C132.592 5.918 132.142 5.738 131.656 5.738C131.188 5.738 130.81 5.882 130.486 6.17C130.162 6.458 129.91 6.818 129.766 7.25V10.364C129.766 11.372 129.964 12.2 130.36 12.848ZM139.311 13.55C138.681 13.136 138.195 12.56 137.853 11.84C137.493 11.12 137.331 10.346 137.331 9.482C137.331 8.582 137.511 7.772 137.907 7.052C138.303 6.332 138.825 5.756 139.509 5.324C140.175 4.91 140.913 4.694 141.705 4.694C142.389 4.694 143.001 4.856 143.505 5.162C144.009 5.486 144.405 5.9 144.675 6.422C144.945 6.962 145.089 7.538 145.089 8.15H139.239C139.221 8.222 139.221 8.33 139.221 8.456C139.221 9.302 139.347 10.04 139.617 10.688C139.869 11.336 140.247 11.84 140.733 12.2C141.219 12.56 141.795 12.722 142.443 12.722C143.163 12.722 143.775 12.506 144.279 12.074C144.783 11.642 145.107 11.084 145.251 10.364L145.503 10.4C145.395 11.12 145.143 11.768 144.783 12.344C144.423 12.92 143.955 13.37 143.379 13.694C142.803 14.018 142.173 14.18 141.489 14.18C140.661 14.18 139.941 13.982 139.311 13.55ZM142.407 7.844C142.659 7.844 142.857 7.79 142.965 7.664C143.073 7.538 143.145 7.322 143.145 7.034C143.145 6.53 143.001 6.062 142.749 5.63C142.479 5.198 142.083 4.964 141.561 4.964C141.021 4.964 140.517 5.252 140.085 5.81C139.635 6.386 139.365 7.052 139.257 7.844H142.407ZM151.528 13.766C151.924 13.766 152.248 13.676 152.482 13.496C152.716 13.316 152.842 13.01 152.842 12.56C152.842 12.416 152.824 12.29 152.824 12.2L152.266 8.078C152.05 6.548 151.42 5.774 150.394 5.774C149.926 5.774 149.512 5.972 149.188 6.35C148.864 6.746 148.666 7.196 148.63 7.736V12.182C148.63 12.776 148.738 13.19 148.954 13.424C149.17 13.658 149.476 13.766 149.89 13.766V14H145.426V13.766C145.822 13.766 146.128 13.658 146.344 13.406C146.56 13.172 146.686 12.758 146.686 12.182V6.836C146.686 6.404 146.578 6.116 146.398 5.936C146.218 5.756 145.912 5.666 145.498 5.648V5.414C146.65 5.342 147.64 5.108 148.468 4.712L148.63 4.802V6.962C148.792 6.314 149.116 5.774 149.602 5.342C150.088 4.91 150.664 4.694 151.348 4.694C152.122 4.694 152.752 4.982 153.256 5.522C153.742 6.062 154.066 6.908 154.228 8.024L154.84 12.2C154.912 12.776 155.056 13.19 155.29 13.424C155.506 13.658 155.812 13.766 156.208 13.766V14H151.528V13.766ZM157.388 2.966C157.154 2.714 157.046 2.408 157.046 2.012C157.046 1.652 157.154 1.364 157.388 1.13C157.622 0.895999 157.928 0.77 158.306 0.77C158.684 0.77 158.99 0.895999 159.224 1.13C159.458 1.364 159.584 1.652 159.584 2.012C159.584 2.408 159.458 2.714 159.224 2.966C158.99 3.218 158.684 3.326 158.306 3.326C157.928 3.326 157.622 3.218 157.388 2.966ZM156.236 13.766C156.632 13.766 156.938 13.658 157.154 13.406C157.37 13.172 157.496 12.758 157.496 12.182V6.836C157.496 6.404 157.388 6.116 157.208 5.936C157.028 5.756 156.722 5.666 156.308 5.648V5.414C157.46 5.342 158.45 5.108 159.278 4.712L159.44 4.802V12.182C159.44 12.776 159.548 13.19 159.764 13.424C159.98 13.658 160.286 13.766 160.7 13.766V14H156.236V13.766ZM166.961 13.766C167.357 13.766 167.681 13.676 167.915 13.496C168.149 13.316 168.275 13.01 168.275 12.56C168.275 12.416 168.257 12.29 168.257 12.2L167.699 8.078C167.483 6.548 166.853 5.774 165.827 5.774C165.359 5.774 164.945 5.972 164.621 6.35C164.297 6.746 164.099 7.196 164.063 7.736V12.182C164.063 12.776 164.171 13.19 164.387 13.424C164.603 13.658 164.909 13.766 165.323 13.766V14H160.859V13.766C161.255 13.766 161.561 13.658 161.777 13.406C161.993 13.172 162.119 12.758 162.119 12.182V6.836C162.119 6.404 162.011 6.116 161.831 5.936C161.651 5.756 161.345 5.666 160.931 5.648V5.414C162.083 5.342 163.073 5.108 163.901 4.712L164.063 4.802V6.962C164.225 6.314 164.549 5.774 165.035 5.342C165.521 4.91 166.097 4.694 166.781 4.694C167.555 4.694 168.185 4.982 168.689 5.522C169.175 6.062 169.499 6.908 169.661 8.024L170.273 12.2C170.345 12.776 170.489 13.19 170.723 13.424C170.939 13.658 171.245 13.766 171.641 13.766V14H166.961V13.766ZM173.258 17.42C172.736 17.204 172.34 16.916 172.07 16.556C171.8 16.214 171.674 15.854 171.674 15.476C171.674 15.224 171.836 14.972 172.16 14.72C172.484 14.486 172.934 14.234 173.51 13.982C173.024 13.874 172.646 13.676 172.376 13.352C172.106 13.028 171.98 12.668 171.98 12.254C171.98 12.11 171.998 11.984 172.07 11.912C172.124 11.84 172.268 11.714 172.502 11.552L172.934 11.246L173.672 10.688C173.096 10.436 172.646 10.058 172.322 9.572C171.998 9.104 171.836 8.546 171.836 7.916C171.836 7.286 171.998 6.728 172.322 6.224C172.646 5.72 173.114 5.342 173.708 5.054C174.284 4.784 174.968 4.64 175.724 4.64C175.958 4.64 176.3 4.676 176.768 4.748C177.38 4.838 177.884 4.874 178.316 4.874H180.188L179.882 5.594L178.136 5.558C178.568 5.864 178.892 6.224 179.126 6.638C179.342 7.07 179.468 7.502 179.468 7.97C179.468 8.582 179.306 9.14 178.982 9.608C178.658 10.076 178.226 10.454 177.65 10.706C177.074 10.976 176.426 11.102 175.67 11.102C175.004 11.102 174.41 10.994 173.888 10.778C173.636 10.994 173.456 11.174 173.384 11.282C173.294 11.39 173.258 11.498 173.258 11.57C173.258 12.056 173.618 12.29 174.338 12.29H177.722C178.442 12.29 179 12.416 179.414 12.668C179.828 12.92 180.044 13.352 180.044 13.964C180.044 14.576 179.81 15.17 179.378 15.746C178.946 16.34 178.334 16.826 177.578 17.204C176.822 17.582 175.976 17.762 175.058 17.762C174.374 17.762 173.762 17.654 173.258 17.42ZM174.122 16.304C174.626 16.628 175.292 16.79 176.12 16.79C176.768 16.79 177.326 16.7 177.83 16.502C178.316 16.322 178.694 16.07 178.964 15.782C179.234 15.494 179.378 15.188 179.378 14.882C179.378 14.63 179.27 14.414 179.054 14.27C178.838 14.126 178.532 14.036 178.118 14.036H174.122H173.906C173.69 14.216 173.51 14.396 173.402 14.558C173.294 14.72 173.24 14.918 173.258 15.134C173.312 15.602 173.6 15.98 174.122 16.304ZM174.302 9.914C174.716 10.508 175.256 10.796 175.904 10.796C176.426 10.796 176.84 10.562 177.164 10.058C177.47 9.554 177.632 8.942 177.632 8.204C177.632 7.628 177.524 7.106 177.344 6.602C177.164 6.098 176.894 5.702 176.57 5.396C176.246 5.108 175.868 4.946 175.472 4.946C174.896 4.946 174.464 5.216 174.158 5.756C173.834 6.296 173.69 6.908 173.69 7.628C173.69 8.564 173.888 9.338 174.302 9.914ZM181.39 13.784C181.156 13.532 181.048 13.226 181.048 12.83C181.048 12.47 181.156 12.182 181.39 11.93C181.624 11.696 181.93 11.57 182.308 11.57C182.668 11.57 182.974 11.696 183.208 11.93C183.442 12.182 183.568 12.47 183.568 12.83C183.568 13.226 183.442 13.532 183.208 13.784C182.974 14.036 182.668 14.144 182.308 14.144C181.93 14.144 181.624 14.036 181.39 13.784ZM181.39 7.988C181.156 7.736 181.048 7.43 181.048 7.034C181.048 6.674 181.156 6.386 181.39 6.134C181.624 5.9 181.93 5.774 182.308 5.774C182.668 5.774 182.974 5.9 183.208 6.134C183.442 6.386 183.568 6.674 183.568 7.034C183.568 7.43 183.442 7.736 183.208 7.988C182.974 8.24 182.668 8.348 182.308 8.348C181.93 8.348 181.624 8.24 181.39 7.988ZM0.831813 35.766C1.22781 35.766 1.53381 35.658 1.74981 35.406C1.96581 35.172 2.09181 34.758 2.09181 34.182V25.218C2.09181 24.642 1.98381 24.228 1.76781 23.994C1.55181 23.76 1.22781 23.634 0.831813 23.634V23.4H9.65181L10.1738 27.126L9.95781 27.18C9.54381 24.876 8.42781 23.706 6.60981 23.706H4.14381V29.682H6.10581C6.71781 29.682 7.14981 29.538 7.41981 29.214C7.68981 28.908 7.83381 28.368 7.83381 27.594H8.06781V32.112H7.83381C7.83381 31.356 7.68981 30.798 7.41981 30.474C7.13181 30.15 6.69981 29.988 6.08781 29.988H4.14381V34.182C4.14381 34.776 4.26981 35.19 4.53981 35.424C4.79181 35.658 5.16981 35.766 5.65581 35.766V36H0.831813V35.766ZM11.7813 35.55C11.1513 35.136 10.6653 34.56 10.3233 33.84C9.9633 33.12 9.8013 32.346 9.8013 31.482C9.8013 30.582 9.9813 29.772 10.3773 29.052C10.7733 28.332 11.2953 27.756 11.9793 27.324C12.6453 26.91 13.3833 26.694 14.1753 26.694C14.8593 26.694 15.4713 26.856 15.9753 27.162C16.4793 27.486 16.8753 27.9 17.1453 28.422C17.4153 28.962 17.5593 29.538 17.5593 30.15H11.7093C11.6913 30.222 11.6913 30.33 11.6913 30.456C11.6913 31.302 11.8173 32.04 12.0873 32.688C12.3393 33.336 12.7173 33.84 13.2033 34.2C13.6893 34.56 14.2653 34.722 14.9133 34.722C15.6333 34.722 16.2453 34.506 16.7493 34.074C17.2533 33.642 17.5773 33.084 17.7213 32.364L17.9733 32.4C17.8653 33.12 17.6133 33.768 17.2533 34.344C16.8933 34.92 16.4253 35.37 15.8493 35.694C15.2733 36.018 14.6433 36.18 13.9593 36.18C13.1313 36.18 12.4113 35.982 11.7813 35.55ZM14.8773 29.844C15.1293 29.844 15.3273 29.79 15.4353 29.664C15.5433 29.538 15.6153 29.322 15.6153 29.034C15.6153 28.53 15.4713 28.062 15.2193 27.63C14.9493 27.198 14.5533 26.964 14.0313 26.964C13.4913 26.964 12.9873 27.252 12.5553 27.81C12.1053 28.386 11.8353 29.052 11.7273 29.844H14.8773ZM20.83 35.856C20.164 35.64 19.57 35.352 19.03 34.992V24.822C19.03 24.39 18.922 24.084 18.742 23.904C18.562 23.724 18.256 23.634 17.842 23.634V23.4C18.994 23.328 19.984 23.094 20.812 22.698L20.974 22.788V28.89C21.136 28.332 21.478 27.828 22 27.396C22.504 26.964 23.116 26.73 23.818 26.73C24.52 26.73 25.15 26.946 25.708 27.378C26.248 27.81 26.68 28.368 26.986 29.07C27.274 29.79 27.436 30.546 27.436 31.356C27.436 32.292 27.238 33.138 26.842 33.858C26.446 34.596 25.888 35.172 25.204 35.568C24.52 35.982 23.746 36.18 22.918 36.18C22.198 36.18 21.496 36.072 20.83 35.856ZM21.478 35.01C21.82 35.622 22.342 35.91 23.026 35.91C23.746 35.91 24.34 35.55 24.772 34.812C25.204 34.092 25.42 33.138 25.42 31.968C25.42 31.104 25.294 30.348 25.078 29.7C24.862 29.07 24.556 28.584 24.178 28.26C23.782 27.936 23.35 27.756 22.864 27.756C22.396 27.756 22 27.936 21.658 28.26C21.298 28.584 21.082 28.998 20.974 29.502V32.166C20.974 33.462 21.136 34.398 21.478 35.01ZM27.5292 35.766C27.9252 35.766 28.2312 35.658 28.4472 35.406C28.6632 35.172 28.7892 34.758 28.7892 34.182V28.836C28.7892 28.404 28.6992 28.116 28.5192 27.936C28.3392 27.756 28.0332 27.666 27.6012 27.648V27.414C28.7532 27.342 29.7432 27.108 30.5712 26.712L30.7332 26.802V28.764C30.8772 28.206 31.1472 27.72 31.5432 27.306C31.9392 26.91 32.3892 26.694 32.9292 26.694C33.3432 26.694 33.6852 26.838 33.9552 27.09C34.2072 27.36 34.3512 27.666 34.3512 28.008C34.3512 28.314 34.2432 28.566 34.0632 28.782C33.8832 28.998 33.6312 29.088 33.3252 29.088C33.1092 29.088 32.9472 29.052 32.8212 28.944C32.6952 28.854 32.5872 28.728 32.5152 28.584C32.4432 28.44 32.3712 28.296 32.3352 28.152C32.2632 28.008 32.2092 27.918 32.1552 27.846C32.0832 27.792 32.0112 27.756 31.9032 27.756C31.6152 27.756 31.3632 27.936 31.1472 28.26C30.9312 28.602 30.7872 28.998 30.7332 29.448V34.182C30.7332 34.758 30.8772 35.172 31.1652 35.406C31.4532 35.658 31.8492 35.766 32.3712 35.766V36H27.5292V35.766ZM37.047 35.766C36.597 35.478 36.255 35.064 36.003 34.524C35.751 33.984 35.625 33.336 35.625 32.598V28.836C35.625 28.404 35.517 28.116 35.337 27.936C35.157 27.756 34.851 27.666 34.437 27.648V27.414C35.589 27.342 36.579 27.108 37.407 26.712L37.569 26.802V32.4C37.569 33.228 37.713 33.894 38.037 34.362C38.343 34.848 38.811 35.082 39.441 35.082C39.981 35.082 40.395 34.902 40.701 34.524C41.007 34.146 41.187 33.696 41.241 33.192V28.836C41.241 28.404 41.133 28.116 40.953 27.936C40.773 27.756 40.467 27.666 40.053 27.648V27.414C41.205 27.342 42.195 27.108 43.023 26.712L43.185 26.802V34.308C43.185 34.704 43.275 34.974 43.455 35.118C43.635 35.262 43.959 35.316 44.391 35.298V35.532C43.221 35.676 42.231 35.91 41.421 36.216L41.241 36.108V34.056C41.043 34.632 40.719 35.136 40.269 35.568C39.801 36 39.243 36.198 38.559 36.198C37.983 36.198 37.479 36.054 37.047 35.766ZM50.8469 35.658C50.5589 35.334 50.3789 34.866 50.3069 34.272L50.2529 33.876C50.1809 34.272 50.0009 34.65 49.7489 34.992C49.4789 35.352 49.1369 35.64 48.7229 35.856C48.2909 36.072 47.8229 36.18 47.3009 36.18C46.5449 36.18 45.9149 35.964 45.4289 35.532C44.9429 35.1 44.7089 34.542 44.7089 33.858C44.7089 33.246 44.9069 32.742 45.3389 32.346C45.7709 31.95 46.3829 31.716 47.1749 31.644L49.9109 31.428L49.7849 30.51C49.6769 29.664 49.4249 28.998 49.0289 28.512C48.6329 28.044 48.1109 27.792 47.4629 27.792C46.9409 27.792 46.4909 27.954 46.0949 28.242C45.6989 28.53 45.4109 28.926 45.2129 29.412L44.9789 29.358C45.0869 28.926 45.3029 28.494 45.6269 28.08C45.9509 27.684 46.3469 27.342 46.8329 27.09C47.3189 26.838 47.8589 26.694 48.4529 26.694C49.3529 26.694 50.0909 26.982 50.6489 27.558C51.2069 28.134 51.5489 28.962 51.6929 30.024L52.2149 34.002C52.3049 34.686 52.5389 35.01 52.9349 35.01C53.0429 35.01 53.1509 34.974 53.2409 34.866C53.3309 34.776 53.3849 34.65 53.4209 34.488L53.6369 34.506C53.6009 34.938 53.4569 35.316 53.1689 35.64C52.8809 35.982 52.5029 36.144 52.0349 36.144C51.5309 36.144 51.1349 35.982 50.8469 35.658ZM46.9949 34.632C47.3009 34.956 47.7149 35.118 48.2549 35.118C48.7949 35.118 49.2449 34.956 49.6049 34.632C49.9469 34.308 50.1449 33.912 50.1989 33.462L49.9469 31.698L48.1829 31.842C47.6429 31.896 47.2289 32.076 46.9409 32.364C46.6529 32.652 46.5269 33.03 46.5269 33.462C46.5269 33.93 46.6709 34.308 46.9949 34.632ZM53.6327 35.766C54.0287 35.766 54.3347 35.658 54.5507 35.406C54.7667 35.172 54.8927 34.758 54.8927 34.182V28.836C54.8927 28.404 54.8027 28.116 54.6227 27.936C54.4427 27.756 54.1367 27.666 53.7047 27.648V27.414C54.8567 27.342 55.8467 27.108 56.6747 26.712L56.8367 26.802V28.764C56.9807 28.206 57.2507 27.72 57.6467 27.306C58.0427 26.91 58.4927 26.694 59.0327 26.694C59.4467 26.694 59.7887 26.838 60.0587 27.09C60.3107 27.36 60.4547 27.666 60.4547 28.008C60.4547 28.314 60.3467 28.566 60.1667 28.782C59.9867 28.998 59.7347 29.088 59.4287 29.088C59.2127 29.088 59.0507 29.052 58.9247 28.944C58.7987 28.854 58.6907 28.728 58.6187 28.584C58.5467 28.44 58.4747 28.296 58.4387 28.152C58.3667 28.008 58.3127 27.918 58.2587 27.846C58.1867 27.792 58.1147 27.756 58.0067 27.756C57.7187 27.756 57.4667 27.936 57.2507 28.26C57.0347 28.602 56.8907 28.998 56.8367 29.448V34.182C56.8367 34.758 56.9807 35.172 57.2687 35.406C57.5567 35.658 57.9527 35.766 58.4747 35.766V36H53.6327V35.766ZM63.3125 39.42C62.8445 39.204 62.4665 38.898 62.2145 38.538C61.9625 38.178 61.8365 37.782 61.8365 37.368C61.8365 37.08 61.9265 36.864 62.1065 36.684C62.2865 36.504 62.5025 36.414 62.7725 36.414C63.0425 36.414 63.2765 36.522 63.4565 36.72C63.6365 36.918 63.7445 37.152 63.7445 37.44C63.7445 37.584 63.7265 37.71 63.6905 37.854C63.6725 37.908 63.6545 37.98 63.6545 38.052C63.6365 38.142 63.6365 38.214 63.6365 38.286C63.6365 38.646 63.7625 38.934 64.0325 39.15C64.2845 39.366 64.6085 39.456 64.9865 39.456C66.5525 39.456 67.3445 38.052 67.3445 35.208V33.804C67.1465 34.38 66.8225 34.884 66.3725 35.316C65.9045 35.748 65.3465 35.946 64.6625 35.946C64.0865 35.946 63.5825 35.802 63.1505 35.514C62.7005 35.226 62.3585 34.812 62.1065 34.272C61.8545 33.732 61.7285 33.084 61.7285 32.346V28.836C61.7285 28.404 61.6205 28.116 61.4405 27.936C61.2605 27.756 60.9545 27.666 60.5405 27.648V27.414C61.6925 27.342 62.6825 27.108 63.5105 26.712L63.6725 26.802V32.148C63.6725 32.976 63.8165 33.642 64.1405 34.11C64.4465 34.596 64.9145 34.83 65.5445 34.83C66.0845 34.83 66.4985 34.65 66.8045 34.272C67.1105 33.894 67.2905 33.444 67.3445 32.94V28.836C67.3445 28.404 67.2365 28.116 67.0565 27.936C66.8765 27.756 66.5705 27.666 66.1565 27.648V27.414C67.3085 27.342 68.2985 27.108 69.1265 26.712L69.2885 26.802V34.992C69.2885 36.018 69.0725 36.882 68.6765 37.602C68.2625 38.322 67.7225 38.862 67.0745 39.222C66.4265 39.582 65.7245 39.744 64.9685 39.744C64.3385 39.744 63.7805 39.636 63.3125 39.42ZM77.9285 30.924C78.7385 29.628 79.1525 28.368 79.1525 27.18C79.1525 26.226 78.9185 25.506 78.4865 25.02C78.0365 24.552 77.4965 24.3 76.8845 24.3C76.3265 24.3 75.8405 24.498 75.4265 24.894C74.9945 25.29 74.7245 25.758 74.5985 26.334L74.3285 26.298C74.4185 25.758 74.6345 25.236 74.9765 24.768C75.3005 24.3 75.7325 23.922 76.2365 23.634C76.7405 23.346 77.2805 23.202 77.8925 23.202C78.4865 23.202 79.0445 23.364 79.5485 23.652C80.0525 23.94 80.4665 24.354 80.7725 24.894C81.0785 25.434 81.2405 26.028 81.2405 26.694C81.2405 27.522 81.0245 28.332 80.5925 29.088C80.1605 29.862 79.5665 30.618 78.8285 31.374C78.0905 32.13 77.0105 33.138 75.6065 34.398H78.5945C79.2965 34.398 79.8365 34.344 80.1965 34.236C80.5565 34.128 80.8265 33.93 81.0245 33.642C81.2045 33.372 81.3845 32.94 81.5645 32.328L81.7805 32.382L81.0785 36H73.9865V35.676C75.8045 33.804 77.1185 32.22 77.9285 30.924ZM82.2797 35.766C82.8377 35.766 83.2697 35.658 83.5757 35.424C83.8817 35.19 84.0437 34.776 84.0437 34.182V26.64C84.0437 26.262 83.9537 25.992 83.8097 25.812C83.6477 25.632 83.3777 25.542 83.0177 25.542H81.8657V25.29C82.8017 25.272 83.6477 25.074 84.3857 24.714C85.1057 24.354 85.5737 23.796 85.7897 23.04H86.0777V34.182C86.0777 34.776 86.2217 35.19 86.5277 35.424C86.8337 35.658 87.2657 35.766 87.8417 35.766V36H82.2797V35.766ZM89.6167 37.53C89.9047 37.206 90.0667 36.882 90.0667 36.558C90.0667 36.378 90.0127 36.252 89.9227 36.162C89.8147 36.072 89.6707 35.964 89.4727 35.856C89.2027 35.73 89.0047 35.586 88.8787 35.442C88.7347 35.298 88.6807 35.064 88.6807 34.74C88.6807 34.416 88.7887 34.146 89.0227 33.93C89.2387 33.714 89.5087 33.588 89.8327 33.588C90.2287 33.588 90.5347 33.75 90.7867 34.074C91.0207 34.398 91.1467 34.794 91.1467 35.262C91.1467 36.054 90.8767 36.72 90.3727 37.296C89.8687 37.872 89.2747 38.286 88.6267 38.502L88.5367 38.268C88.9507 38.106 89.3107 37.854 89.6167 37.53ZM99.2332 30.924C100.043 29.628 100.457 28.368 100.457 27.18C100.457 26.226 100.223 25.506 99.7912 25.02C99.3412 24.552 98.8012 24.3 98.1892 24.3C97.6312 24.3 97.1452 24.498 96.7312 24.894C96.2992 25.29 96.0292 25.758 95.9032 26.334L95.6332 26.298C95.7232 25.758 95.9392 25.236 96.2812 24.768C96.6052 24.3 97.0372 23.922 97.5412 23.634C98.0452 23.346 98.5852 23.202 99.1972 23.202C99.7912 23.202 100.349 23.364 100.853 23.652C101.357 23.94 101.771 24.354 102.077 24.894C102.383 25.434 102.545 26.028 102.545 26.694C102.545 27.522 102.329 28.332 101.897 29.088C101.465 29.862 100.871 30.618 100.133 31.374C99.3952 32.13 98.3152 33.138 96.9112 34.398H99.8992C100.601 34.398 101.141 34.344 101.501 34.236C101.861 34.128 102.131 33.93 102.329 33.642C102.509 33.372 102.689 32.94 102.869 32.328L103.085 32.382L102.383 36H95.2912V35.676C97.1092 33.804 98.4232 32.22 99.2332 30.924ZM106.151 35.388C105.431 34.866 104.873 34.11 104.459 33.12C104.045 32.13 103.847 30.978 103.847 29.646C103.847 28.314 104.045 27.144 104.477 26.172C104.891 25.2 105.449 24.48 106.133 23.976C106.817 23.472 107.573 23.22 108.383 23.22C109.175 23.22 109.931 23.49 110.615 23.994C111.299 24.498 111.857 25.254 112.271 26.226C112.667 27.198 112.883 28.35 112.883 29.682C112.883 31.032 112.667 32.202 112.271 33.174C111.875 34.146 111.335 34.902 110.669 35.406C110.003 35.928 109.283 36.18 108.509 36.18C107.645 36.18 106.853 35.928 106.151 35.388ZM107.033 34.38C107.501 35.352 108.077 35.82 108.779 35.82C108.851 35.82 108.941 35.82 109.067 35.784C109.625 35.676 110.057 35.154 110.345 34.2C110.633 33.246 110.795 32.076 110.795 30.708C110.795 30.024 110.759 29.34 110.687 28.656C110.507 27.126 110.201 25.902 109.769 24.984C109.319 24.066 108.743 23.598 108.059 23.598C107.969 23.598 107.861 23.616 107.717 23.634C107.141 23.76 106.691 24.3 106.403 25.236C106.115 26.172 105.971 27.324 105.971 28.674C105.971 29.358 106.007 30.024 106.079 30.69C106.241 32.202 106.565 33.426 107.033 34.38ZM116.97 30.924C117.78 29.628 118.194 28.368 118.194 27.18C118.194 26.226 117.96 25.506 117.528 25.02C117.078 24.552 116.538 24.3 115.926 24.3C115.368 24.3 114.882 24.498 114.468 24.894C114.036 25.29 113.766 25.758 113.64 26.334L113.37 26.298C113.46 25.758 113.676 25.236 114.018 24.768C114.342 24.3 114.774 23.922 115.278 23.634C115.782 23.346 116.322 23.202 116.934 23.202C117.528 23.202 118.086 23.364 118.59 23.652C119.094 23.94 119.508 24.354 119.814 24.894C120.12 25.434 120.282 26.028 120.282 26.694C120.282 27.522 120.066 28.332 119.634 29.088C119.202 29.862 118.608 30.618 117.87 31.374C117.132 32.13 116.052 33.138 114.648 34.398H117.636C118.338 34.398 118.878 34.344 119.238 34.236C119.598 34.128 119.868 33.93 120.066 33.642C120.246 33.372 120.426 32.94 120.606 32.328L120.822 32.382L120.12 36H113.028V35.676C114.846 33.804 116.16 32.22 116.97 30.924ZM124.269 35.766C124.737 35.766 125.115 35.658 125.385 35.406C125.637 35.172 125.781 34.758 125.781 34.182V33.048H120.957V32.706L127.509 23.112H127.815V31.842H129.471V33.048H127.815V34.182C127.815 34.776 127.941 35.19 128.211 35.424C128.463 35.658 128.841 35.766 129.327 35.766V36H124.269V35.766ZM125.781 31.842V26.064L122.019 31.842H125.781ZM131.453 37.53C131.741 37.206 131.903 36.882 131.903 36.558C131.903 36.378 131.849 36.252 131.759 36.162C131.651 36.072 131.507 35.964 131.309 35.856C131.039 35.73 130.841 35.586 130.715 35.442C130.571 35.298 130.517 35.064 130.517 34.74C130.517 34.416 130.625 34.146 130.859 33.93C131.075 33.714 131.345 33.588 131.669 33.588C132.065 33.588 132.371 33.75 132.623 34.074C132.857 34.398 132.983 34.794 132.983 35.262C132.983 36.054 132.713 36.72 132.209 37.296C131.705 37.872 131.111 38.286 130.463 38.502L130.373 38.268C130.787 38.106 131.147 37.854 131.453 37.53ZM143.589 35.658C143.301 35.334 143.121 34.866 143.049 34.272L142.995 33.876C142.923 34.272 142.743 34.65 142.491 34.992C142.221 35.352 141.879 35.64 141.465 35.856C141.033 36.072 140.565 36.18 140.043 36.18C139.287 36.18 138.657 35.964 138.171 35.532C137.685 35.1 137.451 34.542 137.451 33.858C137.451 33.246 137.649 32.742 138.081 32.346C138.513 31.95 139.125 31.716 139.917 31.644L142.653 31.428L142.527 30.51C142.419 29.664 142.167 28.998 141.771 28.512C141.375 28.044 140.853 27.792 140.205 27.792C139.683 27.792 139.233 27.954 138.837 28.242C138.441 28.53 138.153 28.926 137.955 29.412L137.721 29.358C137.829 28.926 138.045 28.494 138.369 28.08C138.693 27.684 139.089 27.342 139.575 27.09C140.061 26.838 140.601 26.694 141.195 26.694C142.095 26.694 142.833 26.982 143.391 27.558C143.949 28.134 144.291 28.962 144.435 30.024L144.957 34.002C145.047 34.686 145.281 35.01 145.677 35.01C145.785 35.01 145.893 34.974 145.983 34.866C146.073 34.776 146.127 34.65 146.163 34.488L146.379 34.506C146.343 34.938 146.199 35.316 145.911 35.64C145.623 35.982 145.245 36.144 144.777 36.144C144.273 36.144 143.877 35.982 143.589 35.658ZM139.737 34.632C140.043 34.956 140.457 35.118 140.997 35.118C141.537 35.118 141.987 34.956 142.347 34.632C142.689 34.308 142.887 33.912 142.941 33.462L142.689 31.698L140.925 31.842C140.385 31.896 139.971 32.076 139.683 32.364C139.395 32.652 139.269 33.03 139.269 33.462C139.269 33.93 139.413 34.308 139.737 34.632ZM147.807 35.352C147.375 34.794 147.159 34.074 147.159 33.174V27.594H146.025V27.342C146.763 27.27 147.393 27.018 147.897 26.55C148.401 26.082 148.725 25.452 148.869 24.642H149.121V26.874H151.803L151.497 27.594H149.121V32.976C149.121 33.588 149.247 34.092 149.499 34.47C149.751 34.866 150.111 35.046 150.561 35.046C150.921 35.046 151.209 34.938 151.443 34.686C151.677 34.434 151.839 34.128 151.929 33.75L152.145 33.786C152.055 34.47 151.785 35.028 151.353 35.496C150.903 35.964 150.363 36.18 149.751 36.18C148.887 36.18 148.239 35.91 147.807 35.352ZM157.629 35.766C157.107 35.55 156.693 35.226 156.405 34.83C156.117 34.434 155.973 33.984 155.973 33.48C155.973 33.156 156.063 32.886 156.261 32.67C156.459 32.454 156.711 32.346 157.017 32.346C157.269 32.346 157.485 32.454 157.665 32.634C157.827 32.832 157.917 33.066 157.917 33.318C157.917 33.498 157.845 33.714 157.737 33.966C157.593 34.236 157.539 34.47 157.539 34.668C157.539 35.01 157.665 35.28 157.953 35.478C158.223 35.694 158.565 35.784 158.961 35.784C159.393 35.784 159.825 35.622 160.221 35.298C160.617 34.974 160.941 34.524 161.193 33.948C161.445 33.372 161.571 32.76 161.571 32.076C161.571 30.978 161.301 30.096 160.761 29.43C160.221 28.782 159.501 28.44 158.601 28.44C158.223 28.44 157.881 28.53 157.557 28.674C157.233 28.818 156.963 29.07 156.765 29.412L156.549 29.304C156.819 28.8 157.035 28.008 157.215 26.928C157.377 25.848 157.503 24.678 157.593 23.4H161.049H161.787C162.345 23.4 162.723 23.364 162.903 23.292C163.083 23.22 163.209 23.04 163.281 22.752L163.533 22.77L163.173 25.002H157.827C157.683 26.46 157.503 27.54 157.323 28.224C157.557 28.098 157.845 27.99 158.205 27.9C158.565 27.828 158.943 27.774 159.357 27.774C160.185 27.774 160.923 27.954 161.589 28.278C162.237 28.602 162.759 29.07 163.155 29.682C163.533 30.294 163.731 30.996 163.731 31.788C163.731 32.688 163.515 33.462 163.083 34.11C162.651 34.758 162.093 35.262 161.427 35.604C160.743 35.946 160.059 36.108 159.339 36.108C158.709 36.108 158.133 36 157.629 35.766ZM165.077 35.784C164.843 35.532 164.735 35.226 164.735 34.83C164.735 34.47 164.843 34.182 165.077 33.93C165.311 33.696 165.617 33.57 165.995 33.57C166.355 33.57 166.661 33.696 166.895 33.93C167.129 34.182 167.255 34.47 167.255 34.83C167.255 35.226 167.129 35.532 166.895 35.784C166.661 36.036 166.355 36.144 165.995 36.144C165.617 36.144 165.311 36.036 165.077 35.784ZM165.077 29.988C164.843 29.736 164.735 29.43 164.735 29.034C164.735 28.674 164.843 28.386 165.077 28.134C165.311 27.9 165.617 27.774 165.995 27.774C166.355 27.774 166.661 27.9 166.895 28.134C167.129 28.386 167.255 28.674 167.255 29.034C167.255 29.43 167.129 29.736 166.895 29.988C166.661 30.24 166.355 30.348 165.995 30.348C165.617 30.348 165.311 30.24 165.077 29.988ZM170.803 35.388C170.083 34.866 169.525 34.11 169.111 33.12C168.697 32.13 168.499 30.978 168.499 29.646C168.499 28.314 168.697 27.144 169.129 26.172C169.543 25.2 170.101 24.48 170.785 23.976C171.469 23.472 172.225 23.22 173.035 23.22C173.827 23.22 174.583 23.49 175.267 23.994C175.951 24.498 176.509 25.254 176.923 26.226C177.319 27.198 177.535 28.35 177.535 29.682C177.535 31.032 177.319 32.202 176.923 33.174C176.527 34.146 175.987 34.902 175.321 35.406C174.655 35.928 173.935 36.18 173.161 36.18C172.297 36.18 171.505 35.928 170.803 35.388ZM171.685 34.38C172.153 35.352 172.729 35.82 173.431 35.82C173.503 35.82 173.593 35.82 173.719 35.784C174.277 35.676 174.709 35.154 174.997 34.2C175.285 33.246 175.447 32.076 175.447 30.708C175.447 30.024 175.411 29.34 175.339 28.656C175.159 27.126 174.853 25.902 174.421 24.984C173.971 24.066 173.395 23.598 172.711 23.598C172.621 23.598 172.513 23.616 172.369 23.634C171.793 23.76 171.343 24.3 171.055 25.236C170.767 26.172 170.623 27.324 170.623 28.674C170.623 29.358 170.659 30.024 170.731 30.69C170.893 32.202 171.217 33.426 171.685 34.38ZM180.963 35.388C180.243 34.866 179.685 34.11 179.271 33.12C178.857 32.13 178.659 30.978 178.659 29.646C178.659 28.314 178.857 27.144 179.289 26.172C179.703 25.2 180.261 24.48 180.945 23.976C181.629 23.472 182.385 23.22 183.195 23.22C183.987 23.22 184.743 23.49 185.427 23.994C186.111 24.498 186.669 25.254 187.083 26.226C187.479 27.198 187.695 28.35 187.695 29.682C187.695 31.032 187.479 32.202 187.083 33.174C186.687 34.146 186.147 34.902 185.481 35.406C184.815 35.928 184.095 36.18 183.321 36.18C182.457 36.18 181.665 35.928 180.963 35.388ZM181.845 34.38C182.313 35.352 182.889 35.82 183.591 35.82C183.663 35.82 183.753 35.82 183.879 35.784C184.437 35.676 184.869 35.154 185.157 34.2C185.445 33.246 185.607 32.076 185.607 30.708C185.607 30.024 185.571 29.34 185.499 28.656C185.319 27.126 185.013 25.902 184.581 24.984C184.131 24.066 183.555 23.598 182.871 23.598C182.781 23.598 182.673 23.616 182.529 23.634C181.953 23.76 181.503 24.3 181.215 25.236C180.927 26.172 180.783 27.324 180.783 28.674C180.783 29.358 180.819 30.024 180.891 30.69C181.053 32.202 181.377 33.426 181.845 34.38ZM192.17 35.766C192.566 35.766 192.872 35.658 193.088 35.406C193.304 35.172 193.43 34.758 193.43 34.182V25.218C193.43 24.642 193.304 24.246 193.088 23.994C192.872 23.76 192.566 23.634 192.17 23.634V23.4H197.732C198.722 23.4 199.55 23.598 200.198 23.958C200.846 24.318 201.314 24.804 201.602 25.38C201.89 25.956 202.034 26.586 202.034 27.252C202.034 27.936 201.872 28.566 201.584 29.142C201.296 29.736 200.828 30.222 200.18 30.6C199.532 30.978 198.722 31.158 197.732 31.158H195.464V34.182C195.464 34.776 195.608 35.19 195.914 35.424C196.22 35.658 196.652 35.766 197.228 35.766V36H192.17V35.766ZM197.228 30.852C197.822 30.852 198.326 30.69 198.74 30.366C199.154 30.042 199.46 29.61 199.658 29.07C199.856 28.548 199.964 27.99 199.964 27.378C199.964 26.37 199.73 25.506 199.28 24.786C198.812 24.066 198.128 23.706 197.21 23.706H195.464V30.852H197.228ZM204.482 25.398L203.528 33.246C203.492 33.534 203.492 33.732 203.492 33.822C203.492 34.488 203.636 34.974 203.924 35.298C204.212 35.622 204.608 35.766 205.112 35.766V36H200.99V35.766C201.53 35.766 201.998 35.568 202.394 35.154C202.772 34.758 203.024 34.11 203.132 33.246L203.996 26.154C204.014 26.01 204.032 25.794 204.032 25.506C204.032 24.876 203.888 24.408 203.618 24.102C203.33 23.796 202.97 23.634 202.52 23.634V23.4H205.958L209.468 33.066L212.888 23.4H215.822V23.634C215.444 23.634 215.156 23.724 214.94 23.886C214.724 24.066 214.634 24.354 214.634 24.768C214.634 24.84 214.634 24.984 214.67 25.2L215.93 34.2C216.002 34.776 216.164 35.19 216.398 35.424C216.632 35.658 216.956 35.766 217.352 35.766V36H212.474V35.766C212.906 35.766 213.23 35.676 213.482 35.496C213.716 35.316 213.842 35.01 213.842 34.56C213.842 34.416 213.824 34.29 213.824 34.2L212.618 25.308L208.748 36.18H208.46L204.482 25.398Z" fill="black"/>
</svg>
