<svg viewBox="0 0 243 69" fill="none" xmlns="http://www.w3.org/2000/svg">
<path d="M0.803813 52.064C2.38781 52.064 3.61181 51.632 4.47581 50.624C5.33981 49.688 5.84381 48.032 5.84381 45.728V9.872C5.84381 7.568 5.33981 5.984 4.47581 4.976C3.61181 4.04 2.38781 3.536 0.803813 3.536V2.6H23.0518C27.0118 2.6 30.3238 3.392 32.9158 4.832C35.5078 6.272 37.3798 8.216 38.5318 10.52C39.6838 12.824 40.2598 15.344 40.2598 18.008C40.2598 20.744 39.6118 23.264 38.4598 25.568C37.3078 27.944 35.4358 29.888 32.8438 31.4C30.2518 32.912 27.0118 33.632 23.0518 33.632H13.9798V45.728C13.9798 48.104 14.5558 49.76 15.7798 50.696C17.0038 51.632 18.7318 52.064 21.0358 52.064V53H0.803813V52.064ZM21.0358 32.408C23.4118 32.408 25.4278 31.76 27.0838 30.464C28.7398 29.168 29.9638 27.44 30.7558 25.28C31.5478 23.192 31.9798 20.96 31.9798 18.512C31.9798 14.48 31.0438 11.024 29.2438 8.144C27.3718 5.264 24.6358 3.824 20.9638 3.824H13.9798V32.408H21.0358ZM41.5699 52.064C43.1539 52.064 44.3779 51.632 45.2419 50.624C46.1059 49.688 46.6099 48.032 46.6099 45.728V24.344C46.6099 22.616 46.2499 21.464 45.5299 20.744C44.8099 20.024 43.5859 19.664 41.8579 19.592V18.656C46.4659 18.368 50.4259 17.432 53.7379 15.848L54.3859 16.208V24.056C54.9619 21.824 56.0419 19.88 57.6259 18.224C59.2099 16.64 61.0099 15.776 63.1699 15.776C64.8259 15.776 66.1939 16.352 67.2739 17.36C68.2819 18.44 68.8579 19.664 68.8579 21.032C68.8579 22.256 68.4259 23.264 67.7059 24.128C66.9859 24.992 65.9779 25.352 64.7539 25.352C63.8899 25.352 63.2419 25.208 62.7379 24.776C62.2339 24.416 61.8019 23.912 61.5139 23.336C61.2259 22.76 60.9379 22.184 60.7939 21.608C60.5059 21.032 60.2899 20.672 60.0739 20.384C59.7859 20.168 59.4979 20.024 59.0659 20.024C57.9139 20.024 56.9059 20.744 56.0419 22.04C55.1779 23.408 54.6019 24.992 54.3859 26.792V45.728C54.3859 48.032 54.9619 49.688 56.1139 50.624C57.2659 51.632 58.8499 52.064 60.9379 52.064V53H41.5699V52.064ZM77.8866 51.2C75.0786 49.544 72.8466 47.24 71.2626 44.288C69.6066 41.408 68.8146 38.168 68.8146 34.568C68.8146 30.896 69.6066 27.656 71.2626 24.776C72.8466 21.896 75.0786 19.736 77.8866 18.152C80.6226 16.568 83.6466 15.776 86.9586 15.776C90.2706 15.776 93.2946 16.64 96.0306 18.224C98.7666 19.88 100.999 22.112 102.655 24.992C104.239 27.872 105.103 31.112 105.103 34.712C105.103 38.384 104.311 41.696 102.727 44.576C101.143 47.456 98.9106 49.76 96.1746 51.344C93.4386 52.928 90.4146 53.72 87.1026 53.72C83.7186 53.72 80.6226 52.928 77.8866 51.2ZM81.1986 47.888C83.2146 50.912 85.6626 52.352 88.3986 52.352C91.1346 52.352 93.2226 51.056 94.7346 48.392C96.1746 45.8 96.9666 42.344 96.9666 38.096C96.9666 36.728 96.8226 35 96.6066 32.984C95.9586 28.232 94.6626 24.416 92.6466 21.536C90.6306 18.656 88.3266 17.144 85.6626 17.144C82.8546 17.144 80.6946 18.512 79.1826 21.176C77.6706 23.912 76.9506 27.368 76.9506 31.544C76.9506 33.272 77.0226 34.784 77.2386 36.152C77.8146 40.976 79.1826 44.864 81.1986 47.888ZM114.296 66.68C112.208 65.816 110.624 64.664 109.544 63.224C108.464 61.856 107.96 60.416 107.96 58.904C107.96 57.896 108.608 56.888 109.904 55.88C111.2 54.944 113 53.936 115.304 52.928C113.36 52.496 111.848 51.704 110.768 50.408C109.688 49.112 109.184 47.672 109.184 46.016C109.184 45.44 109.256 44.936 109.544 44.648C109.76 44.36 110.336 43.856 111.272 43.208L113 41.984L115.952 39.752C113.648 38.744 111.848 37.232 110.552 35.288C109.256 33.416 108.608 31.184 108.608 28.664C108.608 26.144 109.256 23.912 110.552 21.896C111.848 19.88 113.72 18.368 116.096 17.216C118.4 16.136 121.136 15.56 124.16 15.56C125.096 15.56 126.464 15.704 128.336 15.992C130.784 16.352 132.8 16.496 134.528 16.496H142.016L140.792 19.376L133.808 19.232C135.536 20.456 136.832 21.896 137.768 23.552C138.632 25.28 139.136 27.008 139.136 28.88C139.136 31.328 138.488 33.56 137.192 35.432C135.896 37.304 134.168 38.816 131.864 39.824C129.56 40.904 126.968 41.408 123.944 41.408C121.28 41.408 118.904 40.976 116.816 40.112C115.808 40.976 115.088 41.696 114.8 42.128C114.44 42.56 114.296 42.992 114.296 43.28C114.296 45.224 115.736 46.16 118.616 46.16H132.152C135.032 46.16 137.264 46.664 138.92 47.672C140.576 48.68 141.44 50.408 141.44 52.856C141.44 55.304 140.504 57.68 138.776 59.984C137.048 62.36 134.6 64.304 131.576 65.816C128.552 67.328 125.168 68.048 121.496 68.048C118.76 68.048 116.312 67.616 114.296 66.68ZM117.752 62.216C119.768 63.512 122.432 64.16 125.744 64.16C128.336 64.16 130.568 63.8 132.584 63.008C134.528 62.288 136.04 61.28 137.12 60.128C138.2 58.976 138.776 57.752 138.776 56.528C138.776 55.52 138.344 54.656 137.48 54.08C136.616 53.504 135.392 53.144 133.736 53.144H117.752H116.888C116.024 53.864 115.304 54.584 114.872 55.232C114.44 55.88 114.224 56.672 114.296 57.536C114.512 59.408 115.664 60.92 117.752 62.216ZM118.472 36.656C120.128 39.032 122.288 40.184 124.88 40.184C126.968 40.184 128.624 39.248 129.92 37.232C131.144 35.216 131.792 32.768 131.792 29.816C131.792 27.512 131.36 25.424 130.64 23.408C129.92 21.392 128.84 19.808 127.544 18.584C126.248 17.432 124.736 16.784 123.152 16.784C120.848 16.784 119.12 17.864 117.896 20.024C116.6 22.184 116.024 24.632 116.024 27.512C116.024 31.256 116.816 34.352 118.472 36.656ZM150.985 51.2C148.465 49.544 146.521 47.24 145.153 44.36C143.713 41.48 143.065 38.384 143.065 34.928C143.065 31.328 143.785 28.088 145.369 25.208C146.953 22.328 149.041 20.024 151.777 18.296C154.441 16.64 157.393 15.776 160.561 15.776C163.297 15.776 165.745 16.424 167.761 17.648C169.777 18.944 171.361 20.6 172.441 22.688C173.521 24.848 174.097 27.152 174.097 29.6H150.697C150.625 29.888 150.625 30.32 150.625 30.824C150.625 34.208 151.129 37.16 152.209 39.752C153.217 42.344 154.729 44.36 156.673 45.8C158.617 47.24 160.921 47.888 163.513 47.888C166.393 47.888 168.841 47.024 170.857 45.296C172.873 43.568 174.169 41.336 174.745 38.456L175.753 38.6C175.321 41.48 174.313 44.072 172.873 46.376C171.433 48.68 169.561 50.48 167.257 51.776C164.953 53.072 162.433 53.72 159.697 53.72C156.385 53.72 153.505 52.928 150.985 51.2ZM163.369 28.376C164.377 28.376 165.169 28.16 165.601 27.656C166.033 27.152 166.321 26.288 166.321 25.136C166.321 23.12 165.745 21.248 164.737 19.52C163.657 17.792 162.073 16.856 159.985 16.856C157.825 16.856 155.809 18.008 154.081 20.24C152.281 22.544 151.201 25.208 150.769 28.376H163.369ZM182.791 50.408C181.063 48.176 180.199 45.296 180.199 41.696V19.376H175.663V18.368C178.615 18.08 181.135 17.072 183.151 15.2C185.167 13.328 186.463 10.808 187.039 7.568H188.047V16.496H198.775L197.551 19.376H188.047V40.904C188.047 43.352 188.551 45.368 189.559 46.88C190.567 48.464 192.007 49.184 193.807 49.184C195.247 49.184 196.399 48.752 197.335 47.744C198.271 46.736 198.919 45.512 199.279 44L200.143 44.144C199.783 46.88 198.703 49.112 196.975 50.984C195.175 52.856 193.015 53.72 190.567 53.72C187.111 53.72 184.519 52.64 182.791 50.408ZM207.119 50.408C205.391 48.176 204.527 45.296 204.527 41.696V19.376H199.991V18.368C202.943 18.08 205.463 17.072 207.479 15.2C209.495 13.328 210.791 10.808 211.367 7.568H212.375V16.496H223.103L221.879 19.376H212.375V40.904C212.375 43.352 212.879 45.368 213.887 46.88C214.895 48.464 216.335 49.184 218.135 49.184C219.575 49.184 220.727 48.752 221.663 47.744C222.599 46.736 223.247 45.512 223.607 44L224.471 44.144C224.111 46.88 223.031 49.112 221.303 50.984C219.503 52.856 217.343 53.72 214.895 53.72C211.439 53.72 208.847 52.64 207.119 50.408ZM228.99 8.864C228.054 7.856 227.622 6.632 227.622 5.048C227.622 3.608 228.054 2.456 228.99 1.52C229.926 0.583997 231.15 0.079999 232.662 0.079999C234.174 0.079999 235.398 0.583997 236.334 1.52C237.27 2.456 237.774 3.608 237.774 5.048C237.774 6.632 237.27 7.856 236.334 8.864C235.398 9.872 234.174 10.304 232.662 10.304C231.15 10.304 229.926 9.872 228.99 8.864ZM224.382 52.064C225.966 52.064 227.19 51.632 228.054 50.624C228.918 49.688 229.422 48.032 229.422 45.728V24.344C229.422 22.616 228.99 21.464 228.27 20.744C227.55 20.024 226.326 19.664 224.67 19.592V18.656C229.278 18.368 233.238 17.432 236.55 15.848L237.198 16.208V45.728C237.198 48.104 237.63 49.76 238.494 50.696C239.358 51.632 240.582 52.064 242.238 52.064V53H224.382V52.064Z" fill="black"/>
</svg>
