<svg viewBox="0 0 246 69" fill="none" xmlns="http://www.w3.org/2000/svg">
<path d="M0.76475 52.064C2.34875 52.064 3.57275 51.632 4.43675 50.624C5.30075 49.688 5.80475 48.032 5.80475 45.728V9.872C5.80475 7.568 5.30075 5.984 4.43675 4.976C3.57275 4.04 2.34875 3.536 0.76475 3.536V2.6H23.0128C26.9728 2.6 30.2848 3.392 32.8768 4.832C35.4688 6.272 37.3408 8.216 38.4928 10.52C39.6448 12.824 40.2208 15.344 40.2208 18.008C40.2208 20.744 39.5728 23.264 38.4208 25.568C37.2688 27.944 35.3968 29.888 32.8048 31.4C30.2128 32.912 26.9728 33.632 23.0128 33.632H13.9408V45.728C13.9408 48.104 14.5168 49.76 15.7408 50.696C16.9648 51.632 18.6928 52.064 20.9968 52.064V53H0.76475V52.064ZM20.9968 32.408C23.3728 32.408 25.3888 31.76 27.0448 30.464C28.7008 29.168 29.9248 27.44 30.7168 25.28C31.5088 23.192 31.9408 20.96 31.9408 18.512C31.9408 14.48 31.0048 11.024 29.2048 8.144C27.3328 5.264 24.5968 3.824 20.9248 3.824H13.9408V32.408H20.9968ZM41.5308 52.064C43.1148 52.064 44.3388 51.632 45.2028 50.624C46.0668 49.688 46.5708 48.032 46.5708 45.728V24.344C46.5708 22.616 46.2108 21.464 45.4908 20.744C44.7708 20.024 43.5468 19.664 41.8188 19.592V18.656C46.4268 18.368 50.3868 17.432 53.6988 15.848L54.3468 16.208V24.056C54.9228 21.824 56.0028 19.88 57.5868 18.224C59.1708 16.64 60.9708 15.776 63.1308 15.776C64.7868 15.776 66.1548 16.352 67.2348 17.36C68.2428 18.44 68.8188 19.664 68.8188 21.032C68.8188 22.256 68.3868 23.264 67.6668 24.128C66.9468 24.992 65.9388 25.352 64.7148 25.352C63.8508 25.352 63.2028 25.208 62.6988 24.776C62.1948 24.416 61.7628 23.912 61.4748 23.336C61.1868 22.76 60.8988 22.184 60.7548 21.608C60.4668 21.032 60.2508 20.672 60.0348 20.384C59.7468 20.168 59.4588 20.024 59.0268 20.024C57.8748 20.024 56.8668 20.744 56.0028 22.04C55.1388 23.408 54.5628 24.992 54.3468 26.792V45.728C54.3468 48.032 54.9228 49.688 56.0748 50.624C57.2268 51.632 58.8108 52.064 60.8988 52.064V53H41.5308V52.064ZM77.8475 51.2C75.0395 49.544 72.8075 47.24 71.2235 44.288C69.5675 41.408 68.7755 38.168 68.7755 34.568C68.7755 30.896 69.5675 27.656 71.2235 24.776C72.8075 21.896 75.0395 19.736 77.8475 18.152C80.5835 16.568 83.6075 15.776 86.9195 15.776C90.2315 15.776 93.2555 16.64 95.9915 18.224C98.7275 19.88 100.96 22.112 102.616 24.992C104.2 27.872 105.064 31.112 105.064 34.712C105.064 38.384 104.272 41.696 102.688 44.576C101.104 47.456 98.8715 49.76 96.1355 51.344C93.3995 52.928 90.3755 53.72 87.0635 53.72C83.6795 53.72 80.5835 52.928 77.8475 51.2ZM81.1595 47.888C83.1755 50.912 85.6235 52.352 88.3595 52.352C91.0955 52.352 93.1835 51.056 94.6955 48.392C96.1355 45.8 96.9275 42.344 96.9275 38.096C96.9275 36.728 96.7835 35 96.5675 32.984C95.9195 28.232 94.6235 24.416 92.6075 21.536C90.5915 18.656 88.2875 17.144 85.6235 17.144C82.8155 17.144 80.6555 18.512 79.1435 21.176C77.6315 23.912 76.9115 27.368 76.9115 31.544C76.9115 33.272 76.9835 34.784 77.1995 36.152C77.7755 40.976 79.1435 44.864 81.1595 47.888ZM109.623 8.864C108.687 7.856 108.255 6.632 108.255 5.048C108.255 3.608 108.687 2.456 109.623 1.52C110.559 0.583997 111.783 0.079999 113.295 0.079999C114.807 0.079999 116.031 0.583997 116.967 1.52C117.903 2.456 118.407 3.608 118.407 5.048C118.407 6.632 117.903 7.856 116.967 8.864C116.031 9.872 114.807 10.304 113.295 10.304C111.783 10.304 110.559 9.872 109.623 8.864ZM104.943 67.184C106.527 67.184 107.679 66.536 108.399 65.24C109.119 63.944 109.551 62.432 109.695 60.56C109.839 58.688 109.983 56.312 109.983 53.36L110.055 24.344C110.055 22.616 109.695 21.464 108.975 20.744C108.255 20.024 107.031 19.664 105.375 19.592V18.656C109.983 18.368 113.943 17.432 117.183 15.848L117.903 16.208V53.36C117.903 56.528 117.327 59.192 116.175 61.424C115.023 63.656 113.439 65.312 111.495 66.464C109.551 67.616 107.391 68.12 104.943 68.12V67.184ZM130.836 51.2C128.316 49.544 126.372 47.24 125.004 44.36C123.564 41.48 122.916 38.384 122.916 34.928C122.916 31.328 123.636 28.088 125.22 25.208C126.804 22.328 128.892 20.024 131.628 18.296C134.292 16.64 137.244 15.776 140.412 15.776C143.148 15.776 145.596 16.424 147.612 17.648C149.628 18.944 151.212 20.6 152.292 22.688C153.372 24.848 153.948 27.152 153.948 29.6H130.548C130.476 29.888 130.476 30.32 130.476 30.824C130.476 34.208 130.98 37.16 132.06 39.752C133.068 42.344 134.58 44.36 136.524 45.8C138.468 47.24 140.772 47.888 143.364 47.888C146.244 47.888 148.692 47.024 150.708 45.296C152.724 43.568 154.02 41.336 154.596 38.456L155.604 38.6C155.172 41.48 154.164 44.072 152.724 46.376C151.284 48.68 149.412 50.48 147.108 51.776C144.804 53.072 142.284 53.72 139.548 53.72C136.236 53.72 133.356 52.928 130.836 51.2ZM143.22 28.376C144.228 28.376 145.02 28.16 145.452 27.656C145.884 27.152 146.172 26.288 146.172 25.136C146.172 23.12 145.596 21.248 144.588 19.52C143.508 17.792 141.924 16.856 139.836 16.856C137.676 16.856 135.66 18.008 133.932 20.24C132.132 22.544 131.052 25.208 130.62 28.376H143.22ZM166.637 51.344C164.045 49.76 161.957 47.528 160.445 44.72C158.933 41.912 158.213 38.744 158.213 35.216C158.213 31.688 159.005 28.448 160.661 25.424C162.245 22.472 164.477 20.096 167.285 18.368C170.021 16.64 173.045 15.776 176.357 15.776C178.805 15.776 180.965 16.28 182.909 17.288C184.781 18.296 186.293 19.664 187.373 21.248C188.453 22.832 189.029 24.56 189.029 26.288C189.029 27.728 188.597 28.88 187.805 29.672C187.013 30.536 186.077 30.896 184.925 30.896C183.773 30.896 182.909 30.536 182.261 29.816C181.541 29.096 181.253 28.232 181.253 27.08C181.253 26.504 181.469 25.64 181.901 24.56C182.333 23.624 182.549 22.76 182.549 22.04C182.549 20.672 181.973 19.448 180.821 18.44C179.669 17.432 178.301 16.928 176.573 16.928C174.485 16.928 172.613 17.648 170.885 18.944C169.157 20.24 167.789 22.112 166.781 24.416C165.773 26.792 165.269 29.384 165.269 32.264C165.269 35.432 165.845 38.168 167.141 40.472C168.365 42.848 170.021 44.648 172.037 45.944C174.053 47.24 176.285 47.816 178.733 47.816C181.613 47.816 184.133 46.952 186.221 45.224C188.309 43.496 189.605 41.192 190.181 38.456L191.117 38.6C190.397 43.064 188.669 46.664 185.861 49.472C183.053 52.352 179.525 53.72 175.205 53.72C172.037 53.72 169.229 52.928 166.637 51.344ZM198.15 50.408C196.422 48.176 195.558 45.296 195.558 41.696V19.376H191.022V18.368C193.974 18.08 196.494 17.072 198.51 15.2C200.526 13.328 201.822 10.808 202.398 7.568H203.406V16.496H214.134L212.91 19.376H203.406V40.904C203.406 43.352 203.91 45.368 204.918 46.88C205.926 48.464 207.366 49.184 209.166 49.184C210.606 49.184 211.758 48.752 212.694 47.744C213.63 46.736 214.278 45.512 214.638 44L215.502 44.144C215.142 46.88 214.062 49.112 212.334 50.984C210.534 52.856 208.374 53.72 205.926 53.72C202.47 53.72 199.878 52.64 198.15 50.408ZM217.694 38.672L218.63 38.456C219.782 42.128 221.438 45.368 223.598 48.176C225.758 51.056 228.566 52.496 232.166 52.496C234.398 52.496 236.198 51.92 237.494 50.768C238.79 49.616 239.51 48.104 239.582 46.304C239.582 44.576 238.934 43.064 237.71 41.912C236.414 40.76 234.398 39.68 231.518 38.672L227.198 36.944C224.174 35.792 221.942 34.424 220.358 32.696C218.774 30.968 218.054 28.808 218.054 26.216C218.054 24.344 218.558 22.544 219.71 20.96C220.79 19.376 222.302 18.152 224.246 17.216C226.19 16.352 228.35 15.848 230.654 15.848C232.526 15.848 234.686 16.28 237.062 17.072C238.358 17.504 239.222 17.648 239.654 17.648C240.662 17.648 241.454 16.928 241.886 15.416L242.894 15.344L243.83 29.456L242.822 29.6C242.246 27.728 241.382 25.856 240.23 23.912C239.078 21.968 237.638 20.312 235.982 18.944C234.254 17.648 232.454 16.928 230.51 16.928C228.566 16.928 226.982 17.504 225.83 18.656C224.678 19.808 224.102 21.248 224.102 22.832C224.102 24.416 224.678 25.856 225.902 27.008C227.126 28.16 229.07 29.24 231.662 30.104L235.91 31.832C239.15 33.056 241.526 34.496 243.11 36.152C244.694 37.808 245.486 39.824 245.486 42.2C245.486 44.576 244.838 46.592 243.686 48.32C242.462 50.048 240.878 51.416 238.934 52.28C236.99 53.216 234.902 53.648 232.67 53.648C231.374 53.648 230.15 53.576 229.142 53.36C228.062 53.144 226.838 52.856 225.47 52.424C223.958 51.992 222.95 51.776 222.446 51.776C221.87 51.776 221.366 51.992 221.006 52.28C220.646 52.568 220.286 53.072 219.998 53.792L218.918 53.864L217.694 38.672Z" fill="black"/>
</svg>
