<?xml version="1.0" encoding="UTF-8"?>
<svg id="Layer_1" data-name="Layer 1" xmlns="http://www.w3.org/2000/svg" xmlns:xlink="http://www.w3.org/1999/xlink" viewBox="0 0 100 100">
  <defs>
    <style>
      .cls-1 {
        clip-path: url(#clippath);
      }

      .cls-2 {
        fill: none;
      }

      .cls-2, .cls-4 {
        stroke-width: 0px;
      }

      .cls-4 {
        fill: #f2eb00;
      }
    </style>
    <clipPath id="clippath">
      <rect class="cls-2" width="100" height="100"/>
    </clipPath>
  </defs>
  <g class="cls-1">
    <g>
      <rect class="cls-4" x="2.35" y="-36.83" width="1" height="144" transform="translate(11.01 .84) rotate(18)"/>
      <rect class="cls-4" x="5.2" y="-35.91" width="1" height="144" transform="translate(11.43 0) rotate(18)"/>
      <rect class="cls-4" x="8.06" y="-34.98" width="1" height="144" transform="translate(11.86 -.83) rotate(18)"/>
      <rect class="cls-4" x="10.91" y="-34.05" width="1" height="144" transform="translate(12.29 -1.67) rotate(18)"/>
      <rect class="cls-4" x="13.76" y="-33.12" width="1" height="144" transform="translate(12.71 -2.5) rotate(18)"/>
      <rect class="cls-4" x="16.62" y="-32.2" width="1" height="144" transform="translate(13.14 -3.34) rotate(18)"/>
      <rect class="cls-4" x="19.47" y="-31.27" width="1" height="144" transform="translate(13.56 -4.18) rotate(18)"/>
      <rect class="cls-4" x="22.32" y="-30.34" width="1" height="144" transform="translate(13.99 -5.01) rotate(18)"/>
      <rect class="cls-4" x="25.17" y="-29.42" width="1" height="144" transform="translate(14.42 -5.85) rotate(18)"/>
      <rect class="cls-4" x="28.03" y="-28.49" width="1" height="144" transform="translate(14.84 -6.69) rotate(18)"/>
      <rect class="cls-4" x="30.88" y="-27.56" width="1" height="144" transform="translate(15.27 -7.52) rotate(18)"/>
      <rect class="cls-4" x="33.73" y="-26.64" width="1" height="144" transform="translate(15.69 -8.36) rotate(18)"/>
      <rect class="cls-4" x="36.59" y="-25.71" width="1" height="144" transform="translate(16.12 -9.19) rotate(18)"/>
      <rect class="cls-4" x="39.44" y="-24.78" width="1" height="144" transform="translate(16.55 -10.03) rotate(18)"/>
      <rect class="cls-4" x="42.29" y="-23.85" width="1" height="144" transform="translate(16.97 -10.87) rotate(18)"/>
      <rect class="cls-4" x="45.15" y="-22.93" width="1" height="144" transform="translate(17.4 -11.7) rotate(18)"/>
      <rect class="cls-4" x="48" y="-22" width="1" height="144" transform="translate(17.82 -12.54) rotate(18)"/>
      <rect class="cls-4" x="50.85" y="-21.07" width="1" height="144" transform="translate(18.25 -13.38) rotate(18)"/>
      <rect class="cls-4" x="53.71" y="-20.15" width="1" height="144" transform="translate(18.68 -14.21) rotate(18)"/>
      <rect class="cls-4" x="56.56" y="-19.22" width="1" height="144" transform="translate(19.1 -15.05) rotate(18)"/>
      <rect class="cls-4" x="59.41" y="-18.29" width="1" height="144" transform="translate(19.53 -15.89) rotate(18)"/>
      <rect class="cls-4" x="62.27" y="-17.36" width="1" height="144" transform="translate(19.96 -16.72) rotate(18)"/>
      <rect class="cls-4" x="65.12" y="-16.44" width="1" height="144" transform="translate(20.38 -17.56) rotate(18)"/>
      <rect class="cls-4" x="67.97" y="-15.51" width="1" height="144" transform="translate(20.81 -18.39) rotate(18)"/>
      <rect class="cls-4" x="70.83" y="-14.58" width="1" height="144" transform="translate(21.23 -19.23) rotate(18)"/>
      <rect class="cls-4" x="73.68" y="-13.66" width="1" height="144" transform="translate(21.66 -20.07) rotate(18)"/>
      <rect class="cls-4" x="76.53" y="-12.73" width="1" height="144" transform="translate(22.09 -20.9) rotate(18)"/>
      <rect class="cls-4" x="79.38" y="-11.8" width="1" height="144" transform="translate(22.51 -21.74) rotate(18)"/>
      <rect class="cls-4" x="82.24" y="-10.88" width="1" height="144" transform="translate(22.94 -22.58) rotate(18)"/>
      <rect class="cls-4" x="85.09" y="-9.95" width="1" height="144" transform="translate(23.36 -23.41) rotate(18)"/>
      <rect class="cls-4" x="87.94" y="-9.02" width="1" height="144" transform="translate(23.79 -24.25) rotate(18)"/>
      <rect class="cls-4" x="90.8" y="-8.09" width="1" height="144" transform="translate(24.22 -25.08) rotate(18)"/>
      <rect class="cls-4" x="93.65" y="-7.17" width="1" height="144" transform="translate(24.64 -25.92) rotate(18)"/>
      <rect class="cls-4" x="96.5" y="-6.24" width="1" height="144" transform="translate(25.07 -26.76) rotate(18)"/>
      <rect class="cls-4" x="2.35" y="-36.83" width="1" height="144" transform="translate(11.01 .84) rotate(18)"/>
      <rect class="cls-4" x="5.2" y="-35.91" width="1" height="144" transform="translate(11.43 0) rotate(18)"/>
      <rect class="cls-4" x="-.5" y="-37.76" width="1" height="144" transform="translate(10.58 1.68) rotate(18)"/>
      <rect class="cls-4" x="-3.36" y="-38.69" width="1" height="144" transform="translate(10.15 2.51) rotate(18)"/>
      <rect class="cls-4" x="-6.21" y="-39.61" width="1" height="144" transform="translate(9.73 3.35) rotate(18)"/>
      <rect class="cls-4" x="-9.06" y="-40.54" width="1" height="144" transform="translate(9.3 4.19) rotate(18)"/>
      <rect class="cls-4" x="-11.92" y="-41.47" width="1" height="144" transform="translate(8.88 5.02) rotate(18)"/>
      <rect class="cls-4" x="-14.77" y="-42.4" width="1" height="144" transform="translate(8.45 5.86) rotate(18)"/>
      <rect class="cls-4" x="8.06" y="-34.98" width="1" height="144" transform="translate(11.86 -.83) rotate(18)"/>
      <rect class="cls-4" x="10.91" y="-34.05" width="1" height="144" transform="translate(12.29 -1.67) rotate(18)"/>
      <rect class="cls-4" x="13.76" y="-33.12" width="1" height="144" transform="translate(12.71 -2.5) rotate(18)"/>
      <rect class="cls-4" x="16.62" y="-32.2" width="1" height="144" transform="translate(13.14 -3.34) rotate(18)"/>
      <rect class="cls-4" x="19.47" y="-31.27" width="1" height="144" transform="translate(13.56 -4.18) rotate(18)"/>
      <rect class="cls-4" x="22.32" y="-30.34" width="1" height="144" transform="translate(13.99 -5.01) rotate(18)"/>
      <rect class="cls-4" x="25.17" y="-29.42" width="1" height="144" transform="translate(14.42 -5.85) rotate(18)"/>
      <rect class="cls-4" x="28.03" y="-28.49" width="1" height="144" transform="translate(14.84 -6.69) rotate(18)"/>
      <rect class="cls-4" x="30.88" y="-27.56" width="1" height="144" transform="translate(15.27 -7.52) rotate(18)"/>
      <rect class="cls-4" x="33.73" y="-26.64" width="1" height="144" transform="translate(15.69 -8.36) rotate(18)"/>
      <rect class="cls-4" x="36.59" y="-25.71" width="1" height="144" transform="translate(16.12 -9.19) rotate(18)"/>
      <rect class="cls-4" x="39.44" y="-24.78" width="1" height="144" transform="translate(16.55 -10.03) rotate(18)"/>
      <rect class="cls-4" x="42.29" y="-23.85" width="1" height="144" transform="translate(16.97 -10.87) rotate(18)"/>
      <rect class="cls-4" x="45.15" y="-22.93" width="1" height="144" transform="translate(17.4 -11.7) rotate(18)"/>
      <rect class="cls-4" x="48" y="-22" width="1" height="144" transform="translate(17.82 -12.54) rotate(18)"/>
      <rect class="cls-4" x="50.85" y="-21.07" width="1" height="144" transform="translate(18.25 -13.38) rotate(18)"/>
      <rect class="cls-4" x="53.71" y="-20.15" width="1" height="144" transform="translate(18.68 -14.21) rotate(18)"/>
      <rect class="cls-4" x="56.56" y="-19.22" width="1" height="144" transform="translate(19.1 -15.05) rotate(18)"/>
      <rect class="cls-4" x="59.41" y="-18.29" width="1" height="144" transform="translate(19.53 -15.89) rotate(18)"/>
      <rect class="cls-4" x="62.27" y="-17.36" width="1" height="144" transform="translate(19.96 -16.72) rotate(18)"/>
      <rect class="cls-4" x="65.12" y="-16.44" width="1" height="144" transform="translate(20.38 -17.56) rotate(18)"/>
      <rect class="cls-4" x="67.97" y="-15.51" width="1" height="144" transform="translate(20.81 -18.39) rotate(18)"/>
      <rect class="cls-4" x="70.83" y="-14.58" width="1" height="144" transform="translate(21.23 -19.23) rotate(18)"/>
      <rect class="cls-4" x="73.68" y="-13.66" width="1" height="144" transform="translate(21.66 -20.07) rotate(18)"/>
      <rect class="cls-4" x="76.53" y="-12.73" width="1" height="144" transform="translate(22.09 -20.9) rotate(18)"/>
      <rect class="cls-4" x="79.38" y="-11.8" width="1" height="144" transform="translate(22.51 -21.74) rotate(18)"/>
      <rect class="cls-4" x="82.24" y="-10.88" width="1" height="144" transform="translate(22.94 -22.58) rotate(18)"/>
      <rect class="cls-4" x="85.09" y="-9.95" width="1" height="144" transform="translate(23.36 -23.41) rotate(18)"/>
      <rect class="cls-4" x="87.94" y="-9.02" width="1" height="144" transform="translate(23.79 -24.25) rotate(18)"/>
      <rect class="cls-4" x="90.8" y="-8.09" width="1" height="144" transform="translate(24.22 -25.08) rotate(18)"/>
      <rect class="cls-4" x="93.65" y="-7.17" width="1" height="144" transform="translate(24.64 -25.92) rotate(18)"/>
      <rect class="cls-4" x="99.36" y="-5.31" width="1" height="144" transform="translate(25.49 -27.59) rotate(18)"/>
      <rect class="cls-4" x="102.21" y="-4.39" width="1" height="144" transform="translate(25.92 -28.43) rotate(18)"/>
      <rect class="cls-4" x="105.06" y="-3.46" width="1" height="144" transform="translate(26.35 -29.27) rotate(18)"/>
      <rect class="cls-4" x="107.92" y="-2.53" width="1" height="144" transform="translate(26.77 -30.1) rotate(18)"/>
      <rect class="cls-4" x="110.77" y="-1.6" width="1" height="144" transform="translate(27.2 -30.94) rotate(18)"/>
      <rect class="cls-4" x="96.5" y="-6.24" width="1" height="144" transform="translate(25.07 -26.76) rotate(18)"/>
    </g>
  </g>
</svg>