<svg viewBox="0 0 320 70" fill="none" xmlns="http://www.w3.org/2000/svg">
<path d="M70.1689 22.61C70.8289 22.61 71.3389 22.43 71.6989 22.01C72.0589 21.62 72.2689 20.93 72.2689 19.97V5.03C72.2689 4.07 72.0589 3.41 71.6989 2.99C71.3389 2.6 70.8289 2.39 70.1689 2.39V2H84.9289L85.7989 8.21L85.4089 8.3C84.7489 4.46 82.8889 2.51 79.8289 2.51H75.6889V12.14H79.0189C80.0089 12.14 80.7289 11.9 81.1789 11.36C81.6289 10.85 81.8689 9.95 81.8689 8.66H82.2889V16.19H81.8689C81.8689 14.93 81.6289 14 81.1789 13.46C80.6989 12.92 79.9789 12.65 78.9889 12.65H75.6889V20.87C75.6889 21.47 75.7789 21.89 76.0189 22.13C76.2289 22.37 76.6489 22.49 77.2789 22.49H80.3089C81.9889 22.49 83.3089 22.04 84.2689 21.08C85.2289 20.15 85.9789 18.77 86.5189 16.94L86.8489 17.03L85.6789 23H70.1689V22.61ZM95.1976 22.61C95.6176 22.61 95.9476 22.55 96.2176 22.37C96.4876 22.22 96.6376 21.98 96.6376 21.62C96.6376 21.26 96.4576 20.81 96.1276 20.27L93.6376 16.34L92.1676 18.65C91.5676 19.64 91.2676 20.45 91.2676 21.11C91.2676 21.59 91.4176 21.98 91.7176 22.22C92.0176 22.49 92.4376 22.61 93.0076 22.61V23H86.5276V22.61C87.2776 22.61 88.0876 22.28 88.9876 21.56C89.8876 20.87 90.6976 19.91 91.4776 18.71L93.3076 15.83L89.9476 10.52C89.3776 9.65 88.8676 9.05 88.4176 8.69C87.9376 8.36 87.3976 8.18 86.7976 8.18V7.79H94.6276V8.18C94.2076 8.18 93.8476 8.27 93.5776 8.42C93.2776 8.6 93.1576 8.84 93.1576 9.17C93.1576 9.53 93.3076 9.98 93.6676 10.52L95.7976 13.91L96.9376 11.9C97.5076 10.94 97.8076 10.13 97.8076 9.47C97.8076 8.63 97.2676 8.18 96.1876 8.18V7.79H102.518V8.18C101.738 8.18 100.898 8.51 99.9976 9.17C99.0676 9.83 98.2576 10.76 97.5976 11.9L96.1276 14.42L99.8476 20.27C100.388 21.17 100.898 21.77 101.378 22.1C101.858 22.46 102.458 22.61 103.118 22.61V23H95.1976V22.61ZM113.114 22.61C113.834 22.61 114.374 22.46 114.794 22.16C115.184 21.86 115.394 21.35 115.394 20.6C115.394 20.36 115.364 20.15 115.364 20L114.434 13.13C114.074 10.58 113.024 9.29 111.314 9.29C110.534 9.29 109.874 9.62 109.334 10.25C108.794 10.91 108.464 11.66 108.374 12.56V19.97C108.374 20.96 108.554 21.65 108.914 22.04C109.274 22.43 109.784 22.61 110.474 22.61V23H103.034V22.61C103.694 22.61 104.204 22.43 104.564 22.01C104.924 21.62 105.134 20.93 105.134 19.97V4.37C105.134 3.65 104.954 3.14 104.654 2.84C104.354 2.54 103.844 2.39 103.154 2.39V2C105.074 1.88 106.724 1.49 108.104 0.829999L108.374 0.979999V11.27C108.644 10.19 109.184 9.29 109.994 8.57C110.804 7.85 111.764 7.49 112.904 7.49C114.194 7.49 115.244 7.97 116.084 8.87C116.894 9.77 117.434 11.18 117.704 13.04L118.724 20C118.844 20.96 119.084 21.65 119.504 22.04C119.894 22.43 120.434 22.61 121.094 22.61V23H113.114V22.61ZM123.059 4.61C122.669 4.19 122.489 3.68 122.489 3.02C122.489 2.42 122.669 1.94 123.059 1.55C123.449 1.16 123.959 0.95 124.589 0.95C125.219 0.95 125.729 1.16 126.119 1.55C126.509 1.94 126.719 2.42 126.719 3.02C126.719 3.68 126.509 4.19 126.119 4.61C125.729 5.03 125.219 5.21 124.589 5.21C123.959 5.21 123.449 5.03 123.059 4.61ZM121.139 22.61C121.799 22.61 122.309 22.43 122.669 22.01C123.029 21.62 123.239 20.93 123.239 19.97V11.06C123.239 10.34 123.059 9.86 122.759 9.56C122.459 9.26 121.949 9.11 121.259 9.08V8.69C123.179 8.57 124.829 8.18 126.209 7.52L126.479 7.67V19.97C126.479 20.96 126.659 21.65 127.019 22.04C127.379 22.43 127.889 22.61 128.579 22.61V23H121.139V22.61ZM133.118 22.76C132.008 22.4 131.018 21.92 130.118 21.32V4.37C130.118 3.65 129.938 3.14 129.638 2.84C129.338 2.54 128.828 2.39 128.138 2.39V2C130.058 1.88 131.708 1.49 133.088 0.829999L133.358 0.979999V11.15C133.628 10.22 134.198 9.38 135.068 8.66C135.908 7.94 136.928 7.55 138.098 7.55C139.268 7.55 140.318 7.91 141.248 8.63C142.148 9.35 142.868 10.28 143.378 11.45C143.858 12.65 144.128 13.91 144.128 15.26C144.128 16.82 143.798 18.23 143.138 19.43C142.478 20.66 141.548 21.62 140.408 22.28C139.268 22.97 137.978 23.3 136.598 23.3C135.398 23.3 134.228 23.12 133.118 22.76ZM134.198 21.35C134.768 22.37 135.638 22.85 136.778 22.85C137.978 22.85 138.968 22.25 139.688 21.02C140.408 19.82 140.768 18.23 140.768 16.28C140.768 14.84 140.558 13.58 140.198 12.5C139.838 11.45 139.328 10.64 138.698 10.1C138.038 9.56 137.318 9.26 136.508 9.26C135.728 9.26 135.068 9.56 134.498 10.1C133.898 10.64 133.538 11.33 133.358 12.17V16.61C133.358 18.77 133.628 20.33 134.198 21.35ZM146.204 4.61C145.814 4.19 145.634 3.68 145.634 3.02C145.634 2.42 145.814 1.94 146.204 1.55C146.594 1.16 147.104 0.95 147.734 0.95C148.364 0.95 148.874 1.16 149.264 1.55C149.654 1.94 149.864 2.42 149.864 3.02C149.864 3.68 149.654 4.19 149.264 4.61C148.874 5.03 148.364 5.21 147.734 5.21C147.104 5.21 146.594 5.03 146.204 4.61ZM144.284 22.61C144.944 22.61 145.454 22.43 145.814 22.01C146.174 21.62 146.384 20.93 146.384 19.97V11.06C146.384 10.34 146.204 9.86 145.904 9.56C145.604 9.26 145.094 9.11 144.404 9.08V8.69C146.324 8.57 147.974 8.18 149.354 7.52L149.624 7.67V19.97C149.624 20.96 149.804 21.65 150.164 22.04C150.524 22.43 151.034 22.61 151.724 22.61V23H144.284V22.61ZM154.434 21.92C153.714 20.99 153.354 19.79 153.354 18.29V8.99H151.464V8.57C152.694 8.45 153.744 8.03 154.584 7.25C155.424 6.47 155.964 5.42 156.204 4.07H156.624V7.79H161.094L160.584 8.99H156.624V17.96C156.624 18.98 156.834 19.82 157.254 20.45C157.674 21.11 158.274 21.41 159.024 21.41C159.624 21.41 160.104 21.23 160.494 20.81C160.884 20.39 161.154 19.88 161.304 19.25L161.664 19.31C161.514 20.45 161.064 21.38 160.344 22.16C159.594 22.94 158.694 23.3 157.674 23.3C156.234 23.3 155.154 22.85 154.434 21.92ZM163.547 4.61C163.157 4.19 162.977 3.68 162.977 3.02C162.977 2.42 163.157 1.94 163.547 1.55C163.937 1.16 164.447 0.95 165.077 0.95C165.707 0.95 166.217 1.16 166.607 1.55C166.997 1.94 167.207 2.42 167.207 3.02C167.207 3.68 166.997 4.19 166.607 4.61C166.217 5.03 165.707 5.21 165.077 5.21C164.447 5.21 163.937 5.03 163.547 4.61ZM161.627 22.61C162.287 22.61 162.797 22.43 163.157 22.01C163.517 21.62 163.727 20.93 163.727 19.97V11.06C163.727 10.34 163.547 9.86 163.247 9.56C162.947 9.26 162.437 9.11 161.747 9.08V8.69C163.667 8.57 165.317 8.18 166.697 7.52L166.967 7.67V19.97C166.967 20.96 167.147 21.65 167.507 22.04C167.867 22.43 168.377 22.61 169.067 22.61V23H161.627V22.61ZM172.98 22.25C171.81 21.56 170.88 20.6 170.22 19.37C169.53 18.17 169.2 16.82 169.2 15.32C169.2 13.79 169.53 12.44 170.22 11.24C170.88 10.04 171.81 9.14 172.98 8.48C174.12 7.82 175.38 7.49 176.76 7.49C178.14 7.49 179.4 7.85 180.54 8.51C181.68 9.2 182.61 10.13 183.3 11.33C183.96 12.53 184.32 13.88 184.32 15.38C184.32 16.91 183.99 18.29 183.33 19.49C182.67 20.69 181.74 21.65 180.6 22.31C179.46 22.97 178.2 23.3 176.82 23.3C175.41 23.3 174.12 22.97 172.98 22.25ZM174.36 20.87C175.2 22.13 176.22 22.73 177.36 22.73C178.5 22.73 179.37 22.19 180 21.08C180.6 20 180.93 18.56 180.93 16.79C180.93 16.22 180.87 15.5 180.78 14.66C180.51 12.68 179.97 11.09 179.13 9.89C178.29 8.69 177.33 8.06 176.22 8.06C175.05 8.06 174.15 8.63 173.52 9.74C172.89 10.88 172.59 12.32 172.59 14.06C172.59 14.78 172.62 15.41 172.71 15.98C172.95 17.99 173.52 19.61 174.36 20.87ZM194.532 22.61C195.192 22.61 195.732 22.46 196.122 22.16C196.512 21.86 196.722 21.35 196.722 20.6C196.722 20.36 196.692 20.15 196.692 20L195.762 13.13C195.402 10.58 194.352 9.29 192.642 9.29C191.862 9.29 191.172 9.62 190.632 10.25C190.092 10.91 189.762 11.66 189.702 12.56V19.97C189.702 20.96 189.882 21.65 190.242 22.04C190.602 22.43 191.112 22.61 191.802 22.61V23H184.362V22.61C185.022 22.61 185.532 22.43 185.892 22.01C186.252 21.62 186.462 20.93 186.462 19.97V11.06C186.462 10.34 186.282 9.86 185.982 9.56C185.682 9.26 185.172 9.11 184.482 9.08V8.69C186.402 8.57 188.052 8.18 189.432 7.52L189.702 7.67V11.27C189.972 10.19 190.512 9.29 191.322 8.57C192.132 7.85 193.092 7.49 194.232 7.49C195.522 7.49 196.572 7.97 197.412 8.87C198.222 9.77 198.762 11.18 199.032 13.04L200.052 20C200.172 20.96 200.412 21.65 200.802 22.04C201.162 22.43 201.672 22.61 202.332 22.61V23H194.532V22.61ZM212.795 22.25C211.625 21.56 210.695 20.6 210.035 19.37C209.345 18.17 209.015 16.82 209.015 15.32C209.015 13.79 209.345 12.44 210.035 11.24C210.695 10.04 211.625 9.14 212.795 8.48C213.935 7.82 215.195 7.49 216.575 7.49C217.955 7.49 219.215 7.85 220.355 8.51C221.495 9.2 222.425 10.13 223.115 11.33C223.775 12.53 224.135 13.88 224.135 15.38C224.135 16.91 223.805 18.29 223.145 19.49C222.485 20.69 221.555 21.65 220.415 22.31C219.275 22.97 218.015 23.3 216.635 23.3C215.225 23.3 213.935 22.97 212.795 22.25ZM214.175 20.87C215.015 22.13 216.035 22.73 217.175 22.73C218.315 22.73 219.185 22.19 219.815 21.08C220.415 20 220.745 18.56 220.745 16.79C220.745 16.22 220.685 15.5 220.595 14.66C220.325 12.68 219.785 11.09 218.945 9.89C218.105 8.69 217.145 8.06 216.035 8.06C214.865 8.06 213.965 8.63 213.335 9.74C212.705 10.88 212.405 12.32 212.405 14.06C212.405 14.78 212.435 15.41 212.525 15.98C212.765 17.99 213.335 19.61 214.175 20.87ZM224.085 28.61C224.745 28.61 225.255 28.43 225.615 28.01C225.975 27.62 226.185 26.93 226.185 25.97V11.06C226.185 10.34 226.005 9.86 225.705 9.56C225.405 9.26 224.895 9.11 224.205 9.08V8.69C226.125 8.57 227.775 8.18 229.155 7.52L229.425 7.67V10.79C229.695 10.01 230.265 9.26 231.135 8.57C232.005 7.91 233.055 7.55 234.255 7.55C235.395 7.55 236.445 7.91 237.375 8.57C238.305 9.26 239.025 10.19 239.565 11.36C240.105 12.56 240.375 13.85 240.375 15.29C240.375 16.76 240.045 18.11 239.445 19.34C238.815 20.57 237.975 21.53 236.895 22.25C235.815 22.97 234.615 23.3 233.355 23.3C231.765 23.3 230.445 22.73 229.425 21.53V25.97C229.425 26.96 229.635 27.65 230.085 28.04C230.505 28.43 231.135 28.61 231.945 28.61V29H224.085V28.61ZM230.415 21.08C231.075 22.19 231.975 22.73 233.115 22.73C233.835 22.73 234.495 22.49 235.095 21.95C235.695 21.41 236.145 20.66 236.475 19.7C236.805 18.74 236.985 17.66 236.985 16.4C236.985 14.9 236.775 13.61 236.385 12.53C235.995 11.45 235.455 10.64 234.795 10.07C234.135 9.53 233.385 9.23 232.575 9.23C231.795 9.23 231.165 9.47 230.625 9.95C230.085 10.43 229.665 11.03 229.425 11.75V16.94C229.425 18.62 229.755 20 230.415 21.08ZM245.332 22.25C244.282 21.56 243.472 20.6 242.902 19.4C242.302 18.2 242.032 16.91 242.032 15.47C242.032 13.97 242.332 12.62 242.992 11.42C243.652 10.22 244.522 9.26 245.662 8.54C246.772 7.85 248.002 7.49 249.322 7.49C250.462 7.49 251.482 7.76 252.322 8.27C253.162 8.81 253.822 9.5 254.272 10.37C254.722 11.27 254.962 12.23 254.962 13.25H245.212C245.182 13.37 245.182 13.55 245.182 13.76C245.182 15.17 245.392 16.4 245.842 17.48C246.262 18.56 246.892 19.4 247.702 20C248.512 20.6 249.472 20.87 250.552 20.87C251.752 20.87 252.772 20.51 253.612 19.79C254.452 19.07 254.992 18.14 255.232 16.94L255.652 17C255.472 18.2 255.052 19.28 254.452 20.24C253.852 21.2 253.072 21.95 252.112 22.49C251.152 23.03 250.102 23.3 248.962 23.3C247.582 23.3 246.382 22.97 245.332 22.25ZM250.492 12.74C250.912 12.74 251.242 12.65 251.422 12.44C251.602 12.23 251.722 11.87 251.722 11.39C251.722 10.55 251.482 9.77 251.062 9.05C250.612 8.33 249.952 7.94 249.082 7.94C248.182 7.94 247.342 8.42 246.622 9.35C245.872 10.31 245.422 11.42 245.242 12.74H250.492ZM265.694 22.61C266.354 22.61 266.894 22.46 267.284 22.16C267.674 21.86 267.884 21.35 267.884 20.6C267.884 20.36 267.854 20.15 267.854 20L266.924 13.13C266.564 10.58 265.514 9.29 263.804 9.29C263.024 9.29 262.334 9.62 261.794 10.25C261.254 10.91 260.924 11.66 260.864 12.56V19.97C260.864 20.96 261.044 21.65 261.404 22.04C261.764 22.43 262.274 22.61 262.964 22.61V23H255.524V22.61C256.184 22.61 256.694 22.43 257.054 22.01C257.414 21.62 257.624 20.93 257.624 19.97V11.06C257.624 10.34 257.444 9.86 257.144 9.56C256.844 9.26 256.334 9.11 255.644 9.08V8.69C257.564 8.57 259.214 8.18 260.594 7.52L260.864 7.67V11.27C261.134 10.19 261.674 9.29 262.484 8.57C263.294 7.85 264.254 7.49 265.394 7.49C266.684 7.49 267.734 7.97 268.574 8.87C269.384 9.77 269.924 11.18 270.194 13.04L271.214 20C271.334 20.96 271.574 21.65 271.964 22.04C272.324 22.43 272.834 22.61 273.494 22.61V23H265.694V22.61ZM275.461 4.61C275.071 4.19 274.891 3.68 274.891 3.02C274.891 2.42 275.071 1.94 275.461 1.55C275.851 1.16 276.361 0.95 276.991 0.95C277.621 0.95 278.131 1.16 278.521 1.55C278.911 1.94 279.121 2.42 279.121 3.02C279.121 3.68 278.911 4.19 278.521 4.61C278.131 5.03 277.621 5.21 276.991 5.21C276.361 5.21 275.851 5.03 275.461 4.61ZM273.541 22.61C274.201 22.61 274.711 22.43 275.071 22.01C275.431 21.62 275.641 20.93 275.641 19.97V11.06C275.641 10.34 275.461 9.86 275.161 9.56C274.861 9.26 274.351 9.11 273.661 9.08V8.69C275.581 8.57 277.231 8.18 278.611 7.52L278.881 7.67V19.97C278.881 20.96 279.061 21.65 279.421 22.04C279.781 22.43 280.291 22.61 280.981 22.61V23H273.541V22.61ZM291.417 22.61C292.077 22.61 292.617 22.46 293.007 22.16C293.397 21.86 293.607 21.35 293.607 20.6C293.607 20.36 293.577 20.15 293.577 20L292.647 13.13C292.287 10.58 291.237 9.29 289.527 9.29C288.747 9.29 288.057 9.62 287.517 10.25C286.977 10.91 286.647 11.66 286.587 12.56V19.97C286.587 20.96 286.767 21.65 287.127 22.04C287.487 22.43 287.997 22.61 288.687 22.61V23H281.247V22.61C281.907 22.61 282.417 22.43 282.777 22.01C283.137 21.62 283.347 20.93 283.347 19.97V11.06C283.347 10.34 283.167 9.86 282.867 9.56C282.567 9.26 282.057 9.11 281.367 9.08V8.69C283.287 8.57 284.937 8.18 286.317 7.52L286.587 7.67V11.27C286.857 10.19 287.397 9.29 288.207 8.57C289.017 7.85 289.977 7.49 291.117 7.49C292.407 7.49 293.457 7.97 294.297 8.87C295.107 9.77 295.647 11.18 295.917 13.04L296.937 20C297.057 20.96 297.297 21.65 297.687 22.04C298.047 22.43 298.557 22.61 299.217 22.61V23H291.417V22.61ZM301.91 28.7C301.04 28.34 300.38 27.86 299.93 27.26C299.48 26.69 299.27 26.09 299.27 25.46C299.27 25.04 299.54 24.62 300.08 24.2C300.62 23.81 301.37 23.39 302.33 22.97C301.52 22.79 300.89 22.46 300.44 21.92C299.99 21.38 299.78 20.78 299.78 20.09C299.78 19.85 299.81 19.64 299.93 19.52C300.02 19.4 300.26 19.19 300.65 18.92L301.37 18.41L302.6 17.48C301.64 17.06 300.89 16.43 300.35 15.62C299.81 14.84 299.54 13.91 299.54 12.86C299.54 11.81 299.81 10.88 300.35 10.04C300.89 9.2 301.67 8.57 302.66 8.09C303.62 7.64 304.76 7.4 306.02 7.4C306.41 7.4 306.98 7.46 307.76 7.58C308.78 7.73 309.62 7.79 310.34 7.79H313.46L312.95 8.99L310.04 8.93C310.76 9.44 311.3 10.04 311.69 10.73C312.05 11.45 312.26 12.17 312.26 12.95C312.26 13.97 311.99 14.9 311.45 15.68C310.91 16.46 310.19 17.09 309.23 17.51C308.27 17.96 307.19 18.17 305.93 18.17C304.82 18.17 303.83 17.99 302.96 17.63C302.54 17.99 302.24 18.29 302.12 18.47C301.97 18.65 301.91 18.83 301.91 18.95C301.91 19.76 302.51 20.15 303.71 20.15H309.35C310.55 20.15 311.48 20.36 312.17 20.78C312.86 21.2 313.22 21.92 313.22 22.94C313.22 23.96 312.83 24.95 312.11 25.91C311.39 26.9 310.37 27.71 309.11 28.34C307.85 28.97 306.44 29.27 304.91 29.27C303.77 29.27 302.75 29.09 301.91 28.7ZM303.35 26.84C304.19 27.38 305.3 27.65 306.68 27.65C307.76 27.65 308.69 27.5 309.53 27.17C310.34 26.87 310.97 26.45 311.42 25.97C311.87 25.49 312.11 24.98 312.11 24.47C312.11 24.05 311.93 23.69 311.57 23.45C311.21 23.21 310.7 23.06 310.01 23.06H303.35H302.99C302.63 23.36 302.33 23.66 302.15 23.93C301.97 24.2 301.88 24.53 301.91 24.89C302 25.67 302.48 26.3 303.35 26.84ZM303.65 16.19C304.34 17.18 305.24 17.66 306.32 17.66C307.19 17.66 307.88 17.27 308.42 16.43C308.93 15.59 309.2 14.57 309.2 13.34C309.2 12.38 309.02 11.51 308.72 10.67C308.42 9.83 307.97 9.17 307.43 8.66C306.89 8.18 306.26 7.91 305.6 7.91C304.64 7.91 303.92 8.36 303.41 9.26C302.87 10.16 302.63 11.18 302.63 12.38C302.63 13.94 302.96 15.23 303.65 16.19ZM315.464 22.64C315.074 22.22 314.894 21.71 314.894 21.05C314.894 20.45 315.074 19.97 315.464 19.55C315.854 19.16 316.364 18.95 316.994 18.95C317.594 18.95 318.104 19.16 318.494 19.55C318.884 19.97 319.094 20.45 319.094 21.05C319.094 21.71 318.884 22.22 318.494 22.64C318.104 23.06 317.594 23.24 316.994 23.24C316.364 23.24 315.854 23.06 315.464 22.64ZM315.464 12.98C315.074 12.56 314.894 12.05 314.894 11.39C314.894 10.79 315.074 10.31 315.464 9.89C315.854 9.5 316.364 9.29 316.994 9.29C317.594 9.29 318.104 9.5 318.494 9.89C318.884 10.31 319.094 10.79 319.094 11.39C319.094 12.05 318.884 12.56 318.494 12.98C318.104 13.4 317.594 13.58 316.994 13.58C316.364 13.58 315.854 13.4 315.464 12.98ZM0.8525 62.61C1.5125 62.61 2.0225 62.43 2.3825 62.01C2.7425 61.62 2.9525 60.93 2.9525 59.97V45.03C2.9525 44.07 2.7725 43.38 2.4125 42.99C2.0525 42.6 1.5125 42.39 0.8525 42.39V42H15.5525L16.4225 48.21L16.0625 48.3C15.3725 44.46 13.5125 42.51 10.4825 42.51H6.3725V52.47H9.6425C10.6625 52.47 11.3825 52.23 11.8325 51.69C12.2825 51.18 12.5225 50.28 12.5225 48.99H12.9125V56.52H12.5225C12.5225 55.26 12.2825 54.33 11.8325 53.79C11.3525 53.25 10.6325 52.98 9.6125 52.98H6.3725V59.97C6.3725 60.96 6.5825 61.65 7.0325 62.04C7.4525 62.43 8.0825 62.61 8.8925 62.61V63H0.8525V62.61ZM19.1016 62.25C18.0516 61.56 17.2416 60.6 16.6716 59.4C16.0716 58.2 15.8016 56.91 15.8016 55.47C15.8016 53.97 16.1016 52.62 16.7616 51.42C17.4216 50.22 18.2916 49.26 19.4316 48.54C20.5416 47.85 21.7716 47.49 23.0916 47.49C24.2316 47.49 25.2516 47.76 26.0916 48.27C26.9316 48.81 27.5916 49.5 28.0416 50.37C28.4916 51.27 28.7316 52.23 28.7316 53.25H18.9816C18.9516 53.37 18.9516 53.55 18.9516 53.76C18.9516 55.17 19.1616 56.4 19.6116 57.48C20.0316 58.56 20.6616 59.4 21.4716 60C22.2816 60.6 23.2416 60.87 24.3216 60.87C25.5216 60.87 26.5416 60.51 27.3816 59.79C28.2216 59.07 28.7616 58.14 29.0016 56.94L29.4216 57C29.2416 58.2 28.8216 59.28 28.2216 60.24C27.6216 61.2 26.8416 61.95 25.8816 62.49C24.9216 63.03 23.8716 63.3 22.7316 63.3C21.3516 63.3 20.1516 62.97 19.1016 62.25ZM24.2616 52.74C24.6816 52.74 25.0116 52.65 25.1916 52.44C25.3716 52.23 25.4916 51.87 25.4916 51.39C25.4916 50.55 25.2516 49.77 24.8316 49.05C24.3816 48.33 23.7216 47.94 22.8516 47.94C21.9516 47.94 21.1116 48.42 20.3916 49.35C19.6416 50.31 19.1916 51.42 19.0116 52.74H24.2616ZM34.1827 62.76C33.0727 62.4 32.0827 61.92 31.1827 61.32V44.37C31.1827 43.65 31.0027 43.14 30.7027 42.84C30.4027 42.54 29.8927 42.39 29.2027 42.39V42C31.1227 41.88 32.7727 41.49 34.1527 40.83L34.4227 40.98V51.15C34.6927 50.22 35.2627 49.38 36.1327 48.66C36.9727 47.94 37.9927 47.55 39.1627 47.55C40.3327 47.55 41.3827 47.91 42.3127 48.63C43.2127 49.35 43.9327 50.28 44.4427 51.45C44.9227 52.65 45.1927 53.91 45.1927 55.26C45.1927 56.82 44.8627 58.23 44.2027 59.43C43.5427 60.66 42.6127 61.62 41.4727 62.28C40.3327 62.97 39.0427 63.3 37.6627 63.3C36.4627 63.3 35.2927 63.12 34.1827 62.76ZM35.2627 61.35C35.8327 62.37 36.7027 62.85 37.8427 62.85C39.0427 62.85 40.0327 62.25 40.7527 61.02C41.4727 59.82 41.8327 58.23 41.8327 56.28C41.8327 54.84 41.6227 53.58 41.2627 52.5C40.9027 51.45 40.3927 50.64 39.7627 50.1C39.1027 49.56 38.3827 49.26 37.5727 49.26C36.7927 49.26 36.1327 49.56 35.5627 50.1C34.9627 50.64 34.6027 51.33 34.4227 52.17V56.61C34.4227 58.77 34.6927 60.33 35.2627 61.35ZM45.3481 62.61C46.0081 62.61 46.5181 62.43 46.8781 62.01C47.2381 61.62 47.4481 60.93 47.4481 59.97V51.06C47.4481 50.34 47.2981 49.86 46.9981 49.56C46.6981 49.26 46.1881 49.11 45.4681 49.08V48.69C47.3881 48.57 49.0381 48.18 50.4181 47.52L50.6881 47.67V50.94C50.9281 50.01 51.3781 49.2 52.0381 48.51C52.6981 47.85 53.4481 47.49 54.3481 47.49C55.0381 47.49 55.6081 47.73 56.0581 48.15C56.4781 48.6 56.7181 49.11 56.7181 49.68C56.7181 50.19 56.5381 50.61 56.2381 50.97C55.9381 51.33 55.5181 51.48 55.0081 51.48C54.6481 51.48 54.3781 51.42 54.1681 51.24C53.9581 51.09 53.7781 50.88 53.6581 50.64C53.5381 50.4 53.4181 50.16 53.3581 49.92C53.2381 49.68 53.1481 49.53 53.0581 49.41C52.9381 49.32 52.8181 49.26 52.6381 49.26C52.1581 49.26 51.7381 49.56 51.3781 50.1C51.0181 50.67 50.7781 51.33 50.6881 52.08V59.97C50.6881 60.93 50.9281 61.62 51.4081 62.01C51.8881 62.43 52.5481 62.61 53.4181 62.61V63H45.3481V62.61ZM61.2111 62.61C60.4611 62.13 59.8911 61.44 59.4711 60.54C59.0511 59.64 58.8411 58.56 58.8411 57.33V51.06C58.8411 50.34 58.6611 49.86 58.3611 49.56C58.0611 49.26 57.5511 49.11 56.8611 49.08V48.69C58.7811 48.57 60.4311 48.18 61.8111 47.52L62.0811 47.67V57C62.0811 58.38 62.3211 59.49 62.8611 60.27C63.3711 61.08 64.1511 61.47 65.2011 61.47C66.1011 61.47 66.7911 61.17 67.3011 60.54C67.8111 59.91 68.1111 59.16 68.2011 58.32V51.06C68.2011 50.34 68.0211 49.86 67.7211 49.56C67.4211 49.26 66.9111 49.11 66.2211 49.08V48.69C68.1411 48.57 69.7911 48.18 71.1711 47.52L71.4411 47.67V60.18C71.4411 60.84 71.5911 61.29 71.8911 61.53C72.1911 61.77 72.7311 61.86 73.4511 61.83V62.22C71.5011 62.46 69.8511 62.85 68.5011 63.36L68.2011 63.18V59.76C67.8711 60.72 67.3311 61.56 66.5811 62.28C65.8011 63 64.8711 63.33 63.7311 63.33C62.7711 63.33 61.9311 63.09 61.2111 62.61ZM84.211 62.43C83.731 61.89 83.431 61.11 83.311 60.12L83.221 59.46C83.101 60.12 82.801 60.75 82.381 61.32C81.931 61.92 81.361 62.4 80.671 62.76C79.951 63.12 79.171 63.3 78.301 63.3C77.041 63.3 75.991 62.94 75.181 62.22C74.371 61.5 73.981 60.57 73.981 59.43C73.981 58.41 74.311 57.57 75.031 56.91C75.751 56.25 76.771 55.86 78.091 55.74L82.651 55.38L82.441 53.85C82.261 52.44 81.841 51.33 81.181 50.52C80.521 49.74 79.651 49.32 78.571 49.32C77.701 49.32 76.951 49.59 76.291 50.07C75.631 50.55 75.151 51.21 74.821 52.02L74.431 51.93C74.611 51.21 74.971 50.49 75.511 49.8C76.051 49.14 76.711 48.57 77.521 48.15C78.331 47.73 79.231 47.49 80.221 47.49C81.721 47.49 82.951 47.97 83.881 48.93C84.811 49.89 85.381 51.27 85.621 53.04L86.491 59.67C86.641 60.81 87.031 61.35 87.691 61.35C87.871 61.35 88.051 61.29 88.201 61.11C88.351 60.96 88.441 60.75 88.501 60.48L88.861 60.51C88.801 61.23 88.561 61.86 88.081 62.4C87.601 62.97 86.971 63.24 86.191 63.24C85.351 63.24 84.691 62.97 84.211 62.43ZM77.791 60.72C78.301 61.26 78.991 61.53 79.891 61.53C80.791 61.53 81.541 61.26 82.141 60.72C82.711 60.18 83.041 59.52 83.131 58.77L82.711 55.83L79.771 56.07C78.871 56.16 78.181 56.46 77.701 56.94C77.221 57.42 77.011 58.05 77.011 58.77C77.011 59.55 77.251 60.18 77.791 60.72ZM88.854 62.61C89.514 62.61 90.024 62.43 90.384 62.01C90.744 61.62 90.954 60.93 90.954 59.97V51.06C90.954 50.34 90.804 49.86 90.504 49.56C90.204 49.26 89.694 49.11 88.974 49.08V48.69C90.894 48.57 92.544 48.18 93.924 47.52L94.194 47.67V50.94C94.434 50.01 94.884 49.2 95.544 48.51C96.204 47.85 96.954 47.49 97.854 47.49C98.544 47.49 99.114 47.73 99.564 48.15C99.984 48.6 100.224 49.11 100.224 49.68C100.224 50.19 100.044 50.61 99.744 50.97C99.444 51.33 99.024 51.48 98.514 51.48C98.154 51.48 97.884 51.42 97.674 51.24C97.464 51.09 97.284 50.88 97.164 50.64C97.044 50.4 96.924 50.16 96.864 49.92C96.744 49.68 96.654 49.53 96.564 49.41C96.444 49.32 96.324 49.26 96.144 49.26C95.664 49.26 95.244 49.56 94.884 50.1C94.524 50.67 94.284 51.33 94.194 52.08V59.97C94.194 60.93 94.434 61.62 94.914 62.01C95.394 62.43 96.054 62.61 96.924 62.61V63H88.854V62.61ZM104.987 68.7C104.207 68.34 103.577 67.83 103.157 67.23C102.737 66.63 102.527 65.97 102.527 65.28C102.527 64.8 102.677 64.44 102.977 64.14C103.277 63.84 103.637 63.69 104.087 63.69C104.537 63.69 104.927 63.87 105.227 64.2C105.527 64.53 105.707 64.92 105.707 65.4C105.707 65.64 105.677 65.85 105.617 66.09C105.587 66.18 105.557 66.3 105.557 66.42C105.527 66.57 105.527 66.69 105.527 66.81C105.527 67.41 105.737 67.89 106.187 68.25C106.607 68.61 107.147 68.76 107.777 68.76C110.387 68.76 111.707 66.42 111.707 61.68V59.34C111.377 60.3 110.837 61.14 110.087 61.86C109.307 62.58 108.377 62.91 107.237 62.91C106.277 62.91 105.437 62.67 104.717 62.19C103.967 61.71 103.397 61.02 102.977 60.12C102.557 59.22 102.347 58.14 102.347 56.91V51.06C102.347 50.34 102.167 49.86 101.867 49.56C101.567 49.26 101.057 49.11 100.367 49.08V48.69C102.287 48.57 103.937 48.18 105.317 47.52L105.587 47.67V56.58C105.587 57.96 105.827 59.07 106.367 59.85C106.877 60.66 107.657 61.05 108.707 61.05C109.607 61.05 110.297 60.75 110.807 60.12C111.317 59.49 111.617 58.74 111.707 57.9V51.06C111.707 50.34 111.527 49.86 111.227 49.56C110.927 49.26 110.417 49.11 109.727 49.08V48.69C111.647 48.57 113.297 48.18 114.677 47.52L114.947 47.67V61.32C114.947 63.03 114.587 64.47 113.927 65.67C113.237 66.87 112.337 67.77 111.257 68.37C110.177 68.97 109.007 69.24 107.747 69.24C106.697 69.24 105.767 69.06 104.987 68.7ZM129.347 54.54C130.697 52.38 131.387 50.28 131.387 48.3C131.387 46.71 130.997 45.51 130.277 44.7C129.527 43.92 128.627 43.5 127.607 43.5C126.677 43.5 125.867 43.83 125.177 44.49C124.457 45.15 124.007 45.93 123.797 46.89L123.347 46.83C123.497 45.93 123.857 45.06 124.427 44.28C124.967 43.5 125.687 42.87 126.527 42.39C127.367 41.91 128.267 41.67 129.287 41.67C130.277 41.67 131.207 41.94 132.047 42.42C132.887 42.9 133.577 43.59 134.087 44.49C134.597 45.39 134.867 46.38 134.867 47.49C134.867 48.87 134.507 50.22 133.787 51.48C133.067 52.77 132.077 54.03 130.847 55.29C129.617 56.55 127.817 58.23 125.477 60.33H130.457C131.627 60.33 132.527 60.24 133.127 60.06C133.727 59.88 134.177 59.55 134.507 59.07C134.807 58.62 135.107 57.9 135.407 56.88L135.767 56.97L134.597 63H122.777V62.46C125.807 59.34 127.997 56.7 129.347 54.54ZM136.599 62.61C137.529 62.61 138.249 62.43 138.759 62.04C139.269 61.65 139.539 60.96 139.539 59.97V47.4C139.539 46.77 139.389 46.32 139.149 46.02C138.879 45.72 138.429 45.57 137.829 45.57H135.909V45.15C137.469 45.12 138.879 44.79 140.109 44.19C141.309 43.59 142.089 42.66 142.449 41.4H142.929V59.97C142.929 60.96 143.169 61.65 143.679 62.04C144.189 62.43 144.909 62.61 145.869 62.61V63H136.599V62.61ZM148.827 65.55C149.307 65.01 149.577 64.47 149.577 63.93C149.577 63.63 149.487 63.42 149.337 63.27C149.157 63.12 148.917 62.94 148.587 62.76C148.137 62.55 147.807 62.31 147.597 62.07C147.357 61.83 147.267 61.44 147.267 60.9C147.267 60.36 147.447 59.91 147.837 59.55C148.197 59.19 148.647 58.98 149.187 58.98C149.847 58.98 150.357 59.25 150.777 59.79C151.167 60.33 151.377 60.99 151.377 61.77C151.377 63.09 150.927 64.2 150.087 65.16C149.247 66.12 148.257 66.81 147.177 67.17L147.027 66.78C147.717 66.51 148.317 66.09 148.827 65.55ZM164.855 54.54C166.205 52.38 166.895 50.28 166.895 48.3C166.895 46.71 166.505 45.51 165.785 44.7C165.035 43.92 164.135 43.5 163.115 43.5C162.185 43.5 161.375 43.83 160.685 44.49C159.965 45.15 159.515 45.93 159.305 46.89L158.855 46.83C159.005 45.93 159.365 45.06 159.935 44.28C160.475 43.5 161.195 42.87 162.035 42.39C162.875 41.91 163.775 41.67 164.795 41.67C165.785 41.67 166.715 41.94 167.555 42.42C168.395 42.9 169.085 43.59 169.595 44.49C170.105 45.39 170.375 46.38 170.375 47.49C170.375 48.87 170.015 50.22 169.295 51.48C168.575 52.77 167.585 54.03 166.355 55.29C165.125 56.55 163.325 58.23 160.985 60.33H165.965C167.135 60.33 168.035 60.24 168.635 60.06C169.235 59.88 169.685 59.55 170.015 59.07C170.315 58.62 170.615 57.9 170.915 56.88L171.275 56.97L170.105 63H158.285V62.46C161.315 59.34 163.505 56.7 164.855 54.54ZM176.384 61.98C175.184 61.11 174.254 59.85 173.564 58.2C172.874 56.55 172.544 54.63 172.544 52.41C172.544 50.19 172.874 48.24 173.594 46.62C174.284 45 175.214 43.8 176.354 42.96C177.494 42.12 178.754 41.7 180.104 41.7C181.424 41.7 182.684 42.15 183.824 42.99C184.964 43.83 185.894 45.09 186.584 46.71C187.244 48.33 187.604 50.25 187.604 52.47C187.604 54.72 187.244 56.67 186.584 58.29C185.924 59.91 185.024 61.17 183.914 62.01C182.804 62.88 181.604 63.3 180.314 63.3C178.874 63.3 177.554 62.88 176.384 61.98ZM177.854 60.3C178.634 61.92 179.594 62.7 180.764 62.7C180.884 62.7 181.034 62.7 181.244 62.64C182.174 62.46 182.894 61.59 183.374 60C183.854 58.41 184.124 56.46 184.124 54.18C184.124 53.04 184.064 51.9 183.944 50.76C183.644 48.21 183.134 46.17 182.414 44.64C181.664 43.11 180.704 42.33 179.564 42.33C179.414 42.33 179.234 42.36 178.994 42.39C178.034 42.6 177.284 43.5 176.804 45.06C176.324 46.62 176.084 48.54 176.084 50.79C176.084 51.93 176.144 53.04 176.264 54.15C176.534 56.67 177.074 58.71 177.854 60.3ZM194.415 54.54C195.765 52.38 196.455 50.28 196.455 48.3C196.455 46.71 196.065 45.51 195.345 44.7C194.595 43.92 193.695 43.5 192.675 43.5C191.745 43.5 190.935 43.83 190.245 44.49C189.525 45.15 189.075 45.93 188.865 46.89L188.415 46.83C188.565 45.93 188.925 45.06 189.495 44.28C190.035 43.5 190.755 42.87 191.595 42.39C192.435 41.91 193.335 41.67 194.355 41.67C195.345 41.67 196.275 41.94 197.115 42.42C197.955 42.9 198.645 43.59 199.155 44.49C199.665 45.39 199.935 46.38 199.935 47.49C199.935 48.87 199.575 50.22 198.855 51.48C198.135 52.77 197.145 54.03 195.915 55.29C194.685 56.55 192.885 58.23 190.545 60.33H195.525C196.695 60.33 197.595 60.24 198.195 60.06C198.795 59.88 199.245 59.55 199.575 59.07C199.875 58.62 200.175 57.9 200.475 56.88L200.835 56.97L199.665 63H187.845V62.46C190.875 59.34 193.065 56.7 194.415 54.54ZM206.582 62.61C207.362 62.61 207.992 62.43 208.442 62.01C208.862 61.62 209.102 60.93 209.102 59.97V58.08H201.062V57.51L211.982 41.52H212.492V56.07H215.252V58.08H212.492V59.97C212.492 60.96 212.702 61.65 213.152 62.04C213.572 62.43 214.202 62.61 215.012 62.61V63H206.582V62.61ZM209.102 56.07V46.44L202.832 56.07H209.102ZM218.554 65.55C219.034 65.01 219.304 64.47 219.304 63.93C219.304 63.63 219.214 63.42 219.064 63.27C218.884 63.12 218.644 62.94 218.314 62.76C217.864 62.55 217.534 62.31 217.324 62.07C217.084 61.83 216.994 61.44 216.994 60.9C216.994 60.36 217.174 59.91 217.564 59.55C217.924 59.19 218.374 58.98 218.914 58.98C219.574 58.98 220.084 59.25 220.504 59.79C220.894 60.33 221.104 60.99 221.104 61.77C221.104 63.09 220.654 64.2 219.814 65.16C218.974 66.12 217.984 66.81 216.904 67.17L216.754 66.78C217.444 66.51 218.044 66.09 218.554 65.55ZM238.781 62.43C238.301 61.89 238.001 61.11 237.881 60.12L237.791 59.46C237.671 60.12 237.371 60.75 236.951 61.32C236.501 61.92 235.931 62.4 235.241 62.76C234.521 63.12 233.741 63.3 232.871 63.3C231.611 63.3 230.561 62.94 229.751 62.22C228.941 61.5 228.551 60.57 228.551 59.43C228.551 58.41 228.881 57.57 229.601 56.91C230.321 56.25 231.341 55.86 232.661 55.74L237.221 55.38L237.011 53.85C236.831 52.44 236.411 51.33 235.751 50.52C235.091 49.74 234.221 49.32 233.141 49.32C232.271 49.32 231.521 49.59 230.861 50.07C230.201 50.55 229.721 51.21 229.391 52.02L229.001 51.93C229.181 51.21 229.541 50.49 230.081 49.8C230.621 49.14 231.281 48.57 232.091 48.15C232.901 47.73 233.801 47.49 234.791 47.49C236.291 47.49 237.521 47.97 238.451 48.93C239.381 49.89 239.951 51.27 240.191 53.04L241.061 59.67C241.211 60.81 241.601 61.35 242.261 61.35C242.441 61.35 242.621 61.29 242.771 61.11C242.921 60.96 243.011 60.75 243.071 60.48L243.431 60.51C243.371 61.23 243.131 61.86 242.651 62.4C242.171 62.97 241.541 63.24 240.761 63.24C239.921 63.24 239.261 62.97 238.781 62.43ZM232.361 60.72C232.871 61.26 233.561 61.53 234.461 61.53C235.361 61.53 236.111 61.26 236.711 60.72C237.281 60.18 237.611 59.52 237.701 58.77L237.281 55.83L234.341 56.07C233.441 56.16 232.751 56.46 232.271 56.94C231.791 57.42 231.581 58.05 231.581 58.77C231.581 59.55 231.821 60.18 232.361 60.72ZM245.811 61.92C245.091 60.99 244.731 59.79 244.731 58.29V48.99H242.841V48.57C244.071 48.45 245.121 48.03 245.961 47.25C246.801 46.47 247.341 45.42 247.581 44.07H248.001V47.79H252.471L251.961 48.99H248.001V57.96C248.001 58.98 248.211 59.82 248.631 60.45C249.051 61.11 249.651 61.41 250.401 61.41C251.001 61.41 251.481 61.23 251.871 60.81C252.261 60.39 252.531 59.88 252.681 59.25L253.041 59.31C252.891 60.45 252.441 61.38 251.721 62.16C250.971 62.94 250.071 63.3 249.051 63.3C247.611 63.3 246.531 62.85 245.811 61.92ZM260.261 62.61C261.191 62.61 261.911 62.43 262.421 62.04C262.931 61.65 263.201 60.96 263.201 59.97V47.4C263.201 46.77 263.051 46.32 262.811 46.02C262.541 45.72 262.091 45.57 261.491 45.57H259.571V45.15C261.131 45.12 262.541 44.79 263.771 44.19C264.971 43.59 265.751 42.66 266.111 41.4H266.591V59.97C266.591 60.96 266.831 61.65 267.341 62.04C267.851 62.43 268.571 62.61 269.531 62.61V63H260.261V62.61ZM272.684 62.58C271.694 62.1 270.944 61.44 270.404 60.63C269.864 59.85 269.594 58.98 269.594 58.05C269.594 56.79 270.014 55.68 270.914 54.78C271.784 53.88 272.924 53.16 274.334 52.68C273.014 51.96 272.024 51.15 271.394 50.25C270.734 49.38 270.434 48.39 270.434 47.25C270.434 46.32 270.674 45.42 271.184 44.58C271.694 43.74 272.414 43.05 273.344 42.51C274.244 41.97 275.294 41.7 276.464 41.7C277.514 41.7 278.474 41.94 279.374 42.36C280.274 42.81 280.964 43.41 281.504 44.16C282.014 44.91 282.284 45.72 282.284 46.59C282.284 47.79 281.894 48.75 281.114 49.53C280.334 50.31 279.374 50.85 278.174 51.15L278.774 51.48C280.244 52.32 281.354 53.22 282.104 54.18C282.824 55.14 283.214 56.22 283.214 57.36C283.214 58.44 282.884 59.46 282.254 60.36C281.624 61.26 280.754 61.98 279.674 62.52C278.594 63.06 277.394 63.3 276.134 63.3C274.814 63.3 273.674 63.06 272.684 62.58ZM273.314 59.94C273.674 60.78 274.154 61.47 274.814 61.98C275.444 62.49 276.164 62.73 276.944 62.73C277.904 62.73 278.684 62.37 279.284 61.62C279.884 60.9 280.214 60 280.214 58.92C280.214 57.87 279.914 56.97 279.374 56.19C278.834 55.44 278.054 54.78 277.034 54.18L274.994 53.07C274.304 53.58 273.764 54.15 273.374 54.81C272.954 55.47 272.774 56.28 272.774 57.27C272.774 58.23 272.954 59.1 273.314 59.94ZM274.184 48.36C274.724 49.05 275.534 49.71 276.674 50.31L277.514 50.79C278.114 50.37 278.594 49.8 278.894 49.14C279.194 48.48 279.344 47.76 279.344 46.95C279.344 46.08 279.194 45.27 278.924 44.55C278.624 43.83 278.264 43.26 277.784 42.84C277.304 42.42 276.764 42.21 276.194 42.21C275.354 42.21 274.694 42.57 274.184 43.26C273.644 43.98 273.404 44.79 273.404 45.75C273.404 46.8 273.644 47.67 274.184 48.36ZM285.318 62.64C284.928 62.22 284.748 61.71 284.748 61.05C284.748 60.45 284.928 59.97 285.318 59.55C285.708 59.16 286.218 58.95 286.848 58.95C287.448 58.95 287.958 59.16 288.348 59.55C288.738 59.97 288.948 60.45 288.948 61.05C288.948 61.71 288.738 62.22 288.348 62.64C287.958 63.06 287.448 63.24 286.848 63.24C286.218 63.24 285.708 63.06 285.318 62.64ZM285.318 52.98C284.928 52.56 284.748 52.05 284.748 51.39C284.748 50.79 284.928 50.31 285.318 49.89C285.708 49.5 286.218 49.29 286.848 49.29C287.448 49.29 287.958 49.5 288.348 49.89C288.738 50.31 288.948 50.79 288.948 51.39C288.948 52.05 288.738 52.56 288.348 52.98C287.958 53.4 287.448 53.58 286.848 53.58C286.218 53.58 285.708 53.4 285.318 52.98ZM292.652 62.67C291.782 62.31 291.092 61.77 290.582 61.08C290.042 60.42 289.802 59.64 289.802 58.8C289.802 58.26 289.952 57.81 290.312 57.45C290.642 57.09 291.062 56.91 291.542 56.91C291.962 56.91 292.322 57.09 292.622 57.39C292.892 57.72 293.042 58.08 293.042 58.5C293.042 58.83 292.922 59.22 292.742 59.64C292.502 60.06 292.412 60.42 292.412 60.78C292.412 61.35 292.652 61.8 293.132 62.16C293.612 62.52 294.212 62.67 294.932 62.67C295.652 62.67 296.312 62.43 296.912 61.89C297.512 61.38 297.962 60.72 298.322 59.88C298.652 59.04 298.832 58.17 298.832 57.24C298.832 55.62 298.352 54.3 297.422 53.28C296.492 52.26 295.262 51.72 293.732 51.72V51.3C294.992 51.18 295.982 50.76 296.762 50.04C297.512 49.32 297.902 48.36 297.902 47.13C297.902 45.93 297.572 45 296.912 44.34C296.252 43.68 295.472 43.35 294.542 43.35C293.822 43.35 293.132 43.59 292.502 44.07C291.842 44.55 291.362 45.27 291.062 46.2L290.612 46.08C290.912 44.79 291.572 43.71 292.562 42.87C293.552 42.03 294.752 41.58 296.162 41.58C296.972 41.58 297.752 41.79 298.472 42.15C299.192 42.51 299.792 43.05 300.242 43.74C300.692 44.43 300.932 45.24 300.932 46.14C300.932 46.86 300.752 47.52 300.422 48.18C300.062 48.84 299.612 49.38 299.012 49.8C298.412 50.22 297.752 50.49 297.062 50.55C298.052 50.67 298.952 51 299.792 51.54C300.602 52.08 301.232 52.8 301.712 53.67C302.192 54.57 302.432 55.56 302.432 56.64C302.432 57.96 302.102 59.1 301.442 60.09C300.782 61.11 299.882 61.86 298.802 62.4C297.722 62.94 296.582 63.21 295.382 63.21C294.422 63.21 293.492 63.03 292.652 62.67ZM307.722 61.98C306.522 61.11 305.592 59.85 304.902 58.2C304.212 56.55 303.882 54.63 303.882 52.41C303.882 50.19 304.212 48.24 304.932 46.62C305.622 45 306.552 43.8 307.692 42.96C308.832 42.12 310.092 41.7 311.442 41.7C312.762 41.7 314.022 42.15 315.162 42.99C316.302 43.83 317.232 45.09 317.922 46.71C318.582 48.33 318.942 50.25 318.942 52.47C318.942 54.72 318.582 56.67 317.922 58.29C317.262 59.91 316.362 61.17 315.252 62.01C314.142 62.88 312.942 63.3 311.652 63.3C310.212 63.3 308.892 62.88 307.722 61.98ZM309.192 60.3C309.972 61.92 310.932 62.7 312.102 62.7C312.222 62.7 312.372 62.7 312.582 62.64C313.512 62.46 314.232 61.59 314.712 60C315.192 58.41 315.462 56.46 315.462 54.18C315.462 53.04 315.402 51.9 315.282 50.76C314.982 48.21 314.472 46.17 313.752 44.64C313.002 43.11 312.042 42.33 310.902 42.33C310.752 42.33 310.572 42.36 310.332 42.39C309.372 42.6 308.622 43.5 308.142 45.06C307.662 46.62 307.422 48.54 307.422 50.79C307.422 51.93 307.482 53.04 307.602 54.15C307.872 56.67 308.412 58.71 309.192 60.3Z" fill="black"/>
</svg>
