<svg viewBox="0 0 650 77" fill="none" xmlns="http://www.w3.org/2000/svg">
<path d="M7.53078 28.56C5.37078 27.28 3.61078 25.56 2.33078 23.36C1.01078 21.2 0.370781 18.76 0.370781 16.12C0.370781 13.32 1.01078 10.8 2.29078 8.56C3.57078 6.36 5.29078 4.64 7.41078 3.4C9.53078 2.2 11.8108 1.56 14.2508 1.56C16.7308 1.56 19.0108 2.2 21.1708 3.48C23.2908 4.76 24.9708 6.52 26.2508 8.72C27.5308 10.92 28.1708 13.32 28.1708 15.96C28.1708 18.76 27.5308 21.24 26.2508 23.44C24.9708 25.64 23.2908 27.36 21.2108 28.6C19.0908 29.84 16.8108 30.44 14.3708 30.44C11.9708 30.44 9.69078 29.84 7.53078 28.56ZM7.09078 23.28C8.01078 25.2 9.17078 26.76 10.5708 27.88C11.9708 29.04 13.5308 29.6 15.2108 29.6C16.8108 29.6 18.2108 29.12 19.4508 28.08C20.6908 27.08 21.6508 25.68 22.3708 23.88C23.0508 22.08 23.4108 20.04 23.4108 17.72C23.4108 16.76 23.3308 15.84 23.2508 14.96C22.9308 12.6 22.3708 10.48 21.4908 8.56C20.6108 6.64 19.4508 5.16 18.0908 4.04C16.7308 2.92 15.1708 2.36 13.4908 2.36C12.9308 2.36 12.5308 2.4 12.2908 2.44C10.8908 2.68 9.65078 3.36 8.57078 4.44C7.49078 5.52 6.65078 6.92 6.05078 8.6C5.41078 10.32 5.13078 12.2 5.13078 14.28C5.13078 15.24 5.17078 16.16 5.29078 16.96C5.57078 19.28 6.17078 21.36 7.09078 23.28ZM33.648 28.56C32.688 27.32 32.208 25.72 32.208 23.72V11.32H29.688V10.76C31.328 10.6 32.728 10.04 33.848 9C34.968 7.96 35.688 6.56 36.008 4.76H36.568V9.72H42.528L41.848 11.32H36.568V23.28C36.568 24.64 36.848 25.76 37.408 26.6C37.968 27.48 38.768 27.88 39.768 27.88C40.568 27.88 41.208 27.64 41.728 27.08C42.248 26.52 42.608 25.84 42.808 25L43.288 25.08C43.088 26.6 42.488 27.84 41.528 28.88C40.528 29.92 39.328 30.4 37.968 30.4C36.048 30.4 34.608 29.8 33.648 28.56ZM47.1636 28.56C46.2036 27.32 45.7236 25.72 45.7236 23.72V11.32H43.2036V10.76C44.8436 10.6 46.2436 10.04 47.3636 9C48.4836 7.96 49.2036 6.56 49.5236 4.76H50.0836V9.72H56.0436L55.3636 11.32H50.0836V23.28C50.0836 24.64 50.3636 25.76 50.9236 26.6C51.4836 27.48 52.2836 27.88 53.2836 27.88C54.0836 27.88 54.7236 27.64 55.2436 27.08C55.7636 26.52 56.1236 25.84 56.3236 25L56.8036 25.08C56.6036 26.6 56.0036 27.84 55.0436 28.88C54.0436 29.92 52.8436 30.4 51.4836 30.4C49.5636 30.4 48.1236 29.8 47.1636 28.56ZM62.0086 29C60.4486 28.08 59.2086 26.8 58.3286 25.16C57.4086 23.56 56.9686 21.76 56.9686 19.76C56.9686 17.72 57.4086 15.92 58.3286 14.32C59.2086 12.72 60.4486 11.52 62.0086 10.64C63.5286 9.76 65.2086 9.32 67.0486 9.32C68.8886 9.32 70.5686 9.8 72.0886 10.68C73.6086 11.6 74.8486 12.84 75.7686 14.44C76.6486 16.04 77.1286 17.84 77.1286 19.84C77.1286 21.88 76.6886 23.72 75.8086 25.32C74.9286 26.92 73.6886 28.2 72.1686 29.08C70.6486 29.96 68.9686 30.4 67.1286 30.4C65.2486 30.4 63.5286 29.96 62.0086 29ZM63.8486 27.16C64.9686 28.84 66.3286 29.64 67.8486 29.64C69.3686 29.64 70.5286 28.92 71.3686 27.44C72.1686 26 72.6086 24.08 72.6086 21.72C72.6086 20.96 72.5286 20 72.4086 18.88C72.0486 16.24 71.3286 14.12 70.2086 12.52C69.0886 10.92 67.8086 10.08 66.3286 10.08C64.7686 10.08 63.5686 10.84 62.7286 12.32C61.8886 13.84 61.4886 15.76 61.4886 18.08C61.4886 19.04 61.5286 19.88 61.6486 20.64C61.9686 23.32 62.7286 25.48 63.8486 27.16ZM91.242 29.04C89.962 28.16 89.002 26.92 88.282 25.32C87.562 23.76 87.242 22 87.242 20.08C87.242 18.16 87.642 16.36 88.482 14.72C89.282 13.12 90.442 11.8 91.882 10.84C93.322 9.88 94.882 9.4 96.642 9.4C98.722 9.4 100.482 10.2 101.842 11.8V5.16C101.842 4.2 101.642 3.52 101.242 3.12C100.842 2.72 100.162 2.52 99.242 2.52V2C101.802 1.84 104.002 1.32 105.802 0.439999L106.202 0.639999V26.24C106.202 27.12 106.402 27.72 106.802 28.04C107.202 28.36 107.882 28.48 108.842 28.44V28.96C106.202 29.28 104.042 29.8 102.282 30.48L101.842 30.24V26.08C101.442 27.16 100.682 28.16 99.562 29.04C98.402 29.96 97.042 30.4 95.442 30.4C93.882 30.4 92.482 29.96 91.242 29.04ZM92.602 23.68C93.122 25.12 93.842 26.16 94.762 26.88C95.642 27.6 96.642 27.96 97.722 27.96C98.682 27.96 99.562 27.68 100.282 27.12C101.002 26.56 101.522 25.8 101.842 24.84V18.44C101.842 16.2 101.402 14.24 100.522 12.6C99.642 11 98.442 10.16 96.962 10.16C95.922 10.16 95.042 10.56 94.242 11.28C93.442 12 92.842 13 92.442 14.28C92.002 15.56 91.802 17 91.802 18.6C91.802 20.6 92.042 22.28 92.602 23.68ZM111.775 5.48C111.255 4.92 111.015 4.24 111.015 3.36C111.015 2.56 111.255 1.92 111.775 1.4C112.295 0.879998 112.975 0.599999 113.815 0.599999C114.655 0.599999 115.335 0.879998 115.855 1.4C116.375 1.92 116.655 2.56 116.655 3.36C116.655 4.24 116.375 4.92 115.855 5.48C115.335 6.04 114.655 6.28 113.815 6.28C112.975 6.28 112.295 6.04 111.775 5.48ZM109.215 29.48C110.095 29.48 110.775 29.24 111.255 28.68C111.735 28.16 112.015 27.24 112.015 25.96V14.08C112.015 13.12 111.775 12.48 111.375 12.08C110.975 11.68 110.295 11.48 109.375 11.44V10.92C111.935 10.76 114.135 10.24 115.975 9.36L116.335 9.56V25.96C116.335 27.28 116.575 28.2 117.055 28.72C117.535 29.24 118.215 29.48 119.135 29.48V30H109.215V29.48ZM125.188 29.68C123.708 29.2 122.388 28.56 121.188 27.76V5.16C121.188 4.2 120.948 3.52 120.548 3.12C120.148 2.72 119.468 2.52 118.548 2.52V2C121.108 1.84 123.308 1.32 125.148 0.439999L125.508 0.639999V14.2C125.868 12.96 126.628 11.84 127.788 10.88C128.908 9.92 130.268 9.4 131.828 9.4C133.388 9.4 134.788 9.88 136.028 10.84C137.228 11.8 138.188 13.04 138.868 14.6C139.508 16.2 139.868 17.88 139.868 19.68C139.868 21.76 139.428 23.64 138.548 25.24C137.668 26.88 136.428 28.16 134.908 29.04C133.388 29.96 131.668 30.4 129.828 30.4C128.228 30.4 126.668 30.16 125.188 29.68ZM126.628 27.8C127.388 29.16 128.548 29.8 130.068 29.8C131.668 29.8 132.988 29 133.948 27.36C134.908 25.76 135.388 23.64 135.388 21.04C135.388 19.12 135.108 17.44 134.628 16C134.148 14.6 133.468 13.52 132.628 12.8C131.748 12.08 130.788 11.68 129.708 11.68C128.668 11.68 127.788 12.08 127.028 12.8C126.228 13.52 125.748 14.44 125.508 15.56V21.48C125.508 24.36 125.868 26.44 126.628 27.8ZM155.056 29.24C154.416 28.52 154.016 27.48 153.856 26.16L153.736 25.28C153.576 26.16 153.176 27 152.616 27.76C152.016 28.56 151.256 29.2 150.336 29.68C149.376 30.16 148.336 30.4 147.176 30.4C145.496 30.4 144.096 29.92 143.016 28.96C141.936 28 141.416 26.76 141.416 25.24C141.416 23.88 141.856 22.76 142.816 21.88C143.776 21 145.136 20.48 146.896 20.32L152.976 19.84L152.696 17.8C152.456 15.92 151.896 14.44 151.016 13.36C150.136 12.32 148.976 11.76 147.536 11.76C146.376 11.76 145.376 12.12 144.496 12.76C143.616 13.4 142.976 14.28 142.536 15.36L142.016 15.24C142.256 14.28 142.736 13.32 143.456 12.4C144.176 11.52 145.056 10.76 146.136 10.2C147.216 9.64 148.416 9.32 149.736 9.32C151.736 9.32 153.376 9.96 154.616 11.24C155.856 12.52 156.616 14.36 156.936 16.72L158.096 25.56C158.296 27.08 158.816 27.8 159.696 27.8C159.936 27.8 160.176 27.72 160.376 27.48C160.576 27.28 160.696 27 160.776 26.64L161.256 26.68C161.176 27.64 160.856 28.48 160.216 29.2C159.576 29.96 158.736 30.32 157.696 30.32C156.576 30.32 155.696 29.96 155.056 29.24ZM146.496 26.96C147.176 27.68 148.096 28.04 149.296 28.04C150.496 28.04 151.496 27.68 152.296 26.96C153.056 26.24 153.496 25.36 153.616 24.36L153.056 20.44L149.136 20.76C147.936 20.88 147.016 21.28 146.376 21.92C145.736 22.56 145.456 23.4 145.456 24.36C145.456 25.4 145.776 26.24 146.496 26.96ZM164.429 28.56C163.469 27.32 162.989 25.72 162.989 23.72V11.32H160.469V10.76C162.109 10.6 163.509 10.04 164.629 9C165.749 7.96 166.469 6.56 166.789 4.76H167.349V9.72H173.309L172.629 11.32H167.349V23.28C167.349 24.64 167.629 25.76 168.189 26.6C168.749 27.48 169.549 27.88 170.549 27.88C171.349 27.88 171.989 27.64 172.509 27.08C173.029 26.52 173.389 25.84 173.589 25L174.069 25.08C173.869 26.6 173.269 27.84 172.309 28.88C171.309 29.92 170.109 30.4 168.749 30.4C166.829 30.4 165.389 29.8 164.429 28.56ZM177.945 28.56C176.985 27.32 176.505 25.72 176.505 23.72V11.32H173.985V10.76C175.625 10.6 177.025 10.04 178.145 9C179.265 7.96 179.985 6.56 180.305 4.76H180.865V9.72H186.825L186.145 11.32H180.865V23.28C180.865 24.64 181.145 25.76 181.705 26.6C182.265 27.48 183.065 27.88 184.065 27.88C184.865 27.88 185.505 27.64 186.025 27.08C186.545 26.52 186.905 25.84 187.105 25L187.585 25.08C187.385 26.6 186.785 27.84 185.825 28.88C184.825 29.92 183.625 30.4 182.265 30.4C180.345 30.4 178.905 29.8 177.945 28.56ZM190.096 5.48C189.576 4.92 189.336 4.24 189.336 3.36C189.336 2.56 189.576 1.92 190.096 1.4C190.616 0.879998 191.296 0.599999 192.136 0.599999C192.976 0.599999 193.656 0.879998 194.176 1.4C194.696 1.92 194.976 2.56 194.976 3.36C194.976 4.24 194.696 4.92 194.176 5.48C193.656 6.04 192.976 6.28 192.136 6.28C191.296 6.28 190.616 6.04 190.096 5.48ZM187.536 29.48C188.416 29.48 189.096 29.24 189.576 28.68C190.056 28.16 190.336 27.24 190.336 25.96V14.08C190.336 13.12 190.096 12.48 189.696 12.08C189.296 11.68 188.616 11.48 187.696 11.44V10.92C190.256 10.76 192.456 10.24 194.296 9.36L194.656 9.56V25.96C194.656 27.28 194.896 28.2 195.376 28.72C195.856 29.24 196.536 29.48 197.456 29.48V30H187.536V29.48ZM201.07 28.56C200.11 27.32 199.63 25.72 199.63 23.72V11.32H197.11V10.76C198.75 10.6 200.15 10.04 201.27 9C202.39 7.96 203.11 6.56 203.43 4.76H203.99V9.72H209.95L209.27 11.32H203.99V23.28C203.99 24.64 204.27 25.76 204.83 26.6C205.39 27.48 206.19 27.88 207.19 27.88C207.99 27.88 208.63 27.64 209.15 27.08C209.67 26.52 210.03 25.84 210.23 25L210.71 25.08C210.51 26.6 209.91 27.84 208.95 28.88C207.95 29.92 206.75 30.4 205.39 30.4C203.47 30.4 202.03 29.8 201.07 28.56ZM213.221 5.48C212.701 4.92 212.461 4.24 212.461 3.36C212.461 2.56 212.701 1.92 213.221 1.4C213.741 0.879998 214.421 0.599999 215.261 0.599999C216.101 0.599999 216.781 0.879998 217.301 1.4C217.821 1.92 218.101 2.56 218.101 3.36C218.101 4.24 217.821 4.92 217.301 5.48C216.781 6.04 216.101 6.28 215.261 6.28C214.421 6.28 213.741 6.04 213.221 5.48ZM210.661 29.48C211.541 29.48 212.221 29.24 212.701 28.68C213.181 28.16 213.461 27.24 213.461 25.96V14.08C213.461 13.12 213.221 12.48 212.821 12.08C212.421 11.68 211.741 11.48 210.821 11.44V10.92C213.381 10.76 215.581 10.24 217.421 9.36L217.781 9.56V25.96C217.781 27.28 218.021 28.2 218.501 28.72C218.981 29.24 219.661 29.48 220.581 29.48V30H210.661V29.48ZM230.17 22.04L230.69 21.92C231.33 23.96 232.25 25.76 233.45 27.32C234.65 28.92 236.21 29.72 238.21 29.72C239.45 29.72 240.45 29.4 241.17 28.76C241.89 28.12 242.29 27.28 242.33 26.28C242.33 25.32 241.97 24.48 241.29 23.84C240.57 23.2 239.45 22.6 237.85 22.04L235.45 21.08C233.77 20.44 232.53 19.68 231.65 18.72C230.77 17.76 230.37 16.56 230.37 15.12C230.37 14.08 230.65 13.08 231.29 12.2C231.89 11.32 232.73 10.64 233.81 10.12C234.89 9.64 236.09 9.36 237.37 9.36C238.41 9.36 239.61 9.6 240.93 10.04C241.65 10.28 242.13 10.36 242.37 10.36C242.93 10.36 243.37 9.96 243.61 9.12L244.17 9.08L244.69 16.92L244.13 17C243.81 15.96 243.33 14.92 242.69 13.84C242.05 12.76 241.25 11.84 240.33 11.08C239.37 10.36 238.37 9.96 237.29 9.96C236.21 9.96 235.33 10.28 234.69 10.92C234.05 11.56 233.73 12.36 233.73 13.24C233.73 14.12 234.05 14.92 234.73 15.56C235.41 16.2 236.49 16.8 237.93 17.28L240.29 18.24C242.09 18.92 243.41 19.72 244.29 20.64C245.17 21.56 245.61 22.68 245.61 24C245.61 25.32 245.25 26.44 244.61 27.4C243.93 28.36 243.05 29.12 241.97 29.6C240.89 30.12 239.73 30.36 238.49 30.36C237.77 30.36 237.09 30.32 236.53 30.2C235.93 30.08 235.25 29.92 234.49 29.68C233.65 29.44 233.09 29.32 232.81 29.32C232.49 29.32 232.21 29.44 232.01 29.6C231.81 29.76 231.61 30.04 231.45 30.44L230.85 30.48L230.17 22.04ZM252.124 29.48C251.124 28.84 250.364 27.92 249.804 26.72C249.244 25.52 248.964 24.08 248.964 22.44V14.08C248.964 13.12 248.724 12.48 248.324 12.08C247.924 11.68 247.244 11.48 246.324 11.44V10.92C248.884 10.76 251.084 10.24 252.924 9.36L253.284 9.56V22C253.284 23.84 253.604 25.32 254.324 26.36C255.004 27.44 256.044 27.96 257.444 27.96C258.644 27.96 259.564 27.56 260.244 26.72C260.924 25.88 261.324 24.88 261.444 23.76V14.08C261.444 13.12 261.204 12.48 260.804 12.08C260.404 11.68 259.724 11.48 258.804 11.44V10.92C261.364 10.76 263.564 10.24 265.404 9.36L265.764 9.56V26.24C265.764 27.12 265.964 27.72 266.364 28.04C266.764 28.36 267.484 28.48 268.444 28.44V28.96C265.844 29.28 263.644 29.8 261.844 30.48L261.444 30.24V25.68C261.004 26.96 260.284 28.08 259.284 29.04C258.244 30 257.004 30.44 255.484 30.44C254.204 30.44 253.084 30.12 252.124 29.48ZM268.356 29.48C269.236 29.48 269.916 29.24 270.396 28.68C270.876 28.16 271.156 27.24 271.156 25.96L271.276 5.16C271.276 4.2 271.036 3.52 270.636 3.12C270.236 2.72 269.556 2.52 268.636 2.52V2C271.196 1.84 273.396 1.32 275.236 0.439999L275.596 0.639999V25.96C275.596 27.24 275.836 28.16 276.316 28.68C276.796 29.24 277.516 29.48 278.396 29.48V30H268.356V29.48ZM278.434 29.48C279.314 29.48 279.994 29.24 280.474 28.68C280.954 28.16 281.234 27.24 281.234 25.96L281.354 5.16C281.354 4.2 281.114 3.52 280.714 3.12C280.314 2.72 279.634 2.52 278.714 2.52V2C281.274 1.84 283.474 1.32 285.314 0.439999L285.674 0.639999V25.96C285.674 27.24 285.914 28.16 286.394 28.68C286.874 29.24 287.594 29.48 288.474 29.48V30H278.434V29.48ZM302.478 29.24C301.838 28.52 301.438 27.48 301.278 26.16L301.158 25.28C300.998 26.16 300.598 27 300.038 27.76C299.438 28.56 298.678 29.2 297.758 29.68C296.798 30.16 295.758 30.4 294.598 30.4C292.918 30.4 291.518 29.92 290.438 28.96C289.358 28 288.838 26.76 288.838 25.24C288.838 23.88 289.278 22.76 290.238 21.88C291.198 21 292.558 20.48 294.318 20.32L300.398 19.84L300.118 17.8C299.878 15.92 299.318 14.44 298.438 13.36C297.558 12.32 296.398 11.76 294.958 11.76C293.798 11.76 292.798 12.12 291.918 12.76C291.038 13.4 290.398 14.28 289.958 15.36L289.438 15.24C289.678 14.28 290.158 13.32 290.878 12.4C291.598 11.52 292.478 10.76 293.558 10.2C294.638 9.64 295.838 9.32 297.158 9.32C299.158 9.32 300.798 9.96 302.038 11.24C303.278 12.52 304.038 14.36 304.358 16.72L305.518 25.56C305.718 27.08 306.238 27.8 307.118 27.8C307.358 27.8 307.598 27.72 307.798 27.48C307.998 27.28 308.118 27 308.198 26.64L308.678 26.68C308.598 27.64 308.278 28.48 307.638 29.2C306.998 29.96 306.158 30.32 305.118 30.32C303.998 30.32 303.118 29.96 302.478 29.24ZM293.918 26.96C294.598 27.68 295.518 28.04 296.718 28.04C297.918 28.04 298.918 27.68 299.718 26.96C300.478 26.24 300.918 25.36 301.038 24.36L300.478 20.44L296.558 20.76C295.358 20.88 294.438 21.28 293.798 21.92C293.158 22.56 292.878 23.4 292.878 24.36C292.878 25.4 293.198 26.24 293.918 26.96ZM323.469 29.68C321.989 29.2 320.669 28.56 319.469 27.76V5.16C319.469 4.2 319.229 3.52 318.829 3.12C318.429 2.72 317.749 2.52 316.829 2.52V2C319.389 1.84 321.589 1.32 323.429 0.439999L323.789 0.639999V14.2C324.149 12.96 324.909 11.84 326.069 10.88C327.189 9.92 328.549 9.4 330.109 9.4C331.669 9.4 333.069 9.88 334.309 10.84C335.509 11.8 336.469 13.04 337.149 14.6C337.789 16.2 338.149 17.88 338.149 19.68C338.149 21.76 337.709 23.64 336.829 25.24C335.949 26.88 334.709 28.16 333.189 29.04C331.669 29.96 329.949 30.4 328.109 30.4C326.509 30.4 324.949 30.16 323.469 29.68ZM324.909 27.8C325.669 29.16 326.829 29.8 328.349 29.8C329.949 29.8 331.269 29 332.229 27.36C333.189 25.76 333.669 23.64 333.669 21.04C333.669 19.12 333.389 17.44 332.909 16C332.429 14.6 331.749 13.52 330.909 12.8C330.029 12.08 329.069 11.68 327.989 11.68C326.949 11.68 326.069 12.08 325.309 12.8C324.509 13.52 324.029 14.44 323.789 15.56V21.48C323.789 24.36 324.149 26.44 324.909 27.8ZM340.916 5.48C340.396 4.92 340.156 4.24 340.156 3.36C340.156 2.56 340.396 1.92 340.916 1.4C341.436 0.879998 342.116 0.599999 342.956 0.599999C343.796 0.599999 344.476 0.879998 344.996 1.4C345.516 1.92 345.796 2.56 345.796 3.36C345.796 4.24 345.516 4.92 344.996 5.48C344.476 6.04 343.796 6.28 342.956 6.28C342.116 6.28 341.436 6.04 340.916 5.48ZM338.356 29.48C339.236 29.48 339.916 29.24 340.396 28.68C340.876 28.16 341.156 27.24 341.156 25.96V14.08C341.156 13.12 340.916 12.48 340.516 12.08C340.116 11.68 339.436 11.48 338.516 11.44V10.92C341.076 10.76 343.276 10.24 345.116 9.36L345.476 9.56V25.96C345.476 27.28 345.716 28.2 346.196 28.72C346.676 29.24 347.356 29.48 348.276 29.48V30H338.356V29.48ZM353.493 29C351.933 28.08 350.693 26.8 349.813 25.16C348.893 23.56 348.453 21.76 348.453 19.76C348.453 17.72 348.893 15.92 349.813 14.32C350.693 12.72 351.933 11.52 353.493 10.64C355.013 9.76 356.693 9.32 358.533 9.32C360.373 9.32 362.053 9.8 363.573 10.68C365.093 11.6 366.333 12.84 367.253 14.44C368.133 16.04 368.613 17.84 368.613 19.84C368.613 21.88 368.173 23.72 367.293 25.32C366.413 26.92 365.173 28.2 363.653 29.08C362.133 29.96 360.453 30.4 358.613 30.4C356.733 30.4 355.013 29.96 353.493 29ZM355.333 27.16C356.453 28.84 357.813 29.64 359.333 29.64C360.853 29.64 362.013 28.92 362.853 27.44C363.653 26 364.093 24.08 364.093 21.72C364.093 20.96 364.013 20 363.893 18.88C363.533 16.24 362.813 14.12 361.693 12.52C360.573 10.92 359.293 10.08 357.813 10.08C356.253 10.08 355.053 10.84 354.213 12.32C353.373 13.84 352.973 15.76 352.973 18.08C352.973 19.04 353.013 19.88 353.133 20.64C353.453 23.32 354.213 25.48 355.333 27.16ZM374.797 29.04C373.517 28.16 372.557 26.92 371.837 25.32C371.117 23.76 370.797 22 370.797 20.08C370.797 18.16 371.197 16.36 372.037 14.72C372.837 13.12 373.997 11.8 375.437 10.84C376.877 9.88 378.437 9.4 380.197 9.4C382.277 9.4 384.037 10.2 385.397 11.8V5.16C385.397 4.2 385.197 3.52 384.797 3.12C384.397 2.72 383.717 2.52 382.797 2.52V2C385.357 1.84 387.557 1.32 389.357 0.439999L389.757 0.639999V26.24C389.757 27.12 389.957 27.72 390.357 28.04C390.757 28.36 391.437 28.48 392.397 28.44V28.96C389.757 29.28 387.597 29.8 385.837 30.48L385.397 30.24V26.08C384.997 27.16 384.237 28.16 383.117 29.04C381.957 29.96 380.597 30.4 378.997 30.4C377.437 30.4 376.037 29.96 374.797 29.04ZM376.157 23.68C376.677 25.12 377.397 26.16 378.317 26.88C379.197 27.6 380.197 27.96 381.277 27.96C382.237 27.96 383.117 27.68 383.837 27.12C384.557 26.56 385.077 25.8 385.397 24.84V18.44C385.397 16.2 384.957 14.24 384.077 12.6C383.197 11 381.997 10.16 380.517 10.16C379.477 10.16 378.597 10.56 377.797 11.28C376.997 12 376.397 13 375.997 14.28C375.557 15.56 375.357 17 375.357 18.6C375.357 20.6 375.597 22.28 376.157 23.68ZM395.33 5.48C394.81 4.92 394.57 4.24 394.57 3.36C394.57 2.56 394.81 1.92 395.33 1.4C395.85 0.879998 396.53 0.599999 397.37 0.599999C398.21 0.599999 398.89 0.879998 399.41 1.4C399.93 1.92 400.21 2.56 400.21 3.36C400.21 4.24 399.93 4.92 399.41 5.48C398.89 6.04 398.21 6.28 397.37 6.28C396.53 6.28 395.85 6.04 395.33 5.48ZM392.77 29.48C393.65 29.48 394.33 29.24 394.81 28.68C395.29 28.16 395.57 27.24 395.57 25.96V14.08C395.57 13.12 395.33 12.48 394.93 12.08C394.53 11.68 393.85 11.48 392.93 11.44V10.92C395.49 10.76 397.69 10.24 399.53 9.36L399.89 9.56V25.96C399.89 27.28 400.13 28.2 400.61 28.72C401.09 29.24 401.77 29.48 402.69 29.48V30H392.77V29.48ZM408.421 28.4C407.301 27.08 406.501 25.04 406.061 22.28L404.661 13.72C404.421 12.44 404.061 11.56 403.541 11.04C402.981 10.52 402.301 10.24 401.421 10.24V9.72H411.181V10.24C409.621 10.24 408.861 11.04 408.861 12.64C408.861 13.12 408.861 13.48 408.941 13.72L410.141 21.08C410.461 23.24 411.021 24.88 411.781 25.96C412.501 27.08 413.581 27.6 415.021 27.6C416.061 27.6 417.061 27.24 418.061 26.44C419.061 25.64 419.861 24.6 420.501 23.24C421.101 21.92 421.421 20.48 421.421 18.88C421.421 17.12 421.061 15.68 420.381 14.64C419.701 13.6 418.781 13.04 417.621 13.04C417.061 13.04 416.501 13.16 416.021 13.36C415.781 13.48 415.501 13.52 415.181 13.52C414.621 13.52 414.141 13.36 413.741 12.96C413.341 12.56 413.181 12.08 413.181 11.44C413.181 10.88 413.381 10.36 413.781 9.96C414.181 9.56 414.741 9.36 415.541 9.36C416.661 9.36 417.701 9.72 418.701 10.36C419.701 11 420.501 12 421.141 13.32C421.781 14.68 422.101 16.32 422.101 18.24C422.101 20.44 421.661 22.48 420.821 24.32C419.941 26.2 418.821 27.68 417.421 28.76C416.021 29.88 414.541 30.4 412.981 30.4C411.061 30.4 409.541 29.76 408.421 28.4ZM428.673 29C427.273 28.08 426.193 26.8 425.433 25.2C424.633 23.6 424.273 21.88 424.273 19.96C424.273 17.96 424.673 16.16 425.553 14.56C426.433 12.96 427.593 11.68 429.113 10.72C430.593 9.8 432.233 9.32 433.993 9.32C435.513 9.32 436.873 9.68 437.993 10.36C439.113 11.08 439.993 12 440.593 13.16C441.193 14.36 441.513 15.64 441.513 17H428.513C428.473 17.16 428.473 17.4 428.473 17.68C428.473 19.56 428.753 21.2 429.353 22.64C429.913 24.08 430.753 25.2 431.833 26C432.913 26.8 434.193 27.16 435.633 27.16C437.233 27.16 438.593 26.68 439.713 25.72C440.833 24.76 441.553 23.52 441.873 21.92L442.433 22C442.193 23.6 441.633 25.04 440.833 26.32C440.033 27.6 438.993 28.6 437.713 29.32C436.433 30.04 435.033 30.4 433.513 30.4C431.673 30.4 430.073 29.96 428.673 29ZM435.553 16.32C436.113 16.32 436.553 16.2 436.793 15.92C437.033 15.64 437.193 15.16 437.193 14.52C437.193 13.4 436.873 12.36 436.313 11.4C435.713 10.44 434.833 9.92 433.673 9.92C432.473 9.92 431.353 10.56 430.393 11.8C429.393 13.08 428.793 14.56 428.553 16.32H435.553ZM442.262 29.48C443.142 29.48 443.822 29.24 444.302 28.68C444.782 28.16 445.062 27.24 445.062 25.96V14.08C445.062 13.12 444.862 12.48 444.462 12.08C444.062 11.68 443.382 11.48 442.422 11.44V10.92C444.982 10.76 447.182 10.24 449.022 9.36L449.382 9.56V13.92C449.702 12.68 450.302 11.6 451.182 10.68C452.062 9.8 453.062 9.32 454.262 9.32C455.182 9.32 455.942 9.64 456.542 10.2C457.102 10.8 457.422 11.48 457.422 12.24C457.422 12.92 457.182 13.48 456.782 13.96C456.382 14.44 455.822 14.64 455.142 14.64C454.662 14.64 454.302 14.56 454.022 14.32C453.742 14.12 453.502 13.84 453.342 13.52C453.182 13.2 453.022 12.88 452.942 12.56C452.782 12.24 452.662 12.04 452.542 11.88C452.382 11.76 452.222 11.68 451.982 11.68C451.342 11.68 450.782 12.08 450.302 12.8C449.822 13.56 449.502 14.44 449.382 15.44V25.96C449.382 27.24 449.702 28.16 450.342 28.68C450.982 29.24 451.862 29.48 453.022 29.48V30H442.262V29.48ZM458.178 22.04L458.698 21.92C459.338 23.96 460.258 25.76 461.458 27.32C462.658 28.92 464.218 29.72 466.218 29.72C467.458 29.72 468.458 29.4 469.178 28.76C469.898 28.12 470.298 27.28 470.338 26.28C470.338 25.32 469.978 24.48 469.298 23.84C468.578 23.2 467.458 22.6 465.858 22.04L463.458 21.08C461.778 20.44 460.538 19.68 459.658 18.72C458.778 17.76 458.378 16.56 458.378 15.12C458.378 14.08 458.658 13.08 459.298 12.2C459.898 11.32 460.738 10.64 461.818 10.12C462.898 9.64 464.098 9.36 465.378 9.36C466.418 9.36 467.618 9.6 468.938 10.04C469.658 10.28 470.138 10.36 470.378 10.36C470.938 10.36 471.378 9.96 471.618 9.12L472.178 9.08L472.698 16.92L472.138 17C471.818 15.96 471.338 14.92 470.698 13.84C470.058 12.76 469.258 11.84 468.338 11.08C467.378 10.36 466.378 9.96 465.298 9.96C464.218 9.96 463.338 10.28 462.698 10.92C462.058 11.56 461.738 12.36 461.738 13.24C461.738 14.12 462.058 14.92 462.738 15.56C463.418 16.2 464.498 16.8 465.938 17.28L468.298 18.24C470.098 18.92 471.418 19.72 472.298 20.64C473.178 21.56 473.618 22.68 473.618 24C473.618 25.32 473.258 26.44 472.618 27.4C471.938 28.36 471.058 29.12 469.978 29.6C468.898 30.12 467.738 30.36 466.498 30.36C465.778 30.36 465.098 30.32 464.538 30.2C463.938 30.08 463.258 29.92 462.498 29.68C461.658 29.44 461.098 29.32 460.818 29.32C460.498 29.32 460.218 29.44 460.018 29.6C459.818 29.76 459.618 30.04 459.458 30.44L458.858 30.48L458.178 22.04ZM476.893 5.48C476.373 4.92 476.133 4.24 476.133 3.36C476.133 2.56 476.373 1.92 476.893 1.4C477.413 0.879998 478.093 0.599999 478.933 0.599999C479.773 0.599999 480.453 0.879998 480.973 1.4C481.493 1.92 481.773 2.56 481.773 3.36C481.773 4.24 481.493 4.92 480.973 5.48C480.453 6.04 479.773 6.28 478.933 6.28C478.093 6.28 477.413 6.04 476.893 5.48ZM474.333 29.48C475.213 29.48 475.893 29.24 476.373 28.68C476.853 28.16 477.133 27.24 477.133 25.96V14.08C477.133 13.12 476.893 12.48 476.493 12.08C476.093 11.68 475.413 11.48 474.493 11.44V10.92C477.053 10.76 479.253 10.24 481.093 9.36L481.453 9.56V25.96C481.453 27.28 481.693 28.2 482.173 28.72C482.653 29.24 483.333 29.48 484.253 29.48V30H474.333V29.48ZM487.867 28.56C486.907 27.32 486.427 25.72 486.427 23.72V11.32H483.907V10.76C485.547 10.6 486.947 10.04 488.067 9C489.187 7.96 489.907 6.56 490.227 4.76H490.787V9.72H496.747L496.067 11.32H490.787V23.28C490.787 24.64 491.067 25.76 491.627 26.6C492.187 27.48 492.987 27.88 493.987 27.88C494.787 27.88 495.427 27.64 495.947 27.08C496.467 26.52 496.827 25.84 497.027 25L497.507 25.08C497.307 26.6 496.707 27.84 495.747 28.88C494.747 29.92 493.547 30.4 492.187 30.4C490.267 30.4 488.827 29.8 487.867 28.56ZM512.048 29.24C511.408 28.52 511.008 27.48 510.848 26.16L510.728 25.28C510.568 26.16 510.168 27 509.608 27.76C509.008 28.56 508.248 29.2 507.328 29.68C506.368 30.16 505.328 30.4 504.168 30.4C502.488 30.4 501.088 29.92 500.008 28.96C498.928 28 498.408 26.76 498.408 25.24C498.408 23.88 498.848 22.76 499.808 21.88C500.768 21 502.128 20.48 503.888 20.32L509.968 19.84L509.688 17.8C509.448 15.92 508.888 14.44 508.008 13.36C507.128 12.32 505.968 11.76 504.528 11.76C503.368 11.76 502.368 12.12 501.488 12.76C500.608 13.4 499.968 14.28 499.528 15.36L499.008 15.24C499.248 14.28 499.728 13.32 500.448 12.4C501.168 11.52 502.048 10.76 503.128 10.2C504.208 9.64 505.408 9.32 506.728 9.32C508.728 9.32 510.368 9.96 511.608 11.24C512.848 12.52 513.608 14.36 513.928 16.72L515.088 25.56C515.288 27.08 515.808 27.8 516.688 27.8C516.928 27.8 517.168 27.72 517.368 27.48C517.568 27.28 517.688 27 517.768 26.64L518.248 26.68C518.168 27.64 517.848 28.48 517.208 29.2C516.568 29.96 515.728 30.32 514.688 30.32C513.568 30.32 512.688 29.96 512.048 29.24ZM503.488 26.96C504.168 27.68 505.088 28.04 506.288 28.04C507.488 28.04 508.488 27.68 509.288 26.96C510.048 26.24 510.488 25.36 510.608 24.36L510.048 20.44L506.128 20.76C504.928 20.88 504.008 21.28 503.368 21.92C502.728 22.56 502.448 23.4 502.448 24.36C502.448 25.4 502.768 26.24 503.488 26.96ZM500.368 0.519998L505.288 0.559998L508.328 7.2L507.768 7.44L500.368 0.519998ZM532.319 29.48C531.319 28.84 530.559 27.92 529.999 26.72C529.439 25.52 529.159 24.08 529.159 22.44V14.08C529.159 13.12 528.919 12.48 528.519 12.08C528.119 11.68 527.439 11.48 526.519 11.44V10.92C529.079 10.76 531.279 10.24 533.119 9.36L533.479 9.56V22C533.479 23.84 533.799 25.32 534.519 26.36C535.199 27.44 536.239 27.96 537.639 27.96C538.839 27.96 539.759 27.56 540.439 26.72C541.119 25.88 541.519 24.88 541.639 23.76V14.08C541.639 13.12 541.399 12.48 540.999 12.08C540.599 11.68 539.919 11.48 538.999 11.44V10.92C541.559 10.76 543.759 10.24 545.599 9.36L545.959 9.56V26.24C545.959 27.12 546.159 27.72 546.559 28.04C546.959 28.36 547.679 28.48 548.639 28.44V28.96C546.039 29.28 543.839 29.8 542.039 30.48L541.639 30.24V25.68C541.199 26.96 540.479 28.08 539.479 29.04C538.439 30 537.199 30.44 535.679 30.44C534.399 30.44 533.279 30.12 532.319 29.48ZM549.02 29.48C549.9 29.48 550.58 29.24 551.06 28.68C551.54 28.16 551.82 27.24 551.82 25.96V14.08C551.82 13.12 551.62 12.48 551.22 12.08C550.82 11.68 550.14 11.48 549.18 11.44V10.92C551.74 10.76 553.94 10.24 555.78 9.36L556.14 9.56V13.92C556.46 12.68 557.06 11.6 557.94 10.68C558.82 9.8 559.82 9.32 561.02 9.32C561.94 9.32 562.7 9.64 563.3 10.2C563.86 10.8 564.18 11.48 564.18 12.24C564.18 12.92 563.94 13.48 563.54 13.96C563.14 14.44 562.58 14.64 561.9 14.64C561.42 14.64 561.06 14.56 560.78 14.32C560.5 14.12 560.26 13.84 560.1 13.52C559.94 13.2 559.78 12.88 559.7 12.56C559.54 12.24 559.42 12.04 559.3 11.88C559.14 11.76 558.98 11.68 558.74 11.68C558.1 11.68 557.54 12.08 557.06 12.8C556.58 13.56 556.26 14.44 556.14 15.44V25.96C556.14 27.24 556.46 28.16 557.1 28.68C557.74 29.24 558.62 29.48 559.78 29.48V30H549.02V29.48ZM570.11 29.68C568.63 29.2 567.31 28.56 566.11 27.76V5.16C566.11 4.2 565.87 3.52 565.47 3.12C565.07 2.72 564.39 2.52 563.47 2.52V2C566.03 1.84 568.23 1.32 570.07 0.439999L570.43 0.639999V14.2C570.79 12.96 571.55 11.84 572.71 10.88C573.83 9.92 575.19 9.4 576.75 9.4C578.31 9.4 579.71 9.88 580.95 10.84C582.15 11.8 583.11 13.04 583.79 14.6C584.43 16.2 584.79 17.88 584.79 19.68C584.79 21.76 584.35 23.64 583.47 25.24C582.59 26.88 581.35 28.16 579.83 29.04C578.31 29.96 576.59 30.4 574.75 30.4C573.15 30.4 571.59 30.16 570.11 29.68ZM571.55 27.8C572.31 29.16 573.47 29.8 574.99 29.8C576.59 29.8 577.91 29 578.87 27.36C579.83 25.76 580.31 23.64 580.31 21.04C580.31 19.12 580.03 17.44 579.55 16C579.07 14.6 578.39 13.52 577.55 12.8C576.67 12.08 575.71 11.68 574.63 11.68C573.59 11.68 572.71 12.08 571.95 12.8C571.15 13.52 570.67 14.44 570.43 15.56V21.48C570.43 24.36 570.79 26.44 571.55 27.8ZM599.978 29.24C599.338 28.52 598.938 27.48 598.778 26.16L598.658 25.28C598.498 26.16 598.098 27 597.538 27.76C596.938 28.56 596.178 29.2 595.258 29.68C594.298 30.16 593.258 30.4 592.098 30.4C590.418 30.4 589.018 29.92 587.938 28.96C586.858 28 586.338 26.76 586.338 25.24C586.338 23.88 586.778 22.76 587.738 21.88C588.698 21 590.058 20.48 591.818 20.32L597.898 19.84L597.618 17.8C597.378 15.92 596.818 14.44 595.938 13.36C595.058 12.32 593.898 11.76 592.458 11.76C591.298 11.76 590.298 12.12 589.418 12.76C588.538 13.4 587.898 14.28 587.458 15.36L586.938 15.24C587.178 14.28 587.658 13.32 588.378 12.4C589.098 11.52 589.978 10.76 591.058 10.2C592.138 9.64 593.338 9.32 594.658 9.32C596.658 9.32 598.298 9.96 599.538 11.24C600.778 12.52 601.538 14.36 601.858 16.72L603.018 25.56C603.218 27.08 603.738 27.8 604.618 27.8C604.858 27.8 605.098 27.72 605.298 27.48C605.498 27.28 605.618 27 605.698 26.64L606.178 26.68C606.098 27.64 605.778 28.48 605.138 29.2C604.498 29.96 603.658 30.32 602.618 30.32C601.498 30.32 600.618 29.96 599.978 29.24ZM591.418 26.96C592.098 27.68 593.018 28.04 594.218 28.04C595.418 28.04 596.418 27.68 597.218 26.96C597.978 26.24 598.418 25.36 598.538 24.36L597.978 20.44L594.058 20.76C592.858 20.88 591.938 21.28 591.298 21.92C590.658 22.56 590.378 23.4 590.378 24.36C590.378 25.4 590.698 26.24 591.418 26.96ZM619.729 29.48C620.609 29.48 621.329 29.28 621.849 28.88C622.369 28.48 622.649 27.8 622.649 26.8C622.649 26.48 622.609 26.2 622.609 26L621.369 16.84C620.889 13.44 619.489 11.72 617.209 11.72C616.169 11.72 615.249 12.16 614.529 13C613.809 13.88 613.369 14.88 613.289 16.08V25.96C613.289 27.28 613.529 28.2 614.009 28.72C614.489 29.24 615.169 29.48 616.089 29.48V30H606.169V29.48C607.049 29.48 607.729 29.24 608.209 28.68C608.689 28.16 608.969 27.24 608.969 25.96V14.08C608.969 13.12 608.729 12.48 608.329 12.08C607.929 11.68 607.249 11.48 606.329 11.44V10.92C608.889 10.76 611.089 10.24 612.929 9.36L613.289 9.56V14.36C613.649 12.92 614.369 11.72 615.449 10.76C616.529 9.8 617.809 9.32 619.329 9.32C621.049 9.32 622.449 9.96 623.569 11.16C624.649 12.36 625.369 14.24 625.729 16.72L627.089 26C627.249 27.28 627.569 28.2 628.089 28.72C628.569 29.24 629.249 29.48 630.129 29.48V30H619.729V29.48ZM643.611 29.24C642.971 28.52 642.571 27.48 642.411 26.16L642.291 25.28C642.131 26.16 641.731 27 641.171 27.76C640.571 28.56 639.811 29.2 638.891 29.68C637.931 30.16 636.891 30.4 635.731 30.4C634.051 30.4 632.651 29.92 631.571 28.96C630.491 28 629.971 26.76 629.971 25.24C629.971 23.88 630.411 22.76 631.371 21.88C632.331 21 633.691 20.48 635.451 20.32L641.531 19.84L641.251 17.8C641.011 15.92 640.451 14.44 639.571 13.36C638.691 12.32 637.531 11.76 636.091 11.76C634.931 11.76 633.931 12.12 633.051 12.76C632.171 13.4 631.531 14.28 631.091 15.36L630.571 15.24C630.811 14.28 631.291 13.32 632.011 12.4C632.731 11.52 633.611 10.76 634.691 10.2C635.771 9.64 636.971 9.32 638.291 9.32C640.291 9.32 641.931 9.96 643.171 11.24C644.411 12.52 645.171 14.36 645.491 16.72L646.651 25.56C646.851 27.08 647.371 27.8 648.251 27.8C648.491 27.8 648.731 27.72 648.931 27.48C649.131 27.28 649.251 27 649.331 26.64L649.811 26.68C649.731 27.64 649.411 28.48 648.771 29.2C648.131 29.96 647.291 30.32 646.251 30.32C645.131 30.32 644.251 29.96 643.611 29.24ZM635.051 26.96C635.731 27.68 636.651 28.04 637.851 28.04C639.051 28.04 640.051 27.68 640.851 26.96C641.611 26.24 642.051 25.36 642.171 24.36L641.611 20.44L637.691 20.76C636.491 20.88 635.571 21.28 634.931 21.92C634.291 22.56 634.011 23.4 634.011 24.36C634.011 25.4 634.331 26.24 635.051 26.96ZM148.207 74.4C147.087 73.08 146.287 71.04 145.847 68.28L144.447 59.72C144.207 58.44 143.847 57.56 143.327 57.04C142.767 56.52 142.087 56.24 141.207 56.24V55.72H150.967V56.24C149.407 56.24 148.647 57.04 148.647 58.64C148.647 59.12 148.647 59.48 148.727 59.72L149.927 67.08C150.247 69.24 150.807 70.88 151.567 71.96C152.287 73.08 153.367 73.6 154.807 73.6C155.847 73.6 156.847 73.24 157.847 72.44C158.847 71.64 159.647 70.6 160.287 69.24C160.887 67.92 161.207 66.48 161.207 64.88C161.207 63.12 160.847 61.68 160.167 60.64C159.487 59.6 158.567 59.04 157.407 59.04C156.847 59.04 156.287 59.16 155.807 59.36C155.567 59.48 155.287 59.52 154.967 59.52C154.407 59.52 153.927 59.36 153.527 58.96C153.127 58.56 152.967 58.08 152.967 57.44C152.967 56.88 153.167 56.36 153.567 55.96C153.967 55.56 154.527 55.36 155.327 55.36C156.447 55.36 157.487 55.72 158.487 56.36C159.487 57 160.287 58 160.927 59.32C161.567 60.68 161.887 62.32 161.887 64.24C161.887 66.44 161.447 68.48 160.607 70.32C159.727 72.2 158.607 73.68 157.207 74.76C155.807 75.88 154.327 76.4 152.767 76.4C150.847 76.4 149.327 75.76 148.207 74.4ZM164.92 51.48C164.4 50.92 164.16 50.24 164.16 49.36C164.16 48.56 164.4 47.92 164.92 47.4C165.44 46.88 166.12 46.6 166.96 46.6C167.8 46.6 168.48 46.88 169 47.4C169.52 47.92 169.8 48.56 169.8 49.36C169.8 50.24 169.52 50.92 169 51.48C168.48 52.04 167.8 52.28 166.96 52.28C166.12 52.28 165.44 52.04 164.92 51.48ZM162.36 75.48C163.24 75.48 163.92 75.24 164.4 74.68C164.88 74.16 165.16 73.24 165.16 71.96V60.08C165.16 59.12 164.92 58.48 164.52 58.08C164.12 57.68 163.44 57.48 162.52 57.44V56.92C165.08 56.76 167.28 56.24 169.12 55.36L169.48 55.56V71.96C169.48 73.28 169.72 74.2 170.2 74.72C170.68 75.24 171.36 75.48 172.28 75.48V76H162.36V75.48ZM173.393 68.04L173.913 67.92C174.553 69.96 175.473 71.76 176.673 73.32C177.873 74.92 179.433 75.72 181.433 75.72C182.673 75.72 183.673 75.4 184.393 74.76C185.113 74.12 185.513 73.28 185.553 72.28C185.553 71.32 185.193 70.48 184.513 69.84C183.793 69.2 182.673 68.6 181.073 68.04L178.673 67.08C176.993 66.44 175.753 65.68 174.873 64.72C173.993 63.76 173.593 62.56 173.593 61.12C173.593 60.08 173.873 59.08 174.513 58.2C175.113 57.32 175.953 56.64 177.033 56.12C178.113 55.64 179.313 55.36 180.593 55.36C181.633 55.36 182.833 55.6 184.153 56.04C184.873 56.28 185.353 56.36 185.593 56.36C186.153 56.36 186.593 55.96 186.833 55.12L187.393 55.08L187.913 62.92L187.353 63C187.033 61.96 186.553 60.92 185.913 59.84C185.273 58.76 184.473 57.84 183.553 57.08C182.592 56.36 181.593 55.96 180.513 55.96C179.433 55.96 178.553 56.28 177.913 56.92C177.273 57.56 176.953 58.36 176.953 59.24C176.953 60.12 177.273 60.92 177.953 61.56C178.633 62.2 179.713 62.8 181.153 63.28L183.513 64.24C185.313 64.92 186.633 65.72 187.513 66.64C188.393 67.56 188.833 68.68 188.833 70C188.833 71.32 188.473 72.44 187.833 73.4C187.153 74.36 186.273 75.12 185.193 75.6C184.113 76.12 182.953 76.36 181.713 76.36C180.993 76.36 180.313 76.32 179.753 76.2C179.153 76.08 178.473 75.92 177.713 75.68C176.873 75.44 176.313 75.32 176.033 75.32C175.713 75.32 175.433 75.44 175.233 75.6C175.033 75.76 174.833 76.04 174.673 76.44L174.073 76.48L173.393 68.04ZM193.589 74.56C192.629 73.32 192.149 71.72 192.149 69.72V57.32H189.629V56.76C191.269 56.6 192.669 56.04 193.789 55C194.909 53.96 195.629 52.56 195.949 50.76H196.509V55.72H202.469L201.789 57.32H196.509V69.28C196.509 70.64 196.789 71.76 197.349 72.6C197.909 73.48 198.709 73.88 199.709 73.88C200.509 73.88 201.149 73.64 201.669 73.08C202.189 72.52 202.549 71.84 202.749 71L203.229 71.08C203.029 72.6 202.429 73.84 201.469 74.88C200.469 75.92 199.269 76.4 197.909 76.4C195.989 76.4 194.549 75.8 193.589 74.56ZM205.74 51.48C205.22 50.92 204.98 50.24 204.98 49.36C204.98 48.56 205.22 47.92 205.74 47.4C206.26 46.88 206.94 46.6 207.78 46.6C208.62 46.6 209.3 46.88 209.82 47.4C210.34 47.92 210.62 48.56 210.62 49.36C210.62 50.24 210.34 50.92 209.82 51.48C209.3 52.04 208.62 52.28 207.78 52.28C206.94 52.28 206.26 52.04 205.74 51.48ZM203.18 75.48C204.06 75.48 204.74 75.24 205.22 74.68C205.7 74.16 205.98 73.24 205.98 71.96V60.08C205.98 59.12 205.74 58.48 205.34 58.08C204.94 57.68 204.26 57.48 203.34 57.44V56.92C205.9 56.76 208.1 56.24 209.94 55.36L210.3 55.56V71.96C210.3 73.28 210.54 74.2 211.02 74.72C211.5 75.24 212.18 75.48 213.1 75.48V76H203.18V75.48ZM236.169 75.24C235.529 74.52 235.129 73.48 234.969 72.16L234.849 71.28C234.689 72.16 234.289 73 233.729 73.76C233.129 74.56 232.369 75.2 231.449 75.68C230.489 76.16 229.449 76.4 228.289 76.4C226.609 76.4 225.209 75.92 224.129 74.96C223.049 74 222.529 72.76 222.529 71.24C222.529 69.88 222.969 68.76 223.929 67.88C224.889 67 226.249 66.48 228.009 66.32L234.089 65.84L233.809 63.8C233.569 61.92 233.009 60.44 232.129 59.36C231.249 58.32 230.089 57.76 228.649 57.76C227.489 57.76 226.489 58.12 225.609 58.76C224.729 59.4 224.089 60.28 223.649 61.36L223.129 61.24C223.369 60.28 223.849 59.32 224.569 58.4C225.289 57.52 226.169 56.76 227.249 56.2C228.329 55.64 229.529 55.32 230.849 55.32C232.849 55.32 234.489 55.96 235.729 57.24C236.969 58.52 237.729 60.36 238.049 62.72L239.209 71.56C239.409 73.08 239.929 73.8 240.809 73.8C241.049 73.8 241.289 73.72 241.489 73.48C241.689 73.28 241.809 73 241.889 72.64L242.369 72.68C242.289 73.64 241.969 74.48 241.329 75.2C240.689 75.96 239.849 76.32 238.809 76.32C237.689 76.32 236.809 75.96 236.169 75.24ZM227.609 72.96C228.289 73.68 229.209 74.04 230.409 74.04C231.609 74.04 232.609 73.68 233.409 72.96C234.169 72.24 234.609 71.36 234.729 70.36L234.169 66.44L230.249 66.76C229.049 66.88 228.129 67.28 227.489 67.92C226.849 68.56 226.569 69.4 226.569 70.36C226.569 71.4 226.889 72.24 227.609 72.96ZM245.543 74.56C244.583 73.32 244.103 71.72 244.103 69.72V57.32H241.583V56.76C243.223 56.6 244.623 56.04 245.743 55C246.863 53.96 247.583 52.56 247.903 50.76H248.463V55.72H254.423L253.743 57.32H248.463V69.28C248.463 70.64 248.743 71.76 249.303 72.6C249.863 73.48 250.663 73.88 251.663 73.88C252.463 73.88 253.103 73.64 253.623 73.08C254.143 72.52 254.503 71.84 254.703 71L255.183 71.08C254.983 72.6 254.383 73.84 253.423 74.88C252.423 75.92 251.223 76.4 249.863 76.4C247.943 76.4 246.503 75.8 245.543 74.56ZM259.058 74.56C258.098 73.32 257.618 71.72 257.618 69.72V57.32H255.098V56.76C256.738 56.6 258.138 56.04 259.258 55C260.378 53.96 261.098 52.56 261.418 50.76H261.978V55.72H267.938L267.258 57.32H261.978V69.28C261.978 70.64 262.258 71.76 262.818 72.6C263.378 73.48 264.178 73.88 265.178 73.88C265.978 73.88 266.618 73.64 267.138 73.08C267.658 72.52 268.018 71.84 268.218 71L268.698 71.08C268.498 72.6 267.898 73.84 266.938 74.88C265.938 75.92 264.738 76.4 263.378 76.4C261.458 76.4 260.018 75.8 259.058 74.56ZM268.649 75.48C269.529 75.48 270.209 75.24 270.689 74.68C271.169 74.16 271.449 73.24 271.449 71.96V60.08C271.449 59.12 271.249 58.48 270.849 58.08C270.449 57.68 269.769 57.48 268.809 57.44V56.92C271.369 56.76 273.569 56.24 275.409 55.36L275.769 55.56V59.92C276.089 58.68 276.689 57.6 277.569 56.68C278.449 55.8 279.449 55.32 280.649 55.32C281.569 55.32 282.329 55.64 282.929 56.2C283.489 56.8 283.809 57.48 283.809 58.24C283.809 58.92 283.569 59.48 283.169 59.96C282.769 60.44 282.209 60.64 281.529 60.64C281.049 60.64 280.689 60.56 280.409 60.32C280.129 60.12 279.889 59.84 279.729 59.52C279.569 59.2 279.409 58.88 279.329 58.56C279.169 58.24 279.049 58.04 278.929 57.88C278.769 57.76 278.609 57.68 278.369 57.68C277.729 57.68 277.169 58.08 276.689 58.8C276.209 59.56 275.889 60.44 275.769 61.44V71.96C275.769 73.24 276.089 74.16 276.729 74.68C277.369 75.24 278.249 75.48 279.409 75.48V76H268.649V75.48ZM297.615 75.24C296.975 74.52 296.575 73.48 296.415 72.16L296.295 71.28C296.135 72.16 295.735 73 295.175 73.76C294.575 74.56 293.815 75.2 292.895 75.68C291.935 76.16 290.895 76.4 289.735 76.4C288.055 76.4 286.655 75.92 285.575 74.96C284.495 74 283.975 72.76 283.975 71.24C283.975 69.88 284.415 68.76 285.375 67.88C286.335 67 287.695 66.48 289.455 66.32L295.535 65.84L295.255 63.8C295.015 61.92 294.455 60.44 293.575 59.36C292.695 58.32 291.535 57.76 290.095 57.76C288.935 57.76 287.935 58.12 287.055 58.76C286.175 59.4 285.535 60.28 285.095 61.36L284.575 61.24C284.815 60.28 285.295 59.32 286.015 58.4C286.735 57.52 287.615 56.76 288.695 56.2C289.775 55.64 290.975 55.32 292.295 55.32C294.295 55.32 295.935 55.96 297.175 57.24C298.415 58.52 299.175 60.36 299.495 62.72L300.655 71.56C300.855 73.08 301.375 73.8 302.255 73.8C302.495 73.8 302.735 73.72 302.935 73.48C303.135 73.28 303.255 73 303.335 72.64L303.815 72.68C303.735 73.64 303.415 74.48 302.775 75.2C302.135 75.96 301.295 76.32 300.255 76.32C299.135 76.32 298.255 75.96 297.615 75.24ZM289.055 72.96C289.735 73.68 290.655 74.04 291.855 74.04C293.055 74.04 294.055 73.68 294.855 72.96C295.615 72.24 296.055 71.36 296.175 70.36L295.615 66.44L291.695 66.76C290.495 66.88 289.575 67.28 288.935 67.92C288.295 68.56 288.015 69.4 288.015 70.36C288.015 71.4 288.335 72.24 289.055 72.96ZM308.05 74.4C306.93 73.08 306.13 71.04 305.69 68.28L304.29 59.72C304.05 58.44 303.69 57.56 303.17 57.04C302.61 56.52 301.93 56.24 301.05 56.24V55.72H310.81V56.24C309.25 56.24 308.49 57.04 308.49 58.64C308.49 59.12 308.49 59.48 308.57 59.72L309.77 67.08C310.09 69.24 310.65 70.88 311.41 71.96C312.13 73.08 313.21 73.6 314.65 73.6C315.69 73.6 316.69 73.24 317.69 72.44C318.69 71.64 319.49 70.6 320.13 69.24C320.73 67.92 321.05 66.48 321.05 64.88C321.05 63.12 320.69 61.68 320.01 60.64C319.33 59.6 318.41 59.04 317.25 59.04C316.69 59.04 316.13 59.16 315.65 59.36C315.41 59.48 315.13 59.52 314.81 59.52C314.25 59.52 313.77 59.36 313.37 58.96C312.97 58.56 312.81 58.08 312.81 57.44C312.81 56.88 313.01 56.36 313.41 55.96C313.81 55.56 314.37 55.36 315.17 55.36C316.29 55.36 317.33 55.72 318.33 56.36C319.33 57 320.13 58 320.77 59.32C321.41 60.68 321.73 62.32 321.73 64.24C321.73 66.44 321.29 68.48 320.45 70.32C319.57 72.2 318.45 73.68 317.05 74.76C315.65 75.88 314.17 76.4 312.61 76.4C310.69 76.4 309.17 75.76 308.05 74.4ZM328.302 75C326.902 74.08 325.822 72.8 325.062 71.2C324.262 69.6 323.902 67.88 323.902 65.96C323.902 63.96 324.302 62.16 325.182 60.56C326.062 58.96 327.222 57.68 328.742 56.72C330.222 55.8 331.862 55.32 333.622 55.32C335.142 55.32 336.502 55.68 337.622 56.36C338.742 57.08 339.622 58 340.222 59.16C340.822 60.36 341.142 61.64 341.142 63H328.142C328.102 63.16 328.102 63.4 328.102 63.68C328.102 65.56 328.382 67.2 328.982 68.64C329.542 70.08 330.382 71.2 331.462 72C332.542 72.8 333.822 73.16 335.262 73.16C336.862 73.16 338.222 72.68 339.342 71.72C340.462 70.76 341.182 69.52 341.502 67.92L342.062 68C341.822 69.6 341.262 71.04 340.462 72.32C339.662 73.6 338.622 74.6 337.342 75.32C336.062 76.04 334.662 76.4 333.142 76.4C331.302 76.4 329.702 75.96 328.302 75ZM335.182 62.32C335.742 62.32 336.182 62.2 336.422 61.92C336.662 61.64 336.822 61.16 336.822 60.52C336.822 59.4 336.502 58.36 335.942 57.4C335.342 56.44 334.462 55.92 333.302 55.92C332.102 55.92 330.982 56.56 330.022 57.8C329.022 59.08 328.422 60.56 328.182 62.32H335.182ZM341.891 75.48C342.771 75.48 343.451 75.24 343.931 74.68C344.411 74.16 344.691 73.24 344.691 71.96V60.08C344.691 59.12 344.491 58.48 344.091 58.08C343.691 57.68 343.011 57.48 342.051 57.44V56.92C344.611 56.76 346.811 56.24 348.651 55.36L349.011 55.56V59.92C349.331 58.68 349.931 57.6 350.811 56.68C351.691 55.8 352.691 55.32 353.891 55.32C354.811 55.32 355.571 55.64 356.171 56.2C356.731 56.8 357.051 57.48 357.051 58.24C357.051 58.92 356.811 59.48 356.411 59.96C356.011 60.44 355.451 60.64 354.771 60.64C354.291 60.64 353.931 60.56 353.651 60.32C353.371 60.12 353.131 59.84 352.971 59.52C352.811 59.2 352.651 58.88 352.571 58.56C352.411 58.24 352.291 58.04 352.171 57.88C352.011 57.76 351.851 57.68 351.611 57.68C350.971 57.68 350.411 58.08 349.931 58.8C349.451 59.56 349.131 60.44 349.011 61.44V71.96C349.011 73.24 349.331 74.16 349.971 74.68C350.611 75.24 351.491 75.48 352.651 75.48V76H341.891V75.48ZM357.807 68.04L358.327 67.92C358.967 69.96 359.887 71.76 361.087 73.32C362.287 74.92 363.847 75.72 365.847 75.72C367.087 75.72 368.087 75.4 368.807 74.76C369.527 74.12 369.927 73.28 369.967 72.28C369.967 71.32 369.607 70.48 368.927 69.84C368.207 69.2 367.087 68.6 365.487 68.04L363.087 67.08C361.407 66.44 360.167 65.68 359.287 64.72C358.407 63.76 358.007 62.56 358.007 61.12C358.007 60.08 358.287 59.08 358.927 58.2C359.527 57.32 360.367 56.64 361.447 56.12C362.527 55.64 363.727 55.36 365.007 55.36C366.047 55.36 367.247 55.6 368.567 56.04C369.287 56.28 369.767 56.36 370.007 56.36C370.567 56.36 371.007 55.96 371.247 55.12L371.807 55.08L372.327 62.92L371.767 63C371.447 61.96 370.967 60.92 370.327 59.84C369.687 58.76 368.887 57.84 367.967 57.08C367.007 56.36 366.007 55.96 364.927 55.96C363.847 55.96 362.967 56.28 362.327 56.92C361.687 57.56 361.367 58.36 361.367 59.24C361.367 60.12 361.687 60.92 362.367 61.56C363.047 62.2 364.127 62.8 365.567 63.28L367.927 64.24C369.727 64.92 371.047 65.72 371.927 66.64C372.807 67.56 373.247 68.68 373.247 70C373.247 71.32 372.887 72.44 372.247 73.4C371.567 74.36 370.687 75.12 369.607 75.6C368.527 76.12 367.367 76.36 366.127 76.36C365.407 76.36 364.727 76.32 364.167 76.2C363.567 76.08 362.887 75.92 362.127 75.68C361.287 75.44 360.727 75.32 360.447 75.32C360.127 75.32 359.847 75.44 359.647 75.6C359.447 75.76 359.247 76.04 359.087 76.44L358.487 76.48L357.807 68.04ZM380.114 75C378.554 74.08 377.314 72.8 376.434 71.16C375.514 69.56 375.074 67.76 375.074 65.76C375.074 63.72 375.514 61.92 376.434 60.32C377.314 58.72 378.554 57.52 380.114 56.64C381.634 55.76 383.314 55.32 385.154 55.32C386.994 55.32 388.674 55.8 390.194 56.68C391.714 57.6 392.954 58.84 393.874 60.44C394.754 62.04 395.234 63.84 395.234 65.84C395.234 67.88 394.794 69.72 393.914 71.32C393.034 72.92 391.794 74.2 390.274 75.08C388.754 75.96 387.074 76.4 385.234 76.4C383.354 76.4 381.634 75.96 380.114 75ZM381.954 73.16C383.074 74.84 384.434 75.64 385.954 75.64C387.474 75.64 388.634 74.92 389.474 73.44C390.274 72 390.714 70.08 390.714 67.72C390.714 66.96 390.634 66 390.514 64.88C390.154 62.24 389.434 60.12 388.314 58.52C387.194 56.92 385.914 56.08 384.434 56.08C382.874 56.08 381.674 56.84 380.834 58.32C379.994 59.84 379.594 61.76 379.594 64.08C379.594 65.04 379.634 65.88 379.754 66.64C380.074 69.32 380.834 71.48 381.954 73.16ZM407.108 51.48C406.588 50.92 406.348 50.24 406.348 49.36C406.348 48.56 406.588 47.92 407.108 47.4C407.628 46.88 408.308 46.6 409.148 46.6C409.988 46.6 410.668 46.88 411.188 47.4C411.708 47.92 411.988 48.56 411.988 49.36C411.988 50.24 411.708 50.92 411.188 51.48C410.668 52.04 409.988 52.28 409.148 52.28C408.308 52.28 407.628 52.04 407.108 51.48ZM404.548 75.48C405.428 75.48 406.108 75.24 406.588 74.68C407.068 74.16 407.348 73.24 407.348 71.96V60.08C407.348 59.12 407.108 58.48 406.708 58.08C406.308 57.68 405.628 57.48 404.708 57.44V56.92C407.268 56.76 409.467 56.24 411.308 55.36L411.668 55.56V71.96C411.668 73.28 411.908 74.2 412.388 74.72C412.868 75.24 413.548 75.48 414.467 75.48V76H404.548V75.48ZM414.508 75.48C415.388 75.48 416.068 75.24 416.548 74.68C417.028 74.16 417.308 73.24 417.308 71.96L417.428 51.16C417.428 50.2 417.188 49.52 416.788 49.12C416.388 48.72 415.708 48.52 414.788 48.52V48C417.348 47.84 419.548 47.32 421.388 46.44L421.748 46.64V71.96C421.748 73.24 421.988 74.16 422.468 74.68C422.948 75.24 423.668 75.48 424.548 75.48V76H414.508V75.48ZM449.578 72.16C448.938 73.44 448.098 74.48 447.138 75.24C446.138 76.04 445.018 76.4 443.778 76.4C441.858 76.4 440.338 75.76 439.218 74.4C438.098 73.08 437.298 71.04 436.858 68.28L435.418 59.72C435.178 58.44 434.818 57.56 434.298 57.04C433.738 56.52 433.058 56.24 432.178 56.24V55.72H441.858V56.24C440.378 56.24 439.658 57.04 439.658 58.6C439.658 59.08 439.658 59.48 439.738 59.72L440.898 67.08C441.258 69.24 441.818 70.84 442.538 71.88C443.258 72.96 444.338 73.48 445.738 73.48C447.098 73.48 448.338 72.88 449.378 71.6C449.018 70.64 448.738 69.56 448.538 68.28L447.098 59.72C446.858 58.44 446.498 57.56 446.018 57.04C445.498 56.52 444.818 56.24 444.018 56.24V55.72H453.538V56.24C452.058 56.24 451.338 57.04 451.338 58.64C451.338 59.12 451.338 59.48 451.418 59.72L452.618 67.08C452.938 69.24 453.498 70.88 454.258 71.92C454.978 72.96 456.058 73.48 457.418 73.48C458.538 73.48 459.618 73.12 460.618 72.36C461.618 71.64 462.418 70.6 463.058 69.32C463.658 68.04 463.978 66.6 463.978 65.08C463.978 63.32 463.618 61.84 462.898 60.72C462.178 59.6 461.258 59.04 460.058 59.04C459.578 59.04 459.018 59.16 458.458 59.36C458.218 59.48 457.898 59.52 457.578 59.52C457.018 59.52 456.538 59.36 456.138 58.96C455.738 58.6 455.578 58.12 455.578 57.52C455.578 56.88 455.778 56.36 456.178 55.96C456.578 55.56 457.138 55.36 457.938 55.36C459.058 55.36 460.138 55.72 461.178 56.36C462.218 57 463.058 58 463.698 59.32C464.338 60.68 464.698 62.32 464.698 64.24C464.698 66.44 464.258 68.48 463.418 70.32C462.578 72.2 461.458 73.68 460.058 74.76C458.658 75.88 457.178 76.4 455.618 76.4C452.778 76.4 450.778 75 449.578 72.16ZM471.31 75C469.91 74.08 468.83 72.8 468.07 71.2C467.27 69.6 466.91 67.88 466.91 65.96C466.91 63.96 467.31 62.16 468.19 60.56C469.07 58.96 470.23 57.68 471.75 56.72C473.23 55.8 474.87 55.32 476.63 55.32C478.15 55.32 479.51 55.68 480.63 56.36C481.75 57.08 482.63 58 483.23 59.16C483.83 60.36 484.15 61.64 484.15 63H471.15C471.11 63.16 471.11 63.4 471.11 63.68C471.11 65.56 471.39 67.2 471.99 68.64C472.55 70.08 473.39 71.2 474.47 72C475.55 72.8 476.83 73.16 478.27 73.16C479.87 73.16 481.23 72.68 482.35 71.72C483.47 70.76 484.19 69.52 484.51 67.92L485.07 68C484.83 69.6 484.27 71.04 483.47 72.32C482.67 73.6 481.63 74.6 480.35 75.32C479.07 76.04 477.67 76.4 476.15 76.4C474.31 76.4 472.71 75.96 471.31 75ZM478.19 62.32C478.75 62.32 479.19 62.2 479.43 61.92C479.67 61.64 479.83 61.16 479.83 60.52C479.83 59.4 479.51 58.36 478.95 57.4C478.35 56.44 477.47 55.92 476.31 55.92C475.11 55.92 473.99 56.56 473.03 57.8C472.03 59.08 471.43 60.56 471.19 62.32H478.19ZM491.418 75.68C489.938 75.2 488.618 74.56 487.418 73.76V51.16C487.418 50.2 487.178 49.52 486.778 49.12C486.378 48.72 485.698 48.52 484.778 48.52V48C487.338 47.84 489.538 47.32 491.378 46.44L491.738 46.64V60.2C492.098 58.96 492.858 57.84 494.018 56.88C495.138 55.92 496.498 55.4 498.058 55.4C499.618 55.4 501.018 55.88 502.258 56.84C503.458 57.8 504.418 59.04 505.098 60.6C505.738 62.2 506.098 63.88 506.098 65.68C506.098 67.76 505.658 69.64 504.778 71.24C503.898 72.88 502.658 74.16 501.138 75.04C499.618 75.96 497.898 76.4 496.058 76.4C494.458 76.4 492.898 76.16 491.418 75.68ZM492.858 73.8C493.618 75.16 494.778 75.8 496.298 75.8C497.898 75.8 499.218 75 500.178 73.36C501.138 71.76 501.618 69.64 501.618 67.04C501.618 65.12 501.338 63.44 500.858 62C500.378 60.6 499.698 59.52 498.858 58.8C497.978 58.08 497.018 57.68 495.938 57.68C494.898 57.68 494.018 58.08 493.258 58.8C492.458 59.52 491.978 60.44 491.738 61.56V67.48C491.738 70.36 492.098 72.44 492.858 73.8Z" fill="black"/>
</svg>
