<svg viewBox="0 0 219 75" fill="none" xmlns="http://www.w3.org/2000/svg">
<path d="M22.1583 17.136C20.8623 16.368 19.8063 15.336 19.0383 14.016C18.2463 12.72 17.8623 11.256 17.8623 9.672C17.8623 7.992 18.2463 6.48 19.0143 5.136C19.7823 3.816 20.8143 2.784 22.0863 2.04C23.3583 1.32 24.7263 0.935999 26.1903 0.935999C27.6783 0.935999 29.0463 1.32 30.3423 2.088C31.6143 2.856 32.6223 3.912 33.3903 5.232C34.1583 6.552 34.5423 7.992 34.5423 9.576C34.5423 11.256 34.1583 12.744 33.3903 14.064C32.6223 15.384 31.6143 16.416 30.3663 17.16C29.0943 17.904 27.7263 18.264 26.2623 18.264C24.8223 18.264 23.4543 17.904 22.1583 17.136ZM21.8943 13.968C22.4463 15.12 23.1423 16.056 23.9823 16.728C24.8223 17.424 25.7583 17.76 26.7663 17.76C27.7263 17.76 28.5663 17.472 29.3103 16.848C30.0543 16.248 30.6303 15.408 31.0623 14.328C31.4703 13.248 31.6863 12.024 31.6863 10.632C31.6863 10.056 31.6383 9.504 31.5903 8.976C31.3983 7.56 31.0623 6.288 30.5343 5.136C30.0063 3.984 29.3103 3.096 28.4943 2.424C27.6783 1.752 26.7423 1.416 25.7343 1.416C25.3983 1.416 25.1583 1.44 25.0143 1.464C24.1743 1.608 23.4303 2.016 22.7823 2.664C22.1343 3.312 21.6303 4.152 21.2703 5.16C20.8863 6.192 20.7183 7.32 20.7183 8.568C20.7183 9.144 20.7423 9.696 20.8143 10.176C20.9823 11.568 21.3423 12.816 21.8943 13.968ZM37.8286 17.136C37.2526 16.392 36.9646 15.432 36.9646 14.232V6.792H35.4526V6.456C36.4366 6.36 37.2766 6.024 37.9486 5.4C38.6206 4.776 39.0526 3.936 39.2446 2.856H39.5806V5.832H43.1566L42.7486 6.792H39.5806V13.968C39.5806 14.784 39.7486 15.456 40.0846 15.96C40.4206 16.488 40.9006 16.728 41.5006 16.728C41.9806 16.728 42.3646 16.584 42.6766 16.248C42.9886 15.912 43.2046 15.504 43.3246 15L43.6126 15.048C43.4926 15.96 43.1326 16.704 42.5566 17.328C41.9566 17.952 41.2366 18.24 40.4206 18.24C39.2686 18.24 38.4046 17.88 37.8286 17.136ZM45.938 17.136C45.362 16.392 45.074 15.432 45.074 14.232V6.792H43.562V6.456C44.546 6.36 45.386 6.024 46.058 5.4C46.73 4.776 47.162 3.936 47.354 2.856H47.69V5.832H51.266L50.858 6.792H47.69V13.968C47.69 14.784 47.858 15.456 48.194 15.96C48.53 16.488 49.01 16.728 49.61 16.728C50.09 16.728 50.474 16.584 50.786 16.248C51.098 15.912 51.314 15.504 51.434 15L51.722 15.048C51.602 15.96 51.242 16.704 50.666 17.328C50.066 17.952 49.346 18.24 48.53 18.24C47.378 18.24 46.514 17.88 45.938 17.136ZM54.845 17.4C53.909 16.848 53.165 16.08 52.637 15.096C52.085 14.136 51.821 13.056 51.821 11.856C51.821 10.632 52.085 9.552 52.637 8.592C53.165 7.632 53.909 6.912 54.845 6.384C55.757 5.856 56.765 5.592 57.869 5.592C58.973 5.592 59.981 5.88 60.893 6.408C61.805 6.96 62.549 7.704 63.101 8.664C63.629 9.624 63.917 10.704 63.917 11.904C63.917 13.128 63.653 14.232 63.125 15.192C62.597 16.152 61.853 16.92 60.941 17.448C60.029 17.976 59.021 18.24 57.917 18.24C56.789 18.24 55.757 17.976 54.845 17.4ZM55.949 16.296C56.621 17.304 57.437 17.784 58.349 17.784C59.261 17.784 59.957 17.352 60.461 16.464C60.941 15.6 61.205 14.448 61.205 13.032C61.205 12.576 61.157 12 61.085 11.328C60.869 9.744 60.437 8.472 59.765 7.512C59.093 6.552 58.325 6.048 57.437 6.048C56.501 6.048 55.781 6.504 55.277 7.392C54.773 8.304 54.533 9.456 54.533 10.848C54.533 11.424 54.557 11.928 54.629 12.384C54.821 13.992 55.277 15.288 55.949 16.296ZM72.3851 17.424C71.6171 16.896 71.0411 16.152 70.6091 15.192C70.1771 14.256 69.9851 13.2 69.9851 12.048C69.9851 10.896 70.2251 9.816 70.7291 8.832C71.2091 7.872 71.9051 7.08 72.7691 6.504C73.6331 5.928 74.5691 5.64 75.6251 5.64C76.8731 5.64 77.9291 6.12 78.7451 7.08V3.096C78.7451 2.52 78.6251 2.112 78.3851 1.872C78.1451 1.632 77.7371 1.512 77.1851 1.512V1.2C78.7211 1.104 80.0411 0.792 81.1211 0.263999L81.3611 0.383999V15.744C81.3611 16.272 81.4811 16.632 81.7211 16.824C81.9611 17.016 82.3691 17.088 82.9451 17.064V17.376C81.3611 17.568 80.0651 17.88 79.0091 18.288L78.7451 18.144V15.648C78.5051 16.296 78.0491 16.896 77.3771 17.424C76.6811 17.976 75.8651 18.24 74.9051 18.24C73.9691 18.24 73.1291 17.976 72.3851 17.424ZM73.2011 14.208C73.5131 15.072 73.9451 15.696 74.4971 16.128C75.0251 16.56 75.6251 16.776 76.2731 16.776C76.8491 16.776 77.3771 16.608 77.8091 16.272C78.2411 15.936 78.5531 15.48 78.7451 14.904V11.064C78.7451 9.72 78.4811 8.544 77.9531 7.56C77.4251 6.6 76.7051 6.096 75.8171 6.096C75.1931 6.096 74.6651 6.336 74.1851 6.768C73.7051 7.2 73.3451 7.8 73.1051 8.568C72.8411 9.336 72.7211 10.2 72.7211 11.16C72.7211 12.36 72.8651 13.368 73.2011 14.208ZM84.7051 3.288C84.3931 2.952 84.2491 2.544 84.2491 2.016C84.2491 1.536 84.3931 1.152 84.7051 0.839999C85.0171 0.527999 85.4251 0.36 85.9291 0.36C86.4331 0.36 86.8411 0.527999 87.1531 0.839999C87.4651 1.152 87.6331 1.536 87.6331 2.016C87.6331 2.544 87.4651 2.952 87.1531 3.288C86.8411 3.624 86.4331 3.768 85.9291 3.768C85.4251 3.768 85.0171 3.624 84.7051 3.288ZM83.1691 17.688C83.6971 17.688 84.1051 17.544 84.3931 17.208C84.6811 16.896 84.8491 16.344 84.8491 15.576V8.448C84.8491 7.872 84.7051 7.488 84.4651 7.248C84.2251 7.008 83.8171 6.888 83.2651 6.864V6.552C84.8011 6.456 86.1211 6.144 87.2251 5.616L87.4411 5.736V15.576C87.4411 16.368 87.5851 16.92 87.8731 17.232C88.1611 17.544 88.5691 17.688 89.1211 17.688V18H83.1691V17.688ZM92.7524 17.808C91.8644 17.52 91.0724 17.136 90.3524 16.656V3.096C90.3524 2.52 90.2084 2.112 89.9684 1.872C89.7284 1.632 89.3204 1.512 88.7684 1.512V1.2C90.3044 1.104 91.6244 0.792 92.7284 0.263999L92.9444 0.383999V8.52C93.1604 7.776 93.6164 7.104 94.3124 6.528C94.9844 5.952 95.8004 5.64 96.7364 5.64C97.6724 5.64 98.5124 5.928 99.2564 6.504C99.9764 7.08 100.552 7.824 100.96 8.76C101.344 9.72 101.56 10.728 101.56 11.808C101.56 13.056 101.296 14.184 100.768 15.144C100.24 16.128 99.4964 16.896 98.5844 17.424C97.6724 17.976 96.6404 18.24 95.5364 18.24C94.5764 18.24 93.6404 18.096 92.7524 17.808ZM93.6164 16.68C94.0724 17.496 94.7684 17.88 95.6804 17.88C96.6404 17.88 97.4324 17.4 98.0084 16.416C98.5844 15.456 98.8724 14.184 98.8724 12.624C98.8724 11.472 98.7044 10.464 98.4164 9.6C98.1284 8.76 97.7204 8.112 97.2164 7.68C96.6884 7.248 96.1124 7.008 95.4644 7.008C94.8404 7.008 94.3124 7.248 93.8564 7.68C93.3764 8.112 93.0884 8.664 92.9444 9.336V12.888C92.9444 14.616 93.1604 15.864 93.6164 16.68ZM110.674 17.544C110.29 17.112 110.05 16.488 109.954 15.696L109.882 15.168C109.786 15.696 109.546 16.2 109.21 16.656C108.85 17.136 108.394 17.52 107.842 17.808C107.266 18.096 106.642 18.24 105.946 18.24C104.938 18.24 104.098 17.952 103.45 17.376C102.802 16.8 102.49 16.056 102.49 15.144C102.49 14.328 102.754 13.656 103.33 13.128C103.906 12.6 104.722 12.288 105.778 12.192L109.426 11.904L109.258 10.68C109.114 9.552 108.778 8.664 108.25 8.016C107.722 7.392 107.026 7.056 106.162 7.056C105.465 7.056 104.866 7.272 104.338 7.656C103.81 8.04 103.426 8.568 103.162 9.216L102.85 9.144C102.994 8.568 103.282 7.992 103.714 7.44C104.146 6.912 104.674 6.456 105.322 6.12C105.97 5.784 106.69 5.592 107.482 5.592C108.682 5.592 109.666 5.976 110.41 6.744C111.154 7.512 111.61 8.616 111.802 10.032L112.498 15.336C112.618 16.248 112.93 16.68 113.458 16.68C113.602 16.68 113.746 16.632 113.866 16.488C113.986 16.368 114.057 16.2 114.106 15.984L114.394 16.008C114.346 16.584 114.154 17.088 113.77 17.52C113.386 17.976 112.882 18.192 112.258 18.192C111.586 18.192 111.058 17.976 110.674 17.544ZM105.538 16.176C105.946 16.608 106.498 16.824 107.218 16.824C107.938 16.824 108.538 16.608 109.018 16.176C109.474 15.744 109.738 15.216 109.81 14.616L109.474 12.264L107.122 12.456C106.402 12.528 105.85 12.768 105.465 13.152C105.082 13.536 104.914 14.04 104.914 14.616C104.914 15.24 105.105 15.744 105.538 16.176ZM116.297 17.136C115.721 16.392 115.433 15.432 115.433 14.232V6.792H113.921V6.456C114.905 6.36 115.745 6.024 116.417 5.4C117.089 4.776 117.521 3.936 117.713 2.856H118.049V5.832H121.625L121.217 6.792H118.049V13.968C118.049 14.784 118.217 15.456 118.553 15.96C118.889 16.488 119.369 16.728 119.969 16.728C120.449 16.728 120.833 16.584 121.145 16.248C121.457 15.912 121.673 15.504 121.793 15L122.081 15.048C121.961 15.96 121.601 16.704 121.025 17.328C120.425 17.952 119.705 18.24 118.889 18.24C117.737 18.24 116.873 17.88 116.297 17.136ZM124.407 17.136C123.831 16.392 123.543 15.432 123.543 14.232V6.792H122.031V6.456C123.015 6.36 123.855 6.024 124.527 5.4C125.199 4.776 125.631 3.936 125.823 2.856H126.159V5.832H129.735L129.327 6.792H126.159V13.968C126.159 14.784 126.327 15.456 126.663 15.96C126.999 16.488 127.479 16.728 128.079 16.728C128.559 16.728 128.943 16.584 129.255 16.248C129.567 15.912 129.783 15.504 129.903 15L130.191 15.048C130.071 15.96 129.711 16.704 129.135 17.328C128.535 17.952 127.815 18.24 126.999 18.24C125.847 18.24 124.983 17.88 124.407 17.136ZM131.697 3.288C131.385 2.952 131.241 2.544 131.241 2.016C131.241 1.536 131.385 1.152 131.697 0.839999C132.009 0.527999 132.417 0.36 132.921 0.36C133.425 0.36 133.833 0.527999 134.145 0.839999C134.457 1.152 134.625 1.536 134.625 2.016C134.625 2.544 134.457 2.952 134.145 3.288C133.833 3.624 133.425 3.768 132.921 3.768C132.417 3.768 132.009 3.624 131.697 3.288ZM130.161 17.688C130.689 17.688 131.097 17.544 131.385 17.208C131.673 16.896 131.841 16.344 131.841 15.576V8.448C131.841 7.872 131.697 7.488 131.457 7.248C131.217 7.008 130.809 6.888 130.257 6.864V6.552C131.793 6.456 133.113 6.144 134.217 5.616L134.433 5.736V15.576C134.433 16.368 134.577 16.92 134.865 17.232C135.153 17.544 135.561 17.688 136.113 17.688V18H130.161V17.688ZM138.282 17.136C137.706 16.392 137.418 15.432 137.418 14.232V6.792H135.906V6.456C136.89 6.36 137.73 6.024 138.402 5.4C139.074 4.776 139.506 3.936 139.698 2.856H140.034V5.832H143.61L143.202 6.792H140.034V13.968C140.034 14.784 140.202 15.456 140.538 15.96C140.874 16.488 141.354 16.728 141.954 16.728C142.434 16.728 142.818 16.584 143.13 16.248C143.442 15.912 143.658 15.504 143.778 15L144.066 15.048C143.946 15.96 143.586 16.704 143.01 17.328C142.41 17.952 141.69 18.24 140.874 18.24C139.722 18.24 138.858 17.88 138.282 17.136ZM145.572 3.288C145.26 2.952 145.116 2.544 145.116 2.016C145.116 1.536 145.26 1.152 145.572 0.839999C145.884 0.527999 146.292 0.36 146.796 0.36C147.3 0.36 147.708 0.527999 148.02 0.839999C148.332 1.152 148.5 1.536 148.5 2.016C148.5 2.544 148.332 2.952 148.02 3.288C147.708 3.624 147.3 3.768 146.796 3.768C146.292 3.768 145.884 3.624 145.572 3.288ZM144.036 17.688C144.564 17.688 144.972 17.544 145.26 17.208C145.548 16.896 145.716 16.344 145.716 15.576V8.448C145.716 7.872 145.572 7.488 145.332 7.248C145.092 7.008 144.684 6.888 144.132 6.864V6.552C145.668 6.456 146.988 6.144 148.092 5.616L148.308 5.736V15.576C148.308 16.368 148.452 16.92 148.74 17.232C149.028 17.544 149.436 17.688 149.988 17.688V18H144.036V17.688ZM155.742 13.224L156.054 13.152C156.438 14.376 156.99 15.456 157.71 16.392C158.43 17.352 159.366 17.832 160.566 17.832C161.31 17.832 161.91 17.64 162.342 17.256C162.774 16.872 163.014 16.368 163.038 15.768C163.038 15.192 162.822 14.688 162.414 14.304C161.982 13.92 161.31 13.56 160.35 13.224L158.91 12.648C157.902 12.264 157.158 11.808 156.63 11.232C156.102 10.656 155.862 9.936 155.862 9.072C155.862 8.448 156.03 7.848 156.414 7.32C156.774 6.792 157.278 6.384 157.926 6.072C158.574 5.784 159.294 5.616 160.062 5.616C160.686 5.616 161.406 5.76 162.198 6.024C162.63 6.168 162.918 6.216 163.062 6.216C163.398 6.216 163.662 5.976 163.806 5.472L164.142 5.448L164.454 10.152L164.118 10.2C163.926 9.576 163.638 8.952 163.254 8.304C162.87 7.656 162.39 7.104 161.838 6.648C161.262 6.216 160.662 5.976 160.014 5.976C159.366 5.976 158.838 6.168 158.454 6.552C158.07 6.936 157.878 7.416 157.878 7.944C157.878 8.472 158.07 8.952 158.478 9.336C158.886 9.72 159.534 10.08 160.398 10.368L161.814 10.944C162.894 11.352 163.686 11.832 164.214 12.384C164.742 12.936 165.006 13.608 165.006 14.4C165.006 15.192 164.79 15.864 164.406 16.44C163.998 17.016 163.47 17.472 162.822 17.76C162.174 18.072 161.478 18.216 160.734 18.216C160.302 18.216 159.894 18.192 159.558 18.12C159.198 18.048 158.79 17.952 158.334 17.808C157.83 17.664 157.494 17.592 157.326 17.592C157.134 17.592 156.966 17.664 156.846 17.76C156.726 17.856 156.606 18.024 156.51 18.264L156.15 18.288L155.742 13.224ZM168.914 17.688C168.314 17.304 167.858 16.752 167.522 16.032C167.186 15.312 167.018 14.448 167.018 13.464V8.448C167.018 7.872 166.874 7.488 166.634 7.248C166.394 7.008 165.986 6.888 165.434 6.864V6.552C166.97 6.456 168.29 6.144 169.394 5.616L169.61 5.736V13.2C169.61 14.304 169.802 15.192 170.234 15.816C170.642 16.464 171.266 16.776 172.106 16.776C172.826 16.776 173.378 16.536 173.786 16.032C174.194 15.528 174.434 14.928 174.506 14.256V8.448C174.506 7.872 174.362 7.488 174.122 7.248C173.882 7.008 173.474 6.888 172.922 6.864V6.552C174.458 6.456 175.778 6.144 176.882 5.616L177.098 5.736V15.744C177.098 16.272 177.218 16.632 177.458 16.824C177.698 17.016 178.13 17.088 178.706 17.064V17.376C177.146 17.568 175.826 17.88 174.746 18.288L174.506 18.144V15.408C174.242 16.176 173.81 16.848 173.21 17.424C172.586 18 171.842 18.264 170.93 18.264C170.162 18.264 169.49 18.072 168.914 17.688ZM178.654 17.688C179.182 17.688 179.59 17.544 179.878 17.208C180.166 16.896 180.334 16.344 180.334 15.576L180.406 3.096C180.406 2.52 180.262 2.112 180.021 1.872C179.782 1.632 179.374 1.512 178.822 1.512V1.2C180.358 1.104 181.678 0.792 182.782 0.263999L182.998 0.383999V15.576C182.998 16.344 183.142 16.896 183.43 17.208C183.718 17.544 184.15 17.688 184.678 17.688V18H178.654V17.688ZM184.7 17.688C185.228 17.688 185.636 17.544 185.924 17.208C186.212 16.896 186.38 16.344 186.38 15.576L186.452 3.096C186.452 2.52 186.308 2.112 186.068 1.872C185.828 1.632 185.42 1.512 184.868 1.512V1.2C186.404 1.104 187.724 0.792 188.828 0.263999L189.044 0.383999V15.576C189.044 16.344 189.188 16.896 189.476 17.208C189.764 17.544 190.196 17.688 190.724 17.688V18H184.7V17.688ZM199.127 17.544C198.743 17.112 198.503 16.488 198.407 15.696L198.335 15.168C198.239 15.696 197.999 16.2 197.663 16.656C197.303 17.136 196.847 17.52 196.295 17.808C195.719 18.096 195.095 18.24 194.399 18.24C193.391 18.24 192.551 17.952 191.903 17.376C191.255 16.8 190.943 16.056 190.943 15.144C190.943 14.328 191.207 13.656 191.783 13.128C192.359 12.6 193.175 12.288 194.231 12.192L197.879 11.904L197.711 10.68C197.567 9.552 197.231 8.664 196.703 8.016C196.175 7.392 195.479 7.056 194.615 7.056C193.919 7.056 193.319 7.272 192.791 7.656C192.263 8.04 191.879 8.568 191.615 9.216L191.303 9.144C191.447 8.568 191.735 7.992 192.167 7.44C192.599 6.912 193.127 6.456 193.775 6.12C194.423 5.784 195.143 5.592 195.935 5.592C197.135 5.592 198.119 5.976 198.863 6.744C199.607 7.512 200.063 8.616 200.255 10.032L200.951 15.336C201.071 16.248 201.383 16.68 201.911 16.68C202.055 16.68 202.199 16.632 202.319 16.488C202.439 16.368 202.511 16.2 202.559 15.984L202.847 16.008C202.799 16.584 202.607 17.088 202.223 17.52C201.839 17.976 201.335 18.192 200.711 18.192C200.039 18.192 199.511 17.976 199.127 17.544ZM193.991 16.176C194.399 16.608 194.951 16.824 195.671 16.824C196.391 16.824 196.991 16.608 197.471 16.176C197.927 15.744 198.191 15.216 198.263 14.616L197.927 12.264L195.575 12.456C194.855 12.528 194.303 12.768 193.919 13.152C193.535 13.536 193.367 14.04 193.367 14.616C193.367 15.24 193.559 15.744 193.991 16.176ZM14.1079 45.808C13.2199 45.52 12.4279 45.136 11.7079 44.656V31.096C11.7079 30.52 11.5639 30.112 11.3239 29.872C11.0839 29.632 10.6759 29.512 10.1239 29.512V29.2C11.6599 29.104 12.9799 28.792 14.0839 28.264L14.2999 28.384V36.52C14.5159 35.776 14.9719 35.104 15.6679 34.528C16.3399 33.952 17.1559 33.64 18.0919 33.64C19.0279 33.64 19.8679 33.928 20.6119 34.504C21.3319 35.08 21.9079 35.824 22.3159 36.76C22.6999 37.72 22.9159 38.728 22.9159 39.808C22.9159 41.056 22.6519 42.184 22.1239 43.144C21.5959 44.128 20.8519 44.896 19.9399 45.424C19.0279 45.976 17.9959 46.24 16.8919 46.24C15.9319 46.24 14.9959 46.096 14.1079 45.808ZM14.9719 44.68C15.4279 45.496 16.1239 45.88 17.0359 45.88C17.9959 45.88 18.7879 45.4 19.3639 44.416C19.9399 43.456 20.2279 42.184 20.2279 40.624C20.2279 39.472 20.0599 38.464 19.7719 37.6C19.4839 36.76 19.0759 36.112 18.5719 35.68C18.0439 35.248 17.4679 35.008 16.8199 35.008C16.1959 35.008 15.6679 35.248 15.2119 35.68C14.7319 36.112 14.4439 36.664 14.2999 37.336V40.888C14.2999 42.616 14.5159 43.864 14.9719 44.68ZM24.5762 31.288C24.2642 30.952 24.1202 30.544 24.1202 30.016C24.1202 29.536 24.2642 29.152 24.5762 28.84C24.8882 28.528 25.2962 28.36 25.8002 28.36C26.3042 28.36 26.7122 28.528 27.0242 28.84C27.3362 29.152 27.5042 29.536 27.5042 30.016C27.5042 30.544 27.3362 30.952 27.0242 31.288C26.7122 31.624 26.3042 31.768 25.8002 31.768C25.2962 31.768 24.8882 31.624 24.5762 31.288ZM23.0402 45.688C23.5682 45.688 23.9762 45.544 24.2642 45.208C24.5522 44.896 24.7202 44.344 24.7202 43.576V36.448C24.7202 35.872 24.5762 35.488 24.3362 35.248C24.0962 35.008 23.6882 34.888 23.1362 34.864V34.552C24.6722 34.456 25.9922 34.144 27.0962 33.616L27.3122 33.736V43.576C27.3122 44.368 27.4562 44.92 27.7442 45.232C28.0322 45.544 28.4402 45.688 28.9922 45.688V46H23.0402V45.688ZM32.1223 45.4C31.1863 44.848 30.4423 44.08 29.9143 43.096C29.3623 42.136 29.0983 41.056 29.0983 39.856C29.0983 38.632 29.3623 37.552 29.9143 36.592C30.4423 35.632 31.1863 34.912 32.1223 34.384C33.0343 33.856 34.0423 33.592 35.1463 33.592C36.2503 33.592 37.2583 33.88 38.1703 34.408C39.0823 34.96 39.8263 35.704 40.3783 36.664C40.9063 37.624 41.1943 38.704 41.1943 39.904C41.1943 41.128 40.9303 42.232 40.4023 43.192C39.8743 44.152 39.1303 44.92 38.2183 45.448C37.3063 45.976 36.2983 46.24 35.1943 46.24C34.0663 46.24 33.0343 45.976 32.1223 45.4ZM33.2263 44.296C33.8983 45.304 34.7143 45.784 35.6263 45.784C36.5383 45.784 37.2343 45.352 37.7383 44.464C38.2183 43.6 38.4823 42.448 38.4823 41.032C38.4823 40.576 38.4343 40 38.3623 39.328C38.1463 37.744 37.7143 36.472 37.0423 35.512C36.3703 34.552 35.6023 34.048 34.7143 34.048C33.7783 34.048 33.0583 34.504 32.5543 35.392C32.0503 36.304 31.8103 37.456 31.8103 38.848C31.8103 39.424 31.8343 39.928 31.9063 40.384C32.0983 41.992 32.5543 43.288 33.2263 44.296ZM44.9046 45.424C44.1366 44.896 43.5606 44.152 43.1286 43.192C42.6966 42.256 42.5046 41.2 42.5046 40.048C42.5046 38.896 42.7446 37.816 43.2486 36.832C43.7286 35.872 44.4246 35.08 45.2886 34.504C46.1526 33.928 47.0886 33.64 48.1446 33.64C49.3926 33.64 50.4486 34.12 51.2646 35.08V31.096C51.2646 30.52 51.1446 30.112 50.9046 29.872C50.6646 29.632 50.2566 29.512 49.7046 29.512V29.2C51.2406 29.104 52.5606 28.792 53.6406 28.264L53.8806 28.384V43.744C53.8806 44.272 54.0006 44.632 54.2406 44.824C54.4806 45.016 54.8886 45.088 55.4646 45.064V45.376C53.8806 45.568 52.5846 45.88 51.5286 46.288L51.2646 46.144V43.648C51.0246 44.296 50.5686 44.896 49.8966 45.424C49.2006 45.976 48.3846 46.24 47.4246 46.24C46.4886 46.24 45.6486 45.976 44.9046 45.424ZM45.7206 42.208C46.0326 43.072 46.4646 43.696 47.0166 44.128C47.5446 44.56 48.1446 44.776 48.7926 44.776C49.3686 44.776 49.8966 44.608 50.3286 44.272C50.7606 43.936 51.0726 43.48 51.2646 42.904V39.064C51.2646 37.72 51.0006 36.544 50.4726 35.56C49.9446 34.6 49.2246 34.096 48.3366 34.096C47.7126 34.096 47.1846 34.336 46.7046 34.768C46.2246 35.2 45.8646 35.8 45.6246 36.568C45.3606 37.336 45.2406 38.2 45.2406 39.16C45.2406 40.36 45.3846 41.368 45.7206 42.208ZM57.2247 31.288C56.9127 30.952 56.7687 30.544 56.7687 30.016C56.7687 29.536 56.9127 29.152 57.2247 28.84C57.5367 28.528 57.9447 28.36 58.4487 28.36C58.9527 28.36 59.3607 28.528 59.6727 28.84C59.9847 29.152 60.1527 29.536 60.1527 30.016C60.1527 30.544 59.9847 30.952 59.6727 31.288C59.3607 31.624 58.9527 31.768 58.4487 31.768C57.9447 31.768 57.5367 31.624 57.2247 31.288ZM55.6887 45.688C56.2167 45.688 56.6247 45.544 56.9127 45.208C57.2007 44.896 57.3687 44.344 57.3687 43.576V36.448C57.3687 35.872 57.2247 35.488 56.9847 35.248C56.7447 35.008 56.3367 34.888 55.7847 34.864V34.552C57.3207 34.456 58.6407 34.144 59.7447 33.616L59.9607 33.736V43.576C59.9607 44.368 60.1047 44.92 60.3927 45.232C60.6807 45.544 61.0887 45.688 61.6407 45.688V46H55.6887V45.688ZM65.0794 45.04C64.4074 44.248 63.9274 43.024 63.6634 41.368L62.8234 36.232C62.6794 35.464 62.4634 34.936 62.1514 34.624C61.8154 34.312 61.4074 34.144 60.8794 34.144V33.832H66.7354V34.144C65.7994 34.144 65.3434 34.624 65.3434 35.584C65.3434 35.872 65.3434 36.088 65.3914 36.232L66.1114 40.648C66.3034 41.944 66.6394 42.928 67.0954 43.576C67.5274 44.248 68.1754 44.56 69.0394 44.56C69.6634 44.56 70.2634 44.344 70.8634 43.864C71.4634 43.384 71.9434 42.76 72.3274 41.944C72.6874 41.152 72.8794 40.288 72.8794 39.328C72.8794 38.272 72.6634 37.408 72.2554 36.784C71.8474 36.16 71.2954 35.824 70.5994 35.824C70.2634 35.824 69.9274 35.896 69.6394 36.016C69.4954 36.088 69.3274 36.112 69.1354 36.112C68.7994 36.112 68.5114 36.016 68.2714 35.776C68.0314 35.536 67.9354 35.248 67.9354 34.864C67.9354 34.528 68.0554 34.216 68.2954 33.976C68.5354 33.736 68.8714 33.616 69.3514 33.616C70.0234 33.616 70.6474 33.832 71.2474 34.216C71.8474 34.6 72.3274 35.2 72.7114 35.992C73.0954 36.808 73.2874 37.792 73.2874 38.944C73.2874 40.264 73.0234 41.488 72.5194 42.592C71.9914 43.72 71.3194 44.608 70.4794 45.256C69.6394 45.928 68.7514 46.24 67.8154 46.24C66.6634 46.24 65.7514 45.856 65.0794 45.04ZM77.2305 45.4C76.3905 44.848 75.7425 44.08 75.2865 43.12C74.8065 42.16 74.5905 41.128 74.5905 39.976C74.5905 38.776 74.8305 37.696 75.3585 36.736C75.8865 35.776 76.5825 35.008 77.4945 34.432C78.3825 33.88 79.3665 33.592 80.4225 33.592C81.3345 33.592 82.1505 33.808 82.8225 34.216C83.4945 34.648 84.0225 35.2 84.3825 35.896C84.7425 36.616 84.9345 37.384 84.9345 38.2H77.1345C77.1105 38.296 77.1105 38.44 77.1105 38.608C77.1105 39.736 77.2785 40.72 77.6385 41.584C77.9745 42.448 78.4785 43.12 79.1265 43.6C79.7745 44.08 80.5425 44.296 81.4065 44.296C82.3665 44.296 83.1825 44.008 83.8545 43.432C84.5265 42.856 84.9585 42.112 85.1505 41.152L85.4865 41.2C85.3425 42.16 85.0065 43.024 84.5265 43.792C84.0465 44.56 83.4225 45.16 82.6545 45.592C81.8865 46.024 81.0465 46.24 80.1345 46.24C79.0305 46.24 78.0705 45.976 77.2305 45.4ZM81.3585 37.792C81.6945 37.792 81.9585 37.72 82.1025 37.552C82.2465 37.384 82.3425 37.096 82.3425 36.712C82.3425 36.04 82.1505 35.416 81.8145 34.84C81.4545 34.264 80.9265 33.952 80.2305 33.952C79.5105 33.952 78.8385 34.336 78.2625 35.08C77.6625 35.848 77.3025 36.736 77.1585 37.792H81.3585ZM85.384 45.688C85.912 45.688 86.32 45.544 86.608 45.208C86.896 44.896 87.064 44.344 87.064 43.576V36.448C87.064 35.872 86.944 35.488 86.704 35.248C86.464 35.008 86.056 34.888 85.48 34.864V34.552C87.016 34.456 88.336 34.144 89.44 33.616L89.656 33.736V36.352C89.848 35.608 90.208 34.96 90.736 34.408C91.264 33.88 91.864 33.592 92.584 33.592C93.136 33.592 93.592 33.784 93.952 34.12C94.288 34.48 94.48 34.888 94.48 35.344C94.48 35.752 94.336 36.088 94.096 36.376C93.856 36.664 93.52 36.784 93.112 36.784C92.824 36.784 92.608 36.736 92.44 36.592C92.272 36.472 92.128 36.304 92.032 36.112C91.936 35.92 91.84 35.728 91.792 35.536C91.696 35.344 91.624 35.224 91.552 35.128C91.456 35.056 91.36 35.008 91.216 35.008C90.832 35.008 90.496 35.248 90.208 35.68C89.92 36.136 89.728 36.664 89.656 37.264V43.576C89.656 44.344 89.848 44.896 90.232 45.208C90.616 45.544 91.144 45.688 91.84 45.688V46H85.384V45.688ZM94.9332 41.224L95.2452 41.152C95.6292 42.376 96.1812 43.456 96.9012 44.392C97.6212 45.352 98.5572 45.832 99.7572 45.832C100.501 45.832 101.101 45.64 101.533 45.256C101.965 44.872 102.205 44.368 102.229 43.768C102.229 43.192 102.013 42.688 101.605 42.304C101.173 41.92 100.501 41.56 99.5412 41.224L98.1012 40.648C97.0932 40.264 96.3492 39.808 95.8212 39.232C95.2932 38.656 95.0532 37.936 95.0532 37.072C95.0532 36.448 95.2212 35.848 95.6052 35.32C95.9652 34.792 96.4692 34.384 97.1172 34.072C97.7652 33.784 98.4852 33.616 99.2532 33.616C99.8772 33.616 100.597 33.76 101.389 34.024C101.821 34.168 102.109 34.216 102.253 34.216C102.589 34.216 102.853 33.976 102.997 33.472L103.333 33.448L103.645 38.152L103.309 38.2C103.117 37.576 102.829 36.952 102.445 36.304C102.061 35.656 101.581 35.104 101.029 34.648C100.453 34.216 99.8532 33.976 99.2052 33.976C98.5572 33.976 98.0292 34.168 97.6452 34.552C97.2612 34.936 97.0692 35.416 97.0692 35.944C97.0692 36.472 97.2612 36.952 97.6692 37.336C98.0772 37.72 98.7252 38.08 99.5892 38.368L101.005 38.944C102.085 39.352 102.877 39.832 103.405 40.384C103.933 40.936 104.197 41.608 104.197 42.4C104.197 43.192 103.981 43.864 103.597 44.44C103.189 45.016 102.661 45.472 102.013 45.76C101.365 46.072 100.669 46.216 99.9252 46.216C99.4932 46.216 99.0852 46.192 98.7492 46.12C98.3892 46.048 97.9812 45.952 97.5252 45.808C97.0212 45.664 96.6852 45.592 96.5172 45.592C96.3252 45.592 96.1572 45.664 96.0372 45.76C95.9172 45.856 95.7972 46.024 95.7012 46.264L95.3412 46.288L94.9332 41.224ZM106.162 31.288C105.85 30.952 105.706 30.544 105.706 30.016C105.706 29.536 105.85 29.152 106.162 28.84C106.474 28.528 106.882 28.36 107.386 28.36C107.89 28.36 108.298 28.528 108.61 28.84C108.922 29.152 109.09 29.536 109.09 30.016C109.09 30.544 108.922 30.952 108.61 31.288C108.298 31.624 107.89 31.768 107.386 31.768C106.882 31.768 106.474 31.624 106.162 31.288ZM104.626 45.688C105.154 45.688 105.562 45.544 105.85 45.208C106.138 44.896 106.306 44.344 106.306 43.576V36.448C106.306 35.872 106.162 35.488 105.922 35.248C105.682 35.008 105.274 34.888 104.722 34.864V34.552C106.258 34.456 107.578 34.144 108.682 33.616L108.898 33.736V43.576C108.898 44.368 109.042 44.92 109.33 45.232C109.618 45.544 110.026 45.688 110.578 45.688V46H104.626V45.688ZM112.747 45.136C112.171 44.392 111.883 43.432 111.883 42.232V34.792H110.371V34.456C111.355 34.36 112.195 34.024 112.867 33.4C113.539 32.776 113.971 31.936 114.163 30.856H114.499V33.832H118.075L117.667 34.792H114.499V41.968C114.499 42.784 114.667 43.456 115.003 43.96C115.339 44.488 115.819 44.728 116.419 44.728C116.899 44.728 117.283 44.584 117.595 44.248C117.907 43.912 118.123 43.504 118.243 43L118.531 43.048C118.411 43.96 118.051 44.704 117.475 45.328C116.875 45.952 116.155 46.24 115.339 46.24C114.187 46.24 113.323 45.88 112.747 45.136ZM127.256 45.544C126.872 45.112 126.632 44.488 126.536 43.696L126.464 43.168C126.368 43.696 126.128 44.2 125.792 44.656C125.432 45.136 124.976 45.52 124.424 45.808C123.848 46.096 123.224 46.24 122.528 46.24C121.52 46.24 120.68 45.952 120.032 45.376C119.384 44.8 119.072 44.056 119.072 43.144C119.072 42.328 119.336 41.656 119.912 41.128C120.488 40.6 121.304 40.288 122.36 40.192L126.008 39.904L125.84 38.68C125.696 37.552 125.36 36.664 124.832 36.016C124.304 35.392 123.608 35.056 122.744 35.056C122.048 35.056 121.448 35.272 120.92 35.656C120.392 36.04 120.008 36.568 119.744 37.216L119.432 37.144C119.576 36.568 119.864 35.992 120.296 35.44C120.728 34.912 121.256 34.456 121.904 34.12C122.552 33.784 123.272 33.592 124.064 33.592C125.264 33.592 126.248 33.976 126.992 34.744C127.736 35.512 128.192 36.616 128.384 38.032L129.08 43.336C129.2 44.248 129.512 44.68 130.04 44.68C130.184 44.68 130.328 44.632 130.448 44.488C130.568 44.368 130.64 44.2 130.688 43.984L130.976 44.008C130.928 44.584 130.736 45.088 130.352 45.52C129.968 45.976 129.464 46.192 128.84 46.192C128.168 46.192 127.64 45.976 127.256 45.544ZM122.12 44.176C122.528 44.608 123.08 44.824 123.8 44.824C124.52 44.824 125.12 44.608 125.6 44.176C126.056 43.744 126.32 43.216 126.392 42.616L126.056 40.264L123.704 40.456C122.984 40.528 122.432 40.768 122.048 41.152C121.664 41.536 121.496 42.04 121.496 42.616C121.496 43.24 121.688 43.744 122.12 44.176ZM120.248 28.312L123.2 28.336L125.024 32.32L124.688 32.464L120.248 28.312ZM139.418 45.688C138.818 45.304 138.362 44.752 138.026 44.032C137.69 43.312 137.522 42.448 137.522 41.464V36.448C137.522 35.872 137.378 35.488 137.138 35.248C136.898 35.008 136.49 34.888 135.938 34.864V34.552C137.474 34.456 138.794 34.144 139.898 33.616L140.114 33.736V41.2C140.114 42.304 140.306 43.192 140.738 43.816C141.146 44.464 141.77 44.776 142.61 44.776C143.33 44.776 143.882 44.536 144.29 44.032C144.698 43.528 144.938 42.928 145.01 42.256V36.448C145.01 35.872 144.866 35.488 144.626 35.248C144.386 35.008 143.978 34.888 143.426 34.864V34.552C144.962 34.456 146.282 34.144 147.386 33.616L147.602 33.736V43.744C147.602 44.272 147.722 44.632 147.962 44.824C148.202 45.016 148.634 45.088 149.21 45.064V45.376C147.65 45.568 146.33 45.88 145.25 46.288L145.01 46.144V43.408C144.746 44.176 144.314 44.848 143.714 45.424C143.09 46 142.346 46.264 141.434 46.264C140.666 46.264 139.994 46.072 139.418 45.688ZM149.439 45.688C149.967 45.688 150.375 45.544 150.663 45.208C150.951 44.896 151.119 44.344 151.119 43.576V36.448C151.119 35.872 150.999 35.488 150.759 35.248C150.519 35.008 150.111 34.888 149.535 34.864V34.552C151.071 34.456 152.391 34.144 153.495 33.616L153.711 33.736V36.352C153.903 35.608 154.263 34.96 154.791 34.408C155.319 33.88 155.919 33.592 156.639 33.592C157.191 33.592 157.647 33.784 158.007 34.12C158.343 34.48 158.535 34.888 158.535 35.344C158.535 35.752 158.391 36.088 158.151 36.376C157.911 36.664 157.575 36.784 157.167 36.784C156.879 36.784 156.663 36.736 156.495 36.592C156.327 36.472 156.183 36.304 156.087 36.112C155.991 35.92 155.895 35.728 155.847 35.536C155.751 35.344 155.679 35.224 155.607 35.128C155.511 35.056 155.415 35.008 155.271 35.008C154.887 35.008 154.551 35.248 154.263 35.68C153.975 36.136 153.783 36.664 153.711 37.264V43.576C153.711 44.344 153.903 44.896 154.287 45.208C154.671 45.544 155.199 45.688 155.895 45.688V46H149.439V45.688ZM162.092 45.808C161.204 45.52 160.412 45.136 159.692 44.656V31.096C159.692 30.52 159.548 30.112 159.308 29.872C159.068 29.632 158.66 29.512 158.108 29.512V29.2C159.644 29.104 160.964 28.792 162.068 28.264L162.284 28.384V36.52C162.5 35.776 162.956 35.104 163.652 34.528C164.324 33.952 165.14 33.64 166.076 33.64C167.012 33.64 167.852 33.928 168.596 34.504C169.316 35.08 169.892 35.824 170.3 36.76C170.684 37.72 170.9 38.728 170.9 39.808C170.9 41.056 170.636 42.184 170.108 43.144C169.58 44.128 168.836 44.896 167.924 45.424C167.012 45.976 165.98 46.24 164.876 46.24C163.916 46.24 162.98 46.096 162.092 45.808ZM162.956 44.68C163.412 45.496 164.108 45.88 165.02 45.88C165.98 45.88 166.772 45.4 167.348 44.416C167.924 43.456 168.212 42.184 168.212 40.624C168.212 39.472 168.044 38.464 167.756 37.6C167.468 36.76 167.06 36.112 166.556 35.68C166.028 35.248 165.452 35.008 164.804 35.008C164.18 35.008 163.652 35.248 163.196 35.68C162.716 36.112 162.428 36.664 162.284 37.336V40.888C162.284 42.616 162.5 43.864 162.956 44.68ZM180.013 45.544C179.629 45.112 179.389 44.488 179.293 43.696L179.221 43.168C179.125 43.696 178.885 44.2 178.549 44.656C178.189 45.136 177.733 45.52 177.181 45.808C176.605 46.096 175.981 46.24 175.285 46.24C174.277 46.24 173.437 45.952 172.789 45.376C172.141 44.8 171.829 44.056 171.829 43.144C171.829 42.328 172.093 41.656 172.669 41.128C173.245 40.6 174.061 40.288 175.117 40.192L178.765 39.904L178.597 38.68C178.453 37.552 178.117 36.664 177.589 36.016C177.061 35.392 176.365 35.056 175.501 35.056C174.805 35.056 174.205 35.272 173.677 35.656C173.149 36.04 172.765 36.568 172.501 37.216L172.189 37.144C172.333 36.568 172.621 35.992 173.053 35.44C173.485 34.912 174.013 34.456 174.661 34.12C175.309 33.784 176.029 33.592 176.821 33.592C178.021 33.592 179.005 33.976 179.749 34.744C180.493 35.512 180.949 36.616 181.141 38.032L181.837 43.336C181.957 44.248 182.269 44.68 182.797 44.68C182.941 44.68 183.085 44.632 183.205 44.488C183.325 44.368 183.397 44.2 183.445 43.984L183.733 44.008C183.685 44.584 183.493 45.088 183.109 45.52C182.725 45.976 182.221 46.192 181.597 46.192C180.925 46.192 180.397 45.976 180.013 45.544ZM174.877 44.176C175.285 44.608 175.837 44.824 176.557 44.824C177.277 44.824 177.877 44.608 178.357 44.176C178.813 43.744 179.077 43.216 179.149 42.616L178.813 40.264L176.461 40.456C175.741 40.528 175.189 40.768 174.805 41.152C174.421 41.536 174.253 42.04 174.253 42.616C174.253 43.24 174.445 43.744 174.877 44.176ZM191.864 45.688C192.392 45.688 192.824 45.568 193.136 45.328C193.448 45.088 193.616 44.68 193.616 44.08C193.616 43.888 193.592 43.72 193.592 43.6L192.848 38.104C192.56 36.064 191.72 35.032 190.352 35.032C189.728 35.032 189.176 35.296 188.744 35.8C188.312 36.328 188.048 36.928 188 37.648V43.576C188 44.368 188.144 44.92 188.432 45.232C188.72 45.544 189.128 45.688 189.68 45.688V46H183.728V45.688C184.256 45.688 184.664 45.544 184.952 45.208C185.24 44.896 185.408 44.344 185.408 43.576V36.448C185.408 35.872 185.264 35.488 185.024 35.248C184.784 35.008 184.376 34.888 183.824 34.864V34.552C185.36 34.456 186.68 34.144 187.784 33.616L188 33.736V36.616C188.216 35.752 188.648 35.032 189.296 34.456C189.944 33.88 190.712 33.592 191.624 33.592C192.656 33.592 193.496 33.976 194.168 34.696C194.816 35.416 195.248 36.544 195.464 38.032L196.28 43.6C196.376 44.368 196.568 44.92 196.88 45.232C197.168 45.544 197.576 45.688 198.104 45.688V46H191.864V45.688ZM206.193 45.544C205.809 45.112 205.569 44.488 205.473 43.696L205.401 43.168C205.305 43.696 205.065 44.2 204.729 44.656C204.369 45.136 203.913 45.52 203.361 45.808C202.785 46.096 202.161 46.24 201.465 46.24C200.457 46.24 199.617 45.952 198.969 45.376C198.321 44.8 198.009 44.056 198.009 43.144C198.009 42.328 198.273 41.656 198.849 41.128C199.425 40.6 200.241 40.288 201.297 40.192L204.945 39.904L204.777 38.68C204.633 37.552 204.297 36.664 203.769 36.016C203.241 35.392 202.545 35.056 201.681 35.056C200.985 35.056 200.385 35.272 199.857 35.656C199.329 36.04 198.945 36.568 198.681 37.216L198.369 37.144C198.513 36.568 198.801 35.992 199.233 35.44C199.665 34.912 200.193 34.456 200.841 34.12C201.489 33.784 202.209 33.592 203.001 33.592C204.201 33.592 205.185 33.976 205.929 34.744C206.673 35.512 207.129 36.616 207.321 38.032L208.017 43.336C208.137 44.248 208.449 44.68 208.977 44.68C209.121 44.68 209.265 44.632 209.385 44.488C209.505 44.368 209.577 44.2 209.625 43.984L209.913 44.008C209.865 44.584 209.673 45.088 209.289 45.52C208.905 45.976 208.401 46.192 207.777 46.192C207.105 46.192 206.577 45.976 206.193 45.544ZM201.057 44.176C201.465 44.608 202.017 44.824 202.737 44.824C203.457 44.824 204.057 44.608 204.537 44.176C204.993 43.744 205.257 43.216 205.329 42.616L204.993 40.264L202.641 40.456C201.921 40.528 201.369 40.768 200.985 41.152C200.601 41.536 200.433 42.04 200.433 42.616C200.433 43.24 200.625 43.744 201.057 44.176ZM4.22394 73.04C3.55194 72.248 3.07194 71.024 2.80794 69.368L1.96794 64.232C1.82394 63.464 1.60794 62.936 1.29594 62.624C0.959938 62.312 0.551938 62.144 0.0239375 62.144V61.832H5.87994V62.144C4.94394 62.144 4.48794 62.624 4.48794 63.584C4.48794 63.872 4.48794 64.088 4.53594 64.232L5.25594 68.648C5.44794 69.944 5.78394 70.928 6.23994 71.576C6.67194 72.248 7.31994 72.56 8.18394 72.56C8.80794 72.56 9.40794 72.344 10.0079 71.864C10.6079 71.384 11.0879 70.76 11.4719 69.944C11.8319 69.152 12.0239 68.288 12.0239 67.328C12.0239 66.272 11.8079 65.408 11.3999 64.784C10.9919 64.16 10.4399 63.824 9.74394 63.824C9.40794 63.824 9.07194 63.896 8.78394 64.016C8.63994 64.088 8.47194 64.112 8.27994 64.112C7.94394 64.112 7.65594 64.016 7.41594 63.776C7.17594 63.536 7.07994 63.248 7.07994 62.864C7.07994 62.528 7.19994 62.216 7.43994 61.976C7.67994 61.736 8.01594 61.616 8.49594 61.616C9.16794 61.616 9.79194 61.832 10.3919 62.216C10.9919 62.6 11.4719 63.2 11.8559 63.992C12.2399 64.808 12.4319 65.792 12.4319 66.944C12.4319 68.264 12.1679 69.488 11.6639 70.592C11.1359 71.72 10.4639 72.608 9.62394 73.256C8.78394 73.928 7.89594 74.24 6.95994 74.24C5.80794 74.24 4.89594 73.856 4.22394 73.04ZM14.252 59.288C13.94 58.952 13.796 58.544 13.796 58.016C13.796 57.536 13.94 57.152 14.252 56.84C14.564 56.528 14.972 56.36 15.476 56.36C15.98 56.36 16.388 56.528 16.7 56.84C17.012 57.152 17.18 57.536 17.18 58.016C17.18 58.544 17.012 58.952 16.7 59.288C16.388 59.624 15.98 59.768 15.476 59.768C14.972 59.768 14.564 59.624 14.252 59.288ZM12.716 73.688C13.244 73.688 13.652 73.544 13.94 73.208C14.228 72.896 14.396 72.344 14.396 71.576V64.448C14.396 63.872 14.252 63.488 14.012 63.248C13.772 63.008 13.364 62.888 12.812 62.864V62.552C14.348 62.456 15.668 62.144 16.772 61.616L16.988 61.736V71.576C16.988 72.368 17.132 72.92 17.42 73.232C17.708 73.544 18.116 73.688 18.668 73.688V74H12.716V73.688ZM19.3355 69.224L19.6475 69.152C20.0315 70.376 20.5835 71.456 21.3035 72.392C22.0235 73.352 22.9595 73.832 24.1595 73.832C24.9035 73.832 25.5035 73.64 25.9355 73.256C26.3675 72.872 26.6075 72.368 26.6315 71.768C26.6315 71.192 26.4155 70.688 26.0075 70.304C25.5755 69.92 24.9035 69.56 23.9435 69.224L22.5035 68.648C21.4955 68.264 20.7515 67.808 20.2235 67.232C19.6955 66.656 19.4555 65.936 19.4555 65.072C19.4555 64.448 19.6235 63.848 20.0075 63.32C20.3675 62.792 20.8715 62.384 21.5195 62.072C22.1675 61.784 22.8875 61.616 23.6555 61.616C24.2795 61.616 24.9995 61.76 25.7915 62.024C26.2235 62.168 26.5115 62.216 26.6555 62.216C26.9915 62.216 27.2555 61.976 27.3995 61.472L27.7355 61.448L28.0475 66.152L27.7115 66.2C27.5195 65.576 27.2315 64.952 26.8475 64.304C26.4635 63.656 25.9835 63.104 25.4315 62.648C24.8555 62.216 24.2555 61.976 23.6075 61.976C22.9595 61.976 22.4315 62.168 22.0475 62.552C21.6635 62.936 21.4715 63.416 21.4715 63.944C21.4715 64.472 21.6635 64.952 22.0715 65.336C22.4795 65.72 23.1275 66.08 23.9915 66.368L25.4075 66.944C26.4875 67.352 27.2795 67.832 27.8075 68.384C28.3355 68.936 28.5995 69.608 28.5995 70.4C28.5995 71.192 28.3835 71.864 27.9995 72.44C27.5915 73.016 27.0635 73.472 26.4155 73.76C25.7675 74.072 25.0715 74.216 24.3275 74.216C23.8955 74.216 23.4875 74.192 23.1515 74.12C22.7915 74.048 22.3835 73.952 21.9275 73.808C21.4235 73.664 21.0875 73.592 20.9195 73.592C20.7275 73.592 20.5595 73.664 20.4395 73.76C20.3195 73.856 20.1995 74.024 20.1035 74.264L19.7435 74.288L19.3355 69.224ZM31.4536 73.136C30.8776 72.392 30.5896 71.432 30.5896 70.232V62.792H29.0776V62.456C30.0616 62.36 30.9016 62.024 31.5736 61.4C32.2456 60.776 32.6776 59.936 32.8696 58.856H33.2056V61.832H36.7816L36.3736 62.792H33.2056V69.968C33.2056 70.784 33.3736 71.456 33.7096 71.96C34.0456 72.488 34.5256 72.728 35.1256 72.728C35.6056 72.728 35.9896 72.584 36.3016 72.248C36.6136 71.912 36.8296 71.504 36.9496 71L37.2376 71.048C37.1176 71.96 36.7576 72.704 36.1816 73.328C35.5816 73.952 34.8616 74.24 34.0456 74.24C32.8936 74.24 32.0296 73.88 31.4536 73.136ZM38.7442 59.288C38.4322 58.952 38.2882 58.544 38.2882 58.016C38.2882 57.536 38.4322 57.152 38.7442 56.84C39.0562 56.528 39.4642 56.36 39.9682 56.36C40.4722 56.36 40.8802 56.528 41.1922 56.84C41.5042 57.152 41.6722 57.536 41.6722 58.016C41.6722 58.544 41.5042 58.952 41.1922 59.288C40.8802 59.624 40.4722 59.768 39.9682 59.768C39.4642 59.768 39.0562 59.624 38.7442 59.288ZM37.2082 73.688C37.7362 73.688 38.1442 73.544 38.4322 73.208C38.7202 72.896 38.8882 72.344 38.8882 71.576V64.448C38.8882 63.872 38.7442 63.488 38.5042 63.248C38.2642 63.008 37.8562 62.888 37.3042 62.864V62.552C38.8402 62.456 40.1602 62.144 41.2642 61.616L41.4802 61.736V71.576C41.4802 72.368 41.6242 72.92 41.9122 73.232C42.2002 73.544 42.6082 73.688 43.1602 73.688V74H37.2082V73.688ZM57.0016 73.544C56.6176 73.112 56.3776 72.488 56.2816 71.696L56.2096 71.168C56.1136 71.696 55.8736 72.2 55.5376 72.656C55.1776 73.136 54.7216 73.52 54.1696 73.808C53.5936 74.096 52.9696 74.24 52.2736 74.24C51.2656 74.24 50.4256 73.952 49.7776 73.376C49.1296 72.8 48.8176 72.056 48.8176 71.144C48.8176 70.328 49.0816 69.656 49.6576 69.128C50.2336 68.6 51.0496 68.288 52.1056 68.192L55.7536 67.904L55.5856 66.68C55.4416 65.552 55.1056 64.664 54.5776 64.016C54.0496 63.392 53.3536 63.056 52.4896 63.056C51.7936 63.056 51.1936 63.272 50.6656 63.656C50.1376 64.04 49.7536 64.568 49.4896 65.216L49.1776 65.144C49.3216 64.568 49.6096 63.992 50.0416 63.44C50.4736 62.912 51.0016 62.456 51.6496 62.12C52.2976 61.784 53.0176 61.592 53.8096 61.592C55.0096 61.592 55.9936 61.976 56.7376 62.744C57.4816 63.512 57.9376 64.616 58.1296 66.032L58.8256 71.336C58.9456 72.248 59.2576 72.68 59.7856 72.68C59.9296 72.68 60.0736 72.632 60.1936 72.488C60.3136 72.368 60.3856 72.2 60.4336 71.984L60.7216 72.008C60.6736 72.584 60.4816 73.088 60.0976 73.52C59.7136 73.976 59.2096 74.192 58.5856 74.192C57.9136 74.192 57.3856 73.976 57.0016 73.544ZM51.8656 72.176C52.2736 72.608 52.8256 72.824 53.5456 72.824C54.2656 72.824 54.8656 72.608 55.3456 72.176C55.8016 71.744 56.0656 71.216 56.1376 70.616L55.8016 68.264L53.4496 68.456C52.7296 68.528 52.1776 68.768 51.7936 69.152C51.4096 69.536 51.2416 70.04 51.2416 70.616C51.2416 71.24 51.4336 71.744 51.8656 72.176ZM62.6255 73.136C62.0495 72.392 61.7615 71.432 61.7615 70.232V62.792H60.2495V62.456C61.2335 62.36 62.0735 62.024 62.7455 61.4C63.4175 60.776 63.8495 59.936 64.0415 58.856H64.3775V61.832H67.9535L67.5455 62.792H64.3775V69.968C64.3775 70.784 64.5455 71.456 64.8815 71.96C65.2175 72.488 65.6975 72.728 66.2975 72.728C66.7775 72.728 67.1615 72.584 67.4735 72.248C67.7855 71.912 68.0015 71.504 68.1215 71L68.4095 71.048C68.2895 71.96 67.9295 72.704 67.3535 73.328C66.7535 73.952 66.0335 74.24 65.2175 74.24C64.0655 74.24 63.2015 73.88 62.6255 73.136ZM70.7349 73.136C70.1589 72.392 69.8709 71.432 69.8709 70.232V62.792H68.3589V62.456C69.3429 62.36 70.1829 62.024 70.8549 61.4C71.5269 60.776 71.9589 59.936 72.1509 58.856H72.4869V61.832H76.0629L75.6549 62.792H72.4869V69.968C72.4869 70.784 72.6549 71.456 72.9909 71.96C73.3269 72.488 73.8069 72.728 74.4069 72.728C74.8869 72.728 75.2709 72.584 75.5829 72.248C75.8949 71.912 76.1109 71.504 76.2309 71L76.5189 71.048C76.3989 71.96 76.0389 72.704 75.4629 73.328C74.8629 73.952 74.1429 74.24 73.3269 74.24C72.1749 74.24 71.3109 73.88 70.7349 73.136ZM76.4894 73.688C77.0174 73.688 77.4254 73.544 77.7134 73.208C78.0014 72.896 78.1694 72.344 78.1694 71.576V64.448C78.1694 63.872 78.0494 63.488 77.8094 63.248C77.5694 63.008 77.1614 62.888 76.5854 62.864V62.552C78.1214 62.456 79.4414 62.144 80.5454 61.616L80.7614 61.736V64.352C80.9534 63.608 81.3134 62.96 81.8414 62.408C82.3694 61.88 82.9694 61.592 83.6894 61.592C84.2414 61.592 84.6974 61.784 85.0574 62.12C85.3934 62.48 85.5854 62.888 85.5854 63.344C85.5854 63.752 85.4414 64.088 85.2014 64.376C84.9614 64.664 84.6254 64.784 84.2174 64.784C83.9294 64.784 83.7134 64.736 83.5454 64.592C83.3774 64.472 83.2334 64.304 83.1374 64.112C83.0414 63.92 82.9454 63.728 82.8974 63.536C82.8014 63.344 82.7294 63.224 82.6574 63.128C82.5614 63.056 82.4654 63.008 82.3214 63.008C81.9374 63.008 81.6014 63.248 81.3134 63.68C81.0254 64.136 80.8334 64.664 80.7614 65.264V71.576C80.7614 72.344 80.9534 72.896 81.3374 73.208C81.7214 73.544 82.2494 73.688 82.9454 73.688V74H76.4894V73.688ZM93.8688 73.544C93.4848 73.112 93.2448 72.488 93.1488 71.696L93.0768 71.168C92.9808 71.696 92.7408 72.2 92.4048 72.656C92.0448 73.136 91.5888 73.52 91.0368 73.808C90.4608 74.096 89.8368 74.24 89.1408 74.24C88.1328 74.24 87.2928 73.952 86.6448 73.376C85.9968 72.8 85.6848 72.056 85.6848 71.144C85.6848 70.328 85.9488 69.656 86.5248 69.128C87.1008 68.6 87.9168 68.288 88.9728 68.192L92.6208 67.904L92.4528 66.68C92.3088 65.552 91.9728 64.664 91.4448 64.016C90.9168 63.392 90.2208 63.056 89.3568 63.056C88.6608 63.056 88.0608 63.272 87.5328 63.656C87.0048 64.04 86.6208 64.568 86.3568 65.216L86.0448 65.144C86.1888 64.568 86.4768 63.992 86.9088 63.44C87.3408 62.912 87.8688 62.456 88.5168 62.12C89.1648 61.784 89.8848 61.592 90.6768 61.592C91.8768 61.592 92.8608 61.976 93.6048 62.744C94.3488 63.512 94.8048 64.616 94.9968 66.032L95.6928 71.336C95.8128 72.248 96.1248 72.68 96.6528 72.68C96.7968 72.68 96.9408 72.632 97.0608 72.488C97.1808 72.368 97.2528 72.2 97.3008 71.984L97.5888 72.008C97.5408 72.584 97.3488 73.088 96.9648 73.52C96.5808 73.976 96.0768 74.192 95.4528 74.192C94.7808 74.192 94.2528 73.976 93.8688 73.544ZM88.7328 72.176C89.1408 72.608 89.6928 72.824 90.4128 72.824C91.1328 72.824 91.7328 72.608 92.2128 72.176C92.6688 71.744 92.9328 71.216 93.0048 70.616L92.6688 68.264L90.3168 68.456C89.5968 68.528 89.0448 68.768 88.6608 69.152C88.2768 69.536 88.1088 70.04 88.1088 70.616C88.1088 71.24 88.3008 71.744 88.7328 72.176ZM100.13 73.04C99.4582 72.248 98.9782 71.024 98.7142 69.368L97.8742 64.232C97.7302 63.464 97.5142 62.936 97.2022 62.624C96.8662 62.312 96.4582 62.144 95.9302 62.144V61.832H101.786V62.144C100.85 62.144 100.394 62.624 100.394 63.584C100.394 63.872 100.394 64.088 100.442 64.232L101.162 68.648C101.354 69.944 101.69 70.928 102.146 71.576C102.578 72.248 103.226 72.56 104.09 72.56C104.714 72.56 105.314 72.344 105.914 71.864C106.514 71.384 106.994 70.76 107.378 69.944C107.738 69.152 107.93 68.288 107.93 67.328C107.93 66.272 107.714 65.408 107.306 64.784C106.898 64.16 106.346 63.824 105.65 63.824C105.314 63.824 104.978 63.896 104.69 64.016C104.546 64.088 104.378 64.112 104.186 64.112C103.85 64.112 103.562 64.016 103.322 63.776C103.082 63.536 102.986 63.248 102.986 62.864C102.986 62.528 103.106 62.216 103.346 61.976C103.586 61.736 103.922 61.616 104.402 61.616C105.074 61.616 105.698 61.832 106.298 62.216C106.898 62.6 107.378 63.2 107.762 63.992C108.146 64.808 108.338 65.792 108.338 66.944C108.338 68.264 108.074 69.488 107.57 70.592C107.042 71.72 106.37 72.608 105.53 73.256C104.69 73.928 103.802 74.24 102.866 74.24C101.714 74.24 100.802 73.856 100.13 73.04ZM112.281 73.4C111.441 72.848 110.793 72.08 110.337 71.12C109.857 70.16 109.641 69.128 109.641 67.976C109.641 66.776 109.881 65.696 110.409 64.736C110.937 63.776 111.633 63.008 112.545 62.432C113.433 61.88 114.417 61.592 115.473 61.592C116.385 61.592 117.201 61.808 117.873 62.216C118.545 62.648 119.073 63.2 119.433 63.896C119.793 64.616 119.985 65.384 119.985 66.2H112.185C112.161 66.296 112.161 66.44 112.161 66.608C112.161 67.736 112.329 68.72 112.689 69.584C113.025 70.448 113.529 71.12 114.177 71.6C114.825 72.08 115.593 72.296 116.457 72.296C117.417 72.296 118.233 72.008 118.905 71.432C119.577 70.856 120.009 70.112 120.201 69.152L120.537 69.2C120.393 70.16 120.057 71.024 119.577 71.792C119.097 72.56 118.473 73.16 117.705 73.592C116.937 74.024 116.097 74.24 115.185 74.24C114.081 74.24 113.121 73.976 112.281 73.4ZM116.409 65.792C116.745 65.792 117.009 65.72 117.153 65.552C117.297 65.384 117.393 65.096 117.393 64.712C117.393 64.04 117.201 63.416 116.865 62.84C116.505 62.264 115.977 61.952 115.281 61.952C114.561 61.952 113.889 62.336 113.313 63.08C112.713 63.848 112.353 64.736 112.209 65.792H116.409ZM120.435 73.688C120.963 73.688 121.371 73.544 121.659 73.208C121.947 72.896 122.115 72.344 122.115 71.576V64.448C122.115 63.872 121.995 63.488 121.755 63.248C121.515 63.008 121.107 62.888 120.531 62.864V62.552C122.067 62.456 123.387 62.144 124.491 61.616L124.707 61.736V64.352C124.899 63.608 125.259 62.96 125.787 62.408C126.315 61.88 126.915 61.592 127.635 61.592C128.187 61.592 128.643 61.784 129.003 62.12C129.339 62.48 129.531 62.888 129.531 63.344C129.531 63.752 129.387 64.088 129.147 64.376C128.907 64.664 128.571 64.784 128.163 64.784C127.875 64.784 127.659 64.736 127.491 64.592C127.323 64.472 127.179 64.304 127.083 64.112C126.987 63.92 126.891 63.728 126.843 63.536C126.747 63.344 126.675 63.224 126.603 63.128C126.507 63.056 126.411 63.008 126.267 63.008C125.883 63.008 125.547 63.248 125.259 63.68C124.971 64.136 124.779 64.664 124.707 65.264V71.576C124.707 72.344 124.899 72.896 125.283 73.208C125.667 73.544 126.195 73.688 126.891 73.688V74H120.435V73.688ZM129.984 69.224L130.296 69.152C130.68 70.376 131.232 71.456 131.952 72.392C132.672 73.352 133.608 73.832 134.808 73.832C135.552 73.832 136.152 73.64 136.584 73.256C137.016 72.872 137.256 72.368 137.28 71.768C137.28 71.192 137.064 70.688 136.656 70.304C136.224 69.92 135.552 69.56 134.592 69.224L133.152 68.648C132.144 68.264 131.4 67.808 130.872 67.232C130.344 66.656 130.104 65.936 130.104 65.072C130.104 64.448 130.272 63.848 130.656 63.32C131.016 62.792 131.52 62.384 132.168 62.072C132.816 61.784 133.536 61.616 134.304 61.616C134.928 61.616 135.648 61.76 136.44 62.024C136.872 62.168 137.16 62.216 137.304 62.216C137.64 62.216 137.904 61.976 138.048 61.472L138.384 61.448L138.696 66.152L138.36 66.2C138.168 65.576 137.88 64.952 137.496 64.304C137.112 63.656 136.632 63.104 136.08 62.648C135.504 62.216 134.904 61.976 134.256 61.976C133.608 61.976 133.08 62.168 132.696 62.552C132.312 62.936 132.12 63.416 132.12 63.944C132.12 64.472 132.312 64.952 132.72 65.336C133.128 65.72 133.776 66.08 134.64 66.368L136.056 66.944C137.136 67.352 137.928 67.832 138.456 68.384C138.984 68.936 139.248 69.608 139.248 70.4C139.248 71.192 139.032 71.864 138.648 72.44C138.24 73.016 137.712 73.472 137.064 73.76C136.416 74.072 135.72 74.216 134.976 74.216C134.544 74.216 134.136 74.192 133.8 74.12C133.44 74.048 133.032 73.952 132.576 73.808C132.072 73.664 131.736 73.592 131.568 73.592C131.376 73.592 131.208 73.664 131.088 73.76C130.968 73.856 130.848 74.024 130.752 74.264L130.392 74.288L129.984 69.224ZM143.368 73.4C142.432 72.848 141.688 72.08 141.16 71.096C140.608 70.136 140.344 69.056 140.344 67.856C140.344 66.632 140.608 65.552 141.16 64.592C141.688 63.632 142.432 62.912 143.368 62.384C144.28 61.856 145.288 61.592 146.392 61.592C147.496 61.592 148.504 61.88 149.416 62.408C150.328 62.96 151.072 63.704 151.624 64.664C152.152 65.624 152.44 66.704 152.44 67.904C152.44 69.128 152.176 70.232 151.648 71.192C151.12 72.152 150.376 72.92 149.464 73.448C148.552 73.976 147.544 74.24 146.44 74.24C145.312 74.24 144.28 73.976 143.368 73.4ZM144.472 72.296C145.144 73.304 145.96 73.784 146.872 73.784C147.784 73.784 148.48 73.352 148.984 72.464C149.464 71.6 149.728 70.448 149.728 69.032C149.728 68.576 149.68 68 149.608 67.328C149.392 65.744 148.96 64.472 148.288 63.512C147.616 62.552 146.848 62.048 145.96 62.048C145.024 62.048 144.304 62.504 143.8 63.392C143.296 64.304 143.056 65.456 143.056 66.848C143.056 67.424 143.08 67.928 143.152 68.384C143.344 69.992 143.8 71.288 144.472 72.296ZM159.565 59.288C159.253 58.952 159.109 58.544 159.109 58.016C159.109 57.536 159.253 57.152 159.565 56.84C159.877 56.528 160.285 56.36 160.789 56.36C161.293 56.36 161.701 56.528 162.013 56.84C162.325 57.152 162.493 57.536 162.493 58.016C162.493 58.544 162.325 58.952 162.013 59.288C161.701 59.624 161.293 59.768 160.789 59.768C160.285 59.768 159.877 59.624 159.565 59.288ZM158.029 73.688C158.557 73.688 158.965 73.544 159.253 73.208C159.541 72.896 159.709 72.344 159.709 71.576V64.448C159.709 63.872 159.565 63.488 159.325 63.248C159.085 63.008 158.677 62.888 158.125 62.864V62.552C159.661 62.456 160.98 62.144 162.085 61.616L162.301 61.736V71.576C162.301 72.368 162.445 72.92 162.733 73.232C163.021 73.544 163.429 73.688 163.98 73.688V74H158.029V73.688ZM164.005 73.688C164.533 73.688 164.941 73.544 165.229 73.208C165.517 72.896 165.685 72.344 165.685 71.576L165.757 59.096C165.757 58.52 165.613 58.112 165.373 57.872C165.133 57.632 164.725 57.512 164.173 57.512V57.2C165.709 57.104 167.029 56.792 168.133 56.264L168.349 56.384V71.576C168.349 72.344 168.493 72.896 168.781 73.208C169.069 73.544 169.501 73.688 170.029 73.688V74H164.005V73.688ZM185.047 71.696C184.663 72.464 184.159 73.088 183.583 73.544C182.983 74.024 182.311 74.24 181.567 74.24C180.415 74.24 179.503 73.856 178.831 73.04C178.159 72.248 177.679 71.024 177.415 69.368L176.551 64.232C176.407 63.464 176.191 62.936 175.879 62.624C175.543 62.312 175.135 62.144 174.607 62.144V61.832H180.415V62.144C179.527 62.144 179.095 62.624 179.095 63.56C179.095 63.848 179.095 64.088 179.143 64.232L179.839 68.648C180.055 69.944 180.391 70.904 180.823 71.528C181.255 72.176 181.903 72.488 182.743 72.488C183.559 72.488 184.303 72.128 184.927 71.36C184.711 70.784 184.543 70.136 184.423 69.368L183.559 64.232C183.415 63.464 183.199 62.936 182.911 62.624C182.599 62.312 182.191 62.144 181.711 62.144V61.832H187.423V62.144C186.535 62.144 186.103 62.624 186.103 63.584C186.103 63.872 186.103 64.088 186.151 64.232L186.871 68.648C187.063 69.944 187.399 70.928 187.855 71.552C188.287 72.176 188.935 72.488 189.751 72.488C190.423 72.488 191.071 72.272 191.671 71.816C192.271 71.384 192.751 70.76 193.135 69.992C193.495 69.224 193.687 68.36 193.687 67.448C193.687 66.392 193.471 65.504 193.039 64.832C192.607 64.16 192.055 63.824 191.335 63.824C191.047 63.824 190.711 63.896 190.375 64.016C190.231 64.088 190.039 64.112 189.847 64.112C189.511 64.112 189.223 64.016 188.983 63.776C188.743 63.56 188.647 63.272 188.647 62.912C188.647 62.528 188.767 62.216 189.007 61.976C189.247 61.736 189.583 61.616 190.063 61.616C190.735 61.616 191.383 61.832 192.007 62.216C192.631 62.6 193.135 63.2 193.519 63.992C193.903 64.808 194.119 65.792 194.119 66.944C194.119 68.264 193.855 69.488 193.351 70.592C192.847 71.72 192.175 72.608 191.335 73.256C190.495 73.928 189.607 74.24 188.671 74.24C186.967 74.24 185.767 73.4 185.047 71.696ZM198.086 73.4C197.246 72.848 196.598 72.08 196.142 71.12C195.662 70.16 195.446 69.128 195.446 67.976C195.446 66.776 195.686 65.696 196.214 64.736C196.742 63.776 197.438 63.008 198.35 62.432C199.238 61.88 200.222 61.592 201.278 61.592C202.19 61.592 203.006 61.808 203.678 62.216C204.35 62.648 204.878 63.2 205.238 63.896C205.598 64.616 205.79 65.384 205.79 66.2H197.99C197.966 66.296 197.966 66.44 197.966 66.608C197.966 67.736 198.134 68.72 198.494 69.584C198.83 70.448 199.334 71.12 199.982 71.6C200.63 72.08 201.398 72.296 202.262 72.296C203.222 72.296 204.038 72.008 204.71 71.432C205.382 70.856 205.814 70.112 206.006 69.152L206.342 69.2C206.198 70.16 205.862 71.024 205.382 71.792C204.902 72.56 204.278 73.16 203.51 73.592C202.742 74.024 201.902 74.24 200.99 74.24C199.886 74.24 198.926 73.976 198.086 73.4ZM202.214 65.792C202.55 65.792 202.814 65.72 202.958 65.552C203.102 65.384 203.198 65.096 203.198 64.712C203.198 64.04 203.006 63.416 202.67 62.84C202.31 62.264 201.782 61.952 201.086 61.952C200.366 61.952 199.694 62.336 199.118 63.08C198.518 63.848 198.158 64.736 198.014 65.792H202.214ZM210.151 73.808C209.263 73.52 208.471 73.136 207.751 72.656V59.096C207.751 58.52 207.607 58.112 207.367 57.872C207.127 57.632 206.719 57.512 206.167 57.512V57.2C207.703 57.104 209.023 56.792 210.127 56.264L210.343 56.384V64.52C210.559 63.776 211.015 63.104 211.711 62.528C212.383 61.952 213.199 61.64 214.135 61.64C215.071 61.64 215.911 61.928 216.655 62.504C217.375 63.08 217.951 63.824 218.359 64.76C218.743 65.72 218.959 66.728 218.959 67.808C218.959 69.056 218.695 70.184 218.167 71.144C217.639 72.128 216.895 72.896 215.983 73.424C215.071 73.976 214.039 74.24 212.935 74.24C211.975 74.24 211.039 74.096 210.151 73.808ZM211.015 72.68C211.471 73.496 212.167 73.88 213.079 73.88C214.039 73.88 214.831 73.4 215.407 72.416C215.983 71.456 216.271 70.184 216.271 68.624C216.271 67.472 216.103 66.464 215.815 65.6C215.527 64.76 215.119 64.112 214.615 63.68C214.087 63.248 213.511 63.008 212.863 63.008C212.239 63.008 211.711 63.248 211.255 63.68C210.775 64.112 210.487 64.664 210.343 65.336V68.888C210.343 70.616 210.559 71.864 211.015 72.68Z" fill="black"/>
</svg>
