<svg viewBox="0 0 223 80" fill="none" xmlns="http://www.w3.org/2000/svg">
<path d="M26.5843 17.688C27.1123 17.688 27.5203 17.544 27.8083 17.208C28.0963 16.896 28.2643 16.344 28.2643 15.576V3.624C28.2643 2.856 28.0963 2.328 27.8083 1.992C27.5203 1.68 27.1123 1.512 26.5843 1.512V1.2H38.3923L39.0883 6.168L38.7763 6.24C38.2483 3.168 36.7603 1.608 34.3123 1.608H31.0003V9.312H33.6643C34.4563 9.312 35.0323 9.12 35.3923 8.688C35.7523 8.28 35.9443 7.56 35.9443 6.528H36.2803V12.552H35.9443C35.9443 11.544 35.7523 10.8 35.3923 10.368C35.0083 9.936 34.4323 9.72 33.6403 9.72H31.0003V16.296C31.0003 16.776 31.0723 17.112 31.2643 17.304C31.4323 17.496 31.7683 17.592 32.2723 17.592H34.6963C36.0403 17.592 37.0963 17.232 37.8643 16.464C38.6323 15.72 39.2323 14.616 39.6643 13.152L39.9283 13.224L38.9923 18H26.5843V17.688ZM41.8028 3.288C41.4908 2.952 41.3468 2.544 41.3468 2.016C41.3468 1.536 41.4908 1.152 41.8028 0.839999C42.1148 0.527999 42.5228 0.36 43.0268 0.36C43.5308 0.36 43.9388 0.527999 44.2508 0.839999C44.5628 1.152 44.7308 1.536 44.7308 2.016C44.7308 2.544 44.5628 2.952 44.2508 3.288C43.9388 3.624 43.5308 3.768 43.0268 3.768C42.5228 3.768 42.1148 3.624 41.8028 3.288ZM40.2668 17.688C40.7948 17.688 41.2028 17.544 41.4908 17.208C41.7788 16.896 41.9468 16.344 41.9468 15.576V8.448C41.9468 7.872 41.8028 7.488 41.5628 7.248C41.3228 7.008 40.9148 6.888 40.3628 6.864V6.552C41.8988 6.456 43.2188 6.144 44.3228 5.616L44.5388 5.736V15.576C44.5388 16.368 44.6828 16.92 44.9708 17.232C45.2588 17.544 45.6668 17.688 46.2188 17.688V18H40.2668V17.688ZM48.8526 22.56C48.1566 22.272 47.6286 21.888 47.2686 21.408C46.9086 20.952 46.7406 20.472 46.7406 19.968C46.7406 19.632 46.9566 19.296 47.3886 18.96C47.8206 18.648 48.4206 18.312 49.1886 17.976C48.5406 17.832 48.0366 17.568 47.6766 17.136C47.3166 16.704 47.1486 16.224 47.1486 15.672C47.1486 15.48 47.1726 15.312 47.2686 15.216C47.3406 15.12 47.5326 14.952 47.8446 14.736L48.4206 14.328L49.4046 13.584C48.6366 13.248 48.0366 12.744 47.6046 12.096C47.1726 11.472 46.9566 10.728 46.9566 9.888C46.9566 9.048 47.1726 8.304 47.6046 7.632C48.0366 6.96 48.6606 6.456 49.4526 6.072C50.2206 5.712 51.1326 5.52 52.1406 5.52C52.4526 5.52 52.9086 5.568 53.5326 5.664C54.3486 5.784 55.0206 5.832 55.5966 5.832H58.0926L57.6846 6.792L55.3566 6.744C55.9326 7.152 56.3646 7.632 56.6766 8.184C56.9646 8.76 57.1326 9.336 57.1326 9.96C57.1326 10.776 56.9166 11.52 56.4846 12.144C56.0526 12.768 55.4766 13.272 54.7086 13.608C53.9406 13.968 53.0766 14.136 52.0686 14.136C51.1806 14.136 50.3886 13.992 49.6926 13.704C49.3566 13.992 49.1166 14.232 49.0206 14.376C48.9006 14.52 48.8526 14.664 48.8526 14.76C48.8526 15.408 49.3326 15.72 50.2926 15.72H54.8046C55.7646 15.72 56.5086 15.888 57.0606 16.224C57.6126 16.56 57.9006 17.136 57.9006 17.952C57.9006 18.768 57.5886 19.56 57.0126 20.328C56.4366 21.12 55.6206 21.768 54.6126 22.272C53.6046 22.776 52.4766 23.016 51.2526 23.016C50.3406 23.016 49.5246 22.872 48.8526 22.56ZM50.0046 21.072C50.6766 21.504 51.5646 21.72 52.6686 21.72C53.5326 21.72 54.2766 21.6 54.9486 21.336C55.5966 21.096 56.1006 20.76 56.4606 20.376C56.8206 19.992 57.0126 19.584 57.0126 19.176C57.0126 18.84 56.8686 18.552 56.5806 18.36C56.2926 18.168 55.8846 18.048 55.3326 18.048H50.0046H49.7166C49.4286 18.288 49.1886 18.528 49.0446 18.744C48.9006 18.96 48.8286 19.224 48.8526 19.512C48.9246 20.136 49.3086 20.64 50.0046 21.072ZM50.2446 12.552C50.7966 13.344 51.5166 13.728 52.3806 13.728C53.0766 13.728 53.6286 13.416 54.0606 12.744C54.4686 12.072 54.6846 11.256 54.6846 10.272C54.6846 9.504 54.5406 8.808 54.3006 8.136C54.0606 7.464 53.7006 6.936 53.2686 6.528C52.8366 6.144 52.3326 5.928 51.8046 5.928C51.0366 5.928 50.4606 6.288 50.0526 7.008C49.6206 7.728 49.4286 8.544 49.4286 9.504C49.4286 10.752 49.6926 11.784 50.2446 12.552ZM66.5652 17.688C67.1412 17.688 67.5732 17.568 67.9092 17.328C68.2212 17.088 68.3892 16.68 68.3892 16.08C68.3892 15.888 68.3652 15.72 68.3652 15.6L67.6212 10.104C67.3332 8.064 66.4932 7.032 65.1252 7.032C64.5012 7.032 63.9732 7.296 63.5412 7.8C63.1092 8.328 62.8452 8.928 62.7732 9.648V15.576C62.7732 16.368 62.9172 16.92 63.2052 17.232C63.4932 17.544 63.9012 17.688 64.4532 17.688V18H58.5012V17.688C59.0292 17.688 59.4372 17.544 59.7252 17.208C60.0132 16.896 60.1812 16.344 60.1812 15.576V3.096C60.1812 2.52 60.0372 2.112 59.7972 1.872C59.5572 1.632 59.1492 1.512 58.5972 1.512V1.2C60.1332 1.104 61.4532 0.792 62.5572 0.263999L62.7732 0.383999V8.616C62.9892 7.752 63.4212 7.032 64.0692 6.456C64.7172 5.88 65.4852 5.592 66.3972 5.592C67.4292 5.592 68.2692 5.976 68.9412 6.696C69.5892 7.416 70.0212 8.544 70.2372 10.032L71.0532 15.6C71.1492 16.368 71.3412 16.92 71.6772 17.232C71.9892 17.544 72.4212 17.688 72.9492 17.688V18H66.5652V17.688ZM74.4028 17.136C73.8268 16.392 73.5388 15.432 73.5388 14.232V6.792H72.0268V6.456C73.0108 6.36 73.8508 6.024 74.5228 5.4C75.1948 4.776 75.6268 3.936 75.8188 2.856H76.1548V5.832H79.7308L79.3228 6.792H76.1548V13.968C76.1548 14.784 76.3228 15.456 76.6588 15.96C76.9948 16.488 77.4748 16.728 78.0748 16.728C78.5548 16.728 78.9388 16.584 79.2508 16.248C79.5628 15.912 79.7788 15.504 79.8988 15L80.1868 15.048C80.0668 15.96 79.7068 16.704 79.1308 17.328C78.5308 17.952 77.8108 18.24 76.9948 18.24C75.8428 18.24 74.9788 17.88 74.4028 17.136ZM88.1468 17.424C87.3788 16.896 86.8028 16.152 86.3708 15.192C85.9388 14.256 85.7468 13.2 85.7468 12.048C85.7468 10.896 85.9868 9.816 86.4908 8.832C86.9708 7.872 87.6668 7.08 88.5308 6.504C89.3948 5.928 90.3308 5.64 91.3868 5.64C92.6348 5.64 93.6908 6.12 94.5068 7.08V3.096C94.5068 2.52 94.3868 2.112 94.1468 1.872C93.9068 1.632 93.4988 1.512 92.9468 1.512V1.2C94.4828 1.104 95.8028 0.792 96.8828 0.263999L97.1228 0.383999V15.744C97.1228 16.272 97.2428 16.632 97.4828 16.824C97.7228 17.016 98.1308 17.088 98.7068 17.064V17.376C97.1228 17.568 95.8268 17.88 94.7708 18.288L94.5068 18.144V15.648C94.2668 16.296 93.8108 16.896 93.1388 17.424C92.4428 17.976 91.6268 18.24 90.6668 18.24C89.7308 18.24 88.8908 17.976 88.1468 17.424ZM88.9628 14.208C89.2748 15.072 89.7068 15.696 90.2588 16.128C90.7868 16.56 91.3868 16.776 92.0348 16.776C92.6108 16.776 93.1388 16.608 93.5708 16.272C94.0028 15.936 94.3148 15.48 94.5068 14.904V11.064C94.5068 9.72 94.2428 8.544 93.7148 7.56C93.1868 6.6 92.4668 6.096 91.5788 6.096C90.9548 6.096 90.4268 6.336 89.9468 6.768C89.4668 7.2 89.1068 7.8 88.8668 8.568C88.6028 9.336 88.4828 10.2 88.4828 11.16C88.4828 12.36 88.6268 13.368 88.9628 14.208ZM101.582 17.4C100.742 16.848 100.094 16.08 99.6381 15.12C99.1581 14.16 98.9421 13.128 98.9421 11.976C98.9421 10.776 99.1821 9.696 99.7101 8.736C100.238 7.776 100.934 7.008 101.846 6.432C102.734 5.88 103.718 5.592 104.774 5.592C105.686 5.592 106.502 5.808 107.174 6.216C107.846 6.648 108.374 7.2 108.734 7.896C109.094 8.616 109.286 9.384 109.286 10.2H101.486C101.462 10.296 101.462 10.44 101.462 10.608C101.462 11.736 101.63 12.72 101.99 13.584C102.326 14.448 102.83 15.12 103.478 15.6C104.126 16.08 104.894 16.296 105.758 16.296C106.718 16.296 107.534 16.008 108.206 15.432C108.878 14.856 109.31 14.112 109.502 13.152L109.838 13.2C109.694 14.16 109.358 15.024 108.878 15.792C108.398 16.56 107.774 17.16 107.006 17.592C106.238 18.024 105.398 18.24 104.486 18.24C103.382 18.24 102.422 17.976 101.582 17.4ZM105.71 9.792C106.046 9.792 106.31 9.72 106.454 9.552C106.598 9.384 106.694 9.096 106.694 8.712C106.694 8.04 106.502 7.416 106.166 6.84C105.806 6.264 105.278 5.952 104.582 5.952C103.862 5.952 103.19 6.336 102.614 7.08C102.014 7.848 101.654 8.736 101.51 9.792H105.71ZM113.647 17.808C112.759 17.52 111.967 17.136 111.247 16.656V3.096C111.247 2.52 111.103 2.112 110.863 1.872C110.623 1.632 110.215 1.512 109.663 1.512V1.2C111.199 1.104 112.519 0.792 113.623 0.263999L113.839 0.383999V8.52C114.055 7.776 114.511 7.104 115.207 6.528C115.879 5.952 116.695 5.64 117.631 5.64C118.567 5.64 119.407 5.928 120.151 6.504C120.871 7.08 121.447 7.824 121.855 8.76C122.239 9.72 122.455 10.728 122.455 11.808C122.455 13.056 122.191 14.184 121.663 15.144C121.135 16.128 120.391 16.896 119.479 17.424C118.567 17.976 117.535 18.24 116.431 18.24C115.471 18.24 114.535 18.096 113.647 17.808ZM114.511 16.68C114.967 17.496 115.663 17.88 116.575 17.88C117.535 17.88 118.327 17.4 118.903 16.416C119.479 15.456 119.767 14.184 119.767 12.624C119.767 11.472 119.599 10.464 119.311 9.6C119.023 8.76 118.615 8.112 118.111 7.68C117.583 7.248 117.007 7.008 116.359 7.008C115.735 7.008 115.207 7.248 114.751 7.68C114.271 8.112 113.983 8.664 113.839 9.336V12.888C113.839 14.616 114.055 15.864 114.511 16.68ZM131.568 17.544C131.184 17.112 130.944 16.488 130.848 15.696L130.776 15.168C130.68 15.696 130.44 16.2 130.104 16.656C129.744 17.136 129.288 17.52 128.736 17.808C128.16 18.096 127.536 18.24 126.84 18.24C125.832 18.24 124.992 17.952 124.344 17.376C123.696 16.8 123.384 16.056 123.384 15.144C123.384 14.328 123.648 13.656 124.224 13.128C124.8 12.6 125.616 12.288 126.672 12.192L130.32 11.904L130.152 10.68C130.008 9.552 129.672 8.664 129.144 8.016C128.616 7.392 127.92 7.056 127.056 7.056C126.36 7.056 125.76 7.272 125.232 7.656C124.704 8.04 124.32 8.568 124.056 9.216L123.744 9.144C123.888 8.568 124.176 7.992 124.608 7.44C125.04 6.912 125.568 6.456 126.216 6.12C126.864 5.784 127.584 5.592 128.376 5.592C129.576 5.592 130.56 5.976 131.304 6.744C132.048 7.512 132.504 8.616 132.696 10.032L133.392 15.336C133.512 16.248 133.824 16.68 134.352 16.68C134.496 16.68 134.64 16.632 134.76 16.488C134.88 16.368 134.952 16.2 135 15.984L135.288 16.008C135.24 16.584 135.048 17.088 134.664 17.52C134.28 17.976 133.776 18.192 133.152 18.192C132.48 18.192 131.952 17.976 131.568 17.544ZM126.432 16.176C126.84 16.608 127.392 16.824 128.112 16.824C128.832 16.824 129.432 16.608 129.912 16.176C130.368 15.744 130.632 15.216 130.704 14.616L130.368 12.264L128.016 12.456C127.296 12.528 126.744 12.768 126.36 13.152C125.976 13.536 125.808 14.04 125.808 14.616C125.808 15.24 126 15.744 126.432 16.176ZM137.192 17.136C136.616 16.392 136.328 15.432 136.328 14.232V6.792H134.816V6.456C135.8 6.36 136.64 6.024 137.312 5.4C137.984 4.776 138.416 3.936 138.608 2.856H138.944V5.832H142.52L142.112 6.792H138.944V13.968C138.944 14.784 139.112 15.456 139.448 15.96C139.784 16.488 140.264 16.728 140.864 16.728C141.344 16.728 141.728 16.584 142.04 16.248C142.352 15.912 142.568 15.504 142.688 15L142.976 15.048C142.856 15.96 142.496 16.704 141.92 17.328C141.32 17.952 140.6 18.24 139.784 18.24C138.632 18.24 137.768 17.88 137.192 17.136ZM145.785 17.4C144.945 16.848 144.297 16.08 143.841 15.12C143.361 14.16 143.145 13.128 143.145 11.976C143.145 10.776 143.385 9.696 143.913 8.736C144.441 7.776 145.137 7.008 146.049 6.432C146.937 5.88 147.921 5.592 148.977 5.592C149.889 5.592 150.705 5.808 151.377 6.216C152.049 6.648 152.577 7.2 152.937 7.896C153.297 8.616 153.489 9.384 153.489 10.2H145.689C145.665 10.296 145.665 10.44 145.665 10.608C145.665 11.736 145.833 12.72 146.193 13.584C146.529 14.448 147.033 15.12 147.681 15.6C148.329 16.08 149.097 16.296 149.961 16.296C150.921 16.296 151.737 16.008 152.409 15.432C153.081 14.856 153.513 14.112 153.705 13.152L154.041 13.2C153.897 14.16 153.561 15.024 153.081 15.792C152.601 16.56 151.977 17.16 151.209 17.592C150.441 18.024 149.601 18.24 148.689 18.24C147.585 18.24 146.625 17.976 145.785 17.4ZM149.913 9.792C150.249 9.792 150.513 9.72 150.657 9.552C150.801 9.384 150.897 9.096 150.897 8.712C150.897 8.04 150.705 7.416 150.369 6.84C150.009 6.264 149.481 5.952 148.785 5.952C148.065 5.952 147.393 6.336 146.817 7.08C146.217 7.848 145.857 8.736 145.713 9.792H149.913ZM155.05 13.224L155.362 13.152C155.746 14.376 156.298 15.456 157.018 16.392C157.738 17.352 158.674 17.832 159.874 17.832C160.618 17.832 161.218 17.64 161.65 17.256C162.082 16.872 162.322 16.368 162.346 15.768C162.346 15.192 162.13 14.688 161.722 14.304C161.29 13.92 160.618 13.56 159.658 13.224L158.218 12.648C157.21 12.264 156.466 11.808 155.938 11.232C155.41 10.656 155.17 9.936 155.17 9.072C155.17 8.448 155.338 7.848 155.722 7.32C156.082 6.792 156.586 6.384 157.234 6.072C157.882 5.784 158.602 5.616 159.37 5.616C159.994 5.616 160.714 5.76 161.506 6.024C161.938 6.168 162.226 6.216 162.37 6.216C162.706 6.216 162.97 5.976 163.114 5.472L163.45 5.448L163.762 10.152L163.426 10.2C163.234 9.576 162.946 8.952 162.562 8.304C162.178 7.656 161.698 7.104 161.146 6.648C160.57 6.216 159.97 5.976 159.322 5.976C158.674 5.976 158.146 6.168 157.762 6.552C157.378 6.936 157.186 7.416 157.186 7.944C157.186 8.472 157.378 8.952 157.786 9.336C158.194 9.72 158.842 10.08 159.706 10.368L161.122 10.944C162.202 11.352 162.994 11.832 163.522 12.384C164.05 12.936 164.314 13.608 164.314 14.4C164.314 15.192 164.098 15.864 163.714 16.44C163.306 17.016 162.778 17.472 162.13 17.76C161.482 18.072 160.786 18.216 160.042 18.216C159.61 18.216 159.202 18.192 158.866 18.12C158.506 18.048 158.098 17.952 157.642 17.808C157.138 17.664 156.802 17.592 156.634 17.592C156.442 17.592 156.274 17.664 156.154 17.76C156.034 17.856 155.914 18.024 155.818 18.264L155.458 18.288L155.05 13.224ZM173.404 17.4C172.468 16.848 171.724 16.08 171.196 15.096C170.644 14.136 170.38 13.056 170.38 11.856C170.38 10.632 170.644 9.552 171.196 8.592C171.724 7.632 172.468 6.912 173.404 6.384C174.316 5.856 175.324 5.592 176.428 5.592C177.532 5.592 178.54 5.88 179.452 6.408C180.364 6.96 181.108 7.704 181.66 8.664C182.188 9.624 182.476 10.704 182.476 11.904C182.476 13.128 182.212 14.232 181.684 15.192C181.156 16.152 180.412 16.92 179.5 17.448C178.588 17.976 177.58 18.24 176.476 18.24C175.348 18.24 174.316 17.976 173.404 17.4ZM174.508 16.296C175.18 17.304 175.996 17.784 176.908 17.784C177.82 17.784 178.516 17.352 179.02 16.464C179.5 15.6 179.764 14.448 179.764 13.032C179.764 12.576 179.716 12 179.644 11.328C179.428 9.744 178.996 8.472 178.324 7.512C177.652 6.552 176.884 6.048 175.996 6.048C175.06 6.048 174.34 6.504 173.836 7.392C173.332 8.304 173.092 9.456 173.092 10.848C173.092 11.424 173.116 11.928 173.188 12.384C173.38 13.992 173.836 15.288 174.508 16.296ZM190.645 17.688C191.173 17.688 191.605 17.568 191.917 17.328C192.229 17.088 192.397 16.68 192.397 16.08C192.397 15.888 192.373 15.72 192.373 15.6L191.629 10.104C191.341 8.064 190.501 7.032 189.133 7.032C188.509 7.032 187.957 7.296 187.525 7.8C187.093 8.328 186.829 8.928 186.781 9.648V15.576C186.781 16.368 186.925 16.92 187.213 17.232C187.501 17.544 187.909 17.688 188.461 17.688V18H182.509V17.688C183.037 17.688 183.445 17.544 183.733 17.208C184.021 16.896 184.189 16.344 184.189 15.576V8.448C184.189 7.872 184.045 7.488 183.805 7.248C183.565 7.008 183.157 6.888 182.605 6.864V6.552C184.141 6.456 185.461 6.144 186.565 5.616L186.781 5.736V8.616C186.997 7.752 187.429 7.032 188.077 6.456C188.725 5.88 189.493 5.592 190.405 5.592C191.437 5.592 192.277 5.976 192.949 6.696C193.597 7.416 194.029 8.544 194.245 10.032L195.061 15.6C195.157 16.368 195.349 16.92 195.661 17.232C195.949 17.544 196.357 17.688 196.885 17.688V18H190.645V17.688ZM20.8947 45.688C20.2947 45.304 19.8387 44.752 19.5027 44.032C19.1667 43.312 18.9987 42.448 18.9987 41.464V36.448C18.9987 35.872 18.8547 35.488 18.6147 35.248C18.3747 35.008 17.9667 34.888 17.4147 34.864V34.552C18.9507 34.456 20.2707 34.144 21.3747 33.616L21.5907 33.736V41.2C21.5907 42.304 21.7827 43.192 22.2147 43.816C22.6227 44.464 23.2467 44.776 24.0867 44.776C24.8067 44.776 25.3587 44.536 25.7667 44.032C26.1747 43.528 26.4147 42.928 26.4867 42.256V36.448C26.4867 35.872 26.3427 35.488 26.1027 35.248C25.8627 35.008 25.4547 34.888 24.9027 34.864V34.552C26.4387 34.456 27.7587 34.144 28.8627 33.616L29.0787 33.736V43.744C29.0787 44.272 29.1987 44.632 29.4387 44.824C29.6787 45.016 30.1107 45.088 30.6867 45.064V45.376C29.1267 45.568 27.8067 45.88 26.7267 46.288L26.4867 46.144V43.408C26.2227 44.176 25.7907 44.848 25.1907 45.424C24.5667 46 23.8227 46.264 22.9107 46.264C22.1427 46.264 21.4707 46.072 20.8947 45.688ZM30.9152 45.688C31.4432 45.688 31.8512 45.544 32.1392 45.208C32.4272 44.896 32.5952 44.344 32.5952 43.576V36.448C32.5952 35.872 32.4752 35.488 32.2352 35.248C31.9952 35.008 31.5872 34.888 31.0112 34.864V34.552C32.5472 34.456 33.8672 34.144 34.9712 33.616L35.1872 33.736V36.352C35.3792 35.608 35.7392 34.96 36.2672 34.408C36.7952 33.88 37.3952 33.592 38.1152 33.592C38.6672 33.592 39.1232 33.784 39.4832 34.12C39.8192 34.48 40.0112 34.888 40.0112 35.344C40.0112 35.752 39.8672 36.088 39.6272 36.376C39.3872 36.664 39.0512 36.784 38.6432 36.784C38.3552 36.784 38.1392 36.736 37.9712 36.592C37.8032 36.472 37.6592 36.304 37.5632 36.112C37.4672 35.92 37.3712 35.728 37.3232 35.536C37.2272 35.344 37.1552 35.224 37.0832 35.128C36.9872 35.056 36.8912 35.008 36.7472 35.008C36.3632 35.008 36.0272 35.248 35.7392 35.68C35.4512 36.136 35.2592 36.664 35.1872 37.264V43.576C35.1872 44.344 35.3792 44.896 35.7632 45.208C36.1472 45.544 36.6752 45.688 37.3712 45.688V46H30.9152V45.688ZM43.5688 45.808C42.6808 45.52 41.8888 45.136 41.1688 44.656V31.096C41.1688 30.52 41.0248 30.112 40.7848 29.872C40.5448 29.632 40.1368 29.512 39.5848 29.512V29.2C41.1208 29.104 42.4408 28.792 43.5448 28.264L43.7608 28.384V36.52C43.9768 35.776 44.4328 35.104 45.1288 34.528C45.8008 33.952 46.6168 33.64 47.5528 33.64C48.4888 33.64 49.3288 33.928 50.0728 34.504C50.7928 35.08 51.3688 35.824 51.7768 36.76C52.1608 37.72 52.3768 38.728 52.3768 39.808C52.3768 41.056 52.1128 42.184 51.5848 43.144C51.0568 44.128 50.3128 44.896 49.4008 45.424C48.4888 45.976 47.4568 46.24 46.3528 46.24C45.3928 46.24 44.4568 46.096 43.5688 45.808ZM44.4328 44.68C44.8888 45.496 45.5848 45.88 46.4968 45.88C47.4568 45.88 48.2488 45.4 48.8248 44.416C49.4008 43.456 49.6888 42.184 49.6888 40.624C49.6888 39.472 49.5208 38.464 49.2328 37.6C48.9448 36.76 48.5368 36.112 48.0328 35.68C47.5048 35.248 46.9288 35.008 46.2808 35.008C45.6568 35.008 45.1288 35.248 44.6728 35.68C44.1928 36.112 43.9048 36.664 43.7608 37.336V40.888C43.7608 42.616 43.9768 43.864 44.4328 44.68ZM61.4899 45.544C61.1059 45.112 60.8659 44.488 60.7699 43.696L60.6979 43.168C60.6019 43.696 60.3619 44.2 60.0259 44.656C59.6659 45.136 59.2099 45.52 58.6579 45.808C58.0819 46.096 57.4579 46.24 56.7619 46.24C55.7539 46.24 54.9139 45.952 54.2659 45.376C53.6179 44.8 53.3059 44.056 53.3059 43.144C53.3059 42.328 53.5699 41.656 54.1459 41.128C54.7219 40.6 55.5379 40.288 56.5939 40.192L60.2419 39.904L60.0739 38.68C59.9299 37.552 59.5939 36.664 59.0659 36.016C58.5379 35.392 57.8419 35.056 56.9779 35.056C56.2819 35.056 55.6819 35.272 55.1539 35.656C54.6259 36.04 54.2419 36.568 53.9779 37.216L53.6659 37.144C53.8099 36.568 54.0979 35.992 54.5299 35.44C54.9619 34.912 55.4899 34.456 56.1379 34.12C56.7859 33.784 57.5059 33.592 58.2979 33.592C59.4979 33.592 60.4819 33.976 61.2259 34.744C61.9699 35.512 62.4259 36.616 62.6179 38.032L63.3139 43.336C63.4339 44.248 63.7459 44.68 64.2739 44.68C64.4179 44.68 64.5619 44.632 64.6819 44.488C64.8019 44.368 64.8739 44.2 64.9219 43.984L65.2099 44.008C65.1619 44.584 64.9699 45.088 64.5859 45.52C64.2019 45.976 63.6979 46.192 63.0739 46.192C62.4019 46.192 61.8739 45.976 61.4899 45.544ZM56.3539 44.176C56.7619 44.608 57.3139 44.824 58.0339 44.824C58.7539 44.824 59.3539 44.608 59.8339 44.176C60.2899 43.744 60.5539 43.216 60.6259 42.616L60.2899 40.264L57.9379 40.456C57.2179 40.528 56.6659 40.768 56.2819 41.152C55.8979 41.536 55.7299 42.04 55.7299 42.616C55.7299 43.24 55.9219 43.744 56.3539 44.176ZM73.3403 45.688C73.8683 45.688 74.3003 45.568 74.6123 45.328C74.9243 45.088 75.0923 44.68 75.0923 44.08C75.0923 43.888 75.0683 43.72 75.0683 43.6L74.3243 38.104C74.0363 36.064 73.1963 35.032 71.8283 35.032C71.2043 35.032 70.6523 35.296 70.2203 35.8C69.7883 36.328 69.5243 36.928 69.4763 37.648V43.576C69.4763 44.368 69.6203 44.92 69.9083 45.232C70.1963 45.544 70.6043 45.688 71.1563 45.688V46H65.2043V45.688C65.7323 45.688 66.1403 45.544 66.4283 45.208C66.7163 44.896 66.8843 44.344 66.8843 43.576V36.448C66.8843 35.872 66.7403 35.488 66.5003 35.248C66.2603 35.008 65.8523 34.888 65.3003 34.864V34.552C66.8363 34.456 68.1563 34.144 69.2603 33.616L69.4763 33.736V36.616C69.6923 35.752 70.1243 35.032 70.7723 34.456C71.4203 33.88 72.1883 33.592 73.1003 33.592C74.1323 33.592 74.9723 33.976 75.6443 34.696C76.2923 35.416 76.7243 36.544 76.9403 38.032L77.7563 43.6C77.8523 44.368 78.0443 44.92 78.3563 45.232C78.6443 45.544 79.0523 45.688 79.5803 45.688V46H73.3403V45.688ZM88.3345 45.808C87.4465 45.52 86.6545 45.136 85.9345 44.656V31.096C85.9345 30.52 85.7905 30.112 85.5505 29.872C85.3105 29.632 84.9025 29.512 84.3505 29.512V29.2C85.8865 29.104 87.2065 28.792 88.3105 28.264L88.5265 28.384V36.52C88.7425 35.776 89.1985 35.104 89.8945 34.528C90.5665 33.952 91.3825 33.64 92.3185 33.64C93.2545 33.64 94.0945 33.928 94.8385 34.504C95.5585 35.08 96.1345 35.824 96.5425 36.76C96.9265 37.72 97.1425 38.728 97.1425 39.808C97.1425 41.056 96.8785 42.184 96.3505 43.144C95.8225 44.128 95.0785 44.896 94.1665 45.424C93.2545 45.976 92.2225 46.24 91.1185 46.24C90.1585 46.24 89.2225 46.096 88.3345 45.808ZM89.1985 44.68C89.6545 45.496 90.3505 45.88 91.2625 45.88C92.2225 45.88 93.0145 45.4 93.5905 44.416C94.1665 43.456 94.4545 42.184 94.4545 40.624C94.4545 39.472 94.2865 38.464 93.9985 37.6C93.7105 36.76 93.3025 36.112 92.7985 35.68C92.2705 35.248 91.6945 35.008 91.0465 35.008C90.4225 35.008 89.8945 35.248 89.4385 35.68C88.9585 36.112 88.6705 36.664 88.5265 37.336V40.888C88.5265 42.616 88.7425 43.864 89.1985 44.68ZM98.8028 31.288C98.4908 30.952 98.3468 30.544 98.3468 30.016C98.3468 29.536 98.4908 29.152 98.8028 28.84C99.1148 28.528 99.5228 28.36 100.027 28.36C100.531 28.36 100.939 28.528 101.251 28.84C101.563 29.152 101.731 29.536 101.731 30.016C101.731 30.544 101.563 30.952 101.251 31.288C100.939 31.624 100.531 31.768 100.027 31.768C99.5228 31.768 99.1148 31.624 98.8028 31.288ZM97.2668 45.688C97.7948 45.688 98.2028 45.544 98.4908 45.208C98.7788 44.896 98.9468 44.344 98.9468 43.576V36.448C98.9468 35.872 98.8028 35.488 98.5628 35.248C98.3228 35.008 97.9148 34.888 97.3628 34.864V34.552C98.8988 34.456 100.219 34.144 101.323 33.616L101.539 33.736V43.576C101.539 44.368 101.683 44.92 101.971 45.232C102.259 45.544 102.667 45.688 103.219 45.688V46H97.2668V45.688ZM106.349 45.4C105.413 44.848 104.669 44.08 104.141 43.096C103.589 42.136 103.325 41.056 103.325 39.856C103.325 38.632 103.589 37.552 104.141 36.592C104.669 35.632 105.413 34.912 106.349 34.384C107.261 33.856 108.269 33.592 109.373 33.592C110.477 33.592 111.485 33.88 112.397 34.408C113.309 34.96 114.053 35.704 114.605 36.664C115.133 37.624 115.421 38.704 115.421 39.904C115.421 41.128 115.157 42.232 114.629 43.192C114.101 44.152 113.357 44.92 112.445 45.448C111.533 45.976 110.525 46.24 109.421 46.24C108.293 46.24 107.261 45.976 106.349 45.4ZM107.453 44.296C108.125 45.304 108.941 45.784 109.853 45.784C110.765 45.784 111.461 45.352 111.965 44.464C112.445 43.6 112.709 42.448 112.709 41.032C112.709 40.576 112.661 40 112.589 39.328C112.373 37.744 111.941 36.472 111.269 35.512C110.597 34.552 109.829 34.048 108.941 34.048C108.005 34.048 107.285 34.504 106.781 35.392C106.277 36.304 106.037 37.456 106.037 38.848C106.037 39.424 106.061 39.928 106.133 40.384C106.325 41.992 106.781 43.288 107.453 44.296ZM119.131 45.424C118.363 44.896 117.787 44.152 117.355 43.192C116.923 42.256 116.731 41.2 116.731 40.048C116.731 38.896 116.971 37.816 117.475 36.832C117.955 35.872 118.651 35.08 119.515 34.504C120.379 33.928 121.315 33.64 122.371 33.64C123.619 33.64 124.675 34.12 125.491 35.08V31.096C125.491 30.52 125.371 30.112 125.131 29.872C124.891 29.632 124.483 29.512 123.931 29.512V29.2C125.467 29.104 126.787 28.792 127.867 28.264L128.107 28.384V43.744C128.107 44.272 128.227 44.632 128.467 44.824C128.707 45.016 129.115 45.088 129.691 45.064V45.376C128.107 45.568 126.811 45.88 125.755 46.288L125.491 46.144V43.648C125.251 44.296 124.795 44.896 124.123 45.424C123.427 45.976 122.611 46.24 121.651 46.24C120.715 46.24 119.875 45.976 119.131 45.424ZM119.947 42.208C120.259 43.072 120.691 43.696 121.243 44.128C121.771 44.56 122.371 44.776 123.019 44.776C123.595 44.776 124.123 44.608 124.555 44.272C124.987 43.936 125.299 43.48 125.491 42.904V39.064C125.491 37.72 125.227 36.544 124.699 35.56C124.171 34.6 123.451 34.096 122.563 34.096C121.939 34.096 121.411 34.336 120.931 34.768C120.451 35.2 120.091 35.8 119.851 36.568C119.587 37.336 119.467 38.2 119.467 39.16C119.467 40.36 119.611 41.368 119.947 42.208ZM131.451 31.288C131.139 30.952 130.995 30.544 130.995 30.016C130.995 29.536 131.139 29.152 131.451 28.84C131.763 28.528 132.171 28.36 132.675 28.36C133.179 28.36 133.587 28.528 133.899 28.84C134.211 29.152 134.379 29.536 134.379 30.016C134.379 30.544 134.211 30.952 133.899 31.288C133.587 31.624 133.179 31.768 132.675 31.768C132.171 31.768 131.763 31.624 131.451 31.288ZM129.915 45.688C130.443 45.688 130.851 45.544 131.139 45.208C131.427 44.896 131.595 44.344 131.595 43.576V36.448C131.595 35.872 131.451 35.488 131.211 35.248C130.971 35.008 130.563 34.888 130.011 34.864V34.552C131.547 34.456 132.867 34.144 133.971 33.616L134.187 33.736V43.576C134.187 44.368 134.331 44.92 134.619 45.232C134.907 45.544 135.315 45.688 135.867 45.688V46H129.915V45.688ZM139.306 45.04C138.634 44.248 138.154 43.024 137.89 41.368L137.05 36.232C136.906 35.464 136.69 34.936 136.378 34.624C136.042 34.312 135.634 34.144 135.106 34.144V33.832H140.962V34.144C140.026 34.144 139.57 34.624 139.57 35.584C139.57 35.872 139.57 36.088 139.618 36.232L140.338 40.648C140.53 41.944 140.866 42.928 141.322 43.576C141.754 44.248 142.402 44.56 143.266 44.56C143.89 44.56 144.49 44.344 145.09 43.864C145.69 43.384 146.17 42.76 146.554 41.944C146.914 41.152 147.106 40.288 147.106 39.328C147.106 38.272 146.89 37.408 146.482 36.784C146.074 36.16 145.522 35.824 144.826 35.824C144.49 35.824 144.154 35.896 143.866 36.016C143.722 36.088 143.554 36.112 143.362 36.112C143.026 36.112 142.738 36.016 142.498 35.776C142.258 35.536 142.162 35.248 142.162 34.864C142.162 34.528 142.282 34.216 142.522 33.976C142.762 33.736 143.098 33.616 143.578 33.616C144.25 33.616 144.874 33.832 145.474 34.216C146.074 34.6 146.554 35.2 146.938 35.992C147.322 36.808 147.514 37.792 147.514 38.944C147.514 40.264 147.25 41.488 146.746 42.592C146.218 43.72 145.546 44.608 144.706 45.256C143.866 45.928 142.978 46.24 142.042 46.24C140.89 46.24 139.978 45.856 139.306 45.04ZM151.457 45.4C150.617 44.848 149.969 44.08 149.513 43.12C149.033 42.16 148.817 41.128 148.817 39.976C148.817 38.776 149.057 37.696 149.585 36.736C150.113 35.776 150.809 35.008 151.721 34.432C152.609 33.88 153.593 33.592 154.649 33.592C155.561 33.592 156.377 33.808 157.049 34.216C157.721 34.648 158.249 35.2 158.609 35.896C158.969 36.616 159.161 37.384 159.161 38.2H151.361C151.337 38.296 151.337 38.44 151.337 38.608C151.337 39.736 151.505 40.72 151.865 41.584C152.201 42.448 152.705 43.12 153.353 43.6C154.001 44.08 154.769 44.296 155.633 44.296C156.593 44.296 157.409 44.008 158.081 43.432C158.753 42.856 159.185 42.112 159.377 41.152L159.713 41.2C159.569 42.16 159.233 43.024 158.753 43.792C158.273 44.56 157.649 45.16 156.881 45.592C156.113 46.024 155.273 46.24 154.361 46.24C153.257 46.24 152.297 45.976 151.457 45.4ZM155.585 37.792C155.921 37.792 156.185 37.72 156.329 37.552C156.473 37.384 156.569 37.096 156.569 36.712C156.569 36.04 156.377 35.416 156.041 34.84C155.681 34.264 155.153 33.952 154.457 33.952C153.737 33.952 153.065 34.336 152.489 35.08C151.889 35.848 151.529 36.736 151.385 37.792H155.585ZM159.611 45.688C160.139 45.688 160.547 45.544 160.835 45.208C161.123 44.896 161.291 44.344 161.291 43.576V36.448C161.291 35.872 161.171 35.488 160.931 35.248C160.691 35.008 160.283 34.888 159.707 34.864V34.552C161.243 34.456 162.563 34.144 163.667 33.616L163.883 33.736V36.352C164.075 35.608 164.435 34.96 164.963 34.408C165.491 33.88 166.091 33.592 166.811 33.592C167.363 33.592 167.819 33.784 168.179 34.12C168.515 34.48 168.707 34.888 168.707 35.344C168.707 35.752 168.563 36.088 168.323 36.376C168.083 36.664 167.747 36.784 167.339 36.784C167.051 36.784 166.835 36.736 166.667 36.592C166.499 36.472 166.355 36.304 166.259 36.112C166.163 35.92 166.067 35.728 166.019 35.536C165.923 35.344 165.851 35.224 165.779 35.128C165.683 35.056 165.587 35.008 165.443 35.008C165.059 35.008 164.723 35.248 164.435 35.68C164.147 36.136 163.955 36.664 163.883 37.264V43.576C163.883 44.344 164.075 44.896 164.459 45.208C164.843 45.544 165.371 45.688 166.067 45.688V46H159.611V45.688ZM169.16 41.224L169.472 41.152C169.856 42.376 170.408 43.456 171.128 44.392C171.848 45.352 172.784 45.832 173.984 45.832C174.728 45.832 175.328 45.64 175.76 45.256C176.192 44.872 176.432 44.368 176.456 43.768C176.456 43.192 176.24 42.688 175.832 42.304C175.4 41.92 174.728 41.56 173.768 41.224L172.328 40.648C171.32 40.264 170.576 39.808 170.048 39.232C169.52 38.656 169.28 37.936 169.28 37.072C169.28 36.448 169.448 35.848 169.832 35.32C170.192 34.792 170.696 34.384 171.344 34.072C171.992 33.784 172.712 33.616 173.48 33.616C174.104 33.616 174.824 33.76 175.616 34.024C176.048 34.168 176.336 34.216 176.48 34.216C176.816 34.216 177.08 33.976 177.224 33.472L177.56 33.448L177.872 38.152L177.536 38.2C177.344 37.576 177.056 36.952 176.672 36.304C176.288 35.656 175.808 35.104 175.256 34.648C174.68 34.216 174.08 33.976 173.432 33.976C172.784 33.976 172.256 34.168 171.872 34.552C171.488 34.936 171.296 35.416 171.296 35.944C171.296 36.472 171.488 36.952 171.896 37.336C172.304 37.72 172.952 38.08 173.816 38.368L175.232 38.944C176.312 39.352 177.104 39.832 177.632 40.384C178.16 40.936 178.424 41.608 178.424 42.4C178.424 43.192 178.208 43.864 177.824 44.44C177.416 45.016 176.888 45.472 176.24 45.76C175.592 46.072 174.896 46.216 174.152 46.216C173.72 46.216 173.312 46.192 172.976 46.12C172.616 46.048 172.208 45.952 171.752 45.808C171.248 45.664 170.912 45.592 170.744 45.592C170.552 45.592 170.384 45.664 170.264 45.76C170.144 45.856 170.024 46.024 169.928 46.264L169.568 46.288L169.16 41.224ZM180.389 31.288C180.077 30.952 179.933 30.544 179.933 30.016C179.933 29.536 180.077 29.152 180.389 28.84C180.701 28.528 181.109 28.36 181.613 28.36C182.117 28.36 182.525 28.528 182.837 28.84C183.149 29.152 183.317 29.536 183.317 30.016C183.317 30.544 183.149 30.952 182.837 31.288C182.525 31.624 182.117 31.768 181.613 31.768C181.109 31.768 180.701 31.624 180.389 31.288ZM178.853 45.688C179.381 45.688 179.789 45.544 180.077 45.208C180.365 44.896 180.533 44.344 180.533 43.576V36.448C180.533 35.872 180.389 35.488 180.149 35.248C179.909 35.008 179.501 34.888 178.949 34.864V34.552C180.485 34.456 181.805 34.144 182.909 33.616L183.125 33.736V43.576C183.125 44.368 183.269 44.92 183.557 45.232C183.845 45.544 184.253 45.688 184.805 45.688V46H178.853V45.688ZM186.973 45.136C186.397 44.392 186.109 43.432 186.109 42.232V34.792H184.597V34.456C185.581 34.36 186.421 34.024 187.093 33.4C187.765 32.776 188.197 31.936 188.389 30.856H188.725V33.832H192.301L191.893 34.792H188.725V41.968C188.725 42.784 188.893 43.456 189.229 43.96C189.565 44.488 190.045 44.728 190.645 44.728C191.125 44.728 191.509 44.584 191.821 44.248C192.133 43.912 192.349 43.504 192.469 43L192.757 43.048C192.637 43.96 192.277 44.704 191.701 45.328C191.101 45.952 190.381 46.24 189.565 46.24C188.413 46.24 187.549 45.88 186.973 45.136ZM196.353 50.56C195.729 50.272 195.225 49.864 194.889 49.384C194.553 48.904 194.385 48.376 194.385 47.824C194.385 47.44 194.505 47.152 194.745 46.912C194.985 46.672 195.273 46.552 195.633 46.552C195.993 46.552 196.305 46.696 196.545 46.96C196.785 47.224 196.929 47.536 196.929 47.92C196.929 48.112 196.905 48.28 196.857 48.472C196.833 48.544 196.809 48.64 196.809 48.736C196.785 48.856 196.785 48.952 196.785 49.048C196.785 49.528 196.953 49.912 197.313 50.2C197.649 50.488 198.081 50.608 198.585 50.608C200.673 50.608 201.729 48.736 201.729 44.944V43.072C201.465 43.84 201.033 44.512 200.433 45.088C199.809 45.664 199.065 45.928 198.153 45.928C197.385 45.928 196.713 45.736 196.137 45.352C195.537 44.968 195.081 44.416 194.745 43.696C194.409 42.976 194.241 42.112 194.241 41.128V36.448C194.241 35.872 194.097 35.488 193.857 35.248C193.617 35.008 193.209 34.888 192.657 34.864V34.552C194.193 34.456 195.513 34.144 196.617 33.616L196.833 33.736V40.864C196.833 41.968 197.025 42.856 197.457 43.48C197.865 44.128 198.489 44.44 199.329 44.44C200.049 44.44 200.601 44.2 201.009 43.696C201.417 43.192 201.657 42.592 201.729 41.92V36.448C201.729 35.872 201.585 35.488 201.345 35.248C201.105 35.008 200.697 34.888 200.145 34.864V34.552C201.681 34.456 203.001 34.144 204.105 33.616L204.321 33.736V44.656C204.321 46.024 204.033 47.176 203.505 48.136C202.953 49.096 202.233 49.816 201.369 50.296C200.505 50.776 199.569 50.992 198.561 50.992C197.721 50.992 196.977 50.848 196.353 50.56ZM0.0581563 69.224L0.370156 69.152C0.754156 70.376 1.30616 71.456 2.02616 72.392C2.74616 73.352 3.68216 73.832 4.88216 73.832C5.62616 73.832 6.22616 73.64 6.65816 73.256C7.09016 72.872 7.33016 72.368 7.35416 71.768C7.35416 71.192 7.13816 70.688 6.73016 70.304C6.29816 69.92 5.62616 69.56 4.66616 69.224L3.22616 68.648C2.21816 68.264 1.47416 67.808 0.946156 67.232C0.418156 66.656 0.178156 65.936 0.178156 65.072C0.178156 64.448 0.346156 63.848 0.730156 63.32C1.09016 62.792 1.59416 62.384 2.24216 62.072C2.89016 61.784 3.61016 61.616 4.37816 61.616C5.00216 61.616 5.72216 61.76 6.51416 62.024C6.94616 62.168 7.23416 62.216 7.37816 62.216C7.71416 62.216 7.97816 61.976 8.12216 61.472L8.45816 61.448L8.77016 66.152L8.43416 66.2C8.24216 65.576 7.95416 64.952 7.57016 64.304C7.18616 63.656 6.70616 63.104 6.15416 62.648C5.57816 62.216 4.97816 61.976 4.33016 61.976C3.68216 61.976 3.15416 62.168 2.77016 62.552C2.38616 62.936 2.19416 63.416 2.19416 63.944C2.19416 64.472 2.38616 64.952 2.79416 65.336C3.20216 65.72 3.85016 66.08 4.71416 66.368L6.13016 66.944C7.21016 67.352 8.00216 67.832 8.53016 68.384C9.05816 68.936 9.32216 69.608 9.32216 70.4C9.32216 71.192 9.10616 71.864 8.72216 72.44C8.31416 73.016 7.78616 73.472 7.13816 73.76C6.49016 74.072 5.79416 74.216 5.05016 74.216C4.61816 74.216 4.21016 74.192 3.87416 74.12C3.51416 74.048 3.10616 73.952 2.65016 73.808C2.14616 73.664 1.81016 73.592 1.64216 73.592C1.45016 73.592 1.28216 73.664 1.16216 73.76C1.04216 73.856 0.922156 74.024 0.826156 74.264L0.466156 74.288L0.0581563 69.224ZM13.0821 73.4C12.2421 72.848 11.5941 72.08 11.1381 71.12C10.6581 70.16 10.4421 69.128 10.4421 67.976C10.4421 66.776 10.6821 65.696 11.2101 64.736C11.7381 63.776 12.4341 63.008 13.3461 62.432C14.2341 61.88 15.2181 61.592 16.2741 61.592C17.1861 61.592 18.0021 61.808 18.6741 62.216C19.3461 62.648 19.8741 63.2 20.2341 63.896C20.5941 64.616 20.7861 65.384 20.7861 66.2H12.9861C12.9621 66.296 12.9621 66.44 12.9621 66.608C12.9621 67.736 13.1301 68.72 13.4901 69.584C13.8261 70.448 14.3301 71.12 14.9781 71.6C15.6261 72.08 16.3941 72.296 17.2581 72.296C18.2181 72.296 19.0341 72.008 19.7061 71.432C20.3781 70.856 20.8101 70.112 21.0021 69.152L21.3381 69.2C21.1941 70.16 20.8581 71.024 20.3781 71.792C19.8981 72.56 19.2741 73.16 18.5061 73.592C17.7381 74.024 16.8981 74.24 15.9861 74.24C14.8821 74.24 13.9221 73.976 13.0821 73.4ZM17.2101 65.792C17.5461 65.792 17.8101 65.72 17.9541 65.552C18.0981 65.384 18.1941 65.096 18.1941 64.712C18.1941 64.04 18.0021 63.416 17.6661 62.84C17.3061 62.264 16.7781 61.952 16.0821 61.952C15.3621 61.952 14.6901 62.336 14.1141 63.08C13.5141 63.848 13.1541 64.736 13.0101 65.792H17.2101ZM24.8477 73.4C24.0077 72.848 23.3597 72.08 22.9037 71.12C22.4237 70.16 22.2077 69.128 22.2077 67.976C22.2077 66.776 22.4477 65.696 22.9757 64.736C23.5037 63.776 24.1997 63.008 25.1117 62.432C25.9997 61.88 26.9837 61.592 28.0397 61.592C28.9517 61.592 29.7677 61.808 30.4397 62.216C31.1117 62.648 31.6397 63.2 31.9997 63.896C32.3597 64.616 32.5517 65.384 32.5517 66.2H24.7517C24.7277 66.296 24.7277 66.44 24.7277 66.608C24.7277 67.736 24.8957 68.72 25.2557 69.584C25.5917 70.448 26.0957 71.12 26.7437 71.6C27.3917 72.08 28.1597 72.296 29.0237 72.296C29.9837 72.296 30.7997 72.008 31.4717 71.432C32.1437 70.856 32.5757 70.112 32.7677 69.152L33.1037 69.2C32.9597 70.16 32.6237 71.024 32.1437 71.792C31.6637 72.56 31.0397 73.16 30.2717 73.592C29.5037 74.024 28.6637 74.24 27.7517 74.24C26.6477 74.24 25.6877 73.976 24.8477 73.4ZM28.9757 65.792C29.3117 65.792 29.5757 65.72 29.7197 65.552C29.8637 65.384 29.9597 65.096 29.9597 64.712C29.9597 64.04 29.7677 63.416 29.4317 62.84C29.0717 62.264 28.5437 61.952 27.8477 61.952C27.1277 61.952 26.4557 62.336 25.8797 63.08C25.2797 63.848 24.9197 64.736 24.7757 65.792H28.9757ZM41.1372 73.688C41.6652 73.688 42.0972 73.568 42.4092 73.328C42.7212 73.088 42.8892 72.68 42.8892 72.08C42.8892 71.888 42.8652 71.72 42.8652 71.6L42.1212 66.104C41.8332 64.064 40.9932 63.032 39.6252 63.032C39.0012 63.032 38.4492 63.296 38.0172 63.8C37.5852 64.328 37.3212 64.928 37.2732 65.648V71.576C37.2732 72.368 37.4172 72.92 37.7052 73.232C37.9932 73.544 38.4012 73.688 38.9532 73.688V74H33.0012V73.688C33.5292 73.688 33.9372 73.544 34.2252 73.208C34.5132 72.896 34.6812 72.344 34.6812 71.576V64.448C34.6812 63.872 34.5372 63.488 34.2972 63.248C34.0572 63.008 33.6492 62.888 33.0972 62.864V62.552C34.6332 62.456 35.9532 62.144 37.0572 61.616L37.2732 61.736V64.616C37.4892 63.752 37.9212 63.032 38.5692 62.456C39.2172 61.88 39.9852 61.592 40.8972 61.592C41.9292 61.592 42.7692 61.976 43.4412 62.696C44.0892 63.416 44.5212 64.544 44.7372 66.032L45.5532 71.6C45.6492 72.368 45.8412 72.92 46.1532 73.232C46.4412 73.544 46.8492 73.688 47.3772 73.688V74H41.1372V73.688ZM54.7153 73.136C54.1393 72.392 53.8513 71.432 53.8513 70.232V62.792H52.3393V62.456C53.3233 62.36 54.1633 62.024 54.8353 61.4C55.5073 60.776 55.9393 59.936 56.1313 58.856H56.4673V61.832H60.0433L59.6353 62.792H56.4673V69.968C56.4673 70.784 56.6353 71.456 56.9713 71.96C57.3073 72.488 57.7873 72.728 58.3873 72.728C58.8673 72.728 59.2513 72.584 59.5633 72.248C59.8753 71.912 60.0913 71.504 60.2113 71L60.4993 71.048C60.3793 71.96 60.0193 72.704 59.4433 73.328C58.8433 73.952 58.1233 74.24 57.3073 74.24C56.1553 74.24 55.2913 73.88 54.7153 73.136ZM68.323 73.688C68.899 73.688 69.331 73.568 69.667 73.328C69.979 73.088 70.147 72.68 70.147 72.08C70.147 71.888 70.123 71.72 70.123 71.6L69.379 66.104C69.091 64.064 68.251 63.032 66.883 63.032C66.259 63.032 65.731 63.296 65.299 63.8C64.867 64.328 64.603 64.928 64.531 65.648V71.576C64.531 72.368 64.675 72.92 64.963 73.232C65.251 73.544 65.659 73.688 66.211 73.688V74H60.259V73.688C60.787 73.688 61.195 73.544 61.483 73.208C61.771 72.896 61.939 72.344 61.939 71.576V59.096C61.939 58.52 61.795 58.112 61.555 57.872C61.315 57.632 60.907 57.512 60.355 57.512V57.2C61.891 57.104 63.211 56.792 64.315 56.264L64.531 56.384V64.616C64.747 63.752 65.179 63.032 65.827 62.456C66.475 61.88 67.243 61.592 68.155 61.592C69.187 61.592 70.027 61.976 70.699 62.696C71.347 63.416 71.779 64.544 71.995 66.032L72.811 71.6C72.907 72.368 73.099 72.92 73.435 73.232C73.747 73.544 74.179 73.688 74.707 73.688V74H68.323V73.688ZM74.7433 73.688C75.2713 73.688 75.6793 73.544 75.9673 73.208C76.2553 72.896 76.4233 72.344 76.4233 71.576V64.448C76.4233 63.872 76.3033 63.488 76.0633 63.248C75.8233 63.008 75.4153 62.888 74.8393 62.864V62.552C76.3753 62.456 77.6953 62.144 78.7993 61.616L79.0153 61.736V64.352C79.2073 63.608 79.5673 62.96 80.0953 62.408C80.6233 61.88 81.2233 61.592 81.9433 61.592C82.4953 61.592 82.9513 61.784 83.3113 62.12C83.6473 62.48 83.8393 62.888 83.8393 63.344C83.8393 63.752 83.6953 64.088 83.4553 64.376C83.2153 64.664 82.8793 64.784 82.4713 64.784C82.1833 64.784 81.9673 64.736 81.7993 64.592C81.6313 64.472 81.4873 64.304 81.3913 64.112C81.2953 63.92 81.1993 63.728 81.1513 63.536C81.0553 63.344 80.9833 63.224 80.9113 63.128C80.8153 63.056 80.7193 63.008 80.5753 63.008C80.1913 63.008 79.8553 63.248 79.5673 63.68C79.2793 64.136 79.0873 64.664 79.0153 65.264V71.576C79.0153 72.344 79.2073 72.896 79.5913 73.208C79.9753 73.544 80.5033 73.688 81.1993 73.688V74H74.7433V73.688ZM86.8489 73.4C85.9129 72.848 85.1689 72.08 84.6409 71.096C84.0889 70.136 83.8249 69.056 83.8249 67.856C83.8249 66.632 84.0889 65.552 84.6409 64.592C85.1689 63.632 85.9129 62.912 86.8489 62.384C87.7609 61.856 88.7689 61.592 89.8729 61.592C90.9769 61.592 91.9849 61.88 92.8969 62.408C93.8089 62.96 94.5529 63.704 95.1049 64.664C95.6329 65.624 95.9209 66.704 95.9209 67.904C95.9209 69.128 95.6569 70.232 95.1289 71.192C94.6009 72.152 93.8569 72.92 92.9449 73.448C92.0329 73.976 91.0249 74.24 89.9209 74.24C88.7929 74.24 87.7609 73.976 86.8489 73.4ZM87.9529 72.296C88.6249 73.304 89.4409 73.784 90.3529 73.784C91.2649 73.784 91.9609 73.352 92.4649 72.464C92.9449 71.6 93.2089 70.448 93.2089 69.032C93.2089 68.576 93.1609 68 93.0889 67.328C92.8729 65.744 92.4409 64.472 91.7689 63.512C91.0969 62.552 90.3289 62.048 89.4409 62.048C88.5049 62.048 87.7849 62.504 87.2809 63.392C86.7769 64.304 86.5369 65.456 86.5369 66.848C86.5369 67.424 86.5609 67.928 86.6329 68.384C86.8249 69.992 87.2809 71.288 87.9529 72.296ZM99.4572 73.688C98.8572 73.304 98.4012 72.752 98.0652 72.032C97.7292 71.312 97.5612 70.448 97.5612 69.464V64.448C97.5612 63.872 97.4172 63.488 97.1772 63.248C96.9372 63.008 96.5292 62.888 95.9772 62.864V62.552C97.5132 62.456 98.8332 62.144 99.9372 61.616L100.153 61.736V69.2C100.153 70.304 100.345 71.192 100.777 71.816C101.185 72.464 101.809 72.776 102.649 72.776C103.369 72.776 103.921 72.536 104.329 72.032C104.737 71.528 104.977 70.928 105.049 70.256V64.448C105.049 63.872 104.905 63.488 104.665 63.248C104.425 63.008 104.017 62.888 103.465 62.864V62.552C105.001 62.456 106.321 62.144 107.425 61.616L107.641 61.736V71.744C107.641 72.272 107.761 72.632 108.001 72.824C108.241 73.016 108.673 73.088 109.249 73.064V73.376C107.689 73.568 106.369 73.88 105.289 74.288L105.049 74.144V71.408C104.785 72.176 104.353 72.848 103.753 73.424C103.129 74 102.385 74.264 101.473 74.264C100.705 74.264 100.033 74.072 99.4572 73.688ZM111.876 78.56C111.18 78.272 110.652 77.888 110.292 77.408C109.932 76.952 109.764 76.472 109.764 75.968C109.764 75.632 109.98 75.296 110.412 74.96C110.844 74.648 111.444 74.312 112.212 73.976C111.564 73.832 111.06 73.568 110.7 73.136C110.34 72.704 110.172 72.224 110.172 71.672C110.172 71.48 110.196 71.312 110.292 71.216C110.364 71.12 110.556 70.952 110.868 70.736L111.444 70.328L112.428 69.584C111.66 69.248 111.06 68.744 110.628 68.096C110.196 67.472 109.98 66.728 109.98 65.888C109.98 65.048 110.196 64.304 110.628 63.632C111.06 62.96 111.684 62.456 112.476 62.072C113.244 61.712 114.156 61.52 115.164 61.52C115.476 61.52 115.932 61.568 116.556 61.664C117.372 61.784 118.044 61.832 118.62 61.832H121.116L120.708 62.792L118.38 62.744C118.956 63.152 119.388 63.632 119.7 64.184C119.988 64.76 120.156 65.336 120.156 65.96C120.156 66.776 119.94 67.52 119.508 68.144C119.076 68.768 118.5 69.272 117.732 69.608C116.964 69.968 116.1 70.136 115.092 70.136C114.204 70.136 113.412 69.992 112.716 69.704C112.38 69.992 112.14 70.232 112.044 70.376C111.924 70.52 111.876 70.664 111.876 70.76C111.876 71.408 112.356 71.72 113.316 71.72H117.828C118.788 71.72 119.532 71.888 120.084 72.224C120.636 72.56 120.924 73.136 120.924 73.952C120.924 74.768 120.612 75.56 120.036 76.328C119.46 77.12 118.644 77.768 117.636 78.272C116.628 78.776 115.5 79.016 114.276 79.016C113.364 79.016 112.548 78.872 111.876 78.56ZM113.028 77.072C113.7 77.504 114.588 77.72 115.692 77.72C116.556 77.72 117.3 77.6 117.972 77.336C118.62 77.096 119.124 76.76 119.484 76.376C119.844 75.992 120.036 75.584 120.036 75.176C120.036 74.84 119.892 74.552 119.604 74.36C119.316 74.168 118.908 74.048 118.356 74.048H113.028H112.74C112.452 74.288 112.212 74.528 112.068 74.744C111.924 74.96 111.852 75.224 111.876 75.512C111.948 76.136 112.332 76.64 113.028 77.072ZM113.268 68.552C113.82 69.344 114.54 69.728 115.404 69.728C116.1 69.728 116.652 69.416 117.084 68.744C117.492 68.072 117.708 67.256 117.708 66.272C117.708 65.504 117.564 64.808 117.324 64.136C117.084 63.464 116.724 62.936 116.292 62.528C115.86 62.144 115.356 61.928 114.828 61.928C114.06 61.928 113.484 62.288 113.076 63.008C112.644 63.728 112.452 64.544 112.452 65.504C112.452 66.752 112.716 67.784 113.268 68.552ZM129.589 73.688C130.165 73.688 130.597 73.568 130.933 73.328C131.245 73.088 131.413 72.68 131.413 72.08C131.413 71.888 131.389 71.72 131.389 71.6L130.645 66.104C130.357 64.064 129.517 63.032 128.149 63.032C127.525 63.032 126.997 63.296 126.565 63.8C126.133 64.328 125.869 64.928 125.797 65.648V71.576C125.797 72.368 125.941 72.92 126.229 73.232C126.517 73.544 126.925 73.688 127.477 73.688V74H121.525V73.688C122.053 73.688 122.461 73.544 122.749 73.208C123.037 72.896 123.205 72.344 123.205 71.576V59.096C123.205 58.52 123.061 58.112 122.821 57.872C122.581 57.632 122.173 57.512 121.621 57.512V57.2C123.157 57.104 124.477 56.792 125.581 56.264L125.797 56.384V64.616C126.013 63.752 126.445 63.032 127.093 62.456C127.741 61.88 128.509 61.592 129.421 61.592C130.453 61.592 131.293 61.976 131.965 62.696C132.613 63.416 133.045 64.544 133.261 66.032L134.077 71.6C134.173 72.368 134.365 72.92 134.701 73.232C135.013 73.544 135.445 73.688 135.973 73.688V74H129.589V73.688ZM143.309 73.136C142.733 72.392 142.445 71.432 142.445 70.232V62.792H140.933V62.456C141.917 62.36 142.757 62.024 143.429 61.4C144.101 60.776 144.533 59.936 144.725 58.856H145.061V61.832H148.637L148.229 62.792H145.061V69.968C145.061 70.784 145.229 71.456 145.565 71.96C145.901 72.488 146.381 72.728 146.981 72.728C147.461 72.728 147.845 72.584 148.157 72.248C148.469 71.912 148.685 71.504 148.805 71L149.093 71.048C148.973 71.96 148.613 72.704 148.037 73.328C147.437 73.952 146.717 74.24 145.901 74.24C144.749 74.24 143.885 73.88 143.309 73.136ZM156.917 73.688C157.493 73.688 157.925 73.568 158.261 73.328C158.573 73.088 158.741 72.68 158.741 72.08C158.741 71.888 158.717 71.72 158.717 71.6L157.973 66.104C157.685 64.064 156.845 63.032 155.477 63.032C154.853 63.032 154.325 63.296 153.893 63.8C153.461 64.328 153.197 64.928 153.125 65.648V71.576C153.125 72.368 153.269 72.92 153.557 73.232C153.845 73.544 154.253 73.688 154.805 73.688V74H148.853V73.688C149.381 73.688 149.789 73.544 150.077 73.208C150.365 72.896 150.533 72.344 150.533 71.576V59.096C150.533 58.52 150.389 58.112 150.149 57.872C149.909 57.632 149.501 57.512 148.949 57.512V57.2C150.485 57.104 151.805 56.792 152.909 56.264L153.125 56.384V64.616C153.341 63.752 153.773 63.032 154.421 62.456C155.069 61.88 155.837 61.592 156.749 61.592C157.781 61.592 158.621 61.976 159.293 62.696C159.941 63.416 160.373 64.544 160.589 66.032L161.405 71.6C161.501 72.368 161.693 72.92 162.029 73.232C162.341 73.544 162.773 73.688 163.301 73.688V74H156.917V73.688ZM165.613 73.4C164.773 72.848 164.125 72.08 163.669 71.12C163.189 70.16 162.973 69.128 162.973 67.976C162.973 66.776 163.213 65.696 163.741 64.736C164.269 63.776 164.965 63.008 165.877 62.432C166.765 61.88 167.749 61.592 168.805 61.592C169.717 61.592 170.533 61.808 171.205 62.216C171.877 62.648 172.405 63.2 172.765 63.896C173.125 64.616 173.317 65.384 173.317 66.2H165.517C165.493 66.296 165.493 66.44 165.493 66.608C165.493 67.736 165.661 68.72 166.021 69.584C166.357 70.448 166.861 71.12 167.509 71.6C168.157 72.08 168.925 72.296 169.789 72.296C170.749 72.296 171.565 72.008 172.237 71.432C172.909 70.856 173.341 70.112 173.533 69.152L173.869 69.2C173.725 70.16 173.389 71.024 172.909 71.792C172.429 72.56 171.805 73.16 171.037 73.592C170.269 74.024 169.429 74.24 168.517 74.24C167.413 74.24 166.453 73.976 165.613 73.4ZM169.741 65.792C170.077 65.792 170.341 65.72 170.485 65.552C170.629 65.384 170.725 65.096 170.725 64.712C170.725 64.04 170.533 63.416 170.197 62.84C169.837 62.264 169.309 61.952 168.613 61.952C167.893 61.952 167.221 62.336 166.645 63.08C166.045 63.848 165.685 64.736 165.541 65.792H169.741ZM188.973 71.696C188.589 72.464 188.085 73.088 187.509 73.544C186.909 74.024 186.237 74.24 185.493 74.24C184.341 74.24 183.429 73.856 182.757 73.04C182.085 72.248 181.605 71.024 181.341 69.368L180.477 64.232C180.333 63.464 180.117 62.936 179.805 62.624C179.469 62.312 179.061 62.144 178.533 62.144V61.832H184.341V62.144C183.453 62.144 183.021 62.624 183.021 63.56C183.021 63.848 183.021 64.088 183.069 64.232L183.765 68.648C183.981 69.944 184.317 70.904 184.749 71.528C185.181 72.176 185.829 72.488 186.669 72.488C187.485 72.488 188.229 72.128 188.853 71.36C188.637 70.784 188.469 70.136 188.349 69.368L187.485 64.232C187.341 63.464 187.125 62.936 186.837 62.624C186.525 62.312 186.117 62.144 185.637 62.144V61.832H191.349V62.144C190.461 62.144 190.029 62.624 190.029 63.584C190.029 63.872 190.029 64.088 190.077 64.232L190.797 68.648C190.989 69.944 191.325 70.928 191.781 71.552C192.213 72.176 192.861 72.488 193.677 72.488C194.349 72.488 194.997 72.272 195.597 71.816C196.197 71.384 196.677 70.76 197.061 69.992C197.421 69.224 197.613 68.36 197.613 67.448C197.613 66.392 197.397 65.504 196.965 64.832C196.533 64.16 195.981 63.824 195.261 63.824C194.973 63.824 194.637 63.896 194.301 64.016C194.157 64.088 193.965 64.112 193.773 64.112C193.437 64.112 193.149 64.016 192.909 63.776C192.669 63.56 192.573 63.272 192.573 62.912C192.573 62.528 192.693 62.216 192.933 61.976C193.173 61.736 193.509 61.616 193.989 61.616C194.661 61.616 195.309 61.832 195.933 62.216C196.557 62.6 197.061 63.2 197.445 63.992C197.829 64.808 198.045 65.792 198.045 66.944C198.045 68.264 197.781 69.488 197.277 70.592C196.773 71.72 196.101 72.608 195.261 73.256C194.421 73.928 193.533 74.24 192.597 74.24C190.893 74.24 189.693 73.4 188.973 71.696ZM202.012 73.4C201.172 72.848 200.524 72.08 200.068 71.12C199.588 70.16 199.372 69.128 199.372 67.976C199.372 66.776 199.612 65.696 200.14 64.736C200.668 63.776 201.364 63.008 202.276 62.432C203.164 61.88 204.148 61.592 205.204 61.592C206.116 61.592 206.932 61.808 207.604 62.216C208.276 62.648 208.804 63.2 209.164 63.896C209.524 64.616 209.716 65.384 209.716 66.2H201.916C201.892 66.296 201.892 66.44 201.892 66.608C201.892 67.736 202.06 68.72 202.42 69.584C202.756 70.448 203.26 71.12 203.908 71.6C204.556 72.08 205.324 72.296 206.188 72.296C207.148 72.296 207.964 72.008 208.636 71.432C209.308 70.856 209.74 70.112 209.932 69.152L210.268 69.2C210.124 70.16 209.788 71.024 209.308 71.792C208.828 72.56 208.204 73.16 207.436 73.592C206.668 74.024 205.828 74.24 204.916 74.24C203.812 74.24 202.852 73.976 202.012 73.4ZM206.14 65.792C206.476 65.792 206.74 65.72 206.884 65.552C207.028 65.384 207.124 65.096 207.124 64.712C207.124 64.04 206.932 63.416 206.596 62.84C206.236 62.264 205.708 61.952 205.012 61.952C204.292 61.952 203.62 62.336 203.044 63.08C202.444 63.848 202.084 64.736 201.94 65.792H206.14ZM214.077 73.808C213.189 73.52 212.397 73.136 211.677 72.656V59.096C211.677 58.52 211.533 58.112 211.293 57.872C211.053 57.632 210.645 57.512 210.093 57.512V57.2C211.629 57.104 212.949 56.792 214.053 56.264L214.269 56.384V64.52C214.485 63.776 214.941 63.104 215.637 62.528C216.309 61.952 217.125 61.64 218.061 61.64C218.997 61.64 219.837 61.928 220.581 62.504C221.301 63.08 221.877 63.824 222.285 64.76C222.669 65.72 222.885 66.728 222.885 67.808C222.885 69.056 222.621 70.184 222.093 71.144C221.565 72.128 220.821 72.896 219.909 73.424C218.997 73.976 217.965 74.24 216.861 74.24C215.901 74.24 214.965 74.096 214.077 73.808ZM214.941 72.68C215.397 73.496 216.093 73.88 217.005 73.88C217.965 73.88 218.757 73.4 219.333 72.416C219.909 71.456 220.197 70.184 220.197 68.624C220.197 67.472 220.029 66.464 219.741 65.6C219.453 64.76 219.045 64.112 218.541 63.68C218.013 63.248 217.437 63.008 216.789 63.008C216.165 63.008 215.637 63.248 215.181 63.68C214.701 64.112 214.413 64.664 214.269 65.336V68.888C214.269 70.616 214.485 71.864 214.941 72.68Z" fill="black"/>
</svg>
