<svg viewBox="0 0 254 38" fill="none" xmlns="http://www.w3.org/2000/svg">
<path d="M4.20602 14.28C3.12602 13.64 2.24602 12.78 1.60602 11.68C0.946019 10.6 0.626019 9.38 0.626019 8.06C0.626019 6.66 0.946019 5.4 1.58602 4.28C2.22602 3.18 3.08602 2.32 4.14602 1.7C5.20602 1.1 6.34602 0.779999 7.56602 0.779999C8.80602 0.779999 9.94602 1.1 11.026 1.74C12.086 2.38 12.926 3.26 13.566 4.36C14.206 5.46 14.526 6.66 14.526 7.98C14.526 9.38 14.206 10.62 13.566 11.72C12.926 12.82 12.086 13.68 11.046 14.3C9.98602 14.92 8.84602 15.22 7.62602 15.22C6.42602 15.22 5.28602 14.92 4.20602 14.28ZM3.98602 11.64C4.44602 12.6 5.02602 13.38 5.72602 13.94C6.42602 14.52 7.20602 14.8 8.04602 14.8C8.84602 14.8 9.54602 14.56 10.166 14.04C10.786 13.54 11.266 12.84 11.626 11.94C11.966 11.04 12.146 10.02 12.146 8.86C12.146 8.38 12.106 7.92 12.066 7.48C11.906 6.3 11.626 5.24 11.186 4.28C10.746 3.32 10.166 2.58 9.48602 2.02C8.80602 1.46 8.02602 1.18 7.18602 1.18C6.90602 1.18 6.70602 1.2 6.58602 1.22C5.88602 1.34 5.26602 1.68 4.72602 2.22C4.18602 2.76 3.76602 3.46 3.46602 4.3C3.14602 5.16 3.00602 6.1 3.00602 7.14C3.00602 7.62 3.02602 8.08 3.08602 8.48C3.22602 9.64 3.52602 10.68 3.98602 11.64ZM17.0646 14.28C16.5846 13.66 16.3446 12.86 16.3446 11.86V5.66H15.0846V5.38C15.9046 5.3 16.6046 5.02 17.1646 4.5C17.7246 3.98 18.0846 3.28 18.2446 2.38H18.5246V4.86H21.5046L21.1646 5.66H18.5246V11.64C18.5246 12.32 18.6646 12.88 18.9446 13.3C19.2246 13.74 19.6246 13.94 20.1246 13.94C20.5246 13.94 20.8446 13.82 21.1046 13.54C21.3646 13.26 21.5446 12.92 21.6446 12.5L21.8846 12.54C21.7846 13.3 21.4846 13.92 21.0046 14.44C20.5046 14.96 19.9046 15.2 19.2246 15.2C18.2646 15.2 17.5446 14.9 17.0646 14.28ZM23.6224 14.28C23.1424 13.66 22.9024 12.86 22.9024 11.86V5.66H21.6424V5.38C22.4624 5.3 23.1624 5.02 23.7224 4.5C24.2824 3.98 24.6424 3.28 24.8024 2.38H25.0824V4.86H28.0624L27.7224 5.66H25.0824V11.64C25.0824 12.32 25.2224 12.88 25.5024 13.3C25.7824 13.74 26.1824 13.94 26.6824 13.94C27.0824 13.94 27.4024 13.82 27.6624 13.54C27.9224 13.26 28.1024 12.92 28.2024 12.5L28.4424 12.54C28.3424 13.3 28.0424 13.92 27.5624 14.44C27.0624 14.96 26.4624 15.2 25.7824 15.2C24.8224 15.2 24.1024 14.9 23.6224 14.28ZM30.8449 14.5C30.0649 14.04 29.4449 13.4 29.0049 12.58C28.5449 11.78 28.3249 10.88 28.3249 9.88C28.3249 8.86 28.5449 7.96 29.0049 7.16C29.4449 6.36 30.0649 5.76 30.8449 5.32C31.6049 4.88 32.4449 4.66 33.3649 4.66C34.2849 4.66 35.1249 4.9 35.8849 5.34C36.6449 5.8 37.2649 6.42 37.7249 7.22C38.1649 8.02 38.4049 8.92 38.4049 9.92C38.4049 10.94 38.1849 11.86 37.7449 12.66C37.3049 13.46 36.6849 14.1 35.9249 14.54C35.1649 14.98 34.3249 15.2 33.4049 15.2C32.4649 15.2 31.6049 14.98 30.8449 14.5ZM31.7649 13.58C32.3249 14.42 33.0049 14.82 33.7649 14.82C34.5249 14.82 35.1049 14.46 35.5249 13.72C35.9249 13 36.1449 12.04 36.1449 10.86C36.1449 10.48 36.1049 10 36.0449 9.44C35.8649 8.12 35.5049 7.06 34.9449 6.26C34.3849 5.46 33.7449 5.04 33.0049 5.04C32.2249 5.04 31.6249 5.42 31.2049 6.16C30.7849 6.92 30.5849 7.88 30.5849 9.04C30.5849 9.52 30.6049 9.94 30.6649 10.32C30.8249 11.66 31.2049 12.74 31.7649 13.58ZM45.0616 14.52C44.4216 14.08 43.9416 13.46 43.5816 12.66C43.2216 11.88 43.0616 11 43.0616 10.04C43.0616 9.08 43.2616 8.18 43.6816 7.36C44.0816 6.56 44.6616 5.9 45.3816 5.42C46.1016 4.94 46.8816 4.7 47.7616 4.7C48.8016 4.7 49.6816 5.1 50.3616 5.9V2.58C50.3616 2.1 50.2616 1.76 50.0616 1.56C49.8616 1.36 49.5216 1.26 49.0616 1.26V0.999999C50.3416 0.919999 51.4416 0.66 52.3416 0.22L52.5416 0.319999V13.12C52.5416 13.56 52.6416 13.86 52.8416 14.02C53.0416 14.18 53.3816 14.24 53.8616 14.22V14.48C52.5416 14.64 51.4616 14.9 50.5816 15.24L50.3616 15.12V13.04C50.1616 13.58 49.7816 14.08 49.2216 14.52C48.6416 14.98 47.9616 15.2 47.1616 15.2C46.3816 15.2 45.6816 14.98 45.0616 14.52ZM45.7416 11.84C46.0016 12.56 46.3616 13.08 46.8216 13.44C47.2616 13.8 47.7616 13.98 48.3016 13.98C48.7816 13.98 49.2216 13.84 49.5816 13.56C49.9416 13.28 50.2016 12.9 50.3616 12.42V9.22C50.3616 8.1 50.1416 7.12 49.7016 6.3C49.2616 5.5 48.6616 5.08 47.9216 5.08C47.4016 5.08 46.9616 5.28 46.5616 5.64C46.1616 6 45.8616 6.5 45.6616 7.14C45.4416 7.78 45.3416 8.5 45.3416 9.3C45.3416 10.3 45.4616 11.14 45.7416 11.84ZM55.1284 2.74C54.8684 2.46 54.7484 2.12 54.7484 1.68C54.7484 1.28 54.8684 0.96 55.1284 0.699999C55.3884 0.439999 55.7284 0.3 56.1484 0.3C56.5684 0.3 56.9084 0.439999 57.1684 0.699999C57.4284 0.96 57.5684 1.28 57.5684 1.68C57.5684 2.12 57.4284 2.46 57.1684 2.74C56.9084 3.02 56.5684 3.14 56.1484 3.14C55.7284 3.14 55.3884 3.02 55.1284 2.74ZM53.8484 14.74C54.2884 14.74 54.6284 14.62 54.8684 14.34C55.1084 14.08 55.2484 13.62 55.2484 12.98V7.04C55.2484 6.56 55.1284 6.24 54.9284 6.04C54.7284 5.84 54.3884 5.74 53.9284 5.72V5.46C55.2084 5.38 56.3084 5.12 57.2284 4.68L57.4084 4.78V12.98C57.4084 13.64 57.5284 14.1 57.7684 14.36C58.0084 14.62 58.3484 14.74 58.8084 14.74V15H53.8484V14.74ZM61.6345 14.84C60.8945 14.6 60.2345 14.28 59.6345 13.88V2.58C59.6345 2.1 59.5145 1.76 59.3145 1.56C59.1145 1.36 58.7745 1.26 58.3145 1.26V0.999999C59.5945 0.919999 60.6945 0.66 61.6145 0.22L61.7945 0.319999V7.1C61.9745 6.48 62.3545 5.92 62.9345 5.44C63.4945 4.96 64.1745 4.7 64.9545 4.7C65.7345 4.7 66.4345 4.94 67.0545 5.42C67.6545 5.9 68.1345 6.52 68.4745 7.3C68.7945 8.1 68.9745 8.94 68.9745 9.84C68.9745 10.88 68.7545 11.82 68.3145 12.62C67.8745 13.44 67.2545 14.08 66.4945 14.52C65.7345 14.98 64.8745 15.2 63.9545 15.2C63.1545 15.2 62.3745 15.08 61.6345 14.84ZM62.3545 13.9C62.7345 14.58 63.3145 14.9 64.0745 14.9C64.8745 14.9 65.5345 14.5 66.0145 13.68C66.4945 12.88 66.7345 11.82 66.7345 10.52C66.7345 9.56 66.5945 8.72 66.3545 8C66.1145 7.3 65.7745 6.76 65.3545 6.4C64.9145 6.04 64.4345 5.84 63.8945 5.84C63.3745 5.84 62.9345 6.04 62.5545 6.4C62.1545 6.76 61.9145 7.22 61.7945 7.78V10.74C61.7945 12.18 61.9745 13.22 62.3545 13.9ZM76.3687 14.62C76.0487 14.26 75.8487 13.74 75.7687 13.08L75.7087 12.64C75.6287 13.08 75.4287 13.5 75.1487 13.88C74.8487 14.28 74.4687 14.6 74.0087 14.84C73.5287 15.08 73.0087 15.2 72.4287 15.2C71.5887 15.2 70.8887 14.96 70.3487 14.48C69.8087 14 69.5487 13.38 69.5487 12.62C69.5487 11.94 69.7687 11.38 70.2487 10.94C70.7287 10.5 71.4087 10.24 72.2887 10.16L75.3287 9.92L75.1887 8.9C75.0687 7.96 74.7887 7.22 74.3487 6.68C73.9087 6.16 73.3287 5.88 72.6087 5.88C72.0287 5.88 71.5287 6.06 71.0887 6.38C70.6487 6.7 70.3287 7.14 70.1087 7.68L69.8487 7.62C69.9687 7.14 70.2087 6.66 70.5687 6.2C70.9287 5.76 71.3687 5.38 71.9087 5.1C72.4487 4.82 73.0487 4.66 73.7087 4.66C74.7087 4.66 75.5287 4.98 76.1487 5.62C76.7687 6.26 77.1487 7.18 77.3087 8.36L77.8887 12.78C77.9887 13.54 78.2487 13.9 78.6887 13.9C78.8087 13.9 78.9287 13.86 79.0287 13.74C79.1287 13.64 79.1887 13.5 79.2287 13.32L79.4687 13.34C79.4287 13.82 79.2687 14.24 78.9487 14.6C78.6287 14.98 78.2087 15.16 77.6887 15.16C77.1287 15.16 76.6887 14.98 76.3687 14.62ZM72.0887 13.48C72.4287 13.84 72.8887 14.02 73.4887 14.02C74.0887 14.02 74.5887 13.84 74.9887 13.48C75.3687 13.12 75.5887 12.68 75.6487 12.18L75.3687 10.22L73.4087 10.38C72.8087 10.44 72.3487 10.64 72.0287 10.96C71.7087 11.28 71.5687 11.7 71.5687 12.18C71.5687 12.7 71.7287 13.12 72.0887 13.48ZM80.8552 14.28C80.3752 13.66 80.1352 12.86 80.1352 11.86V5.66H78.8752V5.38C79.6952 5.3 80.3952 5.02 80.9552 4.5C81.5152 3.98 81.8752 3.28 82.0352 2.38H82.3152V4.86H85.2952L84.9552 5.66H82.3152V11.64C82.3152 12.32 82.4552 12.88 82.7352 13.3C83.0152 13.74 83.4152 13.94 83.9152 13.94C84.3152 13.94 84.6352 13.82 84.8952 13.54C85.1552 13.26 85.3352 12.92 85.4352 12.5L85.6752 12.54C85.5752 13.3 85.2752 13.92 84.7952 14.44C84.2952 14.96 83.6952 15.2 83.0152 15.2C82.0552 15.2 81.3352 14.9 80.8552 14.28ZM87.413 14.28C86.9331 13.66 86.6931 12.86 86.6931 11.86V5.66H85.433V5.38C86.253 5.3 86.953 5.02 87.5131 4.5C88.0731 3.98 88.433 3.28 88.5931 2.38H88.873V4.86H91.8531L91.513 5.66H88.873V11.64C88.873 12.32 89.013 12.88 89.2931 13.3C89.5731 13.74 89.9731 13.94 90.4731 13.94C90.8731 13.94 91.1931 13.82 91.4531 13.54C91.7131 13.26 91.8931 12.92 91.9931 12.5L92.2331 12.54C92.1331 13.3 91.8331 13.92 91.3531 14.44C90.8531 14.96 90.2531 15.2 89.5731 15.2C88.6131 15.2 87.8931 14.9 87.413 14.28ZM93.2885 2.74C93.0285 2.46 92.9085 2.12 92.9085 1.68C92.9085 1.28 93.0285 0.96 93.2885 0.699999C93.5485 0.439999 93.8885 0.3 94.3085 0.3C94.7285 0.3 95.0685 0.439999 95.3285 0.699999C95.5885 0.96 95.7285 1.28 95.7285 1.68C95.7285 2.12 95.5885 2.46 95.3285 2.74C95.0685 3.02 94.7285 3.14 94.3085 3.14C93.8885 3.14 93.5485 3.02 93.2885 2.74ZM92.0085 14.74C92.4485 14.74 92.7885 14.62 93.0285 14.34C93.2685 14.08 93.4085 13.62 93.4085 12.98V7.04C93.4085 6.56 93.2885 6.24 93.0885 6.04C92.8885 5.84 92.5485 5.74 92.0885 5.72V5.46C93.3685 5.38 94.4685 5.12 95.3885 4.68L95.5685 4.78V12.98C95.5685 13.64 95.6885 14.1 95.9285 14.36C96.1685 14.62 96.5085 14.74 96.9685 14.74V15H92.0085V14.74ZM98.5755 14.28C98.0955 13.66 97.8555 12.86 97.8555 11.86V5.66H96.5955V5.38C97.4155 5.3 98.1155 5.02 98.6755 4.5C99.2355 3.98 99.5955 3.28 99.7555 2.38H100.036V4.86H103.016L102.676 5.66H100.036V11.64C100.036 12.32 100.176 12.88 100.456 13.3C100.736 13.74 101.136 13.94 101.636 13.94C102.036 13.94 102.356 13.82 102.616 13.54C102.876 13.26 103.056 12.92 103.156 12.5L103.396 12.54C103.296 13.3 102.996 13.92 102.516 14.44C102.016 14.96 101.416 15.2 100.736 15.2C99.7755 15.2 99.0555 14.9 98.5755 14.28ZM104.451 2.74C104.191 2.46 104.071 2.12 104.071 1.68C104.071 1.28 104.191 0.96 104.451 0.699999C104.711 0.439999 105.051 0.3 105.471 0.3C105.891 0.3 106.231 0.439999 106.491 0.699999C106.751 0.96 106.891 1.28 106.891 1.68C106.891 2.12 106.751 2.46 106.491 2.74C106.231 3.02 105.891 3.14 105.471 3.14C105.051 3.14 104.711 3.02 104.451 2.74ZM103.171 14.74C103.611 14.74 103.951 14.62 104.191 14.34C104.431 14.08 104.571 13.62 104.571 12.98V7.04C104.571 6.56 104.451 6.24 104.251 6.04C104.051 5.84 103.711 5.74 103.251 5.72V5.46C104.531 5.38 105.631 5.12 106.551 4.68L106.731 4.78V12.98C106.731 13.64 106.851 14.1 107.091 14.36C107.331 14.62 107.671 14.74 108.131 14.74V15H103.171V14.74ZM112.526 11.02L112.786 10.96C113.106 11.98 113.566 12.88 114.166 13.66C114.766 14.46 115.546 14.86 116.546 14.86C117.166 14.86 117.666 14.7 118.026 14.38C118.386 14.06 118.586 13.64 118.606 13.14C118.606 12.66 118.426 12.24 118.086 11.92C117.726 11.6 117.166 11.3 116.366 11.02L115.166 10.54C114.326 10.22 113.706 9.84 113.266 9.36C112.826 8.88 112.626 8.28 112.626 7.56C112.626 7.04 112.766 6.54 113.086 6.1C113.386 5.66 113.806 5.32 114.346 5.06C114.886 4.82 115.486 4.68 116.126 4.68C116.646 4.68 117.246 4.8 117.906 5.02C118.266 5.14 118.506 5.18 118.626 5.18C118.906 5.18 119.126 4.98 119.246 4.56L119.526 4.54L119.786 8.46L119.506 8.5C119.346 7.98 119.106 7.46 118.786 6.92C118.466 6.38 118.066 5.92 117.606 5.54C117.126 5.18 116.626 4.98 116.086 4.98C115.546 4.98 115.106 5.14 114.786 5.46C114.466 5.78 114.306 6.18 114.306 6.62C114.306 7.06 114.466 7.46 114.806 7.78C115.146 8.1 115.686 8.4 116.406 8.64L117.586 9.12C118.486 9.46 119.146 9.86 119.586 10.32C120.026 10.78 120.246 11.34 120.246 12C120.246 12.66 120.066 13.22 119.746 13.7C119.406 14.18 118.966 14.56 118.426 14.8C117.886 15.06 117.306 15.18 116.686 15.18C116.326 15.18 115.986 15.16 115.706 15.1C115.406 15.04 115.066 14.96 114.686 14.84C114.266 14.72 113.986 14.66 113.846 14.66C113.686 14.66 113.546 14.72 113.446 14.8C113.346 14.88 113.246 15.02 113.166 15.22L112.866 15.24L112.526 11.02ZM123.303 14.74C122.803 14.42 122.423 13.96 122.143 13.36C121.863 12.76 121.723 12.04 121.723 11.22V7.04C121.723 6.56 121.603 6.24 121.403 6.04C121.203 5.84 120.863 5.74 120.403 5.72V5.46C121.683 5.38 122.783 5.12 123.703 4.68L123.883 4.78V11C123.883 11.92 124.043 12.66 124.403 13.18C124.743 13.72 125.263 13.98 125.963 13.98C126.563 13.98 127.023 13.78 127.363 13.36C127.703 12.94 127.903 12.44 127.963 11.88V7.04C127.963 6.56 127.843 6.24 127.643 6.04C127.443 5.84 127.103 5.74 126.643 5.72V5.46C127.923 5.38 129.023 5.12 129.943 4.68L130.123 4.78V13.12C130.123 13.56 130.223 13.86 130.423 14.02C130.623 14.18 130.983 14.24 131.463 14.22V14.48C130.163 14.64 129.063 14.9 128.163 15.24L127.963 15.12V12.84C127.743 13.48 127.383 14.04 126.883 14.52C126.363 15 125.743 15.22 124.983 15.22C124.343 15.22 123.783 15.06 123.303 14.74ZM131.219 14.74C131.659 14.74 131.999 14.62 132.239 14.34C132.479 14.08 132.619 13.62 132.619 12.98L132.679 2.58C132.679 2.1 132.559 1.76 132.359 1.56C132.159 1.36 131.819 1.26 131.359 1.26V0.999999C132.639 0.919999 133.739 0.66 134.659 0.22L134.839 0.319999V12.98C134.839 13.62 134.959 14.08 135.199 14.34C135.439 14.62 135.799 14.74 136.239 14.74V15H131.219V14.74ZM136.058 14.74C136.498 14.74 136.838 14.62 137.078 14.34C137.318 14.08 137.458 13.62 137.458 12.98L137.518 2.58C137.518 2.1 137.398 1.76 137.198 1.56C136.998 1.36 136.658 1.26 136.198 1.26V0.999999C137.478 0.919999 138.578 0.66 139.498 0.22L139.678 0.319999V12.98C139.678 13.62 139.798 14.08 140.038 14.34C140.278 14.62 140.638 14.74 141.078 14.74V15H136.058V14.74ZM147.88 14.62C147.56 14.26 147.36 13.74 147.28 13.08L147.22 12.64C147.14 13.08 146.94 13.5 146.66 13.88C146.36 14.28 145.98 14.6 145.52 14.84C145.04 15.08 144.52 15.2 143.94 15.2C143.1 15.2 142.4 14.96 141.86 14.48C141.32 14 141.06 13.38 141.06 12.62C141.06 11.94 141.28 11.38 141.76 10.94C142.24 10.5 142.92 10.24 143.8 10.16L146.84 9.92L146.7 8.9C146.58 7.96 146.3 7.22 145.86 6.68C145.42 6.16 144.84 5.88 144.12 5.88C143.54 5.88 143.04 6.06 142.6 6.38C142.16 6.7 141.84 7.14 141.62 7.68L141.36 7.62C141.48 7.14 141.72 6.66 142.08 6.2C142.44 5.76 142.88 5.38 143.42 5.1C143.96 4.82 144.56 4.66 145.22 4.66C146.22 4.66 147.04 4.98 147.66 5.62C148.28 6.26 148.66 7.18 148.82 8.36L149.4 12.78C149.5 13.54 149.76 13.9 150.2 13.9C150.32 13.9 150.44 13.86 150.54 13.74C150.64 13.64 150.7 13.5 150.74 13.32L150.98 13.34C150.94 13.82 150.78 14.24 150.46 14.6C150.14 14.98 149.72 15.16 149.2 15.16C148.64 15.16 148.2 14.98 147.88 14.62ZM143.6 13.48C143.94 13.84 144.4 14.02 145 14.02C145.6 14.02 146.1 13.84 146.5 13.48C146.88 13.12 147.1 12.68 147.16 12.18L146.88 10.22L144.92 10.38C144.32 10.44 143.86 10.64 143.54 10.96C143.22 11.28 143.08 11.7 143.08 12.18C143.08 12.7 143.24 13.12 143.6 13.48ZM157.975 14.84C157.235 14.6 156.575 14.28 155.975 13.88V2.58C155.975 2.1 155.855 1.76 155.655 1.56C155.455 1.36 155.115 1.26 154.655 1.26V0.999999C155.935 0.919999 157.035 0.66 157.955 0.22L158.135 0.319999V7.1C158.315 6.48 158.695 5.92 159.275 5.44C159.835 4.96 160.515 4.7 161.295 4.7C162.075 4.7 162.775 4.94 163.395 5.42C163.995 5.9 164.475 6.52 164.815 7.3C165.135 8.1 165.315 8.94 165.315 9.84C165.315 10.88 165.095 11.82 164.655 12.62C164.215 13.44 163.595 14.08 162.835 14.52C162.075 14.98 161.215 15.2 160.295 15.2C159.495 15.2 158.715 15.08 157.975 14.84ZM158.695 13.9C159.075 14.58 159.655 14.9 160.415 14.9C161.215 14.9 161.875 14.5 162.355 13.68C162.835 12.88 163.075 11.82 163.075 10.52C163.075 9.56 162.935 8.72 162.695 8C162.455 7.3 162.115 6.76 161.695 6.4C161.255 6.04 160.775 5.84 160.235 5.84C159.715 5.84 159.275 6.04 158.895 6.4C158.495 6.76 158.255 7.22 158.135 7.78V10.74C158.135 12.18 158.315 13.22 158.695 13.9ZM166.499 2.74C166.239 2.46 166.119 2.12 166.119 1.68C166.119 1.28 166.239 0.96 166.499 0.699999C166.759 0.439999 167.099 0.3 167.519 0.3C167.939 0.3 168.279 0.439999 168.539 0.699999C168.799 0.96 168.939 1.28 168.939 1.68C168.939 2.12 168.799 2.46 168.539 2.74C168.279 3.02 167.939 3.14 167.519 3.14C167.099 3.14 166.759 3.02 166.499 2.74ZM165.219 14.74C165.659 14.74 165.999 14.62 166.239 14.34C166.479 14.08 166.619 13.62 166.619 12.98V7.04C166.619 6.56 166.499 6.24 166.299 6.04C166.099 5.84 165.759 5.74 165.299 5.72V5.46C166.579 5.38 167.679 5.12 168.599 4.68L168.779 4.78V12.98C168.779 13.64 168.899 14.1 169.139 14.36C169.379 14.62 169.719 14.74 170.179 14.74V15H165.219V14.74ZM172.587 14.5C171.807 14.04 171.187 13.4 170.747 12.58C170.287 11.78 170.067 10.88 170.067 9.88C170.067 8.86 170.287 7.96 170.747 7.16C171.187 6.36 171.807 5.76 172.587 5.32C173.347 4.88 174.187 4.66 175.107 4.66C176.027 4.66 176.867 4.9 177.627 5.34C178.387 5.8 179.007 6.42 179.467 7.22C179.907 8.02 180.147 8.92 180.147 9.92C180.147 10.94 179.927 11.86 179.487 12.66C179.047 13.46 178.427 14.1 177.667 14.54C176.907 14.98 176.067 15.2 175.147 15.2C174.207 15.2 173.347 14.98 172.587 14.5ZM173.507 13.58C174.067 14.42 174.747 14.82 175.507 14.82C176.267 14.82 176.847 14.46 177.267 13.72C177.667 13 177.887 12.04 177.887 10.86C177.887 10.48 177.847 10 177.787 9.44C177.607 8.12 177.247 7.06 176.687 6.26C176.127 5.46 175.487 5.04 174.747 5.04C173.967 5.04 173.367 5.42 172.947 6.16C172.527 6.92 172.327 7.88 172.327 9.04C172.327 9.52 172.347 9.94 172.407 10.32C172.567 11.66 172.947 12.74 173.507 13.58ZM183.039 14.52C182.399 14.08 181.919 13.46 181.559 12.66C181.199 11.88 181.039 11 181.039 10.04C181.039 9.08 181.239 8.18 181.659 7.36C182.059 6.56 182.639 5.9 183.359 5.42C184.079 4.94 184.859 4.7 185.739 4.7C186.779 4.7 187.659 5.1 188.339 5.9V2.58C188.339 2.1 188.239 1.76 188.039 1.56C187.839 1.36 187.499 1.26 187.039 1.26V0.999999C188.319 0.919999 189.419 0.66 190.319 0.22L190.519 0.319999V13.12C190.519 13.56 190.619 13.86 190.819 14.02C191.019 14.18 191.359 14.24 191.839 14.22V14.48C190.519 14.64 189.439 14.9 188.559 15.24L188.339 15.12V13.04C188.139 13.58 187.759 14.08 187.199 14.52C186.619 14.98 185.939 15.2 185.139 15.2C184.359 15.2 183.659 14.98 183.039 14.52ZM183.719 11.84C183.979 12.56 184.339 13.08 184.799 13.44C185.239 13.8 185.739 13.98 186.279 13.98C186.759 13.98 187.199 13.84 187.559 13.56C187.919 13.28 188.179 12.9 188.339 12.42V9.22C188.339 8.1 188.119 7.12 187.679 6.3C187.239 5.5 186.639 5.08 185.899 5.08C185.379 5.08 184.939 5.28 184.539 5.64C184.139 6 183.839 6.5 183.639 7.14C183.419 7.78 183.319 8.5 183.319 9.3C183.319 10.3 183.439 11.14 183.719 11.84ZM193.106 2.74C192.846 2.46 192.726 2.12 192.726 1.68C192.726 1.28 192.846 0.96 193.106 0.699999C193.366 0.439999 193.706 0.3 194.126 0.3C194.546 0.3 194.886 0.439999 195.146 0.699999C195.406 0.96 195.546 1.28 195.546 1.68C195.546 2.12 195.406 2.46 195.146 2.74C194.886 3.02 194.546 3.14 194.126 3.14C193.706 3.14 193.366 3.02 193.106 2.74ZM191.826 14.74C192.266 14.74 192.606 14.62 192.846 14.34C193.086 14.08 193.226 13.62 193.226 12.98V7.04C193.226 6.56 193.106 6.24 192.906 6.04C192.706 5.84 192.366 5.74 191.906 5.72V5.46C193.186 5.38 194.286 5.12 195.206 4.68L195.386 4.78V12.98C195.386 13.64 195.506 14.1 195.746 14.36C195.986 14.62 196.326 14.74 196.786 14.74V15H191.826V14.74ZM199.451 14.2C198.891 13.54 198.491 12.52 198.271 11.14L197.571 6.86C197.451 6.22 197.271 5.78 197.011 5.52C196.731 5.26 196.391 5.12 195.951 5.12V4.86H200.831V5.12C200.051 5.12 199.671 5.52 199.671 6.32C199.671 6.56 199.671 6.74 199.711 6.86L200.311 10.54C200.471 11.62 200.751 12.44 201.131 12.98C201.491 13.54 202.031 13.8 202.751 13.8C203.271 13.8 203.771 13.62 204.271 13.22C204.771 12.82 205.171 12.3 205.491 11.62C205.791 10.96 205.951 10.24 205.951 9.44C205.951 8.56 205.771 7.84 205.431 7.32C205.091 6.8 204.631 6.52 204.051 6.52C203.771 6.52 203.491 6.58 203.251 6.68C203.131 6.74 202.991 6.76 202.831 6.76C202.551 6.76 202.311 6.68 202.111 6.48C201.911 6.28 201.831 6.04 201.831 5.72C201.831 5.44 201.931 5.18 202.131 4.98C202.331 4.78 202.611 4.68 203.011 4.68C203.571 4.68 204.091 4.86 204.591 5.18C205.091 5.5 205.491 6 205.811 6.66C206.131 7.34 206.291 8.16 206.291 9.12C206.291 10.22 206.071 11.24 205.651 12.16C205.211 13.1 204.651 13.84 203.951 14.38C203.251 14.94 202.511 15.2 201.731 15.2C200.771 15.2 200.011 14.88 199.451 14.2ZM209.377 14.5C208.677 14.04 208.137 13.4 207.757 12.6C207.357 11.8 207.177 10.94 207.177 9.98C207.177 8.98 207.377 8.08 207.817 7.28C208.257 6.48 208.837 5.84 209.597 5.36C210.337 4.9 211.157 4.66 212.037 4.66C212.797 4.66 213.477 4.84 214.037 5.18C214.597 5.54 215.037 6 215.337 6.58C215.637 7.18 215.797 7.82 215.797 8.5H209.297C209.277 8.58 209.277 8.7 209.277 8.84C209.277 9.78 209.417 10.6 209.717 11.32C209.997 12.04 210.417 12.6 210.957 13C211.497 13.4 212.137 13.58 212.857 13.58C213.657 13.58 214.337 13.34 214.897 12.86C215.457 12.38 215.817 11.76 215.977 10.96L216.257 11C216.137 11.8 215.857 12.52 215.457 13.16C215.057 13.8 214.537 14.3 213.897 14.66C213.257 15.02 212.557 15.2 211.797 15.2C210.877 15.2 210.077 14.98 209.377 14.5ZM212.817 8.16C213.097 8.16 213.317 8.1 213.437 7.96C213.557 7.82 213.637 7.58 213.637 7.26C213.637 6.7 213.477 6.18 213.197 5.7C212.897 5.22 212.457 4.96 211.877 4.96C211.277 4.96 210.717 5.28 210.237 5.9C209.737 6.54 209.437 7.28 209.317 8.16H212.817ZM215.972 14.74C216.412 14.74 216.752 14.62 216.992 14.34C217.232 14.08 217.372 13.62 217.372 12.98V7.04C217.372 6.56 217.272 6.24 217.072 6.04C216.872 5.84 216.532 5.74 216.052 5.72V5.46C217.332 5.38 218.432 5.12 219.352 4.68L219.532 4.78V6.96C219.692 6.34 219.992 5.8 220.432 5.34C220.872 4.9 221.372 4.66 221.972 4.66C222.432 4.66 222.812 4.82 223.112 5.1C223.392 5.4 223.552 5.74 223.552 6.12C223.552 6.46 223.432 6.74 223.232 6.98C223.032 7.22 222.752 7.32 222.412 7.32C222.172 7.32 221.992 7.28 221.852 7.16C221.712 7.06 221.592 6.92 221.512 6.76C221.432 6.6 221.352 6.44 221.312 6.28C221.232 6.12 221.172 6.02 221.112 5.94C221.032 5.88 220.952 5.84 220.832 5.84C220.512 5.84 220.232 6.04 219.992 6.4C219.752 6.78 219.592 7.22 219.532 7.72V12.98C219.532 13.62 219.692 14.08 220.012 14.34C220.332 14.62 220.772 14.74 221.352 14.74V15H215.972V14.74ZM223.729 11.02L223.989 10.96C224.309 11.98 224.769 12.88 225.369 13.66C225.969 14.46 226.749 14.86 227.749 14.86C228.369 14.86 228.869 14.7 229.229 14.38C229.589 14.06 229.789 13.64 229.809 13.14C229.809 12.66 229.629 12.24 229.289 11.92C228.929 11.6 228.369 11.3 227.569 11.02L226.369 10.54C225.529 10.22 224.909 9.84 224.469 9.36C224.029 8.88 223.829 8.28 223.829 7.56C223.829 7.04 223.969 6.54 224.289 6.1C224.589 5.66 225.009 5.32 225.549 5.06C226.089 4.82 226.689 4.68 227.329 4.68C227.849 4.68 228.449 4.8 229.109 5.02C229.469 5.14 229.709 5.18 229.829 5.18C230.109 5.18 230.329 4.98 230.449 4.56L230.729 4.54L230.989 8.46L230.709 8.5C230.549 7.98 230.309 7.46 229.989 6.92C229.669 6.38 229.269 5.92 228.809 5.54C228.329 5.18 227.829 4.98 227.289 4.98C226.749 4.98 226.309 5.14 225.989 5.46C225.669 5.78 225.509 6.18 225.509 6.62C225.509 7.06 225.669 7.46 226.009 7.78C226.349 8.1 226.889 8.4 227.609 8.64L228.789 9.12C229.689 9.46 230.349 9.86 230.789 10.32C231.229 10.78 231.449 11.34 231.449 12C231.449 12.66 231.269 13.22 230.949 13.7C230.609 14.18 230.169 14.56 229.629 14.8C229.089 15.06 228.509 15.18 227.889 15.18C227.529 15.18 227.189 15.16 226.909 15.1C226.609 15.04 226.269 14.96 225.889 14.84C225.469 14.72 225.189 14.66 225.049 14.66C224.889 14.66 224.749 14.72 224.649 14.8C224.549 14.88 224.449 15.02 224.369 15.22L224.069 15.24L223.729 11.02ZM232.887 2.74C232.627 2.46 232.507 2.12 232.507 1.68C232.507 1.28 232.627 0.96 232.887 0.699999C233.147 0.439999 233.487 0.3 233.907 0.3C234.327 0.3 234.667 0.439999 234.927 0.699999C235.187 0.96 235.327 1.28 235.327 1.68C235.327 2.12 235.187 2.46 234.927 2.74C234.667 3.02 234.327 3.14 233.907 3.14C233.487 3.14 233.147 3.02 232.887 2.74ZM231.607 14.74C232.047 14.74 232.387 14.62 232.627 14.34C232.867 14.08 233.007 13.62 233.007 12.98V7.04C233.007 6.56 232.887 6.24 232.687 6.04C232.487 5.84 232.147 5.74 231.687 5.72V5.46C232.967 5.38 234.067 5.12 234.987 4.68L235.167 4.78V12.98C235.167 13.64 235.287 14.1 235.527 14.36C235.767 14.62 236.107 14.74 236.567 14.74V15H231.607V14.74ZM238.174 14.28C237.694 13.66 237.454 12.86 237.454 11.86V5.66H236.194V5.38C237.014 5.3 237.714 5.02 238.274 4.5C238.834 3.98 239.194 3.28 239.354 2.38H239.634V4.86H242.614L242.274 5.66H239.634V11.64C239.634 12.32 239.774 12.88 240.054 13.3C240.334 13.74 240.734 13.94 241.234 13.94C241.634 13.94 241.954 13.82 242.214 13.54C242.474 13.26 242.654 12.92 242.754 12.5L242.994 12.54C242.894 13.3 242.594 13.92 242.114 14.44C241.614 14.96 241.014 15.2 240.334 15.2C239.374 15.2 238.654 14.9 238.174 14.28ZM250.065 14.62C249.745 14.26 249.545 13.74 249.465 13.08L249.405 12.64C249.325 13.08 249.125 13.5 248.845 13.88C248.545 14.28 248.165 14.6 247.705 14.84C247.225 15.08 246.705 15.2 246.125 15.2C245.285 15.2 244.585 14.96 244.045 14.48C243.505 14 243.245 13.38 243.245 12.62C243.245 11.94 243.465 11.38 243.945 10.94C244.425 10.5 245.105 10.24 245.985 10.16L249.025 9.92L248.885 8.9C248.765 7.96 248.485 7.22 248.045 6.68C247.605 6.16 247.025 5.88 246.305 5.88C245.725 5.88 245.225 6.06 244.785 6.38C244.345 6.7 244.025 7.14 243.805 7.68L243.545 7.62C243.665 7.14 243.905 6.66 244.265 6.2C244.625 5.76 245.065 5.38 245.605 5.1C246.145 4.82 246.745 4.66 247.405 4.66C248.405 4.66 249.225 4.98 249.845 5.62C250.465 6.26 250.845 7.18 251.005 8.36L251.585 12.78C251.685 13.54 251.945 13.9 252.385 13.9C252.505 13.9 252.625 13.86 252.725 13.74C252.825 13.64 252.885 13.5 252.925 13.32L253.165 13.34C253.125 13.82 252.965 14.24 252.645 14.6C252.325 14.98 251.905 15.16 251.385 15.16C250.825 15.16 250.385 14.98 250.065 14.62ZM245.785 13.48C246.125 13.84 246.585 14.02 247.185 14.02C247.785 14.02 248.285 13.84 248.685 13.48C249.065 13.12 249.285 12.68 249.345 12.18L249.065 10.22L247.105 10.38C246.505 10.44 246.045 10.64 245.725 10.96C245.405 11.28 245.265 11.7 245.265 12.18C245.265 12.7 245.425 13.12 245.785 13.48ZM244.225 0.259999L246.685 0.279999L248.205 3.6L247.925 3.72L244.225 0.259999ZM8.18266 36.74C7.68266 36.42 7.30266 35.96 7.02266 35.36C6.74266 34.76 6.60266 34.04 6.60266 33.22V29.04C6.60266 28.56 6.48266 28.24 6.28266 28.04C6.08266 27.84 5.74266 27.74 5.28266 27.72V27.46C6.56266 27.38 7.66266 27.12 8.58266 26.68L8.76266 26.78V33C8.76266 33.92 8.92266 34.66 9.28266 35.18C9.62266 35.72 10.1427 35.98 10.8427 35.98C11.4427 35.98 11.9027 35.78 12.2427 35.36C12.5827 34.94 12.7827 34.44 12.8427 33.88V29.04C12.8427 28.56 12.7227 28.24 12.5227 28.04C12.3227 27.84 11.9827 27.74 11.5227 27.72V27.46C12.8027 27.38 13.9027 27.12 14.8227 26.68L15.0027 26.78V35.12C15.0027 35.56 15.1027 35.86 15.3027 36.02C15.5027 36.18 15.8627 36.24 16.3427 36.22V36.48C15.0427 36.64 13.9427 36.9 13.0427 37.24L12.8427 37.12V34.84C12.6227 35.48 12.2627 36.04 11.7627 36.52C11.2427 37 10.6227 37.22 9.86266 37.22C9.22266 37.22 8.66266 37.06 8.18266 36.74ZM16.3331 36.74C16.7731 36.74 17.1131 36.62 17.3531 36.34C17.5931 36.08 17.7331 35.62 17.7331 34.98V29.04C17.7331 28.56 17.6331 28.24 17.4331 28.04C17.2331 27.84 16.8931 27.74 16.4131 27.72V27.46C17.6931 27.38 18.7931 27.12 19.7131 26.68L19.8931 26.78V28.96C20.0531 28.34 20.3531 27.8 20.7931 27.34C21.2331 26.9 21.7331 26.66 22.3331 26.66C22.7931 26.66 23.1731 26.82 23.4731 27.1C23.7531 27.4 23.9131 27.74 23.9131 28.12C23.9131 28.46 23.7931 28.74 23.5931 28.98C23.3931 29.22 23.1131 29.32 22.7731 29.32C22.5331 29.32 22.3531 29.28 22.2131 29.16C22.0731 29.06 21.9531 28.92 21.8731 28.76C21.7931 28.6 21.7131 28.44 21.6731 28.28C21.5931 28.12 21.5331 28.02 21.4731 27.94C21.3931 27.88 21.3131 27.84 21.1931 27.84C20.8731 27.84 20.5931 28.04 20.3531 28.4C20.1131 28.78 19.9531 29.22 19.8931 29.72V34.98C19.8931 35.62 20.0531 36.08 20.3731 36.34C20.6931 36.62 21.1331 36.74 21.7131 36.74V37H16.3331V36.74ZM26.6778 36.84C25.9378 36.6 25.2778 36.28 24.6778 35.88V24.58C24.6778 24.1 24.5578 23.76 24.3578 23.56C24.1578 23.36 23.8178 23.26 23.3578 23.26V23C24.6378 22.92 25.7378 22.66 26.6578 22.22L26.8378 22.32V29.1C27.0178 28.48 27.3978 27.92 27.9778 27.44C28.5378 26.96 29.2178 26.7 29.9978 26.7C30.7778 26.7 31.4778 26.94 32.0978 27.42C32.6978 27.9 33.1778 28.52 33.5178 29.3C33.8378 30.1 34.0178 30.94 34.0178 31.84C34.0178 32.88 33.7978 33.82 33.3578 34.62C32.9178 35.44 32.2978 36.08 31.5378 36.52C30.7778 36.98 29.9178 37.2 28.9978 37.2C28.1978 37.2 27.4178 37.08 26.6778 36.84ZM27.3978 35.9C27.7778 36.58 28.3578 36.9 29.1178 36.9C29.9178 36.9 30.5778 36.5 31.0578 35.68C31.5378 34.88 31.7778 33.82 31.7778 32.52C31.7778 31.56 31.6378 30.72 31.3978 30C31.1578 29.3 30.8178 28.76 30.3978 28.4C29.9578 28.04 29.4778 27.84 28.9378 27.84C28.4178 27.84 27.9778 28.04 27.5978 28.4C27.1978 28.76 26.9578 29.22 26.8378 29.78V32.74C26.8378 34.18 27.0178 35.22 27.3978 35.9ZM41.412 36.62C41.092 36.26 40.892 35.74 40.812 35.08L40.752 34.64C40.672 35.08 40.472 35.5 40.192 35.88C39.892 36.28 39.512 36.6 39.052 36.84C38.572 37.08 38.052 37.2 37.472 37.2C36.632 37.2 35.932 36.96 35.392 36.48C34.852 36 34.592 35.38 34.592 34.62C34.592 33.94 34.812 33.38 35.292 32.94C35.772 32.5 36.452 32.24 37.332 32.16L40.372 31.92L40.232 30.9C40.112 29.96 39.832 29.22 39.392 28.68C38.952 28.16 38.372 27.88 37.652 27.88C37.072 27.88 36.572 28.06 36.132 28.38C35.692 28.7 35.372 29.14 35.152 29.68L34.892 29.62C35.012 29.14 35.252 28.66 35.612 28.2C35.972 27.76 36.412 27.38 36.952 27.1C37.492 26.82 38.092 26.66 38.752 26.66C39.752 26.66 40.572 26.98 41.192 27.62C41.812 28.26 42.192 29.18 42.352 30.36L42.932 34.78C43.032 35.54 43.292 35.9 43.732 35.9C43.852 35.9 43.972 35.86 44.072 35.74C44.172 35.64 44.232 35.5 44.272 35.32L44.512 35.34C44.472 35.82 44.312 36.24 43.992 36.6C43.672 36.98 43.252 37.16 42.732 37.16C42.172 37.16 41.732 36.98 41.412 36.62ZM37.132 35.48C37.472 35.84 37.932 36.02 38.532 36.02C39.132 36.02 39.632 35.84 40.032 35.48C40.412 35.12 40.632 34.68 40.692 34.18L40.412 32.22L38.452 32.38C37.852 32.44 37.392 32.64 37.072 32.96C36.752 33.28 36.612 33.7 36.612 34.18C36.612 34.7 36.772 35.12 37.132 35.48ZM51.0873 36.74C51.5273 36.74 51.8873 36.64 52.1473 36.44C52.4073 36.24 52.5473 35.9 52.5473 35.4C52.5473 35.24 52.5273 35.1 52.5273 35L51.9073 30.42C51.6673 28.72 50.9673 27.86 49.8273 27.86C49.3073 27.86 48.8473 28.08 48.4873 28.5C48.1273 28.94 47.9073 29.44 47.8673 30.04V34.98C47.8673 35.64 47.9873 36.1 48.2273 36.36C48.4673 36.62 48.8073 36.74 49.2673 36.74V37H44.3073V36.74C44.7473 36.74 45.0873 36.62 45.3273 36.34C45.5673 36.08 45.7073 35.62 45.7073 34.98V29.04C45.7073 28.56 45.5873 28.24 45.3873 28.04C45.1873 27.84 44.8473 27.74 44.3873 27.72V27.46C45.6673 27.38 46.7673 27.12 47.6873 26.68L47.8673 26.78V29.18C48.0473 28.46 48.4073 27.86 48.9473 27.38C49.4873 26.9 50.1273 26.66 50.8873 26.66C51.7473 26.66 52.4473 26.98 53.0073 27.58C53.5473 28.18 53.9073 29.12 54.0873 30.36L54.7673 35C54.8473 35.64 55.0073 36.1 55.2673 36.36C55.5073 36.62 55.8473 36.74 56.2873 36.74V37H51.0873V36.74ZM62.8284 36.62C62.5084 36.26 62.3084 35.74 62.2284 35.08L62.1684 34.64C62.0884 35.08 61.8884 35.5 61.6084 35.88C61.3084 36.28 60.9284 36.6 60.4684 36.84C59.9884 37.08 59.4684 37.2 58.8884 37.2C58.0484 37.2 57.3484 36.96 56.8084 36.48C56.2684 36 56.0084 35.38 56.0084 34.62C56.0084 33.94 56.2284 33.38 56.7084 32.94C57.1884 32.5 57.8684 32.24 58.7484 32.16L61.7884 31.92L61.6484 30.9C61.5284 29.96 61.2484 29.22 60.8084 28.68C60.3684 28.16 59.7884 27.88 59.0684 27.88C58.4884 27.88 57.9884 28.06 57.5484 28.38C57.1084 28.7 56.7884 29.14 56.5684 29.68L56.3084 29.62C56.4284 29.14 56.6684 28.66 57.0284 28.2C57.3884 27.76 57.8284 27.38 58.3684 27.1C58.9084 26.82 59.5084 26.66 60.1684 26.66C61.1684 26.66 61.9884 26.98 62.6084 27.62C63.2284 28.26 63.6084 29.18 63.7684 30.36L64.3484 34.78C64.4484 35.54 64.7084 35.9 65.1484 35.9C65.2684 35.9 65.3884 35.86 65.4884 35.74C65.5884 35.64 65.6484 35.5 65.6884 35.32L65.9284 35.34C65.8884 35.82 65.7284 36.24 65.4084 36.6C65.0884 36.98 64.6684 37.16 64.1484 37.16C63.5884 37.16 63.1484 36.98 62.8284 36.62ZM58.5484 35.48C58.8884 35.84 59.3484 36.02 59.9484 36.02C60.5484 36.02 61.0484 35.84 61.4484 35.48C61.8284 35.12 62.0484 34.68 62.1084 34.18L61.8284 32.22L59.8684 32.38C59.2684 32.44 58.8084 32.64 58.4884 32.96C58.1684 33.28 58.0284 33.7 58.0284 34.18C58.0284 34.7 58.1884 35.12 58.5484 35.48ZM72.7439 36.2C72.1839 35.54 71.7839 34.52 71.5639 33.14L70.8639 28.86C70.7439 28.22 70.5639 27.78 70.3039 27.52C70.0239 27.26 69.6839 27.12 69.2439 27.12V26.86H74.1239V27.12C73.3439 27.12 72.9639 27.52 72.9639 28.32C72.9639 28.56 72.9639 28.74 73.0039 28.86L73.6039 32.54C73.7639 33.62 74.0439 34.44 74.4239 34.98C74.7839 35.54 75.3239 35.8 76.0439 35.8C76.5639 35.8 77.0639 35.62 77.5639 35.22C78.0639 34.82 78.4639 34.3 78.7839 33.62C79.0839 32.96 79.2439 32.24 79.2439 31.44C79.2439 30.56 79.0639 29.84 78.7239 29.32C78.3839 28.8 77.9239 28.52 77.3439 28.52C77.0639 28.52 76.7839 28.58 76.5439 28.68C76.4239 28.74 76.2839 28.76 76.1239 28.76C75.8439 28.76 75.6039 28.68 75.4039 28.48C75.2039 28.28 75.1239 28.04 75.1239 27.72C75.1239 27.44 75.2239 27.18 75.4239 26.98C75.6239 26.78 75.9039 26.68 76.3039 26.68C76.8639 26.68 77.3839 26.86 77.8839 27.18C78.3839 27.5 78.7839 28 79.1039 28.66C79.4239 29.34 79.5839 30.16 79.5839 31.12C79.5839 32.22 79.3639 33.24 78.9439 34.16C78.5039 35.1 77.9439 35.84 77.2439 36.38C76.5439 36.94 75.8039 37.2 75.0239 37.2C74.0639 37.2 73.3039 36.88 72.7439 36.2ZM80.9006 24.74C80.6406 24.46 80.5206 24.12 80.5206 23.68C80.5206 23.28 80.6406 22.96 80.9006 22.7C81.1606 22.44 81.5006 22.3 81.9206 22.3C82.3406 22.3 82.6806 22.44 82.9406 22.7C83.2006 22.96 83.3406 23.28 83.3406 23.68C83.3406 24.12 83.2006 24.46 82.9406 24.74C82.6806 25.02 82.3406 25.14 81.9206 25.14C81.5006 25.14 81.1606 25.02 80.9006 24.74ZM79.6206 36.74C80.0606 36.74 80.4006 36.62 80.6406 36.34C80.8806 36.08 81.0206 35.62 81.0206 34.98V29.04C81.0206 28.56 80.9006 28.24 80.7006 28.04C80.5006 27.84 80.1606 27.74 79.7006 27.72V27.46C80.9806 27.38 82.0806 27.12 83.0006 26.68L83.1806 26.78V34.98C83.1806 35.64 83.3006 36.1 83.5406 36.36C83.7806 36.62 84.1206 36.74 84.5806 36.74V37H79.6206V36.74ZM84.9369 33.02L85.1969 32.96C85.5169 33.98 85.9769 34.88 86.5769 35.66C87.1769 36.46 87.9569 36.86 88.9569 36.86C89.5769 36.86 90.0769 36.7 90.4369 36.38C90.7969 36.06 90.9969 35.64 91.0169 35.14C91.0169 34.66 90.8369 34.24 90.4969 33.92C90.1369 33.6 89.5769 33.3 88.7769 33.02L87.5769 32.54C86.7369 32.22 86.1169 31.84 85.6769 31.36C85.2369 30.88 85.0369 30.28 85.0369 29.56C85.0369 29.04 85.1769 28.54 85.4969 28.1C85.7969 27.66 86.2169 27.32 86.7569 27.06C87.2969 26.82 87.8969 26.68 88.5369 26.68C89.0569 26.68 89.6569 26.8 90.3169 27.02C90.6769 27.14 90.9169 27.18 91.0369 27.18C91.3169 27.18 91.5369 26.98 91.6569 26.56L91.9369 26.54L92.1969 30.46L91.9169 30.5C91.7569 29.98 91.5169 29.46 91.1969 28.92C90.8769 28.38 90.4769 27.92 90.0169 27.54C89.5369 27.18 89.0369 26.98 88.4969 26.98C87.9569 26.98 87.5169 27.14 87.1969 27.46C86.8769 27.78 86.7169 28.18 86.7169 28.62C86.7169 29.06 86.8769 29.46 87.2169 29.78C87.5569 30.1 88.0969 30.4 88.8169 30.64L89.9969 31.12C90.8969 31.46 91.5569 31.86 91.9969 32.32C92.4369 32.78 92.6569 33.34 92.6569 34C92.6569 34.66 92.4769 35.22 92.1569 35.7C91.8169 36.18 91.3769 36.56 90.8369 36.8C90.2969 37.06 89.7169 37.18 89.0969 37.18C88.7369 37.18 88.3969 37.16 88.1169 37.1C87.8169 37.04 87.4769 36.96 87.0969 36.84C86.6769 36.72 86.3969 36.66 86.2569 36.66C86.0969 36.66 85.9569 36.72 85.8569 36.8C85.7569 36.88 85.6569 37.02 85.5769 37.22L85.2769 37.24L84.9369 33.02ZM94.8353 36.28C94.3553 35.66 94.1153 34.86 94.1153 33.86V27.66H92.8553V27.38C93.6753 27.3 94.3753 27.02 94.9353 26.5C95.4953 25.98 95.8553 25.28 96.0153 24.38H96.2953V26.86H99.2753L98.9353 27.66H96.2953V33.64C96.2953 34.32 96.4353 34.88 96.7153 35.3C96.9953 35.74 97.3953 35.94 97.8953 35.94C98.2953 35.94 98.6153 35.82 98.8753 35.54C99.1353 35.26 99.3153 34.92 99.4153 34.5L99.6553 34.54C99.5553 35.3 99.2553 35.92 98.7753 36.44C98.2753 36.96 97.6753 37.2 96.9953 37.2C96.0353 37.2 95.3153 36.9 94.8353 36.28ZM100.711 24.74C100.451 24.46 100.331 24.12 100.331 23.68C100.331 23.28 100.451 22.96 100.711 22.7C100.971 22.44 101.311 22.3 101.731 22.3C102.151 22.3 102.491 22.44 102.751 22.7C103.011 22.96 103.151 23.28 103.151 23.68C103.151 24.12 103.011 24.46 102.751 24.74C102.491 25.02 102.151 25.14 101.731 25.14C101.311 25.14 100.971 25.02 100.711 24.74ZM99.4308 36.74C99.8708 36.74 100.211 36.62 100.451 36.34C100.691 36.08 100.831 35.62 100.831 34.98V29.04C100.831 28.56 100.711 28.24 100.511 28.04C100.311 27.84 99.9708 27.74 99.5108 27.72V27.46C100.791 27.38 101.891 27.12 102.811 26.68L102.991 26.78V34.98C102.991 35.64 103.111 36.1 103.351 36.36C103.591 36.62 103.931 36.74 104.391 36.74V37H99.4308V36.74ZM115.525 36.62C115.205 36.26 115.005 35.74 114.925 35.08L114.865 34.64C114.785 35.08 114.585 35.5 114.305 35.88C114.005 36.28 113.625 36.6 113.165 36.84C112.685 37.08 112.165 37.2 111.585 37.2C110.745 37.2 110.045 36.96 109.505 36.48C108.965 36 108.705 35.38 108.705 34.62C108.705 33.94 108.925 33.38 109.405 32.94C109.885 32.5 110.565 32.24 111.445 32.16L114.485 31.92L114.345 30.9C114.225 29.96 113.945 29.22 113.505 28.68C113.065 28.16 112.485 27.88 111.765 27.88C111.185 27.88 110.685 28.06 110.245 28.38C109.805 28.7 109.485 29.14 109.265 29.68L109.005 29.62C109.125 29.14 109.365 28.66 109.725 28.2C110.085 27.76 110.525 27.38 111.065 27.1C111.605 26.82 112.205 26.66 112.865 26.66C113.865 26.66 114.685 26.98 115.305 27.62C115.925 28.26 116.305 29.18 116.465 30.36L117.045 34.78C117.145 35.54 117.405 35.9 117.845 35.9C117.965 35.9 118.085 35.86 118.185 35.74C118.285 35.64 118.345 35.5 118.385 35.32L118.625 35.34C118.585 35.82 118.425 36.24 118.105 36.6C117.785 36.98 117.365 37.16 116.845 37.16C116.285 37.16 115.845 36.98 115.525 36.62ZM111.245 35.48C111.585 35.84 112.045 36.02 112.645 36.02C113.245 36.02 113.745 35.84 114.145 35.48C114.525 35.12 114.745 34.68 114.805 34.18L114.525 32.22L112.565 32.38C111.965 32.44 111.505 32.64 111.185 32.96C110.865 33.28 110.725 33.7 110.725 34.18C110.725 34.7 110.885 35.12 111.245 35.48ZM120.012 36.28C119.532 35.66 119.292 34.86 119.292 33.86V27.66H118.032V27.38C118.852 27.3 119.552 27.02 120.112 26.5C120.672 25.98 121.032 25.28 121.192 24.38H121.472V26.86H124.452L124.112 27.66H121.472V33.64C121.472 34.32 121.612 34.88 121.892 35.3C122.172 35.74 122.572 35.94 123.072 35.94C123.472 35.94 123.792 35.82 124.052 35.54C124.312 35.26 124.492 34.92 124.592 34.5L124.832 34.54C124.732 35.3 124.432 35.92 123.952 36.44C123.452 36.96 122.852 37.2 122.172 37.2C121.212 37.2 120.492 36.9 120.012 36.28ZM126.57 36.28C126.09 35.66 125.85 34.86 125.85 33.86V27.66H124.59V27.38C125.41 27.3 126.11 27.02 126.67 26.5C127.23 25.98 127.59 25.28 127.75 24.38H128.03V26.86H131.01L130.67 27.66H128.03V33.64C128.03 34.32 128.17 34.88 128.45 35.3C128.73 35.74 129.13 35.94 129.63 35.94C130.03 35.94 130.35 35.82 130.61 35.54C130.87 35.26 131.05 34.92 131.15 34.5L131.39 34.54C131.29 35.3 130.99 35.92 130.51 36.44C130.01 36.96 129.41 37.2 128.73 37.2C127.77 37.2 127.05 36.9 126.57 36.28ZM131.165 36.74C131.605 36.74 131.945 36.62 132.185 36.34C132.425 36.08 132.565 35.62 132.565 34.98V29.04C132.565 28.56 132.465 28.24 132.265 28.04C132.065 27.84 131.725 27.74 131.245 27.72V27.46C132.525 27.38 133.625 27.12 134.545 26.68L134.725 26.78V28.96C134.885 28.34 135.185 27.8 135.625 27.34C136.065 26.9 136.565 26.66 137.165 26.66C137.625 26.66 138.005 26.82 138.305 27.1C138.585 27.4 138.745 27.74 138.745 28.12C138.745 28.46 138.625 28.74 138.425 28.98C138.225 29.22 137.945 29.32 137.605 29.32C137.365 29.32 137.185 29.28 137.045 29.16C136.905 29.06 136.785 28.92 136.705 28.76C136.625 28.6 136.545 28.44 136.505 28.28C136.425 28.12 136.365 28.02 136.305 27.94C136.225 27.88 136.145 27.84 136.025 27.84C135.705 27.84 135.425 28.04 135.185 28.4C134.945 28.78 134.785 29.22 134.725 29.72V34.98C134.725 35.62 134.885 36.08 135.205 36.34C135.525 36.62 135.965 36.74 136.545 36.74V37H131.165V36.74ZM145.448 36.62C145.128 36.26 144.928 35.74 144.848 35.08L144.788 34.64C144.708 35.08 144.508 35.5 144.228 35.88C143.928 36.28 143.548 36.6 143.088 36.84C142.608 37.08 142.088 37.2 141.508 37.2C140.668 37.2 139.968 36.96 139.428 36.48C138.888 36 138.628 35.38 138.628 34.62C138.628 33.94 138.848 33.38 139.328 32.94C139.808 32.5 140.488 32.24 141.368 32.16L144.408 31.92L144.268 30.9C144.148 29.96 143.868 29.22 143.428 28.68C142.988 28.16 142.408 27.88 141.688 27.88C141.108 27.88 140.608 28.06 140.168 28.38C139.728 28.7 139.408 29.14 139.188 29.68L138.928 29.62C139.048 29.14 139.288 28.66 139.648 28.2C140.008 27.76 140.448 27.38 140.988 27.1C141.528 26.82 142.128 26.66 142.788 26.66C143.788 26.66 144.608 26.98 145.228 27.62C145.848 28.26 146.228 29.18 146.388 30.36L146.968 34.78C147.068 35.54 147.328 35.9 147.768 35.9C147.888 35.9 148.008 35.86 148.108 35.74C148.208 35.64 148.268 35.5 148.308 35.32L148.548 35.34C148.508 35.82 148.348 36.24 148.028 36.6C147.708 36.98 147.288 37.16 146.768 37.16C146.208 37.16 145.768 36.98 145.448 36.62ZM141.168 35.48C141.508 35.84 141.968 36.02 142.568 36.02C143.168 36.02 143.668 35.84 144.068 35.48C144.448 35.12 144.668 34.68 144.728 34.18L144.448 32.22L142.488 32.38C141.888 32.44 141.428 32.64 141.108 32.96C140.788 33.28 140.648 33.7 140.648 34.18C140.648 34.7 140.808 35.12 141.168 35.48ZM150.466 36.2C149.906 35.54 149.506 34.52 149.286 33.14L148.586 28.86C148.466 28.22 148.286 27.78 148.026 27.52C147.746 27.26 147.406 27.12 146.966 27.12V26.86H151.846V27.12C151.066 27.12 150.686 27.52 150.686 28.32C150.686 28.56 150.686 28.74 150.726 28.86L151.326 32.54C151.486 33.62 151.766 34.44 152.146 34.98C152.506 35.54 153.046 35.8 153.766 35.8C154.286 35.8 154.786 35.62 155.286 35.22C155.786 34.82 156.186 34.3 156.506 33.62C156.806 32.96 156.966 32.24 156.966 31.44C156.966 30.56 156.786 29.84 156.446 29.32C156.106 28.8 155.646 28.52 155.066 28.52C154.786 28.52 154.506 28.58 154.266 28.68C154.146 28.74 154.006 28.76 153.846 28.76C153.566 28.76 153.326 28.68 153.126 28.48C152.926 28.28 152.846 28.04 152.846 27.72C152.846 27.44 152.946 27.18 153.146 26.98C153.346 26.78 153.626 26.68 154.026 26.68C154.586 26.68 155.106 26.86 155.606 27.18C156.106 27.5 156.506 28 156.826 28.66C157.146 29.34 157.306 30.16 157.306 31.12C157.306 32.22 157.086 33.24 156.666 34.16C156.226 35.1 155.666 35.84 154.966 36.38C154.266 36.94 153.526 37.2 152.746 37.2C151.786 37.2 151.026 36.88 150.466 36.2ZM160.392 36.5C159.692 36.04 159.152 35.4 158.772 34.6C158.372 33.8 158.192 32.94 158.192 31.98C158.192 30.98 158.392 30.08 158.832 29.28C159.272 28.48 159.852 27.84 160.612 27.36C161.352 26.9 162.172 26.66 163.052 26.66C163.812 26.66 164.492 26.84 165.052 27.18C165.612 27.54 166.052 28 166.352 28.58C166.652 29.18 166.812 29.82 166.812 30.5H160.312C160.292 30.58 160.292 30.7 160.292 30.84C160.292 31.78 160.432 32.6 160.732 33.32C161.012 34.04 161.432 34.6 161.972 35C162.512 35.4 163.152 35.58 163.872 35.58C164.672 35.58 165.352 35.34 165.912 34.86C166.472 34.38 166.832 33.76 166.992 32.96L167.272 33C167.152 33.8 166.872 34.52 166.472 35.16C166.072 35.8 165.552 36.3 164.912 36.66C164.272 37.02 163.572 37.2 162.812 37.2C161.892 37.2 161.092 36.98 160.392 36.5ZM163.832 30.16C164.112 30.16 164.332 30.1 164.452 29.96C164.572 29.82 164.652 29.58 164.652 29.26C164.652 28.7 164.492 28.18 164.212 27.7C163.912 27.22 163.472 26.96 162.892 26.96C162.292 26.96 161.732 27.28 161.252 27.9C160.752 28.54 160.452 29.28 160.332 30.16H163.832ZM166.986 36.74C167.426 36.74 167.766 36.62 168.006 36.34C168.246 36.08 168.386 35.62 168.386 34.98V29.04C168.386 28.56 168.286 28.24 168.086 28.04C167.886 27.84 167.546 27.74 167.066 27.72V27.46C168.346 27.38 169.446 27.12 170.366 26.68L170.546 26.78V28.96C170.706 28.34 171.006 27.8 171.446 27.34C171.886 26.9 172.386 26.66 172.986 26.66C173.446 26.66 173.826 26.82 174.126 27.1C174.406 27.4 174.566 27.74 174.566 28.12C174.566 28.46 174.446 28.74 174.246 28.98C174.046 29.22 173.766 29.32 173.426 29.32C173.186 29.32 173.006 29.28 172.866 29.16C172.726 29.06 172.606 28.92 172.526 28.76C172.446 28.6 172.366 28.44 172.326 28.28C172.246 28.12 172.186 28.02 172.126 27.94C172.046 27.88 171.966 27.84 171.846 27.84C171.526 27.84 171.246 28.04 171.006 28.4C170.766 28.78 170.606 29.22 170.546 29.72V34.98C170.546 35.62 170.706 36.08 171.026 36.34C171.346 36.62 171.786 36.74 172.366 36.74V37H166.986V36.74ZM174.744 33.02L175.004 32.96C175.324 33.98 175.784 34.88 176.384 35.66C176.984 36.46 177.764 36.86 178.764 36.86C179.384 36.86 179.884 36.7 180.244 36.38C180.604 36.06 180.804 35.64 180.824 35.14C180.824 34.66 180.644 34.24 180.304 33.92C179.944 33.6 179.384 33.3 178.584 33.02L177.384 32.54C176.544 32.22 175.924 31.84 175.484 31.36C175.044 30.88 174.844 30.28 174.844 29.56C174.844 29.04 174.984 28.54 175.304 28.1C175.604 27.66 176.024 27.32 176.564 27.06C177.104 26.82 177.704 26.68 178.344 26.68C178.864 26.68 179.464 26.8 180.124 27.02C180.484 27.14 180.724 27.18 180.844 27.18C181.124 27.18 181.344 26.98 181.464 26.56L181.744 26.54L182.004 30.46L181.724 30.5C181.564 29.98 181.324 29.46 181.004 28.92C180.684 28.38 180.284 27.92 179.824 27.54C179.344 27.18 178.844 26.98 178.304 26.98C177.764 26.98 177.324 27.14 177.004 27.46C176.684 27.78 176.524 28.18 176.524 28.62C176.524 29.06 176.684 29.46 177.024 29.78C177.364 30.1 177.904 30.4 178.624 30.64L179.804 31.12C180.704 31.46 181.364 31.86 181.804 32.32C182.244 32.78 182.464 33.34 182.464 34C182.464 34.66 182.284 35.22 181.964 35.7C181.624 36.18 181.184 36.56 180.644 36.8C180.104 37.06 179.524 37.18 178.904 37.18C178.544 37.18 178.204 37.16 177.924 37.1C177.624 37.04 177.284 36.96 176.904 36.84C176.484 36.72 176.204 36.66 176.064 36.66C175.904 36.66 175.764 36.72 175.664 36.8C175.564 36.88 175.464 37.02 175.384 37.22L175.084 37.24L174.744 33.02ZM185.698 36.5C184.918 36.04 184.298 35.4 183.858 34.58C183.398 33.78 183.178 32.88 183.178 31.88C183.178 30.86 183.398 29.96 183.858 29.16C184.298 28.36 184.918 27.76 185.698 27.32C186.458 26.88 187.298 26.66 188.218 26.66C189.138 26.66 189.978 26.9 190.738 27.34C191.498 27.8 192.118 28.42 192.578 29.22C193.018 30.02 193.258 30.92 193.258 31.92C193.258 32.94 193.038 33.86 192.598 34.66C192.158 35.46 191.538 36.1 190.778 36.54C190.018 36.98 189.178 37.2 188.258 37.2C187.318 37.2 186.458 36.98 185.698 36.5ZM186.618 35.58C187.178 36.42 187.858 36.82 188.618 36.82C189.378 36.82 189.958 36.46 190.378 35.72C190.778 35 190.998 34.04 190.998 32.86C190.998 32.48 190.958 32 190.898 31.44C190.718 30.12 190.358 29.06 189.798 28.26C189.238 27.46 188.598 27.04 187.858 27.04C187.078 27.04 186.478 27.42 186.058 28.16C185.638 28.92 185.438 29.88 185.438 31.04C185.438 31.52 185.458 31.94 185.518 32.32C185.678 33.66 186.058 34.74 186.618 35.58ZM198.794 24.74C198.534 24.46 198.414 24.12 198.414 23.68C198.414 23.28 198.534 22.96 198.794 22.7C199.054 22.44 199.394 22.3 199.814 22.3C200.234 22.3 200.574 22.44 200.834 22.7C201.094 22.96 201.234 23.28 201.234 23.68C201.234 24.12 201.094 24.46 200.834 24.74C200.574 25.02 200.234 25.14 199.814 25.14C199.394 25.14 199.054 25.02 198.794 24.74ZM197.514 36.74C197.954 36.74 198.294 36.62 198.534 36.34C198.774 36.08 198.914 35.62 198.914 34.98V29.04C198.914 28.56 198.794 28.24 198.594 28.04C198.394 27.84 198.054 27.74 197.594 27.72V27.46C198.874 27.38 199.974 27.12 200.894 26.68L201.074 26.78V34.98C201.074 35.64 201.194 36.1 201.434 36.36C201.674 36.62 202.014 36.74 202.474 36.74V37H197.514V36.74ZM202.295 36.74C202.735 36.74 203.075 36.62 203.315 36.34C203.555 36.08 203.695 35.62 203.695 34.98L203.755 24.58C203.755 24.1 203.635 23.76 203.435 23.56C203.235 23.36 202.895 23.26 202.435 23.26V23C203.715 22.92 204.815 22.66 205.735 22.22L205.915 22.32V34.98C205.915 35.62 206.035 36.08 206.275 36.34C206.515 36.62 206.875 36.74 207.315 36.74V37H202.295V36.74ZM219.43 35.08C219.11 35.72 218.69 36.24 218.21 36.62C217.71 37.02 217.15 37.2 216.53 37.2C215.57 37.2 214.81 36.88 214.25 36.2C213.69 35.54 213.29 34.52 213.07 33.14L212.35 28.86C212.23 28.22 212.05 27.78 211.79 27.52C211.51 27.26 211.17 27.12 210.73 27.12V26.86H215.57V27.12C214.83 27.12 214.47 27.52 214.47 28.3C214.47 28.54 214.47 28.74 214.51 28.86L215.09 32.54C215.27 33.62 215.55 34.42 215.91 34.94C216.27 35.48 216.81 35.74 217.51 35.74C218.19 35.74 218.81 35.44 219.33 34.8C219.15 34.32 219.01 33.78 218.91 33.14L218.19 28.86C218.07 28.22 217.89 27.78 217.65 27.52C217.39 27.26 217.05 27.12 216.65 27.12V26.86H221.41V27.12C220.67 27.12 220.31 27.52 220.31 28.32C220.31 28.56 220.31 28.74 220.35 28.86L220.95 32.54C221.11 33.62 221.39 34.44 221.77 34.96C222.13 35.48 222.67 35.74 223.35 35.74C223.91 35.74 224.45 35.56 224.95 35.18C225.45 34.82 225.85 34.3 226.17 33.66C226.47 33.02 226.63 32.3 226.63 31.54C226.63 30.66 226.45 29.92 226.09 29.36C225.73 28.8 225.27 28.52 224.67 28.52C224.43 28.52 224.15 28.58 223.87 28.68C223.75 28.74 223.59 28.76 223.43 28.76C223.15 28.76 222.91 28.68 222.71 28.48C222.51 28.3 222.43 28.06 222.43 27.76C222.43 27.44 222.53 27.18 222.73 26.98C222.93 26.78 223.21 26.68 223.61 26.68C224.17 26.68 224.71 26.86 225.23 27.18C225.75 27.5 226.17 28 226.49 28.66C226.81 29.34 226.99 30.16 226.99 31.12C226.99 32.22 226.77 33.24 226.35 34.16C225.93 35.1 225.37 35.84 224.67 36.38C223.97 36.94 223.23 37.2 222.45 37.2C221.03 37.2 220.03 36.5 219.43 35.08ZM230.096 36.5C229.396 36.04 228.856 35.4 228.476 34.6C228.076 33.8 227.896 32.94 227.896 31.98C227.896 30.98 228.096 30.08 228.536 29.28C228.976 28.48 229.556 27.84 230.316 27.36C231.056 26.9 231.876 26.66 232.756 26.66C233.516 26.66 234.196 26.84 234.756 27.18C235.316 27.54 235.756 28 236.056 28.58C236.356 29.18 236.516 29.82 236.516 30.5H230.016C229.996 30.58 229.996 30.7 229.996 30.84C229.996 31.78 230.136 32.6 230.436 33.32C230.716 34.04 231.136 34.6 231.676 35C232.216 35.4 232.856 35.58 233.576 35.58C234.376 35.58 235.056 35.34 235.616 34.86C236.176 34.38 236.536 33.76 236.696 32.96L236.976 33C236.856 33.8 236.576 34.52 236.176 35.16C235.776 35.8 235.256 36.3 234.616 36.66C233.976 37.02 233.276 37.2 232.516 37.2C231.596 37.2 230.796 36.98 230.096 36.5ZM233.536 30.16C233.816 30.16 234.036 30.1 234.156 29.96C234.276 29.82 234.356 29.58 234.356 29.26C234.356 28.7 234.196 28.18 233.916 27.7C233.616 27.22 233.176 26.96 232.596 26.96C231.996 26.96 231.436 27.28 230.956 27.9C230.456 28.54 230.156 29.28 230.036 30.16H233.536ZM239.95 36.84C239.21 36.6 238.55 36.28 237.95 35.88V24.58C237.95 24.1 237.83 23.76 237.63 23.56C237.43 23.36 237.09 23.26 236.63 23.26V23C237.91 22.92 239.01 22.66 239.93 22.22L240.11 22.32V29.1C240.29 28.48 240.67 27.92 241.25 27.44C241.81 26.96 242.49 26.7 243.27 26.7C244.05 26.7 244.75 26.94 245.37 27.42C245.97 27.9 246.45 28.52 246.79 29.3C247.11 30.1 247.29 30.94 247.29 31.84C247.29 32.88 247.07 33.82 246.63 34.62C246.19 35.44 245.57 36.08 244.81 36.52C244.05 36.98 243.19 37.2 242.27 37.2C241.47 37.2 240.69 37.08 239.95 36.84ZM240.67 35.9C241.05 36.58 241.63 36.9 242.39 36.9C243.19 36.9 243.85 36.5 244.33 35.68C244.81 34.88 245.05 33.82 245.05 32.52C245.05 31.56 244.91 30.72 244.67 30C244.43 29.3 244.09 28.76 243.67 28.4C243.23 28.04 242.75 27.84 242.21 27.84C241.69 27.84 241.25 28.04 240.87 28.4C240.47 28.76 240.23 29.22 240.11 29.78V32.74C240.11 34.18 240.29 35.22 240.67 35.9Z" fill="black"/>
</svg>
