<svg viewBox="0 0 604 85" fill="none" xmlns="http://www.w3.org/2000/svg">
<path d="M0.5325 30V29.48C2.1325 29.48 3.3325 28.72 3.3325 25.96V6.04C3.3325 3.28 2.1325 2.52 0.5325 2.52V2H20.2125L21.3725 10.28L20.8525 10.4C19.9725 5.24 17.4925 2.68 13.4125 2.68H7.8925V15.52H12.3325C14.9325 15.52 16.1325 14.36 16.1325 10.88H16.6925V20.92H16.1325C16.1325 17.44 14.9325 16.2 12.2925 16.2H7.8925V27.16C7.8925 28.64 8.2925 29.32 10.0125 29.32H14.0525C18.7325 29.32 21.0125 26.44 22.3325 21.92L22.7725 22.04L21.2125 30H0.5325ZM27.9366 6.28C26.2566 6.28 25.1366 5.08 25.1366 3.36C25.1366 1.76 26.2566 0.599999 27.9366 0.599999C29.6566 0.599999 30.7766 1.76 30.7766 3.36C30.7766 5.08 29.6566 6.28 27.9366 6.28ZM23.3366 30V29.48C24.9366 29.48 26.1366 28.72 26.1366 25.96V14.08C26.1366 12.12 25.3366 11.48 23.4966 11.44V10.92C25.6166 10.76 28.0166 10.32 30.0966 9.36L30.4566 9.56V25.96C30.4566 28.72 31.6166 29.48 33.2566 29.48V30H23.3366ZM41.9663 38.36C36.9663 38.48 34.1263 35.68 34.1263 33.28C34.1263 32 36.2063 30.88 38.2063 29.96C36.0462 29.48 34.8063 27.92 34.8063 26.12C34.8063 25.16 35.2063 25.16 36.9263 23.88L38.5663 22.64C36.0462 21.48 34.4863 19.28 34.4863 16.48C34.4863 12.2 38.0463 9.2 43.1263 9.2C45.0863 9.2 46.0463 9.72 48.8863 9.72H53.0463L52.3663 11.32L48.4863 11.24C50.4463 12.6 51.4463 14.56 51.4463 16.6C51.4463 20.72 48.0863 23.56 43.0063 23.56C41.5263 23.56 40.2063 23.32 39.0463 22.84C37.7263 24 37.6063 24.32 37.6463 24.72C37.6863 25.64 38.3663 26.2 40.0463 26.2H47.5663C50.4463 26.2 52.7263 27 52.7263 29.92C52.7263 33.8 48.2463 38.28 41.9663 38.36ZM37.6463 32.52C37.8863 34.44 40.2063 36.2 44.0063 36.2C48.5263 36.2 51.2463 33.88 51.2463 31.96C51.2463 30.8 50.3663 30.08 48.4463 30.08H39.5663H39.0863C38.3663 30.68 37.5663 31.4 37.6463 32.52ZM38.6063 16.44C38.8463 20.32 40.8463 22.96 43.6463 22.88C46.2063 22.8 47.5663 19.76 47.3263 16.36C47.0863 12.76 45.0863 9.76 42.4063 9.88C39.7263 9.96 38.4062 13.4 38.6063 16.44ZM67.1672 30V29.48C69.1272 29.48 70.5272 28.72 70.1672 26L68.9272 16.84C68.4872 13.68 67.2072 11.72 64.7672 11.72C62.6872 11.72 61.0872 13.72 60.8472 16.08V25.96C60.8472 28.72 62.0072 29.48 63.6472 29.48V30H53.7272V29.48C55.3272 29.48 56.5272 28.72 56.5272 25.96V5.16C56.5272 3.2 55.7272 2.52 53.8872 2.52V2C56.0072 1.84 58.4072 1.4 60.4872 0.439999L60.8472 0.639999V14.36C61.5672 11.6 63.8072 9.32 66.8872 9.32C70.2472 9.32 72.5672 11.6 73.2872 16.72L74.6472 26C75.0072 28.72 76.1672 29.48 77.8072 29.48V30H67.1672ZM84.55 30.4C80.63 30.4 78.79 27.48 78.79 23.72V11.32H76.27V10.76C79.47 10.44 81.95 8.4 82.59 4.76H83.15V9.72H89.11L88.43 11.32H83.15V23.28C83.15 25.96 84.35 27.88 86.35 27.88C88.07 27.88 89.07 26.48 89.39 25L89.87 25.08C89.51 27.96 87.43 30.4 84.55 30.4ZM107.337 30.4C102.577 30.4 99.1366 25.88 99.1366 20.08C99.1366 14.16 103.257 9.4 108.537 9.4C110.937 9.4 112.617 10.48 113.737 11.8V5.16C113.737 3.2 112.977 2.52 111.137 2.52V2C113.257 1.84 115.657 1.4 117.697 0.439999L118.097 0.639999V26.24C118.097 28.08 118.937 28.48 120.737 28.44V28.96C118.777 29.2 116.217 29.68 114.177 30.48L113.737 30.24V26.08C113.097 27.92 110.817 30.4 107.337 30.4ZM103.697 18.6C103.697 24.76 106.457 27.96 109.617 27.96C111.617 27.96 113.097 26.68 113.737 24.84V18.44C113.737 14.16 111.977 10.16 108.857 10.16C105.737 10.16 103.697 13.8 103.697 18.6ZM130.369 30.4C124.769 30.4 121.129 25.64 121.129 19.96C121.129 13.88 125.489 9.32 130.849 9.32C135.609 9.32 138.369 12.88 138.369 17H125.369C125.329 17.24 125.329 17.44 125.329 17.68C125.329 23.36 128.129 27.2 132.569 27.16C135.889 27.16 138.089 24.92 138.729 21.92L139.289 22C138.569 26.76 135.089 30.4 130.369 30.4ZM125.409 16.32H132.409C133.609 16.32 134.049 15.76 134.049 14.52C134.049 12.64 133.089 9.92 130.529 9.92C128.089 9.92 125.889 12.84 125.409 16.32ZM150.277 30.4C146.877 30.4 143.837 29.2 141.637 27.76V5.16C141.637 3.2 140.837 2.52 138.997 2.52V2C141.157 1.84 143.557 1.4 145.597 0.439999L145.957 0.639999V14.2C146.637 11.92 148.957 9.4 152.277 9.4C157.157 9.4 160.317 14.32 160.317 19.68C160.317 26 155.957 30.4 150.277 30.4ZM145.957 21.48C145.957 27.28 147.557 29.8 150.517 29.8C153.797 29.8 155.837 26.16 155.837 21.04C155.837 15.08 153.397 11.68 150.157 11.68C148.117 11.68 146.437 13.32 145.957 15.56V21.48ZM178.145 30.32C175.825 30.32 174.625 28.68 174.305 26.16L174.185 25.28C173.705 27.8 171.305 30.4 167.625 30.4C164.225 30.4 161.865 28.2 161.865 25.24C161.865 22.56 163.785 20.64 167.345 20.32L173.425 19.84L173.145 17.8C172.665 14.16 171.025 11.76 167.985 11.76C165.625 11.76 163.865 13.24 162.985 15.36L162.465 15.24C163.225 12.4 166.105 9.32 170.185 9.32C174.225 9.32 176.785 11.96 177.385 16.72L178.545 25.56C178.785 27.28 179.465 27.8 180.145 27.8C180.705 27.8 181.105 27.32 181.225 26.64L181.705 26.68C181.625 28.4 180.385 30.32 178.145 30.32ZM165.905 24.36C165.905 26.28 167.305 28.04 169.745 28.04C172.305 28.04 173.865 26.2 174.065 24.36L173.505 20.44L169.585 20.76C167.145 21 165.905 22.44 165.905 24.36ZM189.198 30.4C185.278 30.4 183.438 27.48 183.438 23.72V11.32H180.918V10.76C184.118 10.44 186.598 8.4 187.238 4.76H187.798V9.72H193.758L193.078 11.32H187.798V23.28C187.798 25.96 188.998 27.88 190.998 27.88C192.718 27.88 193.718 26.48 194.038 25L194.518 25.08C194.158 27.96 192.078 30.4 189.198 30.4ZM204.041 30.4C198.441 30.4 194.801 25.64 194.801 19.96C194.801 13.88 199.161 9.32 204.521 9.32C209.281 9.32 212.041 12.88 212.041 17H199.041C199.001 17.24 199.001 17.44 199.001 17.68C199.001 23.36 201.801 27.2 206.241 27.16C209.561 27.16 211.761 24.92 212.401 21.92L212.961 22C212.241 26.76 208.761 30.4 204.041 30.4ZM199.081 16.32H206.081C207.281 16.32 207.721 15.76 207.721 14.52C207.721 12.64 206.761 9.92 204.201 9.92C201.761 9.92 199.561 12.84 199.081 16.32ZM215.323 30.48L214.643 22.04L215.163 21.92C216.083 24.68 218.203 29.68 222.683 29.72C225.243 29.72 226.763 28.2 226.803 26.28C226.803 24.32 225.523 23.16 222.323 22.04L219.923 21.08C216.723 19.88 214.803 18.08 214.843 15.04C214.923 11.76 218.003 9.32 221.923 9.36C225.643 9.4 227.283 11.76 228.083 9.12L228.643 9.08L229.163 16.92L228.603 17C227.803 14.24 225.322 10 221.843 9.96C219.603 9.92 218.203 11.44 218.203 13.24C218.203 15.04 219.563 16.28 222.403 17.28L224.763 18.24C228.403 19.6 230.163 21.36 230.083 24.2C230.003 28.2 226.443 30.4 222.883 30.36C218.723 30.28 216.923 27.96 215.923 30.44L215.323 30.48ZM250.351 30.4C244.671 30.4 240.191 25.76 240.191 19.76C240.191 13.44 244.831 9.32 250.271 9.32C255.791 9.32 260.351 13.72 260.351 19.84C260.351 26.08 255.911 30.4 250.351 30.4ZM244.871 20.64C245.591 26.2 248.271 30.04 251.591 29.6C254.951 29.16 256.391 24.52 255.631 18.88C254.911 13.32 252.231 9.64 248.991 10.12C245.631 10.6 244.191 15.2 244.871 20.64ZM273.967 30V29.48C275.847 29.48 277.207 28.72 276.847 26L275.607 16.84C275.167 13.68 273.887 11.72 271.447 11.72C269.327 11.72 267.727 13.72 267.527 16.08V25.96C267.527 28.72 268.687 29.48 270.327 29.48V30H260.407V29.48C262.007 29.48 263.207 28.72 263.207 25.96V14.08C263.207 12.12 262.407 11.48 260.567 11.44V10.92C262.687 10.76 265.087 10.32 267.167 9.36L267.527 9.56V14.36C268.247 11.6 270.487 9.32 273.567 9.32C276.927 9.32 279.247 11.6 279.967 16.72L281.327 26C281.687 28.72 282.807 29.48 284.367 29.48V30H273.967ZM301.597 30.44C297.877 30.44 295.077 27.44 295.077 22.44V14.08C295.077 12.12 294.277 11.48 292.437 11.44V10.92C294.557 10.76 296.957 10.32 299.037 9.36L299.397 9.56V22C299.397 25.52 300.717 27.96 303.557 27.96C306.157 27.96 307.357 25.68 307.557 23.76V14.08C307.557 12.12 306.757 11.48 304.917 11.44V10.92C307.077 10.76 309.477 10.32 311.517 9.36L311.877 9.56V26.24C311.877 28.08 312.757 28.48 314.557 28.44V28.96C312.597 29.2 310.037 29.68 307.957 30.48L307.557 30.24V25.68C306.837 27.88 304.917 30.44 301.597 30.44ZM314.938 30V29.48C316.538 29.48 317.738 28.72 317.738 25.96V14.08C317.738 12.12 316.978 11.48 315.098 11.44V10.92C317.258 10.76 319.658 10.32 321.698 9.36L322.058 9.56V13.92C322.698 11.64 324.418 9.32 326.938 9.32C328.898 9.32 330.098 10.76 330.098 12.24C330.098 13.48 329.258 14.64 327.818 14.64C326.338 14.64 325.978 13.4 325.618 12.56C325.378 11.96 325.178 11.68 324.658 11.68C323.418 11.68 322.298 13.48 322.058 15.44V25.96C322.058 28.72 323.618 29.48 325.698 29.48V30H314.938ZM340.668 30.4C337.268 30.4 334.228 29.2 332.028 27.76V5.16C332.028 3.2 331.228 2.52 329.388 2.52V2C331.548 1.84 333.948 1.4 335.988 0.439999L336.348 0.639999V14.2C337.028 11.92 339.348 9.4 342.668 9.4C347.548 9.4 350.708 14.32 350.708 19.68C350.708 26 346.348 30.4 340.668 30.4ZM336.348 21.48C336.348 27.28 337.948 29.8 340.908 29.8C344.188 29.8 346.228 26.16 346.228 21.04C346.228 15.08 343.788 11.68 340.548 11.68C338.508 11.68 336.828 13.32 336.348 15.56V21.48ZM368.536 30.32C366.216 30.32 365.016 28.68 364.696 26.16L364.576 25.28C364.096 27.8 361.696 30.4 358.016 30.4C354.616 30.4 352.256 28.2 352.256 25.24C352.256 22.56 354.176 20.64 357.736 20.32L363.816 19.84L363.536 17.8C363.056 14.16 361.416 11.76 358.376 11.76C356.016 11.76 354.256 13.24 353.376 15.36L352.856 15.24C353.616 12.4 356.496 9.32 360.576 9.32C364.616 9.32 367.176 11.96 367.776 16.72L368.936 25.56C369.176 27.28 369.856 27.8 370.536 27.8C371.096 27.8 371.496 27.32 371.616 26.64L372.096 26.68C372.016 28.4 370.776 30.32 368.536 30.32ZM356.296 24.36C356.296 26.28 357.696 28.04 360.136 28.04C362.696 28.04 364.256 26.2 364.456 24.36L363.896 20.44L359.976 20.76C357.536 21 356.296 22.44 356.296 24.36ZM385.647 30V29.48C387.527 29.48 388.887 28.72 388.527 26L387.287 16.84C386.847 13.68 385.567 11.72 383.127 11.72C381.007 11.72 379.407 13.72 379.207 16.08V25.96C379.207 28.72 380.367 29.48 382.007 29.48V30H372.087V29.48C373.687 29.48 374.887 28.72 374.887 25.96V14.08C374.887 12.12 374.087 11.48 372.247 11.44V10.92C374.367 10.76 376.767 10.32 378.847 9.36L379.207 9.56V14.36C379.927 11.6 382.167 9.32 385.247 9.32C388.607 9.32 390.927 11.6 391.647 16.72L393.007 26C393.367 28.72 394.487 29.48 396.047 29.48V30H385.647ZM415.277 30.4C411.877 30.4 408.837 29.2 406.637 27.76V5.16C406.637 3.2 405.837 2.52 403.997 2.52V2C406.157 1.84 408.557 1.4 410.597 0.439999L410.957 0.639999V14.2C411.637 11.92 413.957 9.4 417.277 9.4C422.157 9.4 425.317 14.32 425.317 19.68C425.317 26 420.957 30.4 415.277 30.4ZM410.957 21.48C410.957 27.28 412.557 29.8 415.517 29.8C418.797 29.8 420.837 26.16 420.837 21.04C420.837 15.08 418.397 11.68 415.157 11.68C413.117 11.68 411.437 13.32 410.957 15.56V21.48ZM430.124 6.28C428.444 6.28 427.324 5.08 427.324 3.36C427.324 1.76 428.444 0.599999 430.124 0.599999C431.844 0.599999 432.964 1.76 432.964 3.36C432.964 5.08 431.844 6.28 430.124 6.28ZM425.524 30V29.48C427.124 29.48 428.324 28.72 428.324 25.96V14.08C428.324 12.12 427.524 11.48 425.684 11.44V10.92C427.804 10.76 430.204 10.32 432.284 9.36L432.644 9.56V25.96C432.644 28.72 433.804 29.48 435.444 29.48V30H425.524ZM445.781 30.4C440.101 30.4 435.621 25.76 435.621 19.76C435.621 13.44 440.261 9.32 445.701 9.32C451.221 9.32 455.781 13.72 455.781 19.84C455.781 26.08 451.341 30.4 445.781 30.4ZM440.301 20.64C441.021 26.2 443.701 30.04 447.021 29.6C450.381 29.16 451.821 24.52 451.061 18.88C450.341 13.32 447.661 9.64 444.421 10.12C441.061 10.6 439.621 15.2 440.301 20.64ZM466.165 30.4C461.405 30.4 457.965 25.88 457.965 20.08C457.965 14.16 462.085 9.4 467.365 9.4C469.765 9.4 471.445 10.48 472.565 11.8V5.16C472.565 3.2 471.805 2.52 469.965 2.52V2C472.085 1.84 474.485 1.4 476.525 0.439999L476.925 0.639999V26.24C476.925 28.08 477.765 28.48 479.565 28.44V28.96C477.605 29.2 475.045 29.68 473.005 30.48L472.565 30.24V26.08C471.925 27.92 469.645 30.4 466.165 30.4ZM462.525 18.6C462.525 24.76 465.285 27.96 468.445 27.96C470.445 27.96 471.925 26.68 472.565 24.84V18.44C472.565 14.16 470.805 10.16 467.685 10.16C464.565 10.16 462.525 13.8 462.525 18.6ZM484.538 6.28C482.858 6.28 481.738 5.08 481.738 3.36C481.738 1.76 482.858 0.599999 484.538 0.599999C486.258 0.599999 487.378 1.76 487.378 3.36C487.378 5.08 486.258 6.28 484.538 6.28ZM479.938 30V29.48C481.538 29.48 482.738 28.72 482.738 25.96V14.08C482.738 12.12 481.938 11.48 480.098 11.44V10.92C482.218 10.76 484.618 10.32 486.698 9.36L487.058 9.56V25.96C487.058 28.72 488.218 29.48 489.858 29.48V30H479.938ZM500.149 30.4C496.269 30.4 494.149 27.72 493.229 22.28L491.829 13.72C491.389 11 490.229 10.24 488.589 10.24V9.72H498.349V10.24C496.829 10.24 495.669 11 496.109 13.72L497.309 21.08C497.949 25.12 499.229 27.6 502.189 27.6C505.349 27.6 508.589 23.76 508.589 18.88C508.589 14.52 506.389 12.12 503.189 13.36C501.829 13.88 500.389 13.08 500.349 11.6C500.269 10.4 501.029 9.36 502.709 9.36C505.869 9.36 509.269 12.08 509.269 18.24C509.269 24.96 504.909 30.4 500.149 30.4ZM520.681 30.4C515.081 30.4 511.441 25.64 511.441 19.96C511.441 13.88 515.801 9.32 521.161 9.32C525.921 9.32 528.681 12.88 528.681 17H515.681C515.641 17.24 515.641 17.44 515.641 17.68C515.641 23.36 518.441 27.2 522.881 27.16C526.201 27.16 528.401 24.92 529.041 21.92L529.601 22C528.881 26.76 525.401 30.4 520.681 30.4ZM515.721 16.32H522.721C523.921 16.32 524.361 15.76 524.361 14.52C524.361 12.64 523.401 9.92 520.841 9.92C518.401 9.92 516.201 12.84 515.721 16.32ZM529.43 30V29.48C531.03 29.48 532.23 28.72 532.23 25.96V14.08C532.23 12.12 531.47 11.48 529.59 11.44V10.92C531.75 10.76 534.15 10.32 536.19 9.36L536.55 9.56V13.92C537.19 11.64 538.91 9.32 541.43 9.32C543.39 9.32 544.59 10.76 544.59 12.24C544.59 13.48 543.75 14.64 542.31 14.64C540.83 14.64 540.47 13.4 540.11 12.56C539.87 11.96 539.67 11.68 539.15 11.68C537.91 11.68 536.79 13.48 536.55 15.44V25.96C536.55 28.72 538.11 29.48 540.19 29.48V30H529.43ZM546.026 30.48L545.346 22.04L545.866 21.92C546.786 24.68 548.906 29.68 553.386 29.72C555.946 29.72 557.466 28.2 557.506 26.28C557.506 24.32 556.226 23.16 553.026 22.04L550.626 21.08C547.426 19.88 545.506 18.08 545.546 15.04C545.626 11.76 548.706 9.32 552.626 9.36C556.346 9.4 557.986 11.76 558.786 9.12L559.346 9.08L559.866 16.92L559.306 17C558.506 14.24 556.026 10 552.546 9.96C550.306 9.92 548.906 11.44 548.906 13.24C548.906 15.04 550.266 16.28 553.106 17.28L555.466 18.24C559.106 19.6 560.866 21.36 560.786 24.2C560.706 28.2 557.146 30.4 553.586 30.36C549.426 30.28 547.626 27.96 546.626 30.44L546.026 30.48ZM566.101 6.28C564.421 6.28 563.301 5.08 563.301 3.36C563.301 1.76 564.421 0.599999 566.101 0.599999C567.821 0.599999 568.941 1.76 568.941 3.36C568.941 5.08 567.821 6.28 566.101 6.28ZM561.501 30V29.48C563.101 29.48 564.301 28.72 564.301 25.96V14.08C564.301 12.12 563.501 11.48 561.661 11.44V10.92C563.781 10.76 566.181 10.32 568.261 9.36L568.621 9.56V25.96C568.621 28.72 569.781 29.48 571.421 29.48V30H561.501ZM579.355 30.4C575.435 30.4 573.595 27.48 573.595 23.72V11.32H571.075V10.76C574.275 10.44 576.755 8.4 577.395 4.76H577.955V9.72H583.915L583.235 11.32H577.955V23.28C577.955 25.96 579.155 27.88 581.155 27.88C582.875 27.88 583.875 26.48 584.195 25L584.675 25.08C584.315 27.96 582.235 30.4 579.355 30.4ZM594.348 38.32C590.268 38.32 587.708 36 587.428 33.52C587.188 32.08 588.068 31.04 589.228 30.92C590.468 30.8 591.428 31.64 591.588 32.8C591.748 33.76 591.268 34.44 591.428 35.48C591.668 36.92 592.948 37.72 594.467 37.68C597.708 37.64 599.628 34.76 599.628 28.24V25.12C598.908 27.32 596.988 29.88 593.668 29.88C589.948 29.88 587.148 26.88 587.148 21.88V14.08C587.148 12.12 586.348 11.48 584.508 11.44V10.92C586.628 10.76 589.028 10.32 591.108 9.36L591.468 9.56V21.44C591.468 24.96 592.788 27.4 595.628 27.4C598.228 27.4 599.428 25.12 599.628 23.2V14.08C599.628 12.12 598.828 11.48 596.988 11.44V10.92C599.148 10.76 601.548 10.32 603.588 9.36L603.948 9.56V27.76C603.948 34.92 599.148 38.32 594.348 38.32ZM121.944 76.48L121.264 68.04L121.784 67.92C122.704 70.68 124.824 75.68 129.304 75.72C131.864 75.72 133.384 74.2 133.424 72.28C133.424 70.32 132.144 69.16 128.944 68.04L126.544 67.08C123.344 65.88 121.424 64.08 121.464 61.04C121.544 57.76 124.624 55.32 128.544 55.36C132.264 55.4 133.904 57.76 134.704 55.12L135.264 55.08L135.784 62.92L135.224 63C134.424 60.24 131.944 56 128.464 55.96C126.224 55.92 124.824 57.44 124.824 59.24C124.824 61.04 126.184 62.28 129.024 63.28L131.384 64.24C135.024 65.6 136.784 67.36 136.704 70.2C136.624 74.2 133.064 76.4 129.504 76.36C125.344 76.28 123.544 73.96 122.544 76.44L121.944 76.48ZM147.81 76.4C142.21 76.4 138.57 71.64 138.57 65.96C138.57 59.88 142.93 55.32 148.29 55.32C153.05 55.32 155.81 58.88 155.81 63H142.81C142.77 63.24 142.77 63.44 142.77 63.68C142.77 69.36 145.57 73.2 150.01 73.16C153.33 73.16 155.53 70.92 156.17 67.92L156.73 68C156.01 72.76 152.53 76.4 147.81 76.4ZM142.85 62.32H149.85C151.05 62.32 151.49 61.76 151.49 60.52C151.49 58.64 150.53 55.92 147.97 55.92C145.53 55.92 143.33 58.84 142.85 62.32ZM167.42 76.4C161.82 76.4 158.18 71.64 158.18 65.96C158.18 59.88 162.54 55.32 167.9 55.32C172.66 55.32 175.42 58.88 175.42 63H162.42C162.38 63.24 162.38 63.44 162.38 63.68C162.38 69.36 165.18 73.2 169.62 73.16C172.94 73.16 175.14 70.92 175.78 67.92L176.34 68C175.62 72.76 172.14 76.4 167.42 76.4ZM162.46 62.32H169.46C170.66 62.32 171.1 61.76 171.1 60.52C171.1 58.64 170.14 55.92 167.58 55.92C165.14 55.92 162.94 58.84 162.46 62.32ZM189.729 76V75.48C191.609 75.48 192.969 74.72 192.609 72L191.369 62.84C190.929 59.68 189.649 57.72 187.209 57.72C185.089 57.72 183.489 59.72 183.289 62.08V71.96C183.289 74.72 184.449 75.48 186.089 75.48V76H176.169V75.48C177.769 75.48 178.969 74.72 178.969 71.96V60.08C178.969 58.12 178.169 57.48 176.329 57.44V56.92C178.449 56.76 180.849 56.32 182.929 55.36L183.289 55.56V60.36C184.009 57.6 186.249 55.32 189.329 55.32C192.689 55.32 195.009 57.6 195.729 62.72L197.089 72C197.449 74.72 198.569 75.48 200.129 75.48V76H189.729ZM216.679 76.4C212.759 76.4 210.919 73.48 210.919 69.72V57.32H208.399V56.76C211.599 56.44 214.079 54.4 214.719 50.76H215.279V55.72H221.239L220.559 57.32H215.279V69.28C215.279 71.96 216.479 73.88 218.479 73.88C220.199 73.88 221.199 72.48 221.519 71L221.999 71.08C221.639 73.96 219.559 76.4 216.679 76.4ZM235.038 76V75.48C236.998 75.48 238.398 74.72 238.038 72L236.798 62.84C236.358 59.68 235.078 57.72 232.638 57.72C230.558 57.72 228.958 59.72 228.718 62.08V71.96C228.718 74.72 229.878 75.48 231.518 75.48V76H221.598V75.48C223.198 75.48 224.398 74.72 224.398 71.96V51.16C224.398 49.2 223.598 48.52 221.758 48.52V48C223.878 47.84 226.278 47.4 228.358 46.44L228.718 46.64V60.36C229.438 57.6 231.678 55.32 234.758 55.32C238.118 55.32 240.438 57.6 241.158 62.72L242.518 72C242.878 74.72 244.038 75.48 245.678 75.48V76H235.038ZM245.739 76V75.48C247.339 75.48 248.539 74.72 248.539 71.96V60.08C248.539 58.12 247.779 57.48 245.899 57.44V56.92C248.059 56.76 250.459 56.32 252.499 55.36L252.859 55.56V59.92C253.499 57.64 255.219 55.32 257.739 55.32C259.699 55.32 260.899 56.76 260.899 58.24C260.899 59.48 260.059 60.64 258.619 60.64C257.139 60.64 256.779 59.4 256.419 58.56C256.179 57.96 255.979 57.68 255.459 57.68C254.219 57.68 253.099 59.48 252.859 61.44V71.96C252.859 74.72 254.419 75.48 256.499 75.48V76H245.739ZM271.035 76.4C265.355 76.4 260.875 71.76 260.875 65.76C260.875 59.44 265.515 55.32 270.955 55.32C276.475 55.32 281.035 59.72 281.035 65.84C281.035 72.08 276.595 76.4 271.035 76.4ZM265.555 66.64C266.275 72.2 268.955 76.04 272.275 75.6C275.635 75.16 277.075 70.52 276.315 64.88C275.595 59.32 272.915 55.64 269.675 56.12C266.315 56.6 264.875 61.2 265.555 66.64ZM290.289 76.44C286.569 76.44 283.769 73.44 283.769 68.44V60.08C283.769 58.12 282.969 57.48 281.129 57.44V56.92C283.249 56.76 285.649 56.32 287.729 55.36L288.089 55.56V68C288.089 71.52 289.409 73.96 292.249 73.96C294.849 73.96 296.049 71.68 296.249 69.76V60.08C296.249 58.12 295.449 57.48 293.609 57.44V56.92C295.769 56.76 298.169 56.32 300.209 55.36L300.569 55.56V72.24C300.569 74.08 301.449 74.48 303.249 74.44V74.96C301.289 75.2 298.729 75.68 296.649 76.48L296.249 76.24V71.68C295.529 73.88 293.609 76.44 290.289 76.44ZM311.947 84.36C306.947 84.48 304.107 81.68 304.107 79.28C304.107 78 306.187 76.88 308.187 75.96C306.027 75.48 304.787 73.92 304.787 72.12C304.787 71.16 305.187 71.16 306.907 69.88L308.547 68.64C306.027 67.48 304.467 65.28 304.467 62.48C304.467 58.2 308.027 55.2 313.107 55.2C315.067 55.2 316.027 55.72 318.867 55.72H323.027L322.347 57.32L318.467 57.24C320.427 58.6 321.427 60.56 321.427 62.6C321.427 66.72 318.067 69.56 312.987 69.56C311.507 69.56 310.187 69.32 309.027 68.84C307.707 70 307.587 70.32 307.627 70.72C307.667 71.64 308.347 72.2 310.027 72.2H317.547C320.427 72.2 322.707 73 322.707 75.92C322.707 79.8 318.227 84.28 311.947 84.36ZM307.627 78.52C307.867 80.44 310.187 82.2 313.987 82.2C318.507 82.2 321.227 79.88 321.227 77.96C321.227 76.8 320.347 76.08 318.427 76.08H309.547H309.067C308.347 76.68 307.547 77.4 307.627 78.52ZM308.587 62.44C308.827 66.32 310.827 68.96 313.627 68.88C316.187 68.8 317.547 65.76 317.307 62.36C317.067 58.76 315.067 55.76 312.387 55.88C309.707 55.96 308.387 59.4 308.587 62.44ZM337.148 76V75.48C339.108 75.48 340.508 74.72 340.148 72L338.908 62.84C338.468 59.68 337.188 57.72 334.748 57.72C332.668 57.72 331.068 59.72 330.828 62.08V71.96C330.828 74.72 331.988 75.48 333.628 75.48V76H323.708V75.48C325.308 75.48 326.508 74.72 326.508 71.96V51.16C326.508 49.2 325.708 48.52 323.868 48.52V48C325.988 47.84 328.388 47.4 330.468 46.44L330.828 46.64V60.36C331.548 57.6 333.788 55.32 336.868 55.32C340.228 55.32 342.548 57.6 343.268 62.72L344.628 72C344.988 74.72 346.148 75.48 347.788 75.48V76H337.148ZM364.335 76.4C360.415 76.4 358.575 73.48 358.575 69.72V57.32H356.055V56.76C359.255 56.44 361.735 54.4 362.375 50.76H362.935V55.72H368.895L368.215 57.32H362.935V69.28C362.935 71.96 364.135 73.88 366.135 73.88C367.855 73.88 368.855 72.48 369.175 71L369.655 71.08C369.295 73.96 367.215 76.4 364.335 76.4ZM382.695 76V75.48C384.655 75.48 386.055 74.72 385.695 72L384.455 62.84C384.015 59.68 382.735 57.72 380.295 57.72C378.215 57.72 376.615 59.72 376.375 62.08V71.96C376.375 74.72 377.535 75.48 379.175 75.48V76H369.255V75.48C370.855 75.48 372.055 74.72 372.055 71.96V51.16C372.055 49.2 371.255 48.52 369.415 48.52V48C371.535 47.84 373.935 47.4 376.015 46.44L376.375 46.64V60.36C377.095 57.6 379.335 55.32 382.415 55.32C385.775 55.32 388.095 57.6 388.815 62.72L390.175 72C390.535 74.72 391.695 75.48 393.335 75.48V76H382.695ZM402.029 76.4C396.429 76.4 392.789 71.64 392.789 65.96C392.789 59.88 397.149 55.32 402.509 55.32C407.269 55.32 410.029 58.88 410.029 63H397.029C396.989 63.24 396.989 63.44 396.989 63.68C396.989 69.36 399.789 73.2 404.229 73.16C407.549 73.16 409.749 70.92 410.389 67.92L410.949 68C410.229 72.76 406.749 76.4 402.029 76.4ZM397.069 62.32H404.069C405.269 62.32 405.709 61.76 405.709 60.52C405.709 58.64 404.749 55.92 402.189 55.92C399.749 55.92 397.549 58.84 397.069 62.32ZM442.161 76.4C439.281 76.4 437.321 75 436.121 72.16C434.921 74.52 433.001 76.4 430.321 76.4C426.521 76.4 424.281 73.76 423.401 68.28L421.961 59.72C421.521 57 420.361 56.24 418.721 56.24V55.72H428.401V56.24C426.921 56.24 425.841 57 426.281 59.72L427.441 67.08C428.121 71.12 429.361 73.48 432.281 73.48C433.801 73.48 434.961 72.76 435.921 71.6C435.561 70.64 435.281 69.52 435.081 68.28L433.641 59.72C433.201 57 432.081 56.24 430.561 56.24V55.72H440.081V56.24C438.641 56.24 437.521 57 437.961 59.72L439.161 67.08C439.801 71.2 441.121 73.48 443.961 73.48C447.401 73.48 450.521 69.76 450.521 65.08C450.521 60.84 448.361 58.08 445.001 59.36C443.601 59.88 442.161 59.12 442.121 57.68C442.041 56.44 442.801 55.36 444.481 55.36C447.721 55.36 451.241 58.12 451.241 64.24C451.241 70.96 446.961 76.4 442.161 76.4ZM462.693 76.4C457.093 76.4 453.453 71.64 453.453 65.96C453.453 59.88 457.813 55.32 463.173 55.32C467.933 55.32 470.693 58.88 470.693 63H457.693C457.653 63.24 457.653 63.44 457.653 63.68C457.653 69.36 460.453 73.2 464.893 73.16C468.213 73.16 470.413 70.92 471.053 67.92L471.613 68C470.893 72.76 467.413 76.4 462.693 76.4ZM457.733 62.32H464.733C465.933 62.32 466.373 61.76 466.373 60.52C466.373 58.64 465.413 55.92 462.853 55.92C460.413 55.92 458.213 58.84 457.733 62.32ZM482.601 76.4C479.201 76.4 476.161 75.2 473.961 73.76V51.16C473.961 49.2 473.161 48.52 471.321 48.52V48C473.481 47.84 475.881 47.4 477.921 46.44L478.281 46.64V60.2C478.961 57.92 481.281 55.4 484.601 55.4C489.481 55.4 492.641 60.32 492.641 65.68C492.641 72 488.281 76.4 482.601 76.4ZM478.281 67.48C478.281 73.28 479.881 75.8 482.841 75.8C486.121 75.8 488.161 72.16 488.161 67.04C488.161 61.08 485.721 57.68 482.481 57.68C480.441 57.68 478.761 59.32 478.281 61.56V67.48Z" fill="black"/>
</svg>
