<svg viewBox="0 0 136 57" fill="none" xmlns="http://www.w3.org/2000/svg">
<path d="M49.8668 5.96164H41.9141V7.25705H49.8668V5.96164Z" fill="black"/>
<path d="M15.598 14.3827V0H20.2642V2.07199H17.8233V6.00372H19.4438V7.96791H17.8233V12.2433H20.2642V14.3827H15.598Z" fill="black"/>
<path d="M34.091 14.3827L31.6484 7.10542L30.9577 4.79253V14.381H29.4922V0H30.8954L33.119 7.38337L33.7676 9.71815V0H35.2382V14.3827H34.091Z" fill="black"/>
<path d="M16.6998 35.9011V21.5201H18.9234V35.9011H16.6998Z" fill="black"/>
<path d="M4.80351 56.7844L4.56598 56.0281C4.26277 56.6749 3.6378 57.0001 2.98925 57.0001C1.47653 57.0001 0.506226 55.8967 0.506226 54.17V45.0145C0.506226 43.4614 1.69552 42.1862 3.29247 42.1862C4.8911 42.1862 5.99111 43.4614 5.99111 45.0145V47.6727H3.9208V44.9286C3.9208 44.5833 3.72539 44.3457 3.33795 44.3457C2.96903 44.3457 2.73151 44.5833 2.73151 44.9286V54.3637C2.73151 54.7327 2.96903 54.9921 3.33795 54.9921C3.72539 54.9921 3.94102 54.7327 3.94102 54.3637V51.4293H3.38006V49.7009H6.10061V56.7844H4.80351Z" fill="black"/>
<path d="M18.7804 56.7844L17.1632 50.2854L16.6663 48.3212V56.7861H14.7644V42.4051H16.8802L18.307 48.8603L18.7382 50.8699V42.4051H20.6199V56.7861L18.7804 56.7844Z" fill="black"/>
<path d="M33.1629 22.9789V35.891H31.6317V22.9789H29.7096V21.51H35.021V22.9789H33.1629Z" fill="black"/>
<path d="M46.6156 30.214V35.8926H45.0608V30.214L42.8389 21.5117H44.3937L45.9266 28.206L47.4596 21.5117H48.9487L46.6156 30.214Z" fill="black"/>
<path d="M36.34 48.4459H28.3872V50.1371H36.34V48.4459Z" fill="black"/>
<path d="M33.2084 45.316H31.5188V53.267H33.2084V45.316Z" fill="black"/>
<path d="M2.29856 14.4029H0.630859V0.00170898H2.29856C6.21682 0.0219235 6.51161 1.56834 6.51161 7.21157C6.51161 12.8329 6.21682 14.3827 2.29856 14.4029ZM2.75002 12.2854C4.23916 12.2854 4.33518 11.9131 4.31833 7.19135C4.33686 2.4881 4.23916 2.1175 2.75002 2.1175V12.2854Z" fill="black"/>
<path d="M4.16845 27.9348C3.26048 26.3362 2.76523 25.7516 2.76523 24.0907C2.76523 23.5921 3.06508 23.3562 3.43399 23.3562C3.77932 23.3562 4.03874 23.6156 4.03874 24.0907V25.1823L5.96081 25.002V24.3063C5.96081 22.4061 4.94671 21.3044 3.43399 21.3044C1.49003 21.3044 0.563525 22.7532 0.563525 24.5438C0.563525 26.2065 1.70733 28.1942 2.54792 29.5318C3.39019 30.9788 3.90735 31.9929 3.90735 33.2883C3.90735 33.8274 3.66983 34.1525 3.19479 34.1525C2.69785 34.1525 2.46032 33.8071 2.46032 33.2883V32.126L0.516357 32.3113V33.1165C0.516357 35.0386 1.57425 36.1183 3.3026 36.1183C4.70582 36.1183 6.06525 35.1885 6.06525 32.943C6.06694 31.2584 5.11854 29.552 4.16845 27.9348Z" fill="black"/>
</svg>
