{
	"asset":{
		"generator":"Khronos glTF Blender I/O v4.0.44",
		"version":"2.0"
	},
	"extensionsUsed":[
		"KHR_materials_unlit",
		"KHR_materials_emissive_strength"
	],
	"scene":0,
	"scenes":[
		{
			"name":"Scene",
			"nodes":[
				10
			]
		}
	],
	"nodes":[
		{
			"mesh":0,
			"name":"falck",
			"translation":[
				-2.289128678967245e-05,
				0,
				0
			]
		},
		{
			"mesh":1,
			"name":"forestami"
		},
		{
			"mesh":2,
			"name":"goccia"
		},
		{
			"mesh":3,
			"name":"highgrass"
		},
		{
			"mesh":4,
			"name":"largewall"
		},
		{
			"mesh":5,
			"name":"olympics",
			"translation":[
				-0.0006090204697102308,
				0,
				0
			]
		},
		{
			"mesh":6,
			"name":"pacini",
			"translation":[
				0,
				-0.001077251392416656,
				0
			]
		},
		{
			"mesh":7,
			"name":"piazza"
		},
		{
			"mesh":8,
			"name":"smallwall"
		},
		{
			"mesh":9,
			"name":"wisteria"
		},
		{
			"children":[
				0,
				1,
				2,
				3,
				4,
				5,
				6,
				7,
				8,
				9
			],
			"name":"FloorPlanSchema22DEC.glb"
		}
	],
	"materials":[
		{
			"extensions":{
				"KHR_materials_unlit":{}
			},
			"name":"Material_10",
			"pbrMetallicRoughness":{
				"baseColorFactor":[
					1,
					0.8713670969009399,
					0,
					1
				],
				"metallicFactor":0,
				"roughnessFactor":0.9
			}
		},
		{
			"extensions":{
				"KHR_materials_unlit":{}
			},
			"name":"Material_6",
			"pbrMetallicRoughness":{
				"baseColorFactor":[
					1,
					0.8713670969009399,
					0,
					1
				],
				"metallicFactor":0,
				"roughnessFactor":0.9
			}
		},
		{
			"extensions":{
				"KHR_materials_unlit":{}
			},
			"name":"Material_2",
			"pbrMetallicRoughness":{
				"baseColorFactor":[
					1,
					0.8713670969009399,
					0,
					1
				],
				"metallicFactor":0,
				"roughnessFactor":0.9
			}
		},
		{
			"extensions":{
				"KHR_materials_unlit":{}
			},
			"name":"Material_3",
			"pbrMetallicRoughness":{
				"baseColorFactor":[
					1,
					0.8713670969009399,
					0,
					1
				],
				"metallicFactor":0,
				"roughnessFactor":0.9
			}
		},
		{
			"extensions":{
				"KHR_materials_unlit":{}
			},
			"name":"Material_4",
			"pbrMetallicRoughness":{
				"baseColorFactor":[
					1,
					0.8713670969009399,
					0,
					1
				],
				"metallicFactor":0,
				"roughnessFactor":0.9
			}
		},
		{
			"doubleSided":true,
			"emissiveFactor":[
				1,
				1,
				1
			],
			"extensions":{
				"KHR_materials_emissive_strength":{
					"emissiveStrength":4
				}
			},
			"name":"WIREFRAME",
			"pbrMetallicRoughness":{
				"baseColorFactor":[
					0,
					0,
					0,
					1
				]
			}
		},
		{
			"extensions":{
				"KHR_materials_unlit":{}
			},
			"name":"Material_9",
			"pbrMetallicRoughness":{
				"baseColorFactor":[
					1,
					0.8713670969009399,
					0,
					1
				],
				"metallicFactor":0,
				"roughnessFactor":0.9
			}
		},
		{
			"extensions":{
				"KHR_materials_unlit":{}
			},
			"name":"Material_8",
			"pbrMetallicRoughness":{
				"baseColorFactor":[
					1,
					0.8713670969009399,
					0,
					1
				],
				"metallicFactor":0,
				"roughnessFactor":0.9
			}
		},
		{
			"extensions":{
				"KHR_materials_unlit":{}
			},
			"name":"Material_7",
			"pbrMetallicRoughness":{
				"baseColorFactor":[
					1,
					0.8713670969009399,
					0,
					1
				],
				"metallicFactor":0,
				"roughnessFactor":0.9
			}
		},
		{
			"extensions":{
				"KHR_materials_unlit":{}
			},
			"name":"Material_5",
			"pbrMetallicRoughness":{
				"baseColorFactor":[
					1,
					0.8713670969009399,
					0,
					1
				],
				"metallicFactor":0,
				"roughnessFactor":0.9
			}
		}
	],
	"meshes":[
		{
			"name":"Mesh_10",
			"primitives":[
				{
					"attributes":{
						"POSITION":0,
						"NORMAL":1,
						"TEXCOORD_0":2
					},
					"indices":3,
					"material":0
				}
			]
		},
		{
			"name":"Mesh_6",
			"primitives":[
				{
					"attributes":{
						"POSITION":4,
						"NORMAL":5,
						"TEXCOORD_0":6
					},
					"indices":7,
					"material":1
				}
			]
		},
		{
			"name":"Mesh_2",
			"primitives":[
				{
					"attributes":{
						"POSITION":8,
						"NORMAL":9,
						"TEXCOORD_0":10
					},
					"indices":11,
					"material":2
				}
			]
		},
		{
			"name":"Mesh_3",
			"primitives":[
				{
					"attributes":{
						"POSITION":12,
						"NORMAL":13,
						"TEXCOORD_0":14
					},
					"indices":15,
					"material":3
				},
				{
					"attributes":{
						"POSITION":16,
						"NORMAL":17,
						"TEXCOORD_0":18
					},
					"indices":7,
					"material":4
				}
			]
		},
		{
			"name":"Mesh_0",
			"primitives":[
				{
					"attributes":{
						"POSITION":19,
						"NORMAL":20,
						"TEXCOORD_0":21
					},
					"indices":22,
					"material":5
				}
			]
		},
		{
			"name":"Mesh_9",
			"primitives":[
				{
					"attributes":{
						"POSITION":23,
						"NORMAL":24,
						"TEXCOORD_0":25
					},
					"indices":26,
					"material":6
				}
			]
		},
		{
			"name":"Mesh_8",
			"primitives":[
				{
					"attributes":{
						"POSITION":27,
						"NORMAL":28,
						"TEXCOORD_0":29
					},
					"indices":30,
					"material":7
				}
			]
		},
		{
			"name":"Mesh_7",
			"primitives":[
				{
					"attributes":{
						"POSITION":31,
						"NORMAL":32,
						"TEXCOORD_0":33
					},
					"indices":30,
					"material":8
				}
			]
		},
		{
			"name":"Mesh_1",
			"primitives":[
				{
					"attributes":{
						"POSITION":34,
						"NORMAL":35,
						"TEXCOORD_0":36
					},
					"indices":37,
					"material":5
				}
			]
		},
		{
			"name":"Mesh_5",
			"primitives":[
				{
					"attributes":{
						"POSITION":38,
						"NORMAL":39,
						"TEXCOORD_0":40
					},
					"indices":7,
					"material":9
				}
			]
		}
	],
	"accessors":[
		{
			"bufferView":0,
			"componentType":5126,
			"count":24,
			"max":[
				-0.16883061826229095,
				0.06000000238418579,
				-0.1201041042804718
			],
			"min":[
				-0.3506482243537903,
				0,
				-0.18069717288017273
			],
			"type":"VEC3"
		},
		{
			"bufferView":1,
			"componentType":5126,
			"count":24,
			"type":"VEC3"
		},
		{
			"bufferView":2,
			"componentType":5126,
			"count":24,
			"type":"VEC2"
		},
		{
			"bufferView":3,
			"componentType":5123,
			"count":36,
			"type":"SCALAR"
		},
		{
			"bufferView":4,
			"componentType":5126,
			"count":24,
			"max":[
				-0.42640557885169983,
				0.17530673742294312,
				0.0010820244206115603
			],
			"min":[
				-0.45670852065086365,
				0.07260674238204956,
				-0.18069717288017273
			],
			"type":"VEC3"
		},
		{
			"bufferView":5,
			"componentType":5126,
			"count":24,
			"type":"VEC3"
		},
		{
			"bufferView":6,
			"componentType":5126,
			"count":24,
			"type":"VEC2"
		},
		{
			"bufferView":7,
			"componentType":5123,
			"count":36,
			"type":"SCALAR"
		},
		{
			"bufferView":8,
			"componentType":5126,
			"count":24,
			"max":[
				0.3463192284107208,
				0.05999999865889549,
				0.27375081181526184
			],
			"min":[
				0.25541043281555176,
				0,
				0.15256468951702118
			],
			"type":"VEC3"
		},
		{
			"bufferView":9,
			"componentType":5126,
			"count":24,
			"type":"VEC3"
		},
		{
			"bufferView":10,
			"componentType":5126,
			"count":24,
			"type":"VEC2"
		},
		{
			"bufferView":11,
			"componentType":5123,
			"count":36,
			"type":"SCALAR"
		},
		{
			"bufferView":12,
			"componentType":5126,
			"count":24,
			"max":[
				0.42207658290863037,
				0.17530673742294312,
				0.001082023256458342
			],
			"min":[
				0.39177361130714417,
				0.07260674238204956,
				-0.1806969791650772
			],
			"type":"VEC3"
		},
		{
			"bufferView":13,
			"componentType":5126,
			"count":24,
			"type":"VEC3"
		},
		{
			"bufferView":14,
			"componentType":5126,
			"count":24,
			"type":"VEC2"
		},
		{
			"bufferView":15,
			"componentType":5123,
			"count":36,
			"type":"SCALAR"
		},
		{
			"bufferView":16,
			"componentType":5126,
			"count":24,
			"max":[
				0.058441367000341415,
				0.17530673742294312,
				0.0010820244206115603
			],
			"min":[
				0.028138436377048492,
				0.07260674238204956,
				-0.18069717288017273
			],
			"type":"VEC3"
		},
		{
			"bufferView":17,
			"componentType":5126,
			"count":24,
			"type":"VEC3"
		},
		{
			"bufferView":18,
			"componentType":5126,
			"count":24,
			"type":"VEC2"
		},
		{
			"bufferView":19,
			"componentType":5126,
			"count":84,
			"max":[
				0.48268240690231323,
				0.22499996423721313,
				0.36464041471481323
			],
			"min":[
				-0.5173143744468689,
				0,
				-0.24129024147987366
			],
			"type":"VEC3"
		},
		{
			"bufferView":20,
			"componentType":5126,
			"count":84,
			"type":"VEC3"
		},
		{
			"bufferView":21,
			"componentType":5126,
			"count":84,
			"type":"VEC2"
		},
		{
			"bufferView":22,
			"componentType":5123,
			"count":156,
			"type":"SCALAR"
		},
		{
			"bufferView":23,
			"componentType":5126,
			"count":24,
			"max":[
				-0.21428503096103668,
				0.06000000238418579,
				0.0010820244206115603
			],
			"min":[
				-0.30519381165504456,
				0,
				-0.05951103940606117
			],
			"type":"VEC3"
		},
		{
			"bufferView":24,
			"componentType":5126,
			"count":24,
			"type":"VEC3"
		},
		{
			"bufferView":25,
			"componentType":5126,
			"count":24,
			"type":"VEC2"
		},
		{
			"bufferView":26,
			"componentType":5123,
			"count":36,
			"type":"SCALAR"
		},
		{
			"bufferView":27,
			"componentType":5126,
			"count":24,
			"max":[
				0.22510749101638794,
				0.06000000238418579,
				-0.05951103940606117
			],
			"min":[
				0.10389576107263565,
				0,
				-0.15040063858032227
			],
			"type":"VEC3"
		},
		{
			"bufferView":28,
			"componentType":5126,
			"count":24,
			"type":"VEC3"
		},
		{
			"bufferView":29,
			"componentType":5126,
			"count":24,
			"type":"VEC2"
		},
		{
			"bufferView":30,
			"componentType":5123,
			"count":36,
			"type":"SCALAR"
		},
		{
			"bufferView":31,
			"componentType":5126,
			"count":24,
			"max":[
				0.3463192284107208,
				0.06000000238418579,
				0.09197162091732025
			],
			"min":[
				0.25541043281555176,
				0,
				-0.029214508831501007
			],
			"type":"VEC3"
		},
		{
			"bufferView":32,
			"componentType":5126,
			"count":24,
			"type":"VEC3"
		},
		{
			"bufferView":33,
			"componentType":5126,
			"count":24,
			"type":"VEC2"
		},
		{
			"bufferView":34,
			"componentType":5126,
			"count":36,
			"max":[
				0.058441367000341415,
				0.22499996423721313,
				0.36464041471481323
			],
			"min":[
				-0.5173143744468689,
				0,
				0.15256468951702118
			],
			"type":"VEC3"
		},
		{
			"bufferView":35,
			"componentType":5126,
			"count":36,
			"type":"VEC3"
		},
		{
			"bufferView":36,
			"componentType":5126,
			"count":36,
			"type":"VEC2"
		},
		{
			"bufferView":37,
			"componentType":5123,
			"count":60,
			"type":"SCALAR"
		},
		{
			"bufferView":38,
			"componentType":5126,
			"count":24,
			"max":[
				-0.06277036666870117,
				0.17530673742294312,
				0.0010820244206115603
			],
			"min":[
				-0.0930732861161232,
				0.07260674238204956,
				-0.18069717288017273
			],
			"type":"VEC3"
		},
		{
			"bufferView":39,
			"componentType":5126,
			"count":24,
			"type":"VEC3"
		},
		{
			"bufferView":40,
			"componentType":5126,
			"count":24,
			"type":"VEC2"
		}
	],
	"bufferViews":[
		{
			"buffer":0,
			"byteLength":288,
			"byteOffset":0,
			"target":34962
		},
		{
			"buffer":0,
			"byteLength":288,
			"byteOffset":288,
			"target":34962
		},
		{
			"buffer":0,
			"byteLength":192,
			"byteOffset":576,
			"target":34962
		},
		{
			"buffer":0,
			"byteLength":72,
			"byteOffset":768,
			"target":34963
		},
		{
			"buffer":0,
			"byteLength":288,
			"byteOffset":840,
			"target":34962
		},
		{
			"buffer":0,
			"byteLength":288,
			"byteOffset":1128,
			"target":34962
		},
		{
			"buffer":0,
			"byteLength":192,
			"byteOffset":1416,
			"target":34962
		},
		{
			"buffer":0,
			"byteLength":72,
			"byteOffset":1608,
			"target":34963
		},
		{
			"buffer":0,
			"byteLength":288,
			"byteOffset":1680,
			"target":34962
		},
		{
			"buffer":0,
			"byteLength":288,
			"byteOffset":1968,
			"target":34962
		},
		{
			"buffer":0,
			"byteLength":192,
			"byteOffset":2256,
			"target":34962
		},
		{
			"buffer":0,
			"byteLength":72,
			"byteOffset":2448,
			"target":34963
		},
		{
			"buffer":0,
			"byteLength":288,
			"byteOffset":2520,
			"target":34962
		},
		{
			"buffer":0,
			"byteLength":288,
			"byteOffset":2808,
			"target":34962
		},
		{
			"buffer":0,
			"byteLength":192,
			"byteOffset":3096,
			"target":34962
		},
		{
			"buffer":0,
			"byteLength":72,
			"byteOffset":3288,
			"target":34963
		},
		{
			"buffer":0,
			"byteLength":288,
			"byteOffset":3360,
			"target":34962
		},
		{
			"buffer":0,
			"byteLength":288,
			"byteOffset":3648,
			"target":34962
		},
		{
			"buffer":0,
			"byteLength":192,
			"byteOffset":3936,
			"target":34962
		},
		{
			"buffer":0,
			"byteLength":1008,
			"byteOffset":4128,
			"target":34962
		},
		{
			"buffer":0,
			"byteLength":1008,
			"byteOffset":5136,
			"target":34962
		},
		{
			"buffer":0,
			"byteLength":672,
			"byteOffset":6144,
			"target":34962
		},
		{
			"buffer":0,
			"byteLength":312,
			"byteOffset":6816,
			"target":34963
		},
		{
			"buffer":0,
			"byteLength":288,
			"byteOffset":7128,
			"target":34962
		},
		{
			"buffer":0,
			"byteLength":288,
			"byteOffset":7416,
			"target":34962
		},
		{
			"buffer":0,
			"byteLength":192,
			"byteOffset":7704,
			"target":34962
		},
		{
			"buffer":0,
			"byteLength":72,
			"byteOffset":7896,
			"target":34963
		},
		{
			"buffer":0,
			"byteLength":288,
			"byteOffset":7968,
			"target":34962
		},
		{
			"buffer":0,
			"byteLength":288,
			"byteOffset":8256,
			"target":34962
		},
		{
			"buffer":0,
			"byteLength":192,
			"byteOffset":8544,
			"target":34962
		},
		{
			"buffer":0,
			"byteLength":72,
			"byteOffset":8736,
			"target":34963
		},
		{
			"buffer":0,
			"byteLength":288,
			"byteOffset":8808,
			"target":34962
		},
		{
			"buffer":0,
			"byteLength":288,
			"byteOffset":9096,
			"target":34962
		},
		{
			"buffer":0,
			"byteLength":192,
			"byteOffset":9384,
			"target":34962
		},
		{
			"buffer":0,
			"byteLength":432,
			"byteOffset":9576,
			"target":34962
		},
		{
			"buffer":0,
			"byteLength":432,
			"byteOffset":10008,
			"target":34962
		},
		{
			"buffer":0,
			"byteLength":288,
			"byteOffset":10440,
			"target":34962
		},
		{
			"buffer":0,
			"byteLength":120,
			"byteOffset":10728,
			"target":34963
		},
		{
			"buffer":0,
			"byteLength":288,
			"byteOffset":10848,
			"target":34962
		},
		{
			"buffer":0,
			"byteLength":288,
			"byteOffset":11136,
			"target":34962
		},
		{
			"buffer":0,
			"byteLength":192,
			"byteOffset":11424,
			"target":34962
		}
	],
	"buffers":[
		{
			"byteLength":11616,
			"uri":"agc.bin"
		}
	]
}
