<svg width="679" height="230" viewBox="0 0 679 230" fill="none" xmlns="http://www.w3.org/2000/svg">
<path d="M36.252 79.752C38.844 79.752 41.34 78.792 43.644 76.68C45.948 74.664 47.868 71.4 49.5 66.984L62.172 32.04C63.324 28.776 63.9 26.184 63.9 24.168C63.9 20.04 61.596 17.928 56.988 17.928V16.584C59.292 16.584 61.788 16.2 64.284 15.432C66.78 14.664 69.18 13.512 71.292 12.072L72.54 12.552L94.14 71.688C95.196 74.76 96.444 76.872 97.98 78.024C99.42 79.176 101.244 79.752 103.356 79.752V81H77.628V79.752C81.372 79.752 83.292 78.312 83.292 75.432C83.292 74.28 83.004 73.032 82.524 71.688L78.492 60.264H54.3L51.9 66.984C51.132 69.192 50.748 71.112 50.748 72.744C50.748 75.144 51.42 76.872 52.956 78.024C54.396 79.176 56.412 79.752 59.004 79.752V81H36.252V79.752ZM77.916 58.632L66.492 26.376L54.876 58.632H77.916ZM99.5715 98.952C101.684 98.952 103.316 98.376 104.468 97.032C105.62 95.784 106.292 93.576 106.292 90.504V42.792C106.292 40.488 105.716 38.952 104.756 37.992C103.796 37.032 102.164 36.552 99.9555 36.456V35.208C106.1 34.824 111.38 33.576 115.796 31.464L116.66 31.944V41.928C117.524 39.432 119.348 37.032 122.132 34.824C124.916 32.712 128.276 31.56 132.116 31.56C135.764 31.56 139.124 32.712 142.1 34.824C145.076 37.032 147.38 40.008 149.108 43.752C150.836 47.592 151.7 51.72 151.7 56.328C151.7 61.032 150.644 65.352 148.724 69.288C146.708 73.224 144.02 76.296 140.564 78.6C137.108 80.904 133.268 81.96 129.236 81.96C124.148 81.96 119.924 80.136 116.66 76.296V90.504C116.66 93.672 117.332 95.88 118.772 97.128C120.116 98.376 122.132 98.952 124.724 98.952V100.2H99.5715V98.952ZM119.828 74.856C121.94 78.408 124.82 80.136 128.468 80.136C130.772 80.136 132.884 79.368 134.804 77.64C136.724 75.912 138.164 73.512 139.22 70.44C140.276 67.368 140.852 63.912 140.852 59.88C140.852 55.08 140.18 50.952 138.932 47.496C137.684 44.04 135.956 41.448 133.844 39.624C131.732 37.896 129.332 36.936 126.74 36.936C124.244 36.936 122.228 37.704 120.5 39.24C118.772 40.776 117.428 42.696 116.66 45V61.608C116.66 66.984 117.716 71.4 119.828 74.856ZM158.321 22.152C157.073 20.808 156.497 19.176 156.497 17.064C156.497 15.144 157.073 13.608 158.321 12.36C159.569 11.112 161.201 10.44 163.217 10.44C165.233 10.44 166.865 11.112 168.113 12.36C169.361 13.608 170.033 15.144 170.033 17.064C170.033 19.176 169.361 20.808 168.113 22.152C166.865 23.496 165.233 24.072 163.217 24.072C161.201 24.072 159.569 23.496 158.321 22.152ZM152.177 79.752C154.289 79.752 155.921 79.176 157.073 77.832C158.225 76.584 158.897 74.376 158.897 71.304V42.792C158.897 40.488 158.321 38.952 157.361 37.992C156.401 37.032 154.769 36.552 152.561 36.456V35.208C158.705 34.824 163.984 33.576 168.401 31.464L169.265 31.944V71.304C169.265 74.472 169.841 76.68 170.993 77.928C172.145 79.176 173.777 79.752 175.984 79.752V81H152.177V79.752ZM186.591 89.16C188.127 87.432 188.991 85.704 188.991 83.976C188.991 83.016 188.703 82.344 188.223 81.864C187.647 81.384 186.879 80.808 185.823 80.232C184.383 79.56 183.327 78.792 182.655 78.024C181.887 77.256 181.599 76.008 181.599 74.28C181.599 72.552 182.175 71.112 183.423 69.96C184.575 68.808 186.015 68.136 187.743 68.136C189.855 68.136 191.487 69 192.831 70.728C194.079 72.456 194.751 74.568 194.751 77.064C194.751 81.288 193.311 84.84 190.623 87.912C187.935 90.984 184.767 93.192 181.311 94.344L180.831 93.096C183.039 92.232 184.959 90.888 186.591 89.16ZM236.727 77.64C231.351 74.664 227.127 70.536 224.055 65.256C220.983 60.072 219.543 54.12 219.543 47.496C219.543 41.16 220.983 35.4 223.959 30.024C226.839 24.744 230.967 20.52 236.343 17.352C241.623 14.28 247.767 12.648 254.679 12.648C257.463 12.648 259.959 12.936 262.263 13.512C264.567 14.088 266.391 14.568 267.735 15.048C269.079 15.528 270.039 15.816 270.423 15.912C271.863 16.392 272.919 16.584 273.495 16.584C274.455 16.584 275.319 16.296 276.087 15.528C276.855 14.856 277.335 13.896 277.527 12.648L278.871 12.552L280.695 38.376L279.447 38.568C278.487 34.248 276.663 30.216 274.167 26.472C271.575 22.824 268.599 19.848 265.143 17.64C261.687 15.432 258.135 14.28 254.583 14.28C250.263 14.28 246.327 15.624 242.871 18.216C239.319 20.904 236.535 24.552 234.423 29.16C232.311 33.864 231.351 39.144 231.351 45C231.351 51.144 232.407 56.904 234.519 62.28C236.631 67.752 239.511 72.168 243.351 75.432C247.095 78.792 251.415 80.424 256.311 80.424C260.151 80.424 263.607 79.176 266.487 76.68C269.367 74.184 270.807 70.248 270.807 64.968V60.84C270.807 57.768 269.943 55.56 268.407 54.216C266.775 52.968 264.471 52.296 261.495 52.296V51.048L286.071 51.144V52.392C284.535 52.392 283.287 53.064 282.519 54.312C281.751 55.56 281.367 57.768 281.367 60.84V70.344C281.367 70.824 281.271 71.208 281.079 71.4C280.887 71.688 280.599 72.072 280.023 72.648C276.951 75.528 273.399 77.832 269.175 79.56C264.951 81.288 260.343 82.056 255.159 82.056C248.247 82.056 242.103 80.616 236.727 77.64ZM286.239 79.752C288.351 79.752 289.983 79.176 291.135 77.832C292.287 76.584 292.959 74.376 292.959 71.304L293.247 21.384C293.247 19.08 292.671 17.448 291.711 16.488C290.751 15.528 289.119 15.048 286.911 15.048V13.8C293.055 13.416 298.335 12.168 302.751 10.056L303.615 10.536V71.304C303.615 74.376 304.191 76.584 305.343 77.832C306.495 79.176 308.223 79.752 310.335 79.752V81H286.239V79.752ZM317.508 22.152C316.26 20.808 315.684 19.176 315.684 17.064C315.684 15.144 316.26 13.608 317.508 12.36C318.756 11.112 320.388 10.44 322.404 10.44C324.42 10.44 326.052 11.112 327.3 12.36C328.548 13.608 329.22 15.144 329.22 17.064C329.22 19.176 328.548 20.808 327.3 22.152C326.052 23.496 324.42 24.072 322.404 24.072C320.388 24.072 318.756 23.496 317.508 22.152ZM311.364 79.752C313.476 79.752 315.108 79.176 316.26 77.832C317.412 76.584 318.084 74.376 318.084 71.304V42.792C318.084 40.488 317.508 38.952 316.548 37.992C315.588 37.032 313.956 36.552 311.748 36.456V35.208C317.892 34.824 323.172 33.576 327.588 31.464L328.452 31.944V71.304C328.452 74.472 329.028 76.68 330.18 77.928C331.332 79.176 332.964 79.752 335.172 79.752V81H311.364V79.752ZM346.829 78.792C343.373 76.68 340.589 73.704 338.573 69.96C336.557 66.216 335.597 61.992 335.597 57.288C335.597 52.584 336.653 48.264 338.861 44.232C340.973 40.296 343.949 37.128 347.693 34.824C351.341 32.52 355.373 31.368 359.789 31.368C363.053 31.368 365.933 32.04 368.525 33.384C371.021 34.728 373.037 36.552 374.477 38.664C375.917 40.776 376.685 43.08 376.685 45.384C376.685 47.304 376.109 48.84 375.053 49.896C373.997 51.048 372.749 51.528 371.213 51.528C369.677 51.528 368.525 51.048 367.661 50.088C366.701 49.128 366.317 47.976 366.317 46.44C366.317 45.672 366.605 44.52 367.181 43.08C367.757 41.832 368.045 40.68 368.045 39.72C368.045 37.896 367.277 36.264 365.741 34.92C364.205 33.576 362.381 32.904 360.077 32.904C357.293 32.904 354.797 33.864 352.493 35.592C350.189 37.32 348.365 39.816 347.021 42.888C345.677 46.056 345.005 49.512 345.005 53.352C345.005 57.576 345.773 61.224 347.501 64.296C349.133 67.464 351.341 69.864 354.029 71.592C356.717 73.32 359.693 74.088 362.957 74.088C366.797 74.088 370.157 72.936 372.941 70.632C375.725 68.328 377.453 65.256 378.221 61.608L379.469 61.8C378.509 67.752 376.205 72.552 372.461 76.296C368.717 80.136 364.013 81.96 358.253 81.96C354.029 81.96 350.285 80.904 346.829 78.792ZM385.102 22.152C383.854 20.808 383.278 19.176 383.278 17.064C383.278 15.144 383.854 13.608 385.102 12.36C386.35 11.112 387.982 10.44 389.998 10.44C392.014 10.44 393.646 11.112 394.894 12.36C396.142 13.608 396.814 15.144 396.814 17.064C396.814 19.176 396.142 20.808 394.894 22.152C393.646 23.496 392.014 24.072 389.998 24.072C387.982 24.072 386.35 23.496 385.102 22.152ZM378.958 79.752C381.07 79.752 382.702 79.176 383.854 77.832C385.006 76.584 385.678 74.376 385.678 71.304V42.792C385.678 40.488 385.102 38.952 384.142 37.992C383.182 37.032 381.55 36.552 379.342 36.456V35.208C385.486 34.824 390.766 33.576 395.182 31.464L396.046 31.944V71.304C396.046 74.472 396.622 76.68 397.774 77.928C398.926 79.176 400.558 79.752 402.766 79.752V81H378.958V79.752ZM436.158 79.752C438.27 79.752 439.998 79.272 441.246 78.312C442.494 77.352 443.166 75.72 443.166 73.32C443.166 72.552 443.07 71.88 443.07 71.4L440.094 49.416C438.942 41.256 435.582 37.128 430.11 37.128C427.614 37.128 425.406 38.184 423.678 40.2C421.95 42.312 420.894 44.712 420.702 47.592V71.304C420.702 74.472 421.278 76.68 422.43 77.928C423.582 79.176 425.214 79.752 427.422 79.752V81H403.614V79.752C405.726 79.752 407.358 79.176 408.51 77.832C409.662 76.584 410.334 74.376 410.334 71.304V42.792C410.334 40.488 409.758 38.952 408.798 37.992C407.838 37.032 406.206 36.552 403.998 36.456V35.208C410.142 34.824 415.422 33.576 419.838 31.464L420.702 31.944V43.464C421.566 40.008 423.294 37.128 425.886 34.824C428.478 32.52 431.55 31.368 435.198 31.368C439.326 31.368 442.686 32.904 445.374 35.784C447.966 38.664 449.694 43.176 450.558 49.128L453.822 71.4C454.206 74.472 454.974 76.68 456.222 77.928C457.374 79.176 459.006 79.752 461.118 79.752V81H436.158V79.752ZM467.414 22.152C466.166 20.808 465.59 19.176 465.59 17.064C465.59 15.144 466.166 13.608 467.414 12.36C468.662 11.112 470.294 10.44 472.31 10.44C474.326 10.44 475.958 11.112 477.206 12.36C478.454 13.608 479.126 15.144 479.126 17.064C479.126 19.176 478.454 20.808 477.206 22.152C475.958 23.496 474.326 24.072 472.31 24.072C470.294 24.072 468.662 23.496 467.414 22.152ZM461.27 79.752C463.382 79.752 465.014 79.176 466.166 77.832C467.318 76.584 467.99 74.376 467.99 71.304V42.792C467.99 40.488 467.414 38.952 466.454 37.992C465.494 37.032 463.862 36.552 461.654 36.456V35.208C467.798 34.824 473.078 33.576 477.494 31.464L478.358 31.944V71.304C478.358 74.472 478.934 76.68 480.086 77.928C481.238 79.176 482.87 79.752 485.078 79.752V81H461.27V79.752ZM19.296 172.544C14.304 169.472 10.368 165.344 7.488 160.16C4.608 154.976 3.168 149.216 3.168 142.88C3.168 136.544 4.608 130.592 7.488 125.216C10.368 119.84 14.4 115.616 19.488 112.448C24.48 109.28 30.048 107.648 36.192 107.648C38.88 107.648 41.376 107.936 43.584 108.512C45.696 109.088 47.904 109.856 50.208 110.816C51.168 111.296 52.128 111.68 53.088 111.968C54.048 112.256 54.912 112.352 55.68 112.352C56.736 112.352 57.696 112.064 58.464 111.392C59.232 110.816 59.616 109.856 59.808 108.512L61.152 108.416L63.168 134.048L61.824 134.24C60.864 129.728 59.136 125.6 56.544 121.76C53.952 117.92 50.88 114.944 47.232 112.64C43.584 110.432 39.84 109.28 35.904 109.28C31.584 109.28 27.648 110.528 24.192 113.024C20.736 115.52 17.952 118.88 15.936 123.104C13.824 127.328 12.864 132.032 12.864 137.216C12.864 143.264 14.016 148.736 16.512 153.536C19.008 158.336 22.368 162.08 26.688 164.768C30.912 167.456 35.712 168.8 41.088 168.8C46.944 168.8 51.936 167.168 55.968 163.904C60 160.64 62.976 156.416 64.8 151.232L65.952 151.52C64.992 156.32 63.264 160.64 60.576 164.48C57.888 168.32 54.432 171.392 50.208 173.696C45.984 176 41.376 177.056 36.288 177.056C29.952 177.056 24.288 175.616 19.296 172.544ZM80.469 173.6C77.109 171.392 74.517 168.32 72.693 164.48C70.773 160.64 69.909 156.512 69.909 151.904C69.909 147.104 70.869 142.784 72.981 138.944C75.093 135.104 77.877 132.032 81.525 129.728C85.077 127.52 89.013 126.368 93.237 126.368C96.885 126.368 100.149 127.232 102.837 128.864C105.525 130.592 107.637 132.8 109.077 135.584C110.517 138.464 111.285 141.536 111.285 144.8H80.085C79.989 145.184 79.989 145.76 79.989 146.432C79.989 150.944 80.661 154.88 82.101 158.336C83.445 161.792 85.461 164.48 88.053 166.4C90.645 168.32 93.717 169.184 97.173 169.184C101.013 169.184 104.277 168.032 106.965 165.728C109.653 163.424 111.381 160.448 112.149 156.608L113.493 156.8C112.917 160.64 111.573 164.096 109.653 167.168C107.733 170.24 105.237 172.64 102.165 174.368C99.093 176.096 95.733 176.96 92.085 176.96C87.669 176.96 83.829 175.904 80.469 173.6ZM96.981 143.168C98.325 143.168 99.381 142.88 99.957 142.208C100.533 141.536 100.917 140.384 100.917 138.848C100.917 136.16 100.149 133.664 98.805 131.36C97.365 129.056 95.253 127.808 92.469 127.808C89.589 127.808 86.901 129.344 84.597 132.32C82.197 135.392 80.757 138.944 80.181 143.168H96.981ZM175.579 174.752C177.883 174.752 179.611 174.272 180.955 173.312C182.203 172.352 182.875 170.72 182.875 168.32C182.875 167.552 182.779 166.88 182.779 166.4L179.707 144.416C178.555 136.256 175.195 132.128 169.723 132.128C167.035 132.128 164.827 133.088 163.195 134.912C161.563 136.736 160.603 139.04 160.219 141.728C160.315 143.072 160.411 144.032 160.411 144.8V166.304C160.411 169.376 160.987 171.584 162.139 172.832C163.291 174.176 165.019 174.752 167.131 174.752V176H143.707V174.752C145.723 174.752 147.259 174.176 148.411 172.928C149.563 171.68 150.139 169.472 150.139 166.304V146.432C150.139 141.824 149.179 138.272 147.451 135.776C145.723 133.28 143.227 132.032 140.059 132.032C137.467 132.032 135.259 132.992 133.435 134.72C131.515 136.544 130.459 138.656 130.171 141.056V166.304C130.171 169.472 130.651 171.68 131.803 172.928C132.955 174.176 134.491 174.752 136.603 174.752V176H113.083V174.752C115.195 174.752 116.827 174.176 117.979 172.832C119.131 171.584 119.803 169.376 119.803 166.304V137.792C119.803 135.488 119.227 133.952 118.267 132.992C117.307 132.032 115.675 131.552 113.467 131.456V130.208C119.611 129.824 124.891 128.576 129.307 126.464L130.171 126.944V137.216C131.131 134.24 132.955 131.648 135.643 129.536C138.235 127.424 141.211 126.368 144.667 126.368C148.315 126.368 151.483 127.52 154.171 129.632C156.859 131.744 158.779 134.816 159.739 138.656C160.507 135.2 162.235 132.32 164.923 129.92C167.515 127.616 170.683 126.368 174.427 126.368C183.163 126.368 188.443 132.32 190.171 144.128L193.435 166.4C193.819 169.472 194.683 171.68 196.027 172.928C197.275 174.176 199.003 174.752 201.115 174.752V176H175.579V174.752ZM210.219 173.6C206.859 171.392 204.267 168.32 202.443 164.48C200.523 160.64 199.659 156.512 199.659 151.904C199.659 147.104 200.619 142.784 202.731 138.944C204.843 135.104 207.627 132.032 211.275 129.728C214.827 127.52 218.763 126.368 222.987 126.368C226.635 126.368 229.899 127.232 232.587 128.864C235.275 130.592 237.387 132.8 238.827 135.584C240.267 138.464 241.035 141.536 241.035 144.8H209.835C209.739 145.184 209.739 145.76 209.739 146.432C209.739 150.944 210.411 154.88 211.851 158.336C213.195 161.792 215.211 164.48 217.803 166.4C220.395 168.32 223.467 169.184 226.923 169.184C230.763 169.184 234.027 168.032 236.715 165.728C239.403 163.424 241.131 160.448 241.899 156.608L243.243 156.8C242.667 160.64 241.323 164.096 239.403 167.168C237.483 170.24 234.987 172.64 231.915 174.368C228.843 176.096 225.483 176.96 221.835 176.96C217.419 176.96 213.579 175.904 210.219 173.6ZM226.731 143.168C228.075 143.168 229.131 142.88 229.707 142.208C230.283 141.536 230.667 140.384 230.667 138.848C230.667 136.16 229.899 133.664 228.555 131.36C227.115 129.056 225.003 127.808 222.219 127.808C219.339 127.808 216.651 129.344 214.347 132.32C211.947 135.392 210.507 138.944 209.931 143.168H226.731ZM275.377 174.752C277.489 174.752 279.217 174.272 280.465 173.312C281.713 172.352 282.385 170.72 282.385 168.32C282.385 167.552 282.289 166.88 282.289 166.4L279.313 144.416C278.161 136.256 274.801 132.128 269.329 132.128C266.833 132.128 264.625 133.184 262.897 135.2C261.169 137.312 260.113 139.712 259.921 142.592V166.304C259.921 169.472 260.497 171.68 261.649 172.928C262.801 174.176 264.433 174.752 266.641 174.752V176H242.833V174.752C244.945 174.752 246.577 174.176 247.729 172.832C248.881 171.584 249.553 169.376 249.553 166.304V137.792C249.553 135.488 248.977 133.952 248.017 132.992C247.057 132.032 245.425 131.552 243.217 131.456V130.208C249.361 129.824 254.641 128.576 259.057 126.464L259.921 126.944V138.464C260.785 135.008 262.513 132.128 265.105 129.824C267.697 127.52 270.769 126.368 274.417 126.368C278.545 126.368 281.905 127.904 284.593 130.784C287.185 133.664 288.913 138.176 289.777 144.128L293.041 166.4C293.425 169.472 294.193 171.68 295.441 172.928C296.593 174.176 298.225 174.752 300.337 174.752V176H275.377V174.752ZM306.158 172.544C303.854 169.568 302.702 165.728 302.702 160.928V131.168H296.654V129.824C300.59 129.44 303.95 128.096 306.638 125.6C309.326 123.104 311.054 119.744 311.822 115.424H313.166V127.328H327.47L325.838 131.168H313.166V159.872C313.166 163.136 313.838 165.824 315.182 167.84C316.526 169.952 318.446 170.912 320.846 170.912C322.766 170.912 324.302 170.336 325.55 168.992C326.798 167.648 327.662 166.016 328.142 164L329.294 164.192C328.814 167.84 327.374 170.816 325.07 173.312C322.67 175.808 319.79 176.96 316.526 176.96C311.918 176.96 308.462 175.52 306.158 172.544ZM341.786 173.6C338.042 171.392 335.066 168.32 332.954 164.384C330.746 160.544 329.69 156.224 329.69 151.424C329.69 146.528 330.746 142.208 332.954 138.368C335.066 134.528 338.042 131.648 341.786 129.536C345.434 127.424 349.466 126.368 353.882 126.368C358.298 126.368 362.33 127.52 365.978 129.632C369.626 131.84 372.602 134.816 374.81 138.656C376.922 142.496 378.074 146.816 378.074 151.616C378.074 156.512 377.018 160.928 374.906 164.768C372.794 168.608 369.818 171.68 366.17 173.792C362.522 175.904 358.49 176.96 354.074 176.96C349.562 176.96 345.434 175.904 341.786 173.6ZM346.202 169.184C348.89 173.216 352.154 175.136 355.802 175.136C359.45 175.136 362.234 173.408 364.25 169.856C366.17 166.4 367.226 161.792 367.226 156.128C367.226 154.304 367.034 152 366.746 149.312C365.882 142.976 364.154 137.888 361.466 134.048C358.778 130.208 355.706 128.192 352.154 128.192C348.41 128.192 345.53 130.016 343.514 133.568C341.498 137.216 340.538 141.824 340.538 147.392C340.538 149.696 340.634 151.712 340.922 153.536C341.69 159.968 343.514 165.152 346.202 169.184Z" fill="white"/>
<path d="M413.264 145.384C407.408 145.384 403.152 140.84 403.152 134.6C403.152 128.36 407.408 123.816 413.264 123.816C419.12 123.816 423.376 128.36 423.376 134.6C423.376 140.84 419.12 145.384 413.264 145.384ZM405.968 134.6C405.968 139.304 409.04 142.696 413.264 142.696C417.488 142.696 420.56 139.304 420.56 134.6C420.56 129.864 417.488 126.44 413.264 126.44C409.04 126.44 405.968 129.864 405.968 134.6ZM431.961 145.384C428.121 145.384 425.305 143.208 425.049 140.264L427.865 139.496C427.993 141.416 429.785 142.952 432.089 142.952C433.881 142.952 435.289 141.992 435.289 140.648C435.289 137.064 425.817 138.472 425.817 133.096C425.817 130.472 428.121 128.616 431.449 128.616C434.777 128.616 437.241 130.44 437.593 132.968L434.905 133.672C434.841 132.104 433.433 130.984 431.513 130.984C429.785 130.984 428.569 131.88 428.569 133.096C428.569 136.552 438.105 135.144 438.105 140.648C438.105 143.4 435.545 145.384 431.961 145.384ZM446.555 145.384C442.715 145.384 439.899 143.208 439.643 140.264L442.459 139.496C442.587 141.416 444.379 142.952 446.683 142.952C448.475 142.952 449.883 141.992 449.883 140.648C449.883 137.064 440.411 138.472 440.411 133.096C440.411 130.472 442.715 128.616 446.043 128.616C449.371 128.616 451.835 130.44 452.187 132.968L449.499 133.672C449.435 132.104 448.027 130.984 446.107 130.984C444.379 130.984 443.163 131.88 443.163 133.096C443.163 136.552 452.699 135.144 452.699 140.648C452.699 143.4 450.139 145.384 446.555 145.384ZM462.429 145.384C457.789 145.384 454.493 141.896 454.493 137C454.493 132.104 457.693 128.616 462.173 128.616C467.069 128.616 470.077 132.68 469.693 138.056H457.341C457.789 140.872 459.773 142.824 462.493 142.824C464.669 142.824 466.397 141.544 466.781 139.752L469.533 140.648C468.765 143.464 465.885 145.384 462.429 145.384ZM457.373 135.56H466.973C466.589 132.872 464.669 131.112 462.237 131.112C459.709 131.112 457.821 132.936 457.373 135.56ZM472.798 145V129H474.974L475.23 131.56C476.03 129.224 478.494 128.104 481.246 128.872L481.118 131.88C478.558 130.6 475.358 131.656 475.358 135.272V145H472.798ZM487.833 145L481.689 129H484.697L489.337 142.056L493.977 129H496.857L490.841 145H487.833ZM502.928 145.384C499.76 145.384 497.68 143.56 497.68 140.776C497.68 138.568 499.44 136.776 502.16 136.296L507.088 135.4C507.632 135.304 508.048 134.888 508.048 134.376C508.048 132.36 506.672 130.92 504.72 130.92C502.672 130.92 501.136 132.392 501.008 134.632L498.192 134.312C498.512 130.984 501.168 128.616 504.592 128.616C508.112 128.616 510.608 131.08 510.608 134.504V141.8L510.672 145H508.624L508.176 142.568C507.184 144.296 505.264 145.384 502.928 145.384ZM500.496 140.648C500.496 141.992 501.648 142.888 503.44 142.888C506.128 142.888 508.048 141.032 508.048 138.472V137.352C507.76 137.416 507.408 137.512 507.024 137.576L502.8 138.344C501.392 138.6 500.496 139.496 500.496 140.648ZM513.305 145V142.376L523.097 131.432H513.561V129H526.233V131.496L516.569 142.44H526.361V145H513.305ZM529.423 129H531.983V145H529.423V129ZM528.719 124.904C528.719 123.72 529.551 122.856 530.703 122.856C531.855 122.856 532.687 123.72 532.687 124.904C532.687 126.088 531.855 126.952 530.703 126.952C529.551 126.952 528.719 126.088 528.719 124.904ZM543.055 145.384C538.383 145.384 535.055 141.896 535.055 137C535.055 132.104 538.383 128.616 543.055 128.616C547.727 128.616 551.055 132.104 551.055 137C551.055 141.896 547.727 145.384 543.055 145.384ZM537.743 137C537.743 140.392 539.951 142.824 543.055 142.824C546.159 142.824 548.367 140.392 548.367 137C548.367 133.576 546.159 131.112 543.055 131.112C539.951 131.112 537.743 133.576 537.743 137ZM554.142 145V129H556.318L556.606 131.752C557.47 129.832 559.582 128.616 561.95 128.616C565.566 128.616 568.158 131.432 568.158 135.272V145H565.598V135.528C565.598 132.968 563.87 131.176 561.438 131.176C558.75 131.176 556.702 133.32 556.702 136.296V145H554.142ZM571.861 129H574.421V145H571.861V129ZM571.157 124.904C571.157 123.72 571.989 122.856 573.141 122.856C574.293 122.856 575.125 123.72 575.125 124.904C575.125 126.088 574.293 126.952 573.141 126.952C571.989 126.952 571.157 126.088 571.157 124.904ZM591.18 145.384C587.34 145.384 584.524 143.208 584.268 140.264L587.084 139.496C587.212 141.416 589.004 142.952 591.308 142.952C593.1 142.952 594.508 141.992 594.508 140.648C594.508 137.064 585.036 138.472 585.036 133.096C585.036 130.472 587.34 128.616 590.668 128.616C593.996 128.616 596.46 130.44 596.812 132.968L594.124 133.672C594.06 132.104 592.652 130.984 590.732 130.984C589.004 130.984 587.788 131.88 587.788 133.096C587.788 136.552 597.324 135.144 597.324 140.648C597.324 143.4 594.764 145.384 591.18 145.384ZM605.966 145.384C602.318 145.384 599.758 142.824 599.758 139.112V129H602.318V138.728C602.318 141.064 604.078 142.76 606.542 142.76C609.166 142.76 611.022 140.872 611.022 138.216V129H613.582V141.8L613.646 145H611.406L611.022 142.44C610.318 144.232 608.398 145.384 605.966 145.384ZM617.673 145V123.24H620.233V145H617.673ZM624.329 145V123.24H626.889V145H624.329ZM635.21 145.384C632.042 145.384 629.962 143.56 629.962 140.776C629.962 138.568 631.722 136.776 634.442 136.296L639.37 135.4C639.914 135.304 640.33 134.888 640.33 134.376C640.33 132.36 638.954 130.92 637.002 130.92C634.954 130.92 633.418 132.392 633.29 134.632L630.474 134.312C630.794 130.984 633.45 128.616 636.874 128.616C640.394 128.616 642.89 131.08 642.89 134.504V141.8L642.954 145H640.906L640.458 142.568C639.466 144.296 637.546 145.384 635.21 145.384ZM632.778 140.648C632.778 141.992 633.93 142.888 635.722 142.888C638.41 142.888 640.33 141.032 640.33 138.472V137.352C640.042 137.416 639.69 137.512 639.306 137.576L635.082 138.344C633.674 138.6 632.778 139.496 632.778 140.648ZM412.368 179.384C409.904 179.384 407.856 178.264 406.544 176.376L406.224 179H404.048V157.24H406.608V165.496C407.952 163.704 410 162.616 412.432 162.616C416.752 162.616 419.856 166.072 419.856 170.936C419.856 175.864 416.72 179.384 412.368 179.384ZM406.544 171C406.544 174.392 408.752 176.824 411.856 176.824C414.96 176.824 417.168 174.392 417.168 171C417.168 167.576 414.96 165.112 411.856 165.112C408.752 165.112 406.544 167.576 406.544 171ZM422.923 163H425.483V179H422.923V163ZM422.219 158.904C422.219 157.72 423.051 156.856 424.203 156.856C425.355 156.856 426.187 157.72 426.187 158.904C426.187 160.088 425.355 160.952 424.203 160.952C423.051 160.952 422.219 160.088 422.219 158.904ZM436.555 179.384C431.883 179.384 428.555 175.896 428.555 171C428.555 166.104 431.883 162.616 436.555 162.616C441.227 162.616 444.555 166.104 444.555 171C444.555 175.896 441.227 179.384 436.555 179.384ZM431.243 171C431.243 174.392 433.451 176.824 436.555 176.824C439.659 176.824 441.867 174.392 441.867 171C441.867 167.576 439.659 165.112 436.555 165.112C433.451 165.112 431.243 167.576 431.243 171ZM454.106 179.384C449.754 179.384 446.618 175.864 446.618 170.936C446.618 166.072 449.722 162.616 454.042 162.616C456.506 162.616 458.586 163.768 459.93 165.624V157.24H462.49V175.8L462.554 179H460.378L460.058 176.248C458.714 178.2 456.634 179.384 454.106 179.384ZM449.306 171C449.306 174.392 451.546 176.824 454.65 176.824C457.754 176.824 459.994 174.392 459.994 171C459.994 167.576 457.754 165.112 454.65 165.112C451.546 165.112 449.306 167.576 449.306 171ZM466.579 163H469.139V179H466.579V163ZM465.875 158.904C465.875 157.72 466.707 156.856 467.859 156.856C469.011 156.856 469.843 157.72 469.843 158.904C469.843 160.088 469.011 160.952 467.859 160.952C466.707 160.952 465.875 160.088 465.875 158.904ZM477.396 179L471.252 163H474.26L478.9 176.056L483.54 163H486.42L480.404 179H477.396ZM495.054 179.384C490.414 179.384 487.118 175.896 487.118 171C487.118 166.104 490.318 162.616 494.798 162.616C499.694 162.616 502.702 166.68 502.318 172.056H489.966C490.414 174.872 492.398 176.824 495.118 176.824C497.294 176.824 499.022 175.544 499.406 173.752L502.158 174.648C501.39 177.464 498.51 179.384 495.054 179.384ZM489.998 169.56H499.598C499.214 166.872 497.294 165.112 494.862 165.112C492.334 165.112 490.446 166.936 489.998 169.56ZM505.423 179V163H507.599L507.855 165.56C508.655 163.224 511.119 162.104 513.871 162.872L513.743 165.88C511.183 164.6 507.983 165.656 507.983 169.272V179H505.423ZM521.68 179.384C517.84 179.384 515.024 177.208 514.768 174.264L517.584 173.496C517.712 175.416 519.504 176.952 521.808 176.952C523.6 176.952 525.008 175.992 525.008 174.648C525.008 171.064 515.536 172.472 515.536 167.096C515.536 164.472 517.84 162.616 521.168 162.616C524.496 162.616 526.96 164.44 527.312 166.968L524.624 167.672C524.56 166.104 523.152 164.984 521.232 164.984C519.504 164.984 518.288 165.88 518.288 167.096C518.288 170.552 527.824 169.144 527.824 174.648C527.824 177.4 525.264 179.384 521.68 179.384ZM530.642 163H533.202V179H530.642V163ZM529.938 158.904C529.938 157.72 530.77 156.856 531.922 156.856C533.074 156.856 533.906 157.72 533.906 158.904C533.906 160.088 533.074 160.952 531.922 160.952C530.77 160.952 529.938 160.088 529.938 158.904ZM544.274 179.128C541.586 179.896 538.066 179.128 538.066 175.544V165.496H535.506V163H536.466C537.522 163 538.194 162.232 538.194 161.016V158.904H540.626V163H544.21V165.496H540.626V174.904C540.626 176.696 542.482 177.208 544.146 176.568L544.274 179.128ZM551.366 179.384C548.198 179.384 546.118 177.56 546.118 174.776C546.118 172.568 547.878 170.776 550.598 170.296L555.526 169.4C556.07 169.304 556.486 168.888 556.486 168.376C556.486 166.36 555.11 164.92 553.158 164.92C551.11 164.92 549.574 166.392 549.446 168.632L546.63 168.312C546.95 164.984 549.606 162.616 553.03 162.616C556.55 162.616 559.046 165.08 559.046 168.504V175.8L559.11 179H557.062L556.614 176.568C555.622 178.296 553.702 179.384 551.366 179.384ZM548.358 156.856H552.198L554.118 160.824H551.558L548.358 156.856ZM548.934 174.648C548.934 175.992 550.086 176.888 551.878 176.888C554.566 176.888 556.486 175.032 556.486 172.472V171.352C556.198 171.416 555.846 171.512 555.462 171.576L551.238 172.344C549.83 172.6 548.934 173.496 548.934 174.648ZM575.622 179.384C571.974 179.384 569.414 176.824 569.414 173.112V163H571.974V172.728C571.974 175.064 573.734 176.76 576.198 176.76C578.822 176.76 580.678 174.872 580.678 172.216V163H583.238V175.8L583.302 179H581.062L580.678 176.44C579.974 178.232 578.054 179.384 575.622 179.384ZM587.329 179V163H589.505L589.761 165.56C590.561 163.224 593.025 162.104 595.777 162.872L595.649 165.88C593.089 164.6 589.889 165.656 589.889 169.272V179H587.329ZM606.524 179.384C604.06 179.384 602.012 178.264 600.7 176.376L600.38 179H598.204V157.24H600.764V165.496C602.108 163.704 604.156 162.616 606.588 162.616C610.908 162.616 614.012 166.072 614.012 170.936C614.012 175.864 610.876 179.384 606.524 179.384ZM600.7 171C600.7 174.392 602.908 176.824 606.012 176.824C609.116 176.824 611.324 174.392 611.324 171C611.324 167.576 609.116 165.112 606.012 165.112C602.908 165.112 600.7 167.576 600.7 171ZM621.303 179.384C618.135 179.384 616.055 177.56 616.055 174.776C616.055 172.568 617.815 170.776 620.535 170.296L625.463 169.4C626.007 169.304 626.423 168.888 626.423 168.376C626.423 166.36 625.047 164.92 623.095 164.92C621.047 164.92 619.511 166.392 619.383 168.632L616.567 168.312C616.887 164.984 619.543 162.616 622.967 162.616C626.487 162.616 628.983 165.08 628.983 168.504V175.8L629.047 179H626.999L626.551 176.568C625.559 178.296 623.639 179.384 621.303 179.384ZM618.871 174.648C618.871 175.992 620.023 176.888 621.815 176.888C624.503 176.888 626.423 175.032 626.423 172.472V171.352C626.135 171.416 625.783 171.512 625.399 171.576L621.175 172.344C619.767 172.6 618.871 173.496 618.871 174.648ZM632.704 179V163H634.88L635.168 165.752C636.032 163.832 638.144 162.616 640.512 162.616C644.128 162.616 646.72 165.432 646.72 169.272V179H644.16V169.528C644.16 166.968 642.432 165.176 640 165.176C637.312 165.176 635.264 167.32 635.264 170.296V179H632.704ZM654.647 179.384C651.479 179.384 649.399 177.56 649.399 174.776C649.399 172.568 651.159 170.776 653.879 170.296L658.807 169.4C659.351 169.304 659.767 168.888 659.767 168.376C659.767 166.36 658.391 164.92 656.439 164.92C654.391 164.92 652.855 166.392 652.727 168.632L649.911 168.312C650.231 164.984 652.887 162.616 656.311 162.616C659.831 162.616 662.327 165.08 662.327 168.504V175.8L662.391 179H660.343L659.895 176.568C658.903 178.296 656.983 179.384 654.647 179.384ZM652.215 174.648C652.215 175.992 653.367 176.888 655.159 176.888C657.847 176.888 659.767 175.032 659.767 172.472V171.352C659.479 171.416 659.127 171.512 658.743 171.576L654.519 172.344C653.111 172.6 652.215 173.496 652.215 174.648ZM408.272 213.384C405.104 213.384 403.024 211.56 403.024 208.776C403.024 206.568 404.784 204.776 407.504 204.296L412.432 203.4C412.976 203.304 413.392 202.888 413.392 202.376C413.392 200.36 412.016 198.92 410.064 198.92C408.016 198.92 406.48 200.392 406.352 202.632L403.536 202.312C403.856 198.984 406.512 196.616 409.936 196.616C413.456 196.616 415.952 199.08 415.952 202.504V209.8L416.016 213H413.968L413.52 210.568C412.528 212.296 410.608 213.384 408.272 213.384ZM405.84 208.648C405.84 209.992 406.992 210.888 408.784 210.888C411.472 210.888 413.392 209.032 413.392 206.472V205.352C413.104 205.416 412.752 205.512 412.368 205.576L408.144 206.344C406.736 206.6 405.84 207.496 405.84 208.648ZM426.704 213V192.2H430.736L437.328 209.288L443.792 192.2H447.696V213H445.008V196.104L438.608 212.936H435.984L429.392 196.104V213H426.704ZM451.798 197H454.358V213H451.798V197ZM451.094 192.904C451.094 191.72 451.926 190.856 453.078 190.856C454.23 190.856 455.062 191.72 455.062 192.904C455.062 194.088 454.23 194.952 453.078 194.952C451.926 194.952 451.094 194.088 451.094 192.904ZM458.454 213V191.24H461.014V213H458.454ZM469.335 213.384C466.167 213.384 464.087 211.56 464.087 208.776C464.087 206.568 465.847 204.776 468.567 204.296L473.495 203.4C474.039 203.304 474.455 202.888 474.455 202.376C474.455 200.36 473.079 198.92 471.127 198.92C469.079 198.92 467.543 200.392 467.415 202.632L464.599 202.312C464.919 198.984 467.575 196.616 470.999 196.616C474.519 196.616 477.015 199.08 477.015 202.504V209.8L477.079 213H475.031L474.583 210.568C473.591 212.296 471.671 213.384 469.335 213.384ZM466.903 208.648C466.903 209.992 468.055 210.888 469.847 210.888C472.535 210.888 474.455 209.032 474.455 206.472V205.352C474.167 205.416 473.815 205.512 473.431 205.576L469.207 206.344C467.799 206.6 466.903 207.496 466.903 208.648ZM480.736 213V197H482.911L483.2 199.752C484.064 197.832 486.176 196.616 488.544 196.616C492.16 196.616 494.752 199.432 494.752 203.272V213H492.192V203.528C492.192 200.968 490.464 199.176 488.032 199.176C485.344 199.176 483.296 201.32 483.296 204.296V213H480.736ZM505.43 213.384C500.758 213.384 497.43 209.896 497.43 205C497.43 200.104 500.758 196.616 505.43 196.616C510.102 196.616 513.43 200.104 513.43 205C513.43 209.896 510.102 213.384 505.43 213.384ZM500.118 205C500.118 208.392 502.326 210.824 505.43 210.824C508.534 210.824 510.742 208.392 510.742 205C510.742 201.576 508.534 199.112 505.43 199.112C502.326 199.112 500.118 201.576 500.118 205Z" fill="white"/>
</svg>
